<?xml version="1.0" encoding="utf-8"?>
<!-- Generator: Adobe Illustrator 27.1.1, SVG Export Plug-In . SVG Version: 6.00 Build 0)  -->
<svg version="1.1" id="Calque_1" xmlns="http://www.w3.org/2000/svg" xmlns:xlink="http://www.w3.org/1999/xlink" x="0px" y="0px"
	 viewBox="0 0 142.4 200" style="enable-background:new 0 0 142.4 200;" xml:space="preserve">
<style type="text/css">
	.st0{fill-rule:evenodd;clip-rule:evenodd;fill:#7F4F25;}
	.st1{fill-rule:evenodd;clip-rule:evenodd;fill:#FFFFFF;}
	.st2{fill-rule:evenodd;clip-rule:evenodd;fill:#54B37F;}
	.st3{fill-rule:evenodd;clip-rule:evenodd;fill:#E14D4D;}
	.st4{fill-rule:evenodd;clip-rule:evenodd;fill:#FFF1C8;}
	.st5{fill-rule:evenodd;clip-rule:evenodd;fill:#DC9FC6;}
	.st6{fill-rule:evenodd;clip-rule:evenodd;}
	.st7{fill:none;}
	.st8{fill:#A8BF89;stroke:#7E5025;stroke-width:0.6718;stroke-miterlimit:10;}
	.st9{fill:#F4E623;stroke:#7E5025;stroke-width:0.6718;stroke-miterlimit:10;}
</style>
<g>
	<g>
		<g>
			<path class="st0" d="M118.1,140.6c-1.2-1.4-2.3-2.9-3.6-4.6l-1,0.9l12.4,14l0.6-0.6c-0.3-0.3-0.5-0.6-0.8-0.8l10.2-9
				c0.1,0.2,0.2,0.3,0.4,0.4l0.8-0.8c-3.4-4.1-6.6-8.2-9.2-12.7c-0.6-1-1-1.9-0.3-2.9l-1.8,1.6c-1.6,2.4-3.7,4.1-6.1,5.4l-3.2,2.8
				c4-1.7,7.5-3.6,9.8-7.6c1,1.6,1.8,2.8,2.4,3.9c0.2,0.5,0.4,1.3,0.1,1.8c-2.2,3.6-5.4,6.3-9.2,8.4
				C119.2,141,118.3,140.9,118.1,140.6z"/>
			<path class="st1" d="M130.2,133c1.2,1.4,2.4,3.1,3.7,4.6c0.9,1,0.8,1.9,0.1,2.9c-2.2,3-4.9,5.6-8.3,7.3c-0.4,0.2-1.3,0-1.7-0.3
				c-1.6-1.7-3.2-3.4-4.5-5L130.2,133z"/>
		</g>
		<g>
			<g>
				<g>
					<path class="st2" d="M104.2,180.2c-0.4,1.1-0.3,2.3-0.5,3.5c0.2,0.1,0.4,0.2,0.7,0.3c0.7-0.6-8.7,4.3-9,6.6
						c-0.5,4,15.8-2.9,12.6-1.5c-1.6,0.6-3.1,1.2-4.7,1.8c-1.1,0.5-4.4,0.7-5.4,1.4c-0.5,0.3,0.2,3,0.7,3c2.5-0.2,6.9-0.2,9.2-1.1
						c3.3-1.2,6.6-2.8,9.2-5.1c2.1-1.9,3.2-5.1,4.7-7.7c1.9-3.2,3.8-6.4,5.7-9.5c0.3-0.5,1-0.7,1.6-1c1.9-0.9,3.8-1.8,5.9-2.8
						c-5.4-3.2-10.6-6.3-15.9-9.5c-0.2,1.4-0.3,2.7-0.7,4c-0.2,0.7-0.8,1.6-1.4,2C110.6,168.1,106.6,173.6,104.2,180.2z"/>
					<path class="st2" d="M102.6,183.8c-0.5,0.9-0.9,1.7-1.3,2.5c0.1,0.1,0.3,0.3,0.5,0.4c0.8-0.3,1.6-0.6,2.4-0.9
						C103.6,185.1,103.2,184.5,102.6,183.8z"/>
					<path class="st2" d="M103.7,184.1c0.7-0.7-9,4.8-9,6.6c0.1,4,15.8-2.8,12.6-1.5L103.7,184.1z"/>
				</g>
				<path class="st0" d="M136.8,139.8l-0.6,0.9l0,0c0,0,0.1,0.1,0.2,0.1c0.9,0.8,1.6,1.5,2.2,2.3c0,0,0,0,0.1,0
					c0.6,0.9,1.2,1.7,1.6,2.5c0,0.1,0.1,0.1,0.1,0.2c0.1,0.1,0.1,0.3,0.2,0.4c2.1,5.2-1.3,9.2-1.8,10c-0.2,0.3-0.8,0.5-1.1,0.4
					c-2.5-0.6-4.8-1.5-6.9-2.8c-0.1-0.1-0.3-0.2-0.5-0.3c-0.4-0.3-0.8-0.5-1.1-0.9c-0.1-0.1-0.2-0.2-0.4-0.4
					c-0.3-0.3-0.5-0.5-0.8-0.8c-0.3-0.4-0.6-1.3-0.5-2c0,0,0,0,0,0c0-0.1,0-0.2,0.1-0.3c0,0,0.1-0.1,0.1-0.2c0,0,0-0.1,0.1-0.2
					c0.2-0.3,0.1-0.3,0.2-0.3c0.1-0.2,0.2-0.3,0.4-0.5l-0.9,0.2l0,0l-1.4,0.3l-0.7,1.3l-4.7,7.9l-1.9-1.3c-0.3,2-0.5,3.6-0.9,5.3
					c-0.2,0.7-0.6,1.6-1.3,1.9c-5.5,2.9-9.1,7.4-11.5,13c-1.2,2.7-2.7,5.1-3.8,7.8c-0.6,1.6-4.2,3.4-5.8,4.3
					c-1.4,0.9-1.9,2.6,1.5,3.6c0.4,2.4,1.2,3.6,4.4,3.7c2.3,0,4.9-0.2,7.1-1c3-1.1,5.8-2.8,8.5-4.4c3-1.8,3.9-5.2,5.5-8.1
					c1.8-3.3,3.8-6.5,5.7-9.7c0.3-0.5,0.9-0.8,1.5-1.1c2.3-1.2,4.8-2.4,7.7-3.9c-1.6-0.8-2.8-1.4-4.1-2
					C136,161.9,148.3,151.2,136.8,139.8L136.8,139.8z M125.8,151.5c1.9,1.3,3.4,2.7,5.1,3.7c0.3,0.2,0.6,0.4,0.9,0.5
					c0.2,0.1,0.4,0.2,0.6,0.3c1.5,0.8,3.2,1.4,4.8,2c-1.5,2.2-2.9,4.4-4.4,6.5c-0.3,0.4-1.3,0.6-1.7,0.3c-3.1-1.7-6.1-3.5-9.1-5.4
					c-0.3-0.2-0.7-1.2-0.5-1.6C123,155.6,124.4,153.5,125.8,151.5z M103.7,183.7c0-0.5,0.1-0.9,0.1-1.3c0-0.4,0.1-0.9,0.1-1.3
					c0-0.3,0.1-0.6,0.2-0.8c0.2-0.4,0.3-0.8,0.5-1.3c0.1-0.2,0.2-0.4,0.3-0.6c0.2-0.4,0.3-0.8,0.5-1.2c0.1-0.2,0.2-0.4,0.3-0.6
					c0.1-0.2,0.2-0.5,0.3-0.6c0,0,0.1,0,0.1-0.1c0.2-0.4,0.4-0.8,0.6-1.1c0,0,0-0.1,0.1-0.1c0.2-0.4,0.5-0.8,0.7-1.2
					c0.1,0,0.1-0.1,0.1-0.1c0.1-0.1,0.2-0.3,0.3-0.5c0.4-0.6,0.8-1.1,1.2-1.7c0.3-0.3,0.5-0.5,0.7-0.8c0.1-0.1,0.2-0.2,0.3-0.3
					c0.1-0.1,0.2-0.2,0.3-0.3c0.1-0.1,0.3-0.3,0.4-0.5c0.2-0.3,0.5-0.5,0.8-0.8c0.2-0.2,0.4-0.4,0.6-0.6c0.2-0.2,0.5-0.4,0.7-0.6
					c0-0.1,0.1-0.1,0.2-0.2c0.1-0.1,0.2-0.1,0.2-0.2c0.1-0.1,0.2-0.2,0.4-0.3l0,0.1l-1,1.5c0,0-1,2.2-1.4,2.4
					c-0.4,0.2-0.6,1.5-1,1.8c-0.2,0.1-0.8,4.3-1,4.5c-0.2,0.2-0.3,0.9-0.4,1.1c-0.2,0.2-0.3,0.3-0.5,0.5c-0.9,1.1-1.2,2.4-2.1,3.5
					c-0.1,0.1-0.1,0.1-0.2,0.2c-0.5,0.6-1.2,1.1-1.8,1.7l0,0l0,0l-0.1,0C104.1,183.9,103.8,183.8,103.7,183.7L103.7,183.7z
					 M104.4,189.5c-2.7,1.1-1.2,0.2-3.9,1.1c-0.1,0.1-0.3,0-0.4,0c0,0,0,0-0.1,0c-0.2,0.2-4.3,0.9-4.4,0.8c-0.1,0-0.2-0.2-0.3-0.5
					c-0.1-0.3-0.1-0.6-0.1-0.8c0.1-0.2,0.2-0.5,0.3-0.6c0,0,0.2-0.1,0.6-0.2c1.1-0.3,3.4-0.9,3.5-1h0c0.3-0.2,0.6-0.3,0.9-0.4
					c0.3-0.1,0.7-0.2,1.1-0.3c0.2,0,0.3-0.1,0.5-0.2c0.2-0.1,0.4-0.1,0.6-0.2c0.3-0.1,0.6-0.2,0.9-0.3c0.6-0.2,1.1-0.4,1.6-0.7
					c0.3-0.2,0.6-0.4,0.9-0.6c0,0,0,0,0.1-0.1c0.2-0.2,0.3-0.4,0.4-0.5c0.3-0.5,0.5-1.1,0.7-1.9c0-0.3,0.1-0.5,0.2-0.8
					c0-0.1,0.1-0.3,0.2-0.4c0.1-0.4,0.3-0.7,0.5-1c0.5-0.8,1.7-2.8,2.2-3.8c0.3-0.6,0.6-4.7,1.1-5c0.6-0.4,1,10.1,1,10.1
					c-0.1,0.5-0.2,1-0.4,1.5c0,0.1,0,0.2-0.1,0.3c-0.1,0.2-0.2,0.4-0.3,0.6c-0.1,0.2-0.2,0.3-0.3,0.5c-0.2,0.4-0.5,0.7-0.8,1
					c0,0,0,0-0.1,0.1c-0.3,0.3-0.6,0.5-0.9,0.7c0,0-0.1,0.1-0.2,0.1c-0.2,0.1-1.6,0.8-2.9,1.4C105.7,188.9,104.7,189.4,104.4,189.5z
					 M101.8,185L101.8,185c0.2-0.2,0.2-0.4,0.4-0.6c0.1-0.2,0.2-0.5,0.3-0.7l0,0l0,0l0,0c0.1,0.1,0.2,0.2,0.3,0.3
					c0.1,0.1,0.1,0.2,0.2,0.2c0,0.1,0.1,0.1,0.1,0.1l0,0c0.3,0.3,0.6,0.7,0.9,1.1c-0.9,0.3-1.6,0.6-2.4,0.9
					c-0.1-0.1-0.3-0.3-0.4-0.4l0-0.1l0,0c0.1-0.2,0.2-0.4,0.3-0.6l0,0C101.7,185.3,101.8,185.2,101.8,185L101.8,185z M134.8,168.1
					c-0.4,0.2-0.8,0.4-1.2,0.6c-1.6,0.8-3.1,1.5-4.6,2.2c-0.4,0.2-1,0.4-1.3,0.7c-0.1,0.1-0.2,0.2-0.3,0.3l0,0
					c-1.9,3.2-3.8,6.3-5.7,9.5c-0.2,0.3-0.3,0.6-0.5,0.9c0,0.1-0.1,0.1-0.1,0.2c-0.1,0.2-0.2,0.5-0.4,0.7c-0.3,0.7-0.6,1.3-1,1.9
					c-0.1,0.2-0.2,0.3-0.3,0.5c-0.1,0.3-0.2,0.5-0.4,0.7c-0.1,0.3-0.3,0.5-0.4,0.7c-0.1,0.2-0.3,0.4-0.4,0.6
					c-0.2,0.3-0.4,0.5-0.6,0.7c-0.2,0.3-0.5,0.5-0.7,0.7c-0.3,0.3-0.6,0.5-0.9,0.8c-0.5,0.4-1,0.7-1.5,1c-0.2,0.2-0.5,0.3-0.8,0.5
					c-0.7,0.4-1.3,0.7-2,1.1c-0.7,0.3-1.4,0.6-2.1,0.9c-0.6,0.3-1.2,0.5-1.9,0.8c-0.3,0.1-0.6,0.2-0.9,0.3c-0.2,0.1-0.4,0.1-0.6,0.1
					c-0.2,0.1-0.4,0.1-0.6,0.1c-0.5,0-0.9,0.1-1.3,0.2c0,0-0.1,0-0.2,0c-0.6,0-1.2,0.1-1.7,0.1c-0.2,0-0.5,0.1-0.7,0
					c-0.4,0-0.7,0-1.1,0c-0.1,0-0.1,0-0.2,0c0,0,0,0,0,0c-0.1,0-1,0.2-1.5,0.2c-0.2,0-0.4,0-0.4,0c0,0,0-0.1-0.1-0.1
					c-0.2-0.3-0.6-1.2-0.7-1.9c0-0.1,0-0.3,0-0.3c0-0.1,0-0.3,0-0.3c0-0.2,0-0.3,0.1-0.3c0.2-0.2,0.7-0.4,1.2-0.4
					c0.2-0.1,0.4-0.1,0.7-0.2c1.3-0.3,2.9-0.5,3.6-0.8c0.7-0.3,1.5-0.6,2.3-0.9c0.2-0.1,0.4-0.2,0.5-0.2c0.1-0.1,0.3-0.1,0.4-0.2
					c0.1-0.1,0.3-0.1,0.4-0.2c0,0,0.1,0,0.1,0c0,0,0.1-0.1,0.2,0c0.1-0.1,0.2-0.1,0.3-0.1l0,0c0.1-0.1,0.2-0.1,0.3-0.2
					c0.4-0.1,0.8-0.3,1.1-0.5c0.4-0.3,0.9-0.5,1.2-0.8c0.4-0.3,0.8-0.6,1-0.9c0.2-0.2,0.4-0.4,0.6-0.6c0.2-0.3,0.4-0.6,0.5-0.9
					c0.2-0.3,0.3-0.6,0.4-0.9c0.2-0.3,0.3-0.7,0.4-1c0.2-0.5,0.2-1,0.3-1.6c0.1-0.8-0.4-2.2-0.2-3.1c0.1-0.6-0.4-4.1-0.4-4.1
					l-0.6-3.9l2.9-5l-0.6,0.3c0.3-0.2,0.7-0.5,1-0.7c0.3-0.2,0.5-0.3,0.7-0.5c0.2-0.1,0.4-0.3,0.5-0.3c0.3-0.2,0.6-0.5,0.9-0.9
					c0,0,0.1-0.1,0.1-0.1c0.1-0.1,0.2-0.3,0.2-0.4c0-0.1,0.1-0.2,0.1-0.3l0,0c0-0.1,0-0.2,0.1-0.3c0.1-0.2,0.2-0.5,0.2-0.8
					c0.2-0.7,0.3-1.5,0.4-2.2c0-0.3,0.1-0.7,0.1-1l0.1,0C124.4,161.8,129.5,164.8,134.8,168.1z"/>
			</g>
			<path class="st1" d="M137.4,157.9c-1.2,2.1-3.4,5.1-4.8,7.3c-0.2,0.3-1.3,0.5-1.7,0.3c-3-1.9-6-3.8-9-5.9
				c-0.4-0.3-0.6-1.3-0.4-1.7c1.2-2.3,2.6-4.8,4-7.2c1.6,1.4,3.6,3.2,5.4,4.5C132.7,156.4,135.2,156.7,137.4,157.9z"/>
			<path class="st3" d="M135.9,140.5c0,0,4.6,3.3,5.4,9c0.2,1.1-1,10.3-7.5,6.7c-1.6-0.9-2.9-1.4-6.8-5c-3.5-3.3,4.2-5.5,5.2-7.7
				C133.2,141.2,135.9,140.5,135.9,140.5z"/>
		</g>
		<g>
			<path class="st0" d="M87.1,22.5c-1.6-0.8-3-1.4-4.4-2c-20-8.4-40.6-10.6-61.7-8c-3.7,0.5-7.5,1.2-11.2,1.8l-0.7,0.9
				c1.4,9.2,3.9,18.1,7.5,26.9c6,14.7,13.6,28.4,25,39.8c1.1,1,2.1,2.1,3.3,3.2C39.1,88,34.1,91.7,30.4,97l0.6,0.4
				c0.7-0.1,1.2-0.2,1.9-0.3c8.6-1.3,17.1-1.4,25.5,1.7c6,2.3,10.9,0.4,14.6-4.4c0.3-0.4,1.2-0.8,1.7-0.7c6.6,1.3,12.8,0.3,18.7-2.5
				c0.4-0.3,1.3-0.3,1.7-0.1c2.2,1.1,4.4,2.3,6.8,3.7c-2.4,11.8-4.7,23.7-7.2,35.5c-0.3,1.5-0.1,2.3,1.4,2.9
				c7.6,3.3,14.5,8,20.5,13.8c3.1,3,3.1,3.1,6.5,0.7c0.1-0.1,0.2-0.2,0.3-0.2c0.3-0.3,0.6-0.6,0.9-0.6l5-5.2
				c1.6-2.6,2.4-5.6,3.3-8.8c0-0.1,0.1-0.3,0.1-0.4l0-0.1l0.3-0.6l2.5,1.3l1.4,0.7l1.8,1.1l-0.5-0.4c1.3,0.6,2.6,1.2,3.9,1.9
				l-0.1-1.3c-6.1-3.1-12.3-6.2-18.4-9.2c-3.3-1.7-9.3-0.7-10.9,1.4c3.1-0.1,6.5-0.7,9.7-0.1c3.3,0.7,6.3,2.4,9.6,3.8
				c-1.9,5.7-2.9,11.6-8.2,15.1c-0.8,0.5-1.6,1-2.5,1.5c-1.2,0.6-2.2,0.2-3.3-0.6c-4.7-3.7-9.5-7.3-14.3-10.8
				c-2.5-1.7-5.4-2.9-7.9-4.3c2.3-12,4.6-24.1,6.9-36.4l4,2.8c0.2-0.2,0.3-0.4,0.5-0.6c-1.2-0.9-2.3-1.8-3.7-2.9
				c3.5-1,5.4-3.7,7.5-6.1c0.3-0.3,1-0.5,1.4-0.3c2.4,0.8,4.8,1.7,7.7,2.7c-1.2,1-1.8,1.5-2.4,2c0.1,0.1,0.2,0.3,0.2,0.4
				c0.5-0.1,1.1-0.1,1.5-0.5c1-1.1,1.8-0.7,3,0.1c5.6,3.7,11.1,7.3,16.8,11l-0.2-1.3c-5.8-3.7-11.7-7.5-17.5-11.3l2.2-3.1
				c5,3.3,9.9,6.5,14.9,9.8l-0.1-1.2c-4.8-3.1-9.6-6.3-14.3-9.4c0.1-0.7,0.2-1.3,0.3-2c-0.1-0.1-0.2-0.1-0.3-0.1
				c-0.4,0.4-0.7,0.8-1.3,1.5c-1.9-1.4-3.9-2.8-5.8-4.4c-0.4-0.3-0.6-1.4-0.5-1.9c0.7-2.7,1.5-5.4,2.3-8.2c1,0.5,2.3,1.1,3.6,1.8
				c0.1-0.2,0.3-0.4,0.4-0.7c-1.3-0.8-2.7-1.5-4-2.3c0-0.2,0.1-0.4,0.1-0.4c5.6-3.1,10.9-6.6,15.9-10.4l0-0.1l-0.1-1.2
				c-5.5,4.1-11.1,7.9-17.3,11.1c-2.1-1.8-4.2-3.7-6.2-5.6c-0.5-0.4-0.7-1.2-0.8-1.8c-0.5-5.9-2.1-11.5-4.8-16.8
				c-0.6-1.3-0.7-2.2,0.1-3.4c2.9-4.4,2.9-9-0.2-13.6c-0.9-1.4-1.9-2.8-3-4.1c-3.5-4.2-5.8-9-7.1-14.2c-0.6-2.3-1.2-4.6-1.8-6.9
				c-0.1-0.5-0.3-1-0.7-2C89.1,8.4,86.9,15,87.1,22.5z M10.7,15.3L10.7,15.3c0.6-0.1,1.1-0.3,1.7-0.3c1.6-0.3,3.3-0.6,4.9-0.9
				c2.2-0.4,4.4-0.8,6.6-1.2c0.1,0.2,0.2,0.4,0.3,0.6c-4.7,4.3-8.1,9.4-11.1,15.6C12.3,24.2,11.5,19.9,10.7,15.3z M19.8,47
				c-0.4-1.1-0.9-2.2-1.3-3.4c-0.9-2.2-1.8-4.5-2.9-6.7c-0.3-0.5-0.5-1-0.6-1.6c0,0,0,0,0,0c-0.2-0.5-0.3-1-0.4-1.6
				c-0.2-0.8-0.3-1.6-0.2-2.4c0-0.3,0-0.6,0-0.8c0.1-0.8,0.2-1.6,0.5-2.3c0-0.1,0.1-0.3,0.1-0.4c0.5-1.5,1.4-3,2.4-4.4
				c2.2-2.8,4.4-5.7,6.8-8.3c1.3-1.4,3-2.2,5-2.4c0.3,0,0.6,0,0.9,0c5.3,0,10.7,0,16,0.2c-10.8,5.6-17.8,13.6-21.7,23.9
				c-1,2.5-1.7,5.1-2.3,7.9c-0.4,1.9-0.7,3.7-0.9,5.7l0,0C20.7,49.2,20.2,48.1,19.8,47z M23.1,53.7c-0.2-0.4-0.2-0.9-0.2-1.3
				c-1.1-15.8,10.3-33.3,25-38.7c0.9-0.3,2-0.5,3-0.3c6.5,1.1,13,2.2,19.4,3.3c0,0.2,0,0.5,0,0.7c-1.9,0.5-3.8,1.1-5.7,1.6l0,0
				c-0.9,0.2-1.9,0.5-2.7,0.9c-0.5,0.2-1,0.4-1.5,0.6c-0.7,0.3-1.3,0.6-2,0.9c-0.3,0.1-0.7,0.3-0.9,0.5c-0.6,0.3-1.2,0.7-1.8,1.1
				c-0.5,0.3-0.9,0.6-1.4,1c-0.7,0.5-1.3,0.9-1.9,1.5c-0.7,0.6-1.4,1.2-2.1,1.9c-1.3,1.3-2.6,2.7-3.7,4.2c-0.6,0.7-1.1,1.4-1.7,2.1
				c-0.6,0.7-1.1,1.5-1.7,2.2c-1.1,1.4-2.2,2.9-3.2,4.5c-0.8,1.3-1.6,2.6-2.2,3.9c-0.4,0.7-0.7,1.4-0.9,2.1
				c-0.1,0.1-0.2,0.3-0.2,0.5c-0.2,0.4-0.3,0.8-0.4,1.2c-0.2,0.3-0.3,0.6-0.3,0.9c-0.3,0.7-0.5,1.5-0.7,2.2
				c-0.3,0.8-0.5,1.6-0.6,2.4c-0.5,2.1-0.8,4.3-1,6.5c-0.2,2.2-0.3,4.5-0.4,6.7c0,0.9,0,1.8,0,2.7c-0.1,0-0.2,0.1-0.3,0.1
				c-0.1,0-0.2,0.1-0.4,0.1C29.2,64.4,26.1,59.1,23.1,53.7z M120.8,90.4c-1.4-0.6-2.7-1.2-4.1-1.8c-1.4-0.6-2.7-1.2-4.1-1.8
				c0.9-1.3,1.9-2.7,2.9-4.2l7.3,5C122,88.6,121.4,89.5,120.8,90.4z M111.9,66.5c1.2,1.1,2.4,2.1,3.6,3c1.4,1,1.9,2.1,1.8,3.7
				c0,3.2-1,6.3-2.8,8.9c-2.1,3.1-4.4,6.1-6.9,8.9c-2.7,3.1-4.7,3.2-8.2,1c-1.2-0.7-2.4-1.3-3.8-2c9.3-5.7,14.5-13.7,14.9-24.6
				C111.1,65.8,111.5,66.2,111.9,66.5z M94,9.6c1.1,5.2,3.2,10,6.5,14.3c1.9,2.5,3.6,5.1,4.9,7.9c1.8,3.8,1.3,7.6-1.1,11.1
				c-0.8-1-1.4-1.9-2.1-2.8c-0.2,0.1-0.3,0.2-0.5,0.2c0.3,0.6,0.5,1.3,0.8,1.8c4.4,7.2,7.1,15,6.6,23.4c-0.6,9.3-3.7,17.4-12,22.5
				c-7.2,4.4-15,6.6-23.8,4.4c-1.5-0.4-3.2-0.5-4.8-0.7c0,0.2,0,0.5-0.1,0.8c1.3,0.2,2.5,0.5,3.9,0.9c-2.5,3.6-5.8,5.1-10,4.8
				c-2.4-0.2-4.8-0.5-7-1.3c-6.9-2.3-13.7-2.3-20.6-1c-0.5,0.1-1.1,0.1-1.7,0.2c-0.1,0-0.1-0.1-0.4-0.3c6.2-6.4,12.7-11.9,22.7-10.9
				c-0.9-1.3-3.1-1.6-5.7-0.8c-0.6,0.1-1.2,0.1-1.8,0.2c-0.6,0.1-1.2,0.3-2.1,0.5c-3.4-3.9-6.9-7.6-10.3-11.6
				c-0.2-0.3-0.5-0.7-0.6-1.1c-0.1-0.2-0.2-0.5-0.3-0.7c-0.1-0.2-0.2-0.5-0.2-0.7c-0.1-0.3-0.1-0.6-0.1-0.9
				C33.8,61,35,52.5,38.7,44.6c3.3-7.2,8.7-12.7,14.3-18.2c5.4-5.2,12.3-6.8,19.3-8.3c0.2-0.1,0.5-0.1,0.7,0c0.2,0,0.3,0.1,0.4,0.1
				c0.1,0,0.3,0.1,0.4,0.1c1.6,0.6,3.1,1.2,4.7,1.8c1.6,0.6,3.1,1.2,4.7,1.9c1,0.4,2.1,0.9,3.1,1.3c0.2,0.1,0.4,0.2,0.6,0.4
				c0.5,0.5,0.9,1.2,1.4,2C76.7,27,68,32.2,60.7,40.1c-3.6,3.9-6.5,8-8.7,12.4c-0.5,0.9-0.9,1.8-1.3,2.7c-0.4,1-0.8,2-1.1,3
				c-0.1,0.4-0.2,0.7-0.3,1c-0.1,0.1-0.1,0.3-0.1,0.4c-0.3,0.8-0.5,1.5-0.6,2.3c-0.2,0.9-0.5,1.9-0.6,2.9c-0.2,1-0.3,2-0.4,3
				c-0.1,0.6-0.1,1.1-0.1,1.7c-0.1,0,0,0.1,0,0.1c-0.1,0.8-0.1,1.6-0.1,2.4c0,0.6,0,1.1,0,1.8c0,0.6,0,1.2,0.1,1.8
				c0,0.3,0,0.5,0.1,0.8c0,0.4,0.1,0.8,0.1,1.3c0.2,1.5,0.6,3,1,4.5c0.1,0.7,0.7,1.3,1.1,1.9c0.1-0.5,0.2-1,0-1.5
				C47.7,73.1,47.9,63.7,52,55c6.2-13,15.3-23.2,30-27.1c1-0.3,2-0.5,3-0.7c0.9-0.2,1.9-0.4,2.7-0.5c0.7,1.2,1.4,2.2,2,3.3
				c0.2,0,0.5-0.1,0.7-0.2c-4.6-9-1.7-17.1,2.4-25.2C93.3,6.2,93.7,7.9,94,9.6z"/>
			<path class="st4" d="M90.5,29.8c-0.2,0.1-0.5,0.2-0.7,0.2c-0.7-1.1-1.3-2.1-2-3.3C87,26.8,86,27,85.1,27.2c-1,0.3-2,0.4-3,0.7
				C67.3,31.7,58.2,42,52,55c-4.2,8.7-4.3,18.1-2.4,27.6c0.1,0.5,0,1,0,1.5c2.6-0.8,4.8-0.5,5.7,0.8c-10-1-16.5,4.5-22.7,10.9
				c0.3,0.2,0.3,0.2,0.4,0.3c0.6-0.1,1.2-0.1,1.7-0.2c6.9-1.3,13.8-1.3,20.6,1c2.2,0.8,4.7,1.2,7,1.3c4.2,0.3,7.6-1.2,10-4.8
				c-1.4-0.4-2.6-0.6-3.9-0.9c0-0.3,0.1-0.6,0.1-0.8c1.6,0.2,3.2,0.4,4.8,0.7c8.8,2.3,16.6,0,23.8-4.4c8.3-5.1,11.4-13.2,12-22.5
				c0.5-8.4-2.2-16.1-6.6-23.4c-0.4-0.6-0.6-1.2-0.8-1.8c0.2,0,0.3-0.1,0.5-0.2c0.7,0.9,1.4,1.8,2.1,2.8c2.5-3.5,3-7.2,1.1-11.1
				c-1.3-2.8-3-5.4-4.9-7.9c-3.3-4.3-5.4-9.1-6.5-14.3c-0.4-1.7-0.8-3.4-1.2-5C88.8,12.6,85.9,20.7,90.5,29.8z M65,90.7L65,90.7
				c-0.1,0.2-0.1,0.4-0.2,0.6c-0.2,0.6-0.6,1.1-1.1,1.5c-0.1,0.1-0.2,0.2-0.3,0.2c-0.3,0.2-0.6,0.4-1,0.5c-0.3,0.1-0.7,0.2-1.1,0.2
				c-0.2,0-0.4,0-0.6-0.1c-0.4-0.1-0.8-0.2-1.1-0.4c-0.1-0.1-0.3-0.2-0.4-0.3c-0.2-0.1-0.3-0.3-0.4-0.5c-0.1-0.1-0.1-0.3-0.2-0.4
				c0-0.1-0.1-0.2-0.1-0.4c-0.1-0.5-0.1-1.1-0.1-1.9c-0.9-0.1-1.8-0.2-2.7-0.2c-0.8,0-1.6,0-2.4,0c-1.1,0.1-2.2,0.2-3.3,0.4
				c-1.1,0.2-2.2,0.4-3.3,0.7c-0.5,0.2-1,0.3-1.5,0.5c-0.1,0-0.1,0-0.1,0c0.3,0,0.6,0.1,1,0.2c1,0.2,2,0.3,3,0.5
				c0.3,0.1,0.7,0.2,1,0.2c0.2,0.1,0.5,0.1,0.7,0.2c0.2,0.1,0.5,0.1,0.7,0.2c0.5,0.2,0.9,0.4,1.3,0.6l0.4,0.2c0,0.1-0.1,0.2-0.1,0.3
				c0,0.1-0.1,0.2-0.1,0.2c-0.5-0.1-1-0.2-1.5-0.3c-1.8-0.3-3.7-0.8-5.6-1c-0.6-0.1-1.3-0.1-1.9-0.1c-0.1,0-0.2,0-0.3,0
				c-1.5,0-3,0.7-4.6,1c-0.4,0.1-0.7,0.2-1.1,0.2C38.1,93.4,38,93.2,38,93c0.8-0.5,1.7-1,2.6-1.4c0.5-0.2,0.9-0.4,1.5-0.6
				c0-0.1,0.1-0.1,0.2-0.1c0.1,0,0.2-0.1,0.3-0.1c0-0.1,0,0,0.1,0c0.3-0.1,0.6-0.3,1-0.4c0.6-0.3,1.3-0.5,2.1-0.7
				c0.2,0,0.4-0.1,0.6-0.1c1.7-0.5,3.4-0.7,5.1-0.9c0.9-0.1,1.8-0.1,2.8-0.1c0.9,0,1.9,0,2.8,0.1c0.9,0,1.9,0.2,2.8,0.3
				c0,0.2,0,0.3,0,0.5c0,0.3,0,0.7,0,1c0,0.3,0,0.5,0,0.8c0,0.2,0,0.3,0,0.5c0,0.1,0,0.2,0.1,0.3c0,0.1,0,0.1,0.1,0.1
				c0,0.1,0.1,0.1,0.1,0.1c0.6,0.5,1.1,0.6,1.7,0.6c0.3,0,0.5-0.1,0.7-0.2c0.7-0.3,1.4-0.9,2.1-1.4C64.7,90.9,64.9,90.8,65,90.7
				C65.1,90.7,65.1,90.7,65,90.7z M79.6,80.2c1.2,2.6,0.1,5.6-2.4,6.5c-1.6,0.7-3.5,0.4-4.9-0.5c-0.5-0.3-0.9-0.6-1.2-1
				c-0.3-0.4-0.6-0.9-0.9-1.4c-0.1-0.2-0.2-0.4-0.2-0.6c-0.1-0.2-0.1-0.4-0.2-0.6c-0.1-0.3,0-0.6-0.1-0.9c0-0.3,0-0.6,0.1-0.9
				c0-0.3,0.1-0.6,0.2-0.9c0.1-0.4,0.3-0.8,0.6-1.1c0.5-0.8,1.3-1.4,2.3-1.8c-0.3,0.5-0.6,0.9-0.9,1.3c-0.3,0.4-0.5,0.7-0.7,1
				c-1.1,1.8-0.7,4.6,0.8,6c0.2,0.1,0.3,0.2,0.5,0.3c0.2,0.1,0.4,0.2,0.6,0.3c0.2,0.1,0.5,0.1,0.7,0.2c0.2,0.1,0.5,0.1,0.8,0
				c0.2,0,0.5,0,0.7,0c0.3-0.1,0.6-0.1,0.9-0.2c0.3-0.1,0.6-0.2,0.9-0.4c0.1-0.1,0.2-0.1,0.3-0.2c0.3-0.2,0.5-0.4,0.7-0.7
				c0.3-0.3,0.4-0.6,0.5-0.9c0.2-0.5,0.2-1.1,0.1-1.6c0-0.3-0.1-0.6-0.1-0.8l0,0c-0.2-0.6-1.2-1.6-1.5-1.6c-0.3,0.1-0.6,0.2-0.9,0.4
				c-0.3,0.2-0.6,0.4-0.8,0.6c-0.2,0.2-0.4,0.4-0.5,0.5c-0.1,0.1,0.8,1.1,1.1,1.6c0.1,0.1,0.1,0.2,0.2,0.5c-0.3,0.2-0.6,0.4-0.8,0.4
				c-0.1,0-0.3,0-0.3,0c-0.3-0.1-0.5-0.3-0.8-0.5c-0.1-0.2-0.2-0.4-0.3-0.6c-0.6-1.4,0.3-3.1,1.8-3.7C77.4,78.1,78.9,78.7,79.6,80.2
				z M70.8,66.7c-1.2,0.3-1.8,0.5-2.6,0.7c1.1,2.2,1,4.2-0.8,6c-2,1.9-4.1,1.2-6.2-0.1l-1.7,2.4c0-0.3,0-0.5,0-0.9c0,0,0-0.1,0-0.1
				s0-0.1,0.1-0.2l0,0c0,0,0,0,0-0.1c0-0.1,0.1-0.2,0.1-0.3c0-0.2,0.1-0.3,0.2-0.5C61.3,69.9,67.2,65.1,70.8,66.7
				C70.9,66.6,70.9,66.6,70.8,66.7C70.8,66.6,70.8,66.6,70.8,66.7z M86.5,67.4c-2.1,0.5-4.1,1.1-6.1,1.6c-0.1-0.3-0.2-0.5-0.2-0.8
				c1.2-0.4,2.5-0.8,3.8-1.2c0.4-0.1,0.9-0.2,1.3-0.4c-0.1-0.9-0.1-1.8-0.2-2.7C85.1,63,85,62.1,85,61.2c0.3,0,0.6-0.1,0.8-0.1
				C86,63.2,86.3,65.2,86.5,67.4z M99,50c0.5,0.6,0.9,1.3,1.1,2c0.1,0.3,0.2,0.6,0.2,0.9c0,0.2,0,0.3,0,0.4c0,0.2,0,0.3-0.1,0.5
				c0,0.1,0,0.1,0,0.2c-0.1,0.5-0.2,0.9-0.5,1.4c-0.2,0.3-0.4,0.6-0.6,0.9c-0.4,0.6-0.9,0.9-1.5,1.2c-0.4,0.2-0.8,0.3-1.2,0.4
				C95.9,58,95.4,58,94.9,58c-1.6-0.1-2.7-1.1-2.8-2.7c-0.1-1.4,0.8-2.6,2-3c0.2-0.1,0.4-0.2,0.6-0.2l0,0c1.2-0.1,1.9,0.4,1.8,2.2
				c-0.2-0.1-0.3-0.3-0.5-0.3c-0.6-0.4-1.1-0.7-1.6-0.7c-0.4,0-0.8,0.3-1.1,1.1c-0.6,1.6,0.2,2.7,1.9,2.7c2,0,3.7-1.6,3.9-3.5
				c0.1-1.1-0.4-2.3-1.2-3.1c-0.5-0.6-1.2-1-2-1.2c-0.2-0.1-0.5-0.1-0.8-0.1c-0.4,0-0.7-0.1-1.1,0c-0.3,0-0.7,0.1-1,0.2
				c-0.4,0.2-0.9,0.4-1.2,0.7c-0.2,0.1-0.3,0.3-0.5,0.5c-0.2,0.2-0.3,0.4-0.5,0.6c-0.2,0.3-0.3,0.5-0.5,0.8
				c-0.2,0.3-0.3,0.6-0.6,0.9c-0.4-2.1,1.3-4.2,3.9-4.8C95.9,47.5,97.6,48.4,99,50z M85.1,37.2c-0.6,1.1-1.1,1.9-1.6,2.7
				c1.8,1.5,3.2,3,2.4,5.3c-0.8,2.4-2.6,3.5-5.4,3.3c0.1,0.8,0.1,1.5,0.1,2.4c0,0.1,0,0.1,0,0.1L80.6,51c-0.1,0-0.1-0.1-0.2-0.1l0,0
				C79,49.4,79.2,46,80.5,43c0.1-0.2,0.2-0.4,0.2-0.7l0.2-0.3c0-0.2,0.1-0.3,0.2-0.5c0.1-0.2,0.2-0.3,0.2-0.5c0.2-0.3,0.4-0.7,0.6-1
				c0.2-0.3,0.3-0.5,0.5-0.7c0.1-0.2,0.2-0.3,0.4-0.5c0.2-0.2,0.3-0.4,0.5-0.6c0.1,0,0.1-0.1,0.1-0.1c0.2-0.2,0.4-0.3,0.6-0.5
				c0.2-0.1,0.5-0.3,0.7-0.4c0,0,0.1-0.1,0.1-0.1C85,37.2,85,37.2,85.1,37.2c0-0.1,0.1-0.1,0.1-0.2L85.1,37.2z M91.9,12
				c0,0.1-0.1,0.2,0,0.4c0,0.2,0,0.4,0,0.6c0,0.3,0,0.7,0.1,1c0.1,0.6,0.2,1.1,0.4,1.7c0,0.1,0,0.2,0.1,0.2c0.2,0.6,0.4,1.1,0.7,1.7
				c0.1,0.3,0.3,0.7,0.5,1c0.5,0.9,1.1,1.9,1.7,2.8c0.7,1.1,1.5,2.1,2.3,3.2c0,0,0,0,0.1,0l0,0c-0.9-0.3-1.4-0.4-2-1.1
				c-0.7-0.8-1.6-2.3-3.6-5.5c0,0.6,0.1,1.1,0.1,1.7c0.1,1.2,0.3,2.4,0.6,3.5c0.1,0.5,0.2,0.9,0.4,1.4c0.3,1.1,0.7,2.2,1.1,3.3
				c0.4,1,0.9,2,1.4,3c2.4-1,3.8-0.7,4.7,1c0.9,1.7,0.4,3.8-1.3,4.9c0-0.3,0.1-0.6,0.1-0.9c0.1-0.4,0.2-0.8,0.3-1.2
				c0.1-0.5,0.2-0.9,0.3-1.3c0-0.4,0-0.7-0.3-1c-0.1-0.1-0.1-0.2-0.2-0.2c-0.2-0.2-0.5-0.5-1-0.7c-0.7-0.2-1.8,0.6-2.9,1
				c-0.7-1.3-1.3-2.5-1.8-3.8c-0.2-0.7-0.5-1.3-0.7-1.9c-0.3-0.7-0.5-1.4-0.6-2c-0.2-0.9-0.4-1.8-0.6-2.7c-0.3-1.2-0.4-2.5-0.4-3.9
				c0-0.5-0.1-1,0-1.5c0-0.8,0-1.6,0.1-2.4c0-0.4,0.1-0.9,0.1-1.3c0,0,0-0.1,0-0.1c0.1-0.7,0.2-1.5,0.4-2.3
				C91.9,11.1,91.9,11.6,91.9,12z"/>
			<path class="st2" d="M134.9,60.1l3.6,36.6c-4.8-3.1-9.5-6.3-14.3-9.4c0.1-0.7,0.2-1.3,0.3-2c-0.1-0.1-0.2-0.1-0.3-0.2
				c-0.4,0.4-0.7,0.8-1.3,1.5c-1.9-1.4-3.9-2.8-5.8-4.4c-0.4-0.3-0.6-1.4-0.5-1.9c0.7-2.7,1.5-5.4,2.3-8.2c0.9,0.4,2.3,1.1,3.6,1.8
				c0.1-0.3,0.3-0.5,0.4-0.7c-1.3-0.8-2.7-1.6-4.1-2.3c0.1-0.2,0.1-0.4,0.1-0.4C124.6,67.4,129.8,63.9,134.9,60.1z"/>
			<path class="st2" d="M112.9,127.2c3.1,0,6.5-0.6,9.7,0c3.3,0.7,6.3,2.4,9.6,3.8c-1.9,5.7-3,11.6-8.3,15c-0.8,0.5-1.6,1-2.5,1.5
				c-1.2,0.6-2.2,0.3-3.3-0.6c-4.7-3.7-9.4-7.3-14.3-10.8c-2.5-1.7-5.3-2.9-7.9-4.4c2.3-12,4.6-24.1,6.9-36.4l4,2.8
				c0.2-0.2,0.3-0.4,0.5-0.6c-1.2-0.9-2.3-1.8-3.8-2.9c3.5-1,5.4-3.6,7.5-6.1c0.2-0.3,1-0.5,1.4-0.3c2.4,0.8,4.8,1.7,7.7,2.7
				c-1.1,0.9-1.8,1.5-2.4,2c0,0.1,0.1,0.3,0.2,0.4c0.5-0.2,1.1-0.2,1.5-0.5c1-1.1,1.9-0.7,3,0.1c5.6,3.7,11.1,7.3,16.7,11l3,31.1
				c-6.1-3.1-12.3-6.2-18.4-9.2C120.5,124.2,114.5,125.1,112.9,127.2z"/>
			<path class="st2" d="M86.2,23.3c0.8,0.3,1.2,1.4,2,2.4C76.7,27,68,32.2,60.7,40.1c-9.2,10-14.3,21.5-13.5,35.4
				c0.1,2.2,0.7,4.4,1.2,6.6c0.2,0.7,0.7,1.3,1.1,2c-0.6,0.1-1.2,0.1-1.8,0.2c-0.6,0.1-1.2,0.3-2,0.5c-3.5-3.8-6.9-7.6-10.3-11.6
				c-0.8-0.9-1.2-2.3-1.3-3.5C33.8,61,35,52.5,38.7,44.6c3.3-7.2,8.7-12.7,14.3-18.2c5.4-5.2,12.3-6.8,19.3-8.3c0.5-0.1,1,0,1.5,0.2
				C77.9,19.9,82.1,21.5,86.2,23.3z"/>
			<path class="st3" d="M70.2,16.8c0,0.2,0,0.5,0,0.7c-1.9,0.5-3.8,1.1-5.7,1.6c-7.6,1.9-13.4,6.5-18,12.5c-2.2,2.9-4.6,5.6-6.6,8.7
				c-5.1,8-6.8,17.1-6.9,26.6c0,0.9,0,1.8,0,2.7c-0.2,0.1-0.4,0.1-0.6,0.2c-3.1-5.3-6.2-10.7-9.3-16c-0.2-0.4-0.2-0.9-0.2-1.3
				c-1.1-15.8,10.3-33.3,25-38.7c0.9-0.3,2-0.5,3-0.4C57.3,14.4,63.8,15.6,70.2,16.8z"/>
			<path class="st2" d="M46,12.9c-15.2,8-22.9,20.6-24.9,37.5c-1.8-4.5-3.4-9.1-5.5-13.5c-2.5-5.1-1.3-9.4,1.8-13.5
				c2.2-2.9,4.4-5.7,6.8-8.3c1.4-1.6,3.5-2.4,5.8-2.4C35.3,12.8,40.6,12.7,46,12.9z"/>
			<path class="st1" d="M138.6,98l0.5,4.7c-5.8-3.8-11.7-7.5-17.5-11.3l2.2-3.2C128.7,91.5,133.6,94.7,138.6,98z"/>
			<path class="st4" d="M110.6,65.4c1.7,1.4,3.2,2.8,4.9,4.1c1.4,1,1.9,2.1,1.9,3.7c0,3.3-1,6.3-2.8,8.9c-2.1,3.1-4.4,6.1-6.9,9
				c-2.7,3.1-4.7,3.2-8.2,1c-1.1-0.7-2.4-1.3-3.7-2.1C105,84.3,110.3,76.4,110.6,65.4z"/>
			<path class="st3" d="M24,12.9c0.1,0.2,0.2,0.4,0.3,0.6c-4.7,4.3-8.1,9.4-11,15.6c-0.9-4.8-1.7-9.1-2.5-13.7
				C15.1,14.5,19.5,13.7,24,12.9z"/>
			<path class="st1" d="M115.5,82.6c2.5,1.7,4.8,3.3,7.3,5c-0.7,1.1-1.4,2-1.9,2.8c-2.8-1.2-5.5-2.4-8.2-3.6
				C113.5,85.5,114.5,84,115.5,82.6z"/>
			<g>
				<g>
					<path class="st0" d="M65.1,90.7c-0.6,2.2-2.4,3.3-4.3,2.9c-1.8-0.3-2.5-1.4-2.3-3.9c-4.6-0.6-9,0-13.3,1.3
						c2.8,0.6,5.6,0.6,8,2.2c0,0.2-0.1,0.4-0.1,0.5c-0.5-0.1-1-0.2-1.5-0.3c-2.5-0.4-4.9-1.1-7.4-1.1c-1.6-0.1-3.3,0.6-4.9,1
						c-0.4,0.1-0.7,0.2-1.1,0.3C38.1,93.4,38,93.2,38,93c6.8-4.1,14.2-5.2,21.8-4.2c0.1,1.3-0.3,2.9,0.3,3.4
						C62.1,93.8,63.4,91.5,65.1,90.7z"/>
					<path class="st0" d="M92,10.6c-0.7,5.6,2.6,9.7,5.9,14C96,24.1,96,24.1,92.2,18c0.4,4.8,1.6,8.9,3.6,12.9c2.4-1,3.8-0.7,4.6,1
						c0.9,1.7,0.4,3.8-1.3,4.9c0.1-1.9,2-4.1-0.7-5.3c-0.7-0.3-1.8,0.6-3,1C91.8,25.8,90.1,18.5,92,10.6z"/>
				</g>
			</g>
			<path class="st0" d="M99.3,72.8c-0.1,1.9-1.1,3.3-3,3.9c-1.5,0.5-6.2-0.7-7.4-2.1c2,0.1,7.6,2.1,8.9-0.2c1.2-2.1-2.4-5.6-3.8-7.4
				C96.1,67.7,99.4,70.8,99.3,72.8z"/>
			<g>
				<path class="st5" d="M99,50.1c1.3,1.6,1.7,3.5,0.7,5.4c-1,1.8-2.7,2.6-4.8,2.6c-1.6-0.1-2.7-1.1-2.8-2.7c0-1.6,1.1-3.1,2.6-3.2
					c1.2,0,1.9,0.4,1.8,2.2c-1.4-1.1-2.5-1.7-3.2,0.1c-0.6,1.5,0.2,2.7,1.9,2.7c2,0,3.7-1.6,3.8-3.5c0.1-1.9-1.3-3.8-3.2-4.3
					c-2.1-0.5-4,0.2-5.2,2c-0.3,0.5-0.7,1-1.1,1.6c-0.4-2.1,1.3-4.1,3.9-4.7C95.9,47.5,97.6,48.4,99,50.1z"/>
				<path class="st5" d="M79.6,80.2c1.2,2.5,0.1,5.6-2.4,6.6c-2.6,1.1-6-0.3-7-2.8c-1.1-2.6,0-5.9,2.9-6.9c-0.7,1-1.2,1.6-1.5,2.2
					c-1.1,1.8-0.7,4.6,0.8,6c1.2,1.1,3.4,1.1,5.1,0.1c1.7-1,1.9-2.6,1.4-4.3c-0.2-0.6-1.1-1.6-1.5-1.6c-0.8,0.1-1.6,0.8-2.2,1.5
					c-0.1,0.1,0.7,1.1,1.1,1.6c0.1,0.1,0.1,0.2,0.2,0.5c-1.1,0.8-1.8,0.4-2.3-0.7c-0.6-1.4,0.3-3.1,1.8-3.7
					C77.4,78.1,78.9,78.7,79.6,80.2z"/>
			</g>
			<path class="st0" d="M85.8,61.2c0.2,2,0.5,4.1,0.7,6.2c-2.1,0.6-4.1,1.1-6.1,1.6c-0.1-0.3-0.2-0.6-0.3-0.8
				c1.7-0.5,3.3-1.1,5.1-1.6c-0.1-1.8-0.2-3.6-0.3-5.4C85.3,61.2,85.6,61.2,85.8,61.2z"/>
			<g>
				<path class="st6" d="M66.1,63.2l-13.5,5C54.5,64.1,62.4,60.6,66.1,63.2z"/>
				<path class="st6" d="M58.3,61.9c-3.8,1.6-6.9,4-8.5,8.7l19-7C66.6,60.8,62.5,60.2,58.3,61.9z M66.1,63.2l-6.8,2.5l-6.7,2.5
					l-0.1,0c0.1-0.2,0.2-0.4,0.3-0.6c0.1-0.1,0.2-0.3,0.3-0.4l0.1-0.1c0,0,0,0,0-0.1l0-0.1c0.1-0.2,0.3-0.5,0.6-0.7
					c0.4-0.5,0.8-0.9,1.4-1.2c0.2-0.2,0.5-0.4,0.8-0.6c0.2-0.2,0.5-0.3,0.8-0.5c0.1-0.1,0.2-0.1,0.3-0.1c0,0,0,0,0.1,0
					c0.3-0.2,0.7-0.4,1.1-0.5c0.4-0.2,0.9-0.4,1.4-0.5c0.1,0,0.1,0,0.1,0c0.3-0.1,0.6-0.2,0.8-0.2c0.6-0.1,1.1-0.2,1.6-0.2
					c0.4,0,0.8,0,1.1,0c0.2,0,0.5,0.1,0.7,0.1C64.9,62.6,65.5,62.8,66.1,63.2L66.1,63.2z"/>
			</g>
			<g>
				<path class="st6" d="M71.2,42.3c0.3,3.4,1.7,6.2,5.4,8.1l-1.1-19.7C71.9,34.2,70.9,38,71.2,42.3z M75.3,47.7L75.3,47.7
					c-0.3-0.2-0.5-0.4-0.7-0.6c-0.2-0.2-0.4-0.4-0.6-0.7c-0.3-0.3-0.5-0.7-0.7-1.1c-0.2-0.4-0.3-0.8-0.5-1.2
					c-0.1-0.4-0.2-0.9-0.3-1.3c-0.2-1.5-0.1-3.2,0.3-4.9c0.1-0.4,0.2-0.9,0.4-1.3c0.2-0.5,0.3-1,0.6-1.5c0.2-0.4,0.4-0.9,0.7-1.3
					c0,0,0,0,0-0.1l0.3,5.6L75.3,47.7z"/>
				<path class="st6" d="M74.5,33.7l0.8,14C71.8,45.5,71.3,39.1,74.5,33.7z"/>
			</g>
			<g>
				<path class="st1" d="M59.4,75.7c-0.3-1.2,3.5-9.4,11.4-9.1C71,71.7,66.5,77.9,59.4,75.7z"/>
				<path class="st1" d="M85.1,37.2c-1.2,0.2-7.6,6.5-4.6,13.9C85.3,49.5,89.6,43.2,85.1,37.2z"/>
			</g>
			<g>
				<g>
					<path class="st6" d="M85.1,37.2c-0.1,0-0.1,0-0.1,0.1c0,0-0.1,0-0.1,0.1c-0.2,0.1-0.5,0.3-0.7,0.4c-0.2,0.2-0.4,0.3-0.6,0.5
						c0,0-0.1,0.1-0.1,0.1c-0.2,0.2-0.4,0.4-0.5,0.6c-0.1,0.2-0.3,0.3-0.4,0.5c-0.2,0.2-0.4,0.5-0.5,0.7c-0.2,0.3-0.4,0.6-0.6,1
						c-0.1,0.1-0.2,0.3-0.2,0.5c-0.1,0.2-0.2,0.3-0.2,0.5l-0.2,0.3c-0.1,0.2-0.2,0.4-0.2,0.7c-1.3,3-1.5,6.3-0.1,7.8l0,0
						c0.1,0,0.1,0.1,0.2,0.1l0.1,0.1c0-0.1,0-0.1,0-0.1c0-0.9-0.1-1.6-0.1-2.4c2.8,0.2,4.5-0.9,5.4-3.3c0.8-2.3-0.6-3.8-2.4-5.3
						C84,39.1,84.4,38.4,85.1,37.2l0.2-0.1C85.2,37.1,85.1,37.2,85.1,37.2z M83.4,41.4c1.6,1.5,2,2.6,1.5,3.7
						c-0.1,0.2-0.2,0.4-0.3,0.6c-0.1,0.3-0.3,0.5-0.5,0.7c-0.1,0.2-0.3,0.2-0.4,0.4c0,0.1,0,0.1-0.1,0.1c-0.1,0.1-0.3,0.2-0.5,0.3
						c-0.1,0-0.2,0.1-0.2,0.2c-0.2,0.1-0.5,0.1-0.7,0.2c0,0,0,0-0.1,0c-0.1,0-0.1,0-0.1,0c0,0-0.1,0-0.1,0c-0.1,0-0.2,0-0.4,0
						c-0.2,0-0.5,0-0.8-0.1l0,0c0,0,0,0,0,0l0,0c-0.2,0-0.4-0.1-0.7-0.2c0.1-0.2,0.2-0.4,0.2-0.7c0,0,0,0,0,0c0,0,0-0.1,0.1-0.2
						c0.1-0.2,0.1-0.4,0.2-0.6l0-0.1c0.2-0.6,0.4-1.2,0.6-1.8c0.3-1,0.7-2,1.1-3.1c0-0.1,0.1-0.2,0.1-0.3l0,0
						C82.9,40.8,83.2,41.1,83.4,41.4z"/>
					<path class="st6" d="M70.8,66.6c-3.6-1.5-9.5,3.3-10.9,7.1c-0.1,0.1-0.1,0.3-0.2,0.5c-0.1,0.1-0.1,0.2-0.1,0.3c0,0,0,0,0,0.1
						l0,0c0,0.1-0.1,0.1-0.1,0.2c0,0.1,0,0.1,0,0.1c0,0.3,0,0.6,0,0.9l1.7-2.4c2.1,1.3,4.3,1.9,6.2,0.1c1.8-1.7,1.9-3.7,0.8-6
						C69,67.2,69.6,67,70.8,66.6C70.8,66.6,70.8,66.6,70.8,66.6C70.9,66.6,70.9,66.6,70.8,66.6z M66.8,72.5
						c-0.2,0.2-0.3,0.3-0.4,0.4c-0.3,0.3-0.6,0.4-1,0.5c-0.4,0.1-0.8,0.1-1.4-0.1c-0.2,0-0.4-0.1-0.6-0.2c-0.1,0-0.3-0.1-0.4-0.1
						c-0.2-0.1-0.4-0.2-0.6-0.3c-0.3-0.1-0.6-0.3-1-0.5c1.8-1.6,3.5-3,5.2-4.5c0.2,0.2,0.3,0.4,0.4,0.5C68.2,69.8,68.1,71,66.8,72.5
						z"/>
					<path class="st6" d="M82.5,40.6c2.6,2.3,3.1,3.5,2.1,5.2c-0.9,1.5-2.1,2.2-4.5,1.5C80.9,45.1,81.7,43,82.5,40.6z"/>
				</g>
				<path class="st6" d="M66.6,67.7c1.6,1.9,1.5,3.2,0.1,4.8c-1.2,1.4-2.6,1.3-5.3-0.3C63.3,70.6,65,69.1,66.6,67.7z"/>
			</g>
			<g>
				<path class="st1" d="M64.5,70.9c0.5,0.4,0.7,1.1,0.3,1.6c-0.4,0.5-1.1,0.6-1.6,0.3c-0.5-0.4-0.7-1.1-0.3-1.6
					C63.3,70.6,64,70.5,64.5,70.9z"/>
				<path class="st1" d="M82.2,45.6c0.5,0.4,0.7,1.1,0.3,1.6c-0.4,0.5-1.1,0.6-1.6,0.3c-0.5-0.4-0.7-1.1-0.3-1.6
					S81.6,45.2,82.2,45.6z"/>
			</g>
			<line class="st7" x1="49.6" y1="84.1" x2="51.5" y2="83.8"/>
			<path class="st3" d="M216.2,63.3L216.2,63.3z"/>
			<path class="st3" d="M216.2,63.3L216.2,63.3z"/>
		</g>
	</g>
	<g>
		<g>
			
				<image style="overflow:visible;enable-background:new    ;" width="521" height="538" xlink:href="E81DF22D.png"  transform="matrix(0.2373 0 0 0.2373 33.7425 103.6523)">
			</image>
		</g>
		<g>
			<g>
				<polyline class="st8" points="120.8,171.8 101.4,151 104,146 121.3,165 120.8,171.8 96.6,194.7 76.3,174.9 101.4,151 				"/>
				
					<rect x="98.2" y="157.2" transform="matrix(0.7162 -0.6979 0.6979 0.7162 -91.0816 118.8303)" class="st9" width="4.8" height="28.5"/>
			</g>
			<g>
				<g>
					<polygon class="st8" points="102.3,141.7 107,146.6 106.7,149 106.5,151 103.9,153.4 103.8,153.6 102.7,154.6 102.6,154.6 
						99.9,157.2 94.8,162.1 94.5,162.4 91.4,165.4 91.1,165.7 84.6,171.8 80.7,175.6 78.8,177.4 77.5,178.6 72.7,173.7 74.3,169.1 
						74.3,169 					"/>
					<polyline class="st8" points="106.5,151 101.9,146.3 102.3,141.7 101.9,146.3 72.7,173.7 					"/>
				</g>
				<polygon class="st9" points="91.1,165.7 94.5,162.4 89.8,157.5 89.8,154 86.4,157.3 86.4,160.9 				"/>
			</g>
			<g>
				<g>
					<path class="st9" d="M69.8,162.3c0.1,5.9,1.9,7.4,4.5,6.7c2-0.5,4.5-2.4,7-4.6c-0.5,0.8-0.9,1.6-1.2,2.3l0,0
						c-0.3,0.8-0.5,1.6-0.6,2.4c-0.1,0.9-0.1,1.9,0,2.7c0.2,1.4,0.7,2.6,1.3,3.7c1.5,2.7,3.7,4.3,3.5,3.9c-0.5-0.7-0.7-4.8-0.7-4.8
						s1.4,0.4,3.3,1.2c0,0-1.2-1.6-2.1-4.1c-0.4-1.2-0.8-2.6-0.8-4.1c0-0.5,0-1,0-1.5c0.1-1.2,0.4-2.5,0.9-3.8
						c0.4-0.9,0.9-1.8,1.5-2.6l0,0l-1.2-1.2l-1-1C70,155.5,69.8,162.3,69.8,162.3z M72.3,164.7c-0.7-4.5,9.1-5.2,11.8-5.3l-2.3,2.2
						C78.4,164.1,73.1,167.4,72.3,164.7z"/>
					<path class="st9" d="M89.6,140.7c0,0-4.1,2.1-2.9,14.1l0,0l0.9,1.3l0.1,0.1l1.1,1.6l0.1,0.1c0.3-0.1,0.7-0.2,1-0.3l0.2,0
						c2.2-0.7,4.1-1,5.7-1c0.9,0,1.7,0.1,2.4,0.2c0.7,0.1,1.3,0.4,1.8,0.6c2.4,1.1,3.3,2.9,3.4,3l-0.7-5.6l0-0.1c0,0,0,0,0.1,0
						c0.2,0.1,0.8,0.3,2.5,0.8c-0.1-0.2-0.2-0.4-0.3-0.5c0,0,0,0,0,0c0,0,0,0,0,0c0,0,0,0,0,0l0,0c-0.3-0.5-0.6-1-1-1.4
						c-0.1-0.2-0.2-0.3-0.3-0.5c-0.7-0.9-1.4-1.6-2.1-2.1c-1.4-0.9-2.7-0.9-4.1-0.3l0,0c-0.7,0.3-1.4,0.7-2.1,1.2
						c1.7-2.2,2.6-4.1,2.8-5.8C98.5,140.9,93,138.4,89.6,140.7z M89.7,154c0.4-2.8,2.8-13.4,4.7-11.2c1.1,1.2,1.4,3.6,0.6,6
						L89.7,154z"/>
					<path class="st9" d="M95,148.8c-0.7,2.2-2.4,4.4-5.2,5.7c-0.1,0-0.1,0-0.2,0.1c0-0.1,0-0.2,0-0.4c0,0,0-0.1,0-0.1L95,148.8z"/>
					<path class="st9" d="M84.8,159.4c0,0-1.3,1-3,2.2l2.3-2.2C84.6,159.4,84.8,159.4,84.8,159.4z"/>
				</g>
				<path class="st9" d="M84.1,157.5c0.5-0.6,0.7-0.8,1.6-1.6c0.9-0.8,0.7-1.4,1.4-1.3c0.7,0,3.2,1.9,1,4.3
					C85.7,161.3,83.4,158.2,84.1,157.5z"/>
			</g>
		</g>
	</g>
</g>
</svg>
