<?xml version="1.0" encoding="utf-8"?>
<!-- Generator: Adobe Illustrator 16.0.3, SVG Export Plug-In . SVG Version: 6.00 Build 0)  -->
<!DOCTYPE svg PUBLIC "-//W3C//DTD SVG 1.1//EN" "http://www.w3.org/Graphics/SVG/1.1/DTD/svg11.dtd">
<svg version="1.1" id="Calque_1" xmlns="http://www.w3.org/2000/svg" xmlns:xlink="http://www.w3.org/1999/xlink" x="0px" y="0px"
	 width="228.333px" height="153px" viewBox="43.833 62.167 228.333 153" enable-background="new 43.833 62.167 228.333 153"
	 xml:space="preserve">
<g>
	<g>
		<path fill="#414BA0" stroke="#545454" stroke-miterlimit="10" d="M267.586,175.688l-0.678,7.002
			c-3.678,3.984-7.425,8.222-11.166,12.207c-2.944,3.135-5.834,6.076-8.777,8.777c-21.539,19.698-49.887-9.328-72.654-24.916
			c-2.644-1.781-5.278-3.07-8.04-3.863c-8.224-2.521-16.876-0.797-25.403,3.311c-4.48,2.087-8.839,4.85-13.133,8.043l-18.104,16.938
			c-0.184-0.308-0.243-0.617-0.367-0.983c-1.72,1.595-3.313,3.256-4.909,4.851c-5.029,5.152-9.942,6.565-14.852,5.524
			c-2.696-0.617-5.339-1.966-7.977-3.873l5.768-5.397l18.843-17.613l21.045-19.57l1.104-1.045l0.862-0.859l0.183-0.121
			l12.763-11.908l1.352-1.223l14.361-13.441l24.67-23.015l0.366-0.674l7.304-13.987v-0.068l3.617-6.807l11.66,13.069
			L267.586,175.688z"/>
		<path fill="#F2E93B" stroke="#545454" stroke-miterlimit="10" d="M153.812,161.82l12.458,13.072
			c-8.224-2.52-16.876-0.797-25.403,3.312l-2.025-2.082l-0.12-0.121l-10.437-10.926l0.862-0.86l0.183-0.121l12.643-12.088
			l1.289-1.229l0.183,0.187l2.21,2.33L153.812,161.82z"/>
	</g>
	<g>
		<g>
			<path fill="#414BA0" stroke="#545454" stroke-miterlimit="10" d="M206.77,95.61l-1.351,10.43l-1.1,8.59l-10.931,10.19l-0.801,0.8
				l-4.46,4.16l-0.01,0.01l-0.43,0.37l-0.03,0.02l-11.72,10.99l-0.03,0.03l-22.101,20.62l-1.279,1.22l-0.04,0.03l-0.58,0.529
				L138.72,176l-1.11,1.04l-9.88,9.21l-18.101,16.93c-0.189-0.3-0.25-0.609-0.37-0.979c-1.72,1.59-3.31,3.26-4.909,4.85
				c-5.03,5.15-9.94,6.57-14.851,5.53c-2.7-0.62-5.34-1.97-7.979-3.88c-2.82-1.961-5.58-4.53-8.471-7.48
				c-0.609-0.67-1.279-1.41-1.899-2.148c-2.08-2.211-4.11-4.602-6.19-7.12l0.42-1.101l0.07-0.181l32.34-30.938
				c0.061-0.051,0.12-0.121,0.181-0.121l0.159-0.149c0.011-0.01,0.011-0.01,0.011-0.01l9.71-9.35l0.04-0.04l1.92-1.86l2.09-1.96
				l11.03-10.55l0.01-0.01l2.83-2.7l0.02-0.02l6.36-6.12l0.03-0.03l23.149-22.1l0.021-0.02l12.449-11.96l0.062-0.06l18.909-18.05
				L206.77,95.61z"/>
			<path fill="#414BA0" stroke="#545454" stroke-miterlimit="10" d="M204.319,114.633l-12.397,8.158c0,0,0,0,0,0.066l-23.934,15.767
				l-22.336,14.67l-1.477,1.042l-14.848,9.758l-0.183,0.121l-2.333,1.531l-20.619,13.629l-18.84,12.393l-14.3,9.451
				c-0.614-0.672-1.289-1.408-1.903-2.146l19.271-17.797v-0.062l19.882-18.351l7.305-6.747l14.972-13.867l0.554-0.49l31.725-29.336
				l19.82-18.351l5.464,5.706v0.068L204.319,114.633z"/>
		</g>
		<polygon fill="#F2E93B" stroke="#545454" stroke-miterlimit="10" points="137.741,177.184 152.534,163.038 132.298,141.878 
			132.635,126.908 117.948,140.957 117.605,156.123 		"/>
	</g>
	<g>
		<g>
			<path fill="#F2E93B" stroke="#545454" stroke-miterlimit="10" d="M110.3,162.87c1.66-3.75,3.811-7.49,6.69-11.24l-0.01-0.01
				l-5.08-5.38l-4.22-4.47l-0.011-0.01c-60.39-9.521-61.55,19.94-61.55,19.94c0,3.31,0.18,6.26,0.49,8.96
				c6.13,6.14,11.96,13.561,17.67,20.439c0.37,0,0.74-0.07,1.1-0.25c8.78-2.029,19.58-10,30.38-19.391
				c-2.27,3.311-4.05,6.561-5.34,9.75v0.07c-1.59,3.609-2.569,7.109-3.069,10.488c-0.61,4.051-0.61,7.91-0.061,11.53
				c0.37,3.32,1.17,6.392,2.21,9.28c4.91,1.04,9.82-0.381,14.851-5.53c1.6-1.59,3.189-3.26,4.909-4.851
				c-1.59-4.909-2.819-10.489-3.13-16.51c-0.12-2.08-0.06-4.17,0.061-6.311C106.56,174.04,107.85,168.45,110.3,162.87z
				 M56.78,172.13c-2.8-19.42,39.37-21.79,51.11-22.07l-0.04,0.04l-9.71,9.35c0,0,0,0-0.011,0.01
				C83.23,169.82,60.16,183.59,56.78,172.13z"/>
			<path fill="#F2E93B" stroke="#545454" stroke-miterlimit="10" d="M187.6,129.6c0,0,0,0,0.529,0.18
				c0.931,0.31,3.54,1.2,10.79,3.65c-1.91-3.26-3.75-6.12-5.529-8.61c-0.5-0.69-0.989-1.35-1.471-1.99c-3.16-4.1-6.149-7.04-9.08-9
				c-6.029-4.06-11.77-3.97-17.979-1.41c-0.011,0-0.011,0.01-0.011,0.01c-2.92,1.2-5.939,2.94-9.149,5.06
				c7.63-9.27,11.29-17.65,12.16-24.82c2.659-21.93-20.68-32.61-35.771-23.2c0,0-17.739,8.94-13.18,60.37v0.01l4.021,5.84l0.21,0.31
				l4.779,6.97l0.311,0.45c1.42-0.51,2.819-0.99,4.18-1.43c0.24-0.07,0.47-0.15,0.71-0.22l0.01-0.01
				c9.681-3.04,17.82-4.24,24.65-4.22c3.819,0.01,7.229,0.4,10.26,1.05c2.99,0.64,5.61,1.54,7.9,2.58
				c10.84,4.94,14.34,13.17,14.34,13.17l-2.62-24.16L187.6,129.6z M152.99,78.79c4.67,5.24,5.939,15.59,2.34,25.92l-23.149,22.1
				C133.88,114.72,144.77,69.55,152.99,78.79z"/>
			<path fill="#F2E93B" stroke="#545454" stroke-miterlimit="10" d="M155.33,104.71c-3.24,9.34-10.47,18.68-22.74,24.22
				c-0.21,0.1-0.43,0.2-0.64,0.29c0-0.39,0.04-1,0.15-1.79c0.02-0.19,0.05-0.4,0.08-0.62L155.33,104.71z"/>
			<path fill="#F2E93B" stroke="#545454" stroke-miterlimit="10" d="M110.88,150.02c0,0-5.37,4.3-12.739,9.43l9.71-9.35l0.04-0.04
				C109.78,150.01,110.88,150.02,110.88,150.02z"/>
		</g>
		<path fill="#F2E93B" stroke="#545454" stroke-miterlimit="10" d="M107.666,141.775c2.289-2.49,3.001-3.485,6.96-6.653
			c3.946-3.156,3.025-5.89,5.915-5.654c2.881,0.238,13.766,8.52,4.019,18.497C114.809,157.945,105.043,144.623,107.666,141.775z"/>
	</g>
	<path fill="#11484C" stroke="#545454" stroke-miterlimit="10" d="M109.629,203.184c-0.184-0.307-0.244-0.617-0.367-0.982
		c5.768-5.645,11.968-11.23,18.473-15.953L109.629,203.184z"/>
</g>
</svg>
