<?xml version="1.0" encoding="UTF-8"?>
<svg id="Layer_2" data-name="Layer 2" xmlns="http://www.w3.org/2000/svg" viewBox="0 0 551.41 239.12">
  <defs>
    <style>
      .cls-1 {
        fill: #fff;
      }
    </style>
  </defs>
  <g id="Calque_8" data-name="Calque 8">
    <g>
      <path d="m66.68,222.93C-27.08,211.3-13.37,25.72,73.92,22.72c51.97-1.79,476-65.46,476,102.53S111.83,225.22,66.68,222.93Z"/>
      <g>
        <path d="m68.07,225.45c-1.92-.15-1.25.31-1.54.37,3.2.1,1.47-.48,1.54-.37Z"/>
        <polygon points="100.35 227.48 99.77 227.6 104.56 227.64 100.35 227.48"/>
        <path d="m130.54,230.29c-2.79-.96-10.95-.86-16.31-1.62l-.87-.24-2.48.34c6.54.53,15.07.92,19.66,1.52Z"/>
        <path d="m146.53,233.19c-.97-.36,3.51.05-3.75-.39.36.07.46.09.68.13.65.06,1.55.13,3.08.27Z"/>
        <path d="m143.45,232.92c-3.19-.24,2.06.41,0,0h0Z"/>
        <path d="m158.17,233.92l-4.22-.08c.86.23,4.6.56,3.2.57,4.32.19,3.44-.04,1.02-.49Z"/>
        <path d="m162.19,233.7l-2.18-.06c.38.1.95.17,2.18.06Z"/>
        <path d="m155.38,233.51l4.63.13c-.6-.16-.65-.4-2.12-.08.39-.18-.53-.05-2.51-.05Z"/>
        <path d="m152.78,233.2c-2.34-.34-5.37-.68-1.14-.59-8.03-.55-6.89.05,1.14.59Z"/>
        <path d="m132.15,229.69l-3.12-.48h-2.74c1.37,0,6.04.72,5.86.48Z"/>
        <path d="m184.31,236.11c.27-.13-1.39-.49-1.69-.71l-3.11-.03c1.59.21,4.61.5,4.8.73Z"/>
        <path d="m182.62,235.4l4.66.03c-4.15-.29-4.91-.22-4.66-.03Z"/>
        <polygon points="163 232.97 155.34 232.94 164.47 233.07 163 232.97"/>
        <polygon points="202.06 237.17 199.4 237.37 204.12 237.1 202.06 237.17"/>
        <path d="m213.83,237.7c-1.96.2,2.65.61.58.7,3.2.1,5.95-.04,8.42-.16-2.62.02-5.41-.14-9-.54Z"/>
        <path d="m226.98,238.07c-1.31.02-2.67.09-4.15.16,1.39,0,2.76-.05,4.15-.16Z"/>
        <path d="m195.19,235.98c.35.11,1.03.39,3.63.64l-1.8-.53c-.56-.03-1.19-.07-1.83-.11Z"/>
        <path d="m196.95,236.07l.06.02c1.98.12,3.36.21,3.95.24-.51-.03-1.71-.11-4.01-.26Z"/>
        <path d="m194.73,235.95c.17.01.29.02.46.03-.17-.05-.28-.07-.46-.03Z"/>
        <path d="m175.13,234.21c2.74-.05,8.44.06,2.97-.66-1.97.16,1.16.58-2.97.66Z"/>
        <path d="m192.49,235.29l-4.92-.39c.09.12.97.34-.39.37l5.31.02Z"/>
        <polygon points="194.91 235.29 192.49 235.29 194.32 235.43 194.91 235.29"/>
        <path d="m218.54,237.33c2.14-.1,4.47,0,7.11.06-2.82-.19-5.74-.36-8.51-.49-.4.12-1.63.3,1.4.42Z"/>
        <path d="m208.05,236.71c.15,0,.34,0,.48,0-.29-.05-.52-.07-.48,0Z"/>
        <path d="m251.6,238.21c-.14-.03-.27-.06-.41-.09-.03.02-.06.05-.1.07l.51.02Z"/>
        <path d="m216.66,236.8c-2.12-.18-3.39-.13-4.61-.06,1.59.04,3.27.08,5.08.16.18-.05.21-.09-.47-.1Z"/>
        <path d="m234.23,238.14c-1.1-.13-2.36-.25-3.67-.37,1.08.17,3.27.46,3.67.37Z"/>
        <path d="m209.23,236.87c-.11,0-.2,0-.32,0,.69.13.61.08.32,0Z"/>
        <path d="m209.23,236.87c1.1,0,1.96-.07,2.83-.12-1.29-.03-2.49-.04-3.54-.03.26.04.52.1.71.15Z"/>
        <path d="m259.52,235.62c-.38.39-5.97.66-10.77.11-4.74.17-1.68,1.56,2.44,2.39.15-.17.16-.33,5.04-.46-1.71-.24-10.82-.75-6.69-1.01,6.47-.06,5.29.26,8.43.53-2.66-.53,8.23-.58,6.84-1.34l-5.67.17c-.1-.11,1.95-.26.38-.39Z"/>
        <path d="m241.89,237.83h-2.01c2.29.12,3.92.34,6.93.72,3.35-.11,4.05-.24,4.28-.37l-9.89-.32.69-.04Z"/>
        <path d="m230.86,237.52c1.58-.37,6.41-.39,3.47-.96-5.89-.18-4.14.22-7.67.26,9.51.25-2.74.14,4.12.64-1.87,0-3.55-.04-5.14-.08,1.71.13,3.36.26,4.91.38-.09-.01-.15-.02-.22-.03h-.04s0,0,0,0c-.41-.07-.54-.11-.08-.06.03,0,.15,0,.2,0,.07-.06.24-.1.44-.15,2.75.19.43.13-.44.15-.03.02-.11.04-.12.06,0,0,.02,0,.04,0l9.54.09c-2.01-.13-4.54-.19-9.02-.3Z"/>
        <path d="m183.23,232.95c.29.06.28.09.3.12.62-.01.85-.03-.3-.12Z"/>
        <path d="m187.12,233.46c-.7.02-1.28.16-3.52-.03-1.94-.25.02-.21-.07-.35-1.36.03-4.76,0-.53.49l.68-.02c3.82.39,8.7,1.22,8.03,1.24-1.09-.45-2.06-.78-4.59-1.32Z"/>
        <path d="m209.25,235.53l7.93.16-4.02-.56.19.23c-4.5-.31-3.54.02-4.11.16Z"/>
        <polygon points="252.51 238.44 251.44 238.87 256.05 238.33 252.51 238.44"/>
        <polygon points="262.83 238.57 262.44 238.96 265.17 238.76 262.83 238.57"/>
        <path d="m358.55,14.34l-2.32-.06c1.1.05,1.81.06,2.32.06Z"/>
        <path d="m375.29,15.86l.43-.15c-.78.02-1.11.07-.43.15Z"/>
        <path d="m510.67,196.29c3.1-1.57,6.58-3.41,5.98-3.52l-1.12.27c-1.91,1.49-3.5,2.45-4.86,3.25Z"/>
        <path d="m507.15,51.22c.25.21.5.43.76.65.77.33,1.5.64,2.15.91-.87-.47-1.86-1.01-2.9-1.57Z"/>
        <path d="m504.19,51.43c-1.16-.92-2.42-1.68-3.64-2.52.41.29.9.64,1.51,1.04.61.4,1.32.87,2.13,1.48Z"/>
        <path d="m266.75,12.45l-2.7.5c4.24-.09,2.37-.27,2.7-.5Z"/>
        <path d="m368.48,234.95c2.94-.11,5.28-.25,7.32-.45-3.55.12-6.42,0-7.32.45Z"/>
        <path d="m365.54,10.29c-1.43-.05-2.05-.02-2.01.08,1.47.06,2.31.05,2.01-.08Z"/>
        <path d="m384.24,233.59c-.52.02-1.03.05-1.56.07-2.13.31-4.27.61-6.88.84,2.62-.07,5.61-.29,8.44-.91Z"/>
        <path d="m4.66,128.32c-.01.24-.03.53-.05.74.06.07.05-.26.05-.74Z"/>
        <path d="m39.19,215.23c-.87-.48-2.17-1.43-3.43-2.28.6.43,1.6,1.18,3.43,2.28Z"/>
        <path d="m304.36,238.69c-2.19.07-.35.06,0,0h0Z"/>
        <path d="m293.7,237.13c.46-.05.82-.12.87-.22-.18.11-.48.18-.87.22Z"/>
        <path d="m405.5,228.02c.06,0,.11-.02.19-.03-.65.02-.54.01-.19.03Z"/>
        <path d="m301.06,238.55c.82.04,1.77.07,2.8.08-.45-.02-1.3-.05-2.8-.08Z"/>
        <path d="m301.51,238.75c-.76,0-1.35,0-1.91-.01-.28.08-.03.12,1.91.01Z"/>
        <path d="m307.41,238.6c-1.25.03-2.42.04-3.55.03.43.02.61.04.5.06.64-.02,1.55-.04,3.05-.09Z"/>
        <path d="m112.13,20.77c-.15,0-.31,0-.47,0-2.18.39-1.22.27.47,0Z"/>
        <path d="m543.55,150.94c-.03.1-.04.15-.06.24.04-.09.09-.21.12-.29l-.06.05Z"/>
        <path d="m545.44,143.56c-.07.82-.15,1.54-.25,2.21-.11.66-.27,1.26-.42,1.83-.16.57-.31,1.11-.5,1.65-.21.53-.43,1.07-.66,1.64.66-.66,1.38-1.31,2.01-2.01l-.03-2.67-.15-2.65Z"/>
        <path d="m318.34,12.36c1.83.17,3.65.37,5.48.57-6.65.4-11.43.1-6.3.77.41-.68,5.74-.55,11.08-.37,5.33.16,10.66.44,11.08-.23,1.2.15,2.4.31,3.6.48-1.03-.07-1.2-.01-2.23-.08,6.99,1.09,5.28-.7,14.33.13,3.15.34,5.33.71,3.17.7,2.35.06,4.7.13,7.05.24,2.04.21,1.52.4-.51.19,3.57.3,7.15.54,10.71.91l-.08.03c1.55-.05,5.04-.01,6.74.03,2.69.49-1.38,0-.7.24,1.99.09,3.96.26,5.95.38,2.36.66-2.57.35-6.65-.14,2.69.95,3.91,1.06,5.95,1.14,2.04.11,4.9.17,10.77,1.43-1.86-.2-3.72-.43-5.58-.6,1.74.61,3.7,1.03,6,1.44,2.3.41,4.95.83,8.03,1.59-1.42-.55-12.37-3.04-5.94-2.48,1.79.34,4.14.76,7.62,1.06-.02.24.81.47,2.17.72,1.36.24,3.25.52,5.34.9l-.4.58c4.54.65,4.25.26,6.96.47,5,1.09,5.94,1.8,7.03,2.45,7.98,1.8-5.35-1.98,4.14-.03,6.58,1.77,11.28,2.63,19.22,4.5,4.51,1.55-.91.14.68.8l4.2.7c.99.3.62.36.44.39,3.44.9.47-.52,5.85,1.05.41-.05,1.29.21,2.46.65,1.18.44,2.63,1.14,4.26,1.86,1.62.74,3.42,1.47,5.19,2.25,1.77.77,3.56,1.46,5.24,1.93,1.5.81-.91.05-.53.47,2.26.74,3.79,1.44,5.04,1.91,1.24.49,2.13.84,2.98,1.17,1.72.62,3.17,1.3,6.81,2.75,1.93,1.1,3.73,2.4,5.58,3.61-1.98-1.43-1.57-1.49-.02-.89.77.3,1.83.76,3,1.3,1.16.56,2.4,1.26,3.62,1.91-1.34-1.14-2.46-2.17-3.28-2.75,1.29.71,2.52,1.5,3.79,2.25,1.25.77,2.55,1.48,3.76,2.31.79.74-.03.34-1.38-.24.54.27,1.02.59,1.4.81,2.39,2.07.85,1.39-1.15.35-.8-.71-1.62-1.39-2.4-2.07-2.03-.86-3.94-1.6-3.76-1.04.51.25,1.45.79,2.48,1.42-.53-.22-.88-.34-.7-.14.21.22,1.04.6,2.32,1.24.41.56.84,1.1,1.24,1.68l.55.05,4.41,3.55c1.46,1.18,2.79,2.52,4.19,3.77.81.6,1.68,1.12,2.44,1.75.78.62,1.55,1.24,2.34,1.86.79.63,1.58,1.26,2.4,1.91.8.67,1.54,1.42,2.35,2.17.8.77,1.62,1.56,2.48,2.39.86.83,1.62,1.82,2.48,2.81.84,1.01,1.75,2.04,2.63,3.21.81,1.21,1.67,2.48,2.58,3.83-2.16-2.46-1.09-.13-1.72.04-.32-.82-.83-1.76-1.47-2.78-.16-.25-.33-.51-.5-.78-.2-.25-.4-.5-.6-.77-.42-.52-.86-1.05-1.32-1.61-.46-.55-.93-1.13-1.42-1.71-.49-.58-.96-1.2-1.53-1.76-1.1-1.15-2.21-2.36-3.28-3.63,2.24,2.64,1.51,2.26.86,1.68,1.36,1.41,2.8,2.77,4.01,4.33l1.89,2.27c.63.76,1.28,1.51,1.82,2.33-.56.06,1.02,2.33,2.47,5.03-.1-.61.23-.5.67.15.46.65,1.12,1.8,1.86,3.16.37.68.76,1.42,1.17,2.16.35.77.67,1.58,1.01,2.35.66,1.56,1.31,3.02,1.82,4.12-.19.38-.96-.56-3.08-6.01.43,1.57.91,2.8,1.42,3.87.25.53.51,1.03.78,1.5.13.24.27.47.4.7l.34.71c.45.94.9,1.89,1.32,2.99.21.55.41,1.14.6,1.79.09.33.19.66.27,1.02.06.36.11.74.15,1.14-.27-1.42-.52-2.15-.83-2.65,1.3,3.13,2.48,11.3,1.82,9.44-.07-.47-.1-.95-.22-1.41.21,1.17.3,2.52.49,3.95.09.72.18,1.46.27,2.22.09.76.22,1.54.22,2.34.1,3.19.4,6.56.3,9.68-.05,6.24-.85,11.43-.57,12.21-.12.07-.76-1.42-.86-2.01.05,5.71-.66,11.5-2.04,17.26-.04-.85-1.03-.08-1.66-.07-.65,0-.87-.69.33-4.42-.87,2.07-1.97,4.61-3.95,8.92.82-1.29,2.69-2.96,1.81-1.03-1.71,2.39-2.3,3.21-2.99,4.18-.33.49-.68,1.01-1.26,1.74-.57.74-1.3,1.73-2.49,3.06.73-.89.96-.66.74.18-.11.42-.34.99-.67,1.64-.35.64-.83,1.36-1.4,2.08.22-.56-1.07-.46-.35-1.59-1.52,2.65-3.27,5.17-5.1,7.66,1.42-1.82-.4-.92-2.06.28.41-.26-.96,1.16-2.73,2.76-1.76,1.61-3.93,3.41-4.85,4.2l1.58-1.12,1.54-1.17c-3.95,3.31-5.77,5.12-7.6,6.96-.92.91-1.84,1.84-3.1,2.84-1.24,1.04-2.83,2.16-5.05,3.51.48-.42.94-1.15.73-1.42-.22-.27-1.11-.09-3.4,1.17-.44.43-1.15,1.13-2.11,1.99-.95.87-2.14,1.92-3.55,3.03-2.81,2.24-6.49,4.77-10.66,6.82l-1.76.41c-2.13,1.03-4.28,2.05-6.44,3.02,1.91-1.21,5.57-3.38,9.38-5.82,3.82-2.43,7.76-5.12,10.53-7-1.78.79-2.06.82-2.54,1.01-.48.19-1.15.52-3.75,1.81-1.98.61,2.64-1.79,4.12-2.63-4.01,2.02-8.09,3.89-12.25,5.6.41.2-1.9,1.35-4.25,2.48-2.36,1.1-4.75,2.17-4.41,2.33,4.52-1.95,8.97-4.05,13.31-6.3.42.19-1.31,1.51-4.3,3.22-2.99,1.68-7.26,3.71-11.84,5.29-2.4.57,1.32-1.75,1.05-1.9-.54.34-2.65,1.2-4.75,2-2.1.78-4.18,1.47-4.63,1.54l3.76-1.63c-5.15,1.46-8.05,3.57-14.44,4.73-2.15.58-6.64.9-6.9,1.38,3.69-.19,5.02,1.92,2.8,3.1-.38.09-3.29.65-6.42,1.19-3.13.53-6.49,1.03-7.79,1.11-3.72.21,5.08-2.6,1.91-2.42-.09.21-2.02.87-2.83,1.13-2.32.35.83-.74-4.13.39-.69.87-10.17,1.98-2.24,1.06-4.85,1.16-5.22.9-10.98,1.97,1.92.11-4.92,2.41-9.85,3.36.27-.22-.88-.27-1.44-.29-10.14,1.47-15.64,1.84-25.13,2.9-.89-.06-5.49.21-3.57-.28-1.35.25-2.58.63-5.51.92-5.73-.04,6.52-.73,2.13-1.01-.33.44-7.52,1.27-11.68,1.86,1.34.51,9.67-.71,13.82-1.41.11.84-7.08,2.49-17.03,3.66-7.91.81-3.48-.29-4.84-.06-7.45.45-10.6.99-13.44,1.47-2.84.47-5.38.87-11.59.83-4.94-.33-.27-1.06-1.37-1.4,6.45-.47,9.94-.12,14.31-.39l-5.4.04c2.05-.29,6.35-.66,8.7-.65-2.07-.11-8.36.24-15.57.54-7.21.3-15.35.54-21.11.45-2.04.22-5.56.48-3.89.67l3.64-.15c3.36.36-6.84.74-2.23.85-4.88.41-10.35.97-17.24.76l-1.3-.61c.15.18,4.5.34,6.43.13-2.87.31-10.55-.76-13.69.03l4.82.42c-4.91.32-10.98.95-17.08.69,2.77.63,1.41-.05,5.74.69-3.75-.88,15.61.08,9.57-.86,4.45.81,7.7.33,13.53.96-.18-.2-2.07-.36,3.06-.33.23-.06.78-.15,1.12-.2.16,0,.21,0,.35,0-.1,0-.18-.01-.28-.02.22-.03.24-.04-.11,0-1.22-.07-2.21-.16-2.61-.27,2.54-.5,10.68-.63,13.43-.96,3.04.02-1.26.27.4.44l4.1-.48c.42.44,8.1.49.95.98l6.45-.2c3.8.12,9.03-.02,12.24-.37,3.05-.06,7.65-.91,5.02-.42l10.08-.91.1.11c9.97-.63,20.42-2.32,31.86-2.79,3.33-.49,6.77-1.03,12.36-1.64l1.14.24c4.27-.68,12.91-1.48,14.68-2.2,2.39.14,7.59-.67,13.1-1.78,5.52-1.11,11.35-2.54,15.09-3.31l.17-.56c5.12-1.15,9.97-2.53,16.18-4.5l-.51-.32c2.65-.93,6.12-1.89,9.99-3,3.85-1.13,8.1-2.41,12.26-4.02-.51.37-2.64,1.13-4.18,1.56,5.18-1.32,10.36-3.56,15.29-6,4.94-2.44,9.62-5.07,14.02-7.11,2.04-1.3,3.55-2.18,5.07-2.95-.19.12-.36.24-.5.33.22-.12.53-.31.85-.52.94-.5,1.93-1.01,2.97-1.59-.91.46-1.79.89-2.52,1.31,1.58-.99,3.93-2.57,6.14-4.27l1.24-.3c.18-.14.33-.24.52-.39,2.32-1.47,1.62-1.5.25-.91,1.07-.9,2.03-1.76,2.74-2.45,2.23-.77,5.46-4.8,8.17-6.34.55-.78,2.98-3.32,5.18-5.98,2.16-2.7,4.08-5.52,4.15-6.38.14-.01.66-.65-.2.58,1.88-2.45,3.71-4.97,4.85-7.52l1.19-.84,1.21-3.2,1.05-3.24c.94-1.82,1.66-3.11,1.93-3.46.28-.35.29.28-.29,2.27,1.52-4.75,1.91-6.72,2.38-8.48.19-.89.37-1.74.59-2.88.18-1.15.4-2.59.57-4.68l.33.47c.53-2.97.47-7.77.86-9.54.29-1.65.51-4.57.36-8.25.02-3.69-.48-8.15-1.23-12.89-.25-1.18-.5-2.37-.75-3.58-.28-1.2-.44-2.45-.86-3.64-.36-1.2-.73-2.41-1.09-3.62-.36-1.21-.7-2.43-1.2-3.58-1.74-4.72-3.83-9.16-5.9-12.96.39,1.71-.56-.05-1.76-2.26-1.12-2.27-2.87-4.74-3.42-4.76-.38-.96-1.71-3,.17-.9-.68-.87-1.32-1.69-1.93-2.46-.65-.74-1.25-1.43-1.83-2.09-1.16-1.32-2.14-2.55-3.15-3.65-1.05-1.06-2.04-2.04-3.09-2.99-1.04-.96-2.11-1.89-3.42-2.7-.59-.86,1.7.92,1.13.21-.58-.42-2.29-1.63-2.89-2.35-.58-.71,1.13.66,2.28,1.48-1.73-1.45-3.11-2.54-4.21-3.35-1.14-.76-2.02-1.22-2.68-1.52-1.34-.6-1.89-.5-2.39-.37-.85-.74-1.59-1.41-2.31-1.94-.73-.52-1.39-.98-2.04-1.38-1.3-.81-2.53-1.45-4.03-2.12-.6-.52-1.44-1.15-1.52-1.33-.04-.09.11-.06.57.16.46.21,1.24.62,2.4,1.37-.32-.22-.81-.54-1.42-.95-.63-.38-1.38-.83-2.21-1.33-.83-.5-1.74-1.04-2.67-1.6-.94-.56-1.9-1.14-2.89-1.63-1.95-1.01-3.84-1.97-5.27-2.64-1.43-.68-2.45-.98-2.58-.88-.81-.55-3.92-1.86-4.69-2.13-3.17-1.43-4.94-2.11-6.66-2.85-.87-.35-1.72-.74-2.78-1.12-1.06-.38-2.3-.83-3.9-1.41l1.74.75c-2.8-.2-5.36-1.84-10.62-3.42l.17-.03c-1.47-.55-2.66-1-3.64-1.34-.99-.31-1.75-.55-2.37-.75-1.24-.37-1.89-.53-2.54-.7-1.3-.31-2.56-.71-8.49-2.56l.53.63c-1.36.67-10.5-3.34-17.66-4.37l2.49.8c-1.96-.23-4.58-1.13-7.19-2.09-2.62-.93-5.25-1.87-7.19-2.3-.83-.24,1.37.1,2.56.26-10.1-2.45-1.42.32-9.06-.8-1.35-.56,1.95-.56-3.17-1.45-2.52-.75-15.06-1.11-22.01-2.56,1.52.45,3.02.9-.55.66-2.73-.27-6.39-.89-10-1.43-3.61-.51-7.17-.88-9.67-.7-.69-.13-.94-.23-.97-.29-4.2-.13-13.61-.69-16.16-.36-.94-.47-3.04-.76-5.65-.95-2.62-.16-5.75-.2-8.76-.24-6.02-.04-11.54.01-11.47-.76l-12.88-.24.34-.15c-8.23-.24-11.15.1-14.05.46-1.9-.12-.51-.25-.35-.33-6.01-.21-9.32-.23-12.39-.15-3.06.07-5.88.32-10.92.76l-1.06-.48c-2.72.31-17.41-.48-29.18.55.11-.06.35-.16,1.29-.27-13.24,1.01-31.82.04-36.57,2.14l-8.71.97c11.31-.54-1.63.88,3.03.9-4.44.37-11.52.2-6.07-.26l.86.03c1.94-1.09-14.06.6-13.8-.04-22.23,1.62-43.91,3.03-64.69,4.96l2.46.5-7.25.65c-1.92.01-2.61-.33,2.56-.79-2.76-.15-8.63,1.17-8.77,1.35-10.14.67,3.87-1.23.77-.95l-4.21.46h.96c-3.39.61-3.66.97-9.87,1.51-3.94.21-2.05-.27-3.6-.16,0-.05-.52-.03-2.37.19-3.04.24-6.08.48-9.09.65,1.22.12,2.44.22,3.67.32-4.02.61-8.54.5-4.32.93-.78-.07-1.89-.13-3.24-.14-1.38.02-3.05.03-4.86.18-3.64.3-7.89,1.16-11.92,2.46-4.06,1.26-7.79,3.14-10.72,4.74-2.92,1.63-4.97,3.12-5.83,3.58-4.49,3.75-8.71,7.61-13.33,12.97.62-.63,1.22-1.04,1.16-.72-.03.16-.22.5-.65,1.09-.45.57-1.1,1.42-2.03,2.61.17-1.28-1.73.78-3.89,3.77-2.17,2.99-4.56,6.89-6.12,8.86,1.35-1.78-.77,2.02-2.39,5.69-1.63,3.68-2.92,7.13-1.16,4.14-2.03,4.63-.59.08-2.32,3.54-1.95,5.73-4.05,12.04-5.73,18.85-1.7,6.8-3.03,14.07-3.59,21.52.16.24.64-2.21.63.99l-.71,3.89L0,123.51c0,1.48.27,2.16.42,3.14.15.98.21,2.26-.02,4.96.13-.76.33-1.9.43.07-.06,7.29.61,14.67,1.92,21.98,1.29,7.32,3.31,14.57,6.01,21.57.64,1.77,1.44,3.47,2.15,5.21.83,1.69,1.55,3.43,2.46,5.08,1.68,3.37,3.67,6.58,5.73,9.74,2.13,3.12,4.42,6.13,6.92,8.97.61.72,1.29,1.39,1.93,2.09.64.69,1.29,1.39,1.99,2.03l2.05,1.98,2.15,1.87c-3.01-2.81-.86-1.11,1.64.75-1.59-1.26.29-.31.11-.74,3.25,2.63,6.77,4.94,10.49,6.94.6.08,1.67.45,2.97.97,1.31.47,2.87,1.02,4.4,1.56,1.56.44,3.09.9,4.32,1.18,1.25.23,2.19.36,2.54.27-1.29-.26-2.61-.45-3.88-.82,2.63.37.94-.55-1.2-1.63-1.08-.51-2.24-1.18-3.07-1.73-.83-.55-1.33-.98-1.07-1.14-.71-.12-1.42-.41-2.19-.7-.76-.31-1.56-.64-2.36-1.06-1.59-.89-3.31-1.89-5-3.12-3.44-2.4-6.96-5.32-10.75-8.08-1.33-1.57,1.47.99.83.06-.99-.66-1.99-1.5-3.2-2.64-1.14-1.21-2.53-2.7-4.08-4.85l.45.4c-4.66-5.76-7.24-10.46-9.58-15.46-2.3-5.03-4.34-10.45-6.47-18.52l-.11,1.32c-.48-1.73-.69-2.81-.83-3.65-.14-.84-.24-1.44-.38-2.28-.4-.97-.46-.84-.37-.14.12.69.42,1.93.72,3.18.62,2.5,1.37,5.01.45,3.32-.26-2.42-1.82-8.57-2.78-14.67-1.01-6.08-1.35-12.07-.93-13.7-.27-5.53-.47,1.66-.74-3.88.07-.49.17-.99.26-1.48l-.41-1.39c-.01-3.65.46-5.47.69-5.6-.04.88.05,2.5.06,3.44.1-1.18.15-2.59.17-4.08.06-1.49.1-3.04.13-4.51.13-2.92.23-5.47.39-6.26-.26,1.75-.41,3.52-.6,5.28.32-7.55,1.44-15.9,3.29-24.02.92-4.06,1.97-8.07,3.18-11.9,1.16-3.85,2.47-7.5,3.76-10.92-.21.31-.44.61-.65.93,1.02-2.6,1.76-4.41,2.47-5.8.67-1.4,1.21-2.42,1.82-3.44.6-1.02,1.19-2.09,2.08-3.52.44-.72.91-1.55,1.51-2.51.6-.95,1.3-2.05,2.12-3.34l-.21.39c.61-1.06,1.36-2.28,2.21-3.56.92-1.23,1.86-2.6,2.97-3.85-1.79,2.5,4.13-4.06,1.74-.81.9-1.19,1.76-2.05,2.39-2.82.64-.76,1.18-1.32,1.6-1.77.85-.9,1.25-1.37,1.56-1.75.31-.38.55-.66,1.02-1.23.5-.54,1.18-1.45,2.67-2.8l1.68-.82c.99-.94,1.55-1.42,2.45-2.16.23-.18.48-.37.77-.6.3-.2.64-.42,1.03-.67.79-.47,1.74-1.17,3.11-1.85-1.09.62-1.37.91-1.3.95.07.04.51-.14.95-.26.88-.25,1.65-.52-.68.98,1.43-.68,2.79-1.26,4.04-1.85,1.29-.5,2.47-1.04,3.6-1.47,1.14-.42,2.21-.82,3.21-1.19,1.02-.33,1.99-.63,2.9-.92,3.68-1.03,6.67-1.61,9.59-1.2,1.42-.35,1.46-.52.75-.58-.71-.04-2.17-.06-3.69.17-.76.1-1.54.2-2.26.29-.72.11-1.36.27-1.86.36-1.01.2-1.44.28-.65.06-1.38.11-.24-.32,1.76-.87,1-.26,2.24-.44,3.46-.65,1.22-.22,2.47-.24,3.47-.3,4.12-.22,7.19.98,17.62,0-1.04.09-1.1.17-2.14.26,3.93-.09,7.62-1.05,12.44-1.08,2.62-.87,6.21-.56,6.91-1.42l-9.54,1.09c5.4-.72,10.39-2.13,19.35-2.53-.68.22-3.31.69-5.13.98,2.63-.02,5.01-.63,7.73-.65-.7.86-11.59,1.27-17.34,2.43,2.83.07,10.92-1.62,8.09-.49,4.09-1.48,10.27-.84,17.24-2.32l-.42.52c1.11-.18,3.4-.62,5.45-.79l-3.66.95c5.66-1.05,11.04-.54,16.49-1.3-11.46,1.03-2.62-.34-7.5-.26,14.09-1.87,8.24.5,24.05-1.03-2.14.24-8.07.38-4.74-.12,3.02-.16,7.02-.29,8.89-.18,10.49-.92-1.65-.36,2.8-1,3.62.3,5.14-.62,9.73-1.15l.07.48c11.99-.52,3.1-1.25,13.91-1.58l-4.51.96,5.61-.54-1.12.62c6.08-.81,8-.8,13.99-1.01-1.41-.26.73-.93,6.04-1.22,3.63.09-2,.56,5.52.1-1.68.38-3.52.87-6.82.6-.33.18-1.66.39-1.99.57,3.91.11,9.79-.45,12.51-.58-1.05.03-2.3.07-2.95.03l10.87-1.18c1.72.11.37.31-.97.51,2.21-.14,3.73-.43,6.97-.61-.83.43-.61.82-5.19,1.2l10.37-.84c.7.15,5.35.28,4,.47,5.76.03,14.1-1.18,21.75-1.01.4-.08,1.19-.18,2.81-.25,7.18,0,13.54.42,22.05-.09l4.82.73c6.66-.11-6.53-.94,4.57-1.11,7.86-.1,2.92.65,5.67.88,1.96-.16,4.63-.37,7.72-.43,3.09-.07,6.59-.03,10.19.41-2.39.04-4.26-.14-6.49-.13Zm81.79,6.34c-1.59-.12-4.77-.26-5.88-.7,1.87-.29,3.22.17,5.88.7Zm116.25,40.32c-.97-.66-2.43-1.74-3.96-3.14,1.2.88,2.6,1.84,3.96,3.14Zm-188.04,178.53c.07-.01.11-.02.17-.03,3.57.04,2.31.02-.17.03Zm-7.41.08c-.74.09-.69.16-.37.22.51-.14,2.17-.21,4.07-.25-.53-.11-1.49-.16-3.7.03ZM88.61,19.72h1.44c-3.22.43-2.32.22-1.44,0Z"/>
        <path d="m504.57,51.42c-.33-.31-.38-.46-.42-.59-.56-.27-.62-.2.42.59Z"/>
        <path d="m267.25,12.36h-.25c-.14.03-.21.06-.25.09l.5-.09Z"/>
        <path d="m434.06,220.79c1.49-.26,2.34-.36,2.9-.39.05-.13-.64-.08-2.9.39Z"/>
        <path d="m281.7,239.12l4.75-.14c-2.3.03-3.12-.07-4.27-.15.11.11,1.01.27-.47.28Z"/>
        <path d="m240.61,235.5c-.69.04-1.47-.04-2.15,0l.18.23c2.95.08,5.01-.05,1.97-.23Z"/>
        <path d="m277.31,237.51c-.37-.4-3.35-.29-6.67-.23.2,0,.39,0,.59,0-.98.56,2.56.4,6.08.23Z"/>
        <path d="m269.87,237.28c-1.02,0-2.07,0-3.07-.02-.39.22,1.24.06,3.07.02Z"/>
        <path d="m311.55,238.2c-1.58-.06-.98.54-1.87.4-1.75.56,10.49-.9,1.87-.4Z"/>
        <polygon points="274.63 236.16 275.82 236.67 277.68 236.27 274.63 236.16"/>
        <path d="m300.82,236.4l-5.3-.07c.08.08-.59.14-1.42.19,3.27-.01,6.85.03,6.72-.12Z"/>
        <path d="m294.1,236.52c-1.7.01-3.32.03-4.27.12.92-.01,2.9-.04,4.27-.12Z"/>
        <polygon points="281.87 236.03 283.44 236.14 287.18 236.16 281.87 236.03"/>
        <path d="m357.75,233.94l5.76-.61c.57-.22-1.01-.19-3.15.05-1.37.23-3.51.47-2.61.56Z"/>
        <path d="m340.22,233.73c1.57.02,1.68.12,2.57.23l.14-.63-2.71.4Z"/>
        <path d="m357.02,232.48c.56-.21,8.31-1.16,1.02-.54-.57.22-6.33.78-1.02.54Z"/>
        <polygon points="443.13 220.43 441.71 220.79 442.15 221.73 443.13 220.43"/>
        <path d="m512.09,189.03c-2.8,1.84-3.08,2.14-3.25,2.46-.19.29-.28.58-2.95,2.06-.61.52.48-.09,1.56-.7,1.08-.61,2.12-1.27,1.51-.73.82-.61,1.54-1.15,2.13-1.59.59-.46,1.05-.82,1.36-1.09.61-.53.59-.68-.36-.41Z"/>
        <path d="m508.96,192.12c-.52.4-1.07.82-1.66,1.26.97-.68,1.4-1.04,1.66-1.26Z"/>
        <path d="m54.09,222.7c1.45.47,2.88,1.04,4.36,1.42-.94-.3-1.85-.72-2.77-1.09l-1.59-.33Z"/>
        <path d="m62.74,224.03l.95.8,2.78-.16c-1.01-.13-2.98-.38-3.72-.64Z"/>
        <path d="m411.96,21.89l.36-.1c-.64-.27-1.65-.45-3.67-.8l3.32.91Z"/>
        <polygon points="352.99 14.55 354.01 14.64 352.14 13.91 352.99 14.55"/>
        <path d="m303.03,13.3c2.04.06,4.44-.04,6.49.02-4.45.04-7.03-.76-6.49-.02Z"/>
      </g>
    </g>
    <path class="cls-1" d="m65.68,213.51C-28.08,201.88-14.37,16.3,72.92,13.3c51.97-1.79,476-65.46,476,102.54S122.83,218.22,65.68,213.51Z"/>
  </g>
</svg>