<?xml version="1.0" encoding="utf-8"?>
<!-- Generator: Adobe Illustrator 16.0.3, SVG Export Plug-In . SVG Version: 6.00 Build 0)  -->
<!DOCTYPE svg PUBLIC "-//W3C//DTD SVG 1.1//EN" "http://www.w3.org/Graphics/SVG/1.1/DTD/svg11.dtd">
<svg version="1.1" id="Calque_1" xmlns="http://www.w3.org/2000/svg" xmlns:xlink="http://www.w3.org/1999/xlink" x="0px" y="0px"
	 width="90px" height="200px" viewBox="0 0 90 200" enable-background="new 0 0 90 200" xml:space="preserve">
<g>
	<path fill-rule="evenodd" clip-rule="evenodd" fill="#7E4E24" d="M80.842,96.653c-3.267-5.089-5.159-10.692-5.847-16.679
		c-0.313-2.702-0.219-2.672-2.83-3.075c-4.182-0.646-8.265-1.682-12.056-3.628c-2.607-1.33-4.564-3.314-5.016-6.259
		c-0.354-2.316-0.264-4.704-0.313-7.075c-0.01-0.241,0.341-0.644,0.593-0.702c3.688-0.919,5.877-3.499,7.468-6.704
		c1.128-2.27,2.087-4.606,3.177-6.896c1.661-3.495,3.768-6.58,7.73-7.818c0.118-0.03,0.19-0.213,0.391-0.456
		c-4.191-1.893-8.042-1.096-11.9,1.03c0.937-4.625,0.846-9.11,0.413-13.616c-0.565-5.936-2.038-11.62-4.729-16.961
		c-1.057-2.098-2.328-4.092-3.507-6.139H53.69c-1.42,0.806-2.923,1.501-4.254,2.45c-6.851,4.856-13.201,10.3-18.713,16.668
		c-3.852,4.444-7.248,9.152-9.372,14.685c-0.053,0.132-0.162,0.231-0.264,0.375c-2.349-0.868-4.637-1.787-7.165-1.353
		c0,0.252-0.021,0.313,0,0.322c0.523,0.361,1.037,0.746,1.582,1.088c3.066,1.934,3.649,5.192,3.458,8.235
		c-0.262,4.344-0.769,8.667-0.042,12.979c0.345,2.077,0.898,4.183,1.693,6.129c2.359,5.713,6.916,8.092,12.912,8.082
		c0.523,0,1.037,0.051,1.563,0.07c0.07,0.153,0.15,0.303,0.221,0.454c-0.181,0.072-0.373,0.121-0.565,0.192
		c-2.489,0.896-4.928,2.005-7.488,2.64c-2.479,0.625-5.067,0.807-7.619,1.109c-1.118,0.13-1.633,0.665-2.035,1.702
		c-1.774,4.558-3.618,9.092-5.482,13.614c-0.384,0.91-0.949,1.746-1.471,2.695c0.713,0.473,1.339,0.895,1.975,1.309
		c1.107,0.694,2.72,1.15,3.215,2.146c0.564,1.128,0.12,2.761,0.12,4.173c0,0.15-0.051,0.313-0.051,0.475
		c-0.009,4.907-0.051,9.825-0.009,14.732c0.009,1.836,0.19,3.659,0.313,5.655c-0.868-0.424-1.573-0.767-2.552-1.241
		c0.446,2.361,1.361,4.215,2.623,5.938c0.38,0.525,0.815,1.128,0.864,1.734c0.192,2.195,0.203,4.413,0.322,6.62
		c0.132,2.207-0.068,4.558,1.231,6.43c1.603,2.299,3.516,4.365,5.421,6.683c-0.25,0.677-0.533,1.594-0.936,2.459
		c-0.273,0.596-0.192,0.969,0.331,1.32c1.201,0.806,2.42,1.601,3.568,2.48c0.341,0.261,0.675,0.755,0.716,1.178
		c0.412,4.202,0.777,8.406,1.138,12.618c0.171,2.097,0.313,4.194,0.475,6.441c-0.716-0.271-1.2-0.466-1.793-0.688
		c0,0.355-0.051,0.535,0.009,0.657c0.807,1.501,0.223,2.571-0.696,3.891c-1.408,2.048-3.071,3.668-5.13,5.007
		c-1.017,0.657-1.936,1.594-2.609,2.593c-0.424,0.636-0.838,0.957-1.482,0.916c-0.704-0.04-1.451-0.15-2.104-0.413
		c-1.776-0.697-2.772-2.612-2.279-4.172c0.484-1.521,2.439-2.45,4.303-2.036c0.223,0.049,0.466,0.049,0.697,0.072
		c0.051-0.113,0.1-0.214,0.15-0.327c-0.706-0.48-1.39-0.983-2.114-1.429c-2.351-1.421-4.326-1.278-6.169,0.767
		c-0.959,1.059-1.493,2.499-2.219,3.769v4.111c0.767,3.106,2.379,5.614,5.252,7.147c4.231,2.256,8.647,2.529,13.151,0.946
		c0.725-0.251,1.229-0.243,1.885,0.133c2.349,1.308,4.938,1.844,7.589,2.176c0.384,0.04,0.767,0.162,1.15,0.243h8.948
		c0.505-0.081,1.008-0.194,1.524-0.243c2.911-0.332,5.832-0.596,8.747-0.999c1.088-0.15,2.317-0.381,3.124-1.018
		c0.504-0.394,0.404-1.632,0.463-2.499c0.313-4.082,0.574-8.172,0.877-12.265c0.042-0.536,0.179-1.089,0.413-1.574
		c0.414-0.886,0.917-1.732,1.502-2.789c-0.958,0.069-1.621,0.119-2.197,0.16v-17.126c2.188-0.503,4.152-0.966,5.915-1.38
		c-0.554-2.658-1.048-5.026-1.54-7.385c1.007-0.081,1.853-0.061,2.67-0.222c2.487-0.505,4.102-2.28,5.483-4.195
		c3.747-5.229,3.798-11.195,3.124-17.242c-0.071-0.625,0.021-0.957,0.403-1.461c1.139-1.503,2.137-3.104,3.153-4.697
		c0.171-0.262,0.171-0.625,0.283-1.077c-1.079,0.612-1.964,1.129-3.004,1.722c0.152-1.984,0.281-3.657,0.403-5.331
		c0.352-4.687,0.796-9.372,1.019-14.068c0.071-1.412,0.333-2.299,1.603-3.096C82.566,99.857,82.535,99.294,80.842,96.653
		 M53.942,2.419c2.068,2.824,3.548,5.847,4.747,9.415c-4.161-2.903-8.556-3.791-13.463-3.911
		C47.986,5.604,50.738,3.722,53.942,2.419 M37.677,14.463c2.076-1.844,4.153-3.689,6.249-5.503c0.251-0.22,0.612-0.481,0.916-0.463
		c4.032,0.203,7.994,0.646,11.622,2.661c1.772,0.977,3.053,2.197,3.455,4.305c0.636,3.305,1.452,6.571,2.178,9.854
		c0.062,0.294,0.029,0.616,0.062,1.13c-8.387-8.021-11.995-9.645-24.986-11.338C37.364,14.856,37.496,14.625,37.677,14.463
		 M36.114,15.975c0.162-0.16,0.505-0.209,0.757-0.199c9.616,0.38,17.968,3.597,24.52,10.894c0.717,0.796,1.11,1.611,1.03,2.702
		c-0.214,2.911-0.354,5.835-0.526,8.758c-0.139,0.028-0.292,0.061-0.433,0.09c-0.222-0.232-0.454-0.465-0.675-0.706
		c-6.291-6.915-13.838-11.832-22.85-14.383c-2.608-0.743-5.29-0.915-8.152-0.421C31.892,20.46,33.988,18.204,36.114,15.975
		 M28.9,24.221c0.663-0.767,2.276-0.887,3.477-1c3.114-0.28,6.064,0.546,8.929,1.665c7.154,2.792,13.455,6.862,18.614,12.607
		c0.434,0.475,0.809,0.998,1.2,1.493c-1.956,1.592-3.791,3.094-5.713,4.667c-2.271-1.855-4.495-3.758-6.804-5.564
		c-6.241-4.877-13.404-6.943-21.256-6.873c-0.556,0-1.118,0.13-1.672,0.222c-0.544,0.09-1.091,0.19-1.635,0.292
		c-0.09-0.093-0.179-0.172-0.26-0.262C25.452,29.028,26.985,26.458,28.9,24.221 M15.657,35.276c0.069-0.111,0.141-0.221,0.199-0.334
		c1.635,0.454,3.266,0.91,5.021,1.403c-0.493,1.883-0.938,3.585-1.381,5.291C18.781,39.176,18.408,36.545,15.657,35.276
		 M19.795,58.737c-1.278-6.6-0.834-13.121,0.939-19.58c0.383-1.382,1.734-2.249,3.105-1.797c1.067,0.354,2.045,1.03,3.031,1.625
		c0.475,0.281,0.868,0.684,1.332,1.068c-0.012-4.143-1.955-5.826-6.017-4.647c0.694-2.649,1.55-3.233,4.685-3.527
		c5.021-0.463,9.696,0.838,14.323,2.58c4.485,1.684,8.042,4.666,11.53,7.792c0.696,0.614,1.42,1.188,2.175,1.825
		c-0.252,0.35-0.503,0.695-0.744,1.038c0.091,0.1,0.17,0.19,0.262,0.29c0.343-0.26,0.677-0.522,1.02-0.784
		c2.64-2.038,5.157-4.253,7.94-6.069c2.688-1.744,5.784-2.055,9.2-0.978c-0.24,0.123-0.493,0.231-0.734,0.343
		c-3.234,1.461-4.928,4.272-6.35,7.297c-1.148,2.429-2.155,4.939-3.348,7.348c-1.531,3.145-3.817,5.474-7.427,6.137
		c-0.623,0.111-1.26,0.171-1.895,0.252c0,0.142,0.012,0.271,0.012,0.403c0.402,0.051,0.806,0.111,1.098,0.152
		c0,1.512-0.01,3.024,0.009,4.534c0,0.767-0.11,1.582,0.132,2.279c0.434,1.309-0.102,2.126-1.021,2.911
		c-2.205,1.864-4.875,2.711-7.637,2.985c-2.821,0.282-5.694,0.12-8.536,0.069c-0.363,0-0.725-0.444-1.077-0.686
		c0.353-0.171,0.684-0.442,1.059-0.504c4.404-0.755,8.445-2.305,11.771-5.401c0.241-0.233,0.422-0.535,0.785-1.009
		c-0.454,0.051-0.604,0.021-0.665,0.081c-3.015,2.924-6.935,3.881-10.763,5.141C27.851,73.243,21.341,66.699,19.795,58.737
		 M21.409,37.039c1.281-1.429,2.703-1.5,4.115-1.186c1.167,0.25,1.73,1.167,1.853,2.628C25.561,36.999,23.79,36.214,21.409,37.039
		 M39.511,114.352c0.625,4.203,1.027,8.445,1.521,12.667c0.03,0.264-0.021,0.546-0.04,0.878c-0.333,0.041-0.604,0.081-0.877,0.09
		c-0.271,0.01-0.545-0.029-0.827-0.039c-0.162-2.034-0.15-4.062-0.514-6.007c-0.846-4.576-1.823-9.131-2.842-13.675
		c-1.927-8.488-1.299-16.752,1.903-24.834c0.938-2.37,1.774-4.779,1.089-7.377c-0.231-0.896-0.574-1.764-0.907-2.76h3.167
		c0.442,1.53,0.936,3.011,1.278,4.524c0.436,1.935,0.042,3.799-0.986,5.452c-2.702,4.323-3.316,9.142-3.588,14.079
		C37.577,103.093,38.664,108.706,39.511,114.352 M13.901,95.152c-1.674-0.714-1.904-1.734-1.26-3.355
		c1.896-4.767,3.768-9.546,5.724-14.293c0.183-0.454,0.767-0.956,1.23-1.028c2.66-0.433,5.393-0.512,7.991-1.146
		c2.591-0.627,5.06-1.775,7.6-2.702c0.121,0.463,0.253,0.947,0.385,1.422c0.1-0.01,0.199-0.021,0.301-0.042
		c0.07-0.364,0.151-0.727,0.231-1.149c0.424,0.072,0.837,0.142,1.381,0.241c0.333,1.716,1.049,3.499,0.917,5.212
		c-0.17,2.277-0.776,4.604-1.601,6.742c-1.746,4.524-2.804,9.121-2.651,13.989c0.181,5.745,1.278,11.317,2.712,16.863
		c1.005,3.889,1.832,7.818,1.561,12.063c-4.041-0.181-7.871-0.674-11.438-2.471c-1.22-0.603-1.603-1.633-1.433-2.901
		c0.242-1.864,0.655-3.72,0.787-5.593c0.321-4.907-0.556-9.678-2.018-14.362c-0.613-1.987-1.007-4.052-1.41-6.088
		c-0.424-2.206-0.303-4.395,0.473-6.269c-1.41-1.493-2.73-2.873-4.039-4.263c-0.09,0.071-0.171,0.132-0.264,0.199
		c0.102,0.213,0.164,0.465,0.313,0.647c0.917,1.059,1.876,2.097,2.793,3.154c0.162,0.19,0.331,0.475,0.32,0.706
		c-0.099,2.177-0.23,4.354-0.36,6.721c-0.416-0.049-1.169-0.019-1.866-0.231C18.134,96.594,15.947,96.018,13.901,95.152
		 M24.926,117.89c-2.64,0.695-5.259,0.806-7.618-0.838c-0.434-0.303-0.817-0.996-0.836-1.531c-0.091-2.197-0.04-4.404-0.04-6.512
		c3.043,0.253,5.896,0.484,8.897,0.736c0.484,2.207,0.597,4.757,0.273,7.318C25.561,117.364,25.211,117.809,24.926,117.89
		 M25.392,118.494c-0.304,1.693-0.586,3.314-0.929,4.93c-0.039,0.2-0.442,0.39-0.714,0.45c-2.28,0.495-4.346-0.32-6.411-1.067
		c-0.192-0.07-0.383-0.411-0.413-0.635c-0.162-1.512-0.272-3.015-0.414-4.576C20.876,119.219,21.782,119.31,25.392,118.494
		 M23.69,101.844c0.422,1.895,0.915,4.032,1.359,6.179c0.211,1.019-0.655,1.059-1.221,1.019c-1.875-0.111-3.737-0.345-5.613-0.566
		c-0.586-0.068-1.16-0.241-1.684-0.353v-7.135C18.911,101.27,21.189,101.541,23.69,101.844 M16.623,100.1v-2.932
		c1.956,0.343,3.832,0.644,5.694,1.017c0.252,0.051,0.514,0.444,0.627,0.726c0.19,0.564,0.28,1.169,0.44,1.875
		C20.978,101.562,18.838,100.584,16.623,100.1 M18.447,136.835c-0.183-2.68-0.333-5.37-0.585-8.04
		c-0.091-0.908-0.424-1.653-1.188-2.42c-0.988-0.978-1.431-2.501-2.098-3.789c3.357,1.32,6.502,2.59,10.332,1.753
		c0,0.827-0.009,1.562,0,2.286c0.069,4.296,0.142,8.589,0.19,12.883c0.01,0.706,0.535,1.713-0.887,1.754
		c-1.381,0.04-1.964-0.435-1.974-1.796c0-3.205-0.507-6.287-2.552-9.302c0.042,0.625-0.061,1.069,0.102,1.361
		c1.582,2.79,1.682,5.895,2.024,8.959c0.069,0.646,0.505,1.431,1.028,1.795c2.248,1.563,2.39,1.794,1.704,4.423
		c-0.051,0.223-0.132,0.435-0.262,0.848C21.087,144.535,18.759,141.249,18.447,136.835 M28.829,161.559
		c-0.113-0.858-0.123-1.744-0.172-2.649c4.122,1.551,8.233,2.023,12.538,0.594c0,1.029,0.161,2.105-0.061,3.095
		c-0.142,0.645-0.726,1.34-1.309,1.701c-2.582,1.603-8.396,0.697-10.465-1.579C29.09,162.415,28.887,161.97,28.829,161.559
		 M28.544,155.844c2.794,0.494,5.534,0.988,8.275,1.463c0.394,0.069,0.827,0.15,1.198,0.05c1.12-0.304,2.169-0.374,3.146,0.604
		c-0.273,0.958-1.111,1.381-2.017,1.502c-3.044,0.374-6.098,0.445-9.009-0.726C28.416,158.041,28.393,157.92,28.544,155.844
		 M29.231,165.369c0.03-0.576-0.122-1.169-0.191-1.814c3.93,2.39,7.892,3.154,12.064,0.846c0.646,2.377,0.039,3.65-2.278,4.507
		c-2.349,0.864-4.716,0.876-7.056-0.032C30.178,168.25,29.131,167.243,29.231,165.369 M40.822,172.696
		c-0.172,0.584-1.149,1.229-1.825,1.308c-2.781,0.344-5.512,0.124-8.033-1.359c-0.885-0.513-1.319-1.201-1.248-2.257
		c0.039-0.625-0.091-1.271-0.162-2.077c1.765,1.421,3.779,1.887,5.866,1.863c2.096-0.018,4.143-0.411,6.018-2.185
		C41.234,169.804,41.224,171.305,40.822,172.696 M39.27,176.353c-2.994,0.688-5.897,0.203-8.719-0.836
		c-0.243-0.099-0.493-0.482-0.533-0.767c-0.092-0.572-0.031-1.168-0.031-1.846c3.538,1.866,7.074,2.503,10.825,1.233
		C40.972,175.95,40.972,175.971,39.27,176.353 M28.636,177.675c0.201-0.283,0.201-0.758,0.183-1.14
		c-0.032-0.333-0.222-0.645-0.426-1.198c4.477,1.944,8.82,2.82,13.484,0.836c-0.141,0.35-0.161,0.593-0.301,0.735
		c-1.13,1.14-0.986,2.441-0.727,3.882c0.203,1.157,0.071,2.378,0,3.566c-0.02,0.271-0.36,0.564-0.612,0.755
		c-1.635,1.16-3.258,2.309-4.919,3.417c-1.027,0.674-2.065,1.399-3.195,1.874c-1.583,0.654-3.063,0.052-3.64-1.551
		c-0.341-0.968-0.463-2.129-0.302-3.146c0.223-1.421,1.42-1.984,2.813-1.651c0.28,0.068,0.604,0.011,0.896,0.011V183.7
		c-2.096-0.908-3.96-2.8-6.662-1.481C26.378,180.706,27.539,179.217,28.636,177.675 M59.728,162.485
		c0,1.362,0.102,2.843-0.049,4.292c-0.051,0.486-0.686,1.201-1.172,1.302c-3.798,0.837-7.567,0.877-11.166-0.928
		c-0.966-0.48-1.559-1.137-1.478-2.358c0.069-0.945-0.115-1.914-0.194-2.922C50.376,164.128,55.003,163.515,59.728,162.485
		 M45.738,158.666c4.648,0.503,9.295,0.999,14.02,1.511c0.352,1.1-0.443,1.756-1.491,1.964c-3.324,0.686-6.672,1.01-10.027,0.153
		c-0.081-0.021-0.152-0.04-0.233-0.061C45.942,161.446,45.567,160.842,45.738,158.666 M57.632,175.719
		c-2.529,1.169-5.181,1.725-7.952,1.16c-2.619-0.535-3.235-1.29-3.406-3.902c-0.028-0.431,0-0.877,0-1.521
		c1.945,1.716,4.143,2.431,6.53,2.158c2.248-0.252,4.457-0.818,6.662-1.24C59.778,174.458,59.638,174.782,57.632,175.719
		 M59.466,175.589v1.684c-1.361,0.09-2.68,0.18-4.272,0.289C56.768,176.836,58.085,176.223,59.466,175.589 M56.937,172.303
		c-2.38,0.746-4.839,1.209-7.225,0.353c-3.064-1.099-3.721-1.492-3.712-5.493c4.417,2.621,9.003,2.248,13.669,1.4
		c0.01,0.021,0.019,0.052,0.019,0.081C59.659,171.426,59.669,171.443,56.937,172.303 M45.81,176.836
		c-0.443-0.038-0.684-0.038-0.917-0.081c-0.978-0.151-1.057,0.373-0.734,1.07c0.229,0.515,0.493,1.05,0.877,1.429
		c0.936,0.929,0.584,1.806,0,2.664c-0.819,1.188-1.986,1.912-3.258,2.428c-0.189-1.884-0.402-3.669-0.532-5.453
		c-0.021-0.302,0.291-0.625,0.451-0.946c0.434-0.896,0.868-1.805,1.302-2.713c-0.111-0.066-0.223-0.147-0.334-0.22
		c-0.313,0.112-0.634,0.21-1.037,0.344c0.122-5.816,0.241-11.6,0.375-17.519c0.765,0.11,1.621,0.191,2.457,0.374
		c0.211,0.049,0.505,0.404,0.523,0.633C45.277,164.793,45.539,170.74,45.81,176.836 M10.625,191.644
		c-2.226-2.592-2.599-7.026-0.854-9.968c1.438-2.422,3.698-3.085,6.35-1.814c-0.394,0.142-0.736,0.231-1.061,0.374
		c-1.357,0.572-2.267,1.562-2.447,3.043c-0.181,1.521,0.402,2.762,1.664,3.647c1.29,0.917,2.74,1.139,4.252,0.949
		c0.334-0.041,0.755-0.324,0.927-0.617c1.241-2.097,2.52-3.233,4.838-4.202c-2.006,3.537-2.105,8.405,2.236,11.943
		C21.329,197.386,14.253,195.864,10.625,191.644 M61.109,177.813c0.05,0.394,0.103,0.506,0.07,0.544
		c-1.391,1.533-1.018,3.367-1.089,5.212c-0.132,3.475-0.644,6.946-0.896,10.423c-0.091,1.389-0.815,2.025-2.027,2.216
		c-2.647,0.423-5.299,0.938-7.98,1.097c-3.921,0.243-7.881,0.385-11.813,0.254c-3.719-0.121-7.336-0.917-10.4-3.286
		c-2.942-2.276-3.991-5.331-3.013-8.877c0.716-2.604,3.527-3.77,5.329-2.441c-0.723,0.705-1.621,1.339-2.205,2.189
		c-0.646,0.935-0.495,2.063-0.051,3.124c0.947,2.235,3.719,3.388,6.088,2.378c1.008-0.425,1.996-1.07,2.812-1.822
		c2.55-2.36,5.493-4.044,8.698-5.323c1.542-0.627,2.135-2.722,1.22-4.174c-0.363-0.575-0.725-1.14-0.958-1.513H61.109z
		 M64.958,156.5c0.142,1.351-0.573,2.247-1.993,2.378c-6.491,0.575-12.94,0.452-19.281-1.27c-2.318-0.626-3.365-2.168-3.458-4.496
		c-0.021,0.203-0.039,0.414-0.051,0.616c-0.141,2.569-0.655,3.112-3.205,2.983c-4.072-0.212-7.942-1.149-11.316-3.6
		c-1.491-1.077-1.836-1.802-1.251-3.477c1.411-4.134,1.281-8.387,1.149-12.659c-0.109-3.495-0.051-6.994-0.051-10.502
		c0-0.3,0.112-0.603,0.203-1.049c4.382,3.258,9.453,3.228,14.482,3.427c4.897,0.204,9.795,0.628,14.703,0.646
		c2.57,0.009,5.142-0.646,7.711-1.019c0.341-0.049,0.675-0.209,1.369-0.422c-0.341,1.269-0.382,2.438-0.936,3.265
		c-1.763,2.66-2.631,5.503-2.511,8.697c0.042,0.978-0.342,1.967-0.523,2.953c-0.183,0.969-0.081,1.854,0.797,2.479
		c0.837,0.596,1.603,0.253,2.358-0.2c0.102-0.063,0.212-0.092,0.625-0.253c-0.505,1.431-0.908,2.66-1.37,3.869
		c-0.536,1.402-0.265,1.935,1.178,2.369c0.302,0.09,0.676,0.442,0.725,0.737C64.586,153.478,64.808,154.987,64.958,156.5
		 M78.575,124.258c-1.129,1.492-2.177,2.874-3.224,4.245c0.352,5.703,1.047,11.618-2.571,16.979c0.179-1.47,0.362-2.931,0.555-4.403
		c-0.161-0.028-0.323-0.048-0.494-0.08c-0.162,1.008-0.354,2.016-0.504,3.034c-0.292,1.936-0.737,3.807-2.401,5.097
		c-0.149,0.123-0.321,0.214-0.45,0.304c0.575-2.518,1.138-5.016,1.703-7.518c-0.172-0.05-0.353-0.09-0.526-0.141
		c-0.159,0.655-0.301,1.32-0.493,1.966c-0.514,1.762-0.977,3.537-1.621,5.252c-0.324,0.846-1.019,1.531-2.239,1.398
		c2.621-2.52,1.128-5.784,2.037-8.577c-0.151-0.039-0.303-0.09-0.443-0.13c-0.142,0.394-0.353,0.775-0.403,1.18
		c-0.183,1.684-0.243,3.367-0.493,5.039c-0.243,1.583-1.422,2.358-2.884,2.702c-0.333,0.081-0.856-0.032-1.067-0.263
		c-0.191-0.222-0.231-0.777-0.09-1.08c1.238-2.689,1.611-5.551,1.561-8.465c-0.019-1.188,0.303-2.107,1.239-2.843
		c0.264-0.2,0.402-0.563,0.444-0.957c-1.1,0.738-2.239,1.421-2.286,2.942c-0.043,1.079-0.053,2.178-0.152,3.257
		c-0.102,1.14-0.887,1.832-1.774,1.652c-1.199-0.232-1.491-0.918-1.301-2.229c0.284-1.903,0.363-3.829,0.586-5.744
		c0.081-0.653,0.24-1.331,0.523-1.924c0.544-1.119,1.26-2.158,1.794-3.276c0.855-1.802,1.239-3.657,0.02-5.581
		C68.779,127.223,73.393,124.914,78.575,124.258 M64.889,125.689v-3.406c6.167,1.29,8.536,1.319,11.481,0.152
		c-0.053,1.138-0.354,1.832-1.695,1.994c-2.813,0.343-5.604,0.896-8.415,1.331C65.848,125.831,65.392,125.72,64.889,125.689
		 M76.63,120.963c-0.069,0.442-0.716,1.019-1.197,1.148c-3.379,0.866-6.755,0.857-10.031-0.483
		c-0.271-0.111-0.554-0.574-0.563-0.878c-0.051-1.603-0.019-3.214-0.019-4.938c4.222,1.915,8.242,1.572,12.395-0.767
		C77.023,117.153,76.922,119.066,76.63,120.963 M77.275,113.585c-0.05,0.394-0.475,0.856-0.858,1.079
		c-3.296,1.945-6.771,2.268-10.389,0.957c-0.888-0.334-1.313-0.865-1.241-1.904c0.111-1.351,0.032-2.721,0.032-4.264
		c4.544,1.107,8.687,0.324,12.88-1.553C77.556,109.928,77.475,111.761,77.275,113.585 M64.859,108.796v-2.992
		c4.383-0.25,8.719-0.896,12.829-2.841c0,1.37,0.029,2.528-0.02,3.688c-0.012,0.253-0.265,0.604-0.507,0.726
		C73.244,109.262,69.171,109.905,64.859,108.796 M79.049,101.318c-3.135,1.947-6.61,2.874-10.219,3.408
		c-1.069,0.162-2.157,0.262-3.236,0.394c-1.553,0.2-2.56-0.293-2.913-1.834c-0.362-1.593-0.545-3.257-0.545-4.89
		c0.01-2.124,0.285-4.242,0.426-6.378c0.03-0.444,0-0.887,0-1.331c-0.172-0.01-0.345-0.019-0.525-0.028
		c-0.051,0.864-0.111,1.74-0.181,2.84c-1.552-1.27-1.885-2.983-2.469-4.646c-0.727,1.4,0.694,4.305,2.418,5.31v11.551
		c0.686,0.041,1.421,0.081,2.309,0.142v19.561c-0.515-0.12-0.958-0.22-1.692-0.394c0.402,0.9,0.725,1.616,1.076,2.392
		c-2.035,0.976-4.151,1.501-6.317,1.46c-3.579-0.05-7.155-0.341-10.724-0.533c-1.563-0.091-3.126-0.192-4.748-0.282
		c-0.111-1.925-0.12-3.801-0.361-5.663c-0.546-4.305-1.19-8.598-1.817-12.893c-0.714-4.938-1.501-9.868-0.866-14.886
		c0.525-4.08,1.846-7.908,3.688-11.539c1.109-2.168,1.23-4.264,0.486-6.512c-0.354-1.057-0.646-2.136-0.988-3.295
		c4.504-0.996,9.152-1.119,12.637-4.495c2.632,4.758,7.368,6.229,12.125,7.6c2.459,0.706,5.02,1.068,7.246,1.533
		c0.787,3.476,1.44,6.903,2.378,10.249c0.503,1.795,1.501,3.446,2.268,5.169c0.665,1.503,1.421,2.974,1.936,4.525
		C80.964,99.465,80.49,100.422,79.049,101.318"/>
	<path fill-rule="evenodd" clip-rule="evenodd" fill="#54B47F" d="M79.049,101.318c-3.135,1.947-6.61,2.874-10.219,3.408
		c-1.069,0.162-2.157,0.262-3.236,0.394c-1.553,0.2-2.56-0.293-2.913-1.834c-0.362-1.593-0.545-3.257-0.545-4.89
		c0.01-2.124,0.285-4.242,0.426-6.378c0.03-0.444,0-0.887,0-1.331c-0.172-0.01-0.345-0.019-0.525-0.028
		c-0.051,0.864-0.111,1.74-0.181,2.84c-1.552-1.27-1.885-2.983-2.469-4.646c-0.727,1.4,0.694,4.305,2.418,5.31v11.551
		c0.686,0.041,1.421,0.081,2.309,0.142v19.561c-0.515-0.12-0.958-0.22-1.692-0.394c0.402,0.9,0.725,1.616,1.076,2.392
		c-2.035,0.976-4.151,1.501-6.317,1.46c-3.579-0.05-7.155-0.341-10.724-0.533c-1.563-0.091-3.126-0.192-4.748-0.282
		c-0.111-1.925-0.12-3.801-0.361-5.663c-0.546-4.305-1.19-8.598-1.817-12.893c-0.714-4.938-1.501-9.868-0.866-14.886
		c0.525-4.08,1.846-7.908,3.688-11.539c1.109-2.168,1.23-4.264,0.486-6.512c-0.354-1.057-0.646-2.136-0.988-3.295
		c4.504-0.996,9.152-1.119,12.637-4.495c2.632,4.758,7.368,6.229,12.125,7.6c2.459,0.706,5.02,1.068,7.246,1.533
		c0.787,3.476,1.44,6.903,2.378,10.249c0.503,1.795,1.501,3.446,2.268,5.169c0.665,1.503,1.421,2.974,1.936,4.525
		C80.964,99.465,80.49,100.422,79.049,101.318"/>
	<path fill-rule="evenodd" clip-rule="evenodd" fill="#FFF2C9" d="M63.377,38.553c-2.783,1.812-5.301,4.029-7.94,6.065
		c-0.343,0.263-0.677,0.525-1.021,0.787c-0.09-0.102-0.169-0.192-0.26-0.294c0.241-0.341,0.492-0.684,0.744-1.036
		c-0.755-0.637-1.479-1.211-2.175-1.825c-3.487-3.126-7.044-6.108-11.53-7.79c-4.627-1.746-9.305-3.045-14.321-2.582
		c-3.135,0.292-3.992,0.878-4.687,3.529c4.062-1.181,6.005,0.503,6.017,4.644c-0.464-0.381-0.859-0.784-1.33-1.068
		c-0.988-0.593-1.966-1.269-3.033-1.622c-1.371-0.454-2.723,0.413-3.105,1.793c-1.773,6.46-2.216,12.982-0.939,19.583
		c1.546,7.962,8.056,14.504,18.194,11.167c3.83-1.26,7.748-2.219,10.763-5.141c0.063-0.06,0.213-0.028,0.665-0.081
		c-0.361,0.474-0.544,0.777-0.785,1.009c-3.326,3.094-7.367,4.646-11.771,5.402c-0.375,0.061-0.706,0.332-1.059,0.503
		c0.353,0.241,0.716,0.686,1.077,0.686c2.842,0.051,5.715,0.211,8.536-0.069c2.762-0.273,5.432-1.119,7.637-2.983
		c0.919-0.787,1.456-1.603,1.021-2.915c-0.242-0.693-0.132-1.51-0.132-2.277c-0.019-1.512-0.009-3.024-0.009-4.534
		c-0.292-0.042-0.695-0.102-1.098-0.15c0-0.134-0.01-0.264-0.01-0.405c0.635-0.079,1.27-0.141,1.893-0.25
		c3.609-0.667,5.897-2.994,7.429-6.139c1.19-2.41,2.197-4.918,3.346-7.348c1.422-3.022,3.115-5.835,6.35-7.297
		c0.241-0.111,0.494-0.222,0.734-0.341C69.161,36.494,66.065,36.807,63.377,38.553 M26.67,44.812
		c-0.482,0.179-0.966,0.299-1.39,0.512c-1.019,0.514-2.347-0.213-2.521-1.431c-0.059-0.424-0.01-0.877-0.01-1.311
		c-0.442-0.15-0.824-0.282-1.327-0.454C23.244,41.332,26.177,43.006,26.67,44.812 M23.256,56.229
		c-0.749,0.796-2.158,0.887-2.804,0.1c-0.856-1.017-0.704-2.186-0.304-3.314c0.364-1.04,0.878-2.017,2.119-2.258
		c0.13-0.03,0.292,0.049,0.704,0.139c-0.432,0.275-0.674,0.426-0.917,0.576c-1.188,0.704-1.874,2.388-1.491,3.657
		c0.241,0.796,1.139,1.361,1.753,1c0.322-0.183,0.584-0.625,0.655-1c0.041-0.2-0.465-0.735-0.563-0.695
		c-0.354,0.132-0.646,0.454-0.958,0.707c-0.109,0-0.223,0.009-0.343,0.019c0.12-0.412,0.152-1.098,0.384-1.167
		c0.494-0.171,1.188-0.203,1.633,0.04C23.91,54.455,23.901,55.543,23.256,56.229 M24.021,53.408
		c1.299-1.603,2.418-3.205,3.939-4.446c0.113,0.102,0.231,0.202,0.355,0.292c-1.071,1.25-2.128,2.501-3.327,3.911
		c0.776,0.181,1.39,0.313,1.996,0.442C25.966,54.182,25.058,53.992,24.021,53.408 M28.074,61.882
		c-0.919-0.109-1.855-1.369-1.675-2.318c0.574,0.564,1.07,1.442,1.675,1.523c0.512,0.069,1.148-0.787,1.792-1.29
		C29.796,61.097,29,62.004,28.074,61.882 M33.696,40.255c1.27-2.268,5.09-3.779,7.57-3.003c1.58,0.493,2.528,1.904,2.398,3.478
		c-1.725-0.446-3.366-1.16-5.031-1.2c-1.621-0.042-3.265,0.603-4.946,0.966C33.666,40.455,33.655,40.336,33.696,40.255
		 M39.611,55.816c-0.13,0.846-0.594,1.48-1.57,1.561c-1.008,0.081-1.815-0.332-2.096-1.249c-0.142-0.435,0.15-1.28,0.514-1.512
		c0.432-0.263,1.167-0.15,1.73-0.009c0.162,0.04,0.152,0.746,0.233,1.228c-0.382-0.061-0.485-0.042-0.523-0.091
		c-0.252-0.273-0.493-0.563-0.736-0.856c-0.211,0.262-0.657,0.583-0.604,0.757c0.132,0.392,0.422,0.876,0.776,1.017
		c0.745,0.303,1.319-0.09,1.603-0.836c0.483-1.311-0.251-3.184-1.503-3.851c-0.221-0.121-0.44-0.25-0.663-0.382
		c0.069-0.141,0.13-0.271,0.19-0.413c0.525,0.271,1.169,0.432,1.552,0.834C39.501,53.063,39.844,54.404,39.611,55.816 M41.808,44.56
		c-0.452,1.964-1.116,2.659-2.66,2.8c-1.168,0.102-1.763-0.361-2.539-1.964c-0.706,0.362-1.4,0.725-2.317,1.209
		c1.137-2.561,8.405-3.647,10.076-1.642C43.401,44.812,42.605,44.689,41.808,44.56 M68.527,39.106
		c-1.562,0.019-2.259,1.067-2.863,2.297c-0.513,1.059-1.12,2.075-1.694,3.115c-0.15-0.072-0.299-0.141-0.44-0.213
		c0.603-1.249,1.209-2.51,1.974-4.081c-3.548,2.429-5.26,5.986-7.811,8.939c1.321,1.181,1.632,2.117,1.15,3.326
		c-0.486,1.199-1.947,2.258-3.397,2.218c0.464-0.322,0.734-0.484,0.978-0.688c0.554-0.45,1.229-0.825,1.612-1.399
		c0.877-1.322,0.201-2.531-1.48-2.691c0.081-0.234,0.091-0.484,0.221-0.646c1.875-2.418,3.719-4.868,5.673-7.214
		c1.503-1.806,3.377-3.105,5.746-3.539c0.161-0.032,0.323-0.032,0.475-0.011c0.07,0.011,0.119,0.102,0.261,0.222
		C68.788,38.884,68.658,39.097,68.527,39.106"/>
	<path fill-rule="evenodd" clip-rule="evenodd" fill="#54B47F" d="M64.958,156.5c-0.15-1.513-0.372-3.023-0.644-4.527
		c-0.051-0.289-0.424-0.646-0.725-0.734c-1.442-0.434-1.714-0.967-1.181-2.366c0.463-1.212,0.866-2.441,1.371-3.872
		c-0.413,0.16-0.523,0.189-0.625,0.254c-0.756,0.452-1.521,0.795-2.358,0.199c-0.878-0.625-0.977-1.511-0.797-2.479
		c0.183-0.986,0.565-1.976,0.523-2.954c-0.12-3.193,0.746-6.037,2.511-8.696c0.556-0.826,0.593-1.996,0.938-3.265
		c-0.696,0.211-1.027,0.373-1.371,0.424c-2.568,0.372-5.139,1.027-7.709,1.019c-4.907-0.022-9.807-0.444-14.705-0.646
		c-5.029-0.201-10.099-0.173-14.482-3.427c-0.093,0.442-0.203,0.746-0.203,1.049c0,3.508-0.061,7.003,0.051,10.501
		c0.132,4.273,0.264,8.527-1.149,12.658c-0.583,1.675-0.242,2.399,1.251,3.477c3.376,2.45,7.246,3.388,11.318,3.599
		c2.548,0.131,3.063-0.413,3.205-2.982c0.01-0.202,0.028-0.414,0.049-0.616c0.093,2.328,1.14,3.871,3.458,4.495
		c6.338,1.725,12.788,1.843,19.278,1.271C64.385,158.748,65.102,157.851,64.958,156.5 M40.177,151.53
		c-0.463-4.272-1.563-8.253-5.433-11.117C38.008,140.394,40.548,145.809,40.177,151.53"/>
	<path fill-rule="evenodd" clip-rule="evenodd" fill="#54B47F" d="M38.422,127.968c-4.041-0.183-7.871-0.676-11.439-2.471
		c-1.218-0.604-1.603-1.631-1.429-2.901c0.24-1.864,0.655-3.721,0.783-5.593c0.323-4.909-0.554-9.676-2.016-14.364
		c-0.613-1.983-1.007-4.05-1.41-6.086c-0.424-2.206-0.301-4.393,0.475-6.269c-1.412-1.491-2.73-2.871-4.043-4.263
		c-0.09,0.069-0.171,0.132-0.262,0.201c0.1,0.213,0.162,0.465,0.313,0.646c0.917,1.057,1.874,2.097,2.793,3.152
		c0.162,0.194,0.333,0.475,0.322,0.708c-0.103,2.175-0.232,4.353-0.364,6.723c-0.412-0.053-1.167-0.021-1.864-0.233
		c-2.146-0.625-4.332-1.199-6.377-2.065c-1.674-0.716-1.906-1.732-1.262-3.355c1.896-4.769,3.77-9.544,5.724-14.291
		c0.182-0.454,0.767-0.958,1.23-1.028c2.662-0.435,5.393-0.516,7.991-1.15c2.591-0.623,5.06-1.773,7.602-2.7
		c0.119,0.465,0.251,0.947,0.381,1.422c0.102-0.012,0.203-0.021,0.303-0.042c0.07-0.362,0.151-0.725,0.231-1.147
		c0.422,0.07,0.837,0.14,1.381,0.241c0.333,1.712,1.049,3.497,0.919,5.21c-0.174,2.279-0.778,4.606-1.603,6.744
		C35.057,89.578,34,94.174,34.15,99.042c0.181,5.745,1.28,11.319,2.71,16.863C37.869,119.794,38.694,123.726,38.422,127.968"/>
	<path fill-rule="evenodd" clip-rule="evenodd" fill="#54B47F" d="M61.18,178.357c-1.391,1.533-1.019,3.366-1.087,5.212
		c-0.132,3.475-0.647,6.946-0.898,10.423c-0.092,1.389-0.815,2.025-2.025,2.217c-2.649,0.422-5.301,0.937-7.982,1.096
		c-3.921,0.243-7.881,0.385-11.811,0.254c-3.721-0.121-7.34-0.917-10.402-3.286c-2.94-2.276-3.991-5.331-3.013-8.877
		c0.716-2.601,3.527-3.77,5.331-2.438c-0.725,0.702-1.623,1.336-2.207,2.187c-0.644,0.935-0.495,2.063-0.051,3.124
		c0.949,2.236,3.719,3.385,6.088,2.378c1.006-0.425,1.996-1.07,2.812-1.822c2.552-2.36,5.493-4.045,8.698-5.323
		c1.542-0.624,2.137-2.722,1.218-4.174c-0.361-0.575-0.725-1.14-0.956-1.51h16.214C61.16,178.21,61.209,178.319,61.18,178.357"/>
	<path fill-rule="evenodd" clip-rule="evenodd" fill="#54B47F" d="M61.119,38.984c-1.955,1.593-3.789,3.096-5.715,4.668
		c-2.268-1.857-4.493-3.758-6.804-5.564c-6.239-4.877-13.402-6.943-21.254-6.873c-0.554,0-1.118,0.13-1.672,0.22
		c-0.544,0.092-1.091,0.194-1.635,0.294c-0.09-0.091-0.181-0.172-0.26-0.262c1.672-2.438,3.203-5.009,5.12-7.246
		c0.663-0.767,2.276-0.887,3.477-0.998c3.114-0.282,6.066,0.544,8.927,1.663c7.156,2.792,13.457,6.862,18.616,12.609
		C60.353,37.967,60.728,38.49,61.119,38.984"/>
	<path fill-rule="evenodd" clip-rule="evenodd" fill="#54B47F" d="M75.352,128.503c0.352,5.703,1.047,11.62-2.571,16.981
		c0.182-1.473,0.362-2.937,0.556-4.405c-0.162-0.029-0.324-0.049-0.495-0.081c-0.163,1.01-0.354,2.016-0.504,3.035
		c-0.292,1.935-0.737,3.809-2.399,5.099c-0.151,0.12-0.322,0.211-0.452,0.303c0.575-2.52,1.138-5.018,1.703-7.52
		c-0.172-0.05-0.354-0.092-0.526-0.141c-0.159,0.655-0.301,1.32-0.493,1.966c-0.513,1.762-0.977,3.537-1.621,5.252
		c-0.324,0.846-1.019,1.531-2.239,1.398c2.621-2.52,1.128-5.784,2.036-8.577c-0.149-0.039-0.302-0.09-0.442-0.127
		c-0.142,0.391-0.353,0.772-0.403,1.177c-0.181,1.684-0.241,3.367-0.493,5.039c-0.241,1.583-1.422,2.357-2.884,2.702
		c-0.333,0.081-0.856-0.032-1.067-0.264c-0.191-0.221-0.231-0.774-0.09-1.078c1.238-2.69,1.611-5.552,1.561-8.466
		c-0.019-1.188,0.303-2.107,1.239-2.843c0.264-0.2,0.402-0.563,0.444-0.957c-1.098,0.738-2.239,1.421-2.286,2.942
		c-0.041,1.079-0.053,2.178-0.152,3.257c-0.102,1.14-0.887,1.832-1.771,1.652c-1.202-0.232-1.494-0.917-1.304-2.229
		c0.284-1.902,0.363-3.826,0.586-5.744c0.081-0.653,0.243-1.329,0.523-1.924c0.544-1.119,1.26-2.158,1.793-3.276
		c0.856-1.802,1.24-3.657,0.021-5.581c5.16,1.128,9.775-1.181,14.956-1.837C77.446,125.75,76.398,127.132,75.352,128.503"/>
	<path fill-rule="evenodd" clip-rule="evenodd" fill="#E14D4D" d="M62.421,29.369c-0.214,2.915-0.354,5.835-0.526,8.758
		c-0.141,0.032-0.292,0.061-0.433,0.092c-0.221-0.232-0.454-0.463-0.676-0.706c-6.288-6.913-13.837-11.832-22.847-14.381
		c-2.612-0.745-5.292-0.919-8.152-0.423c2.105-2.247,4.201-4.506,6.327-6.732c0.162-0.162,0.505-0.213,0.757-0.203
		c9.616,0.384,17.968,3.599,24.521,10.896C62.107,27.465,62.501,28.282,62.421,29.369"/>
	<path fill-rule="evenodd" clip-rule="evenodd" fill="#54B47F" d="M62.158,26.446c-8.387-8.02-11.995-9.645-24.986-11.338
		c0.191-0.252,0.323-0.483,0.505-0.646c2.076-1.844,4.153-3.689,6.247-5.501c0.253-0.222,0.614-0.483,0.918-0.465
		c4.032,0.203,7.994,0.646,11.622,2.661c1.772,0.977,3.053,2.197,3.455,4.305c0.636,3.305,1.451,6.569,2.178,9.854
		C62.158,25.61,62.126,25.935,62.158,26.446"/>
	<path fill-rule="evenodd" clip-rule="evenodd" fill="#54B47F" d="M26.529,194.999c-5.199,2.39-12.273,0.865-15.904-3.358
		c-2.226-2.589-2.599-7.023-0.854-9.966c1.44-2.418,3.698-3.083,6.35-1.813c-0.394,0.142-0.734,0.229-1.059,0.373
		c-1.359,0.573-2.269,1.563-2.449,3.043c-0.181,1.521,0.402,2.76,1.662,3.647c1.292,0.918,2.742,1.141,4.254,0.949
		c0.332-0.04,0.755-0.323,0.927-0.615c1.241-2.095,2.52-3.235,4.84-4.204C22.289,186.593,22.187,191.462,26.529,194.999"/>
	<path fill-rule="evenodd" clip-rule="evenodd" fill="#FFFFFF" d="M38.016,73.293h3.169c0.438,1.53,0.934,3.013,1.274,4.526
		c0.436,1.931,0.049,3.8-0.982,5.448c-2.704,4.323-3.316,9.147-3.588,14.077c-0.311,5.753,0.776,11.361,1.624,17.002
		c0.625,4.203,1.025,8.443,1.52,12.671c0.03,0.268-0.024,0.546-0.044,0.882c-0.329,0.033-0.597,0.083-0.87,0.088
		c-0.272,0.006-0.551-0.026-0.83-0.045c-0.162-2.03-0.148-4.053-0.512-6.007c-0.85-4.574-1.821-9.129-2.848-13.669
		c-1.919-8.486-1.299-16.754,1.906-24.839c0.939-2.367,1.773-4.771,1.094-7.376C38.696,75.158,38.351,74.292,38.016,73.293"/>
	<path fill-rule="evenodd" clip-rule="evenodd" fill="#54B47F" d="M41.579,176.908c-1.13,1.14-0.99,2.441-0.727,3.882
		c0.201,1.157,0.071,2.378,0,3.566c-0.02,0.271-0.364,0.564-0.614,0.755c-1.635,1.16-3.256,2.309-4.921,3.417
		c-1.025,0.674-2.065,1.399-3.193,1.874c-1.583,0.654-3.063,0.052-3.638-1.551c-0.341-0.968-0.465-2.129-0.304-3.146
		c0.223-1.421,1.422-1.984,2.813-1.652c0.282,0.069,0.604,0.012,0.895,0.012V183.7c-2.094-0.905-3.96-2.8-6.66-1.481
		c1.15-1.51,2.309-3.002,3.406-4.544c0.201-0.284,0.201-0.758,0.183-1.14c-0.03-0.33-0.224-0.646-0.424-1.198
		c4.473,1.944,8.818,2.82,13.484,0.836C41.739,176.523,41.718,176.767,41.579,176.908"/>
	<path fill-rule="evenodd" clip-rule="evenodd" fill="#54B47F" d="M22.238,139.466c0-3.205-0.507-6.287-2.552-9.301
		c0.042,0.624-0.061,1.068,0.102,1.362c1.582,2.788,1.682,5.893,2.026,8.957c0.067,0.646,0.503,1.431,1.026,1.792
		c2.248,1.564,2.39,1.797,1.704,4.428c-0.051,0.221-0.132,0.433-0.262,0.844c-3.195-3.012-5.523-6.297-5.836-10.711
		c-0.183-2.684-0.331-5.372-0.585-8.042c-0.091-0.91-0.424-1.653-1.187-2.42c-0.99-0.979-1.433-2.501-2.1-3.791
		c3.357,1.322,6.502,2.592,10.332,1.755c0,0.825-0.009,1.563,0,2.288c0.069,4.294,0.142,8.589,0.19,12.881
		c0.011,0.706,0.535,1.713-0.887,1.754C22.831,141.302,22.248,140.827,22.238,139.466"/>
	<path fill-rule="evenodd" clip-rule="evenodd" fill="#FFFFFF" d="M64.819,109.455c4.54,1.111,8.687,0.326,12.877-1.552
		c-0.141,2.024-0.218,3.858-0.422,5.682c-0.046,0.39-0.475,0.854-0.852,1.075c-3.303,1.953-6.777,2.274-10.393,0.957
		c-0.893-0.326-1.318-0.866-1.237-1.902C64.898,112.361,64.819,110.994,64.819,109.455"/>
	<path fill-rule="evenodd" clip-rule="evenodd" fill="#E14D4D" d="M25.603,117.063c-0.042,0.303-0.394,0.743-0.675,0.824
		c-2.642,0.697-5.261,0.808-7.618-0.834c-0.436-0.304-0.817-1-0.838-1.533c-0.091-2.197-0.04-4.404-0.04-6.51
		c3.043,0.251,5.895,0.484,8.899,0.734C25.816,111.952,25.924,114.502,25.603,117.063"/>
	<path fill-rule="evenodd" clip-rule="evenodd" fill="#E14D4D" d="M59.679,166.78c-0.051,0.483-0.686,1.198-1.169,1.299
		c-3.799,0.836-7.568,0.877-11.167-0.928c-0.968-0.483-1.561-1.138-1.482-2.357c0.069-0.946-0.111-1.916-0.192-2.922
		c4.708,2.256,9.333,1.643,14.061,0.613C59.729,163.848,59.829,165.329,59.679,166.78"/>
	<path fill-rule="evenodd" clip-rule="evenodd" fill="#E14D4D" d="M77.214,115.046c-0.19,2.109-0.291,4.021-0.584,5.917
		c-0.072,0.442-0.716,1.019-1.2,1.148c-3.376,0.866-6.752,0.857-10.028-0.483c-0.271-0.111-0.552-0.574-0.565-0.878
		c-0.047-1.603-0.019-3.214-0.019-4.938C69.041,117.728,73.063,117.383,77.214,115.046"/>
	<path fill-rule="evenodd" clip-rule="evenodd" fill="#FFFFFF" d="M16.532,108.118v-7.134c2.377,0.284,4.659,0.555,7.16,0.854
		c0.42,1.906,0.907,4.04,1.359,6.187c0.215,1.021-0.661,1.053-1.217,1.019c-1.879-0.118-3.747-0.351-5.617-0.568
		C17.631,108.404,17.061,108.233,16.532,108.118"/>
	<path fill-rule="evenodd" clip-rule="evenodd" fill="#E14D4D" d="M41.134,162.598c-0.142,0.645-0.726,1.34-1.311,1.701
		c-2.58,1.603-8.395,0.697-10.463-1.579c-0.271-0.305-0.473-0.747-0.532-1.161c-0.111-0.858-0.123-1.744-0.172-2.649
		c4.122,1.551,8.233,2.023,12.538,0.593C41.195,160.532,41.356,161.608,41.134,162.598"/>
	<path fill-rule="evenodd" clip-rule="evenodd" fill="#E14D4D" d="M77.669,106.651c-0.013,0.253-0.264,0.604-0.507,0.726
		c-3.918,1.885-7.991,2.528-12.303,1.421v-2.994c4.383-0.252,8.719-0.896,12.829-2.841
		C77.688,104.333,77.718,105.493,77.669,106.651"/>
	<path fill-rule="evenodd" clip-rule="evenodd" fill="#E14D4D" d="M58.689,11.834c-4.163-2.902-8.556-3.789-13.463-3.911
		c2.76-2.318,5.512-4.201,8.716-5.502C56.011,5.243,57.49,8.266,58.689,11.834"/>
	<path fill-rule="evenodd" clip-rule="evenodd" fill="#FFFFFF" d="M46,167.163c4.422,2.613,8.998,2.251,13.671,1.403
		c-0.019-0.058,0.02,0.008,0.02,0.076c-0.028,2.788-0.027,2.8-2.756,3.66c-2.374,0.75-4.835,1.205-7.221,0.353
		C46.651,171.56,45.991,171.166,46,167.163"/>
	<path fill-rule="evenodd" clip-rule="evenodd" fill="#E14D4D" d="M41.435,167.989c-0.201,1.813-0.211,3.315-0.611,4.704
		c-0.174,0.587-1.152,1.232-1.827,1.311c-2.781,0.345-5.514,0.121-8.033-1.359c-0.885-0.516-1.319-1.198-1.248-2.257
		c0.039-0.625-0.093-1.27-0.162-2.077c1.763,1.424,3.781,1.886,5.864,1.863C37.515,170.156,39.562,169.763,41.435,167.989"/>
	<path fill-rule="evenodd" clip-rule="evenodd" fill="#FFFFFF" d="M29.043,163.552c3.928,2.395,7.892,3.16,12.063,0.845
		c0.642,2.38,0.037,3.658-2.286,4.514c-2.343,0.865-4.711,0.866-7.054-0.039c-1.593-0.617-2.639-1.624-2.537-3.502
		C29.261,164.789,29.115,164.197,29.043,163.552"/>
	<path fill-rule="evenodd" clip-rule="evenodd" fill="#E14D4D" d="M57.634,175.719c-2.531,1.169-5.183,1.725-7.952,1.16
		c-2.621-0.535-3.237-1.293-3.408-3.901c-0.03-0.432,0-0.877,0-1.521c1.945,1.712,4.145,2.429,6.532,2.157
		c2.248-0.252,4.453-0.815,6.66-1.241C59.778,174.458,59.639,174.781,57.634,175.719"/>
	<path fill-rule="evenodd" clip-rule="evenodd" fill="#FFFFFF" d="M59.758,160.173c0.351,1.104-0.44,1.755-1.491,1.971
		c-3.324,0.679-6.67,1.011-10.027,0.153c-0.075-0.022-0.156-0.039-0.229-0.067c-2.07-0.784-2.439-1.389-2.264-3.563
		C50.39,159.166,55.035,159.665,59.758,160.173"/>
	<path fill-rule="evenodd" clip-rule="evenodd" fill="#FFFFFF" d="M16.515,117.6c4.365,1.617,5.269,1.712,8.879,0.893
		c-0.31,1.693-0.586,3.32-0.931,4.93c-0.041,0.198-0.446,0.394-0.714,0.452c-2.272,0.497-4.344-0.316-6.415-1.071
		c-0.192-0.068-0.383-0.405-0.409-0.637C16.765,120.663,16.651,119.155,16.515,117.6"/>
	<path fill-rule="evenodd" clip-rule="evenodd" fill="#FFFFFF" d="M28.542,155.843c2.788,0.497,5.534,0.99,8.281,1.465
		c0.392,0.069,0.828,0.146,1.194,0.049c1.118-0.301,2.163-0.37,3.143,0.604c-0.271,0.954-1.111,1.384-2.013,1.496
		c-3.045,0.378-6.092,0.452-9.009-0.726C28.419,158.038,28.397,157.916,28.542,155.843"/>
	<path fill-rule="evenodd" clip-rule="evenodd" fill="#FFFFFF" d="M64.888,122.283c6.167,1.284,8.532,1.323,11.48,0.154
		c-0.055,1.139-0.354,1.832-1.689,1.996c-2.816,0.343-5.609,0.895-8.417,1.331c-0.418,0.064-0.864-0.043-1.374-0.073V122.283z"/>
	<path fill-rule="evenodd" clip-rule="evenodd" fill="#FFFFFF" d="M29.989,172.908c3.532,1.866,7.076,2.502,10.819,1.225
		c0.16,1.817,0.164,1.835-1.544,2.227c-2.994,0.682-5.887,0.196-8.711-0.847c-0.247-0.093-0.501-0.479-0.54-0.76
		C29.928,174.182,29.989,173.586,29.989,172.908"/>
	<path fill-rule="evenodd" clip-rule="evenodd" fill="#E14D4D" d="M23.384,100.786c-2.406,0.776-4.544-0.201-6.762-0.686v-2.934
		c1.956,0.343,3.83,0.646,5.694,1.019c0.252,0.053,0.516,0.442,0.627,0.726C23.134,99.475,23.222,100.08,23.384,100.786"/>
	<path fill-rule="evenodd" clip-rule="evenodd" fill="#FFF2C9" d="M15.858,34.942c-0.063,0.111-0.132,0.223-0.203,0.334
		c2.753,1.269,3.124,3.901,3.841,6.359c0.443-1.703,0.886-3.407,1.379-5.292C19.124,35.851,17.489,35.396,15.858,34.942
		 M18.095,36.747c0.13-0.111,0.271-0.229,0.402-0.352c0.494,0.665,0.987,1.331,1.48,1.986c-0.15,0.109-0.29,0.221-0.442,0.332
		C19.063,38.058,18.579,37.404,18.095,36.747"/>
	<path fill-rule="evenodd" clip-rule="evenodd" d="M28.336,40.279c-2.285-2.796-4.521-4.282-7.513-2.719
		c1.611-2.704,3.4-2.837,5.177-2.247C27.474,35.788,28.186,37.521,28.336,40.279"/>
	<path fill-rule="evenodd" clip-rule="evenodd" fill="#FFFFFF" d="M55.193,177.561c1.574-0.727,2.888-1.335,4.272-1.976v1.685
		C58.112,177.362,56.782,177.452,55.193,177.561"/>
	<path fill-rule="evenodd" clip-rule="evenodd" fill="#7E4E24" d="M68.93,38.743c-0.142,0.141-0.272,0.354-0.402,0.364
		c-1.563,0.019-2.259,1.067-2.863,2.297c-0.513,1.059-1.117,2.075-1.694,3.115c-0.15-0.072-0.301-0.141-0.442-0.213
		c0.604-1.249,1.209-2.51,1.976-4.081c-3.548,2.429-5.26,5.986-7.809,8.939c1.317,1.181,1.63,2.117,1.146,3.326
		c-0.482,1.199-1.943,2.258-3.396,2.218c0.464-0.322,0.734-0.484,0.978-0.688c0.554-0.45,1.229-0.825,1.612-1.399
		c0.877-1.322,0.201-2.531-1.48-2.691c0.081-0.234,0.091-0.484,0.221-0.646c1.875-2.418,3.72-4.868,5.673-7.214
		c1.503-1.806,3.378-3.105,5.746-3.539c0.159-0.032,0.321-0.032,0.472-0.011C68.738,38.532,68.788,38.622,68.93,38.743"/>
	<path fill-rule="evenodd" clip-rule="evenodd" fill="#1D1D1B" d="M41.266,37.251c-2.48-0.776-6.301,0.734-7.57,3.003
		c-0.041,0.081-0.03,0.201-0.009,0.243c1.682-0.364,3.325-1.01,4.946-0.968c1.665,0.04,3.307,0.755,5.031,1.2
		C43.794,39.157,42.846,37.745,41.266,37.251 M36.458,38.692c2.235-1.753,5.4-1.35,6.338,0.847
		C40.68,39.248,38.492,38.954,36.458,38.692"/>
	<path fill-rule="evenodd" clip-rule="evenodd" fill="#DBA0C7" d="M23.254,56.229c-0.745,0.796-2.156,0.887-2.802,0.102
		c-0.855-1.019-0.706-2.188-0.304-3.318c0.364-1.038,0.878-2.015,2.119-2.256c0.128-0.03,0.29,0.051,0.706,0.141
		c-0.436,0.271-0.678,0.422-0.919,0.574c-1.19,0.706-1.874,2.39-1.491,3.659c0.242,0.797,1.139,1.362,1.751,0.998
		c0.324-0.181,0.586-0.627,0.659-0.998c0.037-0.201-0.465-0.736-0.565-0.695c-0.354,0.13-0.644,0.454-0.958,0.705
		c-0.111,0-0.223,0.009-0.343,0.021c0.12-0.413,0.15-1.1,0.382-1.171c0.494-0.169,1.19-0.199,1.633,0.042
		C23.908,54.455,23.899,55.543,23.254,56.229"/>
	<path fill-rule="evenodd" clip-rule="evenodd" fill="#DBA0C7" d="M39.611,55.816c-0.128,0.846-0.594,1.48-1.57,1.561
		c-1.01,0.081-1.815-0.332-2.096-1.25c-0.142-0.434,0.15-1.281,0.514-1.511c0.432-0.263,1.169-0.15,1.732-0.011
		c0.162,0.042,0.148,0.748,0.231,1.23c-0.382-0.061-0.485-0.04-0.523-0.089c-0.252-0.275-0.495-0.564-0.736-0.858
		c-0.213,0.262-0.655,0.583-0.604,0.755c0.13,0.394,0.424,0.878,0.776,1.019c0.745,0.303,1.319-0.09,1.603-0.836
		c0.483-1.311-0.253-3.184-1.503-3.849c-0.223-0.123-0.442-0.252-0.665-0.384c0.069-0.141,0.132-0.271,0.192-0.413
		c0.523,0.271,1.169,0.433,1.552,0.836C39.501,53.063,39.842,54.404,39.611,55.816"/>
	<path fill-rule="evenodd" clip-rule="evenodd" fill="#7E4E24" d="M24.989,53.165c0.776,0.181,1.392,0.313,1.996,0.444
		c-1.019,0.575-1.925,0.382-2.964-0.203c1.299-1.603,2.42-3.205,3.941-4.442c0.109,0.1,0.231,0.2,0.352,0.29
		C27.247,50.504,26.188,51.753,24.989,53.165"/>
	<path fill-rule="evenodd" clip-rule="evenodd" fill="#7E4E24" d="M29.866,59.797c-0.069,1.299-0.866,2.207-1.792,2.086
		c-0.919-0.113-1.855-1.371-1.675-2.318c0.574,0.563,1.07,1.44,1.675,1.521C28.585,61.157,29.222,60.3,29.866,59.797"/>
	<path fill-rule="evenodd" clip-rule="evenodd" fill="#7E4E24" d="M40.177,151.53c-0.463-4.272-1.563-8.253-5.433-11.117
		C38.008,140.394,40.548,145.809,40.177,151.53"/>
	<path fill-rule="evenodd" clip-rule="evenodd" fill="#7E4E24" d="M19.98,38.379c-0.15,0.113-0.294,0.222-0.444,0.333
		c-0.475-0.655-0.957-1.311-1.44-1.966c0.13-0.109,0.272-0.231,0.402-0.352C18.992,37.06,19.487,37.724,19.98,38.379"/>
	<path fill-rule="evenodd" clip-rule="evenodd" d="M42.796,39.539c-2.116-0.293-4.303-0.583-6.338-0.847
		C38.696,36.937,41.859,37.344,42.796,39.539"/>
	<path fill-rule="evenodd" clip-rule="evenodd" fill="#FFFFFF" d="M34.359,46.58c0.566-1.768,9.332-3.06,9.916-1.706
		c0.669,1.55-2.564,3.438-4.183,3.659C38.739,48.717,33.792,48.348,34.359,46.58"/>
	<path fill-rule="evenodd" clip-rule="evenodd" fill="#FFFFFF" d="M26.831,45.145c0.032-1.133-4.759-3.663-5.372-3.001
		c-0.701,0.761,0.781,2.504,1.67,2.962C23.871,45.488,26.796,46.281,26.831,45.145"/>
	<path fill-rule="evenodd" clip-rule="evenodd" fill="#1D1D1B" d="M34.29,46.604c0.919-0.484,1.611-0.847,2.317-1.209
		c0.778,1.603,1.373,2.066,2.542,1.964c1.541-0.139,2.205-0.836,2.659-2.8c0.797,0.13,1.593,0.252,2.562,0.403
		C42.697,42.957,35.428,44.043,34.29,46.604 M40.893,45.595c-0.426,0.958-1.271,1.181-2.218,1.081
		c-0.866-0.092-1.23-0.646-1.17-1.714c0.907-0.162,1.763-0.344,2.631-0.465C41.064,44.367,41.195,44.891,40.893,45.595"/>
	<path fill-rule="evenodd" clip-rule="evenodd" fill="#1D1D1B" d="M21.422,42.128c0.503,0.173,0.885,0.303,1.327,0.454
		c0,0.436-0.049,0.887,0.012,1.311c0.171,1.22,1.501,1.945,2.52,1.431c0.424-0.211,0.905-0.333,1.39-0.514
		C26.177,43.006,23.246,41.334,21.422,42.128 M24.262,44.75c-0.917-0.281-1.098-1.028-0.695-2.126
		c0.686,0.483,1.229,0.877,2.138,1.521C25.058,44.437,24.583,44.85,24.262,44.75"/>
	<path fill-rule="evenodd" clip-rule="evenodd" d="M25.705,44.146c-0.646,0.292-1.121,0.706-1.442,0.604
		c-0.917-0.283-1.1-1.026-0.697-2.126C24.252,43.107,24.796,43.5,25.705,44.146"/>
	<path fill-rule="evenodd" clip-rule="evenodd" d="M40.893,45.595c-0.426,0.958-1.271,1.181-2.218,1.081
		c-0.866-0.092-1.23-0.646-1.17-1.714c0.907-0.162,1.763-0.344,2.631-0.465C41.064,44.367,41.195,44.891,40.893,45.595"/>
	<path fill-rule="evenodd" clip-rule="evenodd" fill="#FFFFFF" d="M38.818,45.518c0,0.397-0.322,0.721-0.721,0.721
		c-0.397,0-0.722-0.324-0.722-0.721s0.324-0.721,0.722-0.721C38.496,44.797,38.818,45.121,38.818,45.518"/>
	<path fill-rule="evenodd" clip-rule="evenodd" fill="#FFFFFF" d="M24.541,43.42c0,0.395-0.322,0.721-0.721,0.721
		c-0.397,0-0.722-0.326-0.722-0.721c0-0.397,0.324-0.721,0.722-0.721C24.218,42.699,24.541,43.023,24.541,43.42"/>
</g>
</svg>
