<?xml version="1.0" encoding="utf-8"?>
<!-- Generator: Adobe Illustrator 16.0.3, SVG Export Plug-In . SVG Version: 6.00 Build 0)  -->
<!DOCTYPE svg PUBLIC "-//W3C//DTD SVG 1.1//EN" "http://www.w3.org/Graphics/SVG/1.1/DTD/svg11.dtd">
<svg version="1.1" id="Calque_1" xmlns="http://www.w3.org/2000/svg" xmlns:xlink="http://www.w3.org/1999/xlink" x="0px" y="0px"
	 width="200px" height="200px" viewBox="0 0 200 200" enable-background="new 0 0 200 200" xml:space="preserve">
<g>
	<path fill-rule="evenodd" clip-rule="evenodd" fill="#1D1D1B" d="M77.658,98.891c-4.953,0.043-9.508,1.293-13.367,5.719
		l24.285,0.723C87.381,101.406,83.08,98.855,77.658,98.891 M68.42,103.203c3.98-3.609,14.387-3.871,17.309,0.52L68.42,103.203z"/>
	<path fill-rule="evenodd" clip-rule="evenodd" fill="#7E4E24" d="M119.4,183.426c0.641-4.023,1.242-8.063,2.031-12.078
		c0.172-0.879,0.941-1.816,1.695-2.363c7.086-5.246,12.852-11.691,17.352-19.23c1.086-1.805,2.152-2.586,4.426-2.59
		c7.961,0,13.895-3.508,17.152-10.988c0.977-2.266,1.906-4.574,2.691-6.918c2.527-7.645,6.668-14.313,12.266-20.066
		c2.465-2.531,4.93-5.07,7.371-7.625c0.52-0.563,0.969-1.211,1.957-2.449c-11.746,0.441-22.031,3.004-31.484,9.148
		c-0.418-2.641-0.691-4.824-1.082-6.965c-5.738-31.238-19.844-58.398-40.473-82.344c-3.648-4.246-7.613-8.234-11.434-12.34
		l-1.723-0.051C89.58,15.57,80.314,25.785,72.135,37.043C58.334,56.016,47.26,76.309,42.123,99.457
		c-0.469,2.117-0.891,4.23-1.367,6.508c-8.453-4.93-17.348-7.996-27.063-8.477l-0.035,1.148c0.648,0.684,1.297,1.402,1.945,2.086
		c8.773,9.492,15.879,19.852,18.813,32.805c2.07,9.094,8.461,13.66,17.688,14.461c0.836,0.07,2.031,0.773,2.297,1.477
		c3.719,9.242,10.105,16.055,18.613,21.039c0.707,0.422,1.414,1.383,1.488,2.141c0.422,3.605,0.625,7.188,0.953,11.359
		 M101.283,8.488c4.59,4.727,9.301,9.574,14.012,14.402c-0.156,0.254-0.332,0.512-0.48,0.77c-9.277-2.383-18.641-2.438-28.883-1.262
		C91.338,17.488,96.197,13.098,101.283,8.488 M77.869,31.598c4.488-7.086,10.93-9.047,18.629-8.484
		c5.391,0.402,10.805,0.852,16.152,1.703c3.234,0.5,5.906,2.375,7.801,5.301c4.324,6.602,8.813,13.098,12.961,19.863
		c-22.574-12.383-44.984-11.93-68.133-0.883C69.514,43.297,74.033,37.645,77.869,31.598 M62.592,54.129
		c0.309-0.535,0.938-0.926,1.477-1.316c19.168-13.789,50.836-13.73,69.781,0.172c1.168,0.844,2.305,2.074,2.883,3.379
		c3.973,8.82,7.797,17.703,11.641,26.566c-0.293,0.184-0.586,0.363-0.898,0.547c-2.242-1.91-4.527-3.789-6.691-5.77
		c-8.75-7.883-19.234-11.324-30.723-12.316c-5.508-0.473-11.008-1.23-16.504-1.211c-14.438,0.078-27.352,5.184-39.453,12.668
		c-1.148,0.68-2.293,1.391-3.41,2.074c-0.281-0.199-0.535-0.395-0.82-0.602C54.107,70.254,58.338,62.184,62.592,54.129
		 M54.744,146.73c-0.773-2.227-1.996-4.293-3.012-6.43c-0.34,0.156-0.68,0.313-1.039,0.469c0.684,1.77,1.352,3.531,2.105,5.52
		c-6.566-0.207-11.355-3.066-14.395-8.555c-1.68-3.063-3.23-6.34-4.086-9.707c-2.613-10.332-8.262-18.746-15.59-26.23
		c-0.605-0.613-1.137-1.301-1.684-1.938c-0.051-0.055-0.023-0.191-0.004-0.719c13.234,2.566,25.578,6.188,32.523,19.348
		c0.926-2.121-0.617-5.063-3.766-7.641c-0.578-0.711-1.105-1.445-1.73-2.109c-0.645-0.688-1.395-1.258-2.352-2.098
		c2.055-7.277,4.02-14.605,6.316-21.848c0.523-1.656,1.914-3.336,3.355-4.324c10.832-7.398,22.578-12.566,35.703-14.352
		c11.879-1.629,23.285,0.625,34.801,3.191c11.086,2.477,18.754,9.734,26.445,17.203c0.484,0.496,0.844,1.273,0.992,1.988
		c1.363,6.422,2.773,12.824,3.895,19.289c0.203,1.195-0.816,2.578-1.441,4.379c-11.156-13.145-24.914-19.77-40.898-22.422
		c-20.211-3.352-39.133-0.566-56.145,11.449c-2.711,1.902-5.031,4.391-7.371,6.734c-0.766,0.742-1.059,1.934-1.57,2.918
		c0.656-0.359,1.402-0.602,1.945-1.109c10.551-9.844,22.621-17.137,37.082-18.898c21.637-2.656,42.074,0.391,59.191,15.504
		c1.141,1.012,2.211,2.094,3.301,3.176c1.02,0.988,2.043,2.023,2.969,2.961c-0.914,1.836-1.75,3.48-2.59,5.133
		c0.254,0.219,0.512,0.445,0.797,0.645c7.719-12.848,20.426-15.719,33.965-17.035c-1.797,1.789-3.598,3.602-5.414,5.383
		c-5.711,5.523-10.063,11.867-12.816,19.387c-1.559,4.254-3.578,8.449-6.004,12.27c-3.387,5.281-8.57,7.609-15.066,7.344
		c0.652-1.723,1.242-3.262,1.844-4.797c-0.258-0.156-0.496-0.277-0.754-0.43c-0.551,0.82-1.195,1.594-1.629,2.488
		c-5.566,11.184-13.16,20.637-24.285,26.664c-12.246,6.617-25.137,9.316-38.355,3.137C68.424,167.254,59.104,159.355,54.744,146.73
		 M101.682,189.324c-5.684-0.145-11.402-0.602-17.051-1.383c-6.113-0.883-7.883-3.273-8.012-9.305
		c-0.035-1.984-0.285-3.949-0.461-6.25c14.898,6.922,29.332,7.109,43.512-1.098c-0.41,3.219-0.977,6.211-1.137,9.242
		c-0.125,2.457-1.168,3.98-3.215,5.234C111.104,188.32,106.482,189.473,101.682,189.324"/>
	<path fill-rule="evenodd" clip-rule="evenodd" fill="#FFF2C9" d="M148.49,118.254c-0.277-0.195-0.535-0.422-0.793-0.648
		c0.84-1.641,1.68-3.289,2.59-5.125c-0.926-0.938-1.945-1.973-2.969-2.961c-1.094-1.082-2.156-2.164-3.301-3.18
		C126.9,91.23,106.459,88.18,84.826,90.836c-14.465,1.77-26.535,9.059-37.078,18.902c-0.547,0.508-1.293,0.75-1.953,1.109
		c3.152,2.578,4.691,5.52,3.766,7.641c-6.945-13.156-19.289-16.781-32.523-19.348c-0.016,0.527-0.039,0.668,0.004,0.723
		c0.555,0.633,1.086,1.32,1.684,1.934c7.332,7.48,12.988,15.898,15.594,26.23c0.852,3.367,2.41,6.641,4.082,9.703
		c3.039,5.492,7.832,8.359,14.395,8.555c-0.75-1.977-1.414-3.746-2.105-5.516c0.367-0.156,0.707-0.313,1.043-0.469
		c1.016,2.133,2.246,4.203,3.016,6.422c4.355,12.633,13.676,20.531,25.227,25.949c13.227,6.176,26.117,3.473,38.355-3.141
		c11.125-6.027,18.723-15.48,24.293-26.668c0.43-0.891,1.074-1.664,1.621-2.484c0.262,0.156,0.496,0.281,0.758,0.43
		c-0.594,1.535-1.195,3.07-1.84,4.801c6.488,0.262,11.676-2.07,15.059-7.348c2.43-3.824,4.445-8.016,6.008-12.273
		c2.758-7.512,7.102-13.863,12.813-19.387c1.82-1.781,3.621-3.594,5.414-5.375C168.916,102.539,156.213,105.414,148.49,118.254
		 M42.865,132.227c-1.043-2.52-0.234-4.121,3.117-5.91c-2.973-6.137-7.34-11.066-12.59-15.379c1.535,3.844,3.844,7.379,3.766,11.625
		c-0.266,0.113-0.508,0.199-0.777,0.289c-0.266-0.676-0.527-1.352-0.844-2.031c-1.5-3.363-2.711-6.914-4.652-10.059
		c-1.25-2.07-3.523-3.523-5.363-5.242c-0.418-0.402-0.809-0.793-1.23-1.188c0.227-0.242,0.469-0.492,0.691-0.719
		c10.746,5.098,18.27,13.367,23.242,23.602c-1.582,1.129-3.949,1.945-4.055,2.992c-0.418,3.738,3.5,3.594,5.973,5.027
		C46.932,136.238,44.006,134.883,42.865,132.227 M75.4,144.809c-2.227,3.445-6.988,4.5-10.297,2.25
		c-3.461-2.352-4.504-7.617-2.156-10.898c2.418-3.41,7.523-4.648,11.117-1.902c-1.855-0.063-2.977-0.168-4.129-0.129
		c-3.203,0.094-6.391,2.75-6.984,5.793c-0.426,2.305,1.379,5.105,3.996,6.332c2.688,1.25,4.914,0.309,6.668-1.645
		c0.672-0.742,1.137-2.715,0.715-3.152c-0.852-0.891-2.375-1.246-3.684-1.496c-0.191-0.012-0.719,1.742-1.105,2.668
		c-0.074,0.164-0.25,0.277-0.469,0.555c-1.988-0.68-1.977-1.918-0.953-3.418c1.227-1.809,4.152-2.098,6.191-0.723
		C76.322,140.414,76.756,142.719,75.4,144.809 M82.291,120.566c-1.887,3.145-4.582,4.617-8.258,3.742
		c-3.984-0.977-4.879-4.137-4.984-7.773l-4.438-0.129c4.266-3.531,19.828,0.23,20.895,6.902
		C84.111,122.098,83.295,121.406,82.291,120.566 M64.291,104.609c3.859-4.426,8.414-5.676,13.367-5.715
		c5.422-0.027,9.723,2.512,10.918,6.438L64.291,104.609z M101.018,157.973c-2.531,1.43-5.176,1.23-7.441-0.629
		c-1.773-1.434-2.77-3.355-2.02-5.938c1.57,2.602,2.156,6.211,6.227,5.922c3.715-0.246,5.063-3.031,6.156-6.145
		C104.775,154.359,103.518,156.563,101.018,157.973 M97.393,143.145c-2.445-2.148-4.75-4.156-7.055-6.18
		c0.27-0.328,0.543-0.66,0.813-0.961c2.055,1.641,4.137,3.273,6.281,5.016c2.227-1.586,4.395-3.117,6.57-4.664
		c0.254,0.324,0.504,0.664,0.734,0.984C102.361,139.23,99.963,141.121,97.393,143.145 M129.682,144.777
		c-0.949,2.934-3.137,4.852-6.27,5.094c-3.09,0.266-5.555-1.199-7.176-3.844c-1.281-2.047-0.758-4.23,1.145-5.508
		c2.047-1.379,4.934-1.102,6.215,0.652c1.063,1.445,1.07,2.738-1.238,4.008c0.215-2.504,0.129-4.371-2.66-3.852
		c-2.477,0.418-3.27,2.363-1.852,4.434c1.695,2.441,5.039,3.301,7.637,1.949c2.5-1.316,3.793-4.621,2.848-7.348
		c-1.059-2.953-3.539-4.719-6.766-4.797c-0.883,0-1.77-0.031-2.934-0.059c2.406-2.223,6.383-1.629,9.285,1.066
		C130.432,138.895,130.631,141.816,129.682,144.777 M129.674,117.676c-0.336,3.355-1.07,6.348-4.707,7.195
		c-3.773,0.891-6.555-0.484-8.574-4.055c-0.98,0.707-1.906,1.398-3.059,2.219c0.453-5.57,14.57-9.383,21.484-5.52
		C132.666,117.598,131.303,117.629,129.674,117.676 M110.451,105.129c2.805-4.313,6.43-5.664,10.711-5.656
		c5.375-0.008,10.109,1.609,14.098,6.391L110.451,105.129z M161.08,123.242c-0.898-2.746-0.898-2.746,3.738-12.266
		c-5.84,4.246-10.07,9.043-13.438,14.66c3.184,2.148,3.934,4.129,2.527,6.523c-1.438,2.445-4.5,3.523-7.285,2.293
		c2.504-1.406,6.902-0.727,6.105-5.098c-0.188-1.059-2.242-1.793-3.691-2.836c5.621-9.824,13.48-17.766,25.047-21.648
		C166.42,108.438,163.912,115.754,161.08,123.242"/>
	<path fill-rule="evenodd" clip-rule="evenodd" fill="#54B47F" d="M153.225,107.785c0.207,1.199-0.82,2.582-1.445,4.383
		c-11.148-13.145-24.91-19.766-40.895-22.422C90.67,86.395,71.752,89.18,54.74,101.195c-2.711,1.906-5.031,4.391-7.371,6.734
		c-0.766,0.746-1.066,1.934-1.57,2.918c-0.574-0.707-1.102-1.445-1.727-2.109c-0.652-0.688-1.398-1.258-2.352-2.098
		c2.055-7.281,4.02-14.605,6.313-21.852c0.527-1.652,1.914-3.332,3.355-4.32c10.832-7.398,22.578-12.566,35.707-14.348
		c11.875-1.629,23.277,0.617,34.793,3.188c11.09,2.477,18.762,9.734,26.453,17.203c0.48,0.496,0.844,1.273,0.988,1.988
		C150.689,94.926,152.104,101.328,153.225,107.785"/>
	<path fill-rule="evenodd" clip-rule="evenodd" fill="#E14D4D" d="M148.373,82.93c-0.293,0.18-0.586,0.367-0.898,0.547
		c-2.242-1.902-4.527-3.789-6.691-5.77c-8.75-7.883-19.234-11.328-30.723-12.316c-5.508-0.469-11.008-1.234-16.504-1.207
		c-14.438,0.074-27.352,5.18-39.453,12.668c-1.148,0.676-2.293,1.379-3.41,2.07c-0.281-0.199-0.535-0.402-0.816-0.602
		c4.23-8.066,8.461-16.145,12.715-24.184c0.309-0.543,0.938-0.934,1.477-1.324c19.168-13.789,50.836-13.73,69.781,0.168
		c1.168,0.848,2.305,2.078,2.891,3.387C140.705,65.184,144.529,74.063,148.373,82.93"/>
	<path fill-rule="evenodd" clip-rule="evenodd" fill="#54B47F" d="M133.412,49.98c-22.574-12.383-44.984-11.934-68.133-0.883
		c4.234-5.801,8.754-11.445,12.59-17.5c4.488-7.086,10.926-9.039,18.629-8.484c5.391,0.402,10.801,0.852,16.156,1.703
		c3.234,0.508,5.902,2.371,7.801,5.301C124.775,36.719,129.264,43.215,133.412,49.98"/>
	<path fill-rule="evenodd" clip-rule="evenodd" fill="#FFF2C9" d="M119.666,171.293c-0.406,3.215-0.973,6.207-1.137,9.238
		c-0.117,2.457-1.688,6.281-2.891,11.191c-5.367-3.375-10.734-4.977-13.496,1.711c-4.746-3.133-13.496-8.336-20.633-0.738
		c-4.445-6.176-4.758-8.027-4.887-14.059c-0.039-1.984-0.293-3.949-0.461-6.25C91.057,179.309,105.486,179.496,119.666,171.293"/>
	<path fill-rule="evenodd" clip-rule="evenodd" fill="#E14D4D" d="M115.291,22.891c-0.152,0.254-0.324,0.512-0.477,0.77
		c-9.273-2.383-18.645-2.438-28.883-1.266c5.406-4.906,10.27-9.297,15.355-13.906C105.877,13.215,110.58,18.063,115.291,22.891"/>
	<path fill-rule="evenodd" clip-rule="evenodd" fill="#7E4E24" d="M50.139,135.234c-3.211,1.004-6.129-0.352-7.27-3.012
		c-1.051-2.516-0.234-4.117,3.117-5.906c-2.977-6.137-7.344-11.07-12.594-15.391c1.531,3.855,3.844,7.391,3.766,11.641
		c-0.27,0.109-0.508,0.195-0.773,0.285c-0.266-0.676-0.535-1.348-0.852-2.031c-1.5-3.371-2.703-6.914-4.645-10.059
		c-1.254-2.066-3.531-3.52-5.363-5.254c-0.422-0.391-0.816-0.781-1.234-1.176c0.223-0.234,0.469-0.492,0.691-0.719
		c10.746,5.094,18.27,13.367,23.246,23.609c-1.59,1.121-3.953,1.934-4.059,2.984C43.752,133.945,47.674,133.801,50.139,135.234"/>
	<path fill-rule="evenodd" clip-rule="evenodd" fill="#7E4E24" d="M174.08,104.871c-7.66,3.566-10.172,10.883-13,18.371
		c-0.895-2.754-0.895-2.754,3.734-12.266c-5.836,4.242-10.063,9.043-13.434,14.66c3.184,2.148,3.941,4.129,2.527,6.523
		c-1.434,2.445-4.504,3.523-7.281,2.293c2.5-1.406,6.902-0.727,6.098-5.102c-0.18-1.055-2.238-1.785-3.688-2.828
		C154.658,116.695,162.514,108.754,174.08,104.871"/>
	<path fill-rule="evenodd" clip-rule="evenodd" d="M85.732,103.723l-17.309-0.52C72.396,99.594,82.803,99.332,85.732,103.723"/>
	<path fill-rule="evenodd" clip-rule="evenodd" fill="#7E4E24" d="M101.014,157.973c-2.527,1.43-5.172,1.23-7.434-0.629
		c-1.773-1.434-2.773-3.355-2.023-5.938c1.57,2.602,2.156,6.211,6.227,5.922c3.711-0.246,5.063-3.031,6.156-6.145
		C104.779,154.359,103.518,156.563,101.014,157.973"/>
	<path fill-rule="evenodd" clip-rule="evenodd" fill="#DCA0C7" d="M129.682,144.777c-0.945,2.934-3.133,4.852-6.27,5.094
		c-3.09,0.266-5.555-1.199-7.176-3.844c-1.273-2.047-0.758-4.23,1.145-5.508c2.047-1.379,4.93-1.105,6.223,0.652
		c1.055,1.445,1.063,2.738-1.246,4.004c0.219-2.5,0.129-4.367-2.656-3.848c-2.473,0.418-3.273,2.359-1.855,4.434
		c1.695,2.441,5.039,3.301,7.637,1.949c2.504-1.309,3.793-4.621,2.848-7.348c-1.059-2.953-3.539-4.723-6.766-4.793
		c-0.883,0-1.766-0.035-2.934-0.063c2.406-2.223,6.379-1.629,9.285,1.066C130.432,138.895,130.631,141.816,129.682,144.777"/>
	<path fill-rule="evenodd" clip-rule="evenodd" fill="#DCA0C7" d="M75.404,144.805c-2.23,3.449-6.996,4.504-10.297,2.254
		c-3.469-2.352-4.504-7.617-2.164-10.891c2.422-3.418,7.527-4.648,11.125-1.914c-1.859-0.055-2.984-0.164-4.129-0.125
		c-3.207,0.102-6.391,2.746-6.984,5.789c-0.426,2.309,1.379,5.109,3.992,6.332c2.688,1.25,4.914,0.316,6.672-1.637
		c0.664-0.746,1.129-2.719,0.715-3.156c-0.859-0.891-2.379-1.242-3.684-1.496c-0.191-0.012-0.719,1.742-1.105,2.668
		c-0.082,0.164-0.25,0.281-0.477,0.555c-1.984-0.684-1.977-1.922-0.949-3.418c1.227-1.809,4.148-2.098,6.191-0.727
		C76.322,140.41,76.752,142.723,75.404,144.805"/>
	<path fill-rule="evenodd" clip-rule="evenodd" fill="#7E4E24" d="M104.736,137.34c-2.375,1.891-4.773,3.773-7.344,5.805
		c-2.445-2.152-4.75-4.16-7.055-6.18c0.27-0.336,0.543-0.656,0.813-0.961c2.055,1.637,4.137,3.273,6.281,5.016
		c2.227-1.586,4.395-3.117,6.57-4.664C104.256,136.68,104.506,137.02,104.736,137.34"/>
	<path fill-rule="evenodd" clip-rule="evenodd" fill="#1D1D1B" d="M121.158,99.469c-4.277-0.004-7.902,1.34-10.707,5.66
		l24.809,0.734C131.271,101.09,126.537,99.465,121.158,99.469 M113.932,103.844c3.227-4.016,11.23-3.945,17.625,0.52
		L113.932,103.844z"/>
	<path fill-rule="evenodd" clip-rule="evenodd" fill="#1D1D1B" d="M131.557,104.363l-17.629-0.52
		C117.158,99.828,125.166,99.898,131.557,104.363"/>
	<path fill-rule="evenodd" clip-rule="evenodd" fill="#FFFFFF" d="M64.541,116.262c1.301-1.281,14.828-3.07,20.902,6.902
		C79.213,127.48,67.604,126.887,64.541,116.262"/>
	<path fill-rule="evenodd" clip-rule="evenodd" fill="#FFFFFF" d="M134.588,117.445c-1.203-1.371-14.551-4.168-21.359,5.316
		C119.111,127.539,130.744,127.813,134.588,117.445"/>
	<path fill-rule="evenodd" clip-rule="evenodd" fill="#1D1D1B" d="M113.334,123.043c1.145-0.828,2.078-1.52,3.059-2.223
		c2.02,3.566,4.801,4.941,8.574,4.051c3.637-0.848,4.371-3.836,4.707-7.199c1.629-0.043,2.992-0.078,5.145-0.152
		C127.904,113.652,113.787,117.461,113.334,123.043 M123.357,123.629c-2.563,0.109-4.586-0.883-5.586-4.328
		c3.422-0.758,6.691-1.5,10.445-2.344C127.494,121.934,126.303,123.496,123.357,123.629"/>
	<path fill-rule="evenodd" clip-rule="evenodd" fill="#1D1D1B" d="M64.611,116.406l4.438,0.129c0.113,3.637,0.996,6.797,4.98,7.777
		c3.68,0.867,6.375-0.602,8.262-3.746c1.004,0.84,1.82,1.531,3.219,2.742C84.439,116.637,68.877,112.875,64.611,116.406
		 M74.697,122.871c-2.719-0.371-3.855-2.117-4.027-6.836c3.574,1.016,6.801,1.922,10.047,2.832
		C79.564,122.301,77.912,123.277,74.697,122.871"/>
	<path fill-rule="evenodd" clip-rule="evenodd" fill="#1D1D1B" d="M128.217,116.957c-0.723,4.977-1.918,6.539-4.863,6.676
		c-2.559,0.113-4.582-0.883-5.578-4.324C121.189,118.543,124.463,117.801,128.217,116.957"/>
	<path fill-rule="evenodd" clip-rule="evenodd" fill="#1D1D1B" d="M80.717,118.867c-1.156,3.426-2.805,4.41-6.02,4.004
		c-2.719-0.371-3.863-2.125-4.031-6.836C74.244,117.047,77.471,117.957,80.717,118.867"/>
	<path fill-rule="evenodd" clip-rule="evenodd" fill="#FFFFFF" d="M74.904,118.809c-0.031,0.941-0.816,1.684-1.762,1.66
		c-0.941-0.027-1.684-0.82-1.656-1.762c0.031-0.945,0.816-1.688,1.758-1.66C74.189,117.082,74.932,117.867,74.904,118.809"/>
	<path fill-rule="evenodd" clip-rule="evenodd" fill="#FFFFFF" d="M121.533,120.484c-0.031,0.941-0.816,1.684-1.762,1.652
		c-0.941-0.023-1.684-0.813-1.652-1.758c0.027-0.941,0.813-1.68,1.758-1.656C120.814,118.754,121.564,119.543,121.533,120.484"/>
</g>
</svg>
