<?xml version="1.0" encoding="utf-8"?>
<!-- Generator: Adobe Illustrator 16.0.3, SVG Export Plug-In . SVG Version: 6.00 Build 0)  -->
<!DOCTYPE svg PUBLIC "-//W3C//DTD SVG 1.1//EN" "http://www.w3.org/Graphics/SVG/1.1/DTD/svg11.dtd">
<svg version="1.1" id="Calque_1" xmlns="http://www.w3.org/2000/svg" xmlns:xlink="http://www.w3.org/1999/xlink" x="0px" y="0px"
	 width="200px" height="200px" viewBox="0 0 200 200" enable-background="new 0 0 200 200" xml:space="preserve">
<g>
	<path fill-rule="evenodd" clip-rule="evenodd" fill="#7E4E24" d="M145.145,55.724c3.316,1.064,5.287,3.555,5.486,7.06
		c0.175,2.73-0.708,5.163-3.585,6.599c1.018-3.498,3.714-6.934,0.158-10.289c-3.233-3.067-6.779-2-10.417-0.428
		C138.905,55.347,141.871,54.666,145.145,55.724"/>
	<g>
		<path fill-rule="evenodd" clip-rule="evenodd" fill="#7E4E24" d="M152.625,18.867c-4.059,2.695-8.105,5.456-12.289,8.021
			c-0.912,0.561-2.35,0.646-3.455,0.424c-10.363-1.982-20.723-1.818-31.015,0.337c-2.475,0.514-4.029,0.201-5.878-1.793
			c-6.462-7.007-14.37-9.39-23.599-6.186c-2.791,0.978-5.58,2.042-8.281,3.252c-8.784,3.989-18.013,5.748-27.629,5.498
			c-4.234-0.115-8.463-0.229-12.697-0.307c-0.913,0-1.854,0.134-3.749,0.266c9.924,9.989,20.529,16.961,33.624,20.294
			c-1.982,2.523-3.691,4.531-5.252,6.612c-22.851,30.418-35.32,64.895-39.648,102.501c-0.771,6.662-1.064,13.387-1.573,20.089
			l1.346,1.556c16.51,1.989,33.032,1.854,49.584-0.081c27.915-3.252,54.771-9.978,79.329-24.255c2.241-1.302,4.44-2.647,6.837-4.082
			c2.521,11.458,7.042,21.774,14.51,30.717l1.035-0.907c0.082-1.134,0.182-2.276,0.258-3.404
			c1.233-15.435,4.596-30.101,13.614-43.197c6.323-9.217,5.158-18.545-1.631-27.32c-0.613-0.794-0.964-2.415-0.561-3.221
			c5.123-10.78,5.924-21.938,3.409-33.472c-0.198-0.971,0.064-2.372,0.679-3.053c2.831-3.296,5.825-6.393,9.224-10.063
			 M13.301,176.872c0.433-7.885,0.883-15.968,1.304-24.027c0.351-0.074,0.72-0.129,1.07-0.21
			c5.435,10.101,12.985,18.4,22.335,26.458C29.304,178.315,21.483,177.607,13.301,176.872 M52.661,178.725
			c-9.883,1.801-16.837-2.287-22.598-9.515c-4.024-5.077-8.024-10.207-11.615-15.61c-2.188-3.257-2.708-7.128-1.668-11.166
			c2.305-9.17,4.375-18.399,6.966-27.546c7.429,29.933,26.02,49.292,54.55,60.707C69.746,176.578,61.107,177.186,52.661,178.725
			 M84.906,173.876c-0.719,0.169-1.574-0.071-2.354-0.222c-27.709-5.684-53.373-33.618-56.519-61.585
			c-0.205-1.72-0.04-3.713,0.637-5.287c4.545-10.655,9.264-21.239,13.937-31.822c0.404,0.108,0.801,0.222,1.217,0.349
			c0.14,3.52,0.34,7.057,0.35,10.577c0.163,14.104,5.644,26.136,14.107,37.049c4.046,5.235,7.848,10.697,12.334,15.512
			c11.785,12.655,26.775,19.878,43.185,24.458c1.532,0.457,3.083,0.889,4.591,1.321c0.052,0.41,0.094,0.796,0.141,1.206
			C105.994,168.262,95.45,171.087,84.906,173.876 M172.808,105.601c-1.326,2.486-2.146,5.247-3.21,7.872
			c0.415,0.164,0.83,0.339,1.263,0.527c0.995-2.036,2.006-4.053,3.142-6.329c5.163,5.941,6.526,12.488,4.164,19.628
			c-1.341,3.954-2.96,7.982-5.234,11.474c-6.979,10.679-9.804,22.493-10.436,35.028c-0.052,1.029-0.227,2.052-0.333,3.057
			c-0.006,0.083-0.158,0.169-0.638,0.586c-8.481-13.744-15.316-27.549-9.374-44.35c-2.616,0.907-3.95,4.649-3.668,9.516
			c-0.159,1.088-0.375,2.141-0.452,3.234c-0.074,1.127,0.024,2.25,0.06,3.772c-8.078,4.106-16.119,8.316-24.365,12.182
			c-1.89,0.884-4.492,1.023-6.534,0.556c-15.305-3.533-29.395-9.674-41.625-19.785c-11.083-9.129-18.356-21.001-25.446-33.228
			c-6.826-11.78-6.662-24.422-6.328-37.263c0.034-0.826,0.427-1.774,0.947-2.486c4.543-6.414,9.035-12.857,13.814-19.091
			c0.893-1.149,2.937-1.372,5.029-2.283c-2.521,20.494,2.824,37.987,13.469,54.211c13.457,20.529,31.272,34.917,55.672,40.144
			c3.872,0.843,7.948,0.867,11.914,1.026c1.269,0.063,2.561-0.638,3.842-0.989c-0.854-0.281-1.673-0.749-2.555-0.808
			c-17.236-1.298-33.455-6.005-46.76-17.311C79.267,107.6,65.354,87.129,64.763,59.784c-0.035-1.826,0.058-3.648,0.123-5.487
			c0.042-1.705,0.116-3.44,0.193-5.019c2.357-0.687,4.491-1.286,6.62-1.886c-0.01-0.406-0.022-0.816-0.076-1.222
			c-17.581,3.628-30.424-5.222-42.578-16.081c3.031,0.131,6.089,0.247,9.135,0.404c9.498,0.544,18.617-0.78,27.478-4.457
			c5.012-2.085,10.34-3.72,15.685-4.679c7.387-1.304,13.651,1.367,18.694,7.296c-2.048,0.834-3.886,1.556-5.721,2.275
			c0.074,0.355,0.157,0.665,0.234,1.013c1.169-0.179,2.369-0.24,3.513-0.588c14.365-4.179,28.858-5.167,43.199-0.263
			c15.768,5.41,28.604,14.564,33.91,31.228C179.779,76.881,180.399,91.514,172.808,105.601 M172.213,29.678
			c4.485,5.125,8.731,10.535,12.613,16.138c4.194,6.097,3.528,9.601-1.672,14.609c-1.719,1.647-3.246,3.466-5.136,5.478
			c-6.005-18.733-17.551-31.597-36.289-37.416c3.157-2.253,6.257-4.188,9.054-6.508c2.262-1.886,4.455-2.195,7.222-1.417
			C163.673,22.203,168.441,25.334,172.213,29.678"/>
		<path fill-rule="evenodd" clip-rule="evenodd" fill="#FFF2C9" d="M71.623,46.167c0.054,0.413,0.065,0.819,0.076,1.223
			c-2.134,0.604-4.262,1.201-6.625,1.891c-0.065,1.576-0.146,3.313-0.194,5.012c-0.064,1.846-0.151,3.66-0.116,5.493
			c0.591,27.339,14.504,47.809,34.413,64.711c13.3,11.3,29.518,16.007,46.748,17.301c0.894,0.063,1.708,0.531,2.562,0.812
			c-0.287-4.867,1.052-8.609,3.672-9.521c-5.954,16.807,0.889,30.612,9.376,44.349c0.469-0.404,0.62-0.503,0.625-0.58
			c0.117-1.005,0.282-2.035,0.334-3.064c0.642-12.527,3.461-24.334,10.44-35.021c2.273-3.492,3.893-7.516,5.229-11.48
			c2.374-7.13,0.998-13.681-4.155-19.622c-1.133,2.27-2.151,4.292-3.146,6.333c-0.433-0.192-0.843-0.367-1.257-0.543
			c1.052-2.62,1.882-5.38,3.211-7.86c7.579-14.091,6.971-28.717,2.351-43.279c-5.292-16.663-18.135-25.822-33.903-31.229
			c-14.341-4.904-28.829-3.916-43.204,0.262c-1.136,0.349-2.339,0.401-3.508,0.589c-0.077-0.354-0.152-0.658-0.234-1.012
			c1.835-0.726,3.673-1.445,5.721-2.276c-5.043-5.935-11.3-8.605-18.699-7.302c-5.34,0.965-10.667,2.6-15.687,4.68
			c-8.853,3.675-17.977,5.006-27.47,4.453c-3.053-0.149-6.104-0.264-9.135-0.394C41.199,40.944,54.047,49.797,71.623,46.167
			 M169.685,127.831c-1.361,2.97-3.433,3.55-7.73,2.053c-2.989,7.604-3.785,15.452-3.323,23.581c2.146-4.472,3.38-9.38,7.189-12.754
			c0.314,0.145,0.585,0.28,0.876,0.438c-0.374,0.79-0.76,1.573-1.099,2.403c-1.742,4.053-3.89,7.994-5.076,12.253
			c-0.815,2.784-0.24,5.978-0.275,8.996c0,0.684-0.035,1.356-0.041,2.046c-0.381-0.012-0.808-0.023-1.188-0.023
			c-4.241-13.609-3.059-26.951,1.913-39.641c2.273,0.479,4.913,1.9,5.923,1.14c3.639-2.66,0.317-6-0.42-9.333
			C169.925,120.994,171.106,124.667,169.685,127.831 M154.351,88.97c4.842-0.839,9.64,2.497,10.334,7.235
			c0.75,4.959-3.041,10.15-7.831,10.753c-4.972,0.637-10.207-2.855-10.714-8.244c1.462,1.684,2.281,2.754,3.246,3.737
			c2.685,2.739,7.61,3.395,10.768,1.454c2.379-1.5,3.38-5.364,2.339-8.665c-1.089-3.383-3.714-4.579-6.867-4.539
			c-1.199,0.017-3.311,1.202-3.355,1.933c-0.089,1.474,0.835,3.101,1.666,4.456c0.151,0.176,2.128-0.783,3.251-1.19
			c0.205-0.068,0.445-0.009,0.878-0.039c1.01,2.302-0.094,3.302-2.245,3.613c-2.587,0.389-5.218-1.945-5.663-4.857
			C149.73,91.724,151.414,89.474,154.351,88.97 M127.406,102.588c4.298-0.893,7.79,0.281,10.007,4.234
			c2.375,4.31,0.309,7.646-2.801,10.69l3.492,4.025c-6.573-0.895-15.896-17.658-10.891-24.015
			C127.284,99.736,127.336,101.021,127.406,102.588 M127.973,131.392c-7.03,0.2-11.825-2.806-15.884-7.123
			c-4.433-4.756-5.685-10.609-3.193-14.844L127.973,131.392z M145.145,55.727c3.31,1.065,5.287,3.555,5.486,7.053
			c0.175,2.739-0.708,5.167-3.585,6.607c1.018-3.498,3.708-6.942,0.152-10.289c-3.228-3.074-6.773-2-10.416-0.432
			C138.905,55.348,141.875,54.666,145.145,55.727 M135.028,70.956c0.093,3.899,0.197,7.557,0.285,11.236
			c-0.509,0.021-1.023,0.052-1.502,0.058c-0.229-3.144-0.469-6.299-0.686-9.606c-3.198-0.67-6.322-1.335-9.434-2.001
			c0.071-0.479,0.17-0.982,0.264-1.442C127.546,69.758,131.155,70.339,135.028,70.956 M110.247,41.203
			c3.355-1.55,6.813-1.185,9.574,1.381c2.749,2.505,3.462,5.864,2.439,9.44c-0.761,2.786-3.1,4.104-5.778,3.468
			c-2.871-0.689-4.971-3.455-4.468-6.014c0.415-2.1,1.545-3.156,4.531-2.156c-2.373,1.84-3.952,3.433-1.233,5.469
			c2.387,1.835,4.738,0.966,5.417-1.971c0.766-3.472-1.188-7.118-4.493-8.304c-3.182-1.138-7.141,0.412-8.777,3.459
			c-1.739,3.326-1.282,6.949,1.273,9.839c0.715,0.788,1.41,1.582,2.329,2.641c-3.913-0.316-6.616-4.298-6.603-9.041
			C104.462,45.316,106.872,42.766,110.247,41.203 M86.39,63.213c3.229-2.433,6.458-4.212,10.153-1.702
			c3.861,2.604,4.901,6.167,3.398,10.846c1.422,0.287,2.779,0.543,4.446,0.885c-5.287,4.127-20.108-5.21-22.318-14.433
			C83.887,60.644,85.021,61.814,86.39,63.213 M90.953,90.33c-6.083,1.028-10.212-1.068-13.681-4.84
			c-4.374-4.731-6.783-10.212-5.818-17.607L90.953,90.33z M65.791,31.034c-1.695,3.024-1.695,3.024-13.836,6.671
			c8.479,1.695,16.141,1.521,23.821-0.065c-0.697-4.553,0.437-6.829,3.691-7.53c3.315-0.716,6.761,1.103,7.936,4.554
			c-3.274-1.063-6.251-5.492-9.446-1.235c-0.784,1.023,0.246,3.425,0.503,5.551c-13.218,3.032-26.593,2.552-39.401-4.476
			C48.417,38.351,56.896,34.628,65.791,31.034"/>
		<path fill-rule="evenodd" clip-rule="evenodd" fill="#54B47F" d="M58.558,50.503c0.893-1.155,2.937-1.377,5.029-2.281
			c-2.521,20.489,2.824,37.988,13.463,54.212c13.463,20.519,31.279,34.914,55.672,40.14c3.878,0.843,7.954,0.867,11.92,1.018
			c1.269,0.077,2.561-0.626,3.842-0.981c-0.159,1.082-0.375,2.141-0.452,3.229c-0.081,1.133,0.024,2.255,0.06,3.777
			c-8.078,4.099-16.119,8.323-24.372,12.188c-1.883,0.878-4.491,1.018-6.527,0.551c-15.305-3.533-29.4-9.674-41.628-19.781
			c-11.079-9.14-18.353-21.013-25.449-33.235c-6.819-11.773-6.655-24.423-6.321-37.258c0.034-0.832,0.432-1.777,0.947-2.491
			C49.287,63.176,53.778,56.74,58.558,50.503"/>
		<path fill-rule="evenodd" clip-rule="evenodd" fill="#E14D4D" d="M40.614,74.96c0.392,0.106,0.794,0.222,1.211,0.345
			c0.133,3.524,0.332,7.061,0.35,10.577c0.163,14.104,5.65,26.14,14.101,37.053c4.059,5.235,7.854,10.697,12.34,15.512
			c11.785,12.655,26.775,19.878,43.185,24.458c1.532,0.457,3.083,0.889,4.591,1.321c0.059,0.41,0.094,0.796,0.141,1.206
			c-10.541,2.831-21.091,5.655-31.628,8.439c-0.719,0.175-1.574-0.065-2.354-0.216c-27.714-5.684-53.373-33.618-56.519-61.585
			c-0.205-1.72-0.048-3.72,0.637-5.287C31.209,96.123,35.935,85.54,40.614,74.96"/>
		<path fill-rule="evenodd" clip-rule="evenodd" fill="#54B47F" d="M23.746,114.888c7.429,29.933,26.02,49.292,54.543,60.715
			c-8.543,0.975-17.189,1.583-25.628,3.116c-9.883,1.808-16.837-2.268-22.598-9.509c-4.024-5.077-8.024-10.2-11.615-15.61
			c-2.188-3.257-2.703-7.128-1.668-11.171C19.085,133.264,21.15,124.035,23.746,114.888"/>
		<path fill-rule="evenodd" clip-rule="evenodd" fill="#FFF2C9" d="M174.803,24.98c-16.317-5.938-21.293-4.812-21.293-4.812
			c-3.078,1.933-8.623,6.066-11.78,8.319c18.738,5.818,30.284,18.683,36.289,37.416c1.89-2.011,3.417-3.831,5.136-5.478
			c5.2-5.008,3.603-2.775,5.44-5.896C188.595,54.53,179.283,26.609,174.803,24.98"/>
		<path fill-rule="evenodd" clip-rule="evenodd" fill="#E14D4D" d="M14.604,152.844c0.351-0.081,0.72-0.133,1.065-0.21
			c5.44,10.095,12.991,18.4,22.341,26.458c-8.707-0.771-16.527-1.485-24.709-2.221C13.734,168.987,14.179,160.904,14.604,152.844"/>
		<path fill-rule="evenodd" clip-rule="evenodd" fill="#7E4E24" d="M166.434,118.981c3.491,2.013,4.672,5.685,3.251,8.855
			c-1.361,2.964-3.439,3.555-7.73,2.046c-2.989,7.604-3.785,15.458-3.323,23.581c2.141-4.472,3.375-9.374,7.189-12.761
			c0.314,0.146,0.59,0.287,0.876,0.457c-0.374,0.771-0.753,1.555-1.099,2.391c-1.742,4.053-3.89,8.001-5.083,12.26
			c-0.801,2.777-0.24,5.964-0.269,8.982c-0.005,0.69-0.03,1.362-0.041,2.053c-0.381-0.012-0.808-0.023-1.193-0.023
			c-4.241-13.609-3.053-26.951,1.918-39.641c2.273,0.479,4.917,1.9,5.923,1.14C170.486,125.661,167.171,122.321,166.434,118.981"/>
		<path fill-rule="evenodd" clip-rule="evenodd" fill="#7E4E24" d="M39.059,34.508c9.358,3.845,17.837,0.12,26.732-3.474
			c-1.695,3.024-1.695,3.024-13.832,6.671c8.476,1.695,16.137,1.521,23.81-0.065c-0.69-4.553,0.444-6.829,3.698-7.526
			c3.315-0.72,6.761,1.099,7.936,4.55c-3.274-1.06-6.247-5.492-9.446-1.235c-0.784,1.023,0.246,3.427,0.503,5.551
			C65.242,42.012,51.866,41.532,39.059,34.508"/>
		<path fill-rule="evenodd" clip-rule="evenodd" d="M109.784,113.232l13.599,15.664C116.973,128.329,108.3,119.379,109.784,113.232"
			/>
		<path fill-rule="evenodd" clip-rule="evenodd" fill="#DCA0C7" d="M110.247,41.199c3.355-1.549,6.813-1.184,9.579,1.384
			c2.744,2.51,3.458,5.861,2.434,9.445c-0.761,2.784-3.1,4.096-5.778,3.461c-2.867-0.69-4.971-3.451-4.468-6.012
			c0.415-2.104,1.545-3.158,4.531-2.159c-2.373,1.847-3.947,3.439-1.233,5.475c2.387,1.834,4.738,0.959,5.417-1.971
			c0.766-3.479-1.188-7.121-4.493-8.31c-3.182-1.133-7.141,0.41-8.777,3.461c-1.731,3.322-1.282,6.945,1.273,9.842
			c0.715,0.782,1.41,1.583,2.329,2.646c-3.913-0.321-6.616-4.303-6.603-9.053C104.462,45.314,106.872,42.77,110.247,41.199"/>
		<path fill-rule="evenodd" clip-rule="evenodd" fill="#DCA0C7" d="M154.351,88.967c4.842-0.834,9.64,2.503,10.341,7.241
			c0.748,4.96-3.048,10.152-7.831,10.743c-4.978,0.649-10.207-2.849-10.721-8.241c1.462,1.69,2.281,2.76,3.246,3.738
			c2.685,2.749,7.61,3.397,10.768,1.45c2.373-1.498,3.38-5.362,2.333-8.661c-1.077-3.384-3.713-4.58-6.86-4.54
			c-1.199,0.019-3.311,1.211-3.363,1.937c-0.081,1.47,0.843,3.1,1.68,4.458c0.151,0.167,2.116-0.783,3.245-1.189
			c0.21-0.069,0.451-0.013,0.871-0.044c1.018,2.301-0.086,3.301-2.233,3.617c-2.586,0.384-5.217-1.95-5.667-4.863
			C149.73,91.728,151.414,89.47,154.351,88.967"/>
		<path fill-rule="evenodd" clip-rule="evenodd" fill="#7E4E24" d="M123.956,69.202c3.59,0.556,7.199,1.138,11.073,1.754
			c0.093,3.899,0.197,7.56,0.279,11.236c-0.509,0.021-1.018,0.047-1.503,0.054c-0.215-3.14-0.462-6.302-0.679-9.602
			c-3.198-0.67-6.322-1.335-9.434-2.001C123.762,70.161,123.861,69.664,123.956,69.202"/>
		<path fill-rule="evenodd" clip-rule="evenodd" fill="#1D1D1B" d="M77.271,85.49c3.469,3.776,7.604,5.868,13.676,4.84
			L71.453,67.883C70.488,75.276,72.904,80.76,77.271,85.49 M86.993,88.307c-6.159,0.417-12.592-6.691-13.843-15.943L86.993,88.307z"
			/>
		<path fill-rule="evenodd" clip-rule="evenodd" fill="#1D1D1B" d="M112.088,124.27c4.054,4.322,8.854,7.314,15.892,7.118
			l-19.091-21.968C106.403,113.667,107.655,119.509,112.088,124.27 M123.389,128.896c-6.41-0.574-15.096-9.522-13.605-15.657
			L123.389,128.896z"/>
		<path fill-rule="evenodd" clip-rule="evenodd" fill="#1D1D1B" d="M73.142,72.36l13.851,15.943
			C80.84,88.721,74.4,81.621,73.142,72.36"/>
		<path fill-rule="evenodd" clip-rule="evenodd" fill="#FFFFFF" d="M138.026,121.713c-2.181-0.104-14.737-10.563-10.889-24.007
			C135.997,99.682,144.905,110.397,138.026,121.713"/>
		<path fill-rule="evenodd" clip-rule="evenodd" fill="#FFFFFF" d="M82.197,59.068c-0.235,2.171,8.147,16.202,22.032,14.492
			C103.649,64.503,94.443,54.039,82.197,59.068"/>
		<path fill-rule="evenodd" clip-rule="evenodd" fill="#1D1D1B" d="M104.387,73.242c-1.667-0.342-3.024-0.598-4.446-0.878
			c1.503-4.686,0.462-8.248-3.398-10.853c-3.695-2.513-6.924-0.726-10.153,1.698c-1.368-1.396-2.502-2.566-4.321-4.4
			C84.279,68.032,99.106,77.369,104.387,73.242 M96.76,63.94c2.181,2.161,2.953,4.75,0.724,8.428
			c-3.443-2.392-6.748-4.673-10.537-7.289C91.911,61.673,94.257,61.455,96.76,63.94"/>
		<path fill-rule="evenodd" clip-rule="evenodd" fill="#1D1D1B" d="M138.104,121.532l-3.492-4.019
			c3.119-3.041,5.177-6.381,2.801-10.69c-2.217-3.953-5.703-5.127-10.007-4.234c-0.07-1.568-0.123-2.852-0.187-5.065
			C122.208,103.88,131.531,120.643,138.104,121.532 M135.605,107.402c1.885,2.69,1.265,5.124-2.748,9.1
			c-2.014-3.976-3.832-7.554-5.663-11.153C131.149,103.583,133.354,104.245,135.605,107.402"/>
		<path fill-rule="evenodd" clip-rule="evenodd" fill="#1D1D1B" d="M86.947,65.076c4.963-3.406,7.31-3.621,9.813-1.135
			c2.181,2.161,2.953,4.756,0.724,8.432C94.041,69.977,90.736,67.695,86.947,65.076"/>
		<path fill-rule="evenodd" clip-rule="evenodd" fill="#1D1D1B" d="M127.189,105.354c3.96-1.774,6.165-1.109,8.416,2.054
			c1.885,2.684,1.265,5.118-2.748,9.093C130.844,112.526,129.032,108.947,127.189,105.354"/>
		<path fill-rule="evenodd" clip-rule="evenodd" fill="#FFFFFF" d="M131.862,110.526c0.854-0.75,2.14-0.656,2.883,0.197
			c0.744,0.854,0.657,2.147-0.204,2.888c-0.848,0.739-2.14,0.645-2.883-0.204C130.921,112.549,131.01,111.261,131.862,110.526"/>
		<path fill-rule="evenodd" clip-rule="evenodd" fill="#FFFFFF" d="M95.472,68.099c0.86-0.743,2.147-0.646,2.89,0.207
			c0.744,0.85,0.648,2.143-0.204,2.885c-0.849,0.743-2.147,0.646-2.89-0.206C94.526,70.135,94.625,68.841,95.472,68.099"/>
		<line fill-rule="evenodd" clip-rule="evenodd" fill="#54B47F" x1="148.485" y1="142.61" x2="148.73" y2="139.101"/>
	</g>
</g>
</svg>
