<?xml version="1.0" encoding="utf-8"?>
<!-- Generator: Adobe Illustrator 16.0.3, SVG Export Plug-In . SVG Version: 6.00 Build 0)  -->
<!DOCTYPE svg PUBLIC "-//W3C//DTD SVG 1.1//EN" "http://www.w3.org/Graphics/SVG/1.1/DTD/svg11.dtd">
<svg version="1.1" id="Calque_1" xmlns="http://www.w3.org/2000/svg" xmlns:xlink="http://www.w3.org/1999/xlink" x="0px" y="0px"
	 width="90px" height="200px" viewBox="0 0 90 200" enable-background="new 0 0 90 200" xml:space="preserve">
<g>
	<path fill-rule="evenodd" clip-rule="evenodd" fill="#FFFFFF" d="M18.269,175.962c0.124,2.336,0.246,4.583,0.378,6.982
		c5.285,1.181,10.43,0.913,15.52-0.148c0.181-2.163,0.348-4.159,0.526-6.326C29.152,177.626,23.814,177.664,18.269,175.962"/>
	<g>
		<path fill-rule="evenodd" clip-rule="evenodd" fill="#7E4E24" d="M61.811,188.688c0.141-0.162,0.26-0.335,0.363-0.506
			c0.051-0.099,0.107-0.195,0.16-0.294c0.037-0.099,0.096-0.196,0.141-0.299c0.066-0.125,0.121-0.257,0.168-0.405
			c0.047-0.145,0.102-0.285,0.141-0.431c0.029-0.099,0.045-0.176,0.059-0.269c0.018-0.012,0.018-0.034,0.023-0.043
			c0.031-0.167,0.07-0.35,0.096-0.518c0.021-0.144,0.053-0.302,0.063-0.451c0.012-0.123,0.02-0.248,0.02-0.374
			c0.045-1.678,0.088-3.36,0.115-5.048c0.068-3.367,0.119-6.733,0.158-10.099c0.018-1.689,0.02-3.378,0.035-5.062
			c0-0.97-0.012-1.926-0.031-2.877c-0.021-0.958-0.051-1.923-0.098-2.866c-0.092-1.913-0.232-3.787-0.414-5.671
			c-0.098-0.942-0.213-1.868-0.328-2.789c-0.133-0.936-0.27-1.856-0.426-2.782c-0.146-0.931-0.309-1.845-0.492-2.764
			c-0.188-0.909-0.387-1.829-0.605-2.732c-0.225-0.905-0.453-1.81-0.699-2.707c-0.26-0.899-0.525-1.799-0.801-2.69
			c-0.295-0.883-0.594-1.762-0.91-2.645c-0.324-0.881-0.664-1.762-1.02-2.63c-0.182-0.439-0.365-0.871-0.549-1.298
			c-0.197-0.438-0.389-0.878-0.59-1.304c-0.191-0.428-0.4-0.852-0.611-1.29c-0.625-1.277-1.291-2.554-2.02-3.809
			c-0.465-0.835-0.965-1.673-1.488-2.503c-0.07-0.107-0.125-0.224-0.188-0.331c-0.1-0.168-0.201-0.326-0.328-0.438v-0.012
			c-0.287-0.255-0.539-0.501-0.75-0.76c-0.121-0.136-0.232-0.275-0.326-0.409c-0.104-0.145-0.191-0.278-0.273-0.423
			c-0.076-0.145-0.146-0.287-0.213-0.426c-0.012-0.018-0.008-0.023-0.018-0.038c-0.051-0.12-0.094-0.232-0.135-0.363
			c-0.051-0.158-0.107-0.32-0.135-0.487c-0.027-0.118-0.041-0.233-0.063-0.36c-0.17-1.416,0.355-2.894,1.264-4.4
			c2.361,0.19,4.863,0.894,7.217,0.516c0.299-0.045,0.588-0.101,0.881-0.154c0.262-0.045,0.52-0.104,0.773-0.162
			c0.332-0.063,0.656-0.141,0.973-0.228c0.273-0.067,0.537-0.149,0.797-0.219c0.277-0.08,0.545-0.158,0.814-0.25
			c0.525-0.185,1.041-0.38,1.549-0.585c0.508-0.216,1.002-0.435,1.488-0.678c0.264-0.128,0.518-0.268,0.764-0.413
			c0.18-0.09,0.359-0.2,0.541-0.295c0.246-0.154,0.504-0.316,0.752-0.48l0.016,0.007c0.215-0.146,0.43-0.281,0.641-0.448
			c0.432-0.307,0.848-0.622,1.244-0.958c1.809-1.477,3.361-3.271,4.658-5.347c1.164-1.829,2.129-3.885,2.889-6.146
			c0.541-1.605,0.941-3.256,1.297-4.924c0.088-0.415,0.168-0.84,0.266-1.254c0.168-0.838,0.34-1.688,0.521-2.537
			c0.094-0.425,0.189-0.853,0.289-1.275c1.645-0.33,3.52-0.708,5.418-1.085h0.012c0.025-0.08,0.059-0.157,0.096-0.231
			c0.014-0.043,0.033-0.079,0.047-0.123c0.053-0.122,0.107-0.23,0.152-0.352c-1.607-1.792-3.107-3.726-4.883-5.343
			c-1.27-1.149-1.668-2.389-1.793-4.006c-0.508-6.151-2.307-12.015-4.885-17.575c-0.668-1.435-1.346-2.868-2.035-4.302
			c-0.684-1.422-1.369-2.855-2.068-4.27c-0.699-1.422-1.422-2.837-2.145-4.24c-0.713-1.411-1.453-2.814-2.189-4.208
			c-0.561-1.059-1.135-2.109-1.719-3.162c-0.338-0.629-0.674-1.259-1.037-1.882c-0.088-0.166-0.178-0.332-0.281-0.501
			c-1.236-2.219-2.52-4.42-3.852-6.602c-0.111-0.201-0.23-0.394-0.354-0.585c-0.738-1.235-1.506-2.459-2.277-3.671
			c-0.752-1.193-1.527-2.37-2.299-3.54c-0.219-0.313-0.422-0.614-0.635-0.928c-0.766-1.143-1.563-2.29-2.359-3.424
			c-0.609-0.872-1.23-1.721-1.854-2.581c-0.471-0.631-0.953-1.249-1.451-1.861c-0.244-0.304-0.494-0.598-0.755-0.904
			c-0.63-0.747-1.275-1.483-1.931-2.229c-0.646-0.736-1.291-1.475-1.922-2.23l-1.108-0.094c-2.622,2.946-5.473,5.716-7.813,8.869
			c-6.839,9.22-10.846,19.825-14.45,30.601c-0.755,2.26-1.479,4.531-2.203,6.839c-0.246,0.766-0.494,1.529-0.751,2.306
			c-0.717-0.275-1.208-0.532-1.732-0.646c-2.855-0.577-5.724-1.124-8.59-1.678L5.8,53.99c2.578,2.784,4.318,5.969,5.632,9.321
			c0.344,0.834,0.648,1.681,0.928,2.545c0.442,1.289,0.834,2.6,1.192,3.912c0.122,0.433,0.245,0.876,0.366,1.314
			c0.248,0.876,0.482,1.76,0.716,2.647c0.233,0.859,0.472,1.712,0.728,2.571c0.107,0.385,0.223,0.77,0.352,1.159
			c0.241,0.804,0.491,1.611,0.753,2.408c0.137,0.429,0.284,0.863,0.431,1.296c0.128,0.374,0.268,0.751,0.418,1.104
			c0.4,0.944,0.91,1.817,1.49,2.616c0.267,0.365,0.543,0.717,0.846,1.059c1.195,1.374,2.625,2.54,4.195,3.625
			c1.973,1.359,3.67,3.083,5.445,4.708c0.259,0.227,0.338,0.789,0.281,1.163c-0.075,0.527-0.145,1.057-0.208,1.583
			c-0.08,0.53-0.146,1.052-0.21,1.578c-0.068,0.529-0.143,1.058-0.212,1.577l-0.338,2.465c-0.032,0.201-0.058,0.392-0.083,0.595
			c-0.096,0.562-0.175,1.113-0.265,1.678c-0.167,1.043-0.343,2.087-0.544,3.124c-0.063,0.332-0.166,0.638-0.32,0.955
			c-0.127,0.307-0.299,0.61-0.494,0.913c-0.094,0.15-0.195,0.303-0.31,0.442c-0.105,0.15-0.208,0.29-0.332,0.432
			c-0.218,0.286-0.445,0.552-0.672,0.807c-1.267,1.42-2.467,2.869-3.606,4.366v0.014c-0.486,0.651-0.973,1.318-1.426,1.996
			c-0.467,0.68-0.908,1.36-1.344,2.064c-0.209,0.346-0.42,0.692-0.622,1.039c-0.21,0.359-0.411,0.714-0.611,1.063
			c-0.387,0.72-0.77,1.451-1.135,2.185c-0.415,0.84-0.804,1.697-1.17,2.565c-0.184,0.428-0.357,0.868-0.532,1.311
			c-0.17,0.428-0.321,0.858-0.479,1.29c-0.166,0.464-0.317,0.929-0.471,1.408c-0.026,0.065-0.045,0.131-0.065,0.211
			c-0.041,0.099-0.059,0.213-0.08,0.312c-0.032,0.118-0.056,0.242-0.056,0.372c-0.003,0.182,0.009,0.35,0.004,0.536
			c0,0.384,0,0.765-0.014,1.144c-0.02,0.372-0.054,0.741-0.118,1.1c-0.02,0.099-0.036,0.21-0.057,0.312
			c-0.051,0.201-0.101,0.393-0.162,0.568c-0.116,0.314-0.267,0.627-0.465,0.92c-0.101,0.154-0.229,0.311-0.375,0.452
			c-0.064,0.078-0.139,0.148-0.226,0.219c-0.072,0.076-0.158,0.148-0.252,0.2c-0.187,0.144-0.377,0.271-0.591,0.383h-0.01
			c-0.109,0.069-0.216,0.129-0.335,0.176c-0.057,0.029-0.121,0.08-0.17,0.148c-0.038,0.052-0.068,0.117-0.098,0.191
			c-0.051,0.124-0.087,0.265-0.113,0.427c-0.015,0.052-0.021,0.121-0.027,0.191c-0.041,0.21-0.047,0.429-0.041,0.634
			c0.011,0.131,0.021,0.272,0.034,0.387c0.053,0.357,0.131,0.751,0.273,1.128c0.047,0.117,0.093,0.236,0.154,0.357
			c0.068,0.14,0.134,0.258,0.229,0.379c0.08,0.122,0.174,0.218,0.268,0.321c0.269,0.229,0.486,0.471,0.684,0.714
			c0.09,0.126,0.18,0.253,0.274,0.376c0.08,0.133,0.147,0.266,0.227,0.398c0.208,0.391,0.368,0.801,0.489,1.22
			c0.081,0.279,0.148,0.57,0.194,0.857c0.079,0.429,0.145,0.878,0.186,1.325c0.064,0.598,0.117,1.207,0.203,1.809
			c0.144,1.029,0.295,2.068,0.437,3.108c0.155,1.033,0.295,2.069,0.45,3.105c0.151,1.05,0.317,2.09,0.491,3.123
			c0.028,0.131,0.049,0.268,0.071,0.396c0.111,0.602,0.219,1.21,0.337,1.824c0.245,1.32,0.523,2.628,0.837,3.925
			c0.92,3.843,0.38,7.622,0.578,11.432c0.12,2.387,0.162,4.772,0.229,7.276c-0.392-0.083-0.772-0.176-1.149-0.261
			c-0.393-0.092-0.771-0.176-1.174-0.273c-0.399-0.099-0.826-0.191-1.259-0.295c-0.45-0.094-0.918-0.199-1.43-0.322
			c0.068,0.265,0.134,0.532,0.194,0.792c0.115,0.52,0.224,1.007,0.329,1.493v0.014c0.11,0.471,0.208,0.924,0.333,1.377
			c0.181,0.678,0.392,1.313,0.671,1.915c0.094,0.208,0.193,0.413,0.28,0.628c0.169,0.408,0.317,0.811,0.443,1.214
			c0.049,0.2,0.114,0.4,0.156,0.609c0.044,0.141,0.063,0.287,0.086,0.439v0.009c0.028,0.094,0.042,0.176,0.046,0.277 M49.008,16.656
			c-5.088-0.107-9.793-0.197-14.634-0.303c2.347-2.62,4.78-5.354,7.239-8.117C44.2,11.181,46.533,13.834,49.008,16.656
			 M57.199,29.215c-3.805-0.122-7.289-0.413-10.777-0.337c-6.352,0.159-12.181,2.419-17.953,4.762
			c-1.213,0.49-2.471,0.844-3.7,1.254c-0.156-0.17-0.303-0.333-0.439-0.491c2.627-4.884,5.269-9.737,7.847-14.635
			c0.716-1.344,1.76-2.121,3.203-2.088c4.625,0.041,9.25,0.162,13.868,0.316c0.348-0.007,0.791,0.328,1.002,0.641
			C52.572,22.115,54.863,25.631,57.199,29.215 M64.109,41.905c-17.072-0.671-31.738,3.86-43.211,16.646
			c-0.781-0.449-1.501-0.967-2.282-1.284c-1.303-0.516-1.543-1.161-1.035-2.53c1.804-5.12,3.494-10.268,5.128-15.448
			c0.694-2.208,1.803-3.776,4.281-4.132c0.899-0.126,1.724-0.652,2.588-1.015c7.563-3.401,15.472-4.907,23.781-4.198
			c2.984,0.259,5.52,1.094,6.609,4.305c0.34,1.04,1.078,1.942,1.6,2.919C62.379,38.647,63.154,40.121,64.109,41.905 M71.441,56.011
			c-14.928-0.678-27.874,3.358-38.18,13.923c-3.819-3.775-7.517-7.383-11.401-11.187c2.117-1.897,4.247-4.033,6.635-5.893
			c9.265-7.197,20.003-9.748,31.55-10.178c3.867-0.125,5.848,1.188,7.104,4.583c0.719,1.913,1.865,3.633,2.783,5.451
			C70.439,53.734,70.896,54.793,71.441,56.011 M61.09,187.691c-0.082,0.237-0.148,0.48-0.211,0.717
			c-0.283-0.022-0.563-0.042-0.84-0.042l0.006-0.009c-0.146-0.47-0.436-0.944-0.422-1.413c0.08-3.306,0.148-6.598,0.213-9.903
			c0.051-2.099,0.1-4.203,0.162-6.305c0.098-3.249,0.209-6.479,0.35-9.725c0.025-0.612,0.051-1.209,0.061-1.829
			c0.033-1.199,0.018-2.409-0.01-3.617c-0.018-0.605-0.033-1.197-0.076-1.795c-0.043-0.74-0.096-1.472-0.168-2.21
			c0.006-0.021,0-0.042-0.008-0.055c-0.066-0.726-0.141-1.46-0.242-2.181c-0.186-1.475-0.428-2.93-0.742-4.376
			c-0.121-0.583-0.248-1.159-0.391-1.739c-0.117-0.491-0.252-0.988-0.387-1.481c-0.148-0.486-0.285-0.973-0.443-1.459
			c-0.123-0.399-0.248-0.792-0.375-1.188c-0.111-0.316-0.221-0.632-0.332-0.949c-0.598-1.701-1.311-3.378-2.121-5.027
			c-0.225-0.452-0.451-0.891-0.686-1.331c-0.176-0.345-0.365-0.679-0.551-1.011c-0.797-1.444-1.656-2.845-2.543-4.229
			c-1.373-2.129-2.816-4.215-4.213-6.314c-0.09-0.128-0.16-0.263-0.221-0.383c-0.014-0.067-0.045-0.125-0.072-0.196
			c-0.047-0.12-0.086-0.231-0.096-0.351v-0.014c-0.059-0.348-0.021-0.671,0.063-0.979c0.027-0.12,0.074-0.235,0.104-0.347
			c0.049-0.141,0.105-0.288,0.164-0.443c0.059-0.16,0.119-0.332,0.152-0.5c0.031-0.088,0.049-0.165,0.068-0.258
			c0.043-0.244,0.807-0.361,1.535-0.662c-0.283,0.943-0.453,1.494-0.578,1.908c0.115,0.123,0.229,0.242,0.334,0.367
			c0.111,0.117,0.221,0.237,0.324,0.343c0.209,0.224,0.396,0.436,0.572,0.641c0.117,0.146,0.227,0.281,0.33,0.427
			c0.813,1.159,1.604,2.326,2.336,3.515c0.303,0.481,0.588,0.964,0.869,1.449c0.252,0.41,0.479,0.825,0.709,1.246
			c1.545,2.744,2.869,5.574,3.975,8.475c0.223,0.577,0.438,1.156,0.639,1.737c0.057,0.14,0.102,0.294,0.15,0.435
			c0.18,0.523,0.363,1.065,0.521,1.614c0.025,0.081,0.055,0.154,0.07,0.232c0.191,0.606,0.381,1.24,0.543,1.851
			c0.201,0.725,0.379,1.445,0.547,2.168c0.102,0.438,0.205,0.891,0.303,1.329c0.066,0.303,0.125,0.595,0.178,0.896
			c0.111,0.563,0.215,1.132,0.316,1.695c0.014,0.093,0.025,0.186,0.043,0.269c0.09,0.571,0.178,1.154,0.252,1.729
			c0.021,0.066,0.029,0.124,0.037,0.172c0.08,0.668,0.162,1.33,0.227,2.012c0.75,7.483,0.623,15.035,0.797,22.573
			c0.014,0.774,0.031,1.563,0.045,2.337c0.008,1.378,0.008,2.759-0.023,4.144c-0.016,0.718-0.043,1.44-0.076,2.155
			c-0.008,0.366-0.025,0.717-0.055,1.076c-0.018,0.213-0.023,0.432-0.047,0.643c-0.021,0.433-0.094,0.861-0.184,1.296
			c-0.102,0.411-0.221,0.825-0.354,1.222C61.451,186.596,61.26,187.141,61.09,187.691 M16.42,190.116
			c-1.126-2.188-2.354-4.405-2.427-7.087c7.69,1.959,15.185,2.294,22.889,0.099c-0.929,2.392-1.694,4.513-2.574,6.605
			 M18.551,181.178c-0.107-1.765-0.194-3.463-0.287-5.216v-0.011c3.853,1.187,7.602,1.529,11.382,1.251
			c0.836-0.064,1.676-0.157,2.515-0.281c0.828-0.127,1.684-0.274,2.53-0.451l-0.525,6.315c-0.924,0.202-1.847,0.364-2.771,0.505
			c-0.482,0.07-0.965,0.136-1.438,0.187c-0.438,0.047-0.872,0.09-1.318,0.12c-0.482,0.047-0.964,0.081-1.433,0.095
			c-0.479,0.015-0.943,0.021-1.411,0.021c-0.421,0.008-0.841,0-1.26-0.021c-1.944-0.062-3.905-0.303-5.882-0.74
			C18.623,182.347,18.581,181.762,18.551,181.178 M18.49,166.801c5.533,2.824,11.058,2.358,16.84,0.278
			c-0.205,2.486-0.526,4.698-0.504,6.912c-0.004,1.149-0.403,1.467-1.393,1.689c-4.166,0.959-8.327,0.929-12.477,0.063
			c-0.705-0.149-1.401-0.503-2.005-0.92c-0.349-0.218-0.652-0.781-0.652-1.175C18.31,171.437,18.415,169.22,18.49,166.801
			 M18.879,156.325c0.742,0.346,1.49,0.663,2.232,0.913c0.378,0.132,0.741,0.259,1.122,0.37c0.354,0.106,0.709,0.205,1.078,0.293
			c0.241,0.079,0.503,0.13,0.759,0.186c0.235,0.056,0.468,0.094,0.716,0.153c0.649,0.118,1.292,0.217,1.944,0.295
			c0.361,0.046,0.72,0.084,1.083,0.115l0.08,0.003c0.689,0.059,1.391,0.096,2.085,0.106c0.011,0,0.011,0,0.022,0
			c1.057,0.033,2.125,0.019,3.188-0.042c0.367-0.014,0.731-0.043,1.099-0.057c0.72-0.042,1.441-0.098,2.176-0.162
			c-0.095,0.572-0.174,1.135-0.253,1.687c-0.083,0.561-0.173,1.113-0.252,1.651c-0.097,0.656-0.196,1.29-0.293,1.935
			c-0.07,0.431-0.14,0.85-0.211,1.281c-0.02,0.085-0.049,0.187-0.091,0.284c-0.042,0.089-0.095,0.188-0.146,0.286
			c-0.118,0.171-0.257,0.34-0.415,0.443h-0.014c-3.398,2.324-11.937,2.309-15.339-0.007c-0.127-0.079-0.267-0.192-0.396-0.303
			c-0.094-0.088-0.169-0.164-0.241-0.251c-0.102-0.122-0.163-0.242-0.163-0.353C18.668,162.283,18.781,159.422,18.879,156.325
			 M18.771,154.475c-0.302-2.526-0.481-5.085-0.705-7.7c6.296,1.896,12.468,3.759,19.054,5.737
			c-0.079,0.937-0.219,2.098-0.259,3.258c-0.047,1.233-0.746,1.814-1.854,1.895c-5.213,0.423-10.36,0.334-15.181-2.09
			C19.392,155.346,18.826,154.877,18.771,154.475 M14.657,145.563c0.272-0.103,0.543-0.218,0.816-0.319l0.007,0.014
			c0.313,0.374,0.768,0.736,1.094,1.113c0.12,0.156,0.221,0.305,0.29,0.468c0.027,0.084,0.053,0.167,0.06,0.247
			c0.13,1.318,0.234,2.637,0.343,3.952c0.194,2.348,0.371,4.705,0.529,7.063c0.019,0.198,0.039,0.392,0.046,0.574
			c0.086,1.283,0.172,2.572,0.271,3.86v0.009c-0.215-0.014-0.43-0.021-0.66-0.019v-0.012
			C16.525,156.857,15.589,151.219,14.657,145.563 M28.649,108.938c5.375,3.746,11.434,5.478,17.518,7.303
			c-0.029,0.338,0.035,0.686-0.079,0.934c-0.95,1.859-0.169,3.141,1.03,4.615c3.668,4.483,6.428,9.511,8.607,14.884
			c3.709,9.115,3.971,18.598,3.492,28.249c-0.371,7.457-0.293,14.944-0.162,22.409c0.031,1.715-0.316,2.546-1.846,2.939
			c-0.305,0.092-0.576,0.213-0.871,0.338c-6.088,2.139-12.284,2.536-18.634,1.548c-0.796-0.125-1.672,0.13-2.52,0.208
			c-0.109-0.362-0.365-0.797-0.275-1.07c0.856-2.379,1.79-4.723,2.657-7.085c0.263-0.687,0.342-1.406,0.579-2.354
			c-1.166,0.235-1.872,0.358-2.866,0.56l2.488-30.065c3.802-1.219,4.745-2.564,4.503-6.385c-0.21-3.242-0.289-6.424,1.123-9.461
			c0.39-0.83,0.678-1.723,0.856-2.622c0.362-1.784,0.152-2.534-0.565-3.225c-0.485,1.989-1.042,4.044-1.475,6.158
			c-0.368,1.789-0.664,3.601-0.855,5.393c-0.231,2.21-0.21,4.435-0.503,6.616c-0.168,1.319-1.128,2.048-2.548,1.87
			c-2.14-0.252-4.315-0.367-6.401-0.891c-4.071-0.986-8.191-1.967-12.109-3.44c-2.152-0.792-4.233-2.306-5.837-4.002
			c-2.041-2.147-1.491-4.118,0.902-5.93c1.602-1.232,3.203-2.536,4.622-4.003c2.613-2.707,5.091-5.563,7.601-8.382
			c0.19-0.197,0.197-0.563,0.287-0.851c-4.754,3.256-7.647,8.378-12.477,11.849c-0.266-5.007,1.676-8.931,4.161-12.585
			C22.155,117.87,25.459,113.418,28.649,108.938 M7.594,54.548c4.265,0.616,7.847,1.97,11.191,3.943
			c6.609,3.87,11.516,9.477,15.867,15.642c0.329,0.448,0.678,0.864,1.012,1.276c0.176-0.108,0.346-0.229,0.526-0.341
			c-0.342-0.653-0.651-1.317-1.037-1.918c-0.453-0.719-0.99-1.391-1.551-2.165C44.038,60.422,56.59,56.158,71.059,57.094
			c0.422,0.023,1.031,0.335,1.164,0.676c0.916,2.286,1.709,4.604,2.543,6.904l-0.041-0.049c1.957,4.111,2.561,8.545,2.988,13.005
			c0.08,0.69,0.316,1.51,0.777,2.01c1.697,1.872,3.512,3.638,5.641,5.817c-1.74,0.277-2.939,0.565-4.121,0.605
			c-1.236,0.032-1.611,0.5-1.84,1.71c-0.682,3.863-1.582,7.668-2.447,11.795c-1.391-0.923-2.275-1.51-3.168-2.105
			c-0.119,0.174-0.246,0.354-0.389,0.512c0.867,0.8,1.727,1.601,2.688,2.487c-2.748,5.953-7.1,10.419-13.863,11.451
			c-12.164,1.875-20.038-4.186-25.177-14.842c-0.986,3.572,4.762,9.83,13.996,15.476c-0.283,2.833-0.443,3.112-3.076,2.604
			c-2.463-0.457-4.918-1.17-7.259-2.097c-3.085-1.212-6.066-2.708-9.053-4.152c-1.105-0.522-1.43-1.275-1.109-2.688
			c0.587-2.451,0.832-4.99,1.008-7.514c0.194-2.501,0.912-5.25-2.56-6.881c5.625-0.196,6.32-0.457,6.627-2.24
			c-5.359,2.024-7.902,1.406-12.369-2.643c-3.261-2.942-4.576-6.832-5.715-10.826C14.182,68.718,12.817,61.033,7.594,54.548"/>
		<path fill-rule="evenodd" clip-rule="evenodd" fill="#FFFFFF" d="M65.377,72.273c0.465,0.928,3.936,7.744,6.131,7.7
			c1.953,0.433,3.746-1.684,3.746-1.684c-0.008,0-0.008-0.012-0.008-0.012c-0.611-0.482-1.055-0.846-1.365-1.089
			c-0.699,0.875-1.174,1.803-1.957,2.287c-0.287,0.177-1.408-0.54-1.83-1.109c-0.387-0.545-0.457-1.382-0.508-2.101
			c-0.047-0.907,0.059-1.819,0.09-2.679C68.174,73.119,66.775,72.684,65.377,72.273"/>
		<path fill-rule="evenodd" clip-rule="evenodd" fill="#FFF2C9" d="M7.596,54.548c5.221,6.486,6.586,14.166,8.708,21.558
			c1.135,3.998,2.457,7.889,5.715,10.83c4.467,4.051,7.009,4.669,12.365,2.643c-0.304,1.783-0.999,2.044-6.624,2.24
			c3.471,1.631,2.753,4.38,2.56,6.878c-0.176,2.524-0.421,5.065-1.008,7.519c-0.321,1.404,0.003,2.163,1.109,2.689
			c2.987,1.44,5.968,2.937,9.053,4.148c2.34,0.927,4.796,1.64,7.261,2.097c2.631,0.511,2.791,0.229,3.074-2.604
			c-9.233-5.649-14.982-11.902-13.994-15.476c5.138,10.66,13.011,16.717,25.175,14.842c6.764-1.028,11.115-5.498,13.863-11.451
			c-0.961-0.886-1.82-1.685-2.688-2.485c0.143-0.158,0.27-0.344,0.389-0.514c0.893,0.597,1.777,1.182,3.168,2.105
			c0.865-4.127,1.762-7.932,2.447-11.793c0.219-1.211,0.604-1.678,1.84-1.712c1.182-0.038,2.379-0.328,4.121-0.605
			c-2.129-2.179-3.943-3.945-5.637-5.817c-0.465-0.504-0.701-1.32-0.781-2.01c-0.428-4.463-1.029-8.892-2.984-13.005
			c-0.014,0.42,0.029,0.846-0.037,1.261c-0.08,0.506-0.242,1.001-0.342,1.496c-0.453-0.148-0.9-0.278-1.33-0.44
			c-0.986-0.33-1.949-0.923-2.926-0.945c-1.408-0.016-2.836,0.356-4.256,0.567c-0.357-2.145,0.803-4.357,2.73-5.099
			c2.002-0.755,4.186,0.065,5.424,2.017c0.229,0.386,0.494,0.771,0.736,1.144l0.037,0.049c-0.834-2.297-1.627-4.618-2.543-6.904
			c-0.133-0.339-0.742-0.652-1.164-0.676c-14.469-0.934-27.021,3.33-37.454,13.891c0.562,0.773,1.097,1.447,1.549,2.167
			c0.386,0.599,0.694,1.263,1.037,1.916c-0.18,0.11-0.35,0.233-0.526,0.343c-0.334-0.415-0.684-0.831-1.012-1.279
			c-4.349-6.164-9.258-11.77-15.867-15.642C15.441,56.518,11.859,55.164,7.596,54.548 M71.34,86.856c0-0.81-0.27-1.742-0.727-2.383
			c-0.195-0.263-1.234,0.079-1.889,0.152c-0.082-0.145-0.184-0.277-0.273-0.421c0.584-0.338,1.186-0.994,1.715-0.961
			c0.592,0.049,1.541,0.672,1.621,1.159c0.35,2.17,0.627,4.388,0.541,6.576c-0.029,1.147-0.678,2.393-1.357,3.357
			c-0.922,1.313-2.336,0.971-2.709-0.607c-0.246-1-0.34-2.079-0.275-3.109c0.047-0.577,0.5-1.21,0.93-1.619
			c0.191-0.176,1.105,0.057,1.236,0.316c0.266,0.547,0.24,1.261,0.408,2.382c-0.834-0.593-1.152-0.826-1.836-1.313
			c0.264,1.469,0.463,2.505,0.662,3.546c0.191,0.032,0.395,0.067,0.605,0.097c0.346-0.566,0.92-1.085,0.979-1.671
			C71.215,90.543,71.334,88.688,71.34,86.856 M65.064,72.178c3.996-0.955,9.943,2.76,10.258,6.165
			c-0.021-0.012-0.047-0.039-0.063-0.049c0,0-1.793,2.116-3.752,1.679c-2.199,0.044-5.664-6.774-6.133-7.7
			C65.273,72.243,65.164,72.209,65.064,72.178 M16.427,61.551c-0.064-0.03,0.037-0.317,0.116-0.856
			c6.618,5.443,12.752,10.926,16.242,19.068c-1.891-0.25-3.949-1.776-4.866,0.78c-0.932,2.605,1.195,3.455,3.34,4.201
			c-2.038,0.706-3.888-0.198-4.275-2.096c-0.196-0.946-0.196-2.303,0.324-2.965c0.751-0.941,2.096-1.398,3.237-2.133
			c-2.645-4.874-6.188-9.356-11.163-13.035c0.365,2.283,0.706,4.256,1.018,6.229c-0.19,0.065-0.397,0.141-0.585,0.204
			c-0.241-0.65-0.533-1.264-0.717-1.917C18.408,66.471,19.178,63.383,16.427,61.551"/>
		<path fill-rule="evenodd" clip-rule="evenodd" fill="#54B47F" d="M13.959,142.369c1.598,1.688,3.681,3.198,5.839,3.997
			c3.916,1.475,8.032,2.451,12.1,3.446c2.088,0.511,4.27,0.626,6.408,0.882c1.415,0.178,2.377-0.55,2.548-1.87
			c0.289-2.182,0.271-4.406,0.502-6.609c0.196-1.802,0.486-3.61,0.852-5.402c0.438-2.107,0.997-4.178,1.473-6.155
			c0.72,0.681,0.939,1.445,0.571,3.216c-0.18,0.904-0.475,1.799-0.856,2.636c-1.416,3.038-1.336,6.214-1.124,9.448
			c0.246,3.833-0.706,5.166-4.506,6.388l-2.493,30.068c0.996-0.194,1.71-0.322,2.874-0.558c-0.233,0.951-0.324,1.669-0.579,2.352
			c-0.866,2.365-1.809,4.716-2.657,7.08c-0.099,0.288,0.162,0.716,0.272,1.084c0.842-0.087,1.718-0.344,2.52-0.214
			c6.348,0.997,12.554,0.591,18.638-1.549c0.291-0.116,0.563-0.247,0.865-0.333c1.541-0.401,1.869-1.229,1.844-2.938
			c-0.127-7.471-0.205-14.958,0.158-22.415c0.494-9.66,0.223-19.133-3.484-28.249c-2.184-5.373-4.936-10.4-8.607-14.884
			c-1.198-1.472-1.978-2.761-1.031-4.61c0.112-0.253,0.05-0.602,0.08-0.943c-6.082-1.825-12.14-3.555-17.521-7.29
			c-3.179,4.472-6.488,8.924-9.586,13.514c-2.493,3.651-4.436,7.578-4.169,12.59c4.827-3.468,7.725-8.593,12.484-11.854
			c-0.102,0.287-0.102,0.648-0.285,0.851c-2.521,2.824-4.997,5.677-7.614,8.382c-1.411,1.467-3.011,2.764-4.621,4.003
			C12.465,138.25,11.915,140.21,13.959,142.369"/>
		<path fill-rule="evenodd" clip-rule="evenodd" fill="#FFFFFF" d="M35.149,192.383c0.014,0,0.014,0,0.03,0.003l0.003-0.015
			L35.149,192.383z"/>
		<path fill-rule="evenodd" clip-rule="evenodd" fill="#FFFFFF" d="M35.149,192.383c0.014,0.013,0.03,0.018,0.045,0.033
			c0-0.016-0.015-0.016-0.015-0.03l0.003-0.015L35.149,192.383z"/>
		<path fill-rule="evenodd" clip-rule="evenodd" fill="#54B47F" d="M35.184,192.365C34.047,190.698,35.184,192.365,35.184,192.365
			c0.87-2.09,0.765-6.846,1.692-9.242c-7.703,2.205-15.194,1.865-22.884-0.091c0.076,2.679,1.307,4.893,2.43,7.084"/>
		<path fill-rule="evenodd" clip-rule="evenodd" fill="#54B47F" d="M21.861,58.741c3.883,3.804,7.577,7.421,11.398,11.185
			C43.571,59.37,56.506,55.332,71.451,56.008c-0.555-1.21-1.012-2.274-1.52-3.294c-0.922-1.817-2.064-3.545-2.777-5.453
			c-1.258-3.397-3.246-4.712-7.109-4.583c-11.541,0.429-22.285,2.974-31.553,10.179C26.113,54.712,23.979,56.851,21.861,58.741"/>
		<path fill-rule="evenodd" clip-rule="evenodd" fill="#E14D4D" d="M18.613,57.274c0.78,0.314,1.501,0.824,2.285,1.281
			c11.473-12.79,26.149-17.325,43.219-16.642c-0.959-1.789-1.734-3.269-2.549-4.751c-0.521-0.977-1.252-1.875-1.605-2.917
			c-1.084-3.214-3.625-4.043-6.604-4.308c-8.306-0.7-16.216,0.806-23.789,4.204c-0.853,0.363-1.69,0.883-2.584,1.012
			c-2.471,0.356-3.58,1.926-4.274,4.139c-1.641,5.178-3.328,10.325-5.135,15.44C17.075,56.104,17.317,56.748,18.613,57.274"/>
		<path fill-rule="evenodd" clip-rule="evenodd" fill="#54B47F" d="M24.328,34.405c0.143,0.151,0.284,0.316,0.442,0.486
			c1.23-0.411,2.486-0.757,3.694-1.247c5.775-2.351,11.599-4.604,17.957-4.762c3.488-0.083,6.974,0.208,10.771,0.335
			c-2.328-3.583-4.615-7.095-6.938-10.587c-0.205-0.313-0.662-0.645-1.002-0.641c-4.623-0.15-9.245-0.268-13.874-0.309
			c-1.439-0.026-2.482,0.744-3.202,2.083C29.594,24.66,26.956,29.523,24.328,34.405"/>
		<path fill-rule="evenodd" clip-rule="evenodd" fill="#FFFFFF" d="M36.461,158.492c-6.077,0.546-11.836,0.541-17.586-2.167
			c-0.092,3.102-0.204,5.963-0.227,8.825c-0.003,0.304,0.463,0.681,0.796,0.909c3.413,2.32,11.944,2.336,15.35,0.007
			c0.31-0.214,0.589-0.641,0.652-1.01C35.813,162.932,36.115,160.795,36.461,158.492"/>
		<path fill-rule="evenodd" clip-rule="evenodd" fill="#FFFFFF" d="M60.875,188.398c0.449-1.62,1.188-3.224,1.295-4.869
			c0.23-3.44,0.225-6.911,0.143-10.366c-0.178-7.523-0.045-15.094-0.801-22.567c-1.131-11.24-5.15-21.557-11.703-30.823
			c-0.418-0.597-0.965-1.097-1.568-1.771c0.121-0.413,0.289-0.964,0.578-1.923c-0.732,0.309-1.486,0.423-1.535,0.677
			c-0.217,1.119-1.081,2.082-0.156,3.464c2.811,4.2,5.773,8.364,7.984,12.885c4.289,8.756,5.691,18.158,5.24,27.903
			c-0.396,8.641-0.518,17.29-0.729,25.937c-0.014,0.469,0.271,0.943,0.422,1.415C60.322,188.377,60.6,188.386,60.875,188.398"/>
		<path fill-rule="evenodd" clip-rule="evenodd" fill="#E14D4D" d="M18.069,146.783c0.22,2.615,0.396,5.157,0.698,7.687
			c0.059,0.41,0.63,0.876,1.059,1.096c4.82,2.439,9.972,2.521,15.181,2.1c1.114-0.081,1.811-0.662,1.854-1.896
			c0.032-1.16,0.176-2.319,0.251-3.262C30.533,150.533,24.362,148.67,18.069,146.783"/>
		<path fill-rule="evenodd" clip-rule="evenodd" fill="#E14D4D" d="M18.494,166.804c-0.075,2.416-0.181,4.633-0.192,6.837
			c-0.004,0.406,0.309,0.957,0.644,1.187c0.605,0.413,1.307,0.762,2.009,0.916c4.158,0.875,8.318,0.889,12.487-0.053
			c0.98-0.229,1.379-0.558,1.379-1.711c-0.018-2.202,0.306-4.414,0.51-6.9C29.55,169.164,24.023,169.625,18.494,166.804"/>
		<path fill-rule="evenodd" clip-rule="evenodd" fill="#E14D4D" d="M34.372,16.354c4.84,0.105,9.539,0.2,14.63,0.295
			c-2.472-2.815-4.799-5.463-7.383-8.413C39.152,11,36.718,13.736,34.372,16.354"/>
		<path fill-rule="evenodd" clip-rule="evenodd" fill="#54B47F" d="M14.659,145.563c0.932,5.652,1.864,11.294,2.795,16.95
			c0.227,0.009,0.429,0.012,0.66,0.021c-0.101-1.283-0.185-2.577-0.274-3.86c-0.008-0.183-0.024-0.379-0.042-0.571
			c-0.158-2.347-0.338-4.704-0.532-7.065c-0.105-1.315-0.21-2.634-0.342-3.952c-0.004-0.08-0.03-0.163-0.062-0.247
			c-0.064-0.166-0.166-0.307-0.29-0.468c-0.32-0.377-0.781-0.739-1.09-1.118C15.209,145.359,14.942,145.464,14.659,145.563"/>
		<path fill-rule="evenodd" clip-rule="evenodd" fill="#FFFFFF" d="M18.124,162.536c-0.098-1.282-0.185-2.569-0.282-3.861
			c0.086,1.283,0.172,2.579,0.271,3.861H18.124z"/>
		<path fill-rule="evenodd" clip-rule="evenodd" fill="#7E4E24" d="M16.427,61.551c2.75,1.833,1.981,4.92,2.671,7.48
			c0.184,0.653,0.476,1.267,0.717,1.917c0.188-0.063,0.395-0.139,0.585-0.204c-0.312-1.973-0.653-3.945-1.018-6.229
			c4.975,3.679,8.518,8.161,11.163,13.035c-1.141,0.735-2.486,1.192-3.237,2.133c-0.52,0.662-0.52,2.019-0.324,2.965
			c0.388,1.898,2.238,2.802,4.275,2.096c-2.145-0.746-4.272-1.596-3.34-4.201c0.917-2.556,2.976-1.03,4.866-0.78
			c-3.489-8.142-9.624-13.625-16.242-19.068C16.464,61.234,16.363,61.521,16.427,61.551"/>
		<path fill-rule="evenodd" clip-rule="evenodd" fill="#DCA0C7" d="M68.92,89c-0.436,0.409-0.881,1.042-0.934,1.619
			c-0.059,1.03,0.029,2.109,0.281,3.109c0.367,1.578,1.785,1.92,2.699,0.611c0.689-0.968,1.338-2.214,1.361-3.361
			c0.09-2.188-0.191-4.406-0.537-6.576c-0.084-0.487-1.033-1.109-1.621-1.159c-0.533-0.033-1.137,0.623-1.719,0.961
			c0.088,0.144,0.191,0.276,0.273,0.421c0.654-0.07,1.693-0.415,1.885-0.152c0.465,0.642,0.73,1.573,0.73,2.383
			c-0.008,1.831-0.125,3.687-0.365,5.501c-0.063,0.585-0.637,1.105-0.982,1.671c-0.215-0.03-0.414-0.065-0.605-0.097
			c-0.199-1.041-0.398-2.078-0.662-3.546c0.686,0.487,0.996,0.72,1.842,1.313c-0.17-1.122-0.148-1.835-0.41-2.382
			C70.016,89.057,69.104,88.823,68.92,89"/>
		<path fill-rule="evenodd" clip-rule="evenodd" fill="#1D1D1B" d="M65.838,66.563c1.414-0.213,2.844-0.581,4.256-0.569
			c0.98,0.026,1.938,0.62,2.93,0.949c0.43,0.161,0.873,0.289,1.328,0.438c0.098-0.491,0.262-0.988,0.34-1.493
			c0.066-0.419,0.023-0.84,0.037-1.259c-0.242-0.373-0.508-0.763-0.736-1.145c-1.238-1.957-3.426-2.775-5.424-2.019
			C66.641,62.207,65.48,64.417,65.838,66.563 M66.977,65.008c0.473-2.1,1.488-2.973,3.385-2.779
			c1.994,0.211,3.141,1.534,3.129,3.319L66.977,65.008z"/>
		<path fill-rule="evenodd" clip-rule="evenodd" d="M66.971,65.012l6.52,0.539c0.008-1.789-1.129-3.109-3.133-3.32
			C68.465,62.042,67.443,62.907,66.971,65.012"/>
		<path fill-rule="evenodd" clip-rule="evenodd" fill="#FFFFFF" d="M65.326,72.166c0,0,0.023,0.035,0.051,0.107
			c0.465,0.926,3.928,7.744,6.131,7.7c1.957,0.437,3.752-1.679,3.752-1.679c-0.014-0.004-0.014-0.017-0.014-0.017
			c-0.068-0.138-0.619-1.142-1.719-2.293c0,0,0-0.008-0.014-0.01c-0.133-0.148-0.295-0.298-0.451-0.458h-0.014
			C71.438,73.97,68.908,72.336,65.326,72.166"/>
		<path fill-rule="evenodd" clip-rule="evenodd" fill="#1D1D1B" d="M65.064,72.18c0.1,0.031,0.209,0.061,0.313,0.094
			c1.402,0.412,2.793,0.845,4.293,1.309c-0.025,0.863-0.135,1.776-0.084,2.678c0.055,0.723,0.123,1.558,0.508,2.105
			c0.422,0.569,1.549,1.287,1.834,1.105c0.781-0.479,1.254-1.408,1.953-2.285c0.311,0.245,0.752,0.611,1.365,1.093
			c0,0,0,0.012,0.014,0.012c0.016,0.014,0.041,0.038,0.063,0.053C75.008,74.938,69.057,71.225,65.064,72.18 M70.357,73.961
			c0.846,0.513,1.43,1.018,1.779,1.512c0.484,0.679,0.531,1.367,0.209,2.112c-0.115,0.285-0.303,0.589-0.535,0.9
			c-0.242,0.025-0.484,0.051-0.719,0.079C70.875,77.178,70.646,75.807,70.357,73.961"/>
		<path fill-rule="evenodd" clip-rule="evenodd" d="M70.352,73.962c0.299,1.847,0.523,3.214,0.736,4.6
			c0.238-0.025,0.486-0.053,0.723-0.079C73.07,76.786,72.805,75.471,70.352,73.962"/>
		<path fill-rule="evenodd" clip-rule="evenodd" fill="#FFFFFF" d="M71.438,76.404c-0.047,0.611,0.402,1.146,1.016,1.196
			c0.605,0.049,1.143-0.405,1.193-1.016c0.051-0.607-0.404-1.142-1.01-1.191C72.025,75.338,71.488,75.795,71.438,76.404"/>
	</g>
</g>
</svg>
