<svg width="1920" height="929" viewBox="0 0 1920 929" fill="none" xmlns="http://www.w3.org/2000/svg">
<g clip-path="url(#clip0_57_1813)">
<rect width="1920" height="929" fill="white"/>
<path d="M968.032 36C968.032 36 1083.69 94.957 1192.35 36C1272.91 65.3592 1305.02 76.3369 1416.24 39.8027C1523.97 77.2757 1578.3 63.1073 1642 36" stroke="#D8D8D8" stroke-miterlimit="10"/>
<path d="M989.584 44.9374C989.584 44.9374 978.297 42.1444 981.576 59.9434C981.576 59.9434 973.704 73.5273 989.584 92.2633C1003.59 76.8053 995.628 59.0072 995.628 59.0072C995.628 59.0072 995.16 44.7775 989.584 44.9374Z" fill="#EE2724"/>
<path d="M989.584 44.9374C989.584 44.9374 978.297 42.1444 981.576 59.9434C981.576 59.9434 973.704 73.5273 989.584 92.2633C1003.59 76.8053 995.628 59.0072 995.628 59.0072C995.628 59.0072 995.16 44.7775 989.584 44.9374Z" stroke="black" stroke-miterlimit="10"/>
<path d="M981.577 59.9445H995.628C995.628 59.9445 995.436 43.6505 989.584 44.9377C983.733 46.2266 979.704 44.9567 981.577 59.9445Z" fill="black"/>
<path d="M981.577 59.9445H995.628C995.628 59.9445 995.436 43.6505 989.584 44.9377C983.733 46.2266 979.704 44.9567 981.577 59.9445Z" stroke="black" stroke-miterlimit="10"/>
<path d="M1047 60.1051C1047 60.1051 1035.72 57.3111 1038.99 75.1101C1038.99 75.1101 1031.12 88.6923 1047 107.429C1061.01 91.9729 1053.05 74.173 1053.05 74.173C1053.05 74.173 1052.58 59.9443 1047 60.1051Z" fill="#EBE846"/>
<path d="M1047 60.1051C1047 60.1051 1035.72 57.3111 1038.99 75.1101C1038.99 75.1101 1031.12 88.6923 1047 107.429C1061.01 91.9729 1053.05 74.173 1053.05 74.173C1053.05 74.173 1052.58 59.9443 1047 60.1051Z" stroke="black" stroke-miterlimit="10"/>
<path d="M1038.99 75.1102H1053.05C1053.05 75.1102 1052.85 58.8154 1047 60.1052C1041.15 61.3915 1037.12 60.1224 1038.99 75.1102Z" fill="black"/>
<path d="M1038.99 75.1102H1053.05C1053.05 75.1102 1052.85 58.8154 1047 60.1052C1041.15 61.3915 1037.12 60.1224 1038.99 75.1102Z" stroke="black" stroke-miterlimit="10"/>
<path d="M1101.73 60.1051C1101.73 60.1051 1090.44 57.3111 1093.72 75.1101C1093.72 75.1101 1085.85 88.6923 1101.73 107.429C1115.73 91.9729 1107.77 74.173 1107.77 74.173C1107.77 74.173 1107.3 59.9443 1101.73 60.1051Z" fill="#1F3A6F"/>
<path d="M1101.73 60.1051C1101.73 60.1051 1090.44 57.3111 1093.72 75.1101C1093.72 75.1101 1085.85 88.6923 1101.73 107.429C1115.73 91.9729 1107.77 74.173 1107.77 74.173C1107.77 74.173 1107.3 59.9443 1101.73 60.1051Z" stroke="black" stroke-miterlimit="10"/>
<path d="M1093.72 75.1102H1107.77C1107.77 75.1102 1107.58 58.8154 1101.73 60.1052C1095.88 61.3915 1091.85 60.1224 1093.72 75.1102Z" fill="black"/>
<path d="M1093.72 75.1102H1107.77C1107.77 75.1102 1107.58 58.8154 1101.73 60.1052C1095.88 61.3915 1091.85 60.1224 1093.72 75.1102Z" stroke="black" stroke-miterlimit="10"/>
<path d="M1157.27 51.528C1157.27 51.528 1145.98 48.735 1149.26 66.534C1149.26 66.534 1141.39 80.1188 1157.27 98.8522C1171.27 83.3968 1163.31 65.5969 1163.31 65.5969C1163.31 65.5969 1162.84 51.3672 1157.27 51.528Z" fill="#85C550"/>
<path d="M1157.27 51.528C1157.27 51.528 1145.98 48.735 1149.26 66.534C1149.26 66.534 1141.39 80.1188 1157.27 98.8522C1171.27 83.3968 1163.31 65.5969 1163.31 65.5969C1163.31 65.5969 1162.84 51.3672 1157.27 51.528Z" stroke="black" stroke-miterlimit="10"/>
<path d="M1149.26 66.5341H1163.31C1163.31 66.5341 1163.12 50.2401 1157.27 51.5281C1151.41 52.8161 1147.39 51.5463 1149.26 66.5341Z" fill="black"/>
<path d="M1149.26 66.5341H1163.31C1163.31 66.5341 1163.12 50.2401 1157.27 51.5281C1151.41 52.8161 1147.39 51.5463 1149.26 66.5341Z" stroke="black" stroke-miterlimit="10"/>
<path d="M1214.44 44.9374C1214.44 44.9374 1203.15 42.1444 1206.43 59.9434C1206.43 59.9434 1198.55 73.5273 1214.44 92.2633C1228.44 76.8053 1220.48 59.0072 1220.48 59.0072C1220.48 59.0072 1220.01 44.7775 1214.44 44.9374Z" fill="#D44799"/>
<path d="M1214.44 44.9374C1214.44 44.9374 1203.15 42.1444 1206.43 59.9434C1206.43 59.9434 1198.55 73.5273 1214.44 92.2633C1228.44 76.8053 1220.48 59.0072 1220.48 59.0072C1220.48 59.0072 1220.01 44.7775 1214.44 44.9374Z" stroke="black" stroke-miterlimit="10"/>
<path d="M1206.43 59.9445H1220.48C1220.48 59.9445 1220.28 43.6505 1214.44 44.9377C1208.58 46.2266 1204.55 44.9567 1206.43 59.9445Z" fill="black"/>
<path d="M1206.43 59.9445H1220.48C1220.48 59.9445 1220.28 43.6505 1214.44 44.9377C1208.58 46.2266 1204.55 44.9567 1206.43 59.9445Z" stroke="black" stroke-miterlimit="10"/>
<path d="M1272.1 60.1051C1272.1 60.1051 1260.82 57.3111 1264.1 75.1101C1264.1 75.1101 1256.23 88.6923 1272.1 107.429C1286.11 91.9729 1278.15 74.173 1278.15 74.173C1278.15 74.173 1277.68 59.9443 1272.1 60.1051Z" fill="#EE2724"/>
<path d="M1272.1 60.1051C1272.1 60.1051 1260.82 57.3111 1264.1 75.1101C1264.1 75.1101 1256.23 88.6923 1272.1 107.429C1286.11 91.9729 1278.15 74.173 1278.15 74.173C1278.15 74.173 1277.68 59.9443 1272.1 60.1051Z" stroke="black" stroke-miterlimit="10"/>
<path d="M1264.1 75.1102H1278.15C1278.15 75.1102 1277.95 58.8154 1272.1 60.1052C1266.25 61.3915 1262.22 60.1224 1264.1 75.1102Z" fill="black"/>
<path d="M1264.1 75.1102H1278.15C1278.15 75.1102 1277.95 58.8154 1272.1 60.1052C1266.25 61.3915 1262.22 60.1224 1264.1 75.1102Z" stroke="black" stroke-miterlimit="10"/>
<path d="M1328.56 60.1051C1328.56 60.1051 1317.27 57.3111 1320.55 75.1101C1320.55 75.1101 1312.68 88.6923 1328.56 107.429C1342.57 91.9729 1334.6 74.173 1334.6 74.173C1334.6 74.173 1334.14 59.9443 1328.56 60.1051Z" fill="#EBE846"/>
<path d="M1328.56 60.1051C1328.56 60.1051 1317.27 57.3111 1320.55 75.1101C1320.55 75.1101 1312.68 88.6923 1328.56 107.429C1342.57 91.9729 1334.6 74.173 1334.6 74.173C1334.6 74.173 1334.14 59.9443 1328.56 60.1051Z" stroke="black" stroke-miterlimit="10"/>
<path d="M1320.55 75.1102H1334.6C1334.6 75.1102 1334.41 58.8154 1328.56 60.1052C1322.71 61.3915 1318.68 60.1224 1320.55 75.1102Z" fill="black"/>
<path d="M1320.55 75.1102H1334.6C1334.6 75.1102 1334.41 58.8154 1328.56 60.1052C1322.71 61.3915 1318.68 60.1224 1320.55 75.1102Z" stroke="black" stroke-miterlimit="10"/>
<path d="M1382.05 51.528C1382.05 51.528 1370.76 48.735 1374.04 66.534C1374.04 66.534 1366.17 80.1188 1382.05 98.8522C1396.05 83.3968 1388.09 65.5969 1388.09 65.5969C1388.09 65.5969 1387.62 51.3672 1382.05 51.528Z" fill="#1F3A6F"/>
<path d="M1382.05 51.528C1382.05 51.528 1370.76 48.735 1374.04 66.534C1374.04 66.534 1366.17 80.1188 1382.05 98.8522C1396.05 83.3968 1388.09 65.5969 1388.09 65.5969C1388.09 65.5969 1387.62 51.3672 1382.05 51.528Z" stroke="black" stroke-miterlimit="10"/>
<path d="M1374.04 66.5341H1388.09C1388.09 66.5341 1387.89 50.2401 1382.05 51.5281C1376.19 52.8161 1372.16 51.5463 1374.04 66.5341Z" fill="black"/>
<path d="M1374.04 66.5341H1388.09C1388.09 66.5341 1387.89 50.2401 1382.05 51.5281C1376.19 52.8161 1372.16 51.5463 1374.04 66.5341Z" stroke="black" stroke-miterlimit="10"/>
<path d="M1440.47 44.9374C1440.47 44.9374 1429.19 42.1444 1432.46 59.9434C1432.46 59.9434 1424.59 73.5273 1440.47 92.2633C1454.48 76.8053 1446.52 59.0072 1446.52 59.0072C1446.52 59.0072 1446.05 44.7775 1440.47 44.9374Z" fill="#85C550"/>
<path d="M1440.47 44.9374C1440.47 44.9374 1429.19 42.1444 1432.46 59.9434C1432.46 59.9434 1424.59 73.5273 1440.47 92.2633C1454.48 76.8053 1446.52 59.0072 1446.52 59.0072C1446.52 59.0072 1446.05 44.7775 1440.47 44.9374Z" stroke="black" stroke-miterlimit="10"/>
<path d="M1432.46 59.9445H1446.52C1446.52 59.9445 1446.32 43.6505 1440.47 44.9377C1434.62 46.2266 1430.59 44.9567 1432.46 59.9445Z" fill="black"/>
<path d="M1432.46 59.9445H1446.52C1446.52 59.9445 1446.32 43.6505 1440.47 44.9377C1434.62 46.2266 1430.59 44.9567 1432.46 59.9445Z" stroke="black" stroke-miterlimit="10"/>
<path d="M1496.05 60.1051C1496.05 60.1051 1484.77 57.3111 1488.05 75.1101C1488.05 75.1101 1480.17 88.6923 1496.05 107.429C1510.06 91.9729 1502.1 74.173 1502.1 74.173C1502.1 74.173 1501.63 59.9443 1496.05 60.1051Z" fill="#D44799"/>
<path d="M1496.05 60.1051C1496.05 60.1051 1484.77 57.3111 1488.05 75.1101C1488.05 75.1101 1480.17 88.6923 1496.05 107.429C1510.06 91.9729 1502.1 74.173 1502.1 74.173C1502.1 74.173 1501.63 59.9443 1496.05 60.1051Z" stroke="black" stroke-miterlimit="10"/>
<path d="M1488.05 75.1102H1502.1C1502.1 75.1102 1501.9 58.8154 1496.05 60.1052C1490.2 61.3915 1486.17 60.1224 1488.05 75.1102Z" fill="black"/>
<path d="M1488.05 75.1102H1502.1C1502.1 75.1102 1501.9 58.8154 1496.05 60.1052C1490.2 61.3915 1486.17 60.1224 1488.05 75.1102Z" stroke="black" stroke-miterlimit="10"/>
<path d="M1549.65 63.0771C1549.65 63.0771 1538.37 60.2841 1541.65 78.083C1541.65 78.083 1533.77 91.6652 1549.65 110.401C1563.66 94.9458 1555.7 77.145 1555.7 77.145C1555.7 77.145 1555.23 62.9172 1549.65 63.0771Z" fill="#EE2724"/>
<path d="M1549.65 63.0771C1549.65 63.0771 1538.37 60.2841 1541.65 78.083C1541.65 78.083 1533.77 91.6652 1549.65 110.401C1563.66 94.9458 1555.7 77.145 1555.7 77.145C1555.7 77.145 1555.23 62.9172 1549.65 63.0771Z" stroke="black" stroke-miterlimit="10"/>
<path d="M1541.65 78.0832H1555.7C1555.7 78.0832 1555.51 61.7884 1549.65 63.0773C1543.8 64.3653 1539.77 63.0963 1541.65 78.0832Z" fill="black"/>
<path d="M1541.65 78.0832H1555.7C1555.7 78.0832 1555.51 61.7884 1549.65 63.0773C1543.8 64.3653 1539.77 63.0963 1541.65 78.0832Z" stroke="black" stroke-miterlimit="10"/>
<path d="M1608.74 51.528C1608.74 51.528 1597.46 48.735 1600.74 66.534C1600.74 66.534 1592.87 80.1188 1608.74 98.8522C1622.75 83.3968 1614.79 65.5969 1614.79 65.5969C1614.79 65.5969 1614.32 51.3672 1608.74 51.528Z" fill="#EBE846"/>
<path d="M1608.74 51.528C1608.74 51.528 1597.46 48.735 1600.74 66.534C1600.74 66.534 1592.87 80.1188 1608.74 98.8522C1622.75 83.3968 1614.79 65.5969 1614.79 65.5969C1614.79 65.5969 1614.32 51.3672 1608.74 51.528Z" stroke="black" stroke-miterlimit="10"/>
<path d="M1600.74 66.5341H1614.79C1614.79 66.5341 1614.6 50.2401 1608.74 51.5281C1602.89 52.8161 1598.86 51.5463 1600.74 66.5341Z" fill="black"/>
<path d="M1600.74 66.5341H1614.79C1614.79 66.5341 1614.6 50.2401 1608.74 51.5281C1602.89 52.8161 1598.86 51.5463 1600.74 66.5341Z" stroke="black" stroke-miterlimit="10"/>
<path d="M294 36C294 36 409.654 94.957 518.317 36C598.881 65.3592 630.984 76.3369 742.207 39.8027C849.935 77.2757 904.269 63.1073 967.968 36" stroke="#D8D8D8" stroke-miterlimit="10"/>
<path d="M315.552 44.9374C315.552 44.9374 304.265 42.1444 307.544 59.9434C307.544 59.9434 299.673 73.5273 315.552 92.2633C329.56 76.8053 321.596 59.0072 321.596 59.0072C321.596 59.0072 321.128 44.7775 315.552 44.9374Z" fill="#EE2724"/>
<path d="M315.552 44.9374C315.552 44.9374 304.265 42.1444 307.544 59.9434C307.544 59.9434 299.673 73.5273 315.552 92.2633C329.56 76.8053 321.596 59.0072 321.596 59.0072C321.596 59.0072 321.128 44.7775 315.552 44.9374Z" stroke="black" stroke-miterlimit="10"/>
<path d="M307.545 59.9445H321.596C321.596 59.9445 321.404 43.6505 315.553 44.9377C309.701 46.2266 305.672 44.9567 307.545 59.9445Z" fill="black"/>
<path d="M307.545 59.9445H321.596C321.596 59.9445 321.404 43.6505 315.553 44.9377C309.701 46.2266 305.672 44.9567 307.545 59.9445Z" stroke="black" stroke-miterlimit="10"/>
<path d="M372.971 60.1051C372.971 60.1051 361.684 57.3111 364.963 75.1101C364.963 75.1101 357.091 88.6923 372.971 107.429C386.978 91.9729 379.016 74.173 379.016 74.173C379.016 74.173 378.546 59.9443 372.971 60.1051Z" fill="#EBE846"/>
<path d="M372.971 60.1051C372.971 60.1051 361.684 57.3111 364.963 75.1101C364.963 75.1101 357.091 88.6923 372.971 107.429C386.978 91.9729 379.016 74.173 379.016 74.173C379.016 74.173 378.546 59.9443 372.971 60.1051Z" stroke="black" stroke-miterlimit="10"/>
<path d="M364.963 75.1102H379.016C379.016 75.1102 378.822 58.8154 372.971 60.1052C367.122 61.3915 363.09 60.1224 364.963 75.1102Z" fill="black"/>
<path d="M364.963 75.1102H379.016C379.016 75.1102 378.822 58.8154 372.971 60.1052C367.122 61.3915 363.09 60.1224 364.963 75.1102Z" stroke="black" stroke-miterlimit="10"/>
<path d="M427.695 60.1051C427.695 60.1051 416.408 57.3111 419.687 75.1101C419.687 75.1101 411.816 88.6923 427.695 107.429C441.701 91.9729 433.738 74.173 433.738 74.173C433.738 74.173 433.27 59.9443 427.695 60.1051Z" fill="#1F3A6F"/>
<path d="M427.695 60.1051C427.695 60.1051 416.408 57.3111 419.687 75.1101C419.687 75.1101 411.816 88.6923 427.695 107.429C441.701 91.9729 433.738 74.173 433.738 74.173C433.738 74.173 433.27 59.9443 427.695 60.1051Z" stroke="black" stroke-miterlimit="10"/>
<path d="M419.688 75.1102H433.738C433.738 75.1102 433.546 58.8154 427.695 60.1052C421.846 61.3915 417.814 60.1224 419.688 75.1102Z" fill="black"/>
<path d="M419.688 75.1102H433.738C433.738 75.1102 433.546 58.8154 427.695 60.1052C421.846 61.3915 417.814 60.1224 419.688 75.1102Z" stroke="black" stroke-miterlimit="10"/>
<path d="M483.234 51.528C483.234 51.528 471.947 48.735 475.225 66.534C475.225 66.534 467.354 80.1188 483.234 98.8522C497.242 83.3968 489.277 65.5969 489.277 65.5969C489.277 65.5969 488.809 51.3672 483.234 51.528Z" fill="#85C550"/>
<path d="M483.234 51.528C483.234 51.528 471.947 48.735 475.225 66.534C475.225 66.534 467.354 80.1188 483.234 98.8522C497.242 83.3968 489.277 65.5969 489.277 65.5969C489.277 65.5969 488.809 51.3672 483.234 51.528Z" stroke="black" stroke-miterlimit="10"/>
<path d="M475.225 66.5341H489.277C489.277 66.5341 489.085 50.2401 483.234 51.5281C477.382 52.8161 473.354 51.5463 475.225 66.5341Z" fill="black"/>
<path d="M475.225 66.5341H489.277C489.277 66.5341 489.085 50.2401 483.234 51.5281C477.382 52.8161 473.354 51.5463 475.225 66.5341Z" stroke="black" stroke-miterlimit="10"/>
<path d="M540.404 44.9374C540.404 44.9374 529.117 42.1444 532.395 59.9434C532.395 59.9434 524.523 73.5273 540.404 92.2633C554.409 76.8053 546.446 59.0072 546.446 59.0072C546.446 59.0072 545.979 44.7775 540.404 44.9374Z" fill="#D44799"/>
<path d="M540.404 44.9374C540.404 44.9374 529.117 42.1444 532.395 59.9434C532.395 59.9434 524.523 73.5273 540.404 92.2633C554.409 76.8053 546.446 59.0072 546.446 59.0072C546.446 59.0072 545.979 44.7775 540.404 44.9374Z" stroke="black" stroke-miterlimit="10"/>
<path d="M532.395 59.9445H546.446C546.446 59.9445 546.253 43.6505 540.404 44.9377C534.552 46.2266 530.521 44.9567 532.395 59.9445Z" fill="black"/>
<path d="M532.395 59.9445H546.446C546.446 59.9445 546.253 43.6505 540.404 44.9377C534.552 46.2266 530.521 44.9567 532.395 59.9445Z" stroke="black" stroke-miterlimit="10"/>
<path d="M598.073 60.1051C598.073 60.1051 586.786 57.3111 590.064 75.1101C590.064 75.1101 582.194 88.6923 598.073 107.429C612.078 91.9729 604.116 74.173 604.116 74.173C604.116 74.173 603.648 59.9443 598.073 60.1051Z" fill="#EE2724"/>
<path d="M598.073 60.1051C598.073 60.1051 586.786 57.3111 590.064 75.1101C590.064 75.1101 582.194 88.6923 598.073 107.429C612.078 91.9729 604.116 74.173 604.116 74.173C604.116 74.173 603.648 59.9443 598.073 60.1051Z" stroke="black" stroke-miterlimit="10"/>
<path d="M590.063 75.1102H604.115C604.115 75.1102 603.921 58.8154 598.073 60.1052C592.221 61.3915 588.189 60.1224 590.063 75.1102Z" fill="black"/>
<path d="M590.063 75.1102H604.115C604.115 75.1102 603.921 58.8154 598.073 60.1052C592.221 61.3915 588.189 60.1224 590.063 75.1102Z" stroke="black" stroke-miterlimit="10"/>
<path d="M654.529 60.1051C654.529 60.1051 643.242 57.3111 646.522 75.1101C646.522 75.1101 638.648 88.6923 654.529 107.429C668.536 91.9729 660.571 74.173 660.571 74.173C660.571 74.173 660.104 59.9443 654.529 60.1051Z" fill="#EBE846"/>
<path d="M654.529 60.1051C654.529 60.1051 643.242 57.3111 646.522 75.1101C646.522 75.1101 638.648 88.6923 654.529 107.429C668.536 91.9729 660.571 74.173 660.571 74.173C660.571 74.173 660.104 59.9443 654.529 60.1051Z" stroke="black" stroke-miterlimit="10"/>
<path d="M646.522 75.1102H660.571C660.571 75.1102 660.38 58.8154 654.529 60.1052C648.68 61.3915 644.648 60.1224 646.522 75.1102Z" fill="black"/>
<path d="M646.522 75.1102H660.571C660.571 75.1102 660.38 58.8154 654.529 60.1052C648.68 61.3915 644.648 60.1224 646.522 75.1102Z" stroke="black" stroke-miterlimit="10"/>
<path d="M708.015 51.528C708.015 51.528 696.728 48.735 700.006 66.534C700.006 66.534 692.136 80.1188 708.015 98.8522C722.02 83.3968 714.057 65.5969 714.057 65.5969C714.057 65.5969 713.59 51.3672 708.015 51.528Z" fill="#1F3A6F"/>
<path d="M708.015 51.528C708.015 51.528 696.728 48.735 700.006 66.534C700.006 66.534 692.136 80.1188 708.015 98.8522C722.02 83.3968 714.057 65.5969 714.057 65.5969C714.057 65.5969 713.59 51.3672 708.015 51.528Z" stroke="black" stroke-miterlimit="10"/>
<path d="M700.006 66.5341H714.057C714.057 66.5341 713.863 50.2401 708.015 51.5281C702.163 52.8161 698.131 51.5463 700.006 66.5341Z" fill="black"/>
<path d="M700.006 66.5341H714.057C714.057 66.5341 713.863 50.2401 708.015 51.5281C702.163 52.8161 698.131 51.5463 700.006 66.5341Z" stroke="black" stroke-miterlimit="10"/>
<path d="M766.44 44.9374C766.44 44.9374 755.153 42.1444 758.433 59.9434C758.433 59.9434 750.559 73.5273 766.44 92.2633C780.446 76.8053 772.485 59.0072 772.485 59.0072C772.485 59.0072 772.014 44.7775 766.44 44.9374Z" fill="#85C550"/>
<path d="M766.44 44.9374C766.44 44.9374 755.153 42.1444 758.433 59.9434C758.433 59.9434 750.559 73.5273 766.44 92.2633C780.446 76.8053 772.485 59.0072 772.485 59.0072C772.485 59.0072 772.014 44.7775 766.44 44.9374Z" stroke="black" stroke-miterlimit="10"/>
<path d="M758.433 59.9445H772.485C772.485 59.9445 772.29 43.6505 766.44 44.9377C760.591 46.2266 756.559 44.9567 758.433 59.9445Z" fill="black"/>
<path d="M758.433 59.9445H772.485C772.485 59.9445 772.29 43.6505 766.44 44.9377C760.591 46.2266 756.559 44.9567 758.433 59.9445Z" stroke="black" stroke-miterlimit="10"/>
<path d="M822.021 60.1051C822.021 60.1051 810.734 57.3111 814.014 75.1101C814.014 75.1101 806.139 88.6923 822.021 107.429C836.028 91.9729 828.063 74.173 828.063 74.173C828.063 74.173 827.597 59.9443 822.021 60.1051Z" fill="#D44799"/>
<path d="M822.021 60.1051C822.021 60.1051 810.734 57.3111 814.014 75.1101C814.014 75.1101 806.139 88.6923 822.021 107.429C836.028 91.9729 828.063 74.173 828.063 74.173C828.063 74.173 827.597 59.9443 822.021 60.1051Z" stroke="black" stroke-miterlimit="10"/>
<path d="M814.015 75.1102H828.064C828.064 75.1102 827.873 58.8154 822.022 60.1052C816.173 61.3915 812.14 60.1224 814.015 75.1102Z" fill="black"/>
<path d="M814.015 75.1102H828.064C828.064 75.1102 827.873 58.8154 822.022 60.1052C816.173 61.3915 812.14 60.1224 814.015 75.1102Z" stroke="black" stroke-miterlimit="10"/>
<path d="M875.623 63.0771C875.623 63.0771 864.337 60.2841 867.615 78.083C867.615 78.083 859.742 91.6652 875.623 110.401C889.629 94.9458 881.667 77.145 881.667 77.145C881.667 77.145 881.198 62.9172 875.623 63.0771Z" fill="#EE2724"/>
<path d="M875.623 63.0771C875.623 63.0771 864.337 60.2841 867.615 78.083C867.615 78.083 859.742 91.6652 875.623 110.401C889.629 94.9458 881.667 77.145 881.667 77.145C881.667 77.145 881.198 62.9172 875.623 63.0771Z" stroke="black" stroke-miterlimit="10"/>
<path d="M867.616 78.0832H881.668C881.668 78.0832 881.475 61.7884 875.624 63.0773C869.773 64.3653 865.742 63.0963 867.616 78.0832Z" fill="black"/>
<path d="M867.616 78.0832H881.668C881.668 78.0832 881.475 61.7884 875.624 63.0773C869.773 64.3653 865.742 63.0963 867.616 78.0832Z" stroke="black" stroke-miterlimit="10"/>
<path d="M934.712 51.528C934.712 51.528 923.427 48.735 926.705 66.534C926.705 66.534 918.834 80.1188 934.712 98.8522C948.719 83.3968 940.756 65.5969 940.756 65.5969C940.756 65.5969 940.287 51.3672 934.712 51.528Z" fill="#EBE846"/>
<path d="M934.712 51.528C934.712 51.528 923.427 48.735 926.705 66.534C926.705 66.534 918.834 80.1188 934.712 98.8522C948.719 83.3968 940.756 65.5969 940.756 65.5969C940.756 65.5969 940.287 51.3672 934.712 51.528Z" stroke="black" stroke-miterlimit="10"/>
<path d="M926.705 66.5341H940.756C940.756 66.5341 940.563 50.2401 934.712 51.5281C928.862 52.8161 924.83 51.5463 926.705 66.5341Z" fill="black"/>
<path d="M926.705 66.5341H940.756C940.756 66.5341 940.563 50.2401 934.712 51.5281C928.862 52.8161 924.83 51.5463 926.705 66.5341Z" stroke="black" stroke-miterlimit="10"/>
<path d="M1638.9 38C1638.9 38 1730.79 129.696 1852.33 107.052C1919.94 159.785 1947.11 180.112 2064.18 179.59C2155.14 248.405 2211.19 251.651 2280.14 245.468" stroke="#D8D8D8" stroke-miterlimit="10"/>
<path d="M1656.66 53.138C1656.66 53.138 1646.78 47.0061 1644.42 64.9501C1644.42 64.9501 1632.75 75.4512 1642.09 98.1658C1660.18 87.7703 1658.08 68.3849 1658.08 68.3849C1658.08 68.3849 1662.01 54.7022 1656.66 53.138Z" fill="#EE2724"/>
<path d="M1656.66 53.138C1656.66 53.138 1646.78 47.0061 1644.42 64.9501C1644.42 64.9501 1632.75 75.4512 1642.09 98.1658C1660.18 87.7703 1658.08 68.3849 1658.08 68.3849C1658.08 68.3849 1662.01 54.7022 1656.66 53.138Z" stroke="black" stroke-miterlimit="10"/>
<path d="M1644.42 64.9512L1657.79 69.2764C1657.79 69.2764 1662.62 53.7146 1656.66 53.138C1650.69 52.5631 1647.25 50.1145 1644.42 64.9512Z" fill="black"/>
<path d="M1644.42 64.9512L1657.79 69.2764C1657.79 69.2764 1662.62 53.7146 1656.66 53.138C1650.69 52.5631 1647.25 50.1145 1644.42 64.9512Z" stroke="black" stroke-miterlimit="10"/>
<path d="M1706.62 85.2444C1706.62 85.2444 1696.74 79.1116 1694.38 97.0556C1694.38 97.0556 1682.71 107.555 1692.05 130.271C1710.14 119.877 1708.04 100.49 1708.04 100.49C1708.04 100.49 1711.97 86.8075 1706.62 85.2444Z" fill="#EBE846"/>
<path d="M1706.62 85.2444C1706.62 85.2444 1696.74 79.1116 1694.38 97.0556C1694.38 97.0556 1682.71 107.555 1692.05 130.271C1710.14 119.877 1708.04 100.49 1708.04 100.49C1708.04 100.49 1711.97 86.8075 1706.62 85.2444Z" stroke="black" stroke-miterlimit="10"/>
<path d="M1694.38 97.0555L1707.75 101.382C1707.75 101.382 1712.58 85.8184 1706.62 85.2443C1700.66 84.6677 1697.21 82.2191 1694.38 97.0555Z" fill="black"/>
<path d="M1694.38 97.0555L1707.75 101.382C1707.75 101.382 1712.58 85.8184 1706.62 85.2443C1700.66 84.6677 1697.21 82.2191 1694.38 97.0555Z" stroke="black" stroke-miterlimit="10"/>
<path d="M1758.69 102.09C1758.69 102.09 1748.81 95.9573 1746.45 113.902C1746.45 113.902 1734.78 124.401 1744.12 147.116C1762.2 136.722 1760.1 117.335 1760.1 117.335C1760.1 117.335 1764.04 103.653 1758.69 102.09Z" fill="#1F3A6F"/>
<path d="M1758.69 102.09C1758.69 102.09 1748.81 95.9573 1746.45 113.902C1746.45 113.902 1734.78 124.401 1744.12 147.116C1762.2 136.722 1760.1 117.335 1760.1 117.335C1760.1 117.335 1764.04 103.653 1758.69 102.09Z" stroke="black" stroke-miterlimit="10"/>
<path d="M1746.45 113.902L1759.82 118.227C1759.82 118.227 1764.65 102.664 1758.69 102.09C1752.72 101.513 1749.28 99.0648 1746.45 113.902Z" fill="black"/>
<path d="M1746.45 113.902L1759.82 118.227C1759.82 118.227 1764.65 102.664 1758.69 102.09C1752.72 101.513 1749.28 99.0648 1746.45 113.902Z" stroke="black" stroke-miterlimit="10"/>
<path d="M1814.17 111.026C1814.17 111.026 1804.29 104.894 1801.93 122.838C1801.93 122.838 1790.26 133.34 1799.6 156.052C1817.69 145.659 1815.59 126.272 1815.59 126.272C1815.59 126.272 1819.52 112.589 1814.17 111.026Z" fill="#85C550"/>
<path d="M1814.17 111.026C1814.17 111.026 1804.29 104.894 1801.93 122.838C1801.93 122.838 1790.26 133.34 1799.6 156.052C1817.69 145.659 1815.59 126.272 1815.59 126.272C1815.59 126.272 1819.52 112.589 1814.17 111.026Z" stroke="black" stroke-miterlimit="10"/>
<path d="M1801.93 122.838L1815.3 127.164C1815.3 127.164 1820.13 111.602 1814.17 111.026C1808.2 110.45 1804.76 108.002 1801.93 122.838Z" fill="black"/>
<path d="M1801.93 122.838L1815.3 127.164C1815.3 127.164 1820.13 111.602 1814.17 111.026C1808.2 110.45 1804.76 108.002 1801.93 122.838Z" stroke="black" stroke-miterlimit="10"/>
<path d="M1870.59 122.354C1870.59 122.354 1860.71 116.222 1858.35 134.166C1858.35 134.166 1846.68 144.667 1856.02 167.382C1874.11 156.986 1872.01 137.601 1872.01 137.601C1872.01 137.601 1875.94 123.918 1870.59 122.354Z" fill="#D44799"/>
<path d="M1870.59 122.354C1870.59 122.354 1860.71 116.222 1858.35 134.166C1858.35 134.166 1846.68 144.667 1856.02 167.382C1874.11 156.986 1872.01 137.601 1872.01 137.601C1872.01 137.601 1875.94 123.918 1870.59 122.354Z" stroke="black" stroke-miterlimit="10"/>
<path d="M1858.35 134.167L1871.72 138.492C1871.72 138.492 1876.55 122.93 1870.59 122.354C1864.63 121.779 1861.18 119.33 1858.35 134.167Z" fill="black"/>
<path d="M1858.35 134.167L1871.72 138.492C1871.72 138.492 1876.55 122.93 1870.59 122.354C1864.63 121.779 1861.18 119.33 1858.35 134.167Z" stroke="black" stroke-miterlimit="10"/>
<path d="M1920.79 154.538C1920.79 154.538 1910.91 148.405 1908.55 166.349C1908.55 166.349 1896.88 176.849 1906.22 199.564C1924.31 189.169 1922.21 169.783 1922.21 169.783C1922.21 169.783 1926.14 156.101 1920.79 154.538Z" fill="#EE2724"/>
<path d="M1920.79 154.538C1920.79 154.538 1910.91 148.405 1908.55 166.349C1908.55 166.349 1896.88 176.849 1906.22 199.564C1924.31 189.169 1922.21 169.783 1922.21 169.783C1922.21 169.783 1926.14 156.101 1920.79 154.538Z" stroke="black" stroke-miterlimit="10"/>
<path d="M1908.55 166.349L1921.92 170.674C1921.92 170.674 1926.75 155.111 1920.79 154.538C1914.83 153.96 1911.38 151.512 1908.55 166.349Z" fill="black"/>
<path d="M1908.55 166.349L1921.92 170.674C1921.92 170.674 1926.75 155.111 1920.79 154.538C1914.83 153.96 1911.38 151.512 1908.55 166.349Z" stroke="black" stroke-miterlimit="10"/>
<path d="M-342.954 259.89C-342.954 259.89 -214.229 276.674 -131.611 184.707C-45.8672 185.366 -11.9418 184.949 80.6033 113.25C194.659 112.449 241.102 80.8892 292.032 34" stroke="#D8D8D8" stroke-miterlimit="10"/>
<path d="M4.80085 161.765C4.80085 161.765 -6.76985 162.915 2.28656 178.585C2.28656 178.585 -0.579928 194.021 20.6622 206.352C28.6791 187.094 15.2089 172.994 15.2089 172.994C15.2089 172.994 9.99933 159.745 4.80085 161.765Z" fill="#EBE846"/>
<path d="M4.80085 161.765C4.80085 161.765 -6.76985 162.915 2.28656 178.585C2.28656 178.585 -0.579928 194.021 20.6622 206.352C28.6791 187.094 15.2089 172.994 15.2089 172.994C15.2089 172.994 9.99933 159.745 4.80085 161.765Z" stroke="black" stroke-miterlimit="10"/>
<path d="M2.28695 178.585L15.5234 173.877C15.5234 173.877 9.88196 158.588 4.80124 161.765C-0.278189 164.937 -4.50214 165.093 2.28695 178.585Z" fill="black"/>
<path d="M2.28695 178.585L15.5234 173.877C15.5234 173.877 9.88196 158.588 4.80124 161.765C-0.278189 164.937 -4.50214 165.093 2.28695 178.585Z" stroke="black" stroke-miterlimit="10"/>
<path d="M52.3185 135.757C52.3185 135.757 40.7482 136.909 49.8021 152.579C49.8021 152.579 46.9405 168.016 68.1799 180.344C76.1947 161.088 62.7269 146.987 62.7269 146.987C62.7269 146.987 57.517 133.737 52.3185 135.757Z" fill="#1F3A6F"/>
<path d="M52.3185 135.757C52.3185 135.757 40.7482 136.909 49.8021 152.579C49.8021 152.579 46.9405 168.016 68.1799 180.344C76.1947 161.088 62.7269 146.987 62.7269 146.987C62.7269 146.987 57.517 133.737 52.3185 135.757Z" stroke="black" stroke-miterlimit="10"/>
<path d="M49.8022 152.579L63.0411 147.87C63.0411 147.87 57.3966 132.583 52.3186 135.757C47.2365 138.932 43.0123 139.087 49.8022 152.579Z" fill="black"/>
<path d="M49.8022 152.579L63.0411 147.87C63.0411 147.87 57.3966 132.583 52.3186 135.757C47.2365 138.932 43.0123 139.087 49.8022 152.579Z" stroke="black" stroke-miterlimit="10"/>
<path d="M105.156 109.965C105.156 109.965 93.5856 111.117 102.641 126.787C102.641 126.787 99.7753 142.225 121.018 154.554C129.033 135.296 115.566 121.196 115.566 121.196C115.566 121.196 110.354 107.947 105.156 109.965Z" fill="#85C550"/>
<path d="M105.156 109.965C105.156 109.965 93.5856 111.117 102.641 126.787C102.641 126.787 99.7753 142.225 121.018 154.554C129.033 135.296 115.566 121.196 115.566 121.196C115.566 121.196 110.354 107.947 105.156 109.965Z" stroke="black" stroke-miterlimit="10"/>
<path d="M102.641 126.788L115.88 122.079C115.88 122.079 110.236 106.792 105.156 109.966C100.077 113.141 95.8524 113.295 102.641 126.788Z" fill="black"/>
<path d="M102.641 126.788L115.88 122.079C115.88 122.079 110.236 106.792 105.156 109.966C100.077 113.141 95.8524 113.295 102.641 126.788Z" stroke="black" stroke-miterlimit="10"/>
<path d="M162.605 105.627C162.605 105.627 151.035 106.778 160.09 122.448C160.09 122.448 157.224 137.884 178.467 150.214C186.484 130.957 173.013 116.856 173.013 116.856C173.013 116.856 167.805 103.607 162.605 105.627Z" fill="#D44799"/>
<path d="M162.605 105.627C162.605 105.627 151.035 106.778 160.09 122.448C160.09 122.448 157.224 137.884 178.467 150.214C186.484 130.957 173.013 116.856 173.013 116.856C173.013 116.856 167.805 103.607 162.605 105.627Z" stroke="black" stroke-miterlimit="10"/>
<path d="M160.091 122.448L173.328 117.739C173.328 117.739 167.687 102.451 162.606 105.627C157.527 108.799 153.302 108.955 160.091 122.448Z" fill="black"/>
<path d="M160.091 122.448L173.328 117.739C173.328 117.739 167.687 102.451 162.606 105.627C157.527 108.799 153.302 108.955 160.091 122.448Z" stroke="black" stroke-miterlimit="10"/>
<path d="M214.103 90.4619C214.103 90.4619 202.534 91.6129 211.588 107.284C211.588 107.284 208.722 122.719 229.964 135.049C237.981 115.793 224.513 101.69 224.513 101.69C224.513 101.69 219.303 88.4424 214.103 90.4619Z" fill="#EE2724"/>
<path d="M214.103 90.4619C214.103 90.4619 202.534 91.6129 211.588 107.284C211.588 107.284 208.722 122.719 229.964 135.049C237.981 115.793 224.513 101.69 224.513 101.69C224.513 101.69 219.303 88.4424 214.103 90.4619Z" stroke="black" stroke-miterlimit="10"/>
<path d="M211.589 107.283L224.827 102.574C224.827 102.574 219.184 87.286 214.103 90.4616C209.023 93.636 204.8 93.7914 211.589 107.283Z" fill="black"/>
<path d="M211.589 107.283L224.827 102.574C224.827 102.574 219.184 87.286 214.103 90.4616C209.023 93.636 204.8 93.7914 211.589 107.283Z" stroke="black" stroke-miterlimit="10"/>
<path d="M265.903 59.7762C265.903 59.7762 254.335 60.9272 263.389 76.598C263.389 76.598 260.526 92.035 281.765 104.363C289.781 85.1071 276.313 71.0055 276.313 71.0055C276.313 71.0055 271.102 57.7562 265.903 59.7762Z" fill="#EBE846"/>
<path d="M265.903 59.7762C265.903 59.7762 254.335 60.9272 263.389 76.598C263.389 76.598 260.526 92.035 281.765 104.363C289.781 85.1071 276.313 71.0055 276.313 71.0055C276.313 71.0055 271.102 57.7562 265.903 59.7762Z" stroke="black" stroke-miterlimit="10"/>
<path d="M263.389 76.598L276.628 71.8884C276.628 71.8884 270.985 56.6014 265.904 59.7762C260.824 62.9503 256.6 63.1053 263.389 76.598Z" fill="black"/>
<path d="M263.389 76.598L276.628 71.8884C276.628 71.8884 270.985 56.6014 265.904 59.7762C260.824 62.9503 256.6 63.1053 263.389 76.598Z" stroke="black" stroke-miterlimit="10"/>
<g filter="url(#filter0_f_57_1813)">
<ellipse cx="315" cy="77" rx="15" ry="22" fill="#EE2724"/>
</g>
<g filter="url(#filter1_f_57_1813)">
<ellipse cx="372" cy="92" rx="15" ry="22" fill="#EBE846"/>
</g>
<g filter="url(#filter2_f_57_1813)">
<ellipse cx="654" cy="91" rx="15" ry="22" fill="#EBE846"/>
</g>
<g filter="url(#filter3_f_57_1813)">
<ellipse cx="934" cy="82" rx="15" ry="22" fill="#EBE846"/>
</g>
<g filter="url(#filter4_f_57_1813)">
<ellipse cx="1046" cy="93" rx="15" ry="22" fill="#EBE846"/>
</g>
<g filter="url(#filter5_f_57_1813)">
<ellipse cx="1328" cy="92" rx="15" ry="22" fill="#EBE846"/>
</g>
<g filter="url(#filter6_f_57_1813)">
<ellipse cx="1695.35" cy="116.216" rx="15" ry="22" transform="rotate(15.5532 1695.35 116.216)" fill="#EBE846"/>
</g>
<g filter="url(#filter7_f_57_1813)">
<ellipse cx="1607.1" cy="85.0705" rx="15" ry="22" transform="rotate(-0.269831 1607.1 85.0705)" fill="#EBE846"/>
</g>
<g filter="url(#filter8_f_57_1813)">
<ellipse cx="427" cy="93" rx="15" ry="22" fill="#1F3A6F"/>
</g>
<g filter="url(#filter9_f_57_1813)">
<ellipse cx="707" cy="84" rx="15" ry="22" fill="#1F3A6F"/>
</g>
<g filter="url(#filter10_f_57_1813)">
<ellipse cx="1381" cy="82" rx="15" ry="22" fill="#1F3A6F"/>
</g>
<g filter="url(#filter11_f_57_1813)">
<ellipse cx="1748.61" cy="132.343" rx="15" ry="22" transform="rotate(16.4219 1748.61 132.343)" fill="#1F3A6F"/>
</g>
<g filter="url(#filter12_f_57_1813)">
<ellipse cx="1101" cy="93" rx="15" ry="22" fill="#1F3A6F"/>
</g>
<g filter="url(#filter13_f_57_1813)">
<ellipse cx="482" cy="83" rx="15" ry="22" fill="#85C550"/>
</g>
<g filter="url(#filter14_f_57_1813)">
<ellipse cx="764" cy="77" rx="15" ry="22" fill="#85C550"/>
</g>
<g filter="url(#filter15_f_57_1813)">
<ellipse cx="1156" cy="83" rx="15" ry="22" fill="#85C550"/>
</g>
<g filter="url(#filter16_f_57_1813)">
<ellipse cx="1440" cy="77" rx="15" ry="22" fill="#85C550"/>
</g>
<g filter="url(#filter17_f_57_1813)">
<ellipse cx="1804.15" cy="142.118" rx="15" ry="22" transform="rotate(14.9027 1804.15 142.118)" fill="#85C550"/>
</g>
<g filter="url(#filter18_f_57_1813)">
<ellipse cx="540" cy="77" rx="15" ry="22" fill="#D44799"/>
</g>
<g filter="url(#filter19_f_57_1813)">
<ellipse cx="821" cy="92" rx="15" ry="22" fill="#D44799"/>
</g>
<g filter="url(#filter20_f_57_1813)">
<ellipse cx="1214" cy="77" rx="15" ry="22" fill="#D44799"/>
</g>
<g filter="url(#filter21_f_57_1813)">
<ellipse cx="1495" cy="90" rx="15" ry="22" fill="#D44799"/>
</g>
<g filter="url(#filter22_f_57_1813)">
<ellipse cx="1859.82" cy="153.447" rx="15" ry="22" transform="rotate(17.1647 1859.82 153.447)" fill="#D44799"/>
</g>
<g filter="url(#filter23_f_57_1813)">
<ellipse cx="597" cy="92" rx="15" ry="22" fill="#EE2724"/>
</g>
<g filter="url(#filter24_f_57_1813)">
<ellipse cx="874" cy="95" rx="15" ry="22" fill="#EE2724"/>
</g>
<g filter="url(#filter25_f_57_1813)">
<ellipse cx="1271" cy="92" rx="15" ry="22" fill="#EE2724"/>
</g>
<g filter="url(#filter26_f_57_1813)">
<ellipse cx="1548" cy="95" rx="15" ry="22" fill="#EE2724"/>
</g>
<g filter="url(#filter27_f_57_1813)">
<ellipse cx="1645.74" cy="84.4064" rx="15" ry="22" transform="rotate(16.8709 1645.74 84.4064)" fill="#EE2724"/>
</g>
<g filter="url(#filter28_f_57_1813)">
<ellipse cx="1908.74" cy="185.406" rx="15" ry="22" transform="rotate(16.8709 1908.74 185.406)" fill="#EE2724"/>
</g>
<g filter="url(#filter29_f_57_1813)">
<ellipse cx="989" cy="77" rx="15" ry="22" fill="#EE2724"/>
</g>
<g filter="url(#filter30_f_57_1813)">
<ellipse rx="15" ry="22" transform="matrix(-0.956961 0.290217 0.290217 0.956961 223.739 122.406)" fill="#EE2724"/>
</g>
<g filter="url(#filter31_f_57_1813)">
<ellipse rx="15" ry="22" transform="matrix(-0.95546 0.29512 0.29512 0.95546 172.824 136.447)" fill="#D44799"/>
</g>
<g filter="url(#filter32_f_57_1813)">
<ellipse rx="15" ry="22" transform="matrix(-0.91939 0.393347 0.393347 0.91939 14.3496 192.216)" fill="#EBE846"/>
</g>
<g filter="url(#filter33_f_57_1813)">
<ellipse rx="15" ry="22" transform="matrix(-0.91939 0.393347 0.393347 0.91939 276.444 91.1268)" fill="#EBE846"/>
</g>
<g filter="url(#filter34_f_57_1813)">
<ellipse rx="15" ry="22" transform="matrix(-0.909715 0.415234 0.415234 0.909715 115.153 140.118)" fill="#85C550"/>
</g>
<g filter="url(#filter35_f_57_1813)">
<ellipse rx="15" ry="22" transform="matrix(-0.907729 0.419556 0.419556 0.907729 62.8462 167.263)" fill="#1F3A6F"/>
</g>
</g>
<defs>
<filter id="filter0_f_57_1813" x="290" y="45" width="50" height="64" filterUnits="userSpaceOnUse" color-interpolation-filters="sRGB">
<feFlood flood-opacity="0" result="BackgroundImageFix"/>
<feBlend mode="normal" in="SourceGraphic" in2="BackgroundImageFix" result="shape"/>
<feGaussianBlur stdDeviation="5" result="effect1_foregroundBlur_57_1813"/>
</filter>
<filter id="filter1_f_57_1813" x="347" y="60" width="50" height="64" filterUnits="userSpaceOnUse" color-interpolation-filters="sRGB">
<feFlood flood-opacity="0" result="BackgroundImageFix"/>
<feBlend mode="normal" in="SourceGraphic" in2="BackgroundImageFix" result="shape"/>
<feGaussianBlur stdDeviation="5" result="effect1_foregroundBlur_57_1813"/>
</filter>
<filter id="filter2_f_57_1813" x="629" y="59" width="50" height="64" filterUnits="userSpaceOnUse" color-interpolation-filters="sRGB">
<feFlood flood-opacity="0" result="BackgroundImageFix"/>
<feBlend mode="normal" in="SourceGraphic" in2="BackgroundImageFix" result="shape"/>
<feGaussianBlur stdDeviation="5" result="effect1_foregroundBlur_57_1813"/>
</filter>
<filter id="filter3_f_57_1813" x="909" y="50" width="50" height="64" filterUnits="userSpaceOnUse" color-interpolation-filters="sRGB">
<feFlood flood-opacity="0" result="BackgroundImageFix"/>
<feBlend mode="normal" in="SourceGraphic" in2="BackgroundImageFix" result="shape"/>
<feGaussianBlur stdDeviation="5" result="effect1_foregroundBlur_57_1813"/>
</filter>
<filter id="filter4_f_57_1813" x="1021" y="61" width="50" height="64" filterUnits="userSpaceOnUse" color-interpolation-filters="sRGB">
<feFlood flood-opacity="0" result="BackgroundImageFix"/>
<feBlend mode="normal" in="SourceGraphic" in2="BackgroundImageFix" result="shape"/>
<feGaussianBlur stdDeviation="5" result="effect1_foregroundBlur_57_1813"/>
</filter>
<filter id="filter5_f_57_1813" x="1303" y="60" width="50" height="64" filterUnits="userSpaceOnUse" color-interpolation-filters="sRGB">
<feFlood flood-opacity="0" result="BackgroundImageFix"/>
<feBlend mode="normal" in="SourceGraphic" in2="BackgroundImageFix" result="shape"/>
<feGaussianBlur stdDeviation="5" result="effect1_foregroundBlur_57_1813"/>
</filter>
<filter id="filter6_f_57_1813" x="1669.74" y="84.6399" width="51.2246" height="63.1531" filterUnits="userSpaceOnUse" color-interpolation-filters="sRGB">
<feFlood flood-opacity="0" result="BackgroundImageFix"/>
<feBlend mode="normal" in="SourceGraphic" in2="BackgroundImageFix" result="shape"/>
<feGaussianBlur stdDeviation="5" result="effect1_foregroundBlur_57_1813"/>
</filter>
<filter id="filter7_f_57_1813" x="1582.1" y="53.0706" width="50" height="63.9998" filterUnits="userSpaceOnUse" color-interpolation-filters="sRGB">
<feFlood flood-opacity="0" result="BackgroundImageFix"/>
<feBlend mode="normal" in="SourceGraphic" in2="BackgroundImageFix" result="shape"/>
<feGaussianBlur stdDeviation="5" result="effect1_foregroundBlur_57_1813"/>
</filter>
<filter id="filter8_f_57_1813" x="402" y="61" width="50" height="64" filterUnits="userSpaceOnUse" color-interpolation-filters="sRGB">
<feFlood flood-opacity="0" result="BackgroundImageFix"/>
<feBlend mode="normal" in="SourceGraphic" in2="BackgroundImageFix" result="shape"/>
<feGaussianBlur stdDeviation="5" result="effect1_foregroundBlur_57_1813"/>
</filter>
<filter id="filter9_f_57_1813" x="682" y="52" width="50" height="64" filterUnits="userSpaceOnUse" color-interpolation-filters="sRGB">
<feFlood flood-opacity="0" result="BackgroundImageFix"/>
<feBlend mode="normal" in="SourceGraphic" in2="BackgroundImageFix" result="shape"/>
<feGaussianBlur stdDeviation="5" result="effect1_foregroundBlur_57_1813"/>
</filter>
<filter id="filter10_f_57_1813" x="1356" y="50" width="50" height="64" filterUnits="userSpaceOnUse" color-interpolation-filters="sRGB">
<feFlood flood-opacity="0" result="BackgroundImageFix"/>
<feBlend mode="normal" in="SourceGraphic" in2="BackgroundImageFix" result="shape"/>
<feGaussianBlur stdDeviation="5" result="effect1_foregroundBlur_57_1813"/>
</filter>
<filter id="filter11_f_57_1813" x="1722.93" y="100.815" width="51.3584" height="63.0571" filterUnits="userSpaceOnUse" color-interpolation-filters="sRGB">
<feFlood flood-opacity="0" result="BackgroundImageFix"/>
<feBlend mode="normal" in="SourceGraphic" in2="BackgroundImageFix" result="shape"/>
<feGaussianBlur stdDeviation="5" result="effect1_foregroundBlur_57_1813"/>
</filter>
<filter id="filter12_f_57_1813" x="1076" y="61" width="50" height="64" filterUnits="userSpaceOnUse" color-interpolation-filters="sRGB">
<feFlood flood-opacity="0" result="BackgroundImageFix"/>
<feBlend mode="normal" in="SourceGraphic" in2="BackgroundImageFix" result="shape"/>
<feGaussianBlur stdDeviation="5" result="effect1_foregroundBlur_57_1813"/>
</filter>
<filter id="filter13_f_57_1813" x="457" y="51" width="50" height="64" filterUnits="userSpaceOnUse" color-interpolation-filters="sRGB">
<feFlood flood-opacity="0" result="BackgroundImageFix"/>
<feBlend mode="normal" in="SourceGraphic" in2="BackgroundImageFix" result="shape"/>
<feGaussianBlur stdDeviation="5" result="effect1_foregroundBlur_57_1813"/>
</filter>
<filter id="filter14_f_57_1813" x="739" y="45" width="50" height="64" filterUnits="userSpaceOnUse" color-interpolation-filters="sRGB">
<feFlood flood-opacity="0" result="BackgroundImageFix"/>
<feBlend mode="normal" in="SourceGraphic" in2="BackgroundImageFix" result="shape"/>
<feGaussianBlur stdDeviation="5" result="effect1_foregroundBlur_57_1813"/>
</filter>
<filter id="filter15_f_57_1813" x="1131" y="51" width="50" height="64" filterUnits="userSpaceOnUse" color-interpolation-filters="sRGB">
<feFlood flood-opacity="0" result="BackgroundImageFix"/>
<feBlend mode="normal" in="SourceGraphic" in2="BackgroundImageFix" result="shape"/>
<feGaussianBlur stdDeviation="5" result="effect1_foregroundBlur_57_1813"/>
</filter>
<filter id="filter16_f_57_1813" x="1415" y="45" width="50" height="64" filterUnits="userSpaceOnUse" color-interpolation-filters="sRGB">
<feFlood flood-opacity="0" result="BackgroundImageFix"/>
<feBlend mode="normal" in="SourceGraphic" in2="BackgroundImageFix" result="shape"/>
<feGaussianBlur stdDeviation="5" result="effect1_foregroundBlur_57_1813"/>
</filter>
<filter id="filter17_f_57_1813" x="1778.59" y="110.507" width="51.1299" height="63.2217" filterUnits="userSpaceOnUse" color-interpolation-filters="sRGB">
<feFlood flood-opacity="0" result="BackgroundImageFix"/>
<feBlend mode="normal" in="SourceGraphic" in2="BackgroundImageFix" result="shape"/>
<feGaussianBlur stdDeviation="5" result="effect1_foregroundBlur_57_1813"/>
</filter>
<filter id="filter18_f_57_1813" x="515" y="45" width="50" height="64" filterUnits="userSpaceOnUse" color-interpolation-filters="sRGB">
<feFlood flood-opacity="0" result="BackgroundImageFix"/>
<feBlend mode="normal" in="SourceGraphic" in2="BackgroundImageFix" result="shape"/>
<feGaussianBlur stdDeviation="5" result="effect1_foregroundBlur_57_1813"/>
</filter>
<filter id="filter19_f_57_1813" x="796" y="60" width="50" height="64" filterUnits="userSpaceOnUse" color-interpolation-filters="sRGB">
<feFlood flood-opacity="0" result="BackgroundImageFix"/>
<feBlend mode="normal" in="SourceGraphic" in2="BackgroundImageFix" result="shape"/>
<feGaussianBlur stdDeviation="5" result="effect1_foregroundBlur_57_1813"/>
</filter>
<filter id="filter20_f_57_1813" x="1189" y="45" width="50" height="64" filterUnits="userSpaceOnUse" color-interpolation-filters="sRGB">
<feFlood flood-opacity="0" result="BackgroundImageFix"/>
<feBlend mode="normal" in="SourceGraphic" in2="BackgroundImageFix" result="shape"/>
<feGaussianBlur stdDeviation="5" result="effect1_foregroundBlur_57_1813"/>
</filter>
<filter id="filter21_f_57_1813" x="1470" y="58" width="50" height="64" filterUnits="userSpaceOnUse" color-interpolation-filters="sRGB">
<feFlood flood-opacity="0" result="BackgroundImageFix"/>
<feBlend mode="normal" in="SourceGraphic" in2="BackgroundImageFix" result="shape"/>
<feGaussianBlur stdDeviation="5" result="effect1_foregroundBlur_57_1813"/>
</filter>
<filter id="filter22_f_57_1813" x="1834.09" y="121.961" width="51.4756" height="62.9712" filterUnits="userSpaceOnUse" color-interpolation-filters="sRGB">
<feFlood flood-opacity="0" result="BackgroundImageFix"/>
<feBlend mode="normal" in="SourceGraphic" in2="BackgroundImageFix" result="shape"/>
<feGaussianBlur stdDeviation="5" result="effect1_foregroundBlur_57_1813"/>
</filter>
<filter id="filter23_f_57_1813" x="572" y="60" width="50" height="64" filterUnits="userSpaceOnUse" color-interpolation-filters="sRGB">
<feFlood flood-opacity="0" result="BackgroundImageFix"/>
<feBlend mode="normal" in="SourceGraphic" in2="BackgroundImageFix" result="shape"/>
<feGaussianBlur stdDeviation="5" result="effect1_foregroundBlur_57_1813"/>
</filter>
<filter id="filter24_f_57_1813" x="849" y="63" width="50" height="64" filterUnits="userSpaceOnUse" color-interpolation-filters="sRGB">
<feFlood flood-opacity="0" result="BackgroundImageFix"/>
<feBlend mode="normal" in="SourceGraphic" in2="BackgroundImageFix" result="shape"/>
<feGaussianBlur stdDeviation="5" result="effect1_foregroundBlur_57_1813"/>
</filter>
<filter id="filter25_f_57_1813" x="1246" y="60" width="50" height="64" filterUnits="userSpaceOnUse" color-interpolation-filters="sRGB">
<feFlood flood-opacity="0" result="BackgroundImageFix"/>
<feBlend mode="normal" in="SourceGraphic" in2="BackgroundImageFix" result="shape"/>
<feGaussianBlur stdDeviation="5" result="effect1_foregroundBlur_57_1813"/>
</filter>
<filter id="filter26_f_57_1813" x="1523" y="63" width="50" height="64" filterUnits="userSpaceOnUse" color-interpolation-filters="sRGB">
<feFlood flood-opacity="0" result="BackgroundImageFix"/>
<feBlend mode="normal" in="SourceGraphic" in2="BackgroundImageFix" result="shape"/>
<feGaussianBlur stdDeviation="5" result="effect1_foregroundBlur_57_1813"/>
</filter>
<filter id="filter27_f_57_1813" x="1620.03" y="52.9036" width="51.4277" height="63.0056" filterUnits="userSpaceOnUse" color-interpolation-filters="sRGB">
<feFlood flood-opacity="0" result="BackgroundImageFix"/>
<feBlend mode="normal" in="SourceGraphic" in2="BackgroundImageFix" result="shape"/>
<feGaussianBlur stdDeviation="5" result="effect1_foregroundBlur_57_1813"/>
</filter>
<filter id="filter28_f_57_1813" x="1883.03" y="153.904" width="51.4277" height="63.0056" filterUnits="userSpaceOnUse" color-interpolation-filters="sRGB">
<feFlood flood-opacity="0" result="BackgroundImageFix"/>
<feBlend mode="normal" in="SourceGraphic" in2="BackgroundImageFix" result="shape"/>
<feGaussianBlur stdDeviation="5" result="effect1_foregroundBlur_57_1813"/>
</filter>
<filter id="filter29_f_57_1813" x="964" y="45" width="50" height="64" filterUnits="userSpaceOnUse" color-interpolation-filters="sRGB">
<feFlood flood-opacity="0" result="BackgroundImageFix"/>
<feBlend mode="normal" in="SourceGraphic" in2="BackgroundImageFix" result="shape"/>
<feGaussianBlur stdDeviation="5" result="effect1_foregroundBlur_57_1813"/>
</filter>
<filter id="filter30_f_57_1813" x="198.025" y="90.9036" width="51.4287" height="63.0056" filterUnits="userSpaceOnUse" color-interpolation-filters="sRGB">
<feFlood flood-opacity="0" result="BackgroundImageFix"/>
<feBlend mode="normal" in="SourceGraphic" in2="BackgroundImageFix" result="shape"/>
<feGaussianBlur stdDeviation="5" result="effect1_foregroundBlur_57_1813"/>
</filter>
<filter id="filter31_f_57_1813" x="147.086" y="104.961" width="51.4756" height="62.9712" filterUnits="userSpaceOnUse" color-interpolation-filters="sRGB">
<feFlood flood-opacity="0" result="BackgroundImageFix"/>
<feBlend mode="normal" in="SourceGraphic" in2="BackgroundImageFix" result="shape"/>
<feGaussianBlur stdDeviation="5" result="effect1_foregroundBlur_57_1813"/>
</filter>
<filter id="filter32_f_57_1813" x="-11.9336" y="161.141" width="52.5664" height="62.1501" filterUnits="userSpaceOnUse" color-interpolation-filters="sRGB">
<feFlood flood-opacity="0" result="BackgroundImageFix"/>
<feBlend mode="normal" in="SourceGraphic" in2="BackgroundImageFix" result="shape"/>
<feGaussianBlur stdDeviation="5" result="effect1_foregroundBlur_57_1813"/>
</filter>
<filter id="filter33_f_57_1813" x="250.161" y="60.0518" width="52.5664" height="62.1501" filterUnits="userSpaceOnUse" color-interpolation-filters="sRGB">
<feFlood flood-opacity="0" result="BackgroundImageFix"/>
<feBlend mode="normal" in="SourceGraphic" in2="BackgroundImageFix" result="shape"/>
<feGaussianBlur stdDeviation="5" result="effect1_foregroundBlur_57_1813"/>
</filter>
<filter id="filter34_f_57_1813" x="88.73" y="109.152" width="52.8462" height="61.9321" filterUnits="userSpaceOnUse" color-interpolation-filters="sRGB">
<feFlood flood-opacity="0" result="BackgroundImageFix"/>
<feBlend mode="normal" in="SourceGraphic" in2="BackgroundImageFix" result="shape"/>
<feGaussianBlur stdDeviation="5" result="effect1_foregroundBlur_57_1813"/>
</filter>
<filter id="filter35_f_57_1813" x="36.395" y="136.32" width="52.9023" height="61.8877" filterUnits="userSpaceOnUse" color-interpolation-filters="sRGB">
<feFlood flood-opacity="0" result="BackgroundImageFix"/>
<feBlend mode="normal" in="SourceGraphic" in2="BackgroundImageFix" result="shape"/>
<feGaussianBlur stdDeviation="5" result="effect1_foregroundBlur_57_1813"/>
</filter>
<clipPath id="clip0_57_1813">
<rect width="1920" height="929" fill="white"/>
</clipPath>
</defs>
</svg>
