<svg width="1440" height="1024" viewBox="0 0 1440 1024" fill="none" xmlns="http://www.w3.org/2000/svg">
<path d="M-36.9689 1041.13L102.487 1011.49L241.943 981.846L388.102 1011.49L534.26 1041.13" stroke="#86BC8D" stroke-width="4"/>
<path d="M534.26 1041.13L673.716 1011.49L813.172 981.846L959.331 1011.49L1105.49 1041.13" stroke="#86BC8D" stroke-width="4"/>
<path d="M1105.49 1041.13L1244.95 1011.49L1384.4 981.846L1445.41 994.219" stroke="#86BC8D" stroke-width="4"/>
<path d="M-7.06702 327.613L132.389 297.969L271.845 268.325L418.004 297.969L564.162 327.613" stroke="#86BC8D" stroke-width="4"/>
<path d="M564.162 327.613L703.618 297.969L843.074 268.325L989.233 297.969L1135.39 327.613" stroke="#86BC8D" stroke-width="4"/>
<path d="M1135.39 327.613L1274.85 297.969L1414.3 268.325L1475.31 280.698" stroke="#86BC8D" stroke-width="4"/>
<path d="M-12.2225 265.747L127.234 236.103L266.69 206.459L412.848 236.103L559.006 265.747" stroke="#86BC8D" stroke-width="4"/>
<path d="M559.006 265.747L698.463 236.103L837.919 206.459L984.077 236.103L1130.24 265.747" stroke="#86BC8D" stroke-width="4"/>
<path d="M1130.24 265.747L1269.69 236.103L1409.15 206.459L1470.15 218.832" stroke="#86BC8D" stroke-width="4"/>
<path d="M-12.2225 208.006L127.234 178.362L266.69 148.718L412.848 178.362L559.006 208.006" stroke="#86BC8D" stroke-width="4"/>
<path d="M559.006 208.006L698.463 178.362L837.919 148.718L984.077 178.362L1130.24 208.006" stroke="#86BC8D" stroke-width="4"/>
<path d="M1130.24 208.006L1269.69 178.362L1409.15 148.718L1470.15 161.091" stroke="#86BC8D" stroke-width="4"/>
<path d="M-12.2225 146.14L127.234 116.496L266.69 86.8518L412.848 116.496L559.006 146.14" stroke="#86BC8D" stroke-width="4"/>
<path d="M559.006 146.14L698.463 116.496L837.919 86.8518L984.077 116.496L1130.24 146.14" stroke="#86BC8D" stroke-width="4"/>
<path d="M1130.24 146.14L1269.69 116.496L1409.15 86.8518L1470.15 99.225" stroke="#86BC8D" stroke-width="4"/>
<path d="M-7.06702 87.3673L132.389 57.7232L271.845 28.0791L418.004 57.7232L564.162 87.3673" stroke="#86BC8D" stroke-width="4"/>
<path d="M564.162 87.3673L703.618 57.7232L843.074 28.0791L989.233 57.7232L1135.39 87.3673" stroke="#86BC8D" stroke-width="4"/>
<path d="M1135.39 87.3673L1274.85 57.7232L1414.3 28.0791L1475.31 40.4523" stroke="#86BC8D" stroke-width="4"/>
<path d="M-20.4713 683.343L118.985 653.699L258.441 624.054L404.599 653.699L550.758 683.343" stroke="#86BC8D" stroke-width="4"/>
<path d="M550.758 683.343L690.214 653.699L829.67 624.054L975.828 653.699L1121.99 683.343" stroke="#86BC8D" stroke-width="4"/>
<path d="M1121.99 683.343L1261.44 653.699L1400.9 624.054L1461.9 636.428" stroke="#86BC8D" stroke-width="4"/>
<path d="M-28.7202 862.754L110.736 833.11L250.192 803.466L396.351 833.11L542.509 862.754" stroke="#86BC8D" stroke-width="4"/>
<path d="M542.509 862.754L681.965 833.11L821.421 803.466L967.58 833.11L1113.74 862.754" stroke="#86BC8D" stroke-width="4"/>
<path d="M1113.74 862.754L1253.19 833.11L1392.65 803.466L1453.66 815.839" stroke="#86BC8D" stroke-width="4"/>
<path d="M-12.2225 504.963L127.234 475.318L266.69 445.674L412.848 475.318L559.006 504.963" stroke="#86BC8D" stroke-width="4"/>
<path d="M559.006 504.963L698.463 475.318L837.919 445.674L984.077 475.318L1130.24 504.963" stroke="#86BC8D" stroke-width="4"/>
<path d="M1130.24 504.963L1269.69 475.318L1409.15 445.674L1470.15 458.048" stroke="#86BC8D" stroke-width="4"/>
<path d="M-32.8445 952.459L106.612 922.815L246.068 893.171L392.226 922.815L538.385 952.459" stroke="#86BC8D" stroke-width="4"/>
<path d="M538.384 952.459L677.841 922.815L817.297 893.171L963.455 922.815L1109.61 952.459" stroke="#86BC8D" stroke-width="4"/>
<path d="M1109.61 952.459L1249.07 922.815L1388.53 893.171L1449.53 905.544" stroke="#86BC8D" stroke-width="4"/>
<path d="M-16.3469 594.668L123.109 565.024L262.565 535.38L408.724 565.024L554.882 594.668" stroke="#86BC8D" stroke-width="4"/>
<path d="M554.882 594.668L694.338 565.024L833.794 535.38L979.953 565.024L1126.11 594.668" stroke="#86BC8D" stroke-width="4"/>
<path d="M1126.11 594.668L1265.57 565.024L1405.02 535.38L1466.03 547.753" stroke="#86BC8D" stroke-width="4"/>
<path d="M-24.5957 774.079L114.86 744.435L254.317 714.791L400.475 744.435L546.633 774.079" stroke="#86BC8D" stroke-width="4"/>
<path d="M546.633 774.079L686.089 744.435L825.546 714.791L971.704 744.435L1117.86 774.079" stroke="#86BC8D" stroke-width="4"/>
<path d="M1117.86 774.079L1257.32 744.435L1396.77 714.791L1457.78 727.164" stroke="#86BC8D" stroke-width="4"/>
<path d="M-8.09808 416.288L131.358 386.644L270.814 357L416.973 386.644L563.131 416.288" stroke="#86BC8D" stroke-width="4"/>
<path d="M563.131 416.288L702.587 386.644L842.043 357L988.201 386.644L1134.36 416.288" stroke="#86BC8D" stroke-width="4"/>
<path d="M1134.36 416.288L1273.82 386.644L1413.27 357L1474.28 369.373" stroke="#86BC8D" stroke-width="4"/>
<path d="M-34.9067 996.797L104.55 967.153L244.006 937.509L390.164 967.153L536.322 996.797" stroke="#86BC8D" stroke-width="4"/>
<path d="M536.322 996.797L675.778 967.153L815.235 937.509L961.393 967.153L1107.55 996.797" stroke="#86BC8D" stroke-width="4"/>
<path d="M1107.55 996.797L1247.01 967.153L1386.46 937.509L1447.47 949.882" stroke="#86BC8D" stroke-width="4"/>
<path d="M-26.6579 1058.66L112.798 1029.02L252.254 999.375L398.413 1029.02L544.571 1058.66" stroke="#86BC8D" stroke-width="4"/>
<path d="M544.571 1058.66L684.027 1029.02L823.483 999.375L969.642 1029.02L1115.8 1058.66" stroke="#86BC8D" stroke-width="4"/>
<path d="M1115.8 1058.66L1255.26 1029.02L1394.71 999.375L1455.72 1011.75" stroke="#86BC8D" stroke-width="4"/>
<path d="M-5.00482 283.276L134.451 253.632L273.908 223.988L420.066 253.632L566.224 283.276" stroke="#86BC8D" stroke-width="4"/>
<path d="M566.224 283.276L705.68 253.632L845.136 223.988L991.295 253.632L1137.45 283.276" stroke="#86BC8D" stroke-width="4"/>
<path d="M1137.45 283.276L1276.91 253.632L1416.37 223.988L1477.37 236.361" stroke="#86BC8D" stroke-width="4"/>
<path d="M-10.1603 221.41L129.296 191.766L268.752 162.122L414.91 191.766L561.069 221.41" stroke="#86BC8D" stroke-width="4"/>
<path d="M561.069 221.41L700.525 191.766L839.981 162.122L986.139 191.766L1132.3 221.41" stroke="#86BC8D" stroke-width="4"/>
<path d="M1132.3 221.41L1271.75 191.766L1411.21 162.122L1472.22 174.495" stroke="#86BC8D" stroke-width="4"/>
<path d="M-10.1603 163.669L129.296 134.024L268.752 104.38L414.91 134.024L561.069 163.669" stroke="#86BC8D" stroke-width="4"/>
<path d="M561.069 163.669L700.525 134.024L839.981 104.38L986.139 134.024L1132.3 163.669" stroke="#86BC8D" stroke-width="4"/>
<path d="M1132.3 163.669L1271.75 134.024L1411.21 104.38L1472.22 116.754" stroke="#86BC8D" stroke-width="4"/>
<path d="M-10.1603 101.803L129.296 72.1588L268.752 42.5146L414.91 72.1588L561.069 101.803" stroke="#86BC8D" stroke-width="4"/>
<path d="M561.069 101.803L700.525 72.1588L839.981 42.5146L986.139 72.1588L1132.3 101.803" stroke="#86BC8D" stroke-width="4"/>
<path d="M1132.3 101.803L1271.75 72.1588L1411.21 42.5146L1472.22 54.8878" stroke="#86BC8D" stroke-width="4"/>
<path d="M-5.00482 43.03L134.451 13.3859L273.908 -16.2582L420.066 13.3859L566.224 43.03" stroke="#86BC8D" stroke-width="4"/>
<path d="M566.224 43.03L705.68 13.3859L845.136 -16.2582L991.295 13.3859L1137.45 43.03" stroke="#86BC8D" stroke-width="4"/>
<path d="M1137.45 43.03L1276.91 13.3859L1416.37 -16.2582L1477.37 -3.88499" stroke="#86BC8D" stroke-width="4"/>
<path d="M-3.97369 13.128L135.482 -16.5161L274.939 -46.1602L421.097 -16.5161L567.255 13.128" stroke="#86BC8D" stroke-width="4"/>
<path d="M567.255 13.128L706.711 -16.5161L846.168 -46.1602L992.326 -16.5161L1138.48 13.128" stroke="#86BC8D" stroke-width="4"/>
<path d="M1138.48 13.128L1277.94 -16.5161L1417.4 -46.1602L1478.4 -33.787" stroke="#86BC8D" stroke-width="4"/>
<path d="M-18.4091 639.005L121.047 609.361L260.503 579.717L406.662 609.361L552.82 639.005" stroke="#86BC8D" stroke-width="4"/>
<path d="M552.82 639.005L692.276 609.361L831.732 579.717L977.891 609.361L1124.05 639.005" stroke="#86BC8D" stroke-width="4"/>
<path d="M1124.05 639.005L1263.5 609.361L1402.96 579.717L1463.97 592.09" stroke="#86BC8D" stroke-width="4"/>
<path d="M-26.6579 818.417L112.798 788.773L252.254 759.128L398.413 788.773L544.571 818.417" stroke="#86BC8D" stroke-width="4"/>
<path d="M544.571 818.417L684.027 788.773L823.483 759.128L969.642 788.773L1115.8 818.417" stroke="#86BC8D" stroke-width="4"/>
<path d="M1115.8 818.417L1255.26 788.773L1394.71 759.128L1455.72 771.502" stroke="#86BC8D" stroke-width="4"/>
<path d="M-10.1603 460.625L129.296 430.981L268.752 401.337L414.91 430.981L561.069 460.625" stroke="#86BC8D" stroke-width="4"/>
<path d="M561.069 460.625L700.525 430.981L839.981 401.337L986.139 430.981L1132.3 460.625" stroke="#86BC8D" stroke-width="4"/>
<path d="M1132.3 460.625L1271.75 430.981L1411.21 401.337L1472.22 413.71" stroke="#86BC8D" stroke-width="4"/>
<path d="M-30.7823 908.122L108.674 878.478L248.13 848.834L394.288 878.478L540.447 908.122" stroke="#86BC8D" stroke-width="4"/>
<path d="M540.447 908.122L679.903 878.478L819.359 848.834L965.517 878.478L1111.68 908.122" stroke="#86BC8D" stroke-width="4"/>
<path d="M1111.68 908.122L1251.13 878.478L1390.59 848.834L1451.59 861.207" stroke="#86BC8D" stroke-width="4"/>
<path d="M-14.2847 550.331L125.171 520.687L264.628 491.042L410.786 520.687L556.944 550.331" stroke="#86BC8D" stroke-width="4"/>
<path d="M556.944 550.331L696.4 520.687L835.857 491.042L982.015 520.687L1128.17 550.331" stroke="#86BC8D" stroke-width="4"/>
<path d="M1128.17 550.331L1267.63 520.687L1407.09 491.042L1468.09 503.416" stroke="#86BC8D" stroke-width="4"/>
<path d="M-22.5335 729.742L116.923 700.098L256.379 670.454L402.537 700.098L548.696 729.742" stroke="#86BC8D" stroke-width="4"/>
<path d="M548.695 729.742L688.152 700.098L827.608 670.454L973.766 700.098L1119.92 729.742" stroke="#86BC8D" stroke-width="4"/>
<path d="M1119.92 729.742L1259.38 700.098L1398.84 670.454L1459.84 682.827" stroke="#86BC8D" stroke-width="4"/>
<path d="M-6.03589 371.951L133.42 342.306L272.876 312.662L419.035 342.306L565.193 371.951" stroke="#86BC8D" stroke-width="4"/>
<path d="M565.193 371.951L704.649 342.306L844.105 312.662L990.264 342.306L1136.42 371.951" stroke="#86BC8D" stroke-width="4"/>
<path d="M1136.42 371.951L1275.88 342.306L1415.33 312.662L1476.34 325.036" stroke="#86BC8D" stroke-width="4"/>
<path d="M-38 1026.7L101.456 997.055L240.912 967.41L387.071 997.055L533.229 1026.7" stroke="#86BC8D" stroke-width="4"/>
<path d="M533.229 1026.7L672.685 997.055L812.141 967.41L958.3 997.055L1104.46 1026.7" stroke="#86BC8D" stroke-width="4"/>
<path d="M1104.46 1026.7L1243.91 997.055L1383.37 967.41L1444.38 979.784" stroke="#86BC8D" stroke-width="4"/>
<path d="M-8.09808 313.178L131.358 283.534L270.814 253.89L416.973 283.534L563.131 313.178" stroke="#86BC8D" stroke-width="4"/>
<path d="M563.131 313.178L702.587 283.534L842.043 253.89L988.201 283.534L1134.36 313.178" stroke="#86BC8D" stroke-width="4"/>
<path d="M1134.36 313.178L1273.82 283.534L1413.27 253.89L1474.28 266.263" stroke="#86BC8D" stroke-width="4"/>
<path d="M-13.2537 251.312L126.203 221.668L265.659 192.024L411.817 221.668L557.975 251.312" stroke="#86BC8D" stroke-width="4"/>
<path d="M557.975 251.312L697.432 221.668L836.888 192.024L983.046 221.668L1129.2 251.312" stroke="#86BC8D" stroke-width="4"/>
<path d="M1129.2 251.312L1268.66 221.668L1408.12 192.024L1469.12 204.397" stroke="#86BC8D" stroke-width="4"/>
<path d="M-13.2537 193.57L126.203 163.926L265.659 134.282L411.817 163.926L557.975 193.57" stroke="#86BC8D" stroke-width="4"/>
<path d="M557.975 193.57L697.432 163.926L836.888 134.282L983.046 163.926L1129.2 193.57" stroke="#86BC8D" stroke-width="4"/>
<path d="M1129.2 193.57L1268.66 163.926L1408.12 134.282L1469.12 146.655" stroke="#86BC8D" stroke-width="4"/>
<path d="M-13.2537 131.704L126.203 102.06L265.659 72.4163L411.817 102.06L557.975 131.704" stroke="#86BC8D" stroke-width="4"/>
<path d="M557.975 131.704L697.432 102.06L836.888 72.4163L983.046 102.06L1129.2 131.704" stroke="#86BC8D" stroke-width="4"/>
<path d="M1129.2 131.704L1268.66 102.06L1408.12 72.4163L1469.12 84.7895" stroke="#86BC8D" stroke-width="4"/>
<path d="M-8.09808 72.9318L131.358 43.2877L270.814 13.6436L416.973 43.2877L563.131 72.9318" stroke="#86BC8D" stroke-width="4"/>
<path d="M563.131 72.9318L702.587 43.2877L842.043 13.6436L988.201 43.2877L1134.36 72.9318" stroke="#86BC8D" stroke-width="4"/>
<path d="M1134.36 72.9318L1273.82 43.2877L1413.27 13.6436L1474.28 26.0167" stroke="#86BC8D" stroke-width="4"/>
<path d="M-21.5024 668.907L117.954 639.263L257.41 609.619L403.568 639.263L549.727 668.907" stroke="#86BC8D" stroke-width="4"/>
<path d="M549.727 668.907L689.183 639.263L828.639 609.619L974.797 639.263L1120.96 668.907" stroke="#86BC8D" stroke-width="4"/>
<path d="M1120.96 668.907L1260.41 639.263L1399.87 609.619L1460.87 621.992" stroke="#86BC8D" stroke-width="4"/>
<path d="M-29.7512 848.318L109.705 818.674L249.161 789.03L395.319 818.674L541.478 848.318" stroke="#86BC8D" stroke-width="4"/>
<path d="M541.478 848.318L680.934 818.674L820.39 789.03L966.548 818.674L1112.71 848.318" stroke="#86BC8D" stroke-width="4"/>
<path d="M1112.71 848.318L1252.16 818.674L1391.62 789.03L1452.62 801.403" stroke="#86BC8D" stroke-width="4"/>
<path d="M-13.2537 490.527L126.203 460.883L265.659 431.239L411.817 460.883L557.975 490.527" stroke="#86BC8D" stroke-width="4"/>
<path d="M557.975 490.527L697.432 460.883L836.888 431.239L983.046 460.883L1129.2 490.527" stroke="#86BC8D" stroke-width="4"/>
<path d="M1129.2 490.527L1268.66 460.883L1408.12 431.239L1469.12 443.612" stroke="#86BC8D" stroke-width="4"/>
<path d="M-33.8756 938.024L105.581 908.38L245.037 878.736L391.195 908.38L537.353 938.024" stroke="#86BC8D" stroke-width="4"/>
<path d="M537.353 938.024L676.81 908.38L816.266 878.736L962.424 908.38L1108.58 938.024" stroke="#86BC8D" stroke-width="4"/>
<path d="M1108.58 938.024L1248.04 908.38L1387.49 878.736L1448.5 891.109" stroke="#86BC8D" stroke-width="4"/>
<path d="M-17.378 580.233L122.078 550.589L261.534 520.945L407.693 550.589L553.851 580.233" stroke="#86BC8D" stroke-width="4"/>
<path d="M553.851 580.233L693.307 550.589L832.763 520.945L978.922 550.589L1125.08 580.233" stroke="#86BC8D" stroke-width="4"/>
<path d="M1125.08 580.233L1264.54 550.589L1403.99 520.945L1465 533.318" stroke="#86BC8D" stroke-width="4"/>
<path d="M-25.6268 759.644L113.829 730L253.286 700.356L399.444 730L545.602 759.644" stroke="#86BC8D" stroke-width="4"/>
<path d="M545.602 759.644L685.058 730L824.515 700.356L970.673 730L1116.83 759.644" stroke="#86BC8D" stroke-width="4"/>
<path d="M1116.83 759.644L1256.29 730L1395.74 700.356L1456.75 712.729" stroke="#86BC8D" stroke-width="4"/>
<path d="M-9.12921 401.853L130.327 372.209L269.783 342.564L415.941 372.209L562.1 401.853" stroke="#86BC8D" stroke-width="4"/>
<path d="M562.1 401.853L701.556 372.209L841.012 342.564L987.17 372.209L1133.33 401.853" stroke="#86BC8D" stroke-width="4"/>
<path d="M1133.33 401.853L1272.78 372.209L1412.24 342.564L1473.25 354.938" stroke="#86BC8D" stroke-width="4"/>
<path d="M-35.9378 982.361L103.518 952.717L242.975 923.073L389.133 952.717L535.291 982.361" stroke="#86BC8D" stroke-width="4"/>
<path d="M535.291 982.361L674.747 952.717L814.204 923.073L960.362 952.717L1106.52 982.361" stroke="#86BC8D" stroke-width="4"/>
<path d="M1106.52 982.361L1245.98 952.717L1385.43 923.073L1446.44 935.446" stroke="#86BC8D" stroke-width="4"/>
<path d="M-19.4402 624.57L120.016 594.926L259.472 565.282L405.631 594.926L551.789 624.57" stroke="#86BC8D" stroke-width="4"/>
<path d="M551.789 624.57L691.245 594.926L830.701 565.282L976.859 594.926L1123.02 624.57" stroke="#86BC8D" stroke-width="4"/>
<path d="M1123.02 624.57L1262.47 594.926L1401.93 565.282L1462.94 577.655" stroke="#86BC8D" stroke-width="4"/>
<path d="M-27.689 803.981L111.767 774.337L251.223 744.693L397.382 774.337L543.54 803.981" stroke="#86BC8D" stroke-width="4"/>
<path d="M543.54 803.981L682.996 774.337L822.452 744.693L968.611 774.337L1114.77 803.981" stroke="#86BC8D" stroke-width="4"/>
<path d="M1114.77 803.981L1254.23 774.337L1393.68 744.693L1454.69 757.066" stroke="#86BC8D" stroke-width="4"/>
<path d="M-11.1914 446.19L128.265 416.546L267.721 386.902L413.879 416.546L560.038 446.19" stroke="#86BC8D" stroke-width="4"/>
<path d="M560.038 446.19L699.494 416.546L838.95 386.902L985.108 416.546L1131.27 446.19" stroke="#86BC8D" stroke-width="4"/>
<path d="M1131.27 446.19L1270.72 416.546L1410.18 386.902L1471.18 399.275" stroke="#86BC8D" stroke-width="4"/>
<path d="M-31.8134 893.687L107.643 864.043L247.099 834.399L393.257 864.043L539.416 893.687" stroke="#86BC8D" stroke-width="4"/>
<path d="M539.416 893.687L678.872 864.043L818.328 834.399L964.486 864.043L1110.64 893.687" stroke="#86BC8D" stroke-width="4"/>
<path d="M1110.64 893.687L1250.1 864.043L1389.56 834.399L1450.56 846.772" stroke="#86BC8D" stroke-width="4"/>
<path d="M-15.3159 535.895L124.14 506.251L263.597 476.607L409.755 506.251L555.913 535.895" stroke="#86BC8D" stroke-width="4"/>
<path d="M555.913 535.895L695.369 506.251L834.826 476.607L980.984 506.251L1127.14 535.895" stroke="#86BC8D" stroke-width="4"/>
<path d="M1127.14 535.895L1266.6 506.251L1406.05 476.607L1467.06 488.98" stroke="#86BC8D" stroke-width="4"/>
<path d="M-23.5646 715.307L115.892 685.663L255.348 656.019L401.506 685.663L547.664 715.307" stroke="#86BC8D" stroke-width="4"/>
<path d="M547.664 715.307L687.121 685.663L826.577 656.019L972.735 685.663L1118.89 715.307" stroke="#86BC8D" stroke-width="4"/>
<path d="M1118.89 715.307L1258.35 685.663L1397.81 656.019L1458.81 668.392" stroke="#86BC8D" stroke-width="4"/>
<path d="M-7.06702 357.515L132.389 327.871L271.845 298.227L418.004 327.871L564.162 357.515" stroke="#86BC8D" stroke-width="4"/>
<path d="M564.162 357.515L703.618 327.871L843.074 298.227L989.233 327.871L1135.39 357.515" stroke="#86BC8D" stroke-width="4"/>
<path d="M1135.39 357.515L1274.85 327.871L1414.3 298.227L1475.31 310.6" stroke="#86BC8D" stroke-width="4"/>
<path d="M-35.9378 1011.23L103.518 981.588L242.975 951.944L389.133 981.588L535.291 1011.23" stroke="#86BC8D" stroke-width="4"/>
<path d="M535.291 1011.23L674.747 981.588L814.204 951.944L960.362 981.588L1106.52 1011.23" stroke="#86BC8D" stroke-width="4"/>
<path d="M1106.52 1011.23L1245.98 981.588L1385.43 951.944L1446.44 964.317" stroke="#86BC8D" stroke-width="4"/>
<path d="M-27.689 1073.1L111.767 1043.45L251.223 1013.81L397.382 1043.45L543.54 1073.1" stroke="#86BC8D" stroke-width="4"/>
<path d="M543.54 1073.1L682.996 1043.45L822.452 1013.81L968.611 1043.45L1114.77 1073.1" stroke="#86BC8D" stroke-width="4"/>
<path d="M1114.77 1073.1L1254.23 1043.45L1393.68 1013.81L1454.69 1026.18" stroke="#86BC8D" stroke-width="4"/>
<path d="M-6.03589 297.712L133.42 268.067L272.876 238.423L419.035 268.067L565.193 297.712" stroke="#86BC8D" stroke-width="4"/>
<path d="M565.193 297.712L704.649 268.067L844.105 238.423L990.264 268.067L1136.42 297.712" stroke="#86BC8D" stroke-width="4"/>
<path d="M1136.42 297.712L1275.88 268.067L1415.33 238.423L1476.34 250.797" stroke="#86BC8D" stroke-width="4"/>
<path d="M-11.1914 235.846L128.265 206.201L267.721 176.557L413.879 206.201L560.038 235.846" stroke="#86BC8D" stroke-width="4"/>
<path d="M560.038 235.846L699.494 206.201L838.95 176.557L985.108 206.201L1131.27 235.846" stroke="#86BC8D" stroke-width="4"/>
<path d="M1131.27 235.846L1270.72 206.201L1410.18 176.557L1471.18 188.931" stroke="#86BC8D" stroke-width="4"/>
<path d="M-11.1914 178.104L128.265 148.46L267.721 118.816L413.879 148.46L560.038 178.104" stroke="#86BC8D" stroke-width="4"/>
<path d="M560.038 178.104L699.494 148.46L838.95 118.816L985.108 148.46L1131.27 178.104" stroke="#86BC8D" stroke-width="4"/>
<path d="M1131.27 178.104L1270.72 148.46L1410.18 118.816L1471.18 131.189" stroke="#86BC8D" stroke-width="4"/>
<path d="M-11.1914 116.238L128.265 86.5941L267.721 56.95L413.879 86.5941L560.038 116.238" stroke="#86BC8D" stroke-width="4"/>
<path d="M560.038 116.238L699.494 86.5941L838.95 56.95L985.108 86.5941L1131.27 116.238" stroke="#86BC8D" stroke-width="4"/>
<path d="M1131.27 116.238L1270.72 86.5941L1410.18 56.95L1471.18 69.3231" stroke="#86BC8D" stroke-width="4"/>
<path d="M-6.03589 57.4653L133.42 27.8212L272.876 -1.82288L419.035 27.8212L565.193 57.4653" stroke="#86BC8D" stroke-width="4"/>
<path d="M565.193 57.4653L704.649 27.8212L844.105 -1.82288L990.264 27.8212L1136.42 57.4653" stroke="#86BC8D" stroke-width="4"/>
<path d="M1136.42 57.4653L1275.88 27.8212L1415.33 -1.82288L1476.34 10.5503" stroke="#86BC8D" stroke-width="4"/>
<path d="M-5.00482 27.5636L134.451 -2.08051L273.908 -31.7246L420.066 -2.08051L566.224 27.5636" stroke="#86BC8D" stroke-width="4"/>
<path d="M566.224 27.5636L705.68 -2.08051L845.136 -31.7246L991.295 -2.08051L1137.45 27.5636" stroke="#86BC8D" stroke-width="4"/>
<path d="M1137.45 27.5636L1276.91 -2.08051L1416.37 -31.7246L1477.37 -19.3514" stroke="#86BC8D" stroke-width="4"/>
<path d="M-19.4402 653.441L120.016 623.796L259.472 594.152L405.631 623.796L551.789 653.441" stroke="#86BC8D" stroke-width="4"/>
<path d="M551.789 653.441L691.245 623.796L830.701 594.152L976.859 623.796L1123.02 653.441" stroke="#86BC8D" stroke-width="4"/>
<path d="M1123.02 653.441L1262.47 623.796L1401.93 594.152L1462.94 606.526" stroke="#86BC8D" stroke-width="4"/>
<path d="M-27.689 832.852L111.767 803.208L251.223 773.564L397.382 803.208L543.54 832.852" stroke="#86BC8D" stroke-width="4"/>
<path d="M543.54 832.852L682.996 803.208L822.452 773.564L968.611 803.208L1114.77 832.852" stroke="#86BC8D" stroke-width="4"/>
<path d="M1114.77 832.852L1254.23 803.208L1393.68 773.564L1454.69 785.937" stroke="#86BC8D" stroke-width="4"/>
<path d="M-11.1914 475.06L128.265 445.416L267.721 415.772L413.879 445.416L560.038 475.06" stroke="#86BC8D" stroke-width="4"/>
<path d="M560.038 475.06L699.494 445.416L838.95 415.772L985.108 445.416L1131.27 475.06" stroke="#86BC8D" stroke-width="4"/>
<path d="M1131.27 475.06L1270.72 445.416L1410.18 415.772L1471.18 428.145" stroke="#86BC8D" stroke-width="4"/>
<path d="M-31.8134 922.558L107.643 892.914L247.099 863.27L393.257 892.914L539.416 922.558" stroke="#86BC8D" stroke-width="4"/>
<path d="M539.416 922.558L678.872 892.914L818.328 863.27L964.486 892.914L1110.64 922.558" stroke="#86BC8D" stroke-width="4"/>
<path d="M1110.64 922.558L1250.1 892.914L1389.56 863.27L1450.56 875.643" stroke="#86BC8D" stroke-width="4"/>
<path d="M-15.3159 564.766L124.14 535.122L263.597 505.478L409.755 535.122L555.913 564.766" stroke="#86BC8D" stroke-width="4"/>
<path d="M555.913 564.766L695.369 535.122L834.826 505.478L980.984 535.122L1127.14 564.766" stroke="#86BC8D" stroke-width="4"/>
<path d="M1127.14 564.766L1266.6 535.122L1406.05 505.478L1467.06 517.851" stroke="#86BC8D" stroke-width="4"/>
<path d="M-23.5646 744.178L115.892 714.534L255.348 684.889L401.506 714.534L547.664 744.178" stroke="#86BC8D" stroke-width="4"/>
<path d="M547.664 744.178L687.121 714.534L826.577 684.889L972.735 714.534L1118.89 744.178" stroke="#86BC8D" stroke-width="4"/>
<path d="M1118.89 744.178L1258.35 714.534L1397.81 684.889L1458.81 697.263" stroke="#86BC8D" stroke-width="4"/>
<path d="M-7.06702 386.386L132.389 356.742L271.845 327.098L418.004 356.742L564.162 386.386" stroke="#86BC8D" stroke-width="4"/>
<path d="M564.162 386.386L703.618 356.742L843.074 327.098L989.233 356.742L1135.39 386.386" stroke="#86BC8D" stroke-width="4"/>
<path d="M1135.39 386.386L1274.85 356.742L1414.3 327.098L1475.31 339.471" stroke="#86BC8D" stroke-width="4"/>
<path d="M-33.8756 966.895L105.581 937.251L245.037 907.607L391.195 937.251L537.353 966.895" stroke="#86BC8D" stroke-width="4"/>
<path d="M537.353 966.895L676.81 937.251L816.266 907.607L962.424 937.251L1108.58 966.895" stroke="#86BC8D" stroke-width="4"/>
<path d="M1108.58 966.895L1248.04 937.251L1387.49 907.607L1448.5 919.98" stroke="#86BC8D" stroke-width="4"/>
<path d="M-17.378 609.103L122.078 579.459L261.534 549.815L407.693 579.459L553.851 609.103" stroke="#86BC8D" stroke-width="4"/>
<path d="M553.851 609.103L693.307 579.459L832.763 549.815L978.922 579.459L1125.08 609.103" stroke="#86BC8D" stroke-width="4"/>
<path d="M1125.08 609.103L1264.54 579.459L1403.99 549.815L1465 562.188" stroke="#86BC8D" stroke-width="4"/>
<path d="M-25.6268 788.515L113.829 758.871L253.286 729.227L399.444 758.871L545.602 788.515" stroke="#86BC8D" stroke-width="4"/>
<path d="M545.602 788.515L685.058 758.871L824.515 729.227L970.673 758.871L1116.83 788.515" stroke="#86BC8D" stroke-width="4"/>
<path d="M1116.83 788.515L1256.29 758.871L1395.74 729.227L1456.75 741.6" stroke="#86BC8D" stroke-width="4"/>
<path d="M-9.12921 430.723L130.327 401.079L269.783 371.435L415.941 401.079L562.1 430.723" stroke="#86BC8D" stroke-width="4"/>
<path d="M562.1 430.723L701.556 401.079L841.012 371.435L987.17 401.079L1133.33 430.723" stroke="#86BC8D" stroke-width="4"/>
<path d="M1133.33 430.723L1272.78 401.079L1412.24 371.435L1473.25 383.808" stroke="#86BC8D" stroke-width="4"/>
<path d="M-29.7512 878.22L109.705 848.576L249.161 818.932L395.319 848.576L541.478 878.22" stroke="#86BC8D" stroke-width="4"/>
<path d="M541.478 878.22L680.934 848.576L820.39 818.932L966.548 848.576L1112.71 878.22" stroke="#86BC8D" stroke-width="4"/>
<path d="M1112.71 878.22L1252.16 848.576L1391.62 818.932L1452.62 831.305" stroke="#86BC8D" stroke-width="4"/>
<path d="M-13.2537 520.429L126.203 490.785L265.659 461.141L411.817 490.785L557.975 520.429" stroke="#86BC8D" stroke-width="4"/>
<path d="M557.975 520.429L697.432 490.785L836.888 461.141L983.046 490.785L1129.2 520.429" stroke="#86BC8D" stroke-width="4"/>
<path d="M1129.2 520.429L1268.66 490.785L1408.12 461.141L1469.12 473.514" stroke="#86BC8D" stroke-width="4"/>
<path d="M-21.5024 699.84L117.954 670.196L257.41 640.552L403.568 670.196L549.727 699.84" stroke="#86BC8D" stroke-width="4"/>
<path d="M549.727 699.84L689.183 670.196L828.639 640.552L974.797 670.196L1120.96 699.84" stroke="#86BC8D" stroke-width="4"/>
<path d="M1120.96 699.84L1260.41 670.196L1399.87 640.552L1460.87 652.925" stroke="#86BC8D" stroke-width="4"/>
<path d="M-5.00482 342.049L134.451 312.405L273.908 282.76L420.066 312.405L566.224 342.049" stroke="#86BC8D" stroke-width="4"/>
<path d="M566.224 342.049L705.68 312.405L845.136 282.76L991.295 312.405L1137.45 342.049" stroke="#86BC8D" stroke-width="4"/>
<path d="M1137.45 342.049L1276.91 312.405L1416.37 282.76L1477.37 295.134" stroke="#86BC8D" stroke-width="4"/>
</svg>
