<svg width="285" height="375" viewBox="0 0 285 375" fill="none" xmlns="http://www.w3.org/2000/svg">
<g filter="url(#filter0_d_3_184)">
<path d="M90.5095 124.095C33.8221 39.4886 112.245 0 142.241 0C183.974 0 250.66 39.4886 193.973 124.095C195.712 131.06 205.188 142.261 229.185 131.344C259.181 117.698 304.391 164.607 265.267 189.341C225.707 208.531 213.97 213.221 234.836 262.262C236.865 271.502 244.574 292.028 259.181 300.216C277.439 310.45 288.741 330.92 241.357 357.786C193.973 384.651 160.065 344.139 159.195 336.463C158.326 328.787 158.326 288.275 142.241 283.585C126.156 288.275 126.156 328.787 125.287 336.463C124.418 344.139 90.5095 384.651 43.1251 357.786C-4.25929 330.92 7.04342 310.45 25.3016 300.216C39.9082 292.028 47.6172 271.502 49.6459 262.262C70.5124 213.221 58.775 208.531 19.2156 189.341C-19.9091 164.607 25.3016 117.698 55.2972 131.344C79.2937 142.261 88.7706 131.06 90.5095 124.095Z" fill="#FCD46E"/>
<path d="M130.236 1.70581C104.282 20.4926 68.8721 61.4352 104.855 115.14C103.116 122.105 97.0299 127.061 90.5091 124.095C90.2034 123.956 85.9841 116.701 85.6753 116.574C44.1743 46.6564 97.1647 9.53671 130.236 1.70581Z" fill="#F3C243"/>
<path d="M251.962 351.365C215.687 358.673 191.232 328.595 190.495 322.091C190.376 321.042 190.274 319.38 190.144 317.28C189.325 304.012 159.17 288.914 145.284 284.864C149.631 291.134 154.832 297.231 157.169 313.658C158.152 320.569 158.562 327.21 158.844 331.779C158.974 333.879 159.076 335.542 159.195 336.59C160.065 344.266 193.973 384.779 241.357 357.913C245.286 355.685 248.811 353.502 251.962 351.365Z" fill="#F3C243"/>
<path d="M113.529 352.027C102.125 353.541 88.904 351.623 74.4249 343.414C27.0405 316.548 38.3432 296.078 56.6014 285.844C71.208 277.656 78.917 257.13 80.9457 247.89C101.466 199.663 90.4552 194.326 52.461 175.912C51.8201 175.601 51.1715 175.287 50.5153 174.969C29.6622 161.786 32.7671 142.303 44.7569 129.048C16.2107 128.081 -15.5153 167.512 19.2156 189.468C19.8718 189.786 20.5204 190.1 21.1612 190.411C59.1554 208.825 70.1662 214.162 49.6459 262.389C47.6172 271.629 39.9082 292.155 25.3016 300.343C7.04342 310.577 -4.25929 331.047 43.1251 357.913C74.2628 375.567 99.5811 364.126 113.529 352.027Z" fill="#F3C243"/>
<path d="M157.456 315.568C162.238 315.141 169.315 296.486 185.262 311.076C205.195 329.313 211.84 306.516 211.84 305.604C211.84 304.693 220.382 284.175 238.417 300.589C252.845 313.72 253.529 304.48 257.441 298.936" stroke="white" stroke-width="8"/>
<path d="M128.764 305.333C122.724 303.934 111.112 289.865 99.8534 308.185C85.7806 331.084 73.0197 310.947 72.7649 310.07C72.51 309.193 59.2093 297.657 45.8038 312.395C42.1576 317.732 32.2568 311.303 24.4318 300.642" stroke="white" stroke-width="8"/>
<ellipse cx="115.288" cy="64.8193" rx="12.1721" ry="11.9404" fill="white"/>
<ellipse cx="168.324" cy="64.8193" rx="12.1721" ry="11.9404" fill="white"/>
<path fill-rule="evenodd" clip-rule="evenodd" d="M103.116 65.245C103.116 61.6791 104.709 58.4783 107.236 56.2904C106.82 57.4947 106.594 58.7853 106.594 60.1276C106.594 66.7221 112.043 72.068 118.766 72.068C121.853 72.068 124.672 70.9404 126.818 69.0822C125.189 73.7943 120.642 77.1854 115.288 77.1854C108.566 77.1854 103.116 71.8395 103.116 65.245Z" fill="#F1F1F1"/>
<path fill-rule="evenodd" clip-rule="evenodd" d="M156.152 65.245C156.152 61.6791 157.745 58.4784 160.272 56.2905C159.855 57.4947 159.629 58.7853 159.629 60.1276C159.629 66.7221 165.079 72.068 171.802 72.068C174.889 72.068 177.708 70.9404 179.854 69.0821C178.225 73.7943 173.678 77.1854 168.324 77.1854C161.601 77.1854 156.152 71.8395 156.152 65.245Z" fill="#F1F1F1"/>
<ellipse cx="143.98" cy="162.901" rx="12.1721" ry="11.9404" fill="#F75A5A"/>
<ellipse cx="143.11" cy="196.164" rx="12.1721" ry="11.9404" fill="#7FF075"/>
<ellipse cx="143.98" cy="232.838" rx="12.1721" ry="11.9404" fill="#F75A5A"/>
<path fill-rule="evenodd" clip-rule="evenodd" d="M131.807 163.327C131.807 159.761 133.401 156.56 135.927 154.372C135.511 155.577 135.285 156.867 135.285 158.21C135.285 164.804 140.735 170.15 147.457 170.15C150.545 170.15 153.364 169.022 155.509 167.164C153.88 171.876 149.334 175.267 143.98 175.267C137.257 175.267 131.807 169.921 131.807 163.327Z" fill="#E34141"/>
<path fill-rule="evenodd" clip-rule="evenodd" d="M130.938 196.589C130.938 193.024 132.531 189.823 135.058 187.635C134.642 188.839 134.416 190.13 134.416 191.472C134.416 198.067 139.865 203.412 146.588 203.412C149.675 203.412 152.494 202.285 154.64 200.427C153.011 205.139 148.464 208.53 143.11 208.53C136.388 208.53 130.938 203.184 130.938 196.589Z" fill="#6EE264"/>
<path fill-rule="evenodd" clip-rule="evenodd" d="M131.807 233.263C131.807 229.698 133.401 226.497 135.927 224.309C135.511 225.513 135.285 226.804 135.285 228.146C135.285 234.741 140.735 240.086 147.457 240.086C150.545 240.086 153.364 238.959 155.51 237.101C153.88 241.813 149.334 245.204 143.98 245.204C137.257 245.204 131.807 239.858 131.807 233.263Z" fill="#E34141"/>
<path d="M114.419 98.9347C123.548 106.611 147.457 117.357 170.063 98.9347" stroke="white" stroke-width="8"/>
<ellipse cx="114.419" cy="98.9347" rx="3.47775" ry="3.41154" fill="white"/>
<ellipse cx="170.063" cy="98.9347" rx="3.47775" ry="3.41154" fill="white"/>
</g>
<defs>
<filter id="filter0_d_3_184" x="0" y="0" width="284.482" height="375" filterUnits="userSpaceOnUse" color-interpolation-filters="sRGB">
<feFlood flood-opacity="0" result="BackgroundImageFix"/>
<feColorMatrix in="SourceAlpha" type="matrix" values="0 0 0 0 0 0 0 0 0 0 0 0 0 0 0 0 0 0 127 0" result="hardAlpha"/>
<feOffset dy="4"/>
<feGaussianBlur stdDeviation="2"/>
<feComposite in2="hardAlpha" operator="out"/>
<feColorMatrix type="matrix" values="0 0 0 0 0 0 0 0 0 0 0 0 0 0 0 0 0 0 0.25 0"/>
<feBlend mode="normal" in2="BackgroundImageFix" result="effect1_dropShadow_3_184"/>
<feBlend mode="normal" in="SourceGraphic" in2="effect1_dropShadow_3_184" result="shape"/>
</filter>
</defs>
</svg>
