<svg width="132" height="133" viewBox="0 0 132 133" fill="none" xmlns="http://www.w3.org/2000/svg">
<path d="M46.7275 80.2619C45.9129 86.2275 49.6003 94.391 51.5459 97.727C49.8961 100.005 47.1529 105.09 49.378 107.21C47.3923 106.619 42.5101 106.097 38.866 108.743L38.6748 108.697C35.6863 106.251 28.2044 101.326 22.1849 101.192C20.8429 95.3934 16.5015 83.6211 9.87166 82.9198C11.4286 77.1137 11.1506 66.4985 8.19247 61.1636L9.71599 60.0599C14.3808 64.5821 24.641 65.8521 30.6197 65.2278C30.2694 71.8855 41.2123 78.0245 46.7275 80.2619Z" fill="#2F853C"/>
<path d="M49.3777 107.21L9.25586 60.8702" stroke="#F7EFD6" stroke-width="1.31765" stroke-linecap="square"/>
<path d="M11.0741 79.8466L24.7944 78.7951L27.9916 65.6112" stroke="#F7EFD6" stroke-width="1.31765" stroke-linecap="square"/>
<path d="M44.1541 79.605L39.7526 95.8549L21.9917 98.3628" stroke="#F7EFD6" stroke-width="1.31765" stroke-linecap="square"/>
<path d="M85.0963 80.2619C85.9108 86.2275 82.2234 94.391 80.2779 97.727C81.9276 100.005 84.6709 105.09 82.4458 107.21C84.4314 106.619 89.3136 106.097 92.9578 108.743L93.1489 108.697C96.1374 106.251 103.619 101.326 109.639 101.192C110.981 95.3934 115.322 83.6211 121.952 82.9198C120.395 77.1137 120.673 66.4985 123.631 61.1636L122.108 60.0599C117.443 64.5821 107.183 65.8521 101.204 65.2278C101.554 71.8855 90.6115 78.0245 85.0963 80.2619Z" fill="#2F853C"/>
<path d="M82.446 107.21L122.568 60.8702" stroke="#F7EFD6" stroke-width="1.31765" stroke-linecap="square"/>
<path d="M120.75 79.8466L107.029 78.7951L103.832 65.6112" stroke="#F7EFD6" stroke-width="1.31765" stroke-linecap="square"/>
<path d="M87.6696 79.605L92.0712 95.8549L109.832 98.3628" stroke="#F7EFD6" stroke-width="1.31765" stroke-linecap="square"/>
<path d="M99.5595 99.7224C98.2126 103.258 93.721 106.649 91.6436 107.903C91.8677 109.656 91.8494 113.287 89.984 113.786C91.2571 114.058 94.1065 115.24 95.3196 117.796L95.4388 117.829C97.8234 117.38 103.433 116.916 106.793 118.655C109.279 115.861 115.217 110.676 119.085 112.285C119.974 108.615 123.324 102.844 126.561 100.793L126.053 99.7252C122.119 100.815 116.079 98.4257 112.969 96.2813C111.158 100.058 103.275 100.149 99.5595 99.7224Z" fill="#2F853C"/>
<path d="M89.9841 113.786L126.063 100.311" stroke="#F7EFD6" stroke-width="0.827911" stroke-linecap="square"/>
<path d="M119.347 110.228L112.097 105.517L114.303 97.2842" stroke="#F7EFD6" stroke-width="0.827911" stroke-linecap="square"/>
<path d="M101.177 100.135L98.7112 110.422L107.751 117.153" stroke="#F7EFD6" stroke-width="0.827911" stroke-linecap="square"/>
<path d="M32.073 99.7224C33.42 103.258 37.9115 106.649 39.9889 107.903C39.7649 109.656 39.7832 113.287 41.6485 113.786C40.3755 114.058 37.5261 115.24 36.313 117.796L36.1938 117.829C33.8092 117.38 28.2 116.916 24.84 118.655C22.3541 115.861 16.4153 110.676 12.5479 112.285C11.6583 108.615 8.30885 102.844 5.07122 100.793L5.57909 99.7252C9.51327 100.815 15.554 98.4257 18.6632 96.2813C20.4746 100.058 28.3578 100.149 32.073 99.7224Z" fill="#2F853C"/>
<path d="M41.6484 113.786L5.56934 100.311" stroke="#F7EFD6" stroke-width="0.827911" stroke-linecap="square"/>
<path d="M12.2855 110.228L19.5355 105.517L17.3291 97.2842" stroke="#F7EFD6" stroke-width="0.827911" stroke-linecap="square"/>
<path d="M30.456 100.135L32.9214 110.422L23.8816 117.153" stroke="#F7EFD6" stroke-width="0.827911" stroke-linecap="square"/>
<rect x="49" y="28" width="33" height="76" fill="#AEEFE9"/>
<path d="M39.3441 122C38.3892 111.6 32.0502 102.333 29 99H103C99.9498 102.333 93.6108 111.6 92.6559 122H39.3441Z" fill="#FED777"/>
<ellipse cx="65.5" cy="28" rx="16.5" ry="5" fill="#CBFEF9"/>
<ellipse cx="66" cy="28" rx="10" ry="3" fill="#5DB1B4"/>
<path d="M66 28V22" stroke="#FAD03A" stroke-width="2" stroke-linecap="round"/>
<path d="M65.4398 2C57.4397 12 59.9398 22 62.4398 22C63.6398 22.4 67.2731 22.1667 68.9398 22C71.7731 21.8333 74.4397 12.5 65.4398 2Z" fill="#FAD03A" stroke="#FAD03A" stroke-width="2" stroke-linecap="square"/>
<path d="M65.2086 4C59.0192 12.4072 60.9534 20.8143 62.8876 20.8143C63.816 21.1506 66.627 20.9544 67.9165 20.8143C70.1085 20.6742 72.1716 12.8275 65.2086 4Z" fill="#FA963A"/>
</svg>
