<svg width="56" height="61" viewBox="0 0 56 61" fill="none" xmlns="http://www.w3.org/2000/svg">
<path d="M54.9254 12.5847C55.7254 16.2037 54.0153 18.6347 51.7153 20.6937C50.4353 21.8437 48.8453 22.6647 47.2453 23.7437C46.8253 25.9437 47.5353 28.0447 48.2553 30.1437C48.9853 32.2537 49.8354 34.3237 50.5454 36.4437C53.7954 46.0637 49.6354 52.3837 42.8554 55.7547C35.5554 59.3847 27.7654 60.9837 19.6054 59.3847C9.18535 57.3347 3.18533 50.5547 0.765327 40.6047C-0.834673 34.0647 0.125351 27.5747 3.16535 21.4947C3.50535 20.8057 4.03531 20.2247 4.62531 19.3757C5.84531 20.1757 6.86535 20.8757 7.91535 21.5157C10.5054 23.0957 13.0554 24.7557 15.7354 26.1557C17.1254 26.8767 18.7354 27.2657 20.2954 27.4957C23.1154 27.9167 25.3454 27.0167 26.4154 23.7857C25.9654 23.1767 25.4653 22.3867 24.8753 21.6857C21.5053 17.7057 20.8353 13.0457 21.7653 8.15569C22.7053 3.19569 27.9154 -1.84432 34.9254 0.666679C36.5554 1.25668 38.1153 2.1457 39.5553 3.1267C41.6653 4.5567 43.6654 6.16671 45.6654 7.75671C48.4254 9.94471 51.1954 12.1047 54.9254 12.5847ZM46.0253 22.6747C49.3253 20.7037 53.2353 19.1537 53.6853 14.4147C51.2653 12.9747 48.8754 11.7147 46.6654 10.2037C44.4254 8.67467 42.3953 6.8347 40.1853 5.2647C38.6253 4.1547 36.9953 3.08469 35.2653 2.31469C30.2253 0.0746891 25.5453 1.99471 23.5553 7.14471C21.6653 12.0447 22.7653 16.5547 25.8353 20.6657C26.4953 21.5457 27.3253 22.2957 28.0053 23.0347C26.1953 28.6147 24.0853 29.8147 18.7053 28.5557C15.2153 27.7357 12.2053 25.9357 9.21534 24.0757C7.88534 23.2457 6.57534 22.3867 5.34534 21.6057C4.86534 21.9557 4.51533 22.0857 4.39533 22.3257C-0.0946684 31.7567 0.245314 40.8957 6.31531 49.5357C9.57531 54.1667 14.1253 57.1667 19.7253 58.0967C27.5154 59.3867 35.0453 58.1767 42.0753 54.5567C49.6353 50.6667 51.9453 44.6167 49.2453 36.5467C48.8353 35.3367 48.2853 34.1667 47.8653 32.9667C47.2853 31.3067 46.7353 29.6367 46.2153 27.9667C45.6753 26.2647 45.4253 24.5447 46.0253 22.6747Z" fill="black"/>
<path d="M53.6851 14.4148C53.2351 19.1538 49.3251 20.7038 46.0251 22.6748C45.4251 24.5448 45.6751 26.2648 46.2151 27.9648C46.7351 29.6348 47.2851 31.3048 47.8651 32.9648C48.2851 34.1648 48.8351 35.3348 49.2451 36.5448C51.9451 44.6138 49.6351 50.6648 42.0751 54.5548C35.0451 58.1748 27.5151 59.3848 19.7251 58.0948C14.1251 57.1648 9.57508 54.1648 6.31508 49.5338C0.245082 40.8938 -0.0948999 31.7548 4.3951 22.3238C4.5151 22.0848 4.86511 21.9538 5.34511 21.6038C6.57511 22.3838 7.88511 23.2438 9.21511 24.0738C12.2051 25.9338 15.2151 27.7338 18.7051 28.5538C24.0851 29.8138 26.1951 28.6138 28.0051 23.0328C27.3251 22.2938 26.4951 21.5438 25.8351 20.6638C22.7651 16.5538 21.6651 12.0438 23.5551 7.14281C25.5451 1.99281 30.2251 0.0727938 35.2651 2.31279C36.9951 3.08379 38.6251 4.15281 40.1851 5.26281C42.3951 6.83281 44.4251 8.67283 46.6651 10.2018C48.8751 11.7148 51.2651 12.9748 53.6851 14.4148ZM40.6051 12.4148C40.6151 11.1248 39.5651 10.0548 38.2151 9.97478C36.8251 9.89478 35.7851 10.8348 35.7251 12.2348C35.6551 13.6848 36.5051 14.7958 37.7951 14.9348C39.2751 15.1048 40.5951 13.9148 40.6051 12.4148ZM36.7651 40.1048C37.1851 36.2848 35.1151 34.0348 31.2951 33.9648C30.5051 33.9438 29.7151 34.1048 29.4751 34.1248C27.7051 35.5148 26.4651 36.7738 24.9851 37.5948C21.9051 39.2838 18.5951 39.3748 15.2451 38.3238C13.4651 37.7738 11.6751 37.2238 9.04512 36.4038C10.3851 41.6648 12.6351 45.2038 16.2951 47.7738C21.2651 51.2538 26.4351 51.2238 31.6151 48.2948C34.7651 46.5148 36.3851 43.6248 36.7651 40.1048Z" fill="#F9ED24"/>
<path d="M38.2152 9.97447C39.5652 10.0545 40.6152 11.1245 40.6052 12.4145C40.5952 13.9145 39.2752 15.1035 37.7952 14.9345C36.5052 14.7945 35.6552 13.6845 35.7252 12.2345C35.7852 10.8345 36.8252 9.89447 38.2152 9.97447Z" fill="black"/>
<path d="M31.2954 33.9646C35.1154 34.0336 37.1854 36.2836 36.7654 40.1046C36.3854 43.6256 34.7654 46.5146 31.6154 48.2946C26.4354 51.2246 21.2654 51.2546 16.2954 47.7736C12.6354 45.2036 10.3854 41.6646 9.04541 36.4036C11.6754 37.2236 13.4654 37.7736 15.2454 38.3236C18.5954 39.3746 21.9054 39.2836 24.9854 37.5946C26.4654 36.7746 27.7054 35.5146 29.4754 34.1246C29.7154 34.1046 30.5054 33.9446 31.2954 33.9646ZM34.4254 43.2946C35.2654 41.6746 35.5254 39.9746 35.2154 38.1936C34.7354 35.4336 32.1754 34.3936 29.8854 36.0236C29.3754 36.3936 28.9054 36.8346 28.3954 37.2136C24.7354 39.9336 20.6654 40.8226 16.2054 39.9526C14.8254 39.6826 13.4654 39.3336 11.0254 38.7826C12.1854 40.8736 12.7454 42.1926 13.5654 43.3126C17.0354 48.0426 21.7554 49.6826 27.4354 48.5626C30.5654 47.9446 32.9254 46.1646 34.4254 43.2946Z" fill="black"/>
<path d="M35.2154 38.1947C35.5254 39.9747 35.2654 41.6747 34.4254 43.2957C32.9254 46.1657 30.5654 47.9447 27.4354 48.5657C21.7554 49.6857 17.0354 48.0457 13.5654 43.3157C12.7454 42.1957 12.1854 40.8767 11.0254 38.7857C13.4654 39.3367 14.8254 39.6857 16.2054 39.9557C20.6654 40.8257 24.7354 39.9357 28.3954 37.2167C28.9054 36.8367 29.3754 36.3967 29.8854 36.0267C32.1754 34.3947 34.7354 35.4347 35.2154 38.1947Z" fill="#F9ED24"/>
</svg>
