<svg width="100" height="173" viewBox="0 0 100 173" fill="none" xmlns="http://www.w3.org/2000/svg">
<rect x="29" y="61" width="13" height="9" fill="#FFF2C9"/>
<rect x="57" y="61" width="13" height="9" fill="#FFF2C9"/>
<path fill-rule="evenodd" clip-rule="evenodd" d="M54.12 172.151V172.311C54.72 172.311 55.199 172.371 55.68 172.301C56.08 172.25 56.49 172.2 56.89 172.151H54.12ZM50.43 172.151C50.44 172.231 50.44 172.301 50.44 172.38H53.26V172.151H50.43ZM39.07 172.151C39.4 172.201 39.73 172.241 40.06 172.281C40.41 172.331 40.76 172.361 41.11 172.391C41.37 172.411 41.64 172.431 41.9 172.451C42.3 172.481 42.7 172.501 43.1 172.521C43.81 172.551 44.53 172.571 45.26 172.581C46.66 172.602 48.08 172.591 49.51 172.591V172.152H39.07V172.151ZM54.12 172.151V172.311C54.72 172.311 55.199 172.371 55.68 172.301C56.08 172.25 56.49 172.2 56.89 172.151H54.12ZM39.07 172.151C39.4 172.201 39.73 172.241 40.06 172.281C40.41 172.331 40.76 172.361 41.11 172.391C41.37 172.411 41.64 172.431 41.9 172.451C42.3 172.481 42.7 172.501 43.1 172.521C43.81 172.551 44.53 172.571 45.26 172.581C46.66 172.602 48.08 172.591 49.51 172.591V172.152H39.07V172.151ZM50.43 172.151C50.44 172.231 50.44 172.301 50.44 172.38H53.26V172.151H50.43ZM39.07 172.151C39.4 172.201 39.73 172.241 40.06 172.281C40.41 172.331 40.76 172.361 41.11 172.391C41.37 172.411 41.64 172.431 41.9 172.451C42.3 172.481 42.7 172.501 43.1 172.521C43.81 172.551 44.53 172.571 45.26 172.581C46.66 172.602 48.08 172.591 49.51 172.591V172.152H39.07V172.151ZM50.43 172.151C50.44 172.231 50.44 172.301 50.44 172.38H53.26V172.151H50.43ZM54.12 172.151V172.311C54.72 172.311 55.199 172.371 55.68 172.301C56.08 172.25 56.49 172.2 56.89 172.151H54.12ZM95.45 139.37C95.541 138.761 95.95 138.1 96.4 137.65C97.541 136.51 98.78 135.45 99.97 134.379V134.05C99.09 132.289 97.99 130.61 97.39 128.76C95.88 124.23 96.25 119.489 96.39 114.81C96.43 113.47 96.09 112.77 94.67 112.39C91.05 111.419 87.48 110.259 83.89 109.15C76.411 106.86 68.99 104.37 61.87 100.73C62.17 98.419 62.439 96.099 62.819 93.791C62.899 93.28 63.33 92.74 63.75 92.41C67.71 89.301 70.89 85.51 73.34 81.13C73.92 80.08 74.529 79.61 75.819 79.57C80.37 79.44 83.699 77.33 85.439 73C85.96 71.69 86.449 70.36 86.859 69C88.17 64.59 90.42 60.71 93.519 57.33C94.889 55.84 96.249 54.35 97.599 52.85C97.889 52.52 98.139 52.14 98.679 51.41C91.979 51.86 86.149 53.5 80.849 57.18C80.559 55.67 80.37 54.43 80.109 53.22C76.299 35.46 67.779 20.18 55.58 6.85C53.43 4.49 51.09 2.28 48.84 0H47.85C41.97 5.32 36.85 11.32 32.37 17.89C24.8 28.96 18.82 40.75 16.28 54.06C16.05 55.28 15.84 56.49 15.61 57.8C10.7 55.13 5.56 53.53 0 53.42V54.08C0.39 54.46 0.770002 54.86 1.15 55.24C6.33 60.51 10.56 66.31 12.46 73.66C13.8 78.82 17.52 81.32 22.81 81.62C23.29 81.65 23.98 82.03 24.15 82.43C26.43 87.64 30.2 91.43 35.14 94.131C35.55 94.36 35.97 94.901 36.03 95.33C36.33 97.381 36.51 99.43 36.77 101.81C27.14 105.79 17.54 109.79 7.92 113.73C6.74 114.22 6.24 114.72 6.53 116.13C7.92 122.989 7.92 129.9 6.74 136.779C6.12 140.359 6.04 140.339 9.45 141.559C9.55 141.599 9.66 141.639 9.77 141.649C11 141.759 11.27 142.639 11.47 143.659C13.26 152.499 12.66 161.459 13.07 170.499C11.83 170.359 10.75 170.22 9.14 170.029C9.58 170.779 10 171.479 10.4 172.149H11.31C11.12 171.838 10.92 171.519 10.72 171.189C16.17 171.439 21.36 171.659 26.73 171.889C26.69 171.979 26.65 172.069 26.6 172.149H27.55C27.77 171.709 28 171.249 28.22 170.769H26.24V145.719C27.04 150.338 27.71 154.948 28.18 159.588C28.38 161.578 28.67 163.778 28.03 165.568C27.37 167.398 28.09 168.178 29.17 169.048C29.83 169.577 30.05 170.027 29.95 170.928C29.91 171.337 29.88 171.738 29.86 172.148H30.66V170.398C32.34 171.138 34.03 171.708 35.72 172.148H39.03C38.94 172.138 38.85 172.127 38.76 172.098C38.54 172.068 38.32 172.037 38.09 171.988C37.94 171.968 37.79 171.938 37.64 171.908C37.46 171.868 37.28 171.838 37.1 171.788C36.81 171.728 36.52 171.658 36.23 171.578C36.22 171.578 36.21 171.578 36.2 171.568C35.91 171.498 35.63 171.418 35.34 171.328C34.76 171.158 34.18 170.948 33.61 170.719C33.3 170.599 33 170.458 32.69 170.319C32.38 170.179 32.07 170.029 31.77 169.869C31.06 169.489 30.42 168.97 29.76 168.459C28.86 167.77 28.67 167.06 28.9 165.73C29.32 163.41 29.34 160.94 29.04 158.589C27.88 149.569 26.51 140.579 25.23 131.579C24.79 128.499 21.21 124.819 18.92 124.72C20.46 126.81 22.55 128.869 23.68 131.379C24.84 133.94 25.08 136.93 25.73 139.819C20.73 141.239 16.04 143.279 10.93 141.259C10.18 140.958 9.41 140.658 8.7 140.259C7.7 139.698 7.42 138.868 7.49 137.668C7.8 132.679 8.1 127.678 8.14 122.698C8.17 120.158 7.64 117.618 7.38 115.158C17.07 111.039 26.81 106.888 36.72 102.668V106.778C36.94 106.789 37.15 106.799 37.35 106.828C37.42 105.608 37.48 104.408 37.54 102.879C40 104.809 42.82 104.899 45.6 105.158C45.93 105.209 46.41 105.597 46.5 105.928C47.12 107.989 47.65 110.069 48.3 112.539C47.06 112.198 46.39 112.018 45.71 111.828C45.63 111.948 45.55 112.068 45.48 112.198C45.83 112.459 46.16 112.908 46.54 112.959C47.85 113.139 47.94 113.948 47.96 115.049C48.14 124.039 48.35 133.038 48.61 142.038C48.84 150.478 49.14 158.918 49.41 167.358V167.368C49.44 168.408 49.48 169.438 49.51 170.478C49.52 170.978 49.51 171.468 49.51 172.148H50.43C50.14 162.428 49.85 152.728 49.56 143.018C49.26 133.238 48.96 123.438 48.67 113.618H52.01C52.11 118.508 52.22 123.389 52.32 128.278C52.631 142.858 52.94 157.458 53.26 172.148H54.12C53.699 152.587 53.279 133.078 52.849 113.558C53.37 113.318 53.879 113.087 54.399 112.847C54.399 112.738 54.379 112.618 54.379 112.507C53.899 112.458 53.439 112.398 52.659 112.318C52.759 110.308 52.778 108.268 52.988 106.218C53.039 105.768 53.659 105.177 54.138 104.997C56.418 104.167 58.718 103.458 61.098 102.687C61.248 103.567 61.438 104.797 61.648 106.038C61.869 106.027 62.079 106.007 62.298 105.977C62.188 104.687 62.078 103.377 61.958 102.077C62.138 102.017 62.258 101.937 62.317 101.968C72.338 106.888 83.088 109.778 93.697 112.997C95.118 113.437 95.637 113.878 95.527 115.538C95.237 120.497 95.378 125.468 96.887 130.277C97.217 131.298 97.587 132.377 98.187 133.257C98.958 134.376 98.637 135.206 97.687 135.696C95.868 136.626 94.007 137.566 92.047 138.096C87.997 139.196 83.927 140.316 79.667 139.995C79.247 139.966 78.827 139.886 78.307 139.815C79.297 133.705 79.537 127.445 84.337 122.725C84.207 122.615 84.077 122.485 83.946 122.365C83.457 122.735 82.877 123.025 82.467 123.475C80.177 125.985 79.196 129.124 78.717 132.374C77.017 143.975 75.217 155.555 75.137 167.305C75.127 168.744 74.477 169.485 73.277 169.755C71.208 170.194 69.118 170.545 67.007 170.834C65.317 171.074 63.637 171.295 61.946 171.515C60.257 171.735 58.577 171.945 56.886 172.145H63.616C66.326 171.795 69.025 171.405 71.735 171.065C72.695 170.945 73.616 170.575 74.735 170.285C74.706 170.905 74.656 171.525 74.616 172.145H75.376C75.756 166.124 76.206 160.115 76.706 154.105C77.056 149.985 77.645 145.865 78.156 141.755C78.195 141.454 78.345 141.175 78.466 140.815C79.016 140.895 79.476 140.965 79.666 140.995V170.325C79.096 170.265 78.525 170.205 77.626 170.096C77.926 170.846 78.046 171.366 78.336 171.776C78.416 171.896 78.496 172.026 78.576 172.146H79.466C79.356 171.896 79.246 171.656 79.136 171.406C84.446 171.186 89.556 170.986 95.086 170.766C94.786 171.245 94.496 171.705 94.216 172.146H95.296C95.695 171.356 96.056 170.466 96.536 169.546C95.015 169.676 93.935 169.766 92.775 169.865C92.996 164.495 93.025 159.365 93.475 154.265C93.9 149.29 94.72 144.33 95.45 139.37ZM25.19 170.151C25.19 170.161 25.19 170.181 25.18 170.191C25.18 170.221 25.17 170.251 25.15 170.291C25.11 170.381 25.03 170.481 24.93 170.581C24.68 170.831 24.32 171.052 24.08 171.041C21.03 170.972 17.99 170.831 14.96 170.611C14.91 170.611 14.86 170.59 14.8 170.571C14.72 170.541 14.64 170.491 14.55 170.431C14.49 170.391 14.43 170.34 14.37 170.29C14.29 170.221 14.22 170.15 14.16 170.07C14.06 169.96 13.99 169.85 13.95 169.75C13.94 169.69 13.92 169.641 13.92 169.59C13.87 168.511 13.86 167.431 13.86 166.33C13.86 165.23 13.88 164.13 13.88 163.011C13.92 163.021 13.97 163.031 14.01 163.04C14.42 163.12 14.83 163.2 15.24 163.29C15.69 163.391 16.15 163.49 16.6 163.58C17.52 163.77 18.43 163.931 19.35 164C19.46 164.011 19.59 164.011 19.7 164.011H19.75C19.87 164.021 19.98 164.021 20.1 164.021C20.6 164.031 21.09 164.021 21.6 164C22.37 163.96 23.15 163.891 23.96 163.84C23.97 163.84 23.98 163.84 23.98 163.84C24.39 163.811 24.81 163.78 25.24 163.761V163.771C25.24 165.821 25.29 167.99 25.19 170.151ZM25.25 161.511C25.17 162.061 24.41 162.771 23.83 162.92C20.61 163.721 17.46 163.16 14.38 162.08C14.11 161.99 13.8 161.57 13.78 161.28C13.73 159.56 13.75 157.82 13.75 156.34H25.55C25.49 157.95 25.51 159.75 25.25 161.511ZM25.53 154.151C25.52 154.361 25.38 154.63 25.2 154.861C25.15 154.911 25.1 154.971 25.05 155.021C25 155.081 24.95 155.121 24.89 155.151C24.79 155.231 24.68 155.291 24.58 155.311C24.29 155.38 24 155.441 23.7 155.491C23.47 155.541 23.23 155.581 22.99 155.611C22.85 155.641 22.72 155.661 22.58 155.671C22.37 155.701 22.16 155.722 21.96 155.741C21.66 155.771 21.35 155.791 21.04 155.811C20.69 155.831 20.33 155.84 19.97 155.84H19.89C19.49 155.84 19.09 155.83 18.69 155.811C18.37 155.79 18.06 155.771 17.74 155.741C17.49 155.711 17.25 155.691 17 155.661C16.81 155.641 16.62 155.621 16.44 155.591C16.27 155.571 16.1 155.541 15.93 155.512C15.63 155.461 15.34 155.411 15.04 155.352C14.78 155.302 14.55 155.232 14.35 155.142C14.17 155.052 14.02 154.942 13.89 154.802C13.82 154.732 13.76 154.652 13.7 154.562C13.66 154.492 13.62 154.412 13.59 154.332C13.56 154.252 13.53 154.162 13.51 154.072C13.49 153.982 13.47 153.892 13.46 153.802C13.44 153.701 13.43 153.591 13.43 153.472C13.4 151.742 13.24 150.012 13.15 148.501H25.57C25.57 150.231 25.63 152.191 25.53 154.151ZM25.02 140.891C25.19 142.92 25.36 144.75 25.42 146.571C25.42 146.881 24.86 147.401 24.49 147.491C20.88 148.262 17.28 148.331 13.71 147.271C13.32 147.161 12.92 146.571 12.8 146.13C12.51 145.04 12.36 143.891 12.09 142.34C16.66 143.851 20.72 142.41 25.02 140.891ZM48.54 1.08C51.24 3.7 54.01 6.39 56.79 9.07C56.699 9.22 56.609 9.37 56.529 9.52C51.189 8.31 45.829 8.44 39.999 9.28C43.01 6.39 45.71 3.791 48.54 1.08ZM35.55 14.68C37.99 10.55 41.64 9.33 46.05 9.52C49.14 9.65 52.239 9.82 55.31 10.21C57.17 10.44 58.72 11.47 59.86 13.11C62.44 16.81 65.121 20.44 67.6 24.24C54.49 17.55 41.7 18.19 28.65 24.89C30.98 21.51 33.46 18.2 35.55 14.68ZM27.21 27.821C27.37 27.501 27.73 27.271 28.03 27.041C38.75 18.831 56.84 18.321 67.9 25.941C68.581 26.411 69.251 27.091 69.61 27.831C72.03 32.801 74.36 37.811 76.711 42.811C76.551 42.921 76.381 43.031 76.211 43.141C74.891 42.091 73.561 41.051 72.291 39.961C67.15 35.601 61.101 33.811 54.52 33.441C51.36 33.261 48.21 32.921 45.07 33.031C36.82 33.321 29.53 36.461 22.74 40.941C22.1 41.351 21.46 41.771 20.83 42.181C20.66 42.071 20.51 41.961 20.35 41.851C22.63 37.171 24.91 32.49 27.21 27.821ZM24.3 80.861C23.82 79.601 23.08 78.441 22.47 77.241C22.28 77.331 22.09 77.431 21.88 77.521C22.3 78.521 22.71 79.521 23.18 80.641C19.42 80.641 16.64 79.081 14.81 75.991C13.8 74.271 12.85 72.431 12.31 70.521C10.64 64.661 7.27 59.951 2.95 55.801C2.6 55.461 2.28 55.071 1.96 54.721C1.93 54.691 1.94 54.611 1.94 54.311C9.55 55.551 16.66 57.411 20.86 64.811C21.35 63.581 20.42 61.931 18.58 60.511C18.23 60.111 17.92 59.701 17.55 59.331C17.17 58.951 16.73 58.641 16.17 58.171C17.22 53.981 18.22 49.761 19.41 45.581C19.68 44.631 20.45 43.641 21.25 43.061C27.32 38.641 33.94 35.491 41.41 34.251C48.17 33.111 54.72 34.211 61.35 35.481C67.72 36.711 72.23 40.721 76.75 44.861C77.04 45.131 77.26 45.571 77.35 45.981C78.24 49.621 79.15 53.261 79.911 56.931C80.041 57.611 79.48 58.421 79.15 59.461C72.56 52.141 64.581 48.591 55.411 47.341C43.801 45.771 33.04 47.691 23.52 54.841C22 55.971 20.72 57.441 19.42 58.821C19 59.251 18.85 59.941 18.58 60.511C18.94 60.291 19.37 60.141 19.67 59.841C25.53 54.041 32.3 49.671 40.53 48.411C52.85 46.521 64.58 47.921 74.62 56.261C75.29 56.821 75.92 57.421 76.559 58.021C77.16 58.571 77.759 59.141 78.309 59.661C77.819 60.731 77.37 61.681 76.919 62.641C77.059 62.761 77.219 62.881 77.379 62.991C81.568 55.521 88.778 53.671 96.499 52.681C95.499 53.741 94.499 54.801 93.488 55.851C90.329 59.101 87.948 62.801 86.499 67.151C85.679 69.601 84.599 72.031 83.278 74.261C81.438 77.331 78.508 78.751 74.799 78.711C75.139 77.721 75.448 76.831 75.769 75.941C75.62 75.861 75.479 75.791 75.33 75.711C75.029 76.191 74.68 76.641 74.439 77.161C71.449 83.641 67.269 89.171 61.019 92.811C54.139 96.791 46.819 98.561 39.159 95.25C32.46 92.361 27 88.001 24.3 80.861ZM51.98 112.66H49C48.52 110.2 48.04 107.791 47.55 105.291H51.98V112.66ZM61.32 99.09C61.291 100.49 60.72 101.381 59.57 102.131C57.211 103.66 54.591 104.401 51.841 104.401C48.591 104.411 45.311 104.251 42.081 103.901C38.571 103.501 37.521 102.161 37.341 98.721C37.281 97.59 37.111 96.471 36.971 95.151C45.601 98.861 53.851 98.721 61.811 93.792C61.63 95.631 61.36 97.35 61.32 99.09ZM91.99 169.691C91.86 169.701 91.72 169.711 91.581 169.731C91.291 169.761 91.001 169.781 90.711 169.801C89.421 169.91 88.15 170.011 86.881 170.111C85.2 170.241 83.53 170.361 81.86 170.471C81.76 170.481 81.64 170.45 81.51 170.401C81.5 170.401 81.48 170.391 81.46 170.38C81.23 170.29 80.989 170.141 80.84 169.981C80.81 169.951 80.79 169.931 80.77 169.901C80.73 169.851 80.7 169.801 80.7 169.751C80.511 167.722 80.471 165.682 80.36 163.451C84.49 164.561 88.26 164.021 91.99 162.891V169.691ZM92.22 161.061C92.199 161.411 91.9 161.96 91.6 162.061C88.411 163.121 85.15 163.75 81.82 162.901C81.31 162.771 80.661 162.031 80.621 161.541C80.471 159.751 80.56 157.961 80.56 156.281H92.48C92.42 157.62 92.36 159.34 92.22 161.061ZM92.63 153.92C92.6 154.17 92.41 154.46 92.16 154.691C92.109 154.741 92.059 154.781 92.01 154.821C91.91 154.901 91.8 154.971 91.699 155.011C89.16 156.111 83.109 155.971 80.34 154.811V148.29C84.58 149.061 88.76 149.11 93.13 147.99C92.97 150.03 92.87 151.981 92.63 153.92ZM92.28 147.191C88.89 148.09 85.44 148.281 81.95 147.731C80.751 147.551 80.221 146.84 80.411 145.551C80.631 144.04 80.681 142.54 80.791 141.34C85.551 140.38 90.07 139.471 94.641 138.54C94.241 141.051 93.851 143.721 93.341 146.351C93.29 146.691 92.7 147.061 92.28 147.191ZM39.07 172.151C39.4 172.201 39.73 172.241 40.06 172.281C40.41 172.331 40.76 172.361 41.11 172.391C41.37 172.411 41.64 172.431 41.9 172.451C42.3 172.481 42.7 172.501 43.1 172.521C43.81 172.551 44.53 172.571 45.26 172.581C46.66 172.602 48.08 172.591 49.51 172.591V172.152H39.07V172.151ZM50.43 172.151C50.44 172.231 50.44 172.301 50.44 172.38H53.26V172.151H50.43ZM54.12 172.151V172.311C54.72 172.311 55.199 172.371 55.68 172.301C56.08 172.25 56.49 172.2 56.89 172.151H54.12ZM54.12 172.151V172.311C54.72 172.311 55.199 172.371 55.68 172.301C56.08 172.25 56.49 172.2 56.89 172.151H54.12ZM50.43 172.151C50.44 172.231 50.44 172.301 50.44 172.38H53.26V172.151H50.43ZM39.07 172.151C39.4 172.201 39.73 172.241 40.06 172.281C40.41 172.331 40.76 172.361 41.11 172.391C41.37 172.411 41.64 172.431 41.9 172.451C42.3 172.481 42.7 172.501 43.1 172.521C43.81 172.551 44.53 172.571 45.26 172.581C46.66 172.602 48.08 172.591 49.51 172.591V172.152H39.07V172.151Z" fill="#7E4E24"/>
<path fill-rule="evenodd" clip-rule="evenodd" d="M77.38 62.9899C77.22 62.8799 77.06 62.7599 76.92 62.6399C77.37 61.6799 77.819 60.7299 78.31 59.6599C77.76 59.1399 77.161 58.5699 76.56 58.0199C75.92 57.4199 75.29 56.8199 74.621 56.2599C64.581 47.9199 52.85 46.5199 40.531 48.4099C32.301 49.6699 25.531 54.0399 19.671 59.8399C19.371 60.1399 18.941 60.2899 18.581 60.5099C20.421 61.9299 21.351 63.5799 20.861 64.8099C16.661 57.4099 9.55099 55.5499 1.94099 54.3099C1.94099 54.6099 1.93099 54.6899 1.96099 54.7199C2.28099 55.0699 2.60099 55.4599 2.95099 55.7999C7.27099 59.9499 10.641 64.6599 12.311 70.5199C12.851 72.4299 13.801 74.2699 14.811 75.9899C16.641 79.0799 19.421 80.6399 23.181 80.6399C22.711 79.5199 22.301 78.5199 21.881 77.5199C22.091 77.4299 22.281 77.3299 22.471 77.2399C23.081 78.4399 23.821 79.5999 24.301 80.8599C27.001 87.9999 32.461 92.3599 39.161 95.2499C46.821 98.5609 54.141 96.7909 61.021 92.8109C67.271 89.1699 71.451 83.6409 74.441 77.1609C74.681 76.6409 75.031 76.1909 75.332 75.7109C75.481 75.7909 75.622 75.8609 75.771 75.9409C75.451 76.8309 75.141 77.7209 74.801 78.7109C78.511 78.7509 81.441 77.3309 83.28 74.2609C84.6 72.0309 85.68 69.6009 86.501 67.1509C87.95 62.8009 90.331 59.1009 93.49 55.8509C94.501 54.8009 95.501 53.7409 96.501 52.6809C88.78 53.6709 81.57 55.5209 77.38 62.9899ZM17.26 72.7709C16.62 71.3509 17.06 70.4209 18.94 69.3409C17.14 65.8909 14.56 63.1409 11.49 60.7709C12.43 62.9409 13.81 64.9209 13.84 67.3509C13.69 67.4209 13.55 67.4709 13.4 67.5309C13.24 67.1509 13.07 66.7609 12.88 66.3809C11.97 64.4809 11.22 62.4809 10.05 60.7109C9.29999 59.5509 7.97999 58.7609 6.89999 57.8009C6.64999 57.5909 6.41999 57.3709 6.17999 57.1509C6.29999 57.0109 6.43999 56.8609 6.55999 56.7309C12.79 59.4609 17.22 64.0609 20.24 69.8209C19.35 70.4909 18.02 71.0009 17.97 71.6009C17.8 73.7409 20.04 73.5909 21.47 74.3709C19.65 75.0009 17.96 74.2709 17.26 72.7709ZM36.07 79.4099C34.85 81.4199 32.15 82.0999 30.22 80.8699C28.2 79.5899 27.52 76.5999 28.8 74.6799C30.13 72.6899 33.02 71.8999 35.13 73.3999C34.06 73.3999 33.42 73.3599 32.76 73.3999C30.93 73.5099 29.16 75.0799 28.87 76.8299C28.67 78.1499 29.75 79.7199 31.26 80.3799C32.82 81.0499 34.08 80.4699 35.04 79.3299C35.41 78.8899 35.65 77.7599 35.4 77.5099C34.89 77.0199 34.02 76.8399 33.27 76.7199C33.16 76.7199 32.89 77.7299 32.68 78.2599C32.64 78.3599 32.55 78.4299 32.42 78.5899C31.28 78.2299 31.26 77.5199 31.82 76.6499C32.49 75.5999 34.16 75.3799 35.35 76.1299C36.52 76.8809 36.81 78.1909 36.07 79.4099ZM41.41 66.8899C40.63 66.2699 40.16 65.8899 39.59 65.4399C38.57 67.2699 37.05 68.1599 34.94 67.7199C32.64 67.2299 32.08 65.4399 31.96 63.3599H29.42C29.61 63.1899 29.83 63.0499 30.1 62.9499L30.11 62.9399H30.12C33.19 61.5899 40.81 63.4699 41.48 66.9499C41.46 66.9299 41.43 66.9099 41.41 66.8899ZM29.04 56.6309C31.17 54.0409 33.75 53.2409 36.57 53.1309C39.67 53.0309 42.17 54.4009 42.92 56.6309H29.04ZM50.93 86.5009C49.51 87.3609 47.99 87.2909 46.67 86.2609C45.63 85.4709 45.03 84.3909 45.41 82.9009C46.35 84.3709 46.75 86.4109 49.07 86.1809C51.19 85.9809 51.91 84.3709 52.48 82.5609C53.02 84.3699 52.33 85.6509 50.93 86.5009ZM48.61 78.0799C47.17 76.8999 45.82 75.7899 44.47 74.6699C44.62 74.4799 44.77 74.2899 44.92 74.1099C46.12 75.0099 47.34 75.9099 48.59 76.8699C49.83 75.9299 51.05 75.0099 52.26 74.0999C52.42 74.2699 52.57 74.4699 52.699 74.6399C51.38 75.7599 50.04 76.8809 48.61 78.0799ZM67.08 78.4699C66.59 80.1599 65.38 81.2899 63.59 81.4899C61.819 81.6899 60.39 80.8999 59.42 79.4099C58.66 78.2599 58.92 77.0099 59.98 76.2399C61.13 75.4199 62.78 75.5299 63.55 76.5099C64.17 77.3199 64.199 78.0599 62.9 78.8199C62.99 77.3899 62.9 76.3199 61.32 76.6599C59.911 76.9499 59.49 78.0699 60.341 79.2299C61.351 80.5999 63.271 81.0299 64.731 80.2099C66.141 79.4199 66.821 77.5099 66.241 75.9699C65.582 74.2999 64.132 73.3299 62.292 73.3499C61.781 73.3599 61.281 73.3599 60.611 73.3599C61.951 72.0499 64.231 72.3199 65.941 73.8099C67.41 75.0909 67.57 76.7599 67.08 78.4699ZM69.4 62.8109C68.26 62.8809 67.51 62.9309 66.621 62.9809C66.48 64.9109 66.11 66.6309 64.051 67.1709C61.911 67.7509 60.301 67.0109 59.081 65.0009C58.551 65.4109 58.06 65.8009 57.45 66.2709C57.43 66.2909 57.4 66.3109 57.371 66.3309C57.371 66.2909 57.381 66.2609 57.381 66.2209C57.391 66.1609 57.401 66.1009 57.411 66.0409V66.0309C57.52 65.4709 57.871 64.9509 58.39 64.4709C58.45 64.4109 58.52 64.3509 58.59 64.2909C58.73 64.1709 58.88 64.0609 59.029 63.9509C59.189 63.8409 59.359 63.7309 59.529 63.6309C59.62 63.5809 59.71 63.5309 59.8 63.4809C60.17 63.2809 60.56 63.1009 60.98 62.9409C61.19 62.8609 61.4 62.7809 61.621 62.7109C61.81 62.6409 62.011 62.5909 62.211 62.5309C62.341 62.5009 62.49 62.4609 62.631 62.4309C62.971 62.3409 63.32 62.2709 63.671 62.2109C63.851 62.1809 64.021 62.1609 64.191 62.1409C64.252 62.1309 64.321 62.1209 64.381 62.1109C64.501 62.1009 64.61 62.0909 64.731 62.0809C64.731 62.0809 64.731 62.0809 64.741 62.0809C64.851 62.0709 64.971 62.0609 65.092 62.0509H65.272C65.333 62.0409 65.382 62.0409 65.442 62.0409C65.572 62.0409 65.702 62.0309 65.833 62.0309C66.053 62.0309 66.263 62.0409 66.473 62.0609H66.573C66.624 62.0709 66.674 62.0709 66.714 62.0709C66.743 62.0809 66.774 62.0809 66.804 62.0809C66.914 62.0909 67.014 62.1009 67.114 62.1109C67.215 62.1109 67.314 62.1209 67.415 62.1409C67.555 62.1609 67.685 62.1809 67.814 62.2109C68.354 62.3209 68.864 62.4809 69.324 62.6909C69.335 62.6909 69.345 62.7009 69.354 62.7109C69.424 62.7309 69.484 62.7709 69.554 62.8009C69.5 62.7999 69.45 62.8109 69.4 62.8109ZM55.42 56.1399C56.949 53.6299 59 52.7899 61.44 52.7199C64.51 52.6299 67.251 53.4799 69.61 56.1399H55.42ZM84.66 65.6309C84.099 64.0709 84.099 64.0709 86.58 58.5609C83.319 61.0809 80.979 63.9009 79.149 67.1609C81.009 68.3309 81.479 69.4509 80.71 70.8509C79.93 72.2709 78.199 72.9409 76.59 72.2809C77.989 71.4309 80.52 71.7509 79.989 69.2609C79.87 68.6609 78.679 68.2809 77.83 67.7109C80.88 62.0009 85.229 57.3309 91.769 54.9109C87.46 57.0799 86.15 61.2999 84.66 65.6309Z" fill="#FFF2C9"/>
<path fill-rule="evenodd" clip-rule="evenodd" d="M97.686 135.701C95.87 136.629 94.013 137.571 92.046 138.103C88.004 139.197 83.935 140.316 79.674 140.001C79.25 139.974 78.826 139.892 78.308 139.824C79.305 133.706 79.537 127.451 84.344 122.726C84.207 122.617 84.084 122.493 83.948 122.371C83.457 122.739 82.884 123.026 82.473 123.477C80.179 125.989 79.196 129.13 78.717 132.381C77.025 143.975 75.221 155.555 75.139 167.313C75.126 168.747 74.484 169.485 73.283 169.758C71.207 170.195 69.118 170.55 67.014 170.836C63.244 171.369 59.462 171.834 55.679 172.297C55.201 172.365 54.723 172.312 54.123 172.312C53.699 152.702 53.275 133.131 52.852 113.563C53.371 113.317 53.876 113.084 54.395 112.852C54.395 112.743 54.381 112.62 54.381 112.511C53.903 112.456 53.439 112.402 52.66 112.32C52.756 110.312 52.783 108.264 52.987 106.216C53.042 105.765 53.657 105.178 54.134 105.001C56.414 104.167 58.723 103.457 61.099 102.692C61.249 103.566 61.441 104.796 61.645 106.038C61.864 106.024 62.083 106.011 62.301 105.983C62.192 104.686 62.082 103.375 61.959 102.078C62.137 102.023 62.26 101.941 62.314 101.969C72.337 106.885 83.085 109.781 93.696 113.003C95.117 113.44 95.635 113.877 95.526 115.543C95.239 120.5 95.376 125.472 96.891 130.278C97.219 131.301 97.588 132.382 98.189 133.255C98.956 134.376 98.643 135.209 97.686 135.701Z" fill="#54B47F"/>
<path fill-rule="evenodd" clip-rule="evenodd" d="M49.507 172.586C43.307 172.586 37.312 172.791 31.767 169.869C31.057 169.486 30.415 168.967 29.759 168.462C28.858 167.766 28.667 167.056 28.899 165.731C29.323 163.411 29.337 160.938 29.036 158.588C27.875 149.575 26.51 140.576 25.226 131.576C24.789 128.504 21.211 124.816 18.917 124.721C20.46 126.811 22.55 128.873 23.683 131.385C24.844 133.94 25.076 136.93 25.731 139.825C20.733 141.245 16.035 143.279 10.928 141.259C10.177 140.958 9.41199 140.658 8.70199 140.262C7.70499 139.701 7.41799 138.869 7.48699 137.667C7.80099 132.683 8.10099 127.685 8.14299 122.7C8.16999 120.16 7.63799 117.619 7.37799 115.162C17.074 111.037 26.811 106.886 36.725 102.666V106.776C36.944 106.79 37.148 106.803 37.353 106.831C37.421 105.615 37.476 104.414 37.544 102.885C40.002 104.811 42.815 104.906 45.601 105.165C45.929 105.206 46.407 105.603 46.503 105.93C47.118 107.993 47.65 110.069 48.305 112.54C47.063 112.198 46.393 112.02 45.71 111.83C45.628 111.952 45.546 112.075 45.478 112.198C45.833 112.458 46.161 112.908 46.543 112.963C47.854 113.141 47.936 113.946 47.963 115.053C48.141 124.038 48.346 133.037 48.605 142.037C48.837 150.476 49.138 158.916 49.411 167.355C43.784 168.039 38.555 168.107 33.611 165.662C35.632 168.148 47.049 169.432 49.411 167.369C49.438 168.407 49.479 169.445 49.507 170.482C49.521 171.084 49.507 171.672 49.507 172.586Z" fill="#54B47F"/>
<path fill-rule="evenodd" clip-rule="evenodd" d="M35.72 172.151H30.66V170.401C32.34 171.141 34.03 171.71 35.72 172.151Z" fill="#54B47F"/>
<path fill-rule="evenodd" clip-rule="evenodd" d="M74.74 170.29C74.711 170.91 74.661 171.53 74.621 172.15H63.621C66.331 171.8 69.03 171.41 71.74 171.07C72.7 170.95 73.62 170.58 74.74 170.29Z" fill="#54B47F"/>
<path fill-rule="evenodd" clip-rule="evenodd" d="M79.906 56.931C80.043 57.614 79.483 58.419 79.155 59.457C72.559 52.138 64.584 48.587 55.407 47.344C43.799 45.774 33.038 47.6861 23.519 54.8421C22.003 55.975 20.72 57.4361 19.422 58.8151C18.999 59.253 18.848 59.9361 18.575 60.5091C18.234 60.1131 17.92 59.703 17.551 59.334C17.169 58.952 16.732 58.638 16.172 58.174C17.223 53.981 18.22 49.761 19.408 45.582C19.681 44.626 20.446 43.643 21.251 43.056C27.315 38.645 33.938 35.491 41.408 34.248C48.167 33.115 54.722 34.207 61.346 35.477C67.724 36.706 72.23 40.721 76.75 44.859C77.036 45.131 77.255 45.569 77.351 45.979C78.24 49.625 79.155 53.258 79.906 56.931Z" fill="#54B47F"/>
<path fill-rule="evenodd" clip-rule="evenodd" d="M76.71 42.811C76.546 42.92 76.382 43.029 76.205 43.138C74.893 42.086 73.556 41.049 72.285 39.956C67.15 35.6 61.1 33.811 54.518 33.442C51.363 33.265 48.209 32.923 45.068 33.033C36.819 33.32 29.526 36.46 22.74 40.94C22.097 41.349 21.456 41.773 20.828 42.183C20.664 42.074 20.514 41.964 20.35 41.855C22.631 37.171 24.911 32.487 27.205 27.817C27.369 27.503 27.724 27.27 28.024 27.038C38.744 18.83 56.839 18.325 67.9 25.946C68.583 26.41 69.253 27.093 69.607 27.83C72.026 32.801 74.362 37.813 76.71 42.811Z" fill="#E24D4D"/>
<path fill-rule="evenodd" clip-rule="evenodd" d="M95.09 170.771C94.79 171.25 94.5 171.71 94.22 172.151H79.47C79.36 171.901 79.25 171.661 79.14 171.411C84.45 171.191 89.56 170.99 95.09 170.771Z" fill="#54B47F"/>
<path fill-rule="evenodd" clip-rule="evenodd" d="M26.73 171.891C26.69 171.981 26.65 172.071 26.6 172.151H11.31C11.12 171.84 10.92 171.521 10.72 171.191C16.17 171.441 21.36 171.66 26.73 171.891Z" fill="#54B47F"/>
<path fill-rule="evenodd" clip-rule="evenodd" d="M67.602 24.238C54.492 17.547 41.696 18.188 28.654 24.893C30.975 21.506 33.461 18.202 35.55 14.678C37.995 10.554 41.641 9.325 46.052 9.515C49.138 9.652 52.239 9.816 55.311 10.212C57.168 10.444 58.725 11.468 59.858 13.108C62.44 16.809 65.116 20.442 67.602 24.238Z" fill="#54B47F"/>
<path fill-rule="evenodd" clip-rule="evenodd" d="M53.258 172.382C52.213 172.382 51.411 172.382 50.438 172.382C49.852 152.795 49.268 133.25 48.68 113.622C49.944 113.622 50.955 113.622 52.002 113.622C52.42 133.172 52.837 152.688 53.258 172.382Z" fill="white"/>
<path fill-rule="evenodd" clip-rule="evenodd" d="M61.811 93.7891C61.633 95.6331 61.361 97.3531 61.32 99.0881C61.293 100.494 60.719 101.382 59.572 102.134C57.21 103.663 54.588 104.401 51.843 104.401C48.593 104.415 45.315 104.251 42.078 103.896C38.569 103.5 37.517 102.162 37.34 98.7201C37.285 97.5861 37.108 96.4671 36.971 95.1561C45.601 98.8561 53.85 98.7201 61.811 93.7891Z" fill="#FFF2C9"/>
<path fill-rule="evenodd" clip-rule="evenodd" d="M94.641 138.541C94.245 141.054 93.849 143.717 93.343 146.353C93.289 146.694 92.701 147.063 92.279 147.186C88.892 148.087 85.436 148.279 81.955 147.733C80.753 147.555 80.221 146.844 80.412 145.547C80.63 144.045 80.684 142.543 80.794 141.341C85.545 140.385 90.066 139.47 94.641 138.541Z" fill="#E24D4D"/>
<path fill-rule="evenodd" clip-rule="evenodd" d="M93.127 147.99C92.97 150.035 92.869 151.983 92.631 153.916C92.582 154.321 92.106 154.836 91.7 155.011C89.158 156.107 83.105 155.968 80.336 154.809C80.336 152.662 80.336 150.493 80.336 148.294C84.582 149.059 88.758 149.113 93.127 147.99Z" fill="white"/>
<path fill-rule="evenodd" clip-rule="evenodd" d="M25.572 148.498C25.572 150.231 25.627 152.194 25.528 154.149C25.507 154.567 24.985 155.224 24.589 155.316C21.42 156.048 18.225 155.96 15.037 155.357C13.997 155.16 13.451 154.614 13.431 153.472C13.4 151.742 13.241 150.012 13.149 148.497C17.303 148.498 21.387 148.498 25.572 148.498Z" fill="white"/>
<path fill-rule="evenodd" clip-rule="evenodd" d="M25.243 163.766C25.243 165.817 25.292 167.989 25.191 170.153C25.175 170.48 24.459 171.049 24.077 171.04C21.035 170.975 17.994 170.831 14.96 170.607C14.575 170.579 13.939 169.961 13.922 169.595C13.822 167.428 13.873 165.256 13.873 163.008C15.689 163.35 17.51 163.865 19.357 163.992C21.228 164.121 23.124 163.865 25.243 163.766Z" fill="white"/>
<path fill-rule="evenodd" clip-rule="evenodd" d="M92.483 156.281C92.416 157.619 92.361 159.34 92.224 161.06C92.197 161.414 91.896 161.961 91.596 162.056C88.413 163.121 85.15 163.75 81.818 162.904C81.312 162.767 80.657 162.029 80.616 161.539C80.467 159.75 80.561 157.961 80.561 156.281H92.483Z" fill="#E24D4D"/>
<path fill-rule="evenodd" clip-rule="evenodd" d="M25.554 156.336C25.485 157.947 25.512 159.75 25.253 161.512C25.171 162.057 24.406 162.768 23.833 162.918C20.61 163.724 17.456 163.164 14.383 162.084C14.11 161.989 13.796 161.566 13.782 161.279C13.727 159.558 13.755 157.824 13.755 156.336H25.554Z" fill="#E24D4D"/>
<path fill-rule="evenodd" clip-rule="evenodd" d="M91.993 162.891C91.993 165.213 91.993 167.423 91.993 169.696C88.532 169.972 85.2 170.264 81.862 170.467C81.474 170.489 80.731 170.034 80.704 169.747C80.514 167.723 80.467 165.684 80.364 163.454C84.489 164.563 88.262 164.024 91.993 162.891Z" fill="white"/>
<path fill-rule="evenodd" clip-rule="evenodd" d="M25.417 146.571C25.417 146.884 24.857 147.404 24.488 147.486C20.883 148.263 17.278 148.333 13.713 147.267C13.317 147.158 12.921 146.571 12.798 146.133C12.511 145.04 12.361 143.894 12.088 142.337C16.663 143.853 20.719 142.405 25.021 140.89C25.185 142.925 25.363 144.755 25.417 146.571Z" fill="#E24D4D"/>
<path fill-rule="evenodd" clip-rule="evenodd" d="M56.785 9.067C56.703 9.217 56.607 9.367 56.525 9.517C51.186 8.316 45.833 8.439 40.001 9.285C43.006 6.39 45.709 3.795 48.536 1.078C51.241 3.699 54.014 6.39 56.785 9.067Z" fill="#E24D4D"/>
<path fill-rule="evenodd" clip-rule="evenodd" d="M51.979 105.285C51.979 107.83 51.979 110.201 51.979 112.665C50.877 112.665 49.923 112.665 49.004 112.665C48.519 110.2 48.042 107.777 47.551 105.285C48.935 105.285 50.469 105.285 51.979 105.285Z" fill="white"/>
<path fill-rule="evenodd" clip-rule="evenodd" d="M21.471 74.3699C19.655 74.9979 17.962 74.2749 17.265 72.7719C16.623 71.3519 17.06 70.4229 18.945 69.3439C17.142 65.8889 14.561 63.1439 11.488 60.7679C12.43 62.9389 13.81 64.9199 13.837 67.3499C13.687 67.4189 13.55 67.4739 13.399 67.5279C13.236 67.1459 13.072 66.7639 12.88 66.3809C11.965 64.4829 11.214 62.4749 10.053 60.7139C9.30201 59.5529 7.97701 58.7609 6.89801 57.8049C6.65201 57.5859 6.42001 57.3679 6.17401 57.1499C6.29801 57.0129 6.43401 56.8629 6.55701 56.7269C12.785 59.4579 17.223 64.0599 20.241 69.8229C19.354 70.4919 18.015 70.9969 17.974 71.5979C17.797 73.7419 20.037 73.5919 21.471 74.3699Z" fill="#7E4E24"/>
<path fill-rule="evenodd" clip-rule="evenodd" d="M91.773 54.9099C87.458 57.0809 86.147 61.3009 84.659 65.6299C84.098 64.0729 84.098 64.0729 86.585 58.5559C83.32 61.0819 80.985 63.8959 79.155 67.1599C81.012 68.3339 81.476 69.4539 80.712 70.8469C79.934 72.2669 78.199 72.9369 76.588 72.2819C77.995 71.4349 80.522 71.7489 79.988 69.2629C79.866 68.6619 78.677 68.2799 77.831 67.7059C80.875 61.9979 85.232 57.3269 91.773 54.9099Z" fill="#7E4E24"/>
<path fill-rule="evenodd" clip-rule="evenodd" d="M49.411 167.356V167.37C47.048 169.433 35.632 168.149 33.611 165.663C38.555 168.108 43.784 168.039 49.411 167.356Z" fill="#7E4E24"/>
<path fill-rule="evenodd" clip-rule="evenodd" d="M41.272 55.757H31.371C33.584 53.627 39.524 53.299 41.272 55.757Z" fill="black"/>
<path fill-rule="evenodd" clip-rule="evenodd" d="M50.927 86.497C49.507 87.357 47.991 87.289 46.667 86.265C45.628 85.473 45.028 84.394 45.411 82.906C46.353 84.367 46.749 86.416 49.07 86.183C51.187 85.978 51.911 84.367 52.484 82.564C53.016 84.366 52.334 85.65 50.927 86.497Z" fill="#7E4E24"/>
<path fill-rule="evenodd" clip-rule="evenodd" d="M67.082 78.467C66.591 80.16 65.375 81.294 63.586 81.485C61.824 81.69 60.391 80.897 59.421 79.409C58.656 78.262 58.916 77.006 59.981 76.241C61.128 75.422 62.781 75.531 63.545 76.514C64.174 77.32 64.201 78.057 62.903 78.822C62.985 77.388 62.903 76.323 61.319 76.665C59.912 76.952 59.489 78.072 60.336 79.232C61.347 80.598 63.272 81.034 64.733 80.215C66.139 79.423 66.822 77.511 66.236 75.968C65.58 74.302 64.132 73.332 62.289 73.346C61.783 73.359 61.278 73.359 60.609 73.359C61.947 72.048 64.228 72.321 65.935 73.81C67.41 75.094 67.575 76.76 67.082 78.467Z" fill="#DCA0C7"/>
<path fill-rule="evenodd" clip-rule="evenodd" d="M36.069 79.4091C34.853 81.4171 32.15 82.1001 30.224 80.8701C28.203 79.5871 27.52 76.5961 28.804 74.6841C30.128 72.6901 33.024 71.8981 35.127 73.4011C34.062 73.4011 33.42 73.3591 32.765 73.4011C30.935 73.5101 29.16 75.0811 28.872 76.8281C28.667 78.1531 29.747 79.7241 31.262 80.3791C32.819 81.0481 34.075 80.4751 35.045 79.3271C35.414 78.8901 35.646 77.7571 35.4 77.5111C34.895 77.0201 34.02 76.8431 33.27 76.7191C33.161 76.7191 32.887 77.7291 32.683 78.2621C32.642 78.3581 32.546 78.4261 32.423 78.5901C31.277 78.2351 31.262 77.5251 31.822 76.6511C32.491 75.5991 34.157 75.3801 35.345 76.1321C36.52 76.8831 36.806 78.1941 36.069 79.4091Z" fill="#DCA0C7"/>
<path fill-rule="evenodd" clip-rule="evenodd" d="M52.702 74.6439C51.377 75.7639 50.039 76.8829 48.605 78.0849C47.17 76.8969 45.819 75.7909 44.467 74.6709C44.617 74.4799 44.768 74.2879 44.918 74.1109C46.12 75.0119 47.335 75.9129 48.591 76.8699C49.834 75.9279 51.049 75.0129 52.264 74.0969C52.416 74.2749 52.566 74.4659 52.702 74.6439Z" fill="#7E4E24"/>
<path fill-rule="evenodd" clip-rule="evenodd" d="M61.44 52.72C59.001 52.79 56.95 53.63 55.42 56.14H69.609C67.25 53.481 64.51 52.631 61.44 52.72ZM57.39 55.35C59.161 53 63.74 52.9 67.47 55.35H57.39Z" fill="black"/>
<path fill-rule="evenodd" clip-rule="evenodd" d="M36.57 53.131C33.75 53.241 31.17 54.041 29.04 56.631H42.92C42.17 54.401 39.67 53.03 36.57 53.131ZM31.37 55.76C33.58 53.63 39.52 53.3 41.27 55.76H31.37Z" fill="black"/>
<path fill-rule="evenodd" clip-rule="evenodd" d="M67.465 55.347H57.386C59.162 52.999 63.737 52.903 67.465 55.347Z" fill="black"/>
<path fill-rule="evenodd" clip-rule="evenodd" d="M29 66.2297C29.7165 65.9729 37.3768 65.5446 41 67.4581C37.5321 68.3389 30.9186 68.289 29 66.2297Z" fill="black"/>
<path fill-rule="evenodd" clip-rule="evenodd" d="M69 66.2297C68.2835 65.9729 60.6232 65.5446 57 67.4581C60.4679 68.3389 67.0814 68.289 69 66.2297Z" fill="black"/>
</svg>
