<svg width="329" height="161" viewBox="0 0 329 161" fill="none" xmlns="http://www.w3.org/2000/svg">
<g filter="url(#filter0_f_153_3580)">
<path d="M17.9998 124C28.9721 129.982 44.5009 124 44.5009 124C44.5009 124 80.0557 109.982 92.5009 124C96.3291 128.312 96.571 133.561 102.001 135.5C109.001 138 115.001 133.5 135.001 137C140.194 137.909 130.839 147.264 135.001 150.5C148.501 161 161.001 153.5 161.001 153.5L187.501 135.5L243.001 122.5C243.001 122.5 323.59 107.432 324.001 71.0002C324.372 38.0678 258.001 18.5002 258.001 18.5002C258.001 18.5002 214.593 8.03021 189.001 16.5002C179.549 19.6285 175.95 27.8782 166.001 27.5002C152.454 26.9856 151.501 10.906 135.001 6.00008C116.501 0.499634 77.5011 16.5001 72.5011 24.5004C65.7745 35.2633 75.5011 43.5004 66.5011 52.5004C49.3175 69.684 27.856 47.1983 14.4998 67.5002C2.34968 85.9688 -1.41022 113.419 17.9998 124Z" fill="#FAEA3A" fill-opacity="0.4"/>
</g>
<defs>
<filter id="filter0_f_153_3580" x="0.414551" y="0.873047" width="327.588" height="159.222" filterUnits="userSpaceOnUse" color-interpolation-filters="sRGB">
<feFlood flood-opacity="0" result="BackgroundImageFix"/>
<feBlend mode="normal" in="SourceGraphic" in2="BackgroundImageFix" result="shape"/>
<feGaussianBlur stdDeviation="2" result="effect1_foregroundBlur_153_3580"/>
</filter>
</defs>
</svg>
