<svg width="94" height="51" viewBox="0 0 94 51" fill="none" xmlns="http://www.w3.org/2000/svg">
<path d="M25.3237 10.8734C30.0025 11.0009 32.5053 7.97381 34.3978 7.27106C34.6458 7.13493 34.9156 7.10126 35.1727 7.12803C35.4306 7.13821 35.6801 7.21574 35.9262 7.37815C37.3407 8.31167 37.2613 11.1745 37.742 13.6595C37.8693 14.3179 38.036 14.9498 38.2802 15.5123C38.5179 16.0597 38.829 16.5413 39.2487 16.9176C39.6606 17.2869 40.2135 17.6217 40.8511 17.9345C43.4001 19.1848 47.3025 20.0822 48.9628 21.4236C49.3858 21.7653 49.6632 22.1358 49.7358 22.5483C50.1643 24.985 42.5859 30.6679 41.0328 31.0825C41.7811 36.7613 42.7955 42.2583 40.8212 42.3416C35.0879 40.8013 30.0645 37.0373 21.5574 42.8965C20.8967 43.4049 20.2235 43.9324 19.5392 44.4723C19.0673 44.8448 18.6379 44.6004 18.2489 43.9673C16.5641 41.9253 14.538 35.5637 13.8626 34.0084C12.9992 32.0205 7.21421 31.1243 5.55719 29.9028C4.23157 28.9256 4.07925 26.8588 4.1688 25.9476C3.52166 25.0399 4.74769 24.0282 6.63071 22.7044C6.63917 22.6983 6.6477 22.6923 6.65632 22.6864C8.53546 21.3667 11.0594 19.7371 13.0306 17.5929C12.8719 15.2877 12.7792 10.6878 13.4864 8.70878C13.6487 8.25483 14.0044 7.87867 14.4862 7.86408C14.6545 7.85899 14.8573 7.86561 15.0987 7.88709C16.6273 8.02305 19.7022 8.75424 25.3237 10.8734Z" fill="#753525"/>
<path d="M20.9967 16.6868L23.8417 20.6969C23.3862 21.484 16.7382 20.2636 15.523 19.0351C14.3078 17.8066 13.0034 19.153 13.038 19.6983C13.0726 20.2436 13.901 20.0226 14.1151 20.4091C14.3291 20.7956 14.3708 21.7828 13.8807 22.0245C13.4886 22.2179 10.6939 22.6902 9.34552 22.9022C8.75041 22.6118 7.37431 22.1658 6.63073 22.7044C4.74771 24.0282 3.52168 25.0399 4.16882 25.9476C5.38613 26.2142 8.13824 26.441 9.40815 25.2147C10.9955 23.6819 14.0605 23.5293 14.6888 23.8053C15.317 24.0813 14.9448 26.8427 15.083 27.3604C15.2212 27.8781 16.2982 28.5889 20.2251 23.7696C21.0606 22.7442 24.346 22.4479 24.443 24.1967L22.7458 28.6427C22.1292 29.103 20.4349 30.1246 18.5905 30.5281C16.285 31.0326 17.0632 32.4886 18.4114 32.3506C19.7596 32.2126 21.8216 32.6605 21.1525 34.7247C20.6172 36.3761 20.6491 37.4101 20.732 37.7208C19.6761 38.8899 18.1759 41.4421 20.6226 42.2976C23.6809 43.3669 22.1473 38.4522 22.0092 37.9345C21.871 37.4168 21.5736 35.056 26.0539 35.6349C28.187 35.731 27.9516 32.3555 24.6994 28.8977C24.8947 27.5515 25.8487 24.9751 28.1019 25.4385C30.3552 25.9019 31.4207 28.176 31.6717 29.2551L30.9336 31.8923C29.9766 32.7393 28.4988 34.7383 30.2442 35.9584C31.9896 37.1785 32.7244 34.4461 32.8736 32.9273C33.3061 32.3313 34.4556 31.7065 35.5937 33.976C36.1517 35.0694 36.9955 36.0421 37.3476 36.3918C36.9222 37.4296 37.1399 39.686 41.4145 40.4085C41.7708 38.8345 41.7296 35.6881 38.7143 35.6942C37.2062 33.7009 36.8567 32.7516 36.8705 32.5261C37.7424 31.7758 39.1494 30.0101 37.8016 28.9501C36.4539 27.89 34.0552 27.6577 33.0244 27.674C32.1843 26.6042 30.1728 24.8858 29.7722 24.2162C29.1646 23.602 29.109 21.7312 33.534 22.1031C37.959 22.4749 37.0544 21.1635 37.8765 23.8279C38.6985 26.4923 38.1119 27.2035 41.0114 28.0934C43.0959 26.7606 41.6596 24.7038 41.1555 24.0619C40.5432 23.1531 40.1858 21.5922 43.6541 22.6186C47.9896 23.9016 48.162 23.301 49.1146 22.7141C49.1884 22.5095 49.2615 21.965 48.9628 21.4236C47.3025 20.0822 43.4001 19.1848 40.8511 17.9344C40.0276 17.6195 38.0532 17.5082 36.7434 19.5827C34.5691 20.163 32.6913 19.7769 30.8276 20.2743C30.243 20.0236 29.4936 19.0997 31.1721 17.4094C32.8506 15.7192 35.415 16.1291 36.4873 16.5454C37.0046 16.6408 38.0873 16.5678 38.2803 15.5123C38.036 14.9498 37.8694 14.3179 37.742 13.6594C37.0267 13.3697 35.8101 13.1768 34.9748 12.9561C34.1394 12.7353 32.317 12.5563 34.8016 10.2294C35.6851 9.66081 37.1469 8.29459 35.9262 7.37811C35.1829 6.94798 33.6494 6.74352 33.4622 9.36675C32.9104 11.2887 32.6481 11.5805 32.586 11.4862C32.0384 11.9281 30.4559 12.5649 28.5062 11.5768C27.0426 11.0801 26.3823 11.5152 26.5389 12.1019C27.1742 12.8197 28.8277 13.8203 29.2247 14.2689C30.0188 15.1661 30.682 17.6511 28.3076 18.7285C27.8014 19.0485 26.513 19.6512 25.4084 19.5023C24.6336 18.2614 23.212 16.6754 22.5981 16.0376C23.4308 15.0019 24.4475 12.9929 23.8329 11.9368C23.7912 10.9497 22.2381 11.3642 19.546 12.0827L15.0987 7.88705C14.8573 7.86558 14.6545 7.85895 14.4863 7.86404C14.0044 7.87863 13.6487 8.25479 13.4865 8.70874L16.854 12.8012C15.7013 13.3307 13.498 14.6064 13.9069 15.4734C14.3158 16.3403 18.8038 16.6436 20.9967 16.6868Z" fill="#F6F6F6"/>
<path d="M41.4143 40.4085C42.2909 39.9527 41.1163 34.7203 41.0326 31.0824C41.781 36.7613 42.7954 42.2582 40.8211 42.3415C35.0878 40.8012 30.0643 37.0373 21.5573 42.8965C20.8966 43.4048 20.2233 43.9323 19.5391 44.4723C19.0672 44.8447 18.6378 44.6004 18.2488 43.9673C16.564 41.9252 14.5379 35.5636 13.8624 34.0083C12.9991 32.0204 7.21408 31.1243 5.55706 29.9028C4.23144 28.9256 4.07912 26.8588 4.16867 25.9475C10.5863 28.0502 14.345 31.1066 15.4222 32.3719C15.8499 33.3146 16.7498 41.5276 18.2488 43.9673C18.6397 44.4411 19.0122 44.6823 19.3452 44.5771C20.1086 43.9448 20.8451 43.3869 21.5573 42.8965C25.4081 39.9333 28.8296 37.621 31.4869 37.2904C34.6001 36.9032 39.7577 40.8506 41.4143 40.4085Z" fill="#B0462F"/>
<circle cx="26.4276" cy="22.5846" r="1.28599" transform="rotate(-14.9438 26.4276 22.5846)" fill="#78939C"/>
<path d="M26.6922 22.745C26.0903 22.8169 26.0182 23.4055 26.0573 23.6909C26.6579 23.8633 27.8658 22.9863 27.6794 22.7033C27.4929 22.4204 27.4446 22.6551 26.6922 22.745Z" fill="#D0E4EE"/>
<path d="M27.0192 21.5295C27.221 21.6547 26.1098 22.5929 25.529 23.0463C25.1652 22.472 25.3338 22.315 25.4467 21.9492C25.5596 21.5833 26.7668 21.373 27.0192 21.5295Z" fill="#EBFEFF"/>
<circle cx="23.351" cy="31.8354" r="1.28599" transform="rotate(-14.9438 23.351 31.8354)" fill="#78939C"/>
<path d="M23.6156 31.9958C23.0136 32.0678 22.9415 32.6564 22.9807 32.9417C23.5813 33.1142 24.7891 32.2372 24.6027 31.9542C24.4163 31.6712 24.368 31.9059 23.6156 31.9958Z" fill="#D0E4EE"/>
<path d="M23.9423 30.7803C24.1441 30.9055 23.0329 31.8437 22.4521 32.2972C22.0882 31.7228 22.2569 31.5659 22.3698 31.2C22.4827 30.8342 23.6899 30.6239 23.9423 30.7803Z" fill="#EBFEFF"/>
<circle cx="34.3954" cy="29.9968" r="1.28599" transform="rotate(-14.9438 34.3954 29.9968)" fill="#78939C"/>
<path d="M34.6602 30.1573C34.0583 30.2293 33.9862 30.8179 34.0253 31.1032C34.626 31.2757 35.8338 30.3987 35.6474 30.1157C35.4609 29.8327 35.4127 30.0674 34.6602 30.1573Z" fill="#D0E4EE"/>
<path d="M34.9869 28.9416C35.1888 29.0668 34.0776 30.005 33.4968 30.4584C33.1329 29.8841 33.3016 29.7272 33.4145 29.3613C33.5274 28.9954 34.7346 28.7851 34.9869 28.9416Z" fill="#EBFEFF"/>
<circle cx="39.9572" cy="20.0826" r="1.28599" transform="rotate(-14.9438 39.9572 20.0826)" fill="#78939C"/>
<path d="M40.222 20.2431C39.6201 20.3151 39.5479 20.9037 39.5871 21.189C40.1877 21.3615 41.3956 20.4845 41.2091 20.2015C41.0227 19.9185 40.9744 20.1532 40.222 20.2431Z" fill="#D0E4EE"/>
<path d="M40.5487 19.0275C40.7506 19.1527 39.6394 20.0909 39.0585 20.5444C38.6947 19.97 38.8634 19.8131 38.9763 19.4472C39.0892 19.0814 40.2964 18.8711 40.5487 19.0275Z" fill="#EBFEFF"/>
<circle cx="32.1139" cy="13.9682" r="1.28599" transform="rotate(-14.9438 32.1139 13.9682)" fill="#78939C"/>
<path d="M32.3787 14.1286C31.7768 14.2006 31.7047 14.7892 31.7439 15.0745C32.3445 15.247 33.5523 14.37 33.3659 14.087C33.1794 13.804 33.1312 14.0387 32.3787 14.1286Z" fill="#D0E4EE"/>
<path d="M32.7054 12.913C32.9073 13.0382 31.7961 13.9764 31.2153 14.4299C30.8514 13.8555 31.0201 13.6986 31.133 13.3327C31.2459 12.9669 32.4531 12.7566 32.7054 12.913Z" fill="#EBFEFF"/>
<circle cx="19.7436" cy="14.1642" r="1.28599" transform="rotate(-14.9438 19.7436 14.1642)" fill="#78939C"/>
<path d="M20.0081 14.3246C19.4062 14.3965 19.3341 14.9851 19.3732 15.2704C19.9739 15.4429 21.1817 14.5659 20.9953 14.2829C20.8088 13.9999 20.7606 14.2347 20.0081 14.3246Z" fill="#D0E4EE"/>
<path d="M20.3351 13.1091C20.5369 13.2343 19.4257 14.1725 18.8449 14.6259C18.4811 14.0516 18.6497 13.8946 18.7626 13.5288C18.8756 13.1629 20.0828 12.9526 20.3351 13.1091Z" fill="#EBFEFF"/>
<circle cx="16.6527" cy="22.5315" r="1.28599" transform="rotate(-14.9438 16.6527 22.5315)" fill="#78939C"/>
<path d="M16.9173 22.6919C16.3154 22.7638 16.2432 23.3524 16.2824 23.6378C16.883 23.8102 18.0909 22.9332 17.9045 22.6502C17.718 22.3673 17.6697 22.602 16.9173 22.6919Z" fill="#D0E4EE"/>
<path d="M17.1962 21.3026C17.423 21.451 16.1972 22.5267 15.556 23.046C15.1424 22.373 15.3283 22.1929 15.4491 21.7689C15.5699 21.345 16.9127 21.1172 17.1962 21.3026Z" fill="#EBFEFF"/>
<path d="M70.7009 16.3043C74.3544 16.4038 76.3087 14.0401 77.7865 13.4913C77.9802 13.385 78.1908 13.3587 78.3916 13.3796C78.593 13.3876 78.7878 13.4481 78.9799 13.5749C80.0845 14.3039 80.0225 16.5393 80.3978 18.4797C80.4973 18.9939 80.6274 19.4873 80.8181 19.9265C81.0037 20.354 81.2466 20.73 81.5743 21.0239C81.896 21.3123 82.3278 21.5737 82.8256 21.8179C84.816 22.7942 87.8632 23.495 89.1597 24.5424C89.49 24.8092 89.7066 25.0985 89.7633 25.4206C90.0979 27.3234 84.1802 31.7609 82.9674 32.0846C83.5518 36.519 84.3439 40.8113 82.8022 40.8763C78.3254 39.6736 74.4028 36.7345 67.76 41.3097C67.2441 41.7066 66.7184 42.1186 66.1841 42.5402C65.8156 42.831 65.4803 42.6402 65.1766 42.1458C63.861 40.5513 62.2789 35.5838 61.7514 34.3693C61.0773 32.817 56.56 32.1173 55.2661 31.1635C54.231 30.4004 54.1121 28.7866 54.182 28.075C53.6767 27.3662 54.634 26.5763 56.1044 25.5426C56.111 25.5378 56.1177 25.5331 56.1244 25.5285C57.5917 24.498 59.5625 23.2255 61.1018 21.5512C60.9778 19.7512 60.9054 16.1593 61.4577 14.614C61.5844 14.2595 61.8622 13.9658 62.2384 13.9544C62.3698 13.9504 62.5282 13.9556 62.7167 13.9723C63.9103 14.0785 66.3113 14.6495 70.7009 16.3043Z" fill="#753525"/>
<path d="M67.3221 20.8437L69.5436 23.975C69.1879 24.5896 63.9968 23.6366 63.0479 22.6774C62.099 21.7181 61.0804 22.7694 61.1075 23.1952C61.1345 23.6211 61.7813 23.4484 61.9485 23.7503C62.1157 24.0521 62.1482 24.8229 61.7655 25.0117C61.4593 25.1627 59.277 25.5315 58.2242 25.697C57.7595 25.4703 56.6849 25.122 56.1043 25.5426C54.6339 26.5763 53.6766 27.3663 54.1819 28.075C55.1324 28.2833 57.2814 28.4603 58.2731 27.5028C59.5126 26.3058 61.9059 26.1867 62.3965 26.4022C62.887 26.6177 62.5964 28.774 62.7043 29.1782C62.8122 29.5825 63.6532 30.1375 66.7195 26.3743C67.3719 25.5737 69.9374 25.3423 70.0131 26.7078L68.6878 30.1795C68.2064 30.539 66.8834 31.3367 65.4432 31.6518C63.6429 32.0457 64.2506 33.1826 65.3033 33.0749C66.3561 32.9671 67.9662 33.3169 67.4437 34.9287C67.0257 36.2182 67.0507 37.0257 67.1154 37.2682C66.2909 38.1812 65.1194 40.174 67.0299 40.842C69.418 41.677 68.2205 37.8393 68.1126 37.4351C68.0048 37.0308 67.7726 35.1874 71.271 35.6394C72.9367 35.7145 72.7528 33.0787 70.2134 30.3786C70.3659 29.3275 71.1107 27.3156 72.8702 27.6775C74.6297 28.0393 75.4617 29.8151 75.6577 30.6578L75.0814 32.717C74.3341 33.3784 73.1801 34.9393 74.543 35.892C75.9059 36.8448 76.4797 34.7111 76.5962 33.5252C76.9339 33.0598 77.8315 32.5719 78.7202 34.3441C79.156 35.1978 79.8148 35.9574 80.0898 36.2304C79.7576 37.0409 79.9276 38.8028 83.2654 39.3669C83.5436 38.1379 83.5115 35.681 81.157 35.6858C79.9794 34.1293 79.7065 33.388 79.7172 33.2119C80.3981 32.626 81.4967 31.2473 80.4443 30.4195C79.3919 29.5918 77.5189 29.4104 76.7139 29.4231C76.0579 28.5878 74.4872 27.2459 74.1745 26.7231C73.7 26.2435 73.6566 24.7827 77.1119 25.073C80.5672 25.3633 79.8608 24.3393 80.5027 26.4199C81.1446 28.5004 80.6866 29.0557 82.9507 29.7506C84.5783 28.7099 83.4568 27.1038 83.0632 26.6026C82.5851 25.893 82.306 24.6741 85.0143 25.4756C88.3996 26.4775 88.5343 26.0085 89.2781 25.5501C89.3357 25.3904 89.3928 24.9652 89.1596 24.5424C87.8631 23.495 84.8159 22.7943 82.8255 21.8179C82.1825 21.572 80.6407 21.4851 79.618 23.105C77.9201 23.5581 76.4539 23.2566 74.9986 23.645C74.5421 23.4493 73.9569 22.7278 75.2676 21.408C76.5782 20.0881 78.5807 20.4082 79.418 20.7333C79.8219 20.8078 80.6673 20.7508 80.818 19.9266C80.6273 19.4873 80.4972 18.9939 80.3977 18.4797C79.8392 18.2535 78.8892 18.1029 78.2369 17.9305C77.5847 17.7582 76.1616 17.6183 78.1017 15.8014C78.7916 15.3574 79.933 14.2906 78.9799 13.575C78.3994 13.2391 77.202 13.0794 77.0558 15.1278C76.6249 16.6286 76.4201 16.8564 76.3716 16.7828C75.944 17.1279 74.7083 17.6251 73.1859 16.8536C72.0431 16.4657 71.5275 16.8054 71.6497 17.2636C72.1458 17.824 73.4369 18.6054 73.747 18.9557C74.367 19.6563 74.8849 21.5967 73.0308 22.438C72.6356 22.6878 71.6295 23.1585 70.767 23.0422C70.1619 22.0732 69.0519 20.8348 68.5725 20.3367C69.2228 19.528 70.0166 17.9593 69.5367 17.1346C69.5042 16.3638 68.2914 16.6875 66.1893 17.2486L62.7166 13.9724C62.5281 13.9556 62.3697 13.9504 62.2383 13.9544C61.8621 13.9658 61.5843 14.2595 61.4576 14.614L64.0872 17.8096C63.1871 18.2231 61.4667 19.2192 61.7859 19.8962C62.1052 20.5732 65.6097 20.8099 67.3221 20.8437Z" fill="#F6F6F6"/>
<path d="M83.2654 39.3669C83.9499 39.011 83.0326 34.9253 82.9673 32.0846C83.5517 36.519 84.3437 40.8113 82.8021 40.8763C78.3252 39.6736 74.4027 36.7345 67.7599 41.3097C67.244 41.7066 66.7182 42.1185 66.184 42.5402C65.8155 42.831 65.4802 42.6402 65.1764 42.1458C63.8608 40.5513 62.2787 35.5838 61.7513 34.3693C61.0772 32.817 56.5599 32.1173 55.266 31.1635C54.2309 30.4004 54.1119 28.7865 54.1819 28.075C59.1931 29.7169 62.1281 32.1035 62.9692 33.0915C63.3032 33.8276 64.0059 40.2408 65.1764 42.1458C65.4817 42.5158 65.7725 42.7042 66.0326 42.622C66.6287 42.1283 67.2038 41.6927 67.7599 41.3097C70.7668 38.9958 73.4385 37.1903 75.5135 36.9322C77.9445 36.6298 81.9717 39.7122 83.2654 39.3669Z" fill="#B0462F"/>
<circle cx="71.5629" cy="25.4489" r="1.00417" transform="rotate(-14.9438 71.5629 25.4489)" fill="#78939C"/>
<path d="M71.7697 25.5742C71.2997 25.6304 71.2434 26.09 71.274 26.3128C71.7429 26.4475 72.6861 25.7627 72.5405 25.5417C72.3949 25.3208 72.3572 25.504 71.7697 25.5742Z" fill="#D0E4EE"/>
<path d="M72.0247 24.6251C72.1823 24.7229 71.3146 25.4555 70.8611 25.8096C70.577 25.3611 70.7087 25.2385 70.7969 24.9528C70.885 24.6672 71.8277 24.5029 72.0247 24.6251Z" fill="#EBFEFF"/>
<circle cx="69.1606" cy="32.6726" r="1.00417" transform="rotate(-14.9438 69.1606 32.6726)" fill="#78939C"/>
<path d="M69.3671 32.7979C68.8971 32.854 68.8408 33.3137 68.8714 33.5365C69.3404 33.6711 70.2835 32.9863 70.1379 32.7654C69.9923 32.5444 69.9547 32.7277 69.3671 32.7979Z" fill="#D0E4EE"/>
<path d="M69.6221 31.8488C69.7797 31.9465 68.912 32.6791 68.4585 33.0332C68.1744 32.5847 68.3061 32.4622 68.3943 32.1765C68.4824 31.8908 69.4251 31.7266 69.6221 31.8488Z" fill="#EBFEFF"/>
<circle cx="77.7846" cy="31.2369" r="1.00417" transform="rotate(-14.9438 77.7846 31.2369)" fill="#78939C"/>
<path d="M77.9914 31.3623C77.5214 31.4185 77.465 31.8781 77.4956 32.1009C77.9646 32.2356 78.9078 31.5508 78.7622 31.3298C78.6166 31.1088 78.5789 31.2921 77.9914 31.3623Z" fill="#D0E4EE"/>
<path d="M78.2466 30.413C78.4042 30.5107 77.5366 31.2433 77.083 31.5974C76.7989 31.1489 76.9306 31.0264 77.0188 30.7407C77.1069 30.455 78.0496 30.2908 78.2466 30.413Z" fill="#EBFEFF"/>
<circle cx="82.1276" cy="23.4953" r="1.00417" transform="rotate(-14.9438 82.1276 23.4953)" fill="#78939C"/>
<path d="M82.3342 23.6208C81.8641 23.6769 81.8078 24.1365 81.8384 24.3593C82.3074 24.494 83.2506 23.8092 83.105 23.5882C82.9594 23.3673 82.9217 23.5506 82.3342 23.6208Z" fill="#D0E4EE"/>
<path d="M82.5894 22.6714C82.747 22.7692 81.8793 23.5018 81.4258 23.8558C81.1417 23.4073 81.2734 23.2848 81.3615 22.9991C81.4497 22.7134 82.3924 22.5492 82.5894 22.6714Z" fill="#EBFEFF"/>
<circle cx="76.0031" cy="18.7209" r="1.00417" transform="rotate(-14.9438 76.0031 18.7209)" fill="#78939C"/>
<path d="M76.2099 18.8462C75.7399 18.9024 75.6835 19.362 75.7141 19.5848C76.1831 19.7195 77.1263 19.0347 76.9807 18.8137C76.8351 18.5927 76.7974 18.776 76.2099 18.8462Z" fill="#D0E4EE"/>
<path d="M76.4649 17.8969C76.6225 17.9946 75.7548 18.7272 75.3013 19.0813C75.0172 18.6328 75.1489 18.5103 75.237 18.2246C75.3252 17.9389 76.2679 17.7747 76.4649 17.8969Z" fill="#EBFEFF"/>
<circle cx="66.3437" cy="18.8739" r="1.00417" transform="rotate(-14.9438 66.3437 18.8739)" fill="#78939C"/>
<path d="M66.5502 18.9992C66.0802 19.0553 66.0239 19.515 66.0545 19.7378C66.5235 19.8724 67.4666 19.1876 67.321 18.9667C67.1755 18.7457 67.1378 18.929 66.5502 18.9992Z" fill="#D0E4EE"/>
<path d="M66.8055 18.0499C66.9631 18.1477 66.0954 18.8803 65.6419 19.2344C65.3577 18.7859 65.4895 18.6633 65.5776 18.3777C65.6658 18.092 66.6084 17.9278 66.8055 18.0499Z" fill="#EBFEFF"/>
<circle cx="63.9301" cy="25.4076" r="1.00417" transform="rotate(-14.9438 63.9301 25.4076)" fill="#78939C"/>
<path d="M64.1367 25.5327C63.6666 25.5889 63.6103 26.0485 63.6409 26.2713C64.1099 26.406 65.0531 25.7212 64.9075 25.5002C64.7619 25.2793 64.7242 25.4625 64.1367 25.5327Z" fill="#D0E4EE"/>
<path d="M64.3545 24.448C64.5315 24.5639 63.5744 25.4038 63.0737 25.8093C62.7507 25.2838 62.8959 25.1431 62.9902 24.8121C63.0845 24.4811 64.1331 24.3032 64.3545 24.448Z" fill="#EBFEFF"/>
</svg>
