<svg width="560" height="205" viewBox="0 0 560 205" fill="none" xmlns="http://www.w3.org/2000/svg">
<path d="M68.3252 47.3371C80.9488 47.6811 87.7015 39.5137 92.8078 37.6177C93.4769 37.2504 94.2048 37.1595 94.8985 37.2317C95.5943 37.2592 96.2675 37.4684 96.9314 37.9066C100.748 40.4253 100.534 48.1493 101.831 54.854C102.174 56.6305 102.624 58.3355 103.283 59.8531C103.924 61.33 104.763 62.6294 105.896 63.6447C107.007 64.6412 108.499 65.5446 110.219 66.3883C117.097 69.7618 127.625 72.1831 132.105 75.8022C133.246 76.7241 133.995 77.7238 134.191 78.8367C135.347 85.4112 114.9 100.744 110.709 101.863C112.728 117.185 115.465 132.016 110.139 132.24C94.6697 128.085 81.1161 117.929 58.1634 133.738C56.3809 135.109 54.5644 136.533 52.7183 137.989C51.445 138.994 50.2865 138.335 49.237 136.627C44.6913 131.117 39.2246 113.953 37.4022 109.757C35.0729 104.393 19.4645 101.975 14.9937 98.6798C11.4171 96.0432 11.0061 90.4669 11.2477 88.0083C9.5017 85.5593 12.8096 82.8297 17.8901 79.258C17.913 79.2415 17.936 79.2253 17.9592 79.2095C23.0293 75.6487 29.8389 71.252 35.1576 65.4667C34.7292 59.2472 34.4791 46.8362 36.3874 41.4967C36.8251 40.2719 37.7849 39.257 39.0849 39.2177C39.5388 39.2039 40.086 39.2218 40.7374 39.2797C44.8616 39.6466 53.1578 41.6194 68.3252 47.3371Z" fill="#753525"/>
<path d="M56.6506 63.0222L64.3265 73.8418C63.0977 75.9654 45.1609 72.6726 41.8822 69.358C38.6034 66.0434 35.084 69.6761 35.1775 71.1475C35.2709 72.6189 37.5058 72.0224 38.0834 73.0652C38.661 74.1081 38.7734 76.7715 37.4511 77.4237C36.3933 77.9454 28.8529 79.2198 25.2149 79.7917C23.6092 79.0083 19.8964 77.8049 17.8902 79.2582C12.8097 82.8299 9.50173 85.5595 11.2478 88.0085C14.5322 88.7279 21.9575 89.3397 25.3839 86.0311C29.6668 81.8954 37.9362 81.4839 39.6313 82.2285C41.3264 82.9732 40.3222 90.4235 40.695 91.8203C41.0678 93.2171 43.9738 95.1348 54.5687 82.1322C56.8229 79.3656 65.6872 78.5661 65.949 83.2845L61.3698 95.2801C59.7062 96.5221 55.1349 99.2784 50.1585 100.367C43.938 101.728 46.0378 105.657 49.6753 105.284C53.3128 104.912 58.8763 106.12 57.0709 111.69C55.6265 116.145 55.7128 118.935 55.9365 119.773C53.0875 122.928 49.0399 129.814 55.6412 132.122C63.8928 135.007 59.7551 121.747 59.3823 120.35C59.0095 118.953 58.2072 112.584 70.2953 114.145C76.0506 114.405 75.4153 105.297 66.6408 95.9681C67.1678 92.336 69.7415 85.3846 75.821 86.6348C81.9006 87.8851 84.7752 94.0209 85.4525 96.9325L83.4612 104.048C80.879 106.333 76.8918 111.726 81.601 115.018C86.3102 118.31 88.2928 110.938 88.6954 106.84C89.8623 105.232 92.9636 103.547 96.0344 109.67C97.5399 112.62 99.8165 115.244 100.767 116.188C99.6187 118.988 100.206 125.076 111.739 127.025C112.701 122.778 112.589 114.289 104.454 114.306C100.385 108.928 99.4421 106.366 99.4792 105.758C101.832 103.733 105.628 98.9694 101.992 96.1094C98.3552 93.2494 91.8835 92.6225 89.1021 92.6665C86.8354 89.7801 81.4083 85.1436 80.3276 83.3372C78.6883 81.6799 78.5382 76.6325 90.4771 77.6357C102.416 78.6389 99.9754 75.1006 102.193 82.2895C104.411 89.4783 102.829 91.397 110.652 93.798C116.276 90.2021 112.401 84.6526 111.041 82.9208C109.389 80.4688 108.424 76.2573 117.782 79.0267C129.479 82.4884 129.945 80.8679 132.515 79.2842C132.714 78.7323 132.911 77.2631 132.105 75.8023C127.625 72.1833 117.097 69.762 110.219 66.3885C107.997 65.5387 102.67 65.2385 99.1364 70.8356C93.2698 72.4014 88.2035 71.3595 83.175 72.7016C81.5979 72.0252 79.5759 69.5324 84.1046 64.9719C88.6332 60.4115 95.5521 61.5176 98.4455 62.6407C99.841 62.8982 102.762 62.7013 103.283 59.8533C102.624 58.3357 102.174 56.6307 101.831 54.8542C99.9006 54.0725 96.6182 53.552 94.3645 52.9565C92.1107 52.3609 87.1935 51.8777 93.8972 45.5996C96.2809 44.0656 100.225 40.3794 96.9315 37.9067C94.9259 36.7462 90.7885 36.1945 90.2834 43.2722C88.7945 48.4578 88.087 49.2452 87.9193 48.9907C86.4419 50.183 82.1722 51.9012 76.9118 49.2352C72.963 47.895 71.1814 49.0688 71.604 50.6519C73.3179 52.5885 77.7792 55.2882 78.8504 56.4986C80.9929 58.9194 82.7823 65.6241 76.3759 68.531C75.0102 69.3943 71.5339 71.0204 68.5537 70.6187C66.4631 67.2706 62.6277 62.9916 60.9713 61.2705C63.2181 58.4763 65.961 53.0557 64.3028 50.2064C64.1904 47.5431 60 48.6615 52.7366 50.6001L40.7374 39.2799C40.0861 39.2219 39.5388 39.2041 39.085 39.2178C37.7849 39.2572 36.8251 40.2721 36.3874 41.4969L45.4732 52.5387C42.3631 53.9673 36.4187 57.4093 37.5218 59.7484C38.6249 62.0874 50.734 62.9056 56.6506 63.0222Z" fill="#F6F6F6"/>
<path d="M111.739 127.025C114.104 125.795 110.935 111.678 110.709 101.863C112.728 117.185 115.465 132.016 110.139 132.24C94.6698 128.085 81.1161 117.929 58.1634 133.738C56.3809 135.109 54.5644 136.533 52.7183 137.989C51.445 138.994 50.2866 138.335 49.237 136.627C44.6913 131.117 39.2247 113.953 37.4023 109.757C35.0729 104.393 19.4645 101.975 14.9937 98.6798C11.4171 96.0432 11.0062 90.4669 11.2478 88.0084C28.563 93.6816 38.7043 101.928 41.6106 105.342C42.7646 107.885 45.1925 130.044 49.237 136.627C50.2916 137.905 51.2967 138.556 52.1952 138.272C54.2549 136.566 56.2421 135.061 58.1634 133.738C68.5534 125.743 77.7846 119.504 84.9543 118.612C93.3541 117.567 107.269 128.218 111.739 127.025Z" fill="#B0462F"/>
<circle cx="71.3037" cy="78.9347" r="3.46969" transform="rotate(-14.9438 71.3037 78.9347)" fill="#78939C"/>
<path d="M72.0177 79.3676C70.3937 79.5616 70.1991 81.1498 70.3048 81.9196C71.9253 82.3849 75.1842 80.0188 74.6811 79.2552C74.1781 78.4917 74.0478 79.125 72.0177 79.3676Z" fill="#D0E4EE"/>
<path d="M72.8993 76.0879C73.444 76.4257 70.4459 78.957 68.8788 80.1804C67.8971 78.6308 68.3522 78.2074 68.6568 77.2202C68.9614 76.2331 72.2186 75.6657 72.8993 76.0879Z" fill="#EBFEFF"/>
<circle cx="63.0023" cy="103.894" r="3.46969" transform="rotate(-14.9438 63.0023 103.894)" fill="#78939C"/>
<path d="M63.7163 104.327C62.0922 104.521 61.8976 106.109 62.0033 106.879C63.6238 107.344 66.8827 104.978 66.3797 104.215C65.8766 103.451 65.7464 104.084 63.7163 104.327Z" fill="#D0E4EE"/>
<path d="M64.598 101.048C65.1426 101.385 62.1445 103.917 60.5774 105.14C59.5957 103.59 60.0508 103.167 60.3554 102.18C60.6601 101.193 63.9172 100.625 64.598 101.048Z" fill="#EBFEFF"/>
<circle cx="92.8015" cy="98.9334" r="3.46969" transform="rotate(-14.9438 92.8015 98.9334)" fill="#78939C"/>
<path d="M93.5155 99.3666C91.8915 99.5606 91.6969 101.149 91.8026 101.919C93.4231 102.384 96.682 100.018 96.1789 99.2543C95.6759 98.4907 95.5456 99.124 93.5155 99.3666Z" fill="#D0E4EE"/>
<path d="M94.3972 96.0867C94.9418 96.4244 91.9438 98.9558 90.3767 100.179C89.395 98.6296 89.8501 98.2062 90.1547 97.219C90.4593 96.2319 93.7164 95.6645 94.3972 96.0867Z" fill="#EBFEFF"/>
<circle cx="107.808" cy="72.1844" r="3.46969" transform="rotate(-14.9438 107.808 72.1844)" fill="#78939C"/>
<path d="M108.522 72.6176C106.898 72.8116 106.703 74.3998 106.809 75.1696C108.429 75.6349 111.688 73.2688 111.185 72.5052C110.682 71.7417 110.552 72.375 108.522 72.6176Z" fill="#D0E4EE"/>
<path d="M109.403 69.3377C109.948 69.6754 106.95 72.2067 105.383 73.4302C104.401 71.8805 104.856 71.4571 105.161 70.47C105.465 69.4828 108.723 68.9155 109.403 69.3377Z" fill="#EBFEFF"/>
<circle cx="86.6458" cy="55.6873" r="3.46969" transform="rotate(-14.9438 86.6458 55.6873)" fill="#78939C"/>
<path d="M87.3599 56.1202C85.7358 56.3143 85.5412 57.9025 85.6469 58.6723C87.2674 59.1375 90.5263 56.7714 90.0233 56.0079C89.5202 55.2444 89.39 55.8777 87.3599 56.1202Z" fill="#D0E4EE"/>
<path d="M88.2415 52.8403C88.7861 53.1781 85.7881 55.7094 84.221 56.9329C83.2393 55.3832 83.6944 54.9598 83.999 53.9727C84.3036 52.9855 87.5607 52.4182 88.2415 52.8403Z" fill="#EBFEFF"/>
<circle cx="53.2695" cy="56.2159" r="3.46969" transform="rotate(-14.9438 53.2695 56.2159)" fill="#78939C"/>
<path d="M53.9836 56.6488C52.3596 56.8429 52.165 58.431 52.2707 59.2008C53.8912 59.6661 57.1501 57.3 56.647 56.5365C56.144 55.773 56.0137 56.4062 53.9836 56.6488Z" fill="#D0E4EE"/>
<path d="M54.8653 53.3692C55.4099 53.7069 52.4119 56.2382 50.8447 57.4617C49.8631 55.912 50.3181 55.4886 50.6228 54.5015C50.9274 53.5143 54.1845 52.947 54.8653 53.3692Z" fill="#EBFEFF"/>
<circle cx="44.9304" cy="78.7913" r="3.46969" transform="rotate(-14.9438 44.9304 78.7913)" fill="#78939C"/>
<path d="M45.6444 79.2242C44.0203 79.4183 43.8257 81.0065 43.9314 81.7763C45.5519 82.2416 48.8108 79.8754 48.3078 79.1119C47.8047 78.3484 47.6745 78.9817 45.6444 79.2242Z" fill="#D0E4EE"/>
<path d="M46.3968 75.4758C47.0086 75.8762 43.7014 78.7785 41.9713 80.1797C40.8554 78.3639 41.3569 77.8778 41.6828 76.734C42.0088 75.5902 45.632 74.9754 46.3968 75.4758Z" fill="#EBFEFF"/>
<path d="M331.112 21.1122C322.028 21.3597 317.168 15.4822 313.494 14.1177C313.012 13.8533 312.488 13.788 311.989 13.8399C311.488 13.8597 311.004 14.0103 310.526 14.3256C307.78 16.1381 307.934 21.6967 307.001 26.5216C306.753 27.8001 306.43 29.0271 305.956 30.1192C305.494 31.182 304.89 32.1171 304.075 32.8478C303.275 33.5649 302.202 34.215 300.964 34.8222C296.015 37.2499 288.438 38.9924 285.214 41.5968C284.393 42.2603 283.854 42.9797 283.713 43.7806C282.881 48.5118 297.595 59.546 300.611 60.3509C299.158 71.3772 297.189 82.0503 301.022 82.212C312.154 79.2213 321.908 71.9131 338.425 83.2896C339.708 84.2766 341.015 85.3009 342.344 86.3492C343.26 87.0723 344.094 86.5979 344.849 85.3687C348.12 81.4038 352.054 69.0518 353.366 66.032C355.042 62.1722 366.275 60.4321 369.492 58.0604C372.066 56.1631 372.362 52.1501 372.188 50.3808C373.444 48.6184 371.064 46.6541 367.408 44.0838C367.391 44.0719 367.375 44.0602 367.358 44.0488C363.709 41.4863 358.809 38.3223 354.981 34.1589C355.289 29.6832 355.469 20.7517 354.096 16.9092C353.781 16.0278 353.091 15.2974 352.155 15.2691C351.828 15.2592 351.434 15.2721 350.966 15.3138C347.998 15.5778 342.027 16.9975 331.112 21.1122Z" fill="#753525"/>
<path d="M339.514 32.3998L333.99 40.186C334.874 41.7142 347.782 39.3446 350.142 36.9593C352.501 34.574 355.034 37.1882 354.967 38.2471C354.9 39.3059 353.291 38.8767 352.876 39.6272C352.46 40.3777 352.379 42.2943 353.331 42.7637C354.092 43.1391 359.518 44.0562 362.136 44.4678C363.292 43.904 365.964 43.038 367.408 44.0838C371.064 46.6542 373.444 48.6185 372.188 50.3809C369.824 50.8987 364.481 51.3389 362.015 48.9579C358.933 45.9817 352.982 45.6855 351.762 46.2214C350.542 46.7573 351.265 52.1188 350.996 53.124C350.728 54.1292 348.637 55.5093 341.012 46.1521C339.39 44.1612 333.011 43.5858 332.822 46.9813L336.118 55.6138C337.315 56.5077 340.605 58.4912 344.186 59.2747C348.662 60.2542 347.151 63.0813 344.534 62.8133C341.916 62.5454 337.912 63.415 339.212 67.423C340.251 70.6293 340.189 72.6371 340.028 73.2402C342.078 75.5103 344.991 80.4658 340.24 82.1268C334.302 84.203 337.28 74.6604 337.548 73.6552C337.816 72.65 338.394 68.0661 329.695 69.1901C325.553 69.3769 326.01 62.8227 332.325 56.1089C331.945 53.4952 330.093 48.4926 325.718 49.3924C321.343 50.2921 319.274 54.7077 318.787 56.803L320.22 61.9234C322.078 63.568 324.948 67.4493 321.559 69.8183C318.17 72.1873 316.743 66.8819 316.453 63.9331C315.614 62.7758 313.382 61.5627 311.172 65.9693C310.088 68.0922 308.45 69.9808 307.766 70.6598C308.592 72.6749 308.17 77.056 299.87 78.4589C299.178 75.4027 299.258 69.2935 305.113 69.3054C308.041 65.4352 308.719 63.5919 308.693 63.154C307 61.6972 304.268 58.2689 306.885 56.2107C309.502 54.1525 314.159 53.7013 316.161 53.733C317.792 51.6558 321.697 48.3192 322.475 47.0193C323.655 45.8266 323.763 42.1943 315.171 42.9162C306.579 43.6382 308.336 41.0919 306.74 46.2653C305.143 51.4387 306.282 52.8195 300.653 54.5473C296.605 51.9595 299.394 47.9659 300.373 46.7196C301.562 44.9551 302.256 41.9243 295.521 43.9172C287.103 46.4084 286.769 45.2423 284.919 44.1026C284.776 43.7054 284.634 42.6481 285.214 41.5969C288.438 38.9925 296.015 37.25 300.964 34.8223C302.563 34.2108 306.396 33.9947 308.939 38.0226C313.161 39.1494 316.807 38.3996 320.426 39.3655C321.561 38.8787 323.016 37.0847 319.757 33.8029C316.498 30.521 311.519 31.317 309.437 32.1252C308.432 32.3105 306.33 32.1688 305.956 30.1193C306.43 29.0271 306.753 27.8002 307.001 26.5217C308.389 25.9592 310.752 25.5846 312.374 25.1561C313.995 24.7275 317.534 24.3798 312.71 19.8618C310.994 18.7578 308.156 16.1051 310.526 14.3257C311.97 13.4905 314.947 13.0935 315.31 18.1869C316.382 21.9186 316.891 22.4853 317.012 22.3021C318.075 23.1602 321.148 24.3966 324.933 22.4781C327.775 21.5136 329.057 22.3583 328.753 23.4976C327.52 24.8913 324.309 26.8341 323.538 27.7051C321.996 29.4472 320.709 34.2722 325.319 36.3641C326.302 36.9854 328.803 38.1556 330.948 37.8666C332.453 35.4571 335.213 32.3777 336.405 31.1392C334.788 29.1283 332.814 25.2275 334.007 23.177C334.088 21.2604 337.104 22.0652 342.331 23.4603L350.966 15.3138C351.434 15.2721 351.828 15.2593 352.155 15.2692C353.09 15.2975 353.781 16.0279 354.096 16.9093L347.558 24.8554C349.796 25.8835 354.074 28.3605 353.28 30.0438C352.486 31.7271 343.772 32.3158 339.514 32.3998Z" fill="#F6F6F6"/>
<path d="M299.87 78.4587C298.168 77.5737 300.449 67.4144 300.611 60.3508C299.158 71.3772 297.188 82.0503 301.022 82.2119C312.154 79.2213 321.908 71.913 338.425 83.2895C339.708 84.2766 341.015 85.3008 342.344 86.3492C343.26 87.0723 344.094 86.5979 344.849 85.3686C348.12 81.4037 352.054 69.0518 353.366 66.0319C355.042 62.1721 366.275 60.4321 369.492 58.0604C372.066 56.163 372.362 52.1501 372.188 50.3808C359.727 54.4634 352.429 60.3978 350.337 62.8546C349.507 64.6849 347.76 80.6316 344.849 85.3686C344.09 86.2885 343.367 86.757 342.72 86.5527C341.238 85.325 339.808 84.2418 338.425 83.2895C330.948 77.536 324.305 73.0463 319.145 72.4045C313.101 71.6526 303.087 79.3172 299.87 78.4587Z" fill="#B0462F"/>
<circle r="2.49693" transform="matrix(-0.966179 -0.257872 -0.257872 0.966179 328.969 43.8511)" fill="#78939C"/>
<path d="M328.455 44.1628C329.624 44.3024 329.764 45.4453 329.688 45.9993C328.522 46.3341 326.176 44.6314 326.538 44.0819C326.9 43.5325 326.994 43.9882 328.455 44.1628Z" fill="#D0E4EE"/>
<path d="M327.821 41.8023C327.429 42.0454 329.586 43.867 330.714 44.7475C331.42 43.6323 331.093 43.3276 330.874 42.6172C330.655 41.9068 328.311 41.4985 327.821 41.8023Z" fill="#EBFEFF"/>
<circle r="2.49693" transform="matrix(-0.966179 -0.257872 -0.257872 0.966179 334.943 61.813)" fill="#78939C"/>
<path d="M334.429 62.1244C335.598 62.2641 335.738 63.407 335.662 63.961C334.496 64.2958 332.15 62.5931 332.513 62.0436C332.875 61.4941 332.968 61.9499 334.429 62.1244Z" fill="#D0E4EE"/>
<path d="M333.795 59.7643C333.403 60.0073 335.56 61.829 336.688 62.7094C337.394 61.5942 337.067 61.2895 336.848 60.5791C336.629 59.8687 334.285 59.4604 333.795 59.7643Z" fill="#EBFEFF"/>
<circle r="2.49693" transform="matrix(-0.966179 -0.257872 -0.257872 0.966179 313.498 58.2432)" fill="#78939C"/>
<path d="M312.984 58.5546C314.153 58.6943 314.293 59.8372 314.217 60.3911C313.051 60.726 310.706 59.0232 311.068 58.4738C311.43 57.9243 311.523 58.38 312.984 58.5546Z" fill="#D0E4EE"/>
<path d="M312.35 56.1944C311.958 56.4375 314.116 58.2591 315.243 59.1396C315.95 58.0244 315.622 57.7197 315.403 57.0093C315.184 56.2989 312.84 55.8906 312.35 56.1944Z" fill="#EBFEFF"/>
<circle r="2.49693" transform="matrix(-0.966179 -0.257872 -0.257872 0.966179 302.699 38.9934)" fill="#78939C"/>
<path d="M302.185 39.3051C303.354 39.4447 303.494 40.5876 303.418 41.1416C302.252 41.4765 299.907 39.7737 300.269 39.2243C300.631 38.6748 300.724 39.1305 302.185 39.3051Z" fill="#D0E4EE"/>
<path d="M301.551 36.9447C301.159 37.1877 303.317 39.0094 304.444 39.8898C305.151 38.7746 304.823 38.4699 304.604 37.7595C304.385 37.0492 302.041 36.6408 301.551 36.9447Z" fill="#EBFEFF"/>
<circle r="2.49693" transform="matrix(-0.966179 -0.257872 -0.257872 0.966179 317.928 27.1214)" fill="#78939C"/>
<path d="M317.414 27.4328C318.583 27.5724 318.723 28.7153 318.647 29.2693C317.481 29.6042 315.136 27.9014 315.498 27.3519C315.86 26.8025 315.953 27.2582 317.414 27.4328Z" fill="#D0E4EE"/>
<path d="M316.78 25.0726C316.388 25.3157 318.545 27.1373 319.673 28.0178C320.38 26.9026 320.052 26.5979 319.833 25.8875C319.614 25.1771 317.27 24.7688 316.78 25.0726Z" fill="#EBFEFF"/>
<circle r="2.49693" transform="matrix(-0.966179 -0.257872 -0.257872 0.966179 341.947 27.5015)" fill="#78939C"/>
<path d="M341.433 27.8134C342.602 27.953 342.742 29.0959 342.666 29.6499C341.5 29.9848 339.155 28.282 339.517 27.7326C339.879 27.1831 339.972 27.6388 341.433 27.8134Z" fill="#D0E4EE"/>
<path d="M340.799 25.453C340.407 25.696 342.564 27.5177 343.692 28.3981C344.399 27.2829 344.071 26.9782 343.852 26.2678C343.633 25.5575 341.289 25.1491 340.799 25.453Z" fill="#EBFEFF"/>
<circle r="2.49693" transform="matrix(-0.966179 -0.257872 -0.257872 0.966179 347.948 43.7481)" fill="#78939C"/>
<path d="M347.434 44.0597C348.603 44.1994 348.743 45.3423 348.667 45.8963C347.501 46.2311 345.156 44.5284 345.518 43.9789C345.88 43.4294 345.973 43.8852 347.434 44.0597Z" fill="#D0E4EE"/>
<path d="M346.893 41.3621C346.453 41.6502 348.833 43.7389 350.078 44.7472C350.881 43.4405 350.52 43.0906 350.285 42.2675C350.051 41.4444 347.443 41.002 346.893 41.3621Z" fill="#EBFEFF"/>
<path d="M501.744 124.788C511.12 125.044 516.135 118.978 519.927 117.57C520.424 117.297 520.965 117.23 521.48 117.283C521.997 117.304 522.496 117.459 522.99 117.784C525.824 119.655 525.665 125.391 526.628 130.371C526.883 131.69 527.217 132.957 527.707 134.084C528.183 135.181 528.806 136.146 529.647 136.9C530.473 137.64 531.581 138.311 532.858 138.937C537.966 141.443 545.786 143.241 549.113 145.929C549.96 146.614 550.516 147.356 550.662 148.183C551.52 153.065 536.334 164.453 533.222 165.284C534.722 176.663 536.754 187.678 532.798 187.845C521.31 184.758 511.244 177.216 494.197 188.957C492.873 189.975 491.524 191.032 490.153 192.114C489.207 192.861 488.347 192.371 487.568 191.102C484.192 187.011 480.132 174.263 478.778 171.147C477.048 167.163 465.456 165.367 462.136 162.92C459.479 160.962 459.174 156.82 459.354 154.994C458.057 153.175 460.514 151.148 464.287 148.495C464.304 148.483 464.321 148.471 464.338 148.459C468.104 145.815 473.161 142.55 477.111 138.253C476.793 133.634 476.607 124.416 478.024 120.451C478.349 119.541 479.062 118.787 480.028 118.758C480.365 118.748 480.771 118.761 481.255 118.804C484.318 119.077 490.48 120.542 501.744 124.788Z" fill="#753525"/>
<path d="M493.074 136.437L498.774 144.473C497.862 146.05 484.54 143.604 482.105 141.143C479.67 138.681 477.056 141.379 477.126 142.472C477.195 143.564 478.855 143.121 479.284 143.896C479.713 144.671 479.796 146.649 478.814 147.133C478.029 147.52 472.429 148.467 469.727 148.892C468.534 148.31 465.777 147.416 464.287 148.495C460.514 151.148 458.057 153.175 459.354 154.994C461.793 155.528 467.308 155.983 469.852 153.526C473.033 150.454 479.175 150.148 480.434 150.701C481.692 151.254 480.947 156.788 481.224 157.825C481.5 158.862 483.659 160.287 491.527 150.63C493.202 148.575 499.785 147.981 499.979 151.486L496.578 160.395C495.343 161.317 491.948 163.364 488.252 164.173C483.632 165.184 485.192 168.101 487.893 167.825C490.595 167.548 494.727 168.446 493.386 172.582C492.313 175.891 492.377 177.963 492.543 178.585C490.427 180.928 487.421 186.042 492.324 187.757C498.452 189.899 495.379 180.051 495.102 179.014C494.825 177.976 494.23 173.246 503.207 174.406C507.482 174.598 507.01 167.834 500.493 160.906C500.884 158.208 502.796 153.045 507.311 153.974C511.826 154.903 513.961 159.459 514.464 161.622L512.985 166.906C511.068 168.604 508.106 172.609 511.604 175.054C515.101 177.499 516.574 172.024 516.873 168.98C517.739 167.786 520.043 166.534 522.323 171.082C523.441 173.273 525.132 175.222 525.838 175.922C524.985 178.002 525.422 182.523 533.987 183.971C534.701 180.817 534.619 174.512 528.576 174.525C525.555 170.53 524.854 168.628 524.882 168.176C526.629 166.673 529.448 163.135 526.748 161.011C524.047 158.886 519.241 158.421 517.175 158.454C515.491 156.31 511.461 152.866 510.658 151.525C509.441 150.294 509.329 146.545 518.196 147.29C527.063 148.035 525.25 145.408 526.898 150.747C528.545 156.086 527.369 157.511 533.179 159.294C537.356 156.623 534.478 152.502 533.468 151.216C532.241 149.395 531.525 146.267 538.475 148.323C547.162 150.894 547.508 149.691 549.417 148.515C549.565 148.105 549.711 147.014 549.113 145.929C545.786 143.241 537.966 141.443 532.858 138.937C531.208 138.306 527.252 138.083 524.627 142.24C520.27 143.403 516.507 142.629 512.773 143.626C511.602 143.124 510.1 141.272 513.463 137.885C516.827 134.498 521.965 135.32 524.114 136.154C525.15 136.345 527.32 136.199 527.707 134.084C527.217 132.957 526.883 131.69 526.628 130.371C525.195 129.79 522.757 129.404 521.083 128.962C519.409 128.519 515.757 128.16 520.736 123.498C522.506 122.358 525.436 119.621 522.99 117.784C521.5 116.922 518.427 116.513 518.052 121.769C516.946 125.62 516.421 126.205 516.296 126.016C515.199 126.902 512.028 128.178 508.121 126.198C505.189 125.202 503.865 126.074 504.179 127.25C505.452 128.688 508.765 130.693 509.561 131.592C511.152 133.39 512.481 138.37 507.723 140.529C506.709 141.17 504.127 142.377 501.914 142.079C500.361 139.592 497.513 136.414 496.282 135.136C497.951 133.061 499.988 129.035 498.757 126.919C498.673 124.941 495.561 125.772 490.167 127.211L481.255 118.804C480.771 118.761 480.365 118.748 480.028 118.758C479.062 118.787 478.349 119.541 478.024 120.451L484.772 128.651C482.462 129.712 478.048 132.269 478.867 134.006C479.686 135.743 488.679 136.351 493.074 136.437Z" fill="#F6F6F6"/>
<path d="M533.987 183.971C535.744 183.058 533.39 172.573 533.222 165.283C534.722 176.663 536.754 187.678 532.798 187.845C521.31 184.758 511.244 177.216 494.197 188.957C492.873 189.975 491.524 191.032 490.153 192.114C489.207 192.861 488.347 192.371 487.568 191.102C484.192 187.01 480.132 174.263 478.778 171.146C477.048 167.163 465.456 165.367 462.136 162.92C459.479 160.962 459.174 156.82 459.354 154.994C472.213 159.208 479.745 165.332 481.904 167.867C482.761 169.756 484.564 186.214 487.568 191.102C488.351 192.052 489.097 192.535 489.765 192.324C491.294 191.057 492.77 189.94 494.197 188.957C501.914 183.019 508.77 178.386 514.094 177.723C520.333 176.947 530.667 184.857 533.987 183.971Z" fill="#B0462F"/>
<circle cx="503.956" cy="148.255" r="2.57689" transform="rotate(-14.9438 503.956 148.255)" fill="#78939C"/>
<path d="M504.487 148.577C503.28 148.721 503.136 149.901 503.214 150.472C504.418 150.818 506.838 149.061 506.465 148.494C506.091 147.927 505.994 148.397 504.487 148.577Z" fill="#D0E4EE"/>
<path d="M505.141 146.141C505.546 146.392 503.319 148.272 502.155 149.181C501.426 148.03 501.764 147.715 501.99 146.982C502.217 146.249 504.636 145.828 505.141 146.141Z" fill="#EBFEFF"/>
<circle cx="497.791" cy="166.793" r="2.57689" transform="rotate(-14.9438 497.791 166.793)" fill="#78939C"/>
<path d="M498.321 167.114C497.115 167.258 496.97 168.437 497.049 169.009C498.253 169.355 500.673 167.597 500.299 167.03C499.926 166.463 499.829 166.934 498.321 167.114Z" fill="#D0E4EE"/>
<path d="M498.976 164.678C499.38 164.929 497.154 166.809 495.99 167.718C495.261 166.567 495.599 166.252 495.825 165.519C496.051 164.786 498.47 164.365 498.976 164.678Z" fill="#EBFEFF"/>
<circle cx="519.922" cy="163.108" r="2.57689" transform="rotate(-14.9438 519.922 163.108)" fill="#78939C"/>
<path d="M520.453 163.43C519.246 163.574 519.102 164.753 519.18 165.325C520.384 165.67 522.804 163.913 522.431 163.346C522.057 162.779 521.96 163.249 520.453 163.43Z" fill="#D0E4EE"/>
<path d="M521.107 160.994C521.512 161.244 519.285 163.124 518.121 164.033C517.392 162.882 517.73 162.568 517.957 161.835C518.183 161.101 520.602 160.68 521.107 160.994Z" fill="#EBFEFF"/>
<circle cx="531.067" cy="143.242" r="2.57689" transform="rotate(-14.9438 531.067 143.242)" fill="#78939C"/>
<path d="M531.598 143.564C530.391 143.708 530.247 144.887 530.325 145.459C531.529 145.805 533.949 144.047 533.576 143.48C533.202 142.913 533.105 143.383 531.598 143.564Z" fill="#D0E4EE"/>
<path d="M532.252 141.128C532.657 141.379 530.43 143.259 529.266 144.167C528.537 143.016 528.875 142.702 529.101 141.969C529.328 141.236 531.747 140.814 532.252 141.128Z" fill="#EBFEFF"/>
<circle cx="515.351" cy="130.99" r="2.57689" transform="rotate(-14.9438 515.351 130.99)" fill="#78939C"/>
<path d="M515.881 131.311C514.675 131.455 514.53 132.635 514.609 133.207C515.812 133.552 518.233 131.795 517.859 131.228C517.485 130.661 517.389 131.131 515.881 131.311Z" fill="#D0E4EE"/>
<path d="M516.536 128.875C516.94 129.126 514.714 131.006 513.55 131.915C512.821 130.764 513.159 130.45 513.385 129.716C513.611 128.983 516.03 128.562 516.536 128.875Z" fill="#EBFEFF"/>
<circle cx="490.563" cy="131.382" r="2.57689" transform="rotate(-14.9438 490.563 131.382)" fill="#78939C"/>
<path d="M491.093 131.704C489.887 131.848 489.742 133.028 489.821 133.599C491.024 133.945 493.445 132.188 493.071 131.621C492.697 131.054 492.601 131.524 491.093 131.704Z" fill="#D0E4EE"/>
<path d="M491.748 129.268C492.152 129.519 489.926 131.399 488.762 132.308C488.033 131.157 488.371 130.842 488.597 130.109C488.823 129.376 491.242 128.955 491.748 129.268Z" fill="#EBFEFF"/>
<circle cx="484.369" cy="148.149" r="2.57689" transform="rotate(-14.9438 484.369 148.149)" fill="#78939C"/>
<path d="M484.899 148.471C483.693 148.615 483.549 149.794 483.627 150.366C484.831 150.712 487.251 148.954 486.878 148.387C486.504 147.82 486.407 148.29 484.899 148.471Z" fill="#D0E4EE"/>
<path d="M485.458 145.687C485.913 145.984 483.456 148.139 482.171 149.18C481.343 147.831 481.715 147.47 481.957 146.621C482.199 145.771 484.89 145.315 485.458 145.687Z" fill="#EBFEFF"/>
</svg>
