<svg width="1920" height="929" viewBox="0 0 1920 929" fill="none" xmlns="http://www.w3.org/2000/svg">
<g clip-path="url(#clip0_235_5294)">
<rect width="1920" height="929" fill="url(#paint0_radial_235_5294)"/>
<path d="M1787.45 71.9893C1661.93 141.687 1352.32 238.176 1118 66.5505" stroke="#040404"/>
<g filter="url(#filter0_d_235_5294)">
<rect x="136.75" y="-260.295" width="216.277" height="389" transform="rotate(38.6666 136.75 -260.295)" fill="#DB3125"/>
<path d="M-5 -2L129.957 94.1826L142.608 77.8364L19.4149 -10.9393L-5 -2Z" fill="white"/>
<path d="M52.9421 42.2412C44.3792 53.6848 25.7501 103.58 49.8202 110.236C71.3718 116.196 75.6282 52.3203 52.9421 42.2412Z" stroke="white" stroke-width="9"/>
<path d="M69.2209 21.9679C80.7877 13.5722 130.948 -4.33006 137.254 19.8342C142.901 41.4702 78.9693 44.7981 69.2209 21.9679Z" stroke="white" stroke-width="9"/>
</g>
<g filter="url(#filter1_d_235_5294)">
<rect x="801" y="-35" width="317" height="106" fill="white"/>
</g>
<rect x="942" y="-2" width="35" height="73" fill="#EE2724"/>
<path d="M917 23L942.5 7.5V-1H926.5L917 23Z" fill="#EE2724"/>
<path d="M1002.5 23L977 7.5V-1H993L1002.5 23Z" fill="#EE2724"/>
<g filter="url(#filter2_d_235_5294)">
<path d="M1900 282L1680 -2H1920V259.5L1900 282Z" fill="white"/>
</g>
<path fill-rule="evenodd" clip-rule="evenodd" d="M1872.88 -2H1846.37V212.769L1872.88 246.996V-2ZM1900 281.999L1900 282L1920 259.5V-2H1900V281.999ZM1792.74 -2H1819.25V177.765L1792.74 143.543V-2ZM1765.63 -2H1739.12V74.3125L1765.63 108.54V-2ZM1680 -2H1712V39.3091L1680 -2Z" fill="#35AE4A"/>
<g filter="url(#filter3_d_235_5294)">
<circle cx="1943.22" cy="594" r="61" fill="white"/>
<path d="M1900.22 550.5C1935.84 547.555 1942.69 576.764 1943.22 591C1934.22 578.333 1910.22 555.1 1890.22 563.5C1891.38 561.146 1896.62 553.875 1900.22 550.5Z" fill="#BF0F0F"/>
<path d="M1882.34 589.44C1907.98 562.721 1933.14 580.432 1943.22 591C1927.63 587.457 1892.81 585.319 1883 605.5C1882.31 602.892 1881.84 594.502 1882.34 589.44Z" fill="#BF0F0F"/>
<path d="M1897.72 635C1896.7 597.984 1928.12 590.753 1942.72 591C1929.25 599.61 1903.74 624.842 1911.22 646C1908.87 644.663 1900.97 638.912 1897.72 635Z" fill="#BF0F0F"/>
</g>
<g filter="url(#filter4_d_235_5294)">
<rect x="1590" y="837.44" width="55.4734" height="37" transform="rotate(-17.2387 1590 837.44)" fill="#AA2828"/>
<circle cx="1640.35" cy="906.851" r="69" transform="rotate(-17.2387 1640.35 906.851)" fill="#D03431"/>
<path d="M1572.97 892.159L1687.58 856.597" stroke="white"/>
<path d="M1571.5 909.367C1571.98 909.219 1696.87 869.68 1698.53 869.952C1700.18 870.224 1705.36 883.537 1705.36 883.537C1705.36 883.537 1574.04 924.286 1573.41 923.957C1572.78 923.627 1571.02 909.515 1571.5 909.367Z" fill="white"/>
<path d="M1597.71 836.094C1587.54 803.334 1623.62 791.375 1634 824.832" stroke="#AA2828" stroke-width="3"/>
</g>
<path d="M130 96.5C257.5 162.5 569.8 249.9 799 71.5" stroke="#040404"/>
<path d="M53.8786 934.492C113.387 803.836 184.981 487.538 -4.71258 267.594" stroke="#040404"/>
<path d="M1886.57 926.416C1814.32 802.354 1711.5 494.785 1878.28 257" stroke="#040404"/>
<rect x="158.098" y="103.129" width="17" height="42" rx="8.5" transform="rotate(13.6821 158.098 103.129)" fill="#373333"/>
<circle cx="159.143" cy="134.774" r="17.5" transform="rotate(13.6821 159.143 134.774)" fill="#FAEA3A"/>
<rect x="59.0879" y="906.097" width="17" height="42" rx="8.5" transform="rotate(-79.1987 59.0879 906.097)" fill="#373333"/>
<circle cx="90.6394" cy="903.463" r="17.5" transform="rotate(-79.1987 90.6394 903.463)" fill="#FAEA3A"/>
<rect width="17" height="42" rx="8.5" transform="matrix(-0.284545 -0.958663 -0.958663 0.284545 1878.55 898.682)" fill="#373333"/>
<circle r="17.5" transform="matrix(-0.284545 -0.958663 -0.958663 0.284545 1846.9 899.212)" fill="#FAEA3A"/>
<rect width="17" height="42" rx="8.5" transform="matrix(-0.964296 0.264828 0.264828 0.964296 1696.07 104.384)" fill="#373333"/>
<circle r="17.5" transform="matrix(-0.964296 0.264828 0.264828 0.964296 1695.95 136.046)" fill="#FAEA3A"/>
<rect x="327.822" y="156.104" width="17" height="42" rx="8.5" transform="rotate(7.04968 327.822 156.104)" fill="#373333"/>
<circle cx="332.515" cy="187.417" r="17.5" transform="rotate(7.04968 332.515 187.417)" fill="#FAEA3A"/>
<rect x="103.467" y="733.924" width="17" height="42" rx="8.5" transform="rotate(-85.8311 103.467 733.924)" fill="#373333"/>
<circle cx="134.503" cy="727.664" r="17.5" transform="rotate(-85.8311 134.503 727.664)" fill="#FAEA3A"/>
<rect width="17" height="42" rx="8.5" transform="matrix(-0.171915 -0.985112 -0.985112 0.171915 1817.21 731.801)" fill="#373333"/>
<circle r="17.5" transform="matrix(-0.171915 -0.985112 -0.985112 0.171915 1785.7 728.671)" fill="#FAEA3A"/>
<rect width="17" height="42" rx="8.5" transform="matrix(-0.98843 0.15168 0.15168 0.98843 1530.7 148.365)" fill="#373333"/>
<circle r="17.5" transform="matrix(-0.98843 0.15168 0.15168 0.98843 1526.93 179.802)" fill="#FAEA3A"/>
<rect x="546.941" y="159.946" width="17" height="42" rx="8.5" transform="rotate(-6.50687 546.941 159.946)" fill="#373333"/>
<circle cx="558.843" cy="189.287" r="17.5" transform="rotate(-6.50687 558.843 189.287)" fill="#FAEA3A"/>
<rect x="96.2891" y="514.889" width="17" height="42" rx="8.5" transform="rotate(-99.3877 96.2891 514.889)" fill="#373333"/>
<circle cx="124.995" cy="501.528" r="17.5" transform="rotate(-99.3877 124.995 501.528)" fill="#FAEA3A"/>
<rect width="17" height="42" rx="8.5" transform="matrix(0.0637895 -0.997963 -0.997963 -0.0637895 1802.48 513.144)" fill="#373333"/>
<circle r="17.5" transform="matrix(0.0637895 -0.997963 -0.997963 -0.0637895 1772.58 502.715)" fill="#FAEA3A"/>
<rect width="17" height="42" rx="8.5" transform="matrix(-0.996446 -0.0842386 -0.0842386 0.996446 1342.95 148.19)" fill="#373333"/>
<circle r="17.5" transform="matrix(-0.996446 -0.0842386 -0.0842386 0.996446 1331.91 177.866)" fill="#FAEA3A"/>
<rect x="728.484" y="108.682" width="17" height="42" rx="8.5" transform="rotate(-19.5068 728.484 108.682)" fill="#373333"/>
<circle cx="746.681" cy="134.593" r="17.5" transform="rotate(-19.5068 746.681 134.593)" fill="#FAEA3A"/>
<rect x="35.9668" y="336.153" width="17" height="42" rx="8.5" transform="rotate(-112.388 35.9668 336.153)" fill="#373333"/>
<circle cx="60.9299" cy="316.677" r="17.5" transform="rotate(-112.388 60.9299 316.677)" fill="#FAEA3A"/>
<rect width="17" height="42" rx="8.5" transform="matrix(0.286646 -0.958037 -0.958037 -0.286646 1844.65 329.278)" fill="#373333"/>
<circle r="17.5" transform="matrix(0.286646 -0.958037 -0.958037 -0.286646 1817.87 312.392)" fill="#FAEA3A"/>
<rect width="17" height="42" rx="8.5" transform="matrix(-0.951958 -0.306229 -0.306229 0.951958 1189.57 101.656)" fill="#373333"/>
<circle r="17.5" transform="matrix(-0.951958 -0.306229 -0.306229 0.951958 1172.14 128.088)" fill="#FAEA3A"/>
<g filter="url(#filter5_f_235_5294)">
<path d="M88.9706 924.535C98.7767 923.998 107.507 914.293 108.471 902.858C109.435 891.423 102.267 882.589 92.4605 883.125C82.6545 883.662 73.9238 893.367 72.9601 904.802C71.9964 916.237 79.1646 925.072 88.9706 924.535Z" fill="#EBE846"/>
</g>
<g filter="url(#filter6_f_235_5294)">
<path d="M131.971 748.535C141.777 747.998 150.507 738.293 151.471 726.858C152.435 715.423 145.267 706.589 135.461 707.125C125.654 707.662 116.924 717.367 115.96 728.802C114.996 740.237 122.165 749.072 131.971 748.535Z" fill="#EBE846"/>
</g>
<g filter="url(#filter7_f_235_5294)">
<path d="M58.9706 338.535C68.7767 337.998 77.5073 328.293 78.471 316.858C79.4347 305.423 72.2666 296.589 62.4605 297.125C52.6545 297.662 43.9238 307.367 42.9601 318.802C41.9964 330.237 49.1646 339.072 58.9706 338.535Z" fill="#EBE846"/>
</g>
<g filter="url(#filter8_f_235_5294)">
<path d="M122.971 522.535C132.777 521.998 141.507 512.293 142.471 500.858C143.435 489.423 136.267 480.589 126.461 481.125C116.654 481.662 107.924 491.367 106.96 502.802C105.996 514.237 113.165 523.072 122.971 522.535Z" fill="#EBE846"/>
</g>
<g filter="url(#filter9_f_235_5294)">
<path d="M330.582 207.852C340.378 207.15 348.944 197.3 349.716 185.851C350.488 174.402 343.173 165.688 333.377 166.389C323.582 167.091 315.015 176.941 314.243 188.39C313.471 199.839 320.786 208.553 330.582 207.852Z" fill="#EBE846"/>
</g>
<g filter="url(#filter10_f_235_5294)">
<path d="M557.582 209.852C567.378 209.15 575.944 199.3 576.716 187.851C577.488 176.402 570.173 167.688 560.377 168.389C550.582 169.091 542.015 178.941 541.243 190.39C540.471 201.839 547.786 210.553 557.582 209.852Z" fill="#EBE846"/>
</g>
<g filter="url(#filter11_f_235_5294)">
<path d="M746.63 155.895C756.378 154.701 764.436 144.431 764.629 132.957C764.821 121.483 757.075 113.15 747.328 114.345C737.58 115.54 729.522 125.81 729.329 137.284C729.136 148.758 736.882 157.09 746.63 155.895Z" fill="#EBE846"/>
</g>
<g filter="url(#filter12_f_235_5294)">
<path d="M1172.38 148.721C1182.12 147.526 1190.18 137.256 1190.37 125.782C1190.57 114.308 1182.82 105.976 1173.07 107.171C1163.33 108.366 1155.27 118.636 1155.07 130.109C1154.88 141.583 1162.63 149.916 1172.38 148.721Z" fill="#EBE846"/>
</g>
<g filter="url(#filter13_f_235_5294)">
<path d="M1331.38 199.721C1341.12 198.526 1349.18 188.256 1349.37 176.782C1349.57 165.308 1341.82 156.976 1332.07 158.171C1322.33 159.366 1314.27 169.636 1314.07 181.109C1313.88 192.583 1321.63 200.916 1331.38 199.721Z" fill="#EBE846"/>
</g>
<g filter="url(#filter14_f_235_5294)">
<path d="M1525.38 201.721C1535.12 200.526 1543.18 190.256 1543.37 178.782C1543.57 167.308 1535.82 158.976 1526.07 160.171C1516.33 161.366 1508.27 171.636 1508.07 183.109C1507.88 194.583 1515.63 202.916 1525.38 201.721Z" fill="#EBE846"/>
</g>
<g filter="url(#filter15_f_235_5294)">
<path d="M1695.38 156.721C1705.12 155.526 1713.18 145.256 1713.37 133.782C1713.57 122.308 1705.82 113.976 1696.07 115.171C1686.33 116.366 1678.27 126.636 1678.07 138.109C1677.88 149.583 1685.63 157.916 1695.38 156.721Z" fill="#EBE846"/>
</g>
<g filter="url(#filter16_f_235_5294)">
<path d="M1817.38 332.721C1827.12 331.526 1835.18 321.256 1835.37 309.782C1835.57 298.308 1827.82 289.976 1818.07 291.171C1808.33 292.366 1800.27 302.636 1800.07 314.109C1799.88 325.583 1807.63 333.916 1817.38 332.721Z" fill="#EBE846"/>
</g>
<g filter="url(#filter17_f_235_5294)">
<path d="M1769.38 523.721C1779.12 522.526 1787.18 512.256 1787.37 500.782C1787.57 489.308 1779.82 480.976 1770.07 482.171C1760.33 483.366 1752.27 493.636 1752.07 505.109C1751.88 516.583 1759.63 524.916 1769.38 523.721Z" fill="#EBE846"/>
</g>
<g filter="url(#filter18_f_235_5294)">
<path d="M1785.38 749.721C1795.12 748.526 1803.18 738.256 1803.37 726.782C1803.57 715.308 1795.82 706.976 1786.07 708.171C1776.33 709.366 1768.27 719.636 1768.07 731.109C1767.88 742.583 1775.63 750.916 1785.38 749.721Z" fill="#EBE846"/>
</g>
<g filter="url(#filter19_f_235_5294)">
<path d="M1844.38 919.721C1854.12 918.526 1862.18 908.256 1862.37 896.782C1862.57 885.308 1854.82 876.976 1845.07 878.171C1835.33 879.366 1827.27 889.636 1827.07 901.109C1826.88 912.583 1834.63 920.916 1844.38 919.721Z" fill="#EBE846"/>
</g>
<g filter="url(#filter20_f_235_5294)">
<path d="M145.515 150.983C153.885 156.119 166.586 153.102 173.883 144.245C181.179 135.388 180.308 124.045 171.938 118.909C163.567 113.773 150.866 116.789 143.57 125.646C136.273 134.503 137.144 145.847 145.515 150.983Z" fill="#EBE846"/>
</g>
</g>
<defs>
<filter id="filter0_d_235_5294" x="-110.293" y="-260.295" width="419.91" height="446.856" filterUnits="userSpaceOnUse" color-interpolation-filters="sRGB">
<feFlood flood-opacity="0" result="BackgroundImageFix"/>
<feColorMatrix in="SourceAlpha" type="matrix" values="0 0 0 0 0 0 0 0 0 0 0 0 0 0 0 0 0 0 127 0" result="hardAlpha"/>
<feOffset dy="4"/>
<feGaussianBlur stdDeviation="2"/>
<feComposite in2="hardAlpha" operator="out"/>
<feColorMatrix type="matrix" values="0 0 0 0 0 0 0 0 0 0 0 0 0 0 0 0 0 0 0.25 0"/>
<feBlend mode="normal" in2="BackgroundImageFix" result="effect1_dropShadow_235_5294"/>
<feBlend mode="normal" in="SourceGraphic" in2="effect1_dropShadow_235_5294" result="shape"/>
</filter>
<filter id="filter1_d_235_5294" x="797" y="-35" width="325" height="114" filterUnits="userSpaceOnUse" color-interpolation-filters="sRGB">
<feFlood flood-opacity="0" result="BackgroundImageFix"/>
<feColorMatrix in="SourceAlpha" type="matrix" values="0 0 0 0 0 0 0 0 0 0 0 0 0 0 0 0 0 0 127 0" result="hardAlpha"/>
<feOffset dy="4"/>
<feGaussianBlur stdDeviation="2"/>
<feComposite in2="hardAlpha" operator="out"/>
<feColorMatrix type="matrix" values="0 0 0 0 0 0 0 0 0 0 0 0 0 0 0 0 0 0 0.25 0"/>
<feBlend mode="normal" in2="BackgroundImageFix" result="effect1_dropShadow_235_5294"/>
<feBlend mode="normal" in="SourceGraphic" in2="effect1_dropShadow_235_5294" result="shape"/>
</filter>
<filter id="filter2_d_235_5294" x="1676" y="-2" width="248" height="292" filterUnits="userSpaceOnUse" color-interpolation-filters="sRGB">
<feFlood flood-opacity="0" result="BackgroundImageFix"/>
<feColorMatrix in="SourceAlpha" type="matrix" values="0 0 0 0 0 0 0 0 0 0 0 0 0 0 0 0 0 0 127 0" result="hardAlpha"/>
<feOffset dy="4"/>
<feGaussianBlur stdDeviation="2"/>
<feComposite in2="hardAlpha" operator="out"/>
<feColorMatrix type="matrix" values="0 0 0 0 0 0 0 0 0 0 0 0 0 0 0 0 0 0 0.25 0"/>
<feBlend mode="normal" in2="BackgroundImageFix" result="effect1_dropShadow_235_5294"/>
<feBlend mode="normal" in="SourceGraphic" in2="effect1_dropShadow_235_5294" result="shape"/>
</filter>
<filter id="filter3_d_235_5294" x="1878.13" y="533" width="130.086" height="130" filterUnits="userSpaceOnUse" color-interpolation-filters="sRGB">
<feFlood flood-opacity="0" result="BackgroundImageFix"/>
<feColorMatrix in="SourceAlpha" type="matrix" values="0 0 0 0 0 0 0 0 0 0 0 0 0 0 0 0 0 0 127 0" result="hardAlpha"/>
<feOffset dy="4"/>
<feGaussianBlur stdDeviation="2"/>
<feComposite in2="hardAlpha" operator="out"/>
<feColorMatrix type="matrix" values="0 0 0 0 0 0 0 0 0 0 0 0 0 0 0 0 0 0 0.25 0"/>
<feBlend mode="normal" in2="BackgroundImageFix" result="effect1_dropShadow_235_5294"/>
<feBlend mode="normal" in="SourceGraphic" in2="effect1_dropShadow_235_5294" result="shape"/>
</filter>
<filter id="filter4_d_235_5294" x="1567.33" y="803.376" width="146.037" height="180.493" filterUnits="userSpaceOnUse" color-interpolation-filters="sRGB">
<feFlood flood-opacity="0" result="BackgroundImageFix"/>
<feColorMatrix in="SourceAlpha" type="matrix" values="0 0 0 0 0 0 0 0 0 0 0 0 0 0 0 0 0 0 127 0" result="hardAlpha"/>
<feOffset dy="4"/>
<feGaussianBlur stdDeviation="2"/>
<feComposite in2="hardAlpha" operator="out"/>
<feColorMatrix type="matrix" values="0 0 0 0 0 0 0 0 0 0 0 0 0 0 0 0 0 0 0.25 0"/>
<feBlend mode="normal" in2="BackgroundImageFix" result="effect1_dropShadow_235_5294"/>
<feBlend mode="normal" in="SourceGraphic" in2="effect1_dropShadow_235_5294" result="shape"/>
</filter>
<filter id="filter5_f_235_5294" x="62.873" y="873.102" width="55.6855" height="61.4558" filterUnits="userSpaceOnUse" color-interpolation-filters="sRGB">
<feFlood flood-opacity="0" result="BackgroundImageFix"/>
<feBlend mode="normal" in="SourceGraphic" in2="BackgroundImageFix" result="shape"/>
<feGaussianBlur stdDeviation="5" result="effect1_foregroundBlur_235_5294"/>
</filter>
<filter id="filter6_f_235_5294" x="105.873" y="697.102" width="55.6855" height="61.4558" filterUnits="userSpaceOnUse" color-interpolation-filters="sRGB">
<feFlood flood-opacity="0" result="BackgroundImageFix"/>
<feBlend mode="normal" in="SourceGraphic" in2="BackgroundImageFix" result="shape"/>
<feGaussianBlur stdDeviation="5" result="effect1_foregroundBlur_235_5294"/>
</filter>
<filter id="filter7_f_235_5294" x="32.873" y="287.102" width="55.6855" height="61.4558" filterUnits="userSpaceOnUse" color-interpolation-filters="sRGB">
<feFlood flood-opacity="0" result="BackgroundImageFix"/>
<feBlend mode="normal" in="SourceGraphic" in2="BackgroundImageFix" result="shape"/>
<feGaussianBlur stdDeviation="5" result="effect1_foregroundBlur_235_5294"/>
</filter>
<filter id="filter8_f_235_5294" x="96.873" y="471.102" width="55.6855" height="61.4558" filterUnits="userSpaceOnUse" color-interpolation-filters="sRGB">
<feFlood flood-opacity="0" result="BackgroundImageFix"/>
<feBlend mode="normal" in="SourceGraphic" in2="BackgroundImageFix" result="shape"/>
<feGaussianBlur stdDeviation="5" result="effect1_foregroundBlur_235_5294"/>
</filter>
<filter id="filter9_f_235_5294" x="304.188" y="156.35" width="55.584" height="61.5413" filterUnits="userSpaceOnUse" color-interpolation-filters="sRGB">
<feFlood flood-opacity="0" result="BackgroundImageFix"/>
<feBlend mode="normal" in="SourceGraphic" in2="BackgroundImageFix" result="shape"/>
<feGaussianBlur stdDeviation="5" result="effect1_foregroundBlur_235_5294"/>
</filter>
<filter id="filter10_f_235_5294" x="531.188" y="158.35" width="55.584" height="61.5413" filterUnits="userSpaceOnUse" color-interpolation-filters="sRGB">
<feFlood flood-opacity="0" result="BackgroundImageFix"/>
<feBlend mode="normal" in="SourceGraphic" in2="BackgroundImageFix" result="shape"/>
<feGaussianBlur stdDeviation="5" result="effect1_foregroundBlur_235_5294"/>
</filter>
<filter id="filter11_f_235_5294" x="719.326" y="104.231" width="55.3066" height="61.7783" filterUnits="userSpaceOnUse" color-interpolation-filters="sRGB">
<feFlood flood-opacity="0" result="BackgroundImageFix"/>
<feBlend mode="normal" in="SourceGraphic" in2="BackgroundImageFix" result="shape"/>
<feGaussianBlur stdDeviation="5" result="effect1_foregroundBlur_235_5294"/>
</filter>
<filter id="filter12_f_235_5294" x="1145.07" y="97.0566" width="55.3066" height="61.7783" filterUnits="userSpaceOnUse" color-interpolation-filters="sRGB">
<feFlood flood-opacity="0" result="BackgroundImageFix"/>
<feBlend mode="normal" in="SourceGraphic" in2="BackgroundImageFix" result="shape"/>
<feGaussianBlur stdDeviation="5" result="effect1_foregroundBlur_235_5294"/>
</filter>
<filter id="filter13_f_235_5294" x="1304.07" y="148.057" width="55.3066" height="61.7783" filterUnits="userSpaceOnUse" color-interpolation-filters="sRGB">
<feFlood flood-opacity="0" result="BackgroundImageFix"/>
<feBlend mode="normal" in="SourceGraphic" in2="BackgroundImageFix" result="shape"/>
<feGaussianBlur stdDeviation="5" result="effect1_foregroundBlur_235_5294"/>
</filter>
<filter id="filter14_f_235_5294" x="1498.07" y="150.057" width="55.3066" height="61.7783" filterUnits="userSpaceOnUse" color-interpolation-filters="sRGB">
<feFlood flood-opacity="0" result="BackgroundImageFix"/>
<feBlend mode="normal" in="SourceGraphic" in2="BackgroundImageFix" result="shape"/>
<feGaussianBlur stdDeviation="5" result="effect1_foregroundBlur_235_5294"/>
</filter>
<filter id="filter15_f_235_5294" x="1668.07" y="105.057" width="55.3066" height="61.7783" filterUnits="userSpaceOnUse" color-interpolation-filters="sRGB">
<feFlood flood-opacity="0" result="BackgroundImageFix"/>
<feBlend mode="normal" in="SourceGraphic" in2="BackgroundImageFix" result="shape"/>
<feGaussianBlur stdDeviation="5" result="effect1_foregroundBlur_235_5294"/>
</filter>
<filter id="filter16_f_235_5294" x="1790.07" y="281.057" width="55.3066" height="61.7783" filterUnits="userSpaceOnUse" color-interpolation-filters="sRGB">
<feFlood flood-opacity="0" result="BackgroundImageFix"/>
<feBlend mode="normal" in="SourceGraphic" in2="BackgroundImageFix" result="shape"/>
<feGaussianBlur stdDeviation="5" result="effect1_foregroundBlur_235_5294"/>
</filter>
<filter id="filter17_f_235_5294" x="1742.07" y="472.057" width="55.3066" height="61.7783" filterUnits="userSpaceOnUse" color-interpolation-filters="sRGB">
<feFlood flood-opacity="0" result="BackgroundImageFix"/>
<feBlend mode="normal" in="SourceGraphic" in2="BackgroundImageFix" result="shape"/>
<feGaussianBlur stdDeviation="5" result="effect1_foregroundBlur_235_5294"/>
</filter>
<filter id="filter18_f_235_5294" x="1758.07" y="698.057" width="55.3066" height="61.7783" filterUnits="userSpaceOnUse" color-interpolation-filters="sRGB">
<feFlood flood-opacity="0" result="BackgroundImageFix"/>
<feBlend mode="normal" in="SourceGraphic" in2="BackgroundImageFix" result="shape"/>
<feGaussianBlur stdDeviation="5" result="effect1_foregroundBlur_235_5294"/>
</filter>
<filter id="filter19_f_235_5294" x="1817.07" y="868.057" width="55.3066" height="61.7783" filterUnits="userSpaceOnUse" color-interpolation-filters="sRGB">
<feFlood flood-opacity="0" result="BackgroundImageFix"/>
<feBlend mode="normal" in="SourceGraphic" in2="BackgroundImageFix" result="shape"/>
<feGaussianBlur stdDeviation="5" result="effect1_foregroundBlur_235_5294"/>
</filter>
<filter id="filter20_f_235_5294" x="128.619" y="106.405" width="60.2129" height="57.0825" filterUnits="userSpaceOnUse" color-interpolation-filters="sRGB">
<feFlood flood-opacity="0" result="BackgroundImageFix"/>
<feBlend mode="normal" in="SourceGraphic" in2="BackgroundImageFix" result="shape"/>
<feGaussianBlur stdDeviation="5" result="effect1_foregroundBlur_235_5294"/>
</filter>
<radialGradient id="paint0_radial_235_5294" cx="0" cy="0" r="1" gradientUnits="userSpaceOnUse" gradientTransform="translate(960 464.5) rotate(90) scale(593 1225.58)">
<stop offset="0.285572" stop-color="#761C0C"/>
<stop offset="1" stop-color="#331F1C"/>
</radialGradient>
<clipPath id="clip0_235_5294">
<rect width="1920" height="929" fill="white"/>
</clipPath>
</defs>
</svg>
