<svg width="501" height="114" viewBox="0 0 501 114" fill="none" xmlns="http://www.w3.org/2000/svg">
<path d="M330.619 89.7103L329.619 47.3763L321.631 44.6963L322.953 83.0423L330.619 89.7103L380.119 88.8763L381.121 46.7473L329.619 47.3763" fill="#D1292A"/>
<path d="M330.619 89.7103L329.619 47.3763L321.631 44.6963L322.953 83.0423L330.619 89.7103ZM330.619 89.7103L380.119 88.8763L381.121 46.7473L329.619 47.3763" stroke="#744D29" stroke-miterlimit="10"/>
<path d="M348.102 47.0635H355.27V89.4425H348.102V47.0635Z" fill="#F2E93B" stroke="#744D29" stroke-miterlimit="10"/>
<path d="M319 39.4805V49.5205L321.88 51.8305L324.17 53.6805L329.34 53.6205H329.77L331.85 53.5895H332.06L337.63 53.5305L348.1 53.4105H348.72L355.27 53.3395L355.8 53.3305L369.07 53.1805L377.18 53.0895L380.97 53.0495L383.75 53.0205V42.8505L377.19 39.5105L377.13 39.4805H319Z" fill="#D1292A" stroke="#744D29" stroke-miterlimit="10"/>
<path d="M324.166 53.6836V43.8506L319 39.4756L324.166 43.8506L383.75 42.8506" fill="#D1292A"/>
<path d="M324.166 53.6836V43.8506L319 39.4756L324.166 43.8506L383.75 42.8506" stroke="#744D29" stroke-miterlimit="10"/>
<path d="M355.801 53.4065H348.715V43.2705L345.049 39.6055H352.086L355.801 43.3195V53.4065Z" fill="#F2E93B" stroke="#744D29" stroke-miterlimit="10"/>
<path d="M375.02 27.6007C381 33.9507 380.64 37.5107 377.19 39.5107C374.49 41.0907 369.88 41.7007 364.94 41.9307C366.321 42.2207 367.56 42.6207 368.67 43.1007H368.71C369.939 43.6407 370.97 44.2807 371.9 45.0007C372.65 45.5707 373.31 46.1907 373.88 46.8407C375.61 48.7807 376.62 51.0007 377.18 53.0907C378.42 57.5697 377.65 61.4807 377.52 60.8517C377.27 59.6017 373.35 55.0207 373.35 55.0207C373.35 55.0207 372.27 56.9317 371.1 59.7707C371.1 59.7707 370.72 56.7497 369.071 53.1807C368.121 51.1207 366.751 48.8907 364.781 46.9507C364.6 46.7607 364.411 46.5807 364.211 46.4007C362.841 45.1607 361.211 44.0607 359.261 43.2607C357.951 42.7107 356.501 42.2907 354.891 42.0407H354.881L354.86 39.4807L354.85 37.3507C367.69 20.5207 375.02 27.6007 375.02 27.6007ZM374.85 32.7707C370.9 27.2407 359.77 36.7507 356.77 39.4807H361.53C367.74 38.5107 376.74 36.4407 374.85 32.7707Z" fill="#F2E93B" stroke="#744D29" stroke-miterlimit="10"/>
<path d="M331.44 25.1005C331.44 25.1005 338.02 23.0905 349.19 37.0505V37.0605L349.581 39.4805L349.601 39.6105L350.072 42.4905L350.101 42.6805C349.622 42.8905 349.162 43.1005 348.721 43.3205L348.481 43.4405C346.011 44.6605 344.051 45.9405 342.492 47.2205C340.962 48.4905 339.832 49.7605 339.002 50.9805C338.401 51.8605 337.962 52.7205 337.632 53.5305C336.152 57.2195 337.111 60.0595 337.182 60.2605L332.062 53.5895L331.942 53.4295C331.942 53.4295 331.942 53.4295 331.852 53.5895C331.703 53.8795 331.262 54.7195 330.022 57.1005C329.953 56.8095 329.892 56.5305 329.833 56.2495C329.623 55.2995 329.463 54.4295 329.343 53.6195C329.303 53.3195 329.273 53.0295 329.233 52.7595C328.994 50.4995 329.143 48.7695 329.624 47.4295C329.624 47.4095 329.634 47.3995 329.644 47.3795C330.325 45.5195 331.644 44.4195 333.455 43.6895H333.52C334.541 43.2895 335.71 43.0095 337.02 42.7695C332.9 42.2795 329.991 41.0595 328.05 39.4795C322.12 34.6295 325.41 26.3595 331.44 25.1005ZM345.15 39.4805C341.86 36.8705 328.281 28.1505 328.44 32.4305C328.52 34.8605 330.69 37.7605 334.06 39.4805H345.15Z" fill="#F2E93B" stroke="#744D29" stroke-miterlimit="10"/>
<path d="M334.06 39.4805C337.11 41.0405 341.14 41.6505 345.54 40.1005C345.62 40.0805 345.689 40.0505 345.769 40.0205C345.679 39.9205 345.519 39.7805 345.309 39.6105C345.259 39.5705 345.209 39.5305 345.149 39.4805H334.06Z" fill="#F2E93B" stroke="#744D29" stroke-miterlimit="10"/>
<path d="M356.02 40.1805C356.02 40.1805 358.43 39.9705 361.531 39.4805H356.77C356.29 39.9205 356.02 40.1805 356.02 40.1805Z" fill="#F2E93B" stroke="#744D29" stroke-miterlimit="10"/>
<path d="M354.853 37.3493C353.685 37.2743 353.267 37.1943 351.521 37.3493C349.775 37.5043 349.353 36.5993 348.687 37.3493C348.021 38.0993 347.281 42.7773 352.107 42.9413C356.935 43.1063 356.193 37.4353 354.853 37.3493Z" fill="#F2E93B" stroke="#744D29" stroke-miterlimit="10"/>
<path d="M66.1348 67.3802L67.1348 25.0482L75.1238 22.3682L73.8008 60.7142L66.1348 67.3802L16.6348 66.5482L15.6328 24.4192L67.1348 25.0482" fill="#35AE4A"/>
<path d="M66.1348 67.3802L67.1348 25.0482L75.1238 22.3682L73.8008 60.7142L66.1348 67.3802ZM66.1348 67.3802L16.6348 66.5482L15.6328 24.4192L67.1348 25.0482" stroke="#744D29" stroke-miterlimit="10"/>
<path d="M48.6529 24.7354H41.4849V67.1133H48.6529V24.7354Z" fill="#D1292A" stroke="#744D29" stroke-miterlimit="10"/>
<path d="M77.75 15.478V25.518L74.93 27.799L72.59 29.689L67.4 29.629H67.03L64.91 29.599H64.7L59.13 29.538L48.65 29.419L48.04 29.409H47.69L41.48 29.339L40.95 29.329L27.68 29.189L19.57 29.089L15.74 29.049L13 29.018V18.849L19.55 15.518L19.63 15.478H77.75Z" fill="#35AE4A" stroke="#744D29" stroke-miterlimit="10"/>
<path d="M72.5869 29.687V19.853L77.7529 15.478L72.5869 19.853L13.0029 18.853" fill="#35AE4A"/>
<path d="M72.5869 29.687V19.853L77.7529 15.478L72.5869 19.853L13.0029 18.853" stroke="#744D29" stroke-miterlimit="10"/>
<path d="M40.9531 29.4099H48.0391V19.2739L51.7051 15.6089H44.6681L40.9531 19.3229V29.4099Z" fill="#D1292A" stroke="#744D29" stroke-miterlimit="10"/>
<path d="M21.73 3.59918C15.77 9.93918 16.12 13.5092 19.55 15.5192C22.249 17.0992 26.869 17.6992 31.82 17.9392C30.45 18.2292 29.22 18.6292 28.12 19.0992H28.11C26.86 19.6392 25.79 20.2892 24.85 21.0092C23.49 22.0492 22.43 23.2392 21.61 24.4892C20.631 25.9892 19.98 27.5692 19.57 29.0892C18.33 33.5692 19.1 37.4782 19.23 36.8492C19.48 35.5992 23.4 31.0182 23.4 31.0182C23.4 31.0182 24.48 32.9382 25.65 35.7682C25.65 35.7682 26.03 32.7472 27.68 29.1882C28.369 27.6882 29.289 26.0982 30.49 24.5982C31.1 23.8382 31.78 23.0982 32.551 22.4082C33.931 21.1582 35.571 20.0582 37.53 19.2582C38.841 18.7082 40.28 18.2982 41.881 18.0482L41.891 15.4782L41.901 13.3482C29.07 -3.48182 21.73 3.59918 21.73 3.59918ZM21.9 8.76818C25.84 3.23818 36.96 12.7382 39.97 15.4782H35.18C28.97 14.4982 20.02 12.4292 21.9 8.76818Z" fill="#D1292A" stroke="#744D29" stroke-miterlimit="10"/>
<path d="M65.3199 1.09921C65.3199 1.09921 58.7399 -0.900795 47.5699 13.0592L47.1709 15.4792L47.1499 15.6092L46.6799 18.4892L46.6499 18.6892C47.1299 18.8992 47.5899 19.1192 48.0399 19.3392C48.1099 19.3692 48.1809 19.3992 48.2499 19.4392C51.8109 21.1892 54.3199 23.0592 56.0699 24.9092C56.7399 25.6092 57.2999 26.3092 57.7599 26.9892C58.3599 27.8692 58.8099 28.7292 59.1299 29.5392C60.6089 33.2282 59.6499 36.0592 59.5789 36.2602L64.6989 29.5992L64.8189 29.4392C64.8189 29.4392 64.8189 29.4392 64.9089 29.5992C65.0589 29.8892 65.4889 30.7292 66.7289 33.0992C66.8189 32.7182 66.8989 32.3492 66.9789 31.9892C67.1589 31.1492 67.2989 30.3592 67.3989 29.6292C67.4489 29.3392 67.4789 29.0492 67.5189 28.7692C67.6789 27.2692 67.6689 25.9992 67.4979 24.9292C67.0679 22.0992 65.5679 20.5992 63.2279 19.6892C62.2069 19.2892 61.0379 19.0092 59.7279 18.7692C63.8479 18.2792 66.7679 17.0592 68.6979 15.4792C74.6299 10.6292 71.3499 2.35921 65.3199 1.09921ZM51.5999 15.4782C54.8899 12.8882 68.4699 4.14821 68.3199 8.43821C68.2299 10.8582 66.0699 13.7482 62.6999 15.4782H51.5999Z" fill="#D1292A" stroke="#744D29" stroke-miterlimit="10"/>
<path d="M62.7 15.478C59.65 17.038 55.61 17.648 51.21 16.098C51.131 16.078 51.061 16.048 50.981 16.018C51.071 15.918 51.231 15.778 51.441 15.608C51.491 15.568 51.541 15.528 51.601 15.478H62.7Z" fill="#D1292A" stroke="#744D29" stroke-miterlimit="10"/>
<path d="M40.7302 16.189C40.7302 16.189 38.3002 15.969 35.1802 15.479H39.9702C40.4602 15.919 40.7302 16.189 40.7302 16.189Z" fill="#D1292A" stroke="#744D29" stroke-miterlimit="10"/>
<path d="M41.9 13.3532C43.068 13.2782 43.486 13.1982 45.232 13.3532C46.978 13.5082 47.4 12.6032 48.066 13.3532C48.732 14.1032 49.472 18.7812 44.646 18.9452C39.818 19.1092 40.56 13.4382 41.9 13.3532Z" fill="#D1292A" stroke="#744D29" stroke-miterlimit="10"/>
<path d="M134.137 88.3753L135.137 46.0423L143.125 43.3623L141.803 81.7073L134.137 88.3753L84.6368 87.5413L83.6348 45.4133L135.137 46.0423" fill="#35AE4A"/>
<path d="M134.137 88.3753L135.137 46.0423L143.125 43.3623L141.803 81.7073L134.137 88.3753ZM134.137 88.3753L84.6368 87.5413L83.6348 45.4133L135.137 46.0423" stroke="#744D29" stroke-miterlimit="10"/>
<path d="M116.654 45.7295H109.486V88.1075H116.654V45.7295Z" fill="#414BA0" stroke="#744D29" stroke-miterlimit="10"/>
<path d="M145.75 36.4692V46.5102L142.94 48.7802L140.59 50.6792L135.4 50.6192H135.03L132.91 50.5902H132.7L127.13 50.5302L116.65 50.4092L116.04 50.4002H115.69L109.49 50.3302L108.95 50.3202L95.68 50.1792L87.57 50.0802L83.74 50.0402L81 50.0102V39.8502L87.55 36.5102L87.63 36.4692H145.75Z" fill="#35AE4A" stroke="#744D29" stroke-miterlimit="10"/>
<path d="M140.589 50.6811V40.8481L145.755 36.4731L140.589 40.8481L81.0049 39.8481" fill="#35AE4A"/>
<path d="M140.589 50.6811V40.8481L145.755 36.4731L140.589 40.8481L81.0049 39.8481" stroke="#744D29" stroke-miterlimit="10"/>
<path d="M108.954 50.405H116.04V40.268L119.706 36.603H112.669L108.954 40.317V50.405Z" fill="#414BA0" stroke="#744D29" stroke-miterlimit="10"/>
<path d="M89.7301 24.6003C83.7701 30.9403 84.1211 34.5003 87.5501 36.5103C90.2501 38.0903 94.8701 38.6903 99.8211 38.9303C98.4401 39.2203 97.2011 39.6203 96.0911 40.1003H96.0411C94.8111 40.6403 93.7911 41.2803 92.8611 42.0003H92.8501C91.4911 43.0403 90.4401 44.2203 89.6211 45.4803C88.6311 46.9703 87.9911 48.5603 87.5711 50.0803C86.3311 54.5603 87.1001 58.4803 87.2301 57.8503C87.4801 56.6003 91.4011 52.0103 91.4011 52.0103C91.4011 52.0103 92.4801 53.9303 93.6511 56.7603C93.6511 56.7603 94.0311 53.7393 95.6801 50.1793C96.3701 48.6793 97.2901 47.0893 98.4911 45.5893C99.1001 44.8293 99.7811 44.0893 100.541 43.3993C101.911 42.1593 103.551 41.0593 105.501 40.2593C106.811 39.6993 108.271 39.2893 109.881 39.0393L109.891 36.4693L109.902 34.3493C97.0701 17.5103 89.7301 24.6003 89.7301 24.6003ZM89.9001 29.7603C93.8391 24.2403 104.96 33.7303 107.969 36.4703H103.179C96.9701 35.4903 88.0201 33.4203 89.9001 29.7603Z" fill="#414BA0" stroke="#744D29" stroke-miterlimit="10"/>
<path d="M133.32 22.1005C133.32 22.1005 126.74 20.0905 115.57 34.0505V34.0605L115.17 36.4705L115.15 36.6005L114.679 39.4905L114.65 39.6805C115.129 39.8905 115.589 40.1105 116.04 40.3305C116.12 40.3605 116.189 40.4005 116.269 40.4405C119.82 42.1905 122.32 44.0605 124.07 45.9005C124.74 46.6105 125.29 47.3005 125.759 47.9805V47.9905C126.36 48.8705 126.799 49.7205 127.129 50.5305C128.609 54.2195 127.65 57.0505 127.579 57.2515L132.699 50.5905L132.819 50.4305C132.819 50.4305 132.819 50.4305 132.909 50.5905C133.058 50.8805 133.489 51.7205 134.728 54.1005C134.819 53.7405 134.899 53.3705 134.968 53.0305C134.978 53.0205 134.978 53.0205 134.978 53.0105C134.978 53.0005 134.978 53.0005 134.978 52.9905C135.159 52.1405 135.298 51.3605 135.399 50.6205C135.449 50.3305 135.478 50.0405 135.518 49.7605C135.678 48.2605 135.668 46.9905 135.498 45.9205C135.078 43.1005 133.578 41.6105 131.358 40.7005L131.347 40.6905H131.257C130.237 40.2905 129.047 40.0005 127.727 39.7605C131.847 39.2705 134.767 38.0505 136.698 36.4705C142.63 31.6195 139.35 23.3505 133.32 22.1005ZM119.6 36.4695C122.89 33.8795 136.48 25.1395 136.321 29.4295C136.23 31.8595 134.081 34.7395 130.72 36.4695H119.6Z" fill="#414BA0" stroke="#744D29" stroke-miterlimit="10"/>
<path d="M130.72 36.4692C127.67 38.0392 123.62 38.6492 119.22 37.0892C119.14 37.0692 119.06 37.0392 118.98 37.0092C119.071 36.9092 119.23 36.7692 119.44 36.5992C119.491 36.5592 119.541 36.5192 119.6 36.4692H130.72Z" fill="#414BA0" stroke="#744D29" stroke-miterlimit="10"/>
<path d="M108.73 37.1792C108.73 37.1792 106.3 36.9592 103.18 36.4692H107.97C108.46 36.9092 108.73 37.1792 108.73 37.1792Z" fill="#414BA0" stroke="#744D29" stroke-miterlimit="10"/>
<path d="M109.901 34.3474C111.069 34.2724 111.487 34.1924 113.233 34.3474C114.979 34.5024 115.401 33.5974 116.067 34.3474C116.733 35.0974 117.473 39.7754 112.647 39.9394C107.819 40.1044 108.562 34.4334 109.901 34.3474Z" fill="#414BA0" stroke="#744D29" stroke-miterlimit="10"/>
<path d="M183.621 30.7378L184.038 64.4048H261.871L269.538 57.9878L270.871 28.4048L183.621 30.7378Z" fill="#D1292A" stroke="#744D29" stroke-miterlimit="10"/>
<path d="M261.871 64.4047L262.954 28.6167" stroke="#744D29" stroke-miterlimit="10"/>
<path d="M229.242 29.7158H221.828V64.4038H229.242V29.7158Z" fill="#F2E93B" stroke="#744D29" stroke-miterlimit="10"/>
<path d="M271.504 21.5708V32.9108L270.644 33.4998L266.414 36.4108H179.004V25.4108L186.164 21.9908L202.694 21.9108L219.954 21.8208H219.984L222.704 21.8098H223.284L224.264 21.7998H225.024L229.494 21.7808L230.894 21.7708L232.794 21.7608H233.634L244.624 21.7008L250.814 21.6708L271.504 21.5708Z" fill="#D1292A" stroke="#744D29" stroke-miterlimit="10"/>
<path d="M179 25.4087L265.438 25.4907L266 36.4077L265.438 25.4907L271.5 21.5747" fill="#D1292A"/>
<path d="M179 25.4087L265.438 25.4907L266 36.4077L265.438 25.4907L271.5 21.5747" stroke="#744D29" stroke-miterlimit="10"/>
<path d="M225.022 21.8027L221.701 25.1227V36.4077H229.666V24.8657L232.791 21.7637L225.022 21.8027Z" fill="#F2E93B" stroke="#744D29" stroke-miterlimit="10"/>
<path d="M204.104 9.60069C197.714 16.3897 198.564 19.9907 202.694 21.9107C205.454 23.1907 209.674 23.7207 214.184 23.9317C214.155 23.9417 214.115 23.9417 214.084 23.9517C214.074 23.9517 214.074 23.9517 214.064 23.9517C214.053 23.9517 214.053 23.9517 214.043 23.9617C212.423 24.3117 210.983 24.8117 209.753 25.4417C207.243 26.6717 205.443 28.3517 204.183 30.1917C202.783 32.2117 202.013 34.4117 201.623 36.4117C200.853 40.3017 201.493 43.4117 201.603 42.8517C201.853 41.6017 205.773 37.0117 205.773 37.0117C205.773 37.0117 206.853 38.9317 208.023 41.7617C208.023 41.7617 208.323 39.4107 209.513 36.4107C210.333 34.3807 211.573 32.0407 213.413 29.9407C214.953 28.1707 216.913 26.5707 219.413 25.4507H219.593C220.513 25.0307 221.333 24.6807 222.404 24.4217C222.994 24.2617 223.614 24.1407 224.254 24.0407V23.5307L224.264 22.5597V21.7997L224.275 19.3507C211.434 2.51069 204.104 9.60069 204.104 9.60069ZM204.274 14.7607C208.394 8.98969 220.364 19.6297 222.704 21.8097L219.984 21.8207H219.954C214.064 21.0397 202.124 18.9307 204.274 14.7607Z" fill="#F2E93B" stroke="#744D29" stroke-miterlimit="10"/>
<path d="M247.684 7.10049C247.684 7.10049 241.115 5.09049 229.945 19.0495V19.0595L229.495 21.7805L229.245 23.3205L229.055 24.4905L229.026 24.6805C229.246 24.7805 229.456 24.8695 229.666 24.9695C230.016 25.1295 230.346 25.2895 230.676 25.4595C233.176 26.6995 235.166 27.9795 236.726 29.3195H236.747C239.697 31.7895 241.146 34.2795 241.817 36.4095C242.827 39.6595 242.006 42.0585 241.947 42.2495L246.436 36.4095L247.186 35.4305C247.186 35.4305 247.186 35.4305 247.697 36.4095C247.976 36.9495 248.417 37.7895 249.107 39.0995C249.336 38.1385 249.516 37.2395 249.657 36.4095C250.226 33.0295 250.087 30.6705 249.337 28.9785C248.537 27.1695 247.047 26.1385 245.007 25.4685C244.137 25.1795 243.167 24.9485 242.108 24.7595C245.294 24.3795 247.754 23.5595 249.604 22.4795C250.043 22.2295 250.444 21.9595 250.814 21.6705C257.094 16.8505 253.804 8.37049 247.684 7.10049ZM233.634 21.7605C236.184 19.5795 250.844 9.96949 250.684 14.4305C250.594 16.9695 248.254 20.0105 244.624 21.7005L233.634 21.7605Z" fill="#F2E93B" stroke="#744D29" stroke-miterlimit="10"/>
<path d="M244.624 21.7007C243.474 22.2407 242.194 22.6397 240.824 22.8417C239.864 22.9907 238.854 23.0407 237.803 22.9707C236.383 22.8807 234.893 22.5807 233.354 22.0117C233.414 21.9417 233.513 21.8617 233.633 21.7617L244.624 21.7007Z" fill="#F2E93B" stroke="#744D29" stroke-miterlimit="10"/>
<path d="M223.104 22.1806C223.104 22.1806 221.854 22.0706 219.984 21.8206L222.704 21.8096C222.964 22.0396 223.104 22.1806 223.104 22.1806Z" fill="#F2E93B" stroke="#744D29" stroke-miterlimit="10"/>
<path d="M224.272 19.3474C225.44 19.2724 225.858 19.1924 227.604 19.3474C229.35 19.5024 229.772 18.5974 230.438 19.3474C231.104 20.0974 231.844 24.7754 227.018 24.9394C222.19 25.1034 222.933 19.4324 224.272 19.3474Z" fill="#F2E93B" stroke="#744D29" stroke-miterlimit="10"/>
<path d="M304.132 103.759L305.132 61.4266L313.12 58.7466L311.798 97.0926L304.132 103.759L254.632 102.927L253.63 60.7976L305.132 61.4266" fill="#414BA0"/>
<path d="M304.132 103.759L305.132 61.4266L313.12 58.7466L311.798 97.0926L304.132 103.759ZM304.132 103.759L254.632 102.927L253.63 60.7976L305.132 61.4266" stroke="#744D29" stroke-miterlimit="10"/>
<path d="M286.649 61.1138H279.481V103.492H286.649V61.1138Z" fill="#F2E93B" stroke="#744D29" stroke-miterlimit="10"/>
<path d="M315.75 52.4805V62.5205L312.91 64.7995L310.58 66.6805L305.41 66.6205H305.01L302.9 66.5895H302.69L297.12 66.5305L286.65 66.4105H286.03L279.48 66.3395L278.95 66.3305L265.68 66.1805L257.57 66.0895L253.75 66.0495L251 66.0205V55.8505L257.56 52.5105L257.62 52.4805H315.75Z" fill="#414BA0" stroke="#744D29" stroke-miterlimit="10"/>
<path d="M310.584 66.6836V56.8506L315.75 52.4756L310.584 56.8506L251 55.8506" fill="#414BA0"/>
<path d="M310.584 66.6836V56.8506L315.75 52.4756L310.584 56.8506L251 55.8506" stroke="#744D29" stroke-miterlimit="10"/>
<path d="M278.949 66.4065H286.035V56.2705L289.701 52.6055H282.664L278.949 56.3195V66.4065Z" fill="#F2E93B" stroke="#744D29" stroke-miterlimit="10"/>
<path d="M259.73 40.6007C253.75 46.9507 254.11 50.5107 257.56 52.5107C260.259 54.0907 264.87 54.7007 269.81 54.9307C268.429 55.2207 267.19 55.6207 266.08 56.1007H266.04C264.811 56.6407 263.78 57.2807 262.851 58.0007C261.71 58.8607 260.781 59.8407 260.031 60.8807C258.811 62.5507 258.041 64.3607 257.571 66.0907C256.331 70.5697 257.101 74.4807 257.231 73.8517C257.481 72.6017 261.401 68.0207 261.401 68.0207C261.401 68.0207 262.481 69.9317 263.651 72.7707C263.651 72.7707 264.031 69.7497 265.68 66.1807C266.47 64.4807 267.54 62.6607 269 60.9907C269.47 60.4407 269.98 59.9107 270.54 59.4007C271.91 58.1607 273.54 57.0607 275.49 56.2607C276.8 55.7107 278.25 55.2907 279.86 55.0407H279.87L279.891 52.4807L279.901 50.3507C267.06 33.5207 259.73 40.6007 259.73 40.6007ZM259.9 45.7707C263.85 40.2407 274.98 49.7507 277.98 52.4807H273.22C267.01 51.5107 258.01 49.4407 259.9 45.7707Z" fill="#F2E93B" stroke="#744D29" stroke-miterlimit="10"/>
<path d="M303.31 38.1005C303.31 38.1005 296.73 36.0905 285.56 50.0505V50.0605L285.169 52.4805L285.149 52.6105L284.678 55.4905L284.649 55.6805C285.128 55.8905 285.588 56.1005 286.029 56.3205L286.269 56.4405C289.418 57.9905 291.748 59.6505 293.449 61.2905C294.399 62.2005 295.149 63.1005 295.749 63.9805C296.35 64.8605 296.789 65.7205 297.119 66.5305C298.599 70.2195 297.64 73.0595 297.569 73.2605L302.689 66.5895L302.809 66.4295C302.809 66.4295 302.809 66.4295 302.899 66.5895C303.048 66.8795 303.489 67.7195 304.729 70.1005C304.809 69.7895 304.878 69.5305 304.949 69.2405C304.949 69.2305 304.949 69.2305 304.949 69.2205C304.949 69.2105 304.949 69.2105 304.949 69.2005C304.949 69.1905 304.949 69.1905 304.949 69.1805V69.1205C305.149 68.2205 305.299 67.3905 305.409 66.6205C305.449 66.3205 305.479 66.0305 305.519 65.7605C305.699 63.9805 305.659 62.5305 305.389 61.3405C304.849 58.8905 303.399 57.5405 301.319 56.6905H301.229C300.208 56.2905 299.039 56.0105 297.729 55.7705C301.849 55.2805 304.758 54.0605 306.699 52.4805C312.63 47.6295 309.34 39.3595 303.31 38.1005ZM289.6 52.4805C292.89 49.8705 306.469 41.1505 306.31 45.4305C306.23 47.8605 304.06 50.7605 300.69 52.4805H289.6Z" fill="#F2E93B" stroke="#744D29" stroke-miterlimit="10"/>
<path d="M300.69 52.4805C297.64 54.0405 293.61 54.6505 289.21 53.1005C289.13 53.0805 289.061 53.0505 288.981 53.0205C289.071 52.9205 289.231 52.7805 289.441 52.6105C289.491 52.5705 289.541 52.5305 289.601 52.4805H300.69Z" fill="#F2E93B" stroke="#744D29" stroke-miterlimit="10"/>
<path d="M278.73 53.1805C278.73 53.1805 276.32 52.9705 273.219 52.4805H277.98C278.46 52.9205 278.73 53.1805 278.73 53.1805Z" fill="#F2E93B" stroke="#744D29" stroke-miterlimit="10"/>
<path d="M279.897 50.3493C281.065 50.2743 281.483 50.1943 283.229 50.3493C284.975 50.5043 285.397 49.5993 286.063 50.3493C286.729 51.0993 287.469 55.7773 282.643 55.9413C277.815 56.1063 278.557 50.4353 279.897 50.3493Z" fill="#F2E93B" stroke="#744D29" stroke-miterlimit="10"/>
<path d="M488.132 73.7586L489.132 31.4266L497.12 28.7466L495.798 67.0926L488.132 73.7586L438.632 72.9266L437.63 30.7976L489.132 31.4266" fill="#414BA0"/>
<path d="M488.132 73.7586L489.132 31.4266L497.12 28.7466L495.798 67.0926L488.132 73.7586ZM488.132 73.7586L438.632 72.9266L437.63 30.7976L489.132 31.4266" stroke="#744D29" stroke-miterlimit="10"/>
<path d="M470.649 31.1138H463.481V73.4918H470.649V31.1138Z" fill="#F2E93B" stroke="#744D29" stroke-miterlimit="10"/>
<path d="M499.75 22.4805V32.5205L496.91 34.7995L494.58 36.6805L489.41 36.6205H489.01L486.9 36.5895H486.69L481.12 36.5305L470.65 36.4105H470.03L463.48 36.3395L462.95 36.3305L449.68 36.1805L441.57 36.0895L437.75 36.0495L435 36.0205V25.8505L441.56 22.5105L441.62 22.4805H499.75Z" fill="#414BA0" stroke="#744D29" stroke-miterlimit="10"/>
<path d="M494.584 36.6836V26.8506L499.75 22.4756L494.584 26.8506L435 25.8506" fill="#414BA0"/>
<path d="M494.584 36.6836V26.8506L499.75 22.4756L494.584 26.8506L435 25.8506" stroke="#744D29" stroke-miterlimit="10"/>
<path d="M462.949 36.4065H470.035V26.2705L473.701 22.6055H466.664L462.949 26.3195V36.4065Z" fill="#F2E93B" stroke="#744D29" stroke-miterlimit="10"/>
<path d="M443.73 10.6007C437.75 16.9507 438.11 20.5107 441.56 22.5107C444.259 24.0907 448.87 24.7007 453.81 24.9307C452.429 25.2207 451.19 25.6207 450.08 26.1007H450.04C448.811 26.6407 447.78 27.2807 446.851 28.0007C445.71 28.8607 444.781 29.8407 444.031 30.8807C442.811 32.5507 442.041 34.3607 441.571 36.0907C440.331 40.5697 441.101 44.4807 441.231 43.8517C441.481 42.6017 445.401 38.0207 445.401 38.0207C445.401 38.0207 446.481 39.9317 447.651 42.7707C447.651 42.7707 448.031 39.7497 449.68 36.1807C450.47 34.4807 451.54 32.6607 453 30.9907C453.47 30.4407 453.98 29.9107 454.54 29.4007C455.91 28.1607 457.54 27.0607 459.49 26.2607C460.8 25.7107 462.25 25.2907 463.86 25.0407H463.87L463.891 22.4807L463.901 20.3507C451.06 3.5207 443.73 10.6007 443.73 10.6007ZM443.9 15.7707C447.85 10.2407 458.98 19.7507 461.98 22.4807H457.22C451.01 21.5107 442.01 19.4407 443.9 15.7707Z" fill="#F2E93B" stroke="#744D29" stroke-miterlimit="10"/>
<path d="M487.31 8.10048C487.31 8.10048 480.73 6.09048 469.56 20.0505V20.0605L469.169 22.4805L469.149 22.6105L468.678 25.4905L468.649 25.6805C469.128 25.8905 469.588 26.1005 470.029 26.3205L470.269 26.4405C473.418 27.9905 475.748 29.6505 477.449 31.2905C478.399 32.2005 479.149 33.1005 479.749 33.9805C480.35 34.8605 480.789 35.7205 481.119 36.5305C482.599 40.2195 481.64 43.0595 481.569 43.2605L486.689 36.5895L486.809 36.4295C486.809 36.4295 486.809 36.4295 486.899 36.5895C487.048 36.8795 487.489 37.7195 488.729 40.1005C488.809 39.7895 488.878 39.5305 488.949 39.2405C488.949 39.2305 488.949 39.2305 488.949 39.2205C488.949 39.2105 488.949 39.2105 488.949 39.2005C488.949 39.1905 488.949 39.1905 488.949 39.1805V39.1205C489.149 38.2205 489.299 37.3905 489.409 36.6205C489.449 36.3205 489.479 36.0305 489.519 35.7605C489.699 33.9805 489.659 32.5305 489.389 31.3405C488.849 28.8905 487.399 27.5405 485.319 26.6905H485.229C484.208 26.2905 483.039 26.0105 481.729 25.7705C485.849 25.2805 488.758 24.0605 490.699 22.4805C496.63 17.6295 493.34 9.35948 487.31 8.10048ZM473.6 22.4805C476.89 19.8705 490.469 11.1505 490.31 15.4305C490.23 17.8605 488.06 20.7605 484.69 22.4805H473.6Z" fill="#F2E93B" stroke="#744D29" stroke-miterlimit="10"/>
<path d="M484.69 22.4805C481.64 24.0405 477.61 24.6505 473.21 23.1005C473.13 23.0805 473.061 23.0505 472.981 23.0205C473.071 22.9205 473.231 22.7805 473.441 22.6105C473.491 22.5705 473.541 22.5305 473.601 22.4805H484.69Z" fill="#F2E93B" stroke="#744D29" stroke-miterlimit="10"/>
<path d="M462.73 23.1805C462.73 23.1805 460.32 22.9705 457.219 22.4805H461.98C462.46 22.9205 462.73 23.1805 462.73 23.1805Z" fill="#F2E93B" stroke="#744D29" stroke-miterlimit="10"/>
<path d="M463.897 20.3493C465.065 20.2743 465.483 20.1943 467.229 20.3493C468.975 20.5043 469.397 19.5993 470.063 20.3493C470.729 21.0993 471.469 25.7773 466.643 25.9413C461.815 26.1063 462.557 20.4353 463.897 20.3493Z" fill="#F2E93B" stroke="#744D29" stroke-miterlimit="10"/>
<path d="M12.6186 112.71L11.6186 70.3763L3.63061 67.6963L4.95261 106.042L12.6186 112.71L62.1186 111.876L63.1206 69.7473L11.6186 70.3763" fill="#D1292A"/>
<path d="M12.6186 112.71L11.6186 70.3763L3.63061 67.6963L4.95261 106.042L12.6186 112.71ZM12.6186 112.71L62.1186 111.876L63.1206 69.7473L11.6186 70.3763" stroke="#744D29" stroke-miterlimit="10"/>
<path d="M30.1015 70.0635H37.2695V112.442H30.1015V70.0635Z" fill="#F2E93B" stroke="#744D29" stroke-miterlimit="10"/>
<path d="M1 62.4805V72.5205L3.88 74.8305L6.17 76.6805L11.34 76.6205H11.77L13.85 76.5895H14.06L19.63 76.5305L30.1 76.4105H30.72L37.27 76.3395L37.8 76.3305L51.07 76.1805L59.18 76.0895L62.97 76.0495L65.75 76.0205V65.8505L59.19 62.5105L59.13 62.4805H1Z" fill="#D1292A" stroke="#744D29" stroke-miterlimit="10"/>
<path d="M6.166 76.6836V66.8506L1 62.4756L6.166 66.8506L65.75 65.8506" fill="#D1292A"/>
<path d="M6.166 76.6836V66.8506L1 62.4756L6.166 66.8506L65.75 65.8506" stroke="#744D29" stroke-miterlimit="10"/>
<path d="M37.8008 76.4065H30.7148V66.2705L27.0488 62.6055H34.0858L37.8008 66.3195V76.4065Z" fill="#F2E93B" stroke="#744D29" stroke-miterlimit="10"/>
<path d="M57.0196 50.6007C62.9996 56.9507 62.6396 60.5107 59.1896 62.5107C56.4896 64.0907 51.8796 64.7007 46.9396 64.9307C48.3206 65.2207 49.5596 65.6207 50.6696 66.1007H50.7096C51.9386 66.6407 52.9696 67.2807 53.8996 68.0007C54.6496 68.5707 55.3096 69.1907 55.8796 69.8407C57.6096 71.7807 58.6196 74.0007 59.1796 76.0907C60.4196 80.5697 59.6496 84.4807 59.5196 83.8517C59.2696 82.6017 55.3496 78.0207 55.3496 78.0207C55.3496 78.0207 54.2696 79.9317 53.0996 82.7707C53.0996 82.7707 52.7196 79.7497 51.0706 76.1807C50.1206 74.1207 48.7506 71.8907 46.7806 69.9507C46.5996 69.7607 46.4106 69.5807 46.2106 69.4007C44.8406 68.1607 43.2106 67.0607 41.2606 66.2607C39.9506 65.7107 38.5006 65.2907 36.8906 65.0407H36.8806L36.8596 62.4807L36.8496 60.3507C49.6896 43.5207 57.0196 50.6007 57.0196 50.6007ZM56.8496 55.7707C52.8996 50.2407 41.7696 59.7507 38.7696 62.4807H43.5296C49.7396 61.5107 58.7396 59.4407 56.8496 55.7707Z" fill="#F2E93B" stroke="#744D29" stroke-miterlimit="10"/>
<path d="M13.4396 48.1005C13.4396 48.1005 20.0196 46.0905 31.1896 60.0505V60.0605L31.5806 62.4805L31.6006 62.6105L32.0716 65.4905L32.1006 65.6805C31.6216 65.8905 31.1616 66.1005 30.7206 66.3205L30.4806 66.4405C28.0106 67.6605 26.0506 68.9405 24.4916 70.2205C22.9616 71.4905 21.8316 72.7605 21.0016 73.9805C20.4006 74.8605 19.9616 75.7205 19.6316 76.5305C18.1516 80.2195 19.1106 83.0595 19.1816 83.2605L14.0616 76.5895L13.9416 76.4295C13.9416 76.4295 13.9416 76.4295 13.8516 76.5895C13.7026 76.8795 13.2616 77.7195 12.0216 80.1005C11.9526 79.8095 11.8916 79.5305 11.8326 79.2495C11.6226 78.2995 11.4626 77.4295 11.3426 76.6195C11.3026 76.3195 11.2726 76.0295 11.2326 75.7595C10.9936 73.4995 11.1426 71.7695 11.6236 70.4295C11.6236 70.4095 11.6336 70.3995 11.6436 70.3795C12.3246 68.5195 13.6436 67.4195 15.4546 66.6895H15.5196C16.5406 66.2895 17.7096 66.0095 19.0196 65.7695C14.8996 65.2795 11.9906 64.0595 10.0496 62.4795C4.11958 57.6295 7.40958 49.3595 13.4396 48.1005ZM27.1496 62.4805C23.8596 59.8705 10.2806 51.1505 10.4396 55.4305C10.5196 57.8605 12.6896 60.7605 16.0596 62.4805H27.1496Z" fill="#F2E93B" stroke="#744D29" stroke-miterlimit="10"/>
<path d="M16.0596 62.4805C19.1096 64.0405 23.1396 64.6505 27.5396 63.1005C27.6196 63.0805 27.6886 63.0505 27.7686 63.0205C27.6786 62.9205 27.5186 62.7805 27.3086 62.6105C27.2586 62.5705 27.2086 62.5305 27.1486 62.4805H16.0596Z" fill="#F2E93B" stroke="#744D29" stroke-miterlimit="10"/>
<path d="M38.0198 63.1805C38.0198 63.1805 40.4298 62.9705 43.5308 62.4805H38.7698C38.2898 62.9205 38.0198 63.1805 38.0198 63.1805Z" fill="#F2E93B" stroke="#744D29" stroke-miterlimit="10"/>
<path d="M36.8534 60.3493C35.6854 60.2743 35.2674 60.1943 33.5214 60.3493C31.7754 60.5043 31.3534 59.5993 30.6874 60.3493C30.0214 61.0993 29.2814 65.7773 34.1074 65.9413C38.9354 66.1063 38.1934 60.4353 36.8534 60.3493Z" fill="#F2E93B" stroke="#744D29" stroke-miterlimit="10"/>
<path d="M368.623 76.2944L369.04 109.961H446.873L454.54 103.544L455.873 73.9614L368.623 76.2944Z" fill="#D1292A" stroke="#744D29" stroke-miterlimit="10"/>
<path d="M446.873 109.961L447.956 74.1733" stroke="#744D29" stroke-miterlimit="10"/>
<path d="M414.244 75.2734H406.83V109.961H414.244V75.2734Z" fill="#35AE4A" stroke="#744D29" stroke-miterlimit="10"/>
<path d="M456.499 65.5806V76.9106L455.709 77.4506L451.419 80.4106H364V69.4106L371.17 66.0006L387.72 65.9206C387.72 65.9206 387.72 65.9206 387.73 65.9206L405.04 65.8306H405.07L407.72 65.8206H408.28L409.26 65.8096H410.03L414.5 65.7896L415.9 65.7796L417.79 65.7696H418.641L429.601 65.7086L435.821 65.6796L456.499 65.5806Z" fill="#D1292A" stroke="#744D29" stroke-miterlimit="10"/>
<path d="M364.002 69.4116L450.441 69.4936L451.002 80.4106L450.441 69.4936L456.502 65.5776" fill="#D1292A"/>
<path d="M364.002 69.4116L450.441 69.4936L451.002 80.4106L450.441 69.4936L456.502 65.5776" stroke="#744D29" stroke-miterlimit="10"/>
<path d="M410.025 65.8056L406.703 69.1256V80.4106H414.668V68.8686L417.793 65.7666L410.025 65.8056Z" fill="#35AE4A" stroke="#744D29" stroke-miterlimit="10"/>
<path d="M389.11 53.6007C382.71 60.3997 383.57 64.0107 387.72 65.9197C387.72 65.9197 387.72 65.9197 387.73 65.9197C390.49 67.1997 394.7 67.7197 399.19 67.9307C399.169 67.9407 399.16 67.9407 399.15 67.9507C399.14 67.9607 399.14 67.9607 399.14 67.9607H399.07C397.44 68.3107 396.01 68.8207 394.76 69.4407C391.539 71.0207 389.5 73.3307 388.23 75.7707C387.42 77.3207 386.93 78.9197 386.64 80.4107C385.86 84.3007 386.5 87.4107 386.61 86.8507C386.86 85.6007 390.78 81.0207 390.78 81.0207C390.78 81.0207 391.86 82.9307 393.03 85.7707C393.03 85.7707 393.33 83.4107 394.53 80.4107C395.14 78.8707 395.99 77.1707 397.17 75.5307C398.84 73.1607 401.181 70.9107 404.42 69.4507H404.54C405.46 69.0407 406.34 68.6807 407.41 68.4207C408 68.2617 408.61 68.1407 409.24 68.0407H409.25V67.5407L409.261 66.5807V65.8097L409.281 63.3507C396.44 46.5207 389.11 53.6007 389.11 53.6007ZM389.279 58.7707C393.409 52.9797 405.399 63.6607 407.719 65.8207L405.069 65.8307H405.039C399.169 65.0707 387.119 62.9597 389.279 58.7707Z" fill="#35AE4A" stroke="#744D29" stroke-miterlimit="10"/>
<path d="M432.69 51.1005C432.69 51.1005 426.11 49.0905 414.94 63.0495V63.0595L414.5 65.7895L414.25 67.3295L414.061 68.4895L414.031 68.6795C414.251 68.7795 414.461 68.8685 414.671 68.9685C415.022 69.1285 415.352 69.2885 415.682 69.4585C419.171 71.1795 421.642 73.0195 423.371 74.8285C425.262 76.7885 426.291 78.7185 426.821 80.4085C427.831 83.6685 427.011 86.0685 426.951 86.2595L431.441 80.4085L432.191 79.4295C432.191 79.4295 432.191 79.4295 432.701 80.4085C432.981 80.9485 433.421 81.7885 434.111 83.0985C434.34 82.1375 434.521 81.2385 434.661 80.4085C435.081 77.9485 435.111 76.0285 434.811 74.5185C434.261 71.7175 432.55 70.3075 429.981 69.4675C429.121 69.1785 428.161 68.9575 427.111 68.7685C430.3 68.3875 432.771 67.5685 434.621 66.4885H434.642C434.642 66.4885 434.652 66.4885 434.652 66.4775C435.082 66.2275 435.452 65.9575 435.822 65.6785C442.1 60.8605 438.81 52.3795 432.69 51.1005ZM418.64 65.7705C421.18 63.5805 435.85 53.9795 435.69 58.4305C435.6 60.9695 433.24 64.0205 429.6 65.7095L418.64 65.7705Z" fill="#35AE4A" stroke="#744D29" stroke-miterlimit="10"/>
<path d="M429.6 65.7095C428.44 66.2495 427.15 66.6485 425.76 66.8505C424.829 66.9905 423.86 67.0395 422.85 66.9695C421.419 66.8895 419.91 66.5905 418.36 66.0205C418.42 65.9505 418.52 65.8605 418.64 65.7705L429.6 65.7095Z" fill="#35AE4A" stroke="#744D29" stroke-miterlimit="10"/>
<path d="M408.11 66.1803C408.11 66.1803 406.89 66.0703 405.07 65.8293L407.72 65.8193C407.97 66.0493 408.11 66.1803 408.11 66.1803Z" fill="#35AE4A" stroke="#744D29" stroke-miterlimit="10"/>
<path d="M409.275 63.3503C410.443 63.2753 410.861 63.1953 412.607 63.3503C414.353 63.5053 414.775 62.6003 415.441 63.3503C416.107 64.1003 416.847 68.7783 412.021 68.9423C407.193 69.1063 407.935 63.4353 409.275 63.3503Z" fill="#35AE4A" stroke="#744D29" stroke-miterlimit="10"/>
<path d="M130.623 71.2944L131.04 104.961H208.873L216.54 98.5444L217.873 68.9614L130.623 71.2944Z" fill="#D1292A" stroke="#744D29" stroke-miterlimit="10"/>
<path d="M208.873 104.961L209.956 69.1733" stroke="#744D29" stroke-miterlimit="10"/>
<path d="M176.244 70.2734H168.83V104.961H176.244V70.2734Z" fill="#35AE4A" stroke="#744D29" stroke-miterlimit="10"/>
<path d="M218.499 60.5806V71.9106L217.709 72.4506L213.419 75.4106H126V64.4106L133.17 61.0006L149.72 60.9206C149.72 60.9206 149.72 60.9206 149.73 60.9206L167.04 60.8306H167.07L169.72 60.8206H170.28L171.26 60.8096H172.03L176.5 60.7896L177.9 60.7796L179.79 60.7696H180.641L191.601 60.7086L197.821 60.6796L218.499 60.5806Z" fill="#D1292A" stroke="#744D29" stroke-miterlimit="10"/>
<path d="M126.002 64.4116L212.441 64.4936L213.002 75.4106L212.441 64.4936L218.502 60.5776" fill="#D1292A"/>
<path d="M126.002 64.4116L212.441 64.4936L213.002 75.4106L212.441 64.4936L218.502 60.5776" stroke="#744D29" stroke-miterlimit="10"/>
<path d="M172.025 60.8056L168.703 64.1256V75.4106H176.668V63.8686L179.793 60.7666L172.025 60.8056Z" fill="#35AE4A" stroke="#744D29" stroke-miterlimit="10"/>
<path d="M151.11 48.6007C144.71 55.3997 145.57 59.0107 149.72 60.9197C149.72 60.9197 149.72 60.9197 149.73 60.9197C152.49 62.1997 156.7 62.7197 161.19 62.9307C161.169 62.9407 161.16 62.9407 161.15 62.9507C161.14 62.9607 161.14 62.9607 161.14 62.9607H161.07C159.44 63.3107 158.01 63.8207 156.76 64.4407C153.539 66.0207 151.5 68.3307 150.23 70.7707C149.42 72.3207 148.93 73.9197 148.64 75.4107C147.86 79.3007 148.5 82.4107 148.61 81.8507C148.86 80.6007 152.78 76.0207 152.78 76.0207C152.78 76.0207 153.86 77.9307 155.03 80.7707C155.03 80.7707 155.33 78.4107 156.53 75.4107C157.14 73.8707 157.99 72.1707 159.17 70.5307C160.84 68.1607 163.181 65.9107 166.42 64.4507H166.54C167.46 64.0407 168.34 63.6807 169.41 63.4207C170 63.2617 170.61 63.1407 171.24 63.0407H171.25V62.5407L171.261 61.5807V60.8097L171.281 58.3507C158.44 41.5207 151.11 48.6007 151.11 48.6007ZM151.279 53.7707C155.409 47.9797 167.399 58.6607 169.719 60.8207L167.069 60.8307H167.039C161.169 60.0707 149.119 57.9597 151.279 53.7707Z" fill="#35AE4A" stroke="#744D29" stroke-miterlimit="10"/>
<path d="M194.69 46.1005C194.69 46.1005 188.11 44.0905 176.94 58.0495V58.0595L176.5 60.7895L176.25 62.3295L176.061 63.4895L176.031 63.6795C176.251 63.7795 176.461 63.8685 176.671 63.9685C177.022 64.1285 177.352 64.2885 177.682 64.4585C181.171 66.1795 183.642 68.0195 185.371 69.8285C187.262 71.7885 188.291 73.7185 188.821 75.4085C189.831 78.6685 189.011 81.0685 188.951 81.2595L193.441 75.4085L194.191 74.4295C194.191 74.4295 194.191 74.4295 194.701 75.4085C194.981 75.9485 195.421 76.7885 196.111 78.0985C196.34 77.1375 196.521 76.2385 196.661 75.4085C197.081 72.9485 197.111 71.0285 196.811 69.5185C196.261 66.7175 194.55 65.3075 191.981 64.4675C191.121 64.1785 190.161 63.9575 189.111 63.7685C192.3 63.3875 194.771 62.5685 196.621 61.4885H196.642C196.642 61.4885 196.652 61.4885 196.652 61.4775C197.082 61.2275 197.452 60.9575 197.822 60.6785C204.1 55.8605 200.81 47.3795 194.69 46.1005ZM180.64 60.7705C183.18 58.5805 197.85 48.9795 197.69 53.4305C197.6 55.9695 195.24 59.0205 191.6 60.7095L180.64 60.7705Z" fill="#35AE4A" stroke="#744D29" stroke-miterlimit="10"/>
<path d="M191.6 60.7095C190.44 61.2495 189.15 61.6485 187.76 61.8505C186.829 61.9905 185.86 62.0395 184.85 61.9695C183.419 61.8895 181.91 61.5905 180.36 61.0205C180.42 60.9505 180.52 60.8605 180.64 60.7705L191.6 60.7095Z" fill="#35AE4A" stroke="#744D29" stroke-miterlimit="10"/>
<path d="M170.11 61.1803C170.11 61.1803 168.89 61.0703 167.07 60.8293L169.72 60.8193C169.97 61.0493 170.11 61.1803 170.11 61.1803Z" fill="#35AE4A" stroke="#744D29" stroke-miterlimit="10"/>
<path d="M171.275 58.3503C172.443 58.2753 172.861 58.1953 174.607 58.3503C176.353 58.5053 176.775 57.6003 177.441 58.3503C178.107 59.1003 178.847 63.7783 174.021 63.9423C169.193 64.1063 169.935 58.4353 171.275 58.3503Z" fill="#35AE4A" stroke="#744D29" stroke-miterlimit="10"/>
</svg>
