<svg width="590" height="295" viewBox="0 0 590 295" fill="none" xmlns="http://www.w3.org/2000/svg">
<path fill-rule="evenodd" clip-rule="evenodd" d="M294.944 0C457.45 0 589.189 131.738 589.189 294.247H0.698181C0.698181 131.738 132.436 0 294.944 0Z" fill="#B3E1E3"/>
<path fill-rule="evenodd" clip-rule="evenodd" d="M583.38 235.823C587.184 254.707 589.189 274.241 589.189 294.247H530.765V235.823H583.38Z" fill="#9AD4D5"/>
<path d="M172.947 229.787H46.7233V294.247H172.947V229.787Z" fill="#E5F4F7"/>
<path d="M404.541 229.787H278.318V294.247H404.541V229.787Z" fill="#68B8BA"/>
<path d="M438.346 45.748H312.122V119.288H438.346V45.748Z" fill="#91CCCF"/>
<path d="M259.988 135.393H133.764V208.934H259.988V135.393Z" fill="#E5F4F7"/>
<path d="M462.495 135.956H336.27V209.494H462.495V135.956Z" fill="#9AD4D5"/>
<path fill-rule="evenodd" clip-rule="evenodd" d="M64.6309 111.123C88.3152 81.3798 117.637 56.3285 150.985 37.5835H162.532V111.123H64.6309Z" fill="#CFEBEF"/>
<path fill-rule="evenodd" clip-rule="evenodd" d="M294.944 0C355.094 0 411.018 18.0636 457.617 49.0413H132.269C178.869 18.0636 234.793 0 294.944 0ZM572.422 196.163C577.998 211.938 582.266 228.326 585.098 245.205H4.78851C7.62117 228.326 11.8887 211.938 17.4638 196.163H572.422ZM514.242 98.0816C527.702 113.121 539.646 129.542 549.816 147.123H40.072C50.2426 129.542 62.1856 113.121 75.6463 98.0816H514.242Z" fill="#CFEBEF"/>
<path fill-rule="evenodd" clip-rule="evenodd" d="M115.104 196.163V245.205H4.78851C7.62117 228.327 11.8887 211.938 17.4638 196.163H115.104Z" fill="#91CCCF"/>
<path d="M335.172 196.163H208.949V245.205H335.172V196.163Z" fill="#9FD2D5"/>
<path fill-rule="evenodd" clip-rule="evenodd" d="M475.117 245.205V196.163H572.422C577.998 211.938 582.266 228.327 585.098 245.205H475.117Z" fill="#E5F4F7"/>
<path d="M403.992 98.0815H277.769V147.123H403.992V98.0815Z" fill="#E5F4F7"/>
<path fill-rule="evenodd" clip-rule="evenodd" d="M181.728 98.0815V147.123H40.072C50.2426 129.542 62.1856 113.12 75.6463 98.0815H181.728Z" fill="#9FD2D5"/>
<path fill-rule="evenodd" clip-rule="evenodd" d="M383.136 13.4575C409.798 21.8281 434.825 33.8879 457.617 49.0414H383.136V13.4575Z" fill="#9FD2D5"/>
<path fill-rule="evenodd" clip-rule="evenodd" d="M258.561 49.0415H132.337V48.9969C169.377 24.3882 212.304 7.93881 258.56 2.22998V49.0415H258.561Z" fill="#E5F4F7"/>
<path fill-rule="evenodd" clip-rule="evenodd" d="M247.034 294.247H79.103V151.186C79.103 129.151 97.1305 111.123 119.167 111.123H163.07C209.251 111.123 247.035 148.908 247.035 195.087V294.247H247.034Z" fill="#68B8BA"/>
<path fill-rule="evenodd" clip-rule="evenodd" d="M231.877 147.123C241.419 160.744 247.034 177.292 247.034 195.087V196.163H133.764V147.123H231.877Z" fill="#CFEBEF"/>
<path fill-rule="evenodd" clip-rule="evenodd" d="M203.132 294.247H35.1995V195.087C35.1995 148.907 72.9845 111.123 119.167 111.123C165.347 111.123 203.133 148.908 203.133 195.087V294.247H203.132Z" fill="#E5F4F7"/>
<path fill-rule="evenodd" clip-rule="evenodd" d="M178.07 294.247H60.2614V201.429C60.2614 169.033 86.7678 142.526 119.165 142.526H119.166C151.563 142.526 178.069 169.033 178.069 201.429V294.247H178.07Z" fill="#47989C"/>
<path fill-rule="evenodd" clip-rule="evenodd" d="M60.5013 196.163C62.4817 174.085 76.7755 155.414 96.4205 147.123H141.911C161.555 155.415 175.849 174.085 177.829 196.163H60.5013Z" fill="#3B8E92"/>
<path d="M247.034 196.163H203.132V245.205H247.034V196.163Z" fill="#91CCCF"/>
<path d="M178.07 245.205H60.2614V294.245H178.07V245.205Z" fill="#317F83"/>
<path d="M156.483 196.163H84.5911V245.205H156.483V196.163Z" fill="#5BAAAD"/>
<path fill-rule="evenodd" clip-rule="evenodd" d="M247.627 52.3516L254.255 73.9303L275.836 80.5603L254.255 87.1893L247.627 108.769L240.998 87.1893L219.419 80.5603L240.998 73.9303L247.627 52.3516Z" fill="white"/>
<path fill-rule="evenodd" clip-rule="evenodd" d="M305.33 34.4175L310.363 50.801L326.746 55.8338L310.363 60.8666L305.33 77.249L300.298 60.8666L283.914 55.8338L300.298 50.801L305.33 34.4175Z" fill="white"/>
<path fill-rule="evenodd" clip-rule="evenodd" d="M410.484 61.7507L415.517 78.1343L431.901 83.1671L415.517 88.1998L410.484 104.583L405.452 88.1998L389.068 83.1671L405.452 78.1343L410.484 61.7507Z" fill="white"/>
<path fill-rule="evenodd" clip-rule="evenodd" d="M306.251 215.522L310.522 229.416L324.416 233.685L310.522 237.952L306.251 251.847L301.985 237.952L288.089 233.685L301.985 229.416L306.251 215.522Z" fill="white"/>
<path fill-rule="evenodd" clip-rule="evenodd" d="M438.61 149.489L445.238 171.069L466.818 177.699L445.238 184.327L438.61 205.907L431.981 184.327L410.401 177.699L431.981 171.069L438.61 149.489Z" fill="white"/>
<path fill-rule="evenodd" clip-rule="evenodd" d="M523.894 175.858L528.926 192.243L545.31 197.274L528.926 202.307L523.894 218.691L518.861 202.307L502.478 197.274L518.861 192.243L523.894 175.858Z" fill="white"/>
<path fill-rule="evenodd" clip-rule="evenodd" d="M138.413 70.0894L141.627 80.5539L152.092 83.7687L141.627 86.9823L138.413 97.448L135.197 86.9823L124.733 83.7687L135.197 80.5539L138.413 70.0894Z" fill="white"/>
<path fill-rule="evenodd" clip-rule="evenodd" d="M396.168 199.03L399.382 209.494L409.847 212.709L399.382 215.925L396.168 226.388L392.954 215.925L382.489 212.709L392.954 209.494L396.168 199.03Z" fill="white"/>
</svg>
