<svg width="316" height="98" viewBox="0 0 316 98" fill="none" xmlns="http://www.w3.org/2000/svg">
<rect x="178" y="17" width="37" height="23" fill="#D84646"/>
<rect x="141" y="53" width="37" height="23" fill="#D84646"/>
<mask id="path-3-outside-1_126_3460" maskUnits="userSpaceOnUse" x="0" y="0" width="316" height="98" fill="black">
<rect fill="white" width="316" height="98"/>
<path d="M308.29 72.3683C308.82 73.2575 309.18 74.2465 309.83 75.6652C307.16 74.9958 305.04 74.4064 302.9 73.9468C294.73 72.1784 286.42 71.8488 278.11 71.7489C265.46 71.589 252.86 72.2884 240.29 73.6271C231.87 74.5363 223.41 75.0858 214.97 75.855C206.21 76.6543 197.53 77.9431 189.09 80.5807C182.48 82.6488 176.31 85.586 170.98 90.1019C170.3 90.6813 169.75 91.4106 168.45 92.7993L167.63 93.0391C167.41 92.8693 167.19 92.6595 166.97 92.4197C166.35 91.7303 165.48 91.2608 164.69 90.7313C161.49 88.6132 158.17 86.665 155.11 84.3672C145.97 77.5335 135.58 73.5971 124.58 71.0994C106.99 67.1131 89.17 65.9143 71.21 67.3829C61.17 68.2022 51.28 70.1603 41.46 72.3683C33.99 74.0567 26.5599 75.945 19.1299 77.8332C16.4099 78.5226 13.75 79.4717 10 80.6406C11.77 78.6425 12.76 77.4436 13.84 76.3246C22.19 67.7326 30.4799 59.0706 38.9499 50.5885C46.4399 43.0954 53.05 34.933 58.73 25.9913C61.21 22.0849 63.78 18.2384 66.37 14.402C67.8 12.2839 69.36 10.2658 71.03 7.95798C75.94 7.08878 80.93 6.03974 85.97 5.35038C92.62 4.44122 99.28 3.61199 105.97 3.13243C114 2.56296 121.92 3.9317 129.79 5.30044C134.98 6.1996 140.13 7.34853 145.22 8.69728C152.37 10.5955 159.13 13.4029 164.89 18.2185C165.24 18.5182 165.75 18.6181 166.15 18.7979C166.5 18.708 166.86 18.728 167.08 18.5581C175.6 12.1741 185.42 8.93707 195.7 6.98887C205.59 5.1206 215.57 3.73188 225.68 3.70191C233.54 3.68193 241.33 4.06158 248.9 6.47934C251.089 7.18868 253.04 8.07786 254.56 9.85621C256.31 11.9243 258.16 13.9025 259.94 15.9406C261.73 17.9887 263.4 20.1367 265.259 22.1148C271.499 28.7487 277.799 35.3226 284.079 41.9165C284.669 42.5359 285.129 43.4351 286.169 43.3452C285.98 44.3842 286.85 44.9337 287.399 45.5731C290.319 48.96 293.319 52.2869 296.209 55.7037C300.65 60.9589 304.79 66.4338 308.29 72.3683ZM284.72 65.1749C284.68 64.9052 284.63 64.6354 284.59 64.3557C283.47 64.4256 282.351 64.4956 281.24 64.5655C281.25 64.7653 281.25 64.9751 281.26 65.1749C282.41 65.1749 283.57 65.1749 284.72 65.1749ZM274.02 52.7265C270.69 51.7474 267.45 51.4277 263.459 53.5657C265.35 53.5657 266.27 53.6456 267.179 53.5557C269.46 53.3159 271.74 53.0062 274.02 52.7265ZM263.56 62.897C258.4 62.8171 253.48 63.8162 248.56 65.3848C249.339 65.3848 250.12 65.4547 250.879 65.3748C254.999 64.9352 259.109 64.4556 263.23 63.9461C263.34 63.9361 263.39 63.4465 263.56 62.897ZM263.3 39.4488C262.7 39.4987 262.061 39.4388 261.5 39.6286C257.05 41.1372 252.45 41.4569 247.8 41.407C243.811 41.367 239.821 41.387 235.83 41.2571C231.17 41.1072 226.61 41.6268 222.15 43.0455C218.46 44.2244 214.67 44.604 210.8 44.3143C208.89 44.1844 206.98 44.0845 205.07 43.9546C198.81 43.545 192.65 44.2943 186.58 45.7729C185.99 45.9228 185.48 46.3624 184.93 46.6621C186.52 46.9918 187.91 46.782 189.28 46.5122C195.9 45.2134 202.59 44.5341 209.27 45.5431C213.18 46.1426 216.96 45.9528 220.61 44.7938C227.91 42.486 235.31 42.2462 242.86 42.5959C247.15 42.7857 251.469 42.5359 255.759 42.2662C258.43 42.0963 261.09 41.5468 263.3 39.4488ZM255.65 33.5243C256.049 33.7041 256.61 33.5343 257.299 33.5343C256.32 31.9458 255.06 31.636 253.779 31.676C251.409 31.7659 249.029 31.9957 246.669 32.2555C243.829 32.5652 240.949 33.5143 238.169 33.2545C231.489 32.6251 225.399 35.0728 219.019 36.4216C219.589 36.5315 220.179 36.7913 220.729 36.7213C222.619 36.4915 224.509 36.1918 226.379 35.8221C229.189 35.2726 231.939 34.4234 234.869 34.6133C239.669 34.923 244.409 34.3735 249.089 33.2345C251.3 32.695 253.48 32.5752 255.65 33.5243ZM249.59 53.6156C251.651 54.0153 253.7 54.4948 256.13 53.3759C252.56 52.6665 252.56 52.6665 249.59 53.6156ZM248.95 23.6534C251.15 24.0331 253.35 24.2329 255.59 23.5136C250.901 22.5345 246.231 21.6852 241.481 21.5254C240.531 21.4954 239.561 21.6553 238.63 21.8451C232.521 23.034 226.41 24.2429 220.31 25.5017C219.7 25.6216 219.17 26.0912 218.6 26.4009C219.87 26.8305 220.97 26.8205 222.04 26.6107C226.27 25.7914 230.53 25.0721 234.7 24.0031C239.46 22.7942 244.18 22.8142 248.95 23.6534ZM247.87 13.2131C245.41 12.214 243.67 13.4828 241.88 13.8125C239.47 14.2421 237.17 14.5619 234.82 13.6727C231.79 12.5237 228.86 12.7635 226.09 14.462C224.48 15.451 222.8 15.461 221.01 15.0913C219.61 14.8116 218.16 14.6418 216.74 14.6418C214.97 14.6318 214.88 14.7717 212.93 16.2003C215.86 16.3102 218.99 16.52 222.11 16.51C223.51 16.5001 225.06 16.3702 226.27 15.7707C229.01 14.402 231.63 14.2721 234.59 15.0814C239.05 16.3202 243.33 15.2412 247.87 13.2131ZM239.18 65.6145C237.731 65.1849 236.731 65.2349 236.16 66.7235C237.51 67.253 238.35 66.7934 239.18 65.6145ZM242.21 53.3559C238.8 53.7156 235.38 54.0652 231.981 54.4649C231.641 54.5048 231.351 54.9344 230.751 55.404C235.04 55.9934 238.78 55.434 242.21 53.3559ZM215.03 67.9424C214.37 67.6527 214.08 67.4029 213.8 67.4229C209.85 67.6526 205.91 67.9124 201.96 68.1722C201.49 68.2021 201 68.1822 200.55 68.312C197.66 69.1513 194.78 70.0205 191.9 70.8996C191.64 70.9796 191.45 71.2793 190.92 71.7489C191.89 71.8388 192.62 72.0586 193.27 71.9187C194.66 71.629 196 71.0895 197.38 70.7498C199.37 70.2602 201.36 69.7007 203.38 69.4809C206.69 69.1213 210.02 69.0514 213.34 68.7816C213.84 68.7416 214.31 68.312 215.03 67.9424ZM209.38 32.9848C205.64 27.3999 203.9 20.7961 199.43 15.3012C193.26 16.8597 187.14 18.4083 180.69 20.0368C180.69 20.8161 180.61 21.7552 180.71 22.6743C181.07 26.321 181.47 29.9676 181.9 33.6142C182.04 34.8231 182.28 36.012 182.46 37.1609C190.3 37.4706 202.64 35.5724 209.38 32.9848ZM203.22 57.0625C203.5 57.1624 203.89 56.9326 204.51 56.7927C200.95 54.7746 199.85 54.4749 196.67 55.1542C192.82 55.9735 189 56.9526 185.16 57.8617C185.13 58.1315 185.11 58.3912 185.08 58.661C186.46 58.5511 187.87 58.5511 189.23 58.3113C190.64 58.0615 192 57.612 193.38 57.2223C196.65 56.2732 199.91 55.9635 203.22 57.0625ZM167.6 62.8071C168.59 53.4658 169.38 44.1045 169.02 34.6932C168.9 31.706 168.54 28.7787 166.89 26.0212C167.07 28.2092 167.29 30.4072 167.43 32.5951C167.61 35.4525 167.95 38.3298 167.82 41.1772C167.54 47.0617 167.08 52.9363 166.54 58.8008C165.98 64.8153 165.15 70.8097 164.61 76.8341C164.38 79.3518 164.54 81.9094 164.67 84.4471C164.7 85.0565 165.28 85.646 165.82 86.6251C166 81.7895 166.04 77.5035 166.35 73.2375C166.6 69.7507 167.24 66.2939 167.6 62.8071ZM150.23 71.8388C153.71 71.0395 156.08 67.9823 155.89 64.6255C155.76 62.2976 154.4 60.839 152.07 60.5093C150.52 60.2795 148.96 60.1196 147.41 59.8399C144.3 59.2904 141.62 60.7291 140.58 63.5864C139.54 66.4238 140.6 69.5209 143.32 70.9196C144.69 71.619 146.29 71.8587 147.31 72.1685C148.66 72.0186 149.46 72.0186 150.23 71.8388ZM148.79 29.9376C149.49 30.0175 150.26 30.7269 151.12 29.6279C149.94 28.5489 148.68 28.5289 146.77 29.2582C147.73 29.5879 148.25 29.8777 148.79 29.9376ZM141.03 44.2244C142.89 44.3143 144.77 44.2444 146.64 44.2444C146.01 43.4651 145.31 43.2153 144.6 43.1254C142.22 42.8556 139.81 42.7757 137.46 42.3661C131.95 41.387 126.45 40.4079 120.81 40.5877C119.86 40.6177 118.87 40.5378 117.95 40.298C114.06 39.259 110.33 39.7985 106.73 41.377C103.71 42.7058 100.81 42.3661 97.9 41.1172C97.02 40.7376 96.14 40.3479 95.29 39.9183C92.65 38.5696 89.86 38.13 86.92 38.3798C82.14 38.7994 77.3399 39.0292 72.5799 39.6186C69.9599 39.9383 67.22 40.2281 64.92 42.486C65.84 42.3361 66.76 42.1862 67.68 42.0464C71.3 41.4869 74.92 40.8875 78.55 40.3979C80.77 40.0982 83.02 40.0582 85.23 39.7285C88.33 39.259 91.28 39.5587 94.11 40.9174C95.12 41.407 96.16 41.8266 97.18 42.2762C100.55 43.7948 103.98 44.0245 107.4 42.5359C110.93 41.0073 114.54 41.0573 118.23 41.6767C119.64 41.9165 121.09 42.2562 122.5 42.1663C127.35 41.8665 132.05 42.7357 136.76 43.6749C138.17 43.9546 139.6 44.1544 141.03 44.2244ZM138.13 21.0958C138.9 21.2756 139.77 21.0159 140.59 20.9559C136.69 19.3974 132.74 18.3683 128.78 17.3992C128.38 17.2993 127.89 17.5491 126.99 17.7289C130.73 19.7371 134.49 20.2366 138.13 21.0958ZM137.44 28.389C137.82 28.439 138.24 28.1592 139.56 27.7396C131.53 25.3818 124.51 24.0331 117.25 25.6316C118.46 25.9913 119.7 26.2011 120.92 26.1311C125.28 25.8714 129.51 26.4209 133.69 27.6697C134.9 28.0294 136.18 28.2192 137.44 28.389ZM129.87 55.2441C132.1 55.8935 134.38 56.9326 136.79 55.3241C132.48 55.2442 128.81 53.4558 125.18 51.5076C124.34 51.058 123.46 50.6784 122.58 50.3087C115.66 47.4314 108.55 46.4323 101.05 47.3714C90.29 48.7102 79.52 50.059 68.65 50.1489C68.24 50.1489 67.82 50.3387 67.44 50.4286C67.42 51.4077 68.05 51.6575 68.68 51.6475C70.27 51.6475 71.8699 51.5875 73.4499 51.4377C84.0899 50.4186 94.72 49.3396 105.36 48.3505C106.93 48.2007 108.56 48.1907 110.13 48.4205C115.67 49.2297 121.06 50.6085 125.98 53.4258C127.22 54.1352 128.51 54.8545 129.87 55.2441ZM115.3 17.0296C115.35 17.0196 115.42 16.7498 115.4 16.61C115.38 16.4801 115.26 16.2603 115.18 16.2603C114.19 16.2703 113.21 16.3202 112.22 16.3602C112.22 16.6699 112.22 16.9896 112.21 17.2993C113.24 17.2194 114.27 17.1395 115.3 17.0296ZM109.71 63.2667C110.34 63.3167 110.97 63.2767 112.73 63.2767C108.68 61.3485 101.28 60.9389 97.98 62.0379C98.09 62.1478 98.19 62.3576 98.31 62.3675C102.11 62.6773 105.91 62.987 109.71 63.2667ZM106.61 16.2003C107.3 16.1903 107.84 15.9905 107.44 14.7816C102.64 14.8016 97.74 13.6926 92.84 15.3111C91.1 15.8906 89.42 15.451 87.77 14.6018C86.67 14.0423 85.31 13.5128 84.15 13.6627C81.55 13.9924 79.06 14.9515 76.3 16.0805C77.04 16.3602 77.35 16.6099 77.61 16.56C78.7 16.3602 79.8 16.1504 80.86 15.8107C83.21 15.0614 85.44 14.6518 87.74 16.1604C89.25 17.1494 91.0099 17.2494 92.8199 16.6899C96.3899 15.5809 100.05 15.511 103.74 16.0904C104.68 16.2303 105.65 16.2003 106.61 16.2003ZM105.25 25.142C105.49 25.1121 105.7 24.7624 106.06 24.4327C104.12 23.8133 102.25 24.133 100.42 24.3028C97.72 24.5526 94.99 24.7324 92.35 25.3119C88.72 26.1111 85.43 25.7215 82.21 23.8432C81.32 23.3237 80.0899 23.2638 79.0099 23.2039C78.2199 23.1539 75.6399 24.8223 74.0699 26.0812C74.1699 26.2011 74.24 26.4209 74.36 26.4508C76.66 27.0103 77.8399 24.3028 80.3899 24.5326C81.0899 24.8323 82.15 25.192 83.1 25.7615C85.11 26.9804 87.3 27.2801 89.56 27.0303C94.8 26.4508 100.02 25.8014 105.25 25.142ZM92.62 60.4593C92.67 60.4593 92.73 60.2395 92.91 59.8299C91.54 59.2404 90.31 58.3713 88.86 60.2595C90.12 60.3294 91.37 60.4094 92.62 60.4593ZM75.52 58.9807C77.28 59.2504 79.08 59.5302 81.85 59.9698C79.76 57.9516 78.19 57.602 76.44 57.7818C75.76 57.8517 75.28 58.1015 75.52 58.9807ZM63.11 60.7091C63.58 61.0188 64.15 61.1687 65.16 61.5883C62.79 58.4412 60.6799 57.4421 57.8199 58.1015C56.2899 58.4412 54.8 59.0506 53.37 59.69C51.25 60.6292 49.16 61.5383 46.55 61.3585C46.97 61.6882 47.38 62.2876 47.81 62.2876C49.05 62.3076 50.33 62.2477 51.52 61.9279C52.73 61.6182 53.8699 61.0188 55.0099 60.4593C57.7699 59.1006 60.45 58.9507 63.11 60.7091Z"/>
</mask>
<path d="M308.29 72.3683C308.82 73.2575 309.18 74.2465 309.83 75.6652C307.16 74.9958 305.04 74.4064 302.9 73.9468C294.73 72.1784 286.42 71.8488 278.11 71.7489C265.46 71.589 252.86 72.2884 240.29 73.6271C231.87 74.5363 223.41 75.0858 214.97 75.855C206.21 76.6543 197.53 77.9431 189.09 80.5807C182.48 82.6488 176.31 85.586 170.98 90.1019C170.3 90.6813 169.75 91.4106 168.45 92.7993L167.63 93.0391C167.41 92.8693 167.19 92.6595 166.97 92.4197C166.35 91.7303 165.48 91.2608 164.69 90.7313C161.49 88.6132 158.17 86.665 155.11 84.3672C145.97 77.5335 135.58 73.5971 124.58 71.0994C106.99 67.1131 89.17 65.9143 71.21 67.3829C61.17 68.2022 51.28 70.1603 41.46 72.3683C33.99 74.0567 26.5599 75.945 19.1299 77.8332C16.4099 78.5226 13.75 79.4717 10 80.6406C11.77 78.6425 12.76 77.4436 13.84 76.3246C22.19 67.7326 30.4799 59.0706 38.9499 50.5885C46.4399 43.0954 53.05 34.933 58.73 25.9913C61.21 22.0849 63.78 18.2384 66.37 14.402C67.8 12.2839 69.36 10.2658 71.03 7.95798C75.94 7.08878 80.93 6.03974 85.97 5.35038C92.62 4.44122 99.28 3.61199 105.97 3.13243C114 2.56296 121.92 3.9317 129.79 5.30044C134.98 6.1996 140.13 7.34853 145.22 8.69728C152.37 10.5955 159.13 13.4029 164.89 18.2185C165.24 18.5182 165.75 18.6181 166.15 18.7979C166.5 18.708 166.86 18.728 167.08 18.5581C175.6 12.1741 185.42 8.93707 195.7 6.98887C205.59 5.1206 215.57 3.73188 225.68 3.70191C233.54 3.68193 241.33 4.06158 248.9 6.47934C251.089 7.18868 253.04 8.07786 254.56 9.85621C256.31 11.9243 258.16 13.9025 259.94 15.9406C261.73 17.9887 263.4 20.1367 265.259 22.1148C271.499 28.7487 277.799 35.3226 284.079 41.9165C284.669 42.5359 285.129 43.4351 286.169 43.3452C285.98 44.3842 286.85 44.9337 287.399 45.5731C290.319 48.96 293.319 52.2869 296.209 55.7037C300.65 60.9589 304.79 66.4338 308.29 72.3683ZM284.72 65.1749C284.68 64.9052 284.63 64.6354 284.59 64.3557C283.47 64.4256 282.351 64.4956 281.24 64.5655C281.25 64.7653 281.25 64.9751 281.26 65.1749C282.41 65.1749 283.57 65.1749 284.72 65.1749ZM274.02 52.7265C270.69 51.7474 267.45 51.4277 263.459 53.5657C265.35 53.5657 266.27 53.6456 267.179 53.5557C269.46 53.3159 271.74 53.0062 274.02 52.7265ZM263.56 62.897C258.4 62.8171 253.48 63.8162 248.56 65.3848C249.339 65.3848 250.12 65.4547 250.879 65.3748C254.999 64.9352 259.109 64.4556 263.23 63.9461C263.34 63.9361 263.39 63.4465 263.56 62.897ZM263.3 39.4488C262.7 39.4987 262.061 39.4388 261.5 39.6286C257.05 41.1372 252.45 41.4569 247.8 41.407C243.811 41.367 239.821 41.387 235.83 41.2571C231.17 41.1072 226.61 41.6268 222.15 43.0455C218.46 44.2244 214.67 44.604 210.8 44.3143C208.89 44.1844 206.98 44.0845 205.07 43.9546C198.81 43.545 192.65 44.2943 186.58 45.7729C185.99 45.9228 185.48 46.3624 184.93 46.6621C186.52 46.9918 187.91 46.782 189.28 46.5122C195.9 45.2134 202.59 44.5341 209.27 45.5431C213.18 46.1426 216.96 45.9528 220.61 44.7938C227.91 42.486 235.31 42.2462 242.86 42.5959C247.15 42.7857 251.469 42.5359 255.759 42.2662C258.43 42.0963 261.09 41.5468 263.3 39.4488ZM255.65 33.5243C256.049 33.7041 256.61 33.5343 257.299 33.5343C256.32 31.9458 255.06 31.636 253.779 31.676C251.409 31.7659 249.029 31.9957 246.669 32.2555C243.829 32.5652 240.949 33.5143 238.169 33.2545C231.489 32.6251 225.399 35.0728 219.019 36.4216C219.589 36.5315 220.179 36.7913 220.729 36.7213C222.619 36.4915 224.509 36.1918 226.379 35.8221C229.189 35.2726 231.939 34.4234 234.869 34.6133C239.669 34.923 244.409 34.3735 249.089 33.2345C251.3 32.695 253.48 32.5752 255.65 33.5243ZM249.59 53.6156C251.651 54.0153 253.7 54.4948 256.13 53.3759C252.56 52.6665 252.56 52.6665 249.59 53.6156ZM248.95 23.6534C251.15 24.0331 253.35 24.2329 255.59 23.5136C250.901 22.5345 246.231 21.6852 241.481 21.5254C240.531 21.4954 239.561 21.6553 238.63 21.8451C232.521 23.034 226.41 24.2429 220.31 25.5017C219.7 25.6216 219.17 26.0912 218.6 26.4009C219.87 26.8305 220.97 26.8205 222.04 26.6107C226.27 25.7914 230.53 25.0721 234.7 24.0031C239.46 22.7942 244.18 22.8142 248.95 23.6534ZM247.87 13.2131C245.41 12.214 243.67 13.4828 241.88 13.8125C239.47 14.2421 237.17 14.5619 234.82 13.6727C231.79 12.5237 228.86 12.7635 226.09 14.462C224.48 15.451 222.8 15.461 221.01 15.0913C219.61 14.8116 218.16 14.6418 216.74 14.6418C214.97 14.6318 214.88 14.7717 212.93 16.2003C215.86 16.3102 218.99 16.52 222.11 16.51C223.51 16.5001 225.06 16.3702 226.27 15.7707C229.01 14.402 231.63 14.2721 234.59 15.0814C239.05 16.3202 243.33 15.2412 247.87 13.2131ZM239.18 65.6145C237.731 65.1849 236.731 65.2349 236.16 66.7235C237.51 67.253 238.35 66.7934 239.18 65.6145ZM242.21 53.3559C238.8 53.7156 235.38 54.0652 231.981 54.4649C231.641 54.5048 231.351 54.9344 230.751 55.404C235.04 55.9934 238.78 55.434 242.21 53.3559ZM215.03 67.9424C214.37 67.6527 214.08 67.4029 213.8 67.4229C209.85 67.6526 205.91 67.9124 201.96 68.1722C201.49 68.2021 201 68.1822 200.55 68.312C197.66 69.1513 194.78 70.0205 191.9 70.8996C191.64 70.9796 191.45 71.2793 190.92 71.7489C191.89 71.8388 192.62 72.0586 193.27 71.9187C194.66 71.629 196 71.0895 197.38 70.7498C199.37 70.2602 201.36 69.7007 203.38 69.4809C206.69 69.1213 210.02 69.0514 213.34 68.7816C213.84 68.7416 214.31 68.312 215.03 67.9424ZM209.38 32.9848C205.64 27.3999 203.9 20.7961 199.43 15.3012C193.26 16.8597 187.14 18.4083 180.69 20.0368C180.69 20.8161 180.61 21.7552 180.71 22.6743C181.07 26.321 181.47 29.9676 181.9 33.6142C182.04 34.8231 182.28 36.012 182.46 37.1609C190.3 37.4706 202.64 35.5724 209.38 32.9848ZM203.22 57.0625C203.5 57.1624 203.89 56.9326 204.51 56.7927C200.95 54.7746 199.85 54.4749 196.67 55.1542C192.82 55.9735 189 56.9526 185.16 57.8617C185.13 58.1315 185.11 58.3912 185.08 58.661C186.46 58.5511 187.87 58.5511 189.23 58.3113C190.64 58.0615 192 57.612 193.38 57.2223C196.65 56.2732 199.91 55.9635 203.22 57.0625ZM167.6 62.8071C168.59 53.4658 169.38 44.1045 169.02 34.6932C168.9 31.706 168.54 28.7787 166.89 26.0212C167.07 28.2092 167.29 30.4072 167.43 32.5951C167.61 35.4525 167.95 38.3298 167.82 41.1772C167.54 47.0617 167.08 52.9363 166.54 58.8008C165.98 64.8153 165.15 70.8097 164.61 76.8341C164.38 79.3518 164.54 81.9094 164.67 84.4471C164.7 85.0565 165.28 85.646 165.82 86.6251C166 81.7895 166.04 77.5035 166.35 73.2375C166.6 69.7507 167.24 66.2939 167.6 62.8071ZM150.23 71.8388C153.71 71.0395 156.08 67.9823 155.89 64.6255C155.76 62.2976 154.4 60.839 152.07 60.5093C150.52 60.2795 148.96 60.1196 147.41 59.8399C144.3 59.2904 141.62 60.7291 140.58 63.5864C139.54 66.4238 140.6 69.5209 143.32 70.9196C144.69 71.619 146.29 71.8587 147.31 72.1685C148.66 72.0186 149.46 72.0186 150.23 71.8388ZM148.79 29.9376C149.49 30.0175 150.26 30.7269 151.12 29.6279C149.94 28.5489 148.68 28.5289 146.77 29.2582C147.73 29.5879 148.25 29.8777 148.79 29.9376ZM141.03 44.2244C142.89 44.3143 144.77 44.2444 146.64 44.2444C146.01 43.4651 145.31 43.2153 144.6 43.1254C142.22 42.8556 139.81 42.7757 137.46 42.3661C131.95 41.387 126.45 40.4079 120.81 40.5877C119.86 40.6177 118.87 40.5378 117.95 40.298C114.06 39.259 110.33 39.7985 106.73 41.377C103.71 42.7058 100.81 42.3661 97.9 41.1172C97.02 40.7376 96.14 40.3479 95.29 39.9183C92.65 38.5696 89.86 38.13 86.92 38.3798C82.14 38.7994 77.3399 39.0292 72.5799 39.6186C69.9599 39.9383 67.22 40.2281 64.92 42.486C65.84 42.3361 66.76 42.1862 67.68 42.0464C71.3 41.4869 74.92 40.8875 78.55 40.3979C80.77 40.0982 83.02 40.0582 85.23 39.7285C88.33 39.259 91.28 39.5587 94.11 40.9174C95.12 41.407 96.16 41.8266 97.18 42.2762C100.55 43.7948 103.98 44.0245 107.4 42.5359C110.93 41.0073 114.54 41.0573 118.23 41.6767C119.64 41.9165 121.09 42.2562 122.5 42.1663C127.35 41.8665 132.05 42.7357 136.76 43.6749C138.17 43.9546 139.6 44.1544 141.03 44.2244ZM138.13 21.0958C138.9 21.2756 139.77 21.0159 140.59 20.9559C136.69 19.3974 132.74 18.3683 128.78 17.3992C128.38 17.2993 127.89 17.5491 126.99 17.7289C130.73 19.7371 134.49 20.2366 138.13 21.0958ZM137.44 28.389C137.82 28.439 138.24 28.1592 139.56 27.7396C131.53 25.3818 124.51 24.0331 117.25 25.6316C118.46 25.9913 119.7 26.2011 120.92 26.1311C125.28 25.8714 129.51 26.4209 133.69 27.6697C134.9 28.0294 136.18 28.2192 137.44 28.389ZM129.87 55.2441C132.1 55.8935 134.38 56.9326 136.79 55.3241C132.48 55.2442 128.81 53.4558 125.18 51.5076C124.34 51.058 123.46 50.6784 122.58 50.3087C115.66 47.4314 108.55 46.4323 101.05 47.3714C90.29 48.7102 79.52 50.059 68.65 50.1489C68.24 50.1489 67.82 50.3387 67.44 50.4286C67.42 51.4077 68.05 51.6575 68.68 51.6475C70.27 51.6475 71.8699 51.5875 73.4499 51.4377C84.0899 50.4186 94.72 49.3396 105.36 48.3505C106.93 48.2007 108.56 48.1907 110.13 48.4205C115.67 49.2297 121.06 50.6085 125.98 53.4258C127.22 54.1352 128.51 54.8545 129.87 55.2441ZM115.3 17.0296C115.35 17.0196 115.42 16.7498 115.4 16.61C115.38 16.4801 115.26 16.2603 115.18 16.2603C114.19 16.2703 113.21 16.3202 112.22 16.3602C112.22 16.6699 112.22 16.9896 112.21 17.2993C113.24 17.2194 114.27 17.1395 115.3 17.0296ZM109.71 63.2667C110.34 63.3167 110.97 63.2767 112.73 63.2767C108.68 61.3485 101.28 60.9389 97.98 62.0379C98.09 62.1478 98.19 62.3576 98.31 62.3675C102.11 62.6773 105.91 62.987 109.71 63.2667ZM106.61 16.2003C107.3 16.1903 107.84 15.9905 107.44 14.7816C102.64 14.8016 97.74 13.6926 92.84 15.3111C91.1 15.8906 89.42 15.451 87.77 14.6018C86.67 14.0423 85.31 13.5128 84.15 13.6627C81.55 13.9924 79.06 14.9515 76.3 16.0805C77.04 16.3602 77.35 16.6099 77.61 16.56C78.7 16.3602 79.8 16.1504 80.86 15.8107C83.21 15.0614 85.44 14.6518 87.74 16.1604C89.25 17.1494 91.0099 17.2494 92.8199 16.6899C96.3899 15.5809 100.05 15.511 103.74 16.0904C104.68 16.2303 105.65 16.2003 106.61 16.2003ZM105.25 25.142C105.49 25.1121 105.7 24.7624 106.06 24.4327C104.12 23.8133 102.25 24.133 100.42 24.3028C97.72 24.5526 94.99 24.7324 92.35 25.3119C88.72 26.1111 85.43 25.7215 82.21 23.8432C81.32 23.3237 80.0899 23.2638 79.0099 23.2039C78.2199 23.1539 75.6399 24.8223 74.0699 26.0812C74.1699 26.2011 74.24 26.4209 74.36 26.4508C76.66 27.0103 77.8399 24.3028 80.3899 24.5326C81.0899 24.8323 82.15 25.192 83.1 25.7615C85.11 26.9804 87.3 27.2801 89.56 27.0303C94.8 26.4508 100.02 25.8014 105.25 25.142ZM92.62 60.4593C92.67 60.4593 92.73 60.2395 92.91 59.8299C91.54 59.2404 90.31 58.3713 88.86 60.2595C90.12 60.3294 91.37 60.4094 92.62 60.4593ZM75.52 58.9807C77.28 59.2504 79.08 59.5302 81.85 59.9698C79.76 57.9516 78.19 57.602 76.44 57.7818C75.76 57.8517 75.28 58.1015 75.52 58.9807ZM63.11 60.7091C63.58 61.0188 64.15 61.1687 65.16 61.5883C62.79 58.4412 60.6799 57.4421 57.8199 58.1015C56.2899 58.4412 54.8 59.0506 53.37 59.69C51.25 60.6292 49.16 61.5383 46.55 61.3585C46.97 61.6882 47.38 62.2876 47.81 62.2876C49.05 62.3076 50.33 62.2477 51.52 61.9279C52.73 61.6182 53.8699 61.0188 55.0099 60.4593C57.7699 59.1006 60.45 58.9507 63.11 60.7091Z" fill="#C1B293"/>
<path d="M308.29 72.3683C308.82 73.2575 309.18 74.2465 309.83 75.6652C307.16 74.9958 305.04 74.4064 302.9 73.9468C294.73 72.1784 286.42 71.8488 278.11 71.7489C265.46 71.589 252.86 72.2884 240.29 73.6271C231.87 74.5363 223.41 75.0858 214.97 75.855C206.21 76.6543 197.53 77.9431 189.09 80.5807C182.48 82.6488 176.31 85.586 170.98 90.1019C170.3 90.6813 169.75 91.4106 168.45 92.7993L167.63 93.0391C167.41 92.8693 167.19 92.6595 166.97 92.4197C166.35 91.7303 165.48 91.2608 164.69 90.7313C161.49 88.6132 158.17 86.665 155.11 84.3672C145.97 77.5335 135.58 73.5971 124.58 71.0994C106.99 67.1131 89.17 65.9143 71.21 67.3829C61.17 68.2022 51.28 70.1603 41.46 72.3683C33.99 74.0567 26.5599 75.945 19.1299 77.8332C16.4099 78.5226 13.75 79.4717 10 80.6406C11.77 78.6425 12.76 77.4436 13.84 76.3246C22.19 67.7326 30.4799 59.0706 38.9499 50.5885C46.4399 43.0954 53.05 34.933 58.73 25.9913C61.21 22.0849 63.78 18.2384 66.37 14.402C67.8 12.2839 69.36 10.2658 71.03 7.95798C75.94 7.08878 80.93 6.03974 85.97 5.35038C92.62 4.44122 99.28 3.61199 105.97 3.13243C114 2.56296 121.92 3.9317 129.79 5.30044C134.98 6.1996 140.13 7.34853 145.22 8.69728C152.37 10.5955 159.13 13.4029 164.89 18.2185C165.24 18.5182 165.75 18.6181 166.15 18.7979C166.5 18.708 166.86 18.728 167.08 18.5581C175.6 12.1741 185.42 8.93707 195.7 6.98887C205.59 5.1206 215.57 3.73188 225.68 3.70191C233.54 3.68193 241.33 4.06158 248.9 6.47934C251.089 7.18868 253.04 8.07786 254.56 9.85621C256.31 11.9243 258.16 13.9025 259.94 15.9406C261.73 17.9887 263.4 20.1367 265.259 22.1148C271.499 28.7487 277.799 35.3226 284.079 41.9165C284.669 42.5359 285.129 43.4351 286.169 43.3452C285.98 44.3842 286.85 44.9337 287.399 45.5731C290.319 48.96 293.319 52.2869 296.209 55.7037C300.65 60.9589 304.79 66.4338 308.29 72.3683ZM284.72 65.1749C284.68 64.9052 284.63 64.6354 284.59 64.3557C283.47 64.4256 282.351 64.4956 281.24 64.5655C281.25 64.7653 281.25 64.9751 281.26 65.1749C282.41 65.1749 283.57 65.1749 284.72 65.1749ZM274.02 52.7265C270.69 51.7474 267.45 51.4277 263.459 53.5657C265.35 53.5657 266.27 53.6456 267.179 53.5557C269.46 53.3159 271.74 53.0062 274.02 52.7265ZM263.56 62.897C258.4 62.8171 253.48 63.8162 248.56 65.3848C249.339 65.3848 250.12 65.4547 250.879 65.3748C254.999 64.9352 259.109 64.4556 263.23 63.9461C263.34 63.9361 263.39 63.4465 263.56 62.897ZM263.3 39.4488C262.7 39.4987 262.061 39.4388 261.5 39.6286C257.05 41.1372 252.45 41.4569 247.8 41.407C243.811 41.367 239.821 41.387 235.83 41.2571C231.17 41.1072 226.61 41.6268 222.15 43.0455C218.46 44.2244 214.67 44.604 210.8 44.3143C208.89 44.1844 206.98 44.0845 205.07 43.9546C198.81 43.545 192.65 44.2943 186.58 45.7729C185.99 45.9228 185.48 46.3624 184.93 46.6621C186.52 46.9918 187.91 46.782 189.28 46.5122C195.9 45.2134 202.59 44.5341 209.27 45.5431C213.18 46.1426 216.96 45.9528 220.61 44.7938C227.91 42.486 235.31 42.2462 242.86 42.5959C247.15 42.7857 251.469 42.5359 255.759 42.2662C258.43 42.0963 261.09 41.5468 263.3 39.4488ZM255.65 33.5243C256.049 33.7041 256.61 33.5343 257.299 33.5343C256.32 31.9458 255.06 31.636 253.779 31.676C251.409 31.7659 249.029 31.9957 246.669 32.2555C243.829 32.5652 240.949 33.5143 238.169 33.2545C231.489 32.6251 225.399 35.0728 219.019 36.4216C219.589 36.5315 220.179 36.7913 220.729 36.7213C222.619 36.4915 224.509 36.1918 226.379 35.8221C229.189 35.2726 231.939 34.4234 234.869 34.6133C239.669 34.923 244.409 34.3735 249.089 33.2345C251.3 32.695 253.48 32.5752 255.65 33.5243ZM249.59 53.6156C251.651 54.0153 253.7 54.4948 256.13 53.3759C252.56 52.6665 252.56 52.6665 249.59 53.6156ZM248.95 23.6534C251.15 24.0331 253.35 24.2329 255.59 23.5136C250.901 22.5345 246.231 21.6852 241.481 21.5254C240.531 21.4954 239.561 21.6553 238.63 21.8451C232.521 23.034 226.41 24.2429 220.31 25.5017C219.7 25.6216 219.17 26.0912 218.6 26.4009C219.87 26.8305 220.97 26.8205 222.04 26.6107C226.27 25.7914 230.53 25.0721 234.7 24.0031C239.46 22.7942 244.18 22.8142 248.95 23.6534ZM247.87 13.2131C245.41 12.214 243.67 13.4828 241.88 13.8125C239.47 14.2421 237.17 14.5619 234.82 13.6727C231.79 12.5237 228.86 12.7635 226.09 14.462C224.48 15.451 222.8 15.461 221.01 15.0913C219.61 14.8116 218.16 14.6418 216.74 14.6418C214.97 14.6318 214.88 14.7717 212.93 16.2003C215.86 16.3102 218.99 16.52 222.11 16.51C223.51 16.5001 225.06 16.3702 226.27 15.7707C229.01 14.402 231.63 14.2721 234.59 15.0814C239.05 16.3202 243.33 15.2412 247.87 13.2131ZM239.18 65.6145C237.731 65.1849 236.731 65.2349 236.16 66.7235C237.51 67.253 238.35 66.7934 239.18 65.6145ZM242.21 53.3559C238.8 53.7156 235.38 54.0652 231.981 54.4649C231.641 54.5048 231.351 54.9344 230.751 55.404C235.04 55.9934 238.78 55.434 242.21 53.3559ZM215.03 67.9424C214.37 67.6527 214.08 67.4029 213.8 67.4229C209.85 67.6526 205.91 67.9124 201.96 68.1722C201.49 68.2021 201 68.1822 200.55 68.312C197.66 69.1513 194.78 70.0205 191.9 70.8996C191.64 70.9796 191.45 71.2793 190.92 71.7489C191.89 71.8388 192.62 72.0586 193.27 71.9187C194.66 71.629 196 71.0895 197.38 70.7498C199.37 70.2602 201.36 69.7007 203.38 69.4809C206.69 69.1213 210.02 69.0514 213.34 68.7816C213.84 68.7416 214.31 68.312 215.03 67.9424ZM209.38 32.9848C205.64 27.3999 203.9 20.7961 199.43 15.3012C193.26 16.8597 187.14 18.4083 180.69 20.0368C180.69 20.8161 180.61 21.7552 180.71 22.6743C181.07 26.321 181.47 29.9676 181.9 33.6142C182.04 34.8231 182.28 36.012 182.46 37.1609C190.3 37.4706 202.64 35.5724 209.38 32.9848ZM203.22 57.0625C203.5 57.1624 203.89 56.9326 204.51 56.7927C200.95 54.7746 199.85 54.4749 196.67 55.1542C192.82 55.9735 189 56.9526 185.16 57.8617C185.13 58.1315 185.11 58.3912 185.08 58.661C186.46 58.5511 187.87 58.5511 189.23 58.3113C190.64 58.0615 192 57.612 193.38 57.2223C196.65 56.2732 199.91 55.9635 203.22 57.0625ZM167.6 62.8071C168.59 53.4658 169.38 44.1045 169.02 34.6932C168.9 31.706 168.54 28.7787 166.89 26.0212C167.07 28.2092 167.29 30.4072 167.43 32.5951C167.61 35.4525 167.95 38.3298 167.82 41.1772C167.54 47.0617 167.08 52.9363 166.54 58.8008C165.98 64.8153 165.15 70.8097 164.61 76.8341C164.38 79.3518 164.54 81.9094 164.67 84.4471C164.7 85.0565 165.28 85.646 165.82 86.6251C166 81.7895 166.04 77.5035 166.35 73.2375C166.6 69.7507 167.24 66.2939 167.6 62.8071ZM150.23 71.8388C153.71 71.0395 156.08 67.9823 155.89 64.6255C155.76 62.2976 154.4 60.839 152.07 60.5093C150.52 60.2795 148.96 60.1196 147.41 59.8399C144.3 59.2904 141.62 60.7291 140.58 63.5864C139.54 66.4238 140.6 69.5209 143.32 70.9196C144.69 71.619 146.29 71.8587 147.31 72.1685C148.66 72.0186 149.46 72.0186 150.23 71.8388ZM148.79 29.9376C149.49 30.0175 150.26 30.7269 151.12 29.6279C149.94 28.5489 148.68 28.5289 146.77 29.2582C147.73 29.5879 148.25 29.8777 148.79 29.9376ZM141.03 44.2244C142.89 44.3143 144.77 44.2444 146.64 44.2444C146.01 43.4651 145.31 43.2153 144.6 43.1254C142.22 42.8556 139.81 42.7757 137.46 42.3661C131.95 41.387 126.45 40.4079 120.81 40.5877C119.86 40.6177 118.87 40.5378 117.95 40.298C114.06 39.259 110.33 39.7985 106.73 41.377C103.71 42.7058 100.81 42.3661 97.9 41.1172C97.02 40.7376 96.14 40.3479 95.29 39.9183C92.65 38.5696 89.86 38.13 86.92 38.3798C82.14 38.7994 77.3399 39.0292 72.5799 39.6186C69.9599 39.9383 67.22 40.2281 64.92 42.486C65.84 42.3361 66.76 42.1862 67.68 42.0464C71.3 41.4869 74.92 40.8875 78.55 40.3979C80.77 40.0982 83.02 40.0582 85.23 39.7285C88.33 39.259 91.28 39.5587 94.11 40.9174C95.12 41.407 96.16 41.8266 97.18 42.2762C100.55 43.7948 103.98 44.0245 107.4 42.5359C110.93 41.0073 114.54 41.0573 118.23 41.6767C119.64 41.9165 121.09 42.2562 122.5 42.1663C127.35 41.8665 132.05 42.7357 136.76 43.6749C138.17 43.9546 139.6 44.1544 141.03 44.2244ZM138.13 21.0958C138.9 21.2756 139.77 21.0159 140.59 20.9559C136.69 19.3974 132.74 18.3683 128.78 17.3992C128.38 17.2993 127.89 17.5491 126.99 17.7289C130.73 19.7371 134.49 20.2366 138.13 21.0958ZM137.44 28.389C137.82 28.439 138.24 28.1592 139.56 27.7396C131.53 25.3818 124.51 24.0331 117.25 25.6316C118.46 25.9913 119.7 26.2011 120.92 26.1311C125.28 25.8714 129.51 26.4209 133.69 27.6697C134.9 28.0294 136.18 28.2192 137.44 28.389ZM129.87 55.2441C132.1 55.8935 134.38 56.9326 136.79 55.3241C132.48 55.2442 128.81 53.4558 125.18 51.5076C124.34 51.058 123.46 50.6784 122.58 50.3087C115.66 47.4314 108.55 46.4323 101.05 47.3714C90.29 48.7102 79.52 50.059 68.65 50.1489C68.24 50.1489 67.82 50.3387 67.44 50.4286C67.42 51.4077 68.05 51.6575 68.68 51.6475C70.27 51.6475 71.8699 51.5875 73.4499 51.4377C84.0899 50.4186 94.72 49.3396 105.36 48.3505C106.93 48.2007 108.56 48.1907 110.13 48.4205C115.67 49.2297 121.06 50.6085 125.98 53.4258C127.22 54.1352 128.51 54.8545 129.87 55.2441ZM115.3 17.0296C115.35 17.0196 115.42 16.7498 115.4 16.61C115.38 16.4801 115.26 16.2603 115.18 16.2603C114.19 16.2703 113.21 16.3202 112.22 16.3602C112.22 16.6699 112.22 16.9896 112.21 17.2993C113.24 17.2194 114.27 17.1395 115.3 17.0296ZM109.71 63.2667C110.34 63.3167 110.97 63.2767 112.73 63.2767C108.68 61.3485 101.28 60.9389 97.98 62.0379C98.09 62.1478 98.19 62.3576 98.31 62.3675C102.11 62.6773 105.91 62.987 109.71 63.2667ZM106.61 16.2003C107.3 16.1903 107.84 15.9905 107.44 14.7816C102.64 14.8016 97.74 13.6926 92.84 15.3111C91.1 15.8906 89.42 15.451 87.77 14.6018C86.67 14.0423 85.31 13.5128 84.15 13.6627C81.55 13.9924 79.06 14.9515 76.3 16.0805C77.04 16.3602 77.35 16.6099 77.61 16.56C78.7 16.3602 79.8 16.1504 80.86 15.8107C83.21 15.0614 85.44 14.6518 87.74 16.1604C89.25 17.1494 91.0099 17.2494 92.8199 16.6899C96.3899 15.5809 100.05 15.511 103.74 16.0904C104.68 16.2303 105.65 16.2003 106.61 16.2003ZM105.25 25.142C105.49 25.1121 105.7 24.7624 106.06 24.4327C104.12 23.8133 102.25 24.133 100.42 24.3028C97.72 24.5526 94.99 24.7324 92.35 25.3119C88.72 26.1111 85.43 25.7215 82.21 23.8432C81.32 23.3237 80.0899 23.2638 79.0099 23.2039C78.2199 23.1539 75.6399 24.8223 74.0699 26.0812C74.1699 26.2011 74.24 26.4209 74.36 26.4508C76.66 27.0103 77.8399 24.3028 80.3899 24.5326C81.0899 24.8323 82.15 25.192 83.1 25.7615C85.11 26.9804 87.3 27.2801 89.56 27.0303C94.8 26.4508 100.02 25.8014 105.25 25.142ZM92.62 60.4593C92.67 60.4593 92.73 60.2395 92.91 59.8299C91.54 59.2404 90.31 58.3713 88.86 60.2595C90.12 60.3294 91.37 60.4094 92.62 60.4593ZM75.52 58.9807C77.28 59.2504 79.08 59.5302 81.85 59.9698C79.76 57.9516 78.19 57.602 76.44 57.7818C75.76 57.8517 75.28 58.1015 75.52 58.9807ZM63.11 60.7091C63.58 61.0188 64.15 61.1687 65.16 61.5883C62.79 58.4412 60.6799 57.4421 57.8199 58.1015C56.2899 58.4412 54.8 59.0506 53.37 59.69C51.25 60.6292 49.16 61.5383 46.55 61.3585C46.97 61.6882 47.38 62.2876 47.81 62.2876C49.05 62.3076 50.33 62.2477 51.52 61.9279C52.73 61.6182 53.8699 61.0188 55.0099 60.4593C57.7699 59.1006 60.45 58.9507 63.11 60.7091Z" stroke="#FAEA3A" stroke-width="6" mask="url(#path-3-outside-1_126_3460)"/>
</svg>
