<svg width="306" height="93" viewBox="0 0 306 93" fill="none" xmlns="http://www.w3.org/2000/svg">
<path d="M75 6L163 20L151.5 47L118.5 61.5H40L75 6Z" fill="black"/>
<path d="M156.5 23.5L194.5 7L246.5 8L288 64L228.5 65.5L193 71.5L158.5 84.5L156.5 23.5Z" fill="black"/>
<rect x="168" y="12" width="37" height="23" fill="#D84646"/>
<rect x="133" y="55" width="19" height="15" fill="#D84646"/>
<mask id="path-5-outside-1_126_3443" maskUnits="userSpaceOnUse" x="0" y="0" width="306" height="93" fill="black">
<rect fill="white" width="306" height="93"/>
<path d="M302.29 70.3683C302.82 71.2575 303.18 72.2465 303.83 73.6652C301.16 72.9958 299.04 72.4064 296.9 71.9468C288.73 70.1784 280.42 69.8488 272.11 69.7489C259.46 69.589 246.86 70.2884 234.29 71.6271C225.87 72.5363 217.41 73.0858 208.97 73.855C200.21 74.6543 191.53 75.9431 183.09 78.5807C176.48 80.6488 170.31 83.586 164.98 88.1019C164.3 88.6813 163.75 89.4106 162.45 90.7993L161.63 91.0391C161.41 90.8693 161.19 90.6595 160.97 90.4197C160.35 89.7303 159.48 89.2608 158.69 88.7313C155.49 86.6132 152.17 84.665 149.11 82.3672C139.97 75.5335 129.58 71.5971 118.58 69.0994C100.99 65.1131 83.17 63.9143 65.21 65.3829C55.17 66.2022 45.28 68.1603 35.46 70.3683C27.99 72.0567 20.5599 73.945 13.1299 75.8332C10.4099 76.5226 7.75 77.4717 4 78.6406C5.77 76.6425 6.75997 75.4436 7.83997 74.3246C16.19 65.7326 24.4799 57.0706 32.9499 48.5885C40.4399 41.0954 47.05 32.933 52.73 23.9913C55.21 20.0849 57.78 16.2384 60.37 12.402C61.8 10.2839 63.36 8.26584 65.03 5.95798C69.94 5.08878 74.93 4.03974 79.97 3.35038C86.62 2.44122 93.28 1.61199 99.97 1.13243C108 0.562959 115.92 1.9317 123.79 3.30044C128.98 4.1996 134.13 5.34853 139.22 6.69728C146.37 8.59552 153.13 11.4029 158.89 16.2185C159.24 16.5182 159.75 16.6181 160.15 16.7979C160.5 16.708 160.86 16.728 161.08 16.5581C169.6 10.1741 179.42 6.93707 189.7 4.98887C199.59 3.1206 209.57 1.73188 219.68 1.70191C227.54 1.68193 235.33 2.06158 242.9 4.47934C245.089 5.18868 247.04 6.07786 248.56 7.85621C250.31 9.92429 252.16 11.9025 253.94 13.9406C255.73 15.9887 257.4 18.1367 259.259 20.1148C265.499 26.7487 271.799 33.3226 278.079 39.9165C278.669 40.5359 279 41 279.5 41.5C280 42 280.85 42.9337 281.399 43.5731C284.319 46.96 287.319 50.2869 290.209 53.7037C294.65 58.9589 298.79 64.4338 302.29 70.3683ZM278.72 63.1749C278.68 62.9052 278.63 62.6354 278.59 62.3557C277.47 62.4256 276.351 62.4956 275.24 62.5655C275.25 62.7653 275.25 62.9751 275.26 63.1749C276.41 63.1749 277.57 63.1749 278.72 63.1749ZM268.02 50.7265C264.69 49.7474 261.45 49.4277 257.459 51.5657C259.35 51.5657 260.27 51.6456 261.179 51.5557C263.46 51.3159 265.74 51.0062 268.02 50.7265ZM257.56 60.897C252.4 60.8171 247.48 61.8162 242.56 63.3848C243.339 63.3848 244.12 63.4547 244.879 63.3748C248.999 62.9352 253.109 62.4556 257.23 61.9461C257.34 61.9361 257.39 61.4465 257.56 60.897ZM257.3 37.4488C256.7 37.4987 256.061 37.4388 255.5 37.6286C251.05 39.1372 246.45 39.4569 241.8 39.407C237.811 39.367 233.821 39.387 229.83 39.2571C225.17 39.1072 220.61 39.6268 216.15 41.0455C212.46 42.2244 208.67 42.604 204.8 42.3143C202.89 42.1844 200.98 42.0845 199.07 41.9546C192.81 41.545 186.65 42.2943 180.58 43.7729C179.99 43.9228 179.48 44.3624 178.93 44.6621C180.52 44.9918 181.91 44.782 183.28 44.5122C189.9 43.2134 196.59 42.5341 203.27 43.5431C207.18 44.1426 210.96 43.9528 214.61 42.7938C221.91 40.486 229.31 40.2462 236.86 40.5959C241.15 40.7857 245.469 40.5359 249.759 40.2662C252.43 40.0963 255.09 39.5468 257.3 37.4488ZM249.65 31.5243C250.049 31.7041 250.61 31.5343 251.299 31.5343C250.32 29.9458 249.06 29.636 247.779 29.676C245.409 29.7659 243.029 29.9957 240.669 30.2555C237.829 30.5652 234.949 31.5143 232.169 31.2545C225.489 30.6251 219.399 33.0728 213.019 34.4216C213.589 34.5315 214.179 34.7913 214.729 34.7213C216.619 34.4915 218.509 34.1918 220.379 33.8221C223.189 33.2726 225.939 32.4234 228.869 32.6133C233.669 32.923 238.409 32.3735 243.089 31.2345C245.3 30.695 247.48 30.5752 249.65 31.5243ZM243.59 51.6156C245.651 52.0153 247.7 52.4948 250.13 51.3759C246.56 50.6665 246.56 50.6665 243.59 51.6156ZM242.95 21.6534C245.15 22.0331 247.35 22.2329 249.59 21.5136C244.901 20.5345 240.231 19.6852 235.481 19.5254C234.531 19.4954 233.561 19.6553 232.63 19.8451C226.521 21.034 220.41 22.2429 214.31 23.5017C213.7 23.6216 213.17 24.0912 212.6 24.4009C213.87 24.8305 214.97 24.8205 216.04 24.6107C220.27 23.7914 224.53 23.0721 228.7 22.0031C233.46 20.7942 238.18 20.8142 242.95 21.6534ZM241.87 11.2131C239.41 10.214 237.67 11.4828 235.88 11.8125C233.47 12.2421 231.17 12.5619 228.82 11.6727C225.79 10.5237 222.86 10.7635 220.09 12.462C218.48 13.451 216.8 13.461 215.01 13.0913C213.61 12.8116 212.16 12.6418 210.74 12.6418C208.97 12.6318 208.88 12.7717 206.93 14.2003C209.86 14.3102 212.99 14.52 216.11 14.51C217.51 14.5001 219.06 14.3702 220.27 13.7707C223.01 12.402 225.63 12.2721 228.59 13.0814C233.05 14.3202 237.33 13.2412 241.87 11.2131ZM233.18 63.6145C231.731 63.1849 230.731 63.2349 230.16 64.7235C231.51 65.253 232.35 64.7934 233.18 63.6145ZM236.21 51.3559C232.8 51.7156 229.38 52.0652 225.981 52.4649C225.641 52.5048 225.351 52.9344 224.751 53.404C229.04 53.9934 232.78 53.434 236.21 51.3559ZM209.03 65.9424C208.37 65.6527 208.08 65.4029 207.8 65.4229C203.85 65.6526 199.91 65.9124 195.96 66.1722C195.49 66.2021 195 66.1822 194.55 66.312C191.66 67.1513 188.78 68.0205 185.9 68.8996C185.64 68.9796 185.45 69.2793 184.92 69.7489C185.89 69.8388 186.62 70.0586 187.27 69.9187C188.66 69.629 190 69.0895 191.38 68.7498C193.37 68.2602 195.36 67.7007 197.38 67.4809C200.69 67.1213 204.02 67.0514 207.34 66.7816C207.84 66.7416 208.31 66.312 209.03 65.9424ZM203.38 30.9848C199.64 25.3999 197.9 18.7961 193.43 13.3012C187.26 14.8597 181.14 16.4083 174.69 18.0368C174.69 18.8161 174.61 19.7552 174.71 20.6743C175.07 24.321 175.47 27.9676 175.9 31.6142C176.04 32.8231 176.28 34.012 176.46 35.1609C184.3 35.4706 196.64 33.5724 203.38 30.9848ZM197.22 55.0625C197.5 55.1624 197.89 54.9326 198.51 54.7927C194.95 52.7746 193.85 52.4749 190.67 53.1542C186.82 53.9735 183 54.9526 179.16 55.8617C179.13 56.1315 179.11 56.3912 179.08 56.661C180.46 56.5511 181.87 56.5511 183.23 56.3113C184.64 56.0615 186 55.612 187.38 55.2223C190.65 54.2732 193.91 53.9635 197.22 55.0625ZM161.6 60.8071C162.59 51.4658 163.38 42.1045 163.02 32.6932C162.9 29.706 162.54 26.7787 160.89 24.0212C161.07 26.2092 161.29 28.4072 161.43 30.5951C161.61 33.4525 161.95 36.3298 161.82 39.1772C161.54 45.0617 161.08 50.9363 160.54 56.8008C159.98 62.8153 159.15 68.8097 158.61 74.8341C158.38 77.3518 158.54 79.9094 158.67 82.4471C158.7 83.0565 159.28 83.646 159.82 84.6251C160 79.7895 160.04 75.5035 160.35 71.2375C160.6 67.7507 161.24 64.2939 161.6 60.8071ZM144.23 69.8388C147.71 69.0395 150.08 65.9823 149.89 62.6255C149.76 60.2976 148.4 58.839 146.07 58.5093C144.52 58.2795 142.96 58.1196 141.41 57.8399C138.3 57.2904 135.62 58.7291 134.58 61.5864C133.54 64.4238 134.6 67.5209 137.32 68.9196C138.69 69.619 140.29 69.8587 141.31 70.1685C142.66 70.0186 143.46 70.0186 144.23 69.8388ZM142.79 27.9376C143.49 28.0175 144.26 28.7269 145.12 27.6279C143.94 26.5489 142.68 26.5289 140.77 27.2582C141.73 27.5879 142.25 27.8777 142.79 27.9376ZM135.03 42.2244C136.89 42.3143 138.77 42.2444 140.64 42.2444C140.01 41.4651 139.31 41.2153 138.6 41.1254C136.22 40.8556 133.81 40.7757 131.46 40.3661C125.95 39.387 120.45 38.4079 114.81 38.5877C113.86 38.6177 112.87 38.5378 111.95 38.298C108.06 37.259 104.33 37.7985 100.73 39.377C97.71 40.7058 94.81 40.3661 91.9 39.1172C91.02 38.7376 90.14 38.3479 89.29 37.9183C86.65 36.5696 83.86 36.13 80.92 36.3798C76.14 36.7994 71.3399 37.0292 66.5799 37.6186C63.9599 37.9383 61.22 38.2281 58.92 40.486C59.84 40.3361 60.76 40.1862 61.68 40.0464C65.3 39.4869 68.92 38.8875 72.55 38.3979C74.77 38.0982 77.02 38.0582 79.23 37.7285C82.33 37.259 85.28 37.5587 88.11 38.9174C89.12 39.407 90.16 39.8266 91.18 40.2762C94.55 41.7948 97.9799 42.0245 101.4 40.5359C104.93 39.0073 108.54 39.0573 112.23 39.6767C113.64 39.9165 115.09 40.2562 116.5 40.1663C121.35 39.8665 126.05 40.7357 130.76 41.6749C132.17 41.9546 133.6 42.1544 135.03 42.2244ZM132.13 19.0958C132.9 19.2756 133.77 19.0159 134.59 18.9559C130.69 17.3974 126.74 16.3683 122.78 15.3992C122.38 15.2993 121.89 15.5491 120.99 15.7289C124.73 17.7371 128.49 18.2366 132.13 19.0958ZM131.44 26.389C131.82 26.439 132.24 26.1592 133.56 25.7396C125.53 23.3818 118.51 22.0331 111.25 23.6316C112.46 23.9913 113.7 24.2011 114.92 24.1311C119.28 23.8714 123.51 24.4209 127.69 25.6697C128.9 26.0294 130.18 26.2192 131.44 26.389ZM123.87 53.2441C126.1 53.8935 128.38 54.9326 130.79 53.3241C126.48 53.2442 122.81 51.4558 119.18 49.5076C118.34 49.058 117.46 48.6784 116.58 48.3087C109.66 45.4314 102.55 44.4323 95.05 45.3714C84.29 46.7102 73.52 48.059 62.65 48.1489C62.24 48.1489 61.82 48.3387 61.44 48.4286C61.42 49.4077 62.05 49.6575 62.68 49.6475C64.27 49.6475 65.8699 49.5875 67.4499 49.4377C78.0899 48.4186 88.72 47.3396 99.36 46.3505C100.93 46.2007 102.56 46.1907 104.13 46.4205C109.67 47.2297 115.06 48.6085 119.98 51.4258C121.22 52.1352 122.51 52.8545 123.87 53.2441ZM109.3 15.0296C109.35 15.0196 109.42 14.7498 109.4 14.61C109.38 14.4801 109.26 14.2603 109.18 14.2603C108.19 14.2703 107.21 14.3202 106.22 14.3602C106.22 14.6699 106.22 14.9896 106.21 15.2993C107.24 15.2194 108.27 15.1395 109.3 15.0296ZM103.71 61.2667C104.34 61.3167 104.97 61.2767 106.73 61.2767C102.68 59.3485 95.28 58.9389 91.98 60.0379C92.09 60.1478 92.19 60.3576 92.31 60.3675C96.11 60.6773 99.9099 60.987 103.71 61.2667ZM100.61 14.2003C101.3 14.1903 101.84 13.9905 101.44 12.7816C96.64 12.8016 91.74 11.6926 86.84 13.3111C85.1 13.8906 83.42 13.451 81.77 12.6018C80.67 12.0423 79.31 11.5128 78.15 11.6627C75.55 11.9924 73.06 12.9515 70.3 14.0805C71.04 14.3602 71.35 14.6099 71.61 14.56C72.7 14.3602 73.8 14.1504 74.86 13.8107C77.21 13.0614 79.44 12.6518 81.74 14.1604C83.25 15.1494 85.0099 15.2494 86.8199 14.6899C90.3899 13.5809 94.05 13.511 97.74 14.0904C98.68 14.2303 99.65 14.2003 100.61 14.2003ZM99.25 23.142C99.49 23.1121 99.7 22.7624 100.06 22.4327C98.12 21.8133 96.25 22.133 94.42 22.3028C91.72 22.5526 88.99 22.7324 86.35 23.3119C82.72 24.1111 79.43 23.7215 76.21 21.8432C75.32 21.3237 74.0899 21.2638 73.0099 21.2039C72.2199 21.1539 69.6399 22.8223 68.0699 24.0812C68.1699 24.2011 68.24 24.4209 68.36 24.4508C70.66 25.0103 71.8399 22.3028 74.3899 22.5326C75.0899 22.8323 76.15 23.192 77.1 23.7615C79.11 24.9804 81.3 25.2801 83.56 25.0303C88.8 24.4508 94.02 23.8014 99.25 23.142ZM86.62 58.4593C86.67 58.4593 86.73 58.2395 86.91 57.8299C85.54 57.2404 84.31 56.3713 82.86 58.2595C84.12 58.3294 85.37 58.4094 86.62 58.4593ZM69.52 56.9807C71.28 57.2504 73.08 57.5302 75.85 57.9698C73.76 55.9516 72.19 55.602 70.44 55.7818C69.76 55.8517 69.28 56.1015 69.52 56.9807ZM57.11 58.7091C57.58 59.0188 58.15 59.1687 59.16 59.5883C56.79 56.4412 54.6799 55.4421 51.8199 56.1015C50.2899 56.4412 48.8 57.0506 47.37 57.69C45.25 58.6292 43.16 59.5383 40.55 59.3585C40.97 59.6882 41.38 60.2876 41.81 60.2876C43.05 60.3076 44.33 60.2477 45.52 59.9279C46.73 59.6182 47.8699 59.0188 49.0099 58.4593C51.7699 57.1006 54.45 56.9507 57.11 58.7091Z"/>
</mask>
<path d="M302.29 70.3683C302.82 71.2575 303.18 72.2465 303.83 73.6652C301.16 72.9958 299.04 72.4064 296.9 71.9468C288.73 70.1784 280.42 69.8488 272.11 69.7489C259.46 69.589 246.86 70.2884 234.29 71.6271C225.87 72.5363 217.41 73.0858 208.97 73.855C200.21 74.6543 191.53 75.9431 183.09 78.5807C176.48 80.6488 170.31 83.586 164.98 88.1019C164.3 88.6813 163.75 89.4106 162.45 90.7993L161.63 91.0391C161.41 90.8693 161.19 90.6595 160.97 90.4197C160.35 89.7303 159.48 89.2608 158.69 88.7313C155.49 86.6132 152.17 84.665 149.11 82.3672C139.97 75.5335 129.58 71.5971 118.58 69.0994C100.99 65.1131 83.17 63.9143 65.21 65.3829C55.17 66.2022 45.28 68.1603 35.46 70.3683C27.99 72.0567 20.5599 73.945 13.1299 75.8332C10.4099 76.5226 7.75 77.4717 4 78.6406C5.77 76.6425 6.75997 75.4436 7.83997 74.3246C16.19 65.7326 24.4799 57.0706 32.9499 48.5885C40.4399 41.0954 47.05 32.933 52.73 23.9913C55.21 20.0849 57.78 16.2384 60.37 12.402C61.8 10.2839 63.36 8.26584 65.03 5.95798C69.94 5.08878 74.93 4.03974 79.97 3.35038C86.62 2.44122 93.28 1.61199 99.97 1.13243C108 0.562959 115.92 1.9317 123.79 3.30044C128.98 4.1996 134.13 5.34853 139.22 6.69728C146.37 8.59552 153.13 11.4029 158.89 16.2185C159.24 16.5182 159.75 16.6181 160.15 16.7979C160.5 16.708 160.86 16.728 161.08 16.5581C169.6 10.1741 179.42 6.93707 189.7 4.98887C199.59 3.1206 209.57 1.73188 219.68 1.70191C227.54 1.68193 235.33 2.06158 242.9 4.47934C245.089 5.18868 247.04 6.07786 248.56 7.85621C250.31 9.92429 252.16 11.9025 253.94 13.9406C255.73 15.9887 257.4 18.1367 259.259 20.1148C265.499 26.7487 271.799 33.3226 278.079 39.9165C278.669 40.5359 279 41 279.5 41.5C280 42 280.85 42.9337 281.399 43.5731C284.319 46.96 287.319 50.2869 290.209 53.7037C294.65 58.9589 298.79 64.4338 302.29 70.3683ZM278.72 63.1749C278.68 62.9052 278.63 62.6354 278.59 62.3557C277.47 62.4256 276.351 62.4956 275.24 62.5655C275.25 62.7653 275.25 62.9751 275.26 63.1749C276.41 63.1749 277.57 63.1749 278.72 63.1749ZM268.02 50.7265C264.69 49.7474 261.45 49.4277 257.459 51.5657C259.35 51.5657 260.27 51.6456 261.179 51.5557C263.46 51.3159 265.74 51.0062 268.02 50.7265ZM257.56 60.897C252.4 60.8171 247.48 61.8162 242.56 63.3848C243.339 63.3848 244.12 63.4547 244.879 63.3748C248.999 62.9352 253.109 62.4556 257.23 61.9461C257.34 61.9361 257.39 61.4465 257.56 60.897ZM257.3 37.4488C256.7 37.4987 256.061 37.4388 255.5 37.6286C251.05 39.1372 246.45 39.4569 241.8 39.407C237.811 39.367 233.821 39.387 229.83 39.2571C225.17 39.1072 220.61 39.6268 216.15 41.0455C212.46 42.2244 208.67 42.604 204.8 42.3143C202.89 42.1844 200.98 42.0845 199.07 41.9546C192.81 41.545 186.65 42.2943 180.58 43.7729C179.99 43.9228 179.48 44.3624 178.93 44.6621C180.52 44.9918 181.91 44.782 183.28 44.5122C189.9 43.2134 196.59 42.5341 203.27 43.5431C207.18 44.1426 210.96 43.9528 214.61 42.7938C221.91 40.486 229.31 40.2462 236.86 40.5959C241.15 40.7857 245.469 40.5359 249.759 40.2662C252.43 40.0963 255.09 39.5468 257.3 37.4488ZM249.65 31.5243C250.049 31.7041 250.61 31.5343 251.299 31.5343C250.32 29.9458 249.06 29.636 247.779 29.676C245.409 29.7659 243.029 29.9957 240.669 30.2555C237.829 30.5652 234.949 31.5143 232.169 31.2545C225.489 30.6251 219.399 33.0728 213.019 34.4216C213.589 34.5315 214.179 34.7913 214.729 34.7213C216.619 34.4915 218.509 34.1918 220.379 33.8221C223.189 33.2726 225.939 32.4234 228.869 32.6133C233.669 32.923 238.409 32.3735 243.089 31.2345C245.3 30.695 247.48 30.5752 249.65 31.5243ZM243.59 51.6156C245.651 52.0153 247.7 52.4948 250.13 51.3759C246.56 50.6665 246.56 50.6665 243.59 51.6156ZM242.95 21.6534C245.15 22.0331 247.35 22.2329 249.59 21.5136C244.901 20.5345 240.231 19.6852 235.481 19.5254C234.531 19.4954 233.561 19.6553 232.63 19.8451C226.521 21.034 220.41 22.2429 214.31 23.5017C213.7 23.6216 213.17 24.0912 212.6 24.4009C213.87 24.8305 214.97 24.8205 216.04 24.6107C220.27 23.7914 224.53 23.0721 228.7 22.0031C233.46 20.7942 238.18 20.8142 242.95 21.6534ZM241.87 11.2131C239.41 10.214 237.67 11.4828 235.88 11.8125C233.47 12.2421 231.17 12.5619 228.82 11.6727C225.79 10.5237 222.86 10.7635 220.09 12.462C218.48 13.451 216.8 13.461 215.01 13.0913C213.61 12.8116 212.16 12.6418 210.74 12.6418C208.97 12.6318 208.88 12.7717 206.93 14.2003C209.86 14.3102 212.99 14.52 216.11 14.51C217.51 14.5001 219.06 14.3702 220.27 13.7707C223.01 12.402 225.63 12.2721 228.59 13.0814C233.05 14.3202 237.33 13.2412 241.87 11.2131ZM233.18 63.6145C231.731 63.1849 230.731 63.2349 230.16 64.7235C231.51 65.253 232.35 64.7934 233.18 63.6145ZM236.21 51.3559C232.8 51.7156 229.38 52.0652 225.981 52.4649C225.641 52.5048 225.351 52.9344 224.751 53.404C229.04 53.9934 232.78 53.434 236.21 51.3559ZM209.03 65.9424C208.37 65.6527 208.08 65.4029 207.8 65.4229C203.85 65.6526 199.91 65.9124 195.96 66.1722C195.49 66.2021 195 66.1822 194.55 66.312C191.66 67.1513 188.78 68.0205 185.9 68.8996C185.64 68.9796 185.45 69.2793 184.92 69.7489C185.89 69.8388 186.62 70.0586 187.27 69.9187C188.66 69.629 190 69.0895 191.38 68.7498C193.37 68.2602 195.36 67.7007 197.38 67.4809C200.69 67.1213 204.02 67.0514 207.34 66.7816C207.84 66.7416 208.31 66.312 209.03 65.9424ZM203.38 30.9848C199.64 25.3999 197.9 18.7961 193.43 13.3012C187.26 14.8597 181.14 16.4083 174.69 18.0368C174.69 18.8161 174.61 19.7552 174.71 20.6743C175.07 24.321 175.47 27.9676 175.9 31.6142C176.04 32.8231 176.28 34.012 176.46 35.1609C184.3 35.4706 196.64 33.5724 203.38 30.9848ZM197.22 55.0625C197.5 55.1624 197.89 54.9326 198.51 54.7927C194.95 52.7746 193.85 52.4749 190.67 53.1542C186.82 53.9735 183 54.9526 179.16 55.8617C179.13 56.1315 179.11 56.3912 179.08 56.661C180.46 56.5511 181.87 56.5511 183.23 56.3113C184.64 56.0615 186 55.612 187.38 55.2223C190.65 54.2732 193.91 53.9635 197.22 55.0625ZM161.6 60.8071C162.59 51.4658 163.38 42.1045 163.02 32.6932C162.9 29.706 162.54 26.7787 160.89 24.0212C161.07 26.2092 161.29 28.4072 161.43 30.5951C161.61 33.4525 161.95 36.3298 161.82 39.1772C161.54 45.0617 161.08 50.9363 160.54 56.8008C159.98 62.8153 159.15 68.8097 158.61 74.8341C158.38 77.3518 158.54 79.9094 158.67 82.4471C158.7 83.0565 159.28 83.646 159.82 84.6251C160 79.7895 160.04 75.5035 160.35 71.2375C160.6 67.7507 161.24 64.2939 161.6 60.8071ZM144.23 69.8388C147.71 69.0395 150.08 65.9823 149.89 62.6255C149.76 60.2976 148.4 58.839 146.07 58.5093C144.52 58.2795 142.96 58.1196 141.41 57.8399C138.3 57.2904 135.62 58.7291 134.58 61.5864C133.54 64.4238 134.6 67.5209 137.32 68.9196C138.69 69.619 140.29 69.8587 141.31 70.1685C142.66 70.0186 143.46 70.0186 144.23 69.8388ZM142.79 27.9376C143.49 28.0175 144.26 28.7269 145.12 27.6279C143.94 26.5489 142.68 26.5289 140.77 27.2582C141.73 27.5879 142.25 27.8777 142.79 27.9376ZM135.03 42.2244C136.89 42.3143 138.77 42.2444 140.64 42.2444C140.01 41.4651 139.31 41.2153 138.6 41.1254C136.22 40.8556 133.81 40.7757 131.46 40.3661C125.95 39.387 120.45 38.4079 114.81 38.5877C113.86 38.6177 112.87 38.5378 111.95 38.298C108.06 37.259 104.33 37.7985 100.73 39.377C97.71 40.7058 94.81 40.3661 91.9 39.1172C91.02 38.7376 90.14 38.3479 89.29 37.9183C86.65 36.5696 83.86 36.13 80.92 36.3798C76.14 36.7994 71.3399 37.0292 66.5799 37.6186C63.9599 37.9383 61.22 38.2281 58.92 40.486C59.84 40.3361 60.76 40.1862 61.68 40.0464C65.3 39.4869 68.92 38.8875 72.55 38.3979C74.77 38.0982 77.02 38.0582 79.23 37.7285C82.33 37.259 85.28 37.5587 88.11 38.9174C89.12 39.407 90.16 39.8266 91.18 40.2762C94.55 41.7948 97.9799 42.0245 101.4 40.5359C104.93 39.0073 108.54 39.0573 112.23 39.6767C113.64 39.9165 115.09 40.2562 116.5 40.1663C121.35 39.8665 126.05 40.7357 130.76 41.6749C132.17 41.9546 133.6 42.1544 135.03 42.2244ZM132.13 19.0958C132.9 19.2756 133.77 19.0159 134.59 18.9559C130.69 17.3974 126.74 16.3683 122.78 15.3992C122.38 15.2993 121.89 15.5491 120.99 15.7289C124.73 17.7371 128.49 18.2366 132.13 19.0958ZM131.44 26.389C131.82 26.439 132.24 26.1592 133.56 25.7396C125.53 23.3818 118.51 22.0331 111.25 23.6316C112.46 23.9913 113.7 24.2011 114.92 24.1311C119.28 23.8714 123.51 24.4209 127.69 25.6697C128.9 26.0294 130.18 26.2192 131.44 26.389ZM123.87 53.2441C126.1 53.8935 128.38 54.9326 130.79 53.3241C126.48 53.2442 122.81 51.4558 119.18 49.5076C118.34 49.058 117.46 48.6784 116.58 48.3087C109.66 45.4314 102.55 44.4323 95.05 45.3714C84.29 46.7102 73.52 48.059 62.65 48.1489C62.24 48.1489 61.82 48.3387 61.44 48.4286C61.42 49.4077 62.05 49.6575 62.68 49.6475C64.27 49.6475 65.8699 49.5875 67.4499 49.4377C78.0899 48.4186 88.72 47.3396 99.36 46.3505C100.93 46.2007 102.56 46.1907 104.13 46.4205C109.67 47.2297 115.06 48.6085 119.98 51.4258C121.22 52.1352 122.51 52.8545 123.87 53.2441ZM109.3 15.0296C109.35 15.0196 109.42 14.7498 109.4 14.61C109.38 14.4801 109.26 14.2603 109.18 14.2603C108.19 14.2703 107.21 14.3202 106.22 14.3602C106.22 14.6699 106.22 14.9896 106.21 15.2993C107.24 15.2194 108.27 15.1395 109.3 15.0296ZM103.71 61.2667C104.34 61.3167 104.97 61.2767 106.73 61.2767C102.68 59.3485 95.28 58.9389 91.98 60.0379C92.09 60.1478 92.19 60.3576 92.31 60.3675C96.11 60.6773 99.9099 60.987 103.71 61.2667ZM100.61 14.2003C101.3 14.1903 101.84 13.9905 101.44 12.7816C96.64 12.8016 91.74 11.6926 86.84 13.3111C85.1 13.8906 83.42 13.451 81.77 12.6018C80.67 12.0423 79.31 11.5128 78.15 11.6627C75.55 11.9924 73.06 12.9515 70.3 14.0805C71.04 14.3602 71.35 14.6099 71.61 14.56C72.7 14.3602 73.8 14.1504 74.86 13.8107C77.21 13.0614 79.44 12.6518 81.74 14.1604C83.25 15.1494 85.0099 15.2494 86.8199 14.6899C90.3899 13.5809 94.05 13.511 97.74 14.0904C98.68 14.2303 99.65 14.2003 100.61 14.2003ZM99.25 23.142C99.49 23.1121 99.7 22.7624 100.06 22.4327C98.12 21.8133 96.25 22.133 94.42 22.3028C91.72 22.5526 88.99 22.7324 86.35 23.3119C82.72 24.1111 79.43 23.7215 76.21 21.8432C75.32 21.3237 74.0899 21.2638 73.0099 21.2039C72.2199 21.1539 69.6399 22.8223 68.0699 24.0812C68.1699 24.2011 68.24 24.4209 68.36 24.4508C70.66 25.0103 71.8399 22.3028 74.3899 22.5326C75.0899 22.8323 76.15 23.192 77.1 23.7615C79.11 24.9804 81.3 25.2801 83.56 25.0303C88.8 24.4508 94.02 23.8014 99.25 23.142ZM86.62 58.4593C86.67 58.4593 86.73 58.2395 86.91 57.8299C85.54 57.2404 84.31 56.3713 82.86 58.2595C84.12 58.3294 85.37 58.4094 86.62 58.4593ZM69.52 56.9807C71.28 57.2504 73.08 57.5302 75.85 57.9698C73.76 55.9516 72.19 55.602 70.44 55.7818C69.76 55.8517 69.28 56.1015 69.52 56.9807ZM57.11 58.7091C57.58 59.0188 58.15 59.1687 59.16 59.5883C56.79 56.4412 54.6799 55.4421 51.8199 56.1015C50.2899 56.4412 48.8 57.0506 47.37 57.69C45.25 58.6292 43.16 59.5383 40.55 59.3585C40.97 59.6882 41.38 60.2876 41.81 60.2876C43.05 60.3076 44.33 60.2477 45.52 59.9279C46.73 59.6182 47.8699 59.0188 49.0099 58.4593C51.7699 57.1006 54.45 56.9507 57.11 58.7091Z" fill="#C1B293"/>
<path d="M302.29 70.3683C302.82 71.2575 303.18 72.2465 303.83 73.6652C301.16 72.9958 299.04 72.4064 296.9 71.9468C288.73 70.1784 280.42 69.8488 272.11 69.7489C259.46 69.589 246.86 70.2884 234.29 71.6271C225.87 72.5363 217.41 73.0858 208.97 73.855C200.21 74.6543 191.53 75.9431 183.09 78.5807C176.48 80.6488 170.31 83.586 164.98 88.1019C164.3 88.6813 163.75 89.4106 162.45 90.7993L161.63 91.0391C161.41 90.8693 161.19 90.6595 160.97 90.4197C160.35 89.7303 159.48 89.2608 158.69 88.7313C155.49 86.6132 152.17 84.665 149.11 82.3672C139.97 75.5335 129.58 71.5971 118.58 69.0994C100.99 65.1131 83.17 63.9143 65.21 65.3829C55.17 66.2022 45.28 68.1603 35.46 70.3683C27.99 72.0567 20.5599 73.945 13.1299 75.8332C10.4099 76.5226 7.75 77.4717 4 78.6406C5.77 76.6425 6.75997 75.4436 7.83997 74.3246C16.19 65.7326 24.4799 57.0706 32.9499 48.5885C40.4399 41.0954 47.05 32.933 52.73 23.9913C55.21 20.0849 57.78 16.2384 60.37 12.402C61.8 10.2839 63.36 8.26584 65.03 5.95798C69.94 5.08878 74.93 4.03974 79.97 3.35038C86.62 2.44122 93.28 1.61199 99.97 1.13243C108 0.562959 115.92 1.9317 123.79 3.30044C128.98 4.1996 134.13 5.34853 139.22 6.69728C146.37 8.59552 153.13 11.4029 158.89 16.2185C159.24 16.5182 159.75 16.6181 160.15 16.7979C160.5 16.708 160.86 16.728 161.08 16.5581C169.6 10.1741 179.42 6.93707 189.7 4.98887C199.59 3.1206 209.57 1.73188 219.68 1.70191C227.54 1.68193 235.33 2.06158 242.9 4.47934C245.089 5.18868 247.04 6.07786 248.56 7.85621C250.31 9.92429 252.16 11.9025 253.94 13.9406C255.73 15.9887 257.4 18.1367 259.259 20.1148C265.499 26.7487 271.799 33.3226 278.079 39.9165C278.669 40.5359 279 41 279.5 41.5C280 42 280.85 42.9337 281.399 43.5731C284.319 46.96 287.319 50.2869 290.209 53.7037C294.65 58.9589 298.79 64.4338 302.29 70.3683ZM278.72 63.1749C278.68 62.9052 278.63 62.6354 278.59 62.3557C277.47 62.4256 276.351 62.4956 275.24 62.5655C275.25 62.7653 275.25 62.9751 275.26 63.1749C276.41 63.1749 277.57 63.1749 278.72 63.1749ZM268.02 50.7265C264.69 49.7474 261.45 49.4277 257.459 51.5657C259.35 51.5657 260.27 51.6456 261.179 51.5557C263.46 51.3159 265.74 51.0062 268.02 50.7265ZM257.56 60.897C252.4 60.8171 247.48 61.8162 242.56 63.3848C243.339 63.3848 244.12 63.4547 244.879 63.3748C248.999 62.9352 253.109 62.4556 257.23 61.9461C257.34 61.9361 257.39 61.4465 257.56 60.897ZM257.3 37.4488C256.7 37.4987 256.061 37.4388 255.5 37.6286C251.05 39.1372 246.45 39.4569 241.8 39.407C237.811 39.367 233.821 39.387 229.83 39.2571C225.17 39.1072 220.61 39.6268 216.15 41.0455C212.46 42.2244 208.67 42.604 204.8 42.3143C202.89 42.1844 200.98 42.0845 199.07 41.9546C192.81 41.545 186.65 42.2943 180.58 43.7729C179.99 43.9228 179.48 44.3624 178.93 44.6621C180.52 44.9918 181.91 44.782 183.28 44.5122C189.9 43.2134 196.59 42.5341 203.27 43.5431C207.18 44.1426 210.96 43.9528 214.61 42.7938C221.91 40.486 229.31 40.2462 236.86 40.5959C241.15 40.7857 245.469 40.5359 249.759 40.2662C252.43 40.0963 255.09 39.5468 257.3 37.4488ZM249.65 31.5243C250.049 31.7041 250.61 31.5343 251.299 31.5343C250.32 29.9458 249.06 29.636 247.779 29.676C245.409 29.7659 243.029 29.9957 240.669 30.2555C237.829 30.5652 234.949 31.5143 232.169 31.2545C225.489 30.6251 219.399 33.0728 213.019 34.4216C213.589 34.5315 214.179 34.7913 214.729 34.7213C216.619 34.4915 218.509 34.1918 220.379 33.8221C223.189 33.2726 225.939 32.4234 228.869 32.6133C233.669 32.923 238.409 32.3735 243.089 31.2345C245.3 30.695 247.48 30.5752 249.65 31.5243ZM243.59 51.6156C245.651 52.0153 247.7 52.4948 250.13 51.3759C246.56 50.6665 246.56 50.6665 243.59 51.6156ZM242.95 21.6534C245.15 22.0331 247.35 22.2329 249.59 21.5136C244.901 20.5345 240.231 19.6852 235.481 19.5254C234.531 19.4954 233.561 19.6553 232.63 19.8451C226.521 21.034 220.41 22.2429 214.31 23.5017C213.7 23.6216 213.17 24.0912 212.6 24.4009C213.87 24.8305 214.97 24.8205 216.04 24.6107C220.27 23.7914 224.53 23.0721 228.7 22.0031C233.46 20.7942 238.18 20.8142 242.95 21.6534ZM241.87 11.2131C239.41 10.214 237.67 11.4828 235.88 11.8125C233.47 12.2421 231.17 12.5619 228.82 11.6727C225.79 10.5237 222.86 10.7635 220.09 12.462C218.48 13.451 216.8 13.461 215.01 13.0913C213.61 12.8116 212.16 12.6418 210.74 12.6418C208.97 12.6318 208.88 12.7717 206.93 14.2003C209.86 14.3102 212.99 14.52 216.11 14.51C217.51 14.5001 219.06 14.3702 220.27 13.7707C223.01 12.402 225.63 12.2721 228.59 13.0814C233.05 14.3202 237.33 13.2412 241.87 11.2131ZM233.18 63.6145C231.731 63.1849 230.731 63.2349 230.16 64.7235C231.51 65.253 232.35 64.7934 233.18 63.6145ZM236.21 51.3559C232.8 51.7156 229.38 52.0652 225.981 52.4649C225.641 52.5048 225.351 52.9344 224.751 53.404C229.04 53.9934 232.78 53.434 236.21 51.3559ZM209.03 65.9424C208.37 65.6527 208.08 65.4029 207.8 65.4229C203.85 65.6526 199.91 65.9124 195.96 66.1722C195.49 66.2021 195 66.1822 194.55 66.312C191.66 67.1513 188.78 68.0205 185.9 68.8996C185.64 68.9796 185.45 69.2793 184.92 69.7489C185.89 69.8388 186.62 70.0586 187.27 69.9187C188.66 69.629 190 69.0895 191.38 68.7498C193.37 68.2602 195.36 67.7007 197.38 67.4809C200.69 67.1213 204.02 67.0514 207.34 66.7816C207.84 66.7416 208.31 66.312 209.03 65.9424ZM203.38 30.9848C199.64 25.3999 197.9 18.7961 193.43 13.3012C187.26 14.8597 181.14 16.4083 174.69 18.0368C174.69 18.8161 174.61 19.7552 174.71 20.6743C175.07 24.321 175.47 27.9676 175.9 31.6142C176.04 32.8231 176.28 34.012 176.46 35.1609C184.3 35.4706 196.64 33.5724 203.38 30.9848ZM197.22 55.0625C197.5 55.1624 197.89 54.9326 198.51 54.7927C194.95 52.7746 193.85 52.4749 190.67 53.1542C186.82 53.9735 183 54.9526 179.16 55.8617C179.13 56.1315 179.11 56.3912 179.08 56.661C180.46 56.5511 181.87 56.5511 183.23 56.3113C184.64 56.0615 186 55.612 187.38 55.2223C190.65 54.2732 193.91 53.9635 197.22 55.0625ZM161.6 60.8071C162.59 51.4658 163.38 42.1045 163.02 32.6932C162.9 29.706 162.54 26.7787 160.89 24.0212C161.07 26.2092 161.29 28.4072 161.43 30.5951C161.61 33.4525 161.95 36.3298 161.82 39.1772C161.54 45.0617 161.08 50.9363 160.54 56.8008C159.98 62.8153 159.15 68.8097 158.61 74.8341C158.38 77.3518 158.54 79.9094 158.67 82.4471C158.7 83.0565 159.28 83.646 159.82 84.6251C160 79.7895 160.04 75.5035 160.35 71.2375C160.6 67.7507 161.24 64.2939 161.6 60.8071ZM144.23 69.8388C147.71 69.0395 150.08 65.9823 149.89 62.6255C149.76 60.2976 148.4 58.839 146.07 58.5093C144.52 58.2795 142.96 58.1196 141.41 57.8399C138.3 57.2904 135.62 58.7291 134.58 61.5864C133.54 64.4238 134.6 67.5209 137.32 68.9196C138.69 69.619 140.29 69.8587 141.31 70.1685C142.66 70.0186 143.46 70.0186 144.23 69.8388ZM142.79 27.9376C143.49 28.0175 144.26 28.7269 145.12 27.6279C143.94 26.5489 142.68 26.5289 140.77 27.2582C141.73 27.5879 142.25 27.8777 142.79 27.9376ZM135.03 42.2244C136.89 42.3143 138.77 42.2444 140.64 42.2444C140.01 41.4651 139.31 41.2153 138.6 41.1254C136.22 40.8556 133.81 40.7757 131.46 40.3661C125.95 39.387 120.45 38.4079 114.81 38.5877C113.86 38.6177 112.87 38.5378 111.95 38.298C108.06 37.259 104.33 37.7985 100.73 39.377C97.71 40.7058 94.81 40.3661 91.9 39.1172C91.02 38.7376 90.14 38.3479 89.29 37.9183C86.65 36.5696 83.86 36.13 80.92 36.3798C76.14 36.7994 71.3399 37.0292 66.5799 37.6186C63.9599 37.9383 61.22 38.2281 58.92 40.486C59.84 40.3361 60.76 40.1862 61.68 40.0464C65.3 39.4869 68.92 38.8875 72.55 38.3979C74.77 38.0982 77.02 38.0582 79.23 37.7285C82.33 37.259 85.28 37.5587 88.11 38.9174C89.12 39.407 90.16 39.8266 91.18 40.2762C94.55 41.7948 97.9799 42.0245 101.4 40.5359C104.93 39.0073 108.54 39.0573 112.23 39.6767C113.64 39.9165 115.09 40.2562 116.5 40.1663C121.35 39.8665 126.05 40.7357 130.76 41.6749C132.17 41.9546 133.6 42.1544 135.03 42.2244ZM132.13 19.0958C132.9 19.2756 133.77 19.0159 134.59 18.9559C130.69 17.3974 126.74 16.3683 122.78 15.3992C122.38 15.2993 121.89 15.5491 120.99 15.7289C124.73 17.7371 128.49 18.2366 132.13 19.0958ZM131.44 26.389C131.82 26.439 132.24 26.1592 133.56 25.7396C125.53 23.3818 118.51 22.0331 111.25 23.6316C112.46 23.9913 113.7 24.2011 114.92 24.1311C119.28 23.8714 123.51 24.4209 127.69 25.6697C128.9 26.0294 130.18 26.2192 131.44 26.389ZM123.87 53.2441C126.1 53.8935 128.38 54.9326 130.79 53.3241C126.48 53.2442 122.81 51.4558 119.18 49.5076C118.34 49.058 117.46 48.6784 116.58 48.3087C109.66 45.4314 102.55 44.4323 95.05 45.3714C84.29 46.7102 73.52 48.059 62.65 48.1489C62.24 48.1489 61.82 48.3387 61.44 48.4286C61.42 49.4077 62.05 49.6575 62.68 49.6475C64.27 49.6475 65.8699 49.5875 67.4499 49.4377C78.0899 48.4186 88.72 47.3396 99.36 46.3505C100.93 46.2007 102.56 46.1907 104.13 46.4205C109.67 47.2297 115.06 48.6085 119.98 51.4258C121.22 52.1352 122.51 52.8545 123.87 53.2441ZM109.3 15.0296C109.35 15.0196 109.42 14.7498 109.4 14.61C109.38 14.4801 109.26 14.2603 109.18 14.2603C108.19 14.2703 107.21 14.3202 106.22 14.3602C106.22 14.6699 106.22 14.9896 106.21 15.2993C107.24 15.2194 108.27 15.1395 109.3 15.0296ZM103.71 61.2667C104.34 61.3167 104.97 61.2767 106.73 61.2767C102.68 59.3485 95.28 58.9389 91.98 60.0379C92.09 60.1478 92.19 60.3576 92.31 60.3675C96.11 60.6773 99.9099 60.987 103.71 61.2667ZM100.61 14.2003C101.3 14.1903 101.84 13.9905 101.44 12.7816C96.64 12.8016 91.74 11.6926 86.84 13.3111C85.1 13.8906 83.42 13.451 81.77 12.6018C80.67 12.0423 79.31 11.5128 78.15 11.6627C75.55 11.9924 73.06 12.9515 70.3 14.0805C71.04 14.3602 71.35 14.6099 71.61 14.56C72.7 14.3602 73.8 14.1504 74.86 13.8107C77.21 13.0614 79.44 12.6518 81.74 14.1604C83.25 15.1494 85.0099 15.2494 86.8199 14.6899C90.3899 13.5809 94.05 13.511 97.74 14.0904C98.68 14.2303 99.65 14.2003 100.61 14.2003ZM99.25 23.142C99.49 23.1121 99.7 22.7624 100.06 22.4327C98.12 21.8133 96.25 22.133 94.42 22.3028C91.72 22.5526 88.99 22.7324 86.35 23.3119C82.72 24.1111 79.43 23.7215 76.21 21.8432C75.32 21.3237 74.0899 21.2638 73.0099 21.2039C72.2199 21.1539 69.6399 22.8223 68.0699 24.0812C68.1699 24.2011 68.24 24.4209 68.36 24.4508C70.66 25.0103 71.8399 22.3028 74.3899 22.5326C75.0899 22.8323 76.15 23.192 77.1 23.7615C79.11 24.9804 81.3 25.2801 83.56 25.0303C88.8 24.4508 94.02 23.8014 99.25 23.142ZM86.62 58.4593C86.67 58.4593 86.73 58.2395 86.91 57.8299C85.54 57.2404 84.31 56.3713 82.86 58.2595C84.12 58.3294 85.37 58.4094 86.62 58.4593ZM69.52 56.9807C71.28 57.2504 73.08 57.5302 75.85 57.9698C73.76 55.9516 72.19 55.602 70.44 55.7818C69.76 55.8517 69.28 56.1015 69.52 56.9807ZM57.11 58.7091C57.58 59.0188 58.15 59.1687 59.16 59.5883C56.79 56.4412 54.6799 55.4421 51.8199 56.1015C50.2899 56.4412 48.8 57.0506 47.37 57.69C45.25 58.6292 43.16 59.5383 40.55 59.3585C40.97 59.6882 41.38 60.2876 41.81 60.2876C43.05 60.3076 44.33 60.2477 45.52 59.9279C46.73 59.6182 47.8699 59.0188 49.0099 58.4593C51.7699 57.1006 54.45 56.9507 57.11 58.7091Z" stroke="black" stroke-width="2" mask="url(#path-5-outside-1_126_3443)"/>
</svg>
