<svg width="105" height="280" viewBox="0 0 105 280" fill="none" xmlns="http://www.w3.org/2000/svg">
<rect x="51" y="59" width="18" height="10" fill="#FFF2CA"/>
<rect x="69" y="57" width="18" height="10" fill="#FFF2CA"/>
<path fill-rule="evenodd" clip-rule="evenodd" d="M2.99517 142.44C4.79501 143.57 5.17172 144.826 5.2659 146.825C5.57983 153.49 6.20768 160.135 6.70996 166.78C6.88785 169.145 7.06574 171.52 7.28549 174.335L3.02657 171.897C3.08656 172.422 3.22043 172.937 3.4242 173.425C4.86826 175.675 6.28093 177.956 7.90287 180.08C8.15139 180.362 8.33163 180.697 8.42962 181.06C8.52761 181.423 8.54072 181.804 8.46794 182.173C7.5157 190.753 7.57848 199.208 12.8943 206.628C14.8616 209.338 17.1427 211.86 20.6692 212.571C21.9253 212.744 23.1898 212.849 24.4572 212.885C23.7561 216.223 23.055 219.582 22.2702 223.349C24.7711 223.935 27.5651 224.595 30.6415 225.306V249.583L27.5023 249.353C28.329 250.86 29.051 252.053 29.5951 253.319C29.9203 254.018 30.1187 254.769 30.1811 255.537C30.6101 261.345 30.9764 267.142 31.4159 272.939C31.5101 274.163 31.3636 275.921 32.0751 276.476C33.4095 277.322 34.9353 277.818 36.5119 277.92C40.6348 278.496 44.7786 278.862 48.912 279.333C49.6445 279.406 50.3561 279.563 51.0676 279.678H63.8444C64.3885 279.563 64.8908 279.395 65.4768 279.333C69.2292 279.013 72.8832 277.965 76.234 276.246C76.6298 275.999 77.0804 275.854 77.5459 275.823C78.0113 275.791 78.4772 275.876 78.9023 276.068C81.9259 277.201 85.1585 277.666 88.3788 277.433C91.5991 277.2 94.731 276.274 97.56 274.718C101.631 272.552 103.912 268.994 105 264.589V258.76C103.954 256.96 103.211 254.92 101.861 253.413C99.2447 250.514 96.4403 250.274 93.1127 252.366C92.0663 252.994 91.114 253.716 90.1095 254.397C90.1827 254.554 90.256 254.7 90.3188 254.857C90.6696 254.846 91.0192 254.811 91.3652 254.752C94.0022 254.166 96.7752 255.485 97.4658 257.64C97.7237 258.848 97.5322 260.109 96.9273 261.186C96.3225 262.262 95.3457 263.082 94.18 263.49C93.2216 263.836 92.2159 264.034 91.1977 264.076C90.7597 264.084 90.3286 263.965 89.9571 263.733C89.5855 263.501 89.2894 263.165 89.1049 262.768C88.1245 261.311 86.8655 260.063 85.4006 259.095C82.5087 257.244 80.0178 254.832 78.0757 252C76.7781 250.127 75.9828 248.61 77.092 246.486C77.1757 246.308 77.092 246.057 77.092 245.554L74.5492 246.527C74.7795 243.336 74.9783 240.364 75.2189 237.392C75.7422 231.417 76.2654 225.463 76.8409 219.499C76.9658 218.828 77.3396 218.23 77.8873 217.824C79.5093 216.589 81.2463 215.459 82.9415 214.308C83.1048 214.227 83.2487 214.111 83.3632 213.969C83.4777 213.827 83.5601 213.662 83.6048 213.485C83.6495 213.308 83.6555 213.124 83.6223 212.944C83.5891 212.765 83.5175 212.595 83.4124 212.446C82.8473 211.211 82.4392 209.913 82.0834 208.951C84.7832 205.665 87.5039 202.735 89.7746 199.481C91.6163 196.823 91.3338 193.495 91.5221 190.366C91.7105 187.237 91.7 184.088 91.9721 180.948C92.1702 180.038 92.5949 179.192 93.2069 178.489C95.0731 176.022 96.3444 173.157 96.9217 170.118L93.3011 171.876C93.4789 169.051 93.7301 166.466 93.7405 163.86C93.8033 156.902 93.7405 149.933 93.7405 142.932C93.7405 142.712 93.6673 142.482 93.6673 142.262C93.6673 140.264 93.0394 137.951 93.8452 136.35C94.5463 134.937 96.8275 134.257 98.3971 133.305L101.222 131.484C100.479 130.134 99.6842 128.952 99.1296 127.665C96.4822 121.25 93.8975 114.815 91.3547 108.358C91.1919 107.701 90.8244 107.113 90.3052 106.678C89.786 106.244 89.1421 105.986 88.4666 105.941C84.8367 105.652 81.2295 105.128 77.6676 104.372C74.0647 103.308 70.5195 102.057 67.0464 100.625C66.7743 100.531 66.5023 100.458 66.2407 100.353C66.3453 100.144 66.4604 99.9243 66.5546 99.715C67.2976 99.715 68.0301 99.6104 68.773 99.6104C77.2804 99.6104 83.7368 96.2514 87.0749 88.0998C88.1939 85.302 89.0011 82.3893 89.4816 79.4145C90.528 73.293 89.7956 67.161 89.4188 61.008C89.1468 56.6863 89.9839 52.0716 94.3265 49.33C95.0904 48.8487 95.8229 48.2836 96.5659 47.7918C96.5659 47.7918 96.5659 47.6871 96.5659 47.3313C92.9767 46.714 89.7328 48.0115 86.4052 49.2463C86.2645 49.0819 86.1417 48.903 86.0389 48.7126C83.0252 40.9273 78.2012 34.2511 72.7494 27.9517C64.8876 19.0325 55.9774 11.0955 46.2122 4.3131C44.2619 3.05011 42.2465 1.89047 40.1744 0.838989L39.128 0.838989C37.4537 3.73757 35.6539 6.57336 34.1575 9.54519C30.4317 17.0759 28.1563 25.2405 27.45 33.6128C26.6798 40.0414 26.8773 46.5492 28.036 52.9192C22.5632 49.9055 17.1114 48.7335 11.1677 51.4647C11.4502 51.81 11.5549 52.0612 11.7223 52.103C17.3416 53.861 20.3239 58.235 22.6783 63.195C24.227 66.4389 25.5873 69.7561 27.1779 72.9686C29.4382 77.51 32.546 81.1725 37.7676 82.4701C37.9882 82.555 38.1825 82.6964 38.3312 82.88C38.48 83.0637 38.5779 83.2831 38.6152 83.5165C38.6794 86.864 38.5326 90.2121 38.1757 93.5412C37.527 97.7268 34.754 100.531 31.0601 102.415C25.6769 105.045 19.9023 106.784 13.9616 107.563C10.2678 108.139 10.3933 108.097 9.95385 111.927C9.05326 120.345 6.21284 128.44 1.65576 135.576C-0.719611 139.249 -0.761468 140.013 2.99517 142.44ZM52.1768 9.70215C45.2181 9.86958 38.9815 11.1253 33.0797 15.2482C34.6079 10.4667 36.8822 5.95674 39.8186 1.88541C44.33 3.81853 48.505 6.45709 52.1873 9.70215H52.1768ZM63.6037 19.8838C45.1763 22.2906 40.0593 24.5927 28.172 35.9672C28.1707 35.4182 28.2021 34.8696 28.2662 34.3244C29.3126 29.6678 30.4532 25.0322 31.3531 20.3442C31.9182 17.3619 33.7389 15.6353 36.2503 14.2436C41.3883 11.3869 47.0075 10.759 52.7314 10.4765C53.2275 10.5311 53.6876 10.7612 54.029 11.1253C57.0008 13.6995 59.9412 16.3574 62.8921 18.9316C63.1547 19.2292 63.3927 19.5476 63.6037 19.8838ZM74.0679 30.6619C70.2188 29.9719 66.2626 30.176 62.505 31.2584C49.9691 34.8258 38.7141 41.9019 30.066 51.6531C29.7521 51.9984 29.4277 52.3228 29.1138 52.6995L28.4964 52.5634C28.2557 48.3778 28.0569 44.2758 27.7534 40.1529C27.7028 39.4472 27.8068 38.7389 28.058 38.0774C28.3092 37.416 28.7016 36.8173 29.2079 36.323C38.5525 25.953 50.3979 21.3697 64.0327 20.8256C64.4051 20.7974 64.7756 20.9011 65.0792 21.1186C68.1138 24.2788 71.0856 27.4808 74.0783 30.6619H74.0679ZM82.5962 43.0829C82.4811 43.2085 82.345 43.3236 82.2195 43.4491C81.4451 43.3131 80.6812 43.1666 79.9069 43.041C79.1254 42.8697 78.3307 42.7647 77.5315 42.7271C66.3976 42.6225 56.2369 45.5524 47.3947 52.4693C44.1194 55.033 40.9697 57.7013 37.7467 60.3593C35.026 58.1304 32.4204 55.9957 29.6474 53.7459C30.202 53.0448 30.6939 52.3018 31.3531 51.6531C38.6044 43.6752 47.6506 37.5379 57.7438 33.7488C61.8039 32.1687 65.9895 30.9863 70.4054 31.3944C72.1006 31.5514 74.3923 31.7188 75.3341 32.8071C77.9339 36.1022 80.3579 39.5322 82.5962 43.0829V43.0829ZM88.6654 57.5025C88.0376 55.0853 87.4097 52.6681 86.7086 49.9997L93.8243 48.0115C93.908 48.1685 94.0126 48.3254 94.1068 48.4824C90.2036 50.2822 89.7118 54.0075 88.6654 57.5025ZM62.4422 97.5803C57.0113 95.8014 51.4548 94.4411 47.1854 90.2554C47.0912 90.1717 46.8819 90.2554 46.2332 90.1403C46.5763 90.6376 46.9503 91.1129 47.3528 91.5634C52.0722 95.9584 57.817 98.1559 64.0432 99.2232C64.5741 99.3908 65.078 99.634 65.5396 99.9452C65.0478 100.28 64.4932 100.918 64.0118 100.918C59.9809 101.114 55.9421 101.079 51.9152 100.814C47.962 100.559 44.182 99.098 41.0848 96.6281C39.7768 95.5084 38.992 94.3574 39.6407 92.4424C39.8693 91.3842 39.9293 90.2964 39.8186 89.2195C39.8186 87.0743 39.8186 84.9291 39.8186 82.784L41.3673 82.5642C41.3673 82.3863 41.3673 82.198 41.3673 81.9992C40.4674 81.8841 39.5675 81.8004 38.678 81.6434C33.561 80.7016 30.3067 77.3949 28.1511 72.9372C26.4559 69.5259 25.0118 65.9681 23.4003 62.473C21.3912 58.1827 18.9844 54.1958 14.4011 52.1239C14.0558 51.967 13.7 51.81 13.3547 51.6321C18.1996 50.1044 22.5946 50.5857 26.4035 53.0239C30.2125 55.462 33.9168 58.7373 37.663 61.6254C38.1548 61.9917 38.6257 62.3684 39.1071 62.7346L39.4838 62.3265L38.4374 60.8511C39.4838 59.9511 40.5302 59.1349 41.5243 58.2664C46.4634 53.8401 51.5071 49.6021 57.8693 47.2162C64.4304 44.7467 71.0542 42.905 78.1698 43.5642C82.6171 43.9723 83.831 44.8095 84.8146 48.5661C79.0593 46.8918 76.3072 49.2777 76.2863 55.1481C76.8891 54.6341 77.5292 54.1654 78.2012 53.7459C79.5471 52.8248 80.9892 52.0528 82.502 51.4438C82.9583 51.3037 83.4385 51.2591 83.9127 51.3129C84.3869 51.3666 84.845 51.5174 85.2583 51.756C85.6717 51.9946 86.0314 52.3158 86.3152 52.6996C86.5989 53.0833 86.8005 53.5214 86.9074 53.9866C89.5101 63.01 89.9652 72.5173 88.2364 81.748C86.0494 93.0389 76.82 102.342 62.4422 97.5803ZM77.4897 53.0239C77.6676 50.931 78.4628 49.6544 80.1162 49.2986C81.1472 48.9738 82.2512 48.9604 83.2899 49.2601C84.3285 49.5598 85.2557 50.1592 85.9552 50.9833C82.5753 49.8114 80.0639 50.931 77.4897 53.0239ZM62.5887 136.497C62.2015 129.496 61.333 122.663 57.5031 116.531C56.7644 115.401 56.2596 114.135 56.0188 112.806C55.778 111.478 55.8059 110.115 56.1009 108.798C56.5822 106.705 57.2833 104.612 57.9112 102.383H62.4003C61.9294 103.796 61.4481 105.031 61.1132 106.297C60.1401 109.991 61.333 113.402 62.6619 116.761C67.1775 127.938 68.1207 140.239 65.3617 151.973C63.9176 158.419 62.505 164.875 61.333 171.405C60.9383 174.229 60.6937 177.073 60.6005 179.923C60.2029 179.923 59.8157 179.996 59.4285 179.975C59.0115 179.955 58.5959 179.913 58.1833 179.85C58.1486 179.435 58.1486 179.019 58.1833 178.604C58.8844 172.619 59.4494 166.602 60.3389 160.648C61.4586 152.57 63.0282 144.638 62.5887 136.497ZM87.5562 136.308C86.6873 136.509 85.8003 136.621 84.9088 136.643C84.7204 133.284 84.5321 130.197 84.396 127.11C84.4155 126.719 84.5752 126.347 84.846 126.064C86.154 124.567 87.5039 123.092 88.8119 121.596C88.9917 121.306 89.1391 120.997 89.2514 120.675L88.8747 120.392C87.0225 122.36 85.1495 124.316 83.1508 126.441C84.2274 129.275 84.46 132.361 83.8205 135.325C83.3068 138.235 82.6397 141.117 81.8218 143.958C79.6146 150.509 78.6458 157.415 78.9651 164.321C79.143 166.979 79.729 169.553 80.0743 172.253C80.2648 173.067 80.1665 173.923 79.7962 174.673C79.4259 175.423 78.8067 176.021 78.0443 176.365C72.9901 178.908 67.5801 179.609 61.8248 179.871C61.4481 173.854 62.6201 168.276 64.0432 162.762C66.2089 154.959 67.497 146.939 67.8836 138.851C67.993 132.038 66.7149 125.273 64.1269 118.969C62.9108 115.908 62.1459 112.686 61.8562 109.405C61.6678 106.977 62.6829 104.445 63.1537 102.017C63.9281 101.871 64.5141 101.776 65.121 101.672C65.2257 102.279 65.3408 102.791 65.4454 103.304C65.5882 103.314 65.7316 103.314 65.8744 103.304C66.0628 102.635 66.2407 101.954 66.4186 101.295C69.9192 102.823 73.5037 104.15 77.1548 105.272C80.8382 106.171 84.71 106.318 88.4771 106.904C88.8569 107.004 89.2102 107.186 89.5121 107.437C89.814 107.689 90.0572 108.003 90.2246 108.358C92.9976 115.087 95.6555 121.857 98.3448 128.617C99.2552 130.919 98.9308 132.363 96.5554 133.378C93.6151 134.529 90.6103 135.507 87.5562 136.308V136.308ZM80.0011 164.446C79.5549 160.992 79.6858 157.488 80.3882 154.076C84.6472 153.71 88.6968 153.386 93.0081 153.03C93.0081 156.012 93.0813 159.141 92.9557 162.259C92.9204 162.681 92.8003 163.091 92.6025 163.465C92.4047 163.839 92.1333 164.169 91.8047 164.436C88.4666 166.759 84.7518 166.602 81.0056 165.618C80.7601 165.512 80.5419 165.352 80.3678 165.149C80.1938 164.945 80.0683 164.705 80.0011 164.446V164.446ZM92.8929 165.2C92.6941 167.418 92.5372 169.553 92.307 171.688C92.2798 171.871 92.2134 172.046 92.1123 172.202C92.0112 172.357 91.8777 172.489 91.721 172.588C88.791 173.634 85.861 174.806 82.638 174.105C82.2509 174.021 81.6753 173.749 81.5916 173.467C81.0998 171.175 80.7022 168.873 80.2731 166.476C85.4215 167.638 86.7086 167.502 92.8511 165.2H92.8929ZM92.8929 141.655V151.774C92.1395 151.931 91.3338 152.172 90.4966 152.277C87.8387 152.591 85.2018 152.915 82.5439 153.072C81.7381 153.135 80.5138 153.072 80.8173 151.628C81.4451 148.583 82.1462 145.559 82.7427 142.869L92.8929 141.655ZM83.1717 141.373C83.4019 140.327 83.5275 139.51 83.7996 138.715C83.9565 138.307 84.3332 137.752 84.689 137.669C87.326 137.145 89.9839 136.716 92.7569 136.225V140.41C89.5967 141.059 86.5726 142.472 83.1508 141.373H83.1717ZM81.8951 207.674C81.7172 207.088 81.6021 206.785 81.5288 206.471C80.5557 202.745 80.7545 202.421 83.9461 200.192C84.7393 199.563 85.2601 198.652 85.4006 197.649C85.8819 193.307 86.0284 188.901 88.2678 184.946C88.4259 184.313 88.4754 183.659 88.4143 183.01C85.5157 187.29 84.8041 191.664 84.8041 196.205C84.8041 198.131 83.9565 198.8 81.9997 198.748C80.0429 198.696 80.7231 197.262 80.744 196.258C80.8208 190.174 80.9115 184.088 81.0161 177.998C81.0161 176.951 81.0161 175.905 81.0161 174.754C86.447 175.936 90.9048 174.136 95.666 172.263C94.7242 174.094 94.0963 176.25 92.6941 177.642C91.7319 178.542 91.1326 179.763 91.0094 181.074C90.6536 184.862 90.4443 188.671 90.1827 192.47C89.7118 198.748 86.4052 203.405 81.8742 207.674H81.8951ZM74.6957 229.178C71.7658 232.411 63.52 233.698 59.8575 231.428C58.9667 230.874 58.3082 230.015 58.0054 229.01C57.8201 227.556 57.7921 226.086 57.9217 224.626C64.0223 226.656 69.8508 225.976 75.7108 223.778C75.6375 225.065 75.6166 226.321 75.4596 227.535C75.3597 228.146 75.0874 228.716 74.6748 229.178H74.6957ZM73.6493 223.538C69.4636 225.191 65.1943 225.097 60.8726 224.584C60.2411 224.563 59.6306 224.352 59.1209 223.979C58.6112 223.606 58.2261 223.087 58.0158 222.491C59.3971 221.1 60.883 221.204 62.4736 221.633C63.041 221.729 63.6221 221.704 64.1792 221.56C68.0614 220.89 71.9437 220.189 75.9096 219.467C76.0456 222.376 76.0142 222.554 73.5761 223.538H73.6493ZM71.3367 237.915C68.1204 239.172 64.5493 239.172 61.333 237.915C58.0472 236.702 57.1473 234.902 58.0996 231.522C64.0223 234.797 69.6101 233.709 75.2085 230.329C75.0504 231.179 74.9594 232.039 74.9364 232.903C75.062 235.592 73.5133 237.026 71.2635 237.915H71.3367ZM57.6287 236.66C58.7686 237.726 60.1105 238.553 61.5752 239.092C63.04 239.631 64.5978 239.872 66.157 239.799C69.1751 239.953 72.1473 239.013 74.5283 237.152C74.3887 238.129 74.3118 239.115 74.2981 240.102C74.3613 240.744 74.2255 241.389 73.9091 241.951C73.5927 242.513 73.1111 242.963 72.5297 243.242C69.0623 245.155 65.0494 245.837 61.1446 245.178C60.5974 245.089 60.0781 244.875 59.6277 244.552C59.1774 244.229 58.8083 243.805 58.5495 243.315C58.041 241.127 57.7085 238.901 57.5554 236.66H57.6287ZM58.5181 245.376C63.8339 247.176 68.8463 246.276 73.8586 243.629C73.9278 244.5 73.9278 245.374 73.8586 246.245C73.813 246.462 73.7224 246.668 73.5927 246.848C73.4629 247.028 73.2969 247.179 73.1052 247.291C69.1927 248.896 64.8928 249.308 60.747 248.474C58.2147 247.972 58.2147 247.94 58.4449 245.376H58.5181ZM80.608 256.835C76.7781 254.962 74.1307 257.651 71.1902 258.928V259.451C71.6142 259.503 72.0429 259.503 72.4669 259.451C74.4341 258.98 76.1398 259.786 76.4537 261.795C76.6687 263.294 76.5216 264.822 76.0247 266.252C75.8731 266.767 75.6098 267.241 75.2537 267.642C74.8976 268.042 74.4575 268.359 73.9647 268.57C73.472 268.781 72.9387 268.881 72.403 268.862C71.8673 268.843 71.3425 268.706 70.8658 268.46C69.2782 267.713 67.7617 266.824 66.3349 265.803C63.9804 264.233 61.6783 262.6 59.3553 260.958C58.9995 260.686 58.5181 260.267 58.4867 259.911C58.2984 258.232 58.2984 256.536 58.4867 254.857C58.8634 252.816 59.0623 250.964 57.4403 249.353C57.2415 249.154 57.2101 248.809 57.0113 248.306C63.6246 251.132 69.788 249.886 76.1293 247.124C75.8713 247.67 75.6714 248.242 75.5329 248.83C75.4498 249.38 75.5375 249.942 75.784 250.441C77.2595 252.576 78.9023 254.69 80.5348 256.835H80.608ZM51.5594 227.985C51.3617 229.371 51.2672 230.77 51.2769 232.171C51.3615 232.882 51.2001 233.602 50.8193 234.209C50.4386 234.816 49.8616 235.275 49.1841 235.509C44.0775 238.072 38.7199 238.01 33.3518 236.827C32.946 236.678 32.5825 236.432 32.2927 236.112C32.0029 235.791 31.7953 235.404 31.688 234.985C31.5597 232.958 31.5353 230.925 31.6147 228.895C38.3222 230.308 44.8833 231.187 51.5594 227.985ZM48.2423 228.498L47.9074 228.581C43.1462 229.795 38.406 229.335 33.6866 228.372C32.2007 228.069 31.081 227.137 31.5938 225.578C38.3013 224.856 44.8833 224.155 51.4757 223.433C51.6955 226.52 51.1723 227.378 48.2423 228.498ZM31.9914 242.875C35.1307 243.472 38.2699 244.278 41.4092 244.633C43.0831 244.832 44.7802 244.66 46.3804 244.13C47.9807 243.6 49.445 242.725 50.67 241.567C50.67 242.488 50.67 243.116 50.67 243.734C50.4188 247.427 49.5503 248.505 45.8355 249.259C41.9967 249.949 38.0375 249.373 34.5551 247.616C31.7507 246.287 31.5519 245.826 31.9914 242.875ZM38.0502 250.2L31.9914 249.782V247.396L38.0502 250.2ZM31.6775 237.549C31.6667 237.512 31.6667 237.472 31.6775 237.434C38.2909 238.638 44.7891 239.171 51.0467 235.446C51.0467 241.128 50.1363 241.724 45.8146 243.242C42.4242 244.456 38.9396 243.796 35.5702 242.739C31.7089 241.515 31.7193 241.515 31.6775 237.581V237.549ZM52.5221 223.726C52.5686 223.529 52.6598 223.345 52.7886 223.189C52.9175 223.033 53.0805 222.909 53.2651 222.826C54.458 222.565 55.6719 222.449 56.7497 222.292C56.938 230.664 57.1159 238.889 57.2833 247.134L55.8079 246.643C55.6509 246.747 55.494 246.862 55.337 246.957L57.1892 250.807C57.4089 251.268 57.8589 251.718 57.8275 252.147C57.6391 254.679 57.3461 257.211 57.0741 259.88C55.2246 259.217 53.6144 258.019 52.4489 256.437C51.6222 255.223 51.1199 253.978 52.4489 252.659C52.9825 252.063 53.4043 251.375 53.6941 250.629C54.1546 249.646 54.0394 248.903 52.6477 249.123C52.3129 249.123 51.9675 249.123 51.3397 249.238C51.7373 240.552 52.114 232.097 52.5221 223.726ZM78.6826 275.001C84.8355 269.988 84.6995 263.082 81.8218 258.069C84.7571 259.16 87.1964 261.28 88.6863 264.034C88.8353 264.259 89.0278 264.451 89.2525 264.601C89.4771 264.75 89.7294 264.852 89.9944 264.903C92.1244 265.246 94.3041 264.739 96.0636 263.49C96.8714 262.939 97.5126 262.177 97.9174 261.287C98.3223 260.397 98.4753 259.412 98.3599 258.441C98.2445 257.47 97.865 256.55 97.2627 255.779C96.6604 255.009 95.8584 254.418 94.9439 254.072C94.4835 253.873 94.0021 253.737 93.4475 253.538C97.2042 251.739 100.406 252.68 102.447 256.113C103.632 258.326 104.147 260.836 103.929 263.337C103.712 265.838 102.771 268.222 101.222 270.197C96.095 276.183 86.0703 278.339 78.6931 275.001H78.6826ZM52.6582 250.588L51.2978 252.733C50.9989 253.228 50.8061 253.781 50.7315 254.355C50.6569 254.929 50.7021 255.512 50.8644 256.068C51.0266 256.623 51.3024 257.139 51.6742 257.583C52.046 258.026 52.5057 258.388 53.0244 258.645C57.565 260.381 61.7471 262.939 65.3617 266.19C66.531 267.278 67.8798 268.156 69.3485 268.785C70.9445 269.455 72.7386 269.476 74.3504 268.845C75.9621 268.214 77.2645 266.98 77.9815 265.405C78.3489 264.722 78.5351 263.957 78.5222 263.182C78.5094 262.407 78.298 261.648 77.9082 260.979C76.9681 259.831 75.9166 258.779 74.769 257.839C77.3222 255.945 81.3091 257.609 82.3241 261.292C83.0465 263.567 83.0218 266.013 82.2535 268.273C81.4853 270.532 80.0139 272.487 78.0547 273.849C73.7121 277.208 68.5742 278.339 63.3002 278.506C57.7333 278.694 52.114 278.506 46.5576 278.15C42.7591 277.92 38.992 277.198 35.2353 276.591C34.4414 276.548 33.6963 276.195 33.1601 275.607C32.6239 275.02 32.3395 274.246 32.3681 273.452C32.0123 268.523 31.3217 263.605 31.0915 258.676C30.9973 256.06 31.5205 253.444 29.5533 251.289C29.5533 251.226 29.5533 251.069 29.6474 250.514L52.6582 250.588ZM25.1165 213.963C25.1983 213.72 25.3354 213.499 25.5169 213.317C25.6985 213.135 25.9195 212.998 26.1629 212.917C28.2557 212.299 28.601 211.546 27.8371 209.558C27.1779 207.841 26.6128 206.094 25.9013 204.074C26.2015 204.174 26.495 204.293 26.7803 204.43C27.8267 205.068 28.9359 205.56 30.1288 204.713C30.6646 204.321 31.0625 203.77 31.2656 203.138C31.4686 202.507 31.4663 201.827 31.2589 201.197C30.8566 199.833 30.6074 198.429 30.516 197.011C30.6861 192.615 29.4268 188.283 26.9268 184.663C26.1315 183.502 26.0792 181.838 25.5978 180.038C26.2315 180.273 26.8778 180.472 27.5337 180.635C31.1752 181.168 34.8586 182.1 38.4687 182.079C45.4274 182.079 52.3756 181.451 59.3134 181.168C66.45 180.886 73.6389 180.928 79.8546 176.313C79.9914 176.799 80.086 177.296 80.1371 177.799C80.1371 182.769 80.2208 187.729 80.0639 192.689C79.886 198.748 79.6976 204.775 81.6963 210.635C82.5229 213 82.0416 214.036 79.9278 215.564C75.1352 219.038 69.652 220.367 63.8758 220.66C60.2656 220.848 59.5331 220.074 59.3343 216.474C59.3343 216.192 59.3343 215.888 59.2611 215.606C59.1355 218.902 57.6496 221.089 54.3534 221.979C45.3751 224.427 36.2294 224.595 27.0209 223.778C26.5993 223.786 26.1813 223.7 25.7975 223.525C25.4137 223.35 25.0739 223.092 24.803 222.769C24.5321 222.446 24.3369 222.066 24.2318 221.658C24.1267 221.249 24.1143 220.823 24.1956 220.409C24.4153 218.222 24.7293 216.077 25.1165 213.952V213.963ZM26.1001 177.265C24.3735 179.996 24.9176 182.623 26.1001 185.176C26.8535 186.767 27.8685 188.232 28.6429 189.822C29.0311 190.688 29.2817 191.61 29.3858 192.553C29.6998 195.263 29.8149 197.995 30.2125 200.694C30.4846 202.557 30.0765 203.53 28.3708 203.834C27.1151 204.095 25.9954 203.112 25.8594 201.49C25.7234 199.868 25.7024 198.403 25.6397 196.875C25.5769 194.719 23.9549 193.736 22.3958 192.689C22.4174 193.208 22.6431 193.697 23.0236 194.05C23.6442 194.516 24.136 195.132 24.4527 195.84C24.7694 196.549 24.9006 197.326 24.8339 198.099C24.645 202.222 25.3965 206.333 27.0314 210.123C27.1295 210.37 27.1692 210.636 27.1475 210.901C27.1257 211.166 27.043 211.423 26.9058 211.65C26.6975 211.823 26.4529 211.947 26.1902 212.012C25.9275 212.077 25.6535 212.082 25.3885 212.027C23.2957 211.535 21.6423 210.437 21.297 208.197C20.9517 205.958 20.8575 203.436 20.6064 201.05C20.4729 200.474 20.28 199.913 20.0309 199.376C19.832 199.439 19.6123 199.512 19.403 199.564C20.6901 203.52 18.5763 208.155 22.2911 211.724C21.6165 211.823 20.9284 211.677 20.3523 211.313C19.7761 210.948 19.3501 210.388 19.1519 209.735C18.231 207.308 17.5718 204.796 16.8497 202.295C16.5777 201.375 16.3789 200.433 16.1486 199.512L15.4162 199.658C16.2114 203.195 17.0137 206.746 17.8229 210.311C17.645 210.185 17.4043 210.06 17.1846 209.892C14.8302 208.061 14.2023 205.403 13.7837 202.651C13.5745 201.218 13.3024 199.784 13.0722 198.35L12.3711 198.466C12.6431 200.558 12.8943 202.651 13.1559 204.744C8.02844 197.147 8.97022 188.755 9.51436 180.676L4.95198 174.649C12.2769 175.591 18.7856 178.856 26.1001 177.255V177.265ZM22.3644 176.794C18.3775 176.177 14.4116 175.392 10.4247 174.9C8.52026 174.67 8.10169 173.686 8.02844 172.075C12.2141 173.728 15.5522 173.686 24.3002 171.855V176.637C23.6615 176.751 23.0129 176.8 22.3644 176.784V176.794ZM6.82506 161.59C12.7164 164.907 18.4194 165.388 24.4049 162.636C24.4049 165.074 24.4049 167.366 24.4049 169.637C24.3757 169.891 24.2888 170.135 24.151 170.351C24.0132 170.567 23.8281 170.748 23.6096 170.882C19.0731 172.666 14.0749 172.905 9.38879 171.562C9.00012 171.439 8.64459 171.229 8.34909 170.948C8.05359 170.667 7.82586 170.322 7.68313 169.94C7.24363 167.293 7.09713 164.572 6.82506 161.59ZM6.13443 151.46C12.0885 154.118 17.959 155.228 24.4049 153.658C24.4049 155.845 24.2898 157.844 24.4049 159.706C24.5088 160.282 24.3965 160.876 24.0895 161.374C23.7824 161.873 23.3023 162.24 22.7411 162.406C20.3472 163.333 17.7709 163.693 15.2144 163.457C12.658 163.221 10.1911 162.396 8.00752 161.046C7.71456 160.883 7.45652 160.665 7.24822 160.403C7.03991 160.141 6.88544 159.84 6.79367 159.518C6.45882 156.933 6.34371 154.328 6.13443 151.46ZM6.89831 150.717C6.70904 150.607 6.54686 150.456 6.42372 150.275C6.30058 150.094 6.2196 149.888 6.18675 149.671C6.1135 148.028 6.18675 146.385 6.18675 144.439C12.0153 147.201 18.1578 148.122 24.3735 148.478V152.716C18.4996 154.202 12.285 153.492 6.89831 150.717V150.717ZM2.25222 137.208C2.98471 135.011 4.05206 132.928 4.99383 130.794C6.23913 128.431 7.31613 125.983 8.2168 123.469C9.54575 118.728 10.4666 113.873 11.5863 108.944C14.7255 108.285 18.3775 107.772 21.8621 106.768C28.601 104.811 35.2981 102.729 39.0547 95.9793C43.9938 100.772 50.5653 100.939 56.9694 102.352C56.4881 103.995 56.0695 105.491 55.5672 107.029C55.023 108.528 54.8004 110.124 54.914 111.714C55.0276 113.305 55.4748 114.853 56.2265 116.259C58.8997 121.372 60.6697 126.909 61.4586 132.625C62.3585 139.741 61.2388 146.731 60.2238 153.731C59.3343 159.821 58.4239 165.901 57.6496 172.002C57.3147 174.649 57.2938 177.307 57.1368 180.038C54.8347 180.164 52.6268 180.31 50.4084 180.436C45.3542 180.708 40.279 181.126 35.2039 181.2C32.0956 181.212 29.0277 180.495 26.2466 179.107C26.7489 177.998 27.1988 177.014 27.7744 175.716L25.3676 176.271V148.551L28.6429 148.353V131.976C31.1124 130.595 33.132 126.409 32.1588 124.452C31.3322 126.807 30.8613 129.234 28.6533 131.034C28.5592 129.475 28.465 128.24 28.4022 127.006H27.6592C27.6592 127.633 27.6592 128.261 27.6592 128.889C27.8581 131.924 28.2452 134.927 28.2557 137.941C28.2597 140.272 27.9999 142.595 27.4814 144.868C26.9895 147.055 25.5559 147.756 23.3585 147.474C21.8307 147.285 20.282 147.139 18.7647 146.919C13.6366 146.333 8.68475 144.694 4.21948 142.105C2.17897 140.85 1.50926 139.5 2.25222 137.208Z" fill="#7D4E24"/>
<path fill-rule="evenodd" clip-rule="evenodd" d="M4.21955 142.105C8.66738 144.695 13.6008 146.34 18.7124 146.94C20.2297 147.16 21.7784 147.306 23.3062 147.494C25.5037 147.777 26.9373 147.076 27.4291 144.889C27.9477 142.616 28.2074 140.292 28.2035 137.962C28.2035 134.948 27.8058 131.945 27.607 128.91C27.607 128.282 27.607 127.654 27.607 127.027H28.35C28.4127 128.261 28.5069 129.496 28.6011 131.055C30.809 129.255 31.2799 126.87 32.1066 124.473C33.153 126.451 31.123 130.574 28.6743 131.997V148.384L25.3991 148.583V176.323L27.8058 175.769C27.2303 177.035 26.7594 178.05 26.278 179.159C29.0592 180.547 32.1271 181.264 35.2354 181.252C40.3105 181.179 45.3856 180.76 50.4398 180.488C52.6582 180.362 54.8662 180.216 57.1683 180.09C57.3253 177.359 57.3462 174.701 57.681 172.054C58.4554 165.953 59.3658 159.874 60.2552 153.783C61.3017 146.783 62.3481 139.793 61.49 132.677C60.7012 126.961 58.9311 121.425 56.2579 116.311C55.5011 114.908 55.0485 113.36 54.9295 111.77C54.8105 110.18 55.0278 108.582 55.5673 107.082C56.0696 105.585 56.4881 104.047 56.9695 102.404C50.5863 100.992 43.9939 100.824 39.0548 96.0316C35.3191 102.781 28.5906 104.863 21.8622 106.81C18.3776 107.856 14.7465 108.327 11.5863 108.986C10.4667 113.915 9.54582 118.77 8.21687 123.511C7.3162 126.025 6.2392 128.473 4.9939 130.835C4.05212 132.928 2.98478 135.021 2.25228 137.25C1.51979 139.479 2.17904 140.85 4.21955 142.105Z" fill="#54B57F"/>
<path fill-rule="evenodd" clip-rule="evenodd" d="M13.3967 51.7368C13.742 51.9147 14.0978 52.0716 14.4431 52.2286C19.0264 54.3214 21.4332 58.2874 23.4423 62.5777C25.0747 66.0204 26.4978 69.5782 28.193 73.0419C30.3591 77.4996 33.603 80.8063 38.72 81.7481C39.6094 81.905 40.5094 81.9887 41.4093 82.1038C41.4093 82.3027 41.4093 82.491 41.4093 82.6689L39.8606 82.8887C39.8606 84.9815 39.8606 87.179 39.8606 89.3241C39.9713 90.4011 39.9112 91.4888 39.6827 92.5471C39.0653 94.4097 39.8187 95.5608 41.1267 96.7328C44.2239 99.2027 48.0039 100.664 51.9572 100.918C55.9841 101.184 60.0229 101.219 64.0538 101.023C64.5665 101.023 65.1002 100.385 65.5815 100.05C65.12 99.7386 64.616 99.4955 64.0852 99.3279C57.8066 98.2815 52.1141 96.0631 47.3948 91.6681C46.9922 91.2176 46.6183 90.7423 46.2751 90.245C46.9239 90.3182 47.1332 90.245 47.2274 90.3601C51.4967 94.5458 57.0532 95.8642 62.4841 97.685C76.8201 102.342 86.0495 93.0389 88.2365 81.7481C89.9653 72.5173 89.5102 63.01 86.9075 53.9866C86.8006 53.5215 86.599 53.0834 86.3153 52.6996C86.0315 52.3158 85.6718 51.9946 85.2584 51.756C84.8451 51.5175 84.387 51.3666 83.9128 51.3129C83.4386 51.2592 82.9584 51.3037 82.5021 51.4438C80.9892 52.0529 79.5472 52.8248 78.2013 53.7459C77.5366 54.2002 76.9069 54.7039 76.3178 55.2528C76.3178 49.3823 79.0908 46.9965 84.8461 48.6708C83.8625 44.9141 82.6486 44.077 78.2013 43.6689C71.0857 43.0097 64.4619 44.8514 57.9008 47.3209C51.5386 49.7067 46.4949 53.9447 41.5767 58.392C40.5826 59.2605 39.5571 60.0767 38.4898 60.9767L39.5362 62.4521L39.1595 62.8602C38.6781 62.494 38.2072 62.1173 37.7154 61.751C33.9692 58.8629 30.3905 55.7236 26.456 53.1495C22.5214 50.5753 18.2416 50.209 13.3967 51.7368ZM85.9344 58.2037L84.0508 58.842C84.0927 59.4621 84.0927 60.0844 84.0508 60.7046C83.9981 61.0994 83.8545 61.4766 83.6312 61.8065C83.408 62.1363 83.1113 62.4099 82.7644 62.6057C82.4175 62.8014 82.03 62.914 81.6322 62.9346C81.2344 62.9551 80.8373 62.8831 80.4721 62.7242C79.8756 62.4312 79.185 62.2533 78.5048 62.0022C79.2478 59.4384 83.3497 57.0735 85.9344 58.2037V58.2037ZM83.5171 75.0719C84.2646 74.7831 85.0928 74.7831 85.8402 75.0719C86.1646 75.1661 86.2064 76.1183 86.3843 76.7252H85.8925C85.4958 76.3083 85.0369 75.9554 84.5322 75.6788C84.3961 75.6788 83.6741 76.3799 83.7369 76.6625C83.8481 77.2409 84.1827 77.7522 84.6682 78.0856C85.5367 78.5983 86.761 77.7926 87.1482 76.6625C87.3885 75.681 87.316 74.649 86.9407 73.7109C86.5654 72.7727 85.9062 71.9753 85.0554 71.4304L83.7578 70.6142C84.0768 70.4967 84.4122 70.4296 84.7519 70.4153C86.5099 70.7502 87.2424 72.1419 87.7551 73.5546C88.2679 74.9673 88.5399 76.8194 87.3261 78.2635C87.0589 78.5197 86.7429 78.7196 86.3969 78.8513C86.051 78.983 85.6821 79.0439 85.3121 79.0302C84.9422 79.0165 84.5787 78.9286 84.2434 78.7718C83.9081 78.6149 83.6077 78.3922 83.3602 78.117C83.1437 77.9211 82.9736 77.6795 82.8622 77.4097C82.7507 77.1399 82.7006 76.8487 82.7157 76.5572C82.7307 76.2657 82.8104 75.9811 82.949 75.7242C83.0877 75.4673 83.2817 75.2445 83.5171 75.0719V75.0719ZM78.0444 74.4755C78.9024 74.2871 79.7814 74.1092 80.8802 73.8476C79.1745 71.8489 77.6781 70.07 76.1608 68.3016C76.3387 68.176 76.5061 68.0295 76.6631 67.8935C78.7349 69.7903 80.6073 71.8941 82.251 74.172C81.6514 74.6178 80.9371 74.8831 80.1919 74.9369C79.4467 74.9907 78.7017 74.8306 78.0444 74.4755V74.4755ZM74.0157 83.2549C74.926 83.9665 75.826 85.1803 76.5585 85.0757C77.2909 84.971 78.1176 83.7258 78.9338 82.92C78.9902 83.6602 78.7826 84.3963 78.3477 84.9978C77.9129 85.5994 77.2789 86.0273 76.5585 86.2058C75.1876 86.3837 74.0157 85.0966 74.0157 83.2549ZM68.5429 55.8806C66.1571 55.3679 63.834 54.4575 61.5319 54.5098C59.2298 54.5621 56.8439 55.5562 54.3953 56.2155C54.3045 55.1273 54.5938 54.0414 55.214 53.1427C55.8341 52.244 56.7467 51.5881 57.7962 51.2868C61.3121 50.1881 66.7326 52.3332 68.5324 55.5458C68.5778 55.6521 68.5816 55.7716 68.5429 55.8806V55.8806ZM61.6993 72.2152C62.3686 71.7135 63.1093 71.3149 63.8968 71.0327L64.1689 71.6187L63.2271 72.1629C62.3319 72.7221 61.6434 73.5579 61.2658 74.5435C60.8881 75.5291 60.842 76.611 61.1343 77.6252C61.1842 77.865 61.2868 78.0908 61.4347 78.2862C61.5825 78.4815 61.772 78.6416 61.9893 78.7547C62.2066 78.8679 62.4463 78.9313 62.6912 78.9405C62.936 78.9496 63.1798 78.9043 63.405 78.8076C63.9434 78.4856 64.3369 77.9683 64.5037 77.3636C64.577 77.1229 63.9491 76.6625 63.6457 76.3171C63.3003 76.7252 62.9655 77.1438 62.5992 77.531C62.5469 77.5938 62.4004 77.531 61.8563 77.6566C61.9714 76.9659 61.9609 75.9718 62.1911 75.909C62.9853 75.6195 63.8561 75.6195 64.6502 75.909C64.9403 76.1777 65.1584 76.5149 65.2845 76.8896C65.4107 77.2644 65.4408 77.6648 65.3722 78.0542C65.1788 78.6614 64.7696 79.1766 64.222 79.5025C63.6744 79.8284 63.0263 79.9423 62.4004 79.8227C61.82 79.7949 61.2706 79.5526 60.8588 79.1427C60.4469 78.7328 60.202 78.1845 60.1716 77.6042C59.9825 76.6492 60.0223 75.6628 60.2879 74.7261C60.5534 73.7894 61.0371 72.9289 61.6993 72.2152ZM53.4012 62.2114C55.7661 59.3756 66.0733 60.9139 67.6848 64.5449C66.3873 63.8543 65.4036 63.3416 64.3991 62.8288C63.3003 65.0996 62.5051 65.7169 60.7994 65.6123C58.6124 65.4135 57.6601 64.4298 57.0323 61.6464C55.9022 61.8347 54.772 62.0022 53.4012 62.2114ZM18.5555 53.4006C18.7543 53.2227 18.8276 53.0971 18.9218 53.0867C19.1435 53.0507 19.3697 53.0507 19.5915 53.0867C22.8208 53.7284 25.713 55.5068 27.7431 58.099C30.5161 61.4371 33.1321 64.9007 35.79 68.333C35.9384 68.6232 36.0441 68.9334 36.1039 69.2538C33.7181 69.4736 32.7554 71.1897 34.0111 73.0628C34.6864 73.8402 35.4727 74.5137 36.3446 75.0614C36.6899 75.344 37.0771 75.5742 37.7364 76.0346C36.7193 76.0201 35.7272 75.7174 34.8752 75.1617C34.0232 74.6061 33.3462 73.8202 32.9228 72.8954C32.2322 71.1792 32.6717 69.8503 34.5448 68.176C30.9346 63.9903 28.5069 58.9466 23.4737 55.4934L26.2781 61.2906L25.6502 61.5836C24.834 60.1186 23.976 58.6745 23.2435 57.1677C22.3854 55.4306 21.4018 53.9447 19.1834 53.9133C18.9636 53.9029 18.7753 53.5994 18.5555 53.4006Z" fill="#FFF2CA"/>
<path fill-rule="evenodd" clip-rule="evenodd" d="M27.0314 223.726C36.2399 224.542 45.3856 224.375 54.3638 221.926C57.6601 221.037 59.146 218.85 59.2715 215.553C59.2715 215.836 59.3239 216.139 59.3448 216.422C59.5436 220.064 60.2761 220.838 63.8862 220.608C69.6625 220.315 75.1457 218.986 79.9383 215.512C82.0311 213.984 82.5334 212.948 81.7067 210.583C79.7081 204.723 79.8964 198.696 80.0743 192.637C80.2313 187.677 80.1476 182.717 80.1476 177.746C80.0964 177.244 80.0019 176.747 79.865 176.26C73.6493 180.875 66.4604 180.833 59.3239 181.116C52.3861 181.398 45.4379 181.995 38.4792 182.026C34.8377 182.026 31.1543 181.116 27.5441 180.582C26.8883 180.419 26.242 180.22 25.6083 179.986C26.0896 181.786 26.1419 183.449 26.9372 184.611C29.424 188.231 30.6721 192.56 30.495 196.948C30.5865 198.367 30.8357 199.771 31.238 201.134C31.4534 201.775 31.4557 202.47 31.2445 203.113C31.0333 203.756 30.6199 204.313 30.066 204.702C28.8731 205.55 27.7953 205.058 26.7175 204.42C26.4322 204.283 26.1387 204.164 25.8385 204.064C26.55 206.083 27.1151 207.831 27.7744 209.547C28.5382 211.535 28.1511 212.289 26.1001 212.906C25.8568 212.988 25.6357 213.125 25.4541 213.307C25.2726 213.488 25.1355 213.709 25.0537 213.952C24.6665 216.045 24.3526 218.222 24.1433 220.367C24.0625 220.785 24.0773 221.217 24.1867 221.628C24.2961 222.04 24.4972 222.422 24.775 222.745C25.0528 223.068 25.4 223.324 25.7908 223.494C26.1815 223.664 26.6057 223.743 27.0314 223.726V223.726ZM67.0464 197.566C61.5527 201.626 60.004 207.266 59.3448 213.335C58.8111 205.204 62.4108 197.566 67.0464 197.566Z" fill="#54B57F"/>
<path fill-rule="evenodd" clip-rule="evenodd" d="M61.8248 179.913C67.5592 179.651 72.9901 178.95 78.0443 176.407C78.8067 176.063 79.4259 175.465 79.7962 174.715C80.1665 173.965 80.2648 173.109 80.0743 172.295C79.729 169.647 79.143 167.063 78.9651 164.363C78.6459 157.457 79.6146 150.551 81.8219 143.999C82.6397 141.159 83.3068 138.277 83.8205 135.367C84.46 132.403 84.2274 129.317 83.1508 126.482C85.1495 124.39 87.0225 122.401 88.8747 120.434L89.2514 120.717C89.1391 121.039 88.9917 121.348 88.8119 121.638C87.5039 123.134 86.154 124.609 84.846 126.106C84.5752 126.389 84.4155 126.761 84.396 127.152C84.5321 130.291 84.7204 133.326 84.9088 136.685C85.8003 136.663 86.6873 136.551 87.5562 136.35C90.6244 135.551 93.6433 134.572 96.5973 133.42C98.9726 132.374 99.297 130.961 98.3867 128.659C95.6974 121.899 93.0395 115.129 90.2664 108.4C90.0991 108.045 89.8559 107.731 89.554 107.479C89.2521 107.228 88.8988 107.046 88.5189 106.946C84.7518 106.328 80.8801 106.213 77.1967 105.313C73.5345 104.241 69.936 102.963 66.4186 101.484C66.2407 102.143 66.0628 102.823 65.8744 103.493C65.7316 103.503 65.5882 103.503 65.4454 103.493C65.3408 102.98 65.2257 102.446 65.121 101.86C64.5141 101.965 63.9281 102.059 63.1538 102.206C62.6829 104.633 61.6678 107.166 61.8562 109.593C62.1529 112.85 62.9177 116.046 64.1269 119.084C66.7149 125.388 67.993 132.153 67.8836 138.966C67.497 147.054 66.2089 155.074 64.0432 162.877C62.6201 168.318 61.4586 173.896 61.8248 179.913Z" fill="#54B57F"/>
<path fill-rule="evenodd" clip-rule="evenodd" d="M29.5638 251.362C31.5311 253.528 31.0078 256.134 31.102 258.75C31.2904 263.678 32.0229 268.596 32.3786 273.525C32.35 274.32 32.6344 275.094 33.1706 275.681C33.7068 276.268 34.4519 276.621 35.2458 276.664C39.0025 277.271 42.7696 277.993 46.5681 278.224C52.1246 278.569 57.7438 278.768 63.3108 278.579C68.5429 278.412 73.7226 277.282 78.0653 273.923C80.0244 272.56 81.4958 270.606 82.2641 268.346C83.0323 266.087 83.057 263.64 82.3346 261.366C81.2882 257.682 77.3328 256.019 74.7795 257.913C75.9271 258.853 76.9787 259.904 77.9188 261.052C78.3085 261.722 78.5199 262.48 78.5328 263.255C78.5456 264.03 78.3594 264.796 77.992 265.478C77.2751 267.054 75.9726 268.288 74.3609 268.919C72.7492 269.55 70.955 269.528 69.3591 268.858C67.8903 268.23 66.5415 267.352 65.3722 266.263C61.7576 263.012 57.5755 260.455 53.0349 258.718C52.5163 258.461 52.0565 258.1 51.6847 257.656C51.3129 257.212 51.0372 256.696 50.8749 256.141C50.7126 255.585 50.6674 255.002 50.742 254.428C50.8166 253.854 51.0094 253.302 51.3084 252.806L52.6687 250.661H29.6475C29.5847 251.142 29.5219 251.299 29.5638 251.362Z" fill="#54B57F"/>
<path fill-rule="evenodd" clip-rule="evenodd" d="M29.6473 53.7459C32.4203 55.9957 35.0259 58.1304 37.7466 60.3592C40.9696 57.7327 44.1193 55.033 47.3946 52.4692C56.2264 45.5524 66.3975 42.6224 77.5314 42.6957C78.3306 42.7333 79.1253 42.8383 79.9068 43.0096C80.6811 43.1352 81.445 43.2817 82.2194 43.4177C82.345 43.2922 82.481 43.1771 82.5961 43.0515C80.3578 39.5008 77.9338 36.0708 75.334 32.7757C74.3922 31.7292 72.1005 31.52 70.4053 31.363C65.9894 30.9549 61.8038 32.1373 57.7437 33.7174C47.6505 37.5065 38.6043 43.6437 31.353 51.6216C30.7356 52.3018 30.2019 53.0448 29.6473 53.7459Z" fill="#54B57F"/>
<path fill-rule="evenodd" clip-rule="evenodd" d="M9.47255 180.666C8.97027 188.755 7.98664 197.147 13.1141 204.733C12.8525 202.641 12.6013 200.548 12.3293 198.455L13.0304 198.34C13.2606 199.773 13.5327 201.207 13.7419 202.641C14.1605 205.393 14.7884 208.051 17.1428 209.882C17.3625 210.049 17.6032 210.175 17.7811 210.3C16.9719 206.763 16.1836 203.216 15.4162 199.658L16.1592 199.459C16.3894 200.38 16.5882 201.322 16.8603 202.243C17.5823 204.744 18.2415 207.255 19.1624 209.683C19.3607 210.336 19.7866 210.895 20.3628 211.26C20.939 211.625 21.627 211.771 22.3016 211.671C18.5555 208.134 20.6483 203.499 19.4031 199.543C19.6123 199.543 19.8321 199.418 20.0309 199.355C20.28 199.892 20.4729 200.453 20.6064 201.029C20.8576 203.415 20.9413 205.801 21.2971 208.176C21.6529 210.552 23.3167 211.514 25.3886 212.006C25.6535 212.061 25.9276 212.056 26.1903 211.991C26.453 211.926 26.6976 211.802 26.9059 211.629C27.0397 211.404 27.1206 211.151 27.1424 210.89C27.1641 210.629 27.1262 210.367 27.0314 210.122C25.3965 206.333 24.6451 202.222 24.834 198.099C24.9029 197.334 24.778 196.564 24.4708 195.86C24.1635 195.156 23.6838 194.54 23.076 194.07C22.6955 193.718 22.4698 193.229 22.4481 192.71C24.0073 193.757 25.5874 194.73 25.692 196.896C25.7548 198.424 25.7653 200.035 25.9118 201.51C26.0583 202.986 27.1675 204.116 28.4232 203.854C30.1288 203.53 30.516 202.557 30.2649 200.715C29.8672 198.015 29.7521 195.284 29.4382 192.574C29.3341 191.631 29.0834 190.709 28.6953 189.843C27.9209 188.252 26.9059 186.787 26.1525 185.197C24.9386 182.644 24.3945 179.965 26.1525 177.286C18.7857 178.856 12.277 175.591 4.95203 174.649L9.47255 180.666Z" fill="#54B57F"/>
<path fill-rule="evenodd" clip-rule="evenodd" d="M27.8057 40.1111C28.1091 44.234 28.3079 48.3778 28.5486 52.5216L29.166 52.6576C29.4799 52.3228 29.8043 51.9984 30.1182 51.6112C38.7576 41.8838 49.9928 34.8232 62.5049 31.2584C66.2625 30.176 70.2187 29.9719 74.0678 30.6619C71.075 27.5227 68.1032 24.2788 65.0895 21.1186C64.7859 20.9011 64.4155 20.7974 64.0431 20.8256C50.4397 21.3697 38.5628 25.9321 29.2707 36.2812C28.7624 36.7745 28.3681 37.3728 28.115 38.0343C27.862 38.6958 27.7564 39.4045 27.8057 40.1111V40.1111Z" fill="#E24D4D"/>
<path fill-rule="evenodd" clip-rule="evenodd" d="M28.172 35.9672C40.0593 24.5926 45.1763 22.2905 63.6037 19.8838C63.3909 19.562 63.1529 19.2576 62.8921 18.9734C59.9413 16.3573 57.0008 13.7413 54.029 11.1671C53.6877 10.803 53.2275 10.573 52.7314 10.5183C47.0075 10.8008 41.3883 11.4287 36.2503 14.2854C33.7389 15.6772 31.9182 17.4247 31.3531 20.386C30.4532 25.074 29.2603 29.7096 28.2662 34.3662C28.2038 34.8976 28.1723 35.4321 28.172 35.9672V35.9672Z" fill="#54B57F"/>
<path fill-rule="evenodd" clip-rule="evenodd" d="M78.693 275C86.0179 278.391 96.0949 276.235 101.243 270.25C102.801 268.268 103.746 265.874 103.962 263.363C104.178 260.851 103.655 258.331 102.457 256.113C100.364 252.68 97.2251 251.739 93.458 253.538C94.0126 253.737 94.5044 253.873 94.9543 254.072C95.8681 254.42 96.6692 255.011 97.2704 255.782C97.8716 256.553 98.2499 257.474 98.3643 258.445C98.4786 259.416 98.3246 260.399 97.919 261.289C97.5133 262.178 96.8716 262.94 96.0635 263.49C94.3046 264.702 92.143 265.183 90.0362 264.829C89.7712 264.779 89.5189 264.677 89.2943 264.527C89.0696 264.378 88.8771 264.186 88.7281 263.961C87.2382 261.207 84.7989 259.087 81.8636 257.996C84.7099 263.029 84.8459 269.936 78.693 275Z" fill="#54B57F"/>
<path fill-rule="evenodd" clip-rule="evenodd" d="M62.4108 102.342H57.9112C57.2938 104.518 56.5823 106.611 56.1009 108.767C55.8068 110.082 55.7793 111.443 56.0201 112.77C56.261 114.096 56.7652 115.361 57.5031 116.489C61.333 122.621 62.2015 129.454 62.5782 136.455C63.0282 144.606 61.5318 152.559 60.2866 160.522C59.3971 166.487 58.8216 172.493 58.131 178.489C58.1015 178.904 58.1015 179.32 58.131 179.735C58.5401 179.798 58.9523 179.84 59.3657 179.86C59.7634 179.86 60.1506 179.86 60.5482 179.808C60.6436 176.955 60.8846 174.108 61.2702 171.28C62.4841 164.802 63.8549 158.335 65.3094 151.9C68.0622 140.165 67.1192 127.866 62.6096 116.688C61.2807 113.329 60.0982 109.918 61.0609 106.224C61.4586 105.031 61.9295 103.807 62.4108 102.342Z" fill="white"/>
<path fill-rule="evenodd" clip-rule="evenodd" d="M57.3566 249.3C58.9577 250.912 58.7588 252.764 58.4031 254.805C58.2147 256.484 58.2147 258.179 58.4031 259.859C58.4031 260.246 58.9158 260.665 59.2716 260.905C61.5946 262.548 63.8968 264.181 66.2512 265.75C67.678 266.771 69.1946 267.661 70.7822 268.408C71.2588 268.653 71.7837 268.79 72.3194 268.809C72.855 268.828 73.3883 268.729 73.8811 268.518C74.3738 268.307 74.814 267.99 75.1701 267.589C75.5261 267.189 75.7894 266.714 75.941 266.2C76.438 264.77 76.5851 263.241 76.3701 261.742C76.0561 259.733 74.3505 258.928 72.3832 259.398C71.9593 259.451 71.5305 259.451 71.1066 259.398V258.875C74.0784 257.599 76.7258 254.909 80.5243 256.782C78.8919 254.69 77.249 252.523 75.6899 250.336C75.4434 249.838 75.3557 249.275 75.4387 248.725C75.5773 248.137 75.7772 247.565 76.0352 247.019C69.7044 249.886 63.5514 251.079 56.9276 248.254C57.1264 248.756 57.1578 249.102 57.3566 249.3Z" fill="#54B57F"/>
<path fill-rule="evenodd" clip-rule="evenodd" d="M84.7833 196.216C84.7833 191.674 85.4949 187.3 88.3934 183.02C88.4606 183.687 88.4111 184.359 88.2469 185.009C86.0076 188.964 85.8611 193.38 85.3798 197.712C85.2393 198.715 84.7185 199.625 83.9252 200.255C80.786 202.473 80.5348 202.798 81.508 206.533C81.5813 206.847 81.6964 207.151 81.8743 207.737C86.4052 203.467 89.7119 198.811 90.1514 192.543C90.413 188.744 90.6223 184.935 90.9781 181.147C91.0938 179.825 91.6937 178.591 92.6628 177.684C94.065 176.292 94.6929 174.136 95.6347 172.305C90.8839 174.178 86.4262 175.978 80.9848 174.796C80.9848 175.968 80.9848 177.014 80.9848 178.039C80.8802 184.13 80.7895 190.216 80.7127 196.299C80.7127 197.346 79.9488 198.727 81.9684 198.79C83.988 198.853 84.7624 198.141 84.7833 196.216Z" fill="#54B57F"/>
<path fill-rule="evenodd" clip-rule="evenodd" d="M24.405 153.616C17.9695 155.196 12.0886 154.076 6.14496 151.419C6.34378 154.286 6.44842 156.891 6.74142 159.476C6.92671 160.121 7.35924 160.666 7.9448 160.993C10.1305 162.366 12.6072 163.207 15.1765 163.451C17.7459 163.694 20.3365 163.333 22.7411 162.396C23.3218 162.253 23.8261 161.894 24.1509 161.393C24.4758 160.891 24.5966 160.284 24.4887 159.696C24.2898 157.802 24.405 155.845 24.405 153.616Z" fill="white"/>
<path fill-rule="evenodd" clip-rule="evenodd" d="M80.001 164.446C80.0639 164.701 80.1829 164.939 80.3495 165.142C80.5161 165.344 80.726 165.507 80.9637 165.618C84.7099 166.602 88.4247 166.759 91.7628 164.436C92.0991 164.173 92.3784 163.845 92.5835 163.471C92.7886 163.096 92.9152 162.684 92.9557 162.259C93.0813 159.12 93.008 155.981 93.008 153.03C88.6968 153.386 84.6367 153.71 80.3882 154.076C79.6857 157.488 79.5549 160.992 80.001 164.446V164.446Z" fill="#E24D4D"/>
<path fill-rule="evenodd" clip-rule="evenodd" d="M31.688 234.944C31.7954 235.362 32.0029 235.749 32.2927 236.07C32.5826 236.391 32.946 236.636 33.3518 236.785C38.7409 237.968 44.0776 238.031 49.1841 235.467C49.8616 235.233 50.4387 234.774 50.8194 234.167C51.2001 233.56 51.3616 232.841 51.277 232.129C51.2673 230.728 51.3617 229.329 51.5595 227.943C44.8833 231.145 38.3223 230.266 31.6148 228.812C31.5339 230.856 31.5583 232.902 31.688 234.944V234.944Z" fill="#E24D4D"/>
<path fill-rule="evenodd" clip-rule="evenodd" d="M6.82507 161.59C7.09714 164.572 7.24364 167.293 7.65174 169.961C7.79448 170.343 8.02221 170.688 8.31771 170.969C8.61321 171.25 8.96874 171.46 9.35741 171.583C14.0435 172.926 19.0418 172.687 23.5782 170.903C23.7967 170.769 23.9819 170.588 24.1197 170.372C24.2575 170.156 24.3443 169.912 24.3735 169.658C24.4468 167.387 24.3735 165.095 24.3735 162.657C18.4194 165.388 12.7164 164.907 6.82507 161.59Z" fill="#E24D4D"/>
<path fill-rule="evenodd" clip-rule="evenodd" d="M92.8511 151.764V141.645L82.7008 142.859C82.1044 145.559 81.4033 148.593 80.765 151.628C80.4615 153.082 81.7067 153.124 82.4915 153.072C85.1599 152.904 87.8073 152.58 90.4548 152.266C91.2619 152.141 92.0618 151.974 92.8511 151.764V151.764Z" fill="white"/>
<path fill-rule="evenodd" clip-rule="evenodd" d="M57.9845 229.01C58.2873 230.015 58.9458 230.874 59.8367 231.428C63.4991 233.698 71.7449 232.411 74.6749 229.178C75.0761 228.712 75.3373 228.143 75.4283 227.535C75.5853 226.321 75.6062 225.065 75.6794 223.778C69.83 225.976 64.0014 226.656 57.8903 224.626C57.7642 226.087 57.7958 227.557 57.9845 229.01V229.01Z" fill="#E24D4D"/>
<path fill-rule="evenodd" clip-rule="evenodd" d="M6.18673 149.682C6.21958 149.898 6.30056 150.104 6.4237 150.286C6.54684 150.467 6.70902 150.618 6.8983 150.728C12.2747 153.498 18.4767 154.212 24.3421 152.737V148.489C18.1264 148.133 11.9839 147.212 6.15534 144.449C6.15534 146.396 6.11348 148.039 6.18673 149.682Z" fill="#E24D4D"/>
<path fill-rule="evenodd" clip-rule="evenodd" d="M33.0901 15.2481C38.9919 11.1252 45.2286 9.86955 52.1873 9.70212C48.505 6.45706 44.33 3.8185 39.8186 1.88538C36.8859 5.9574 34.6151 10.4673 33.0901 15.2481V15.2481Z" fill="#E24D4D"/>
<path fill-rule="evenodd" clip-rule="evenodd" d="M51.0886 235.488C44.8101 239.192 38.3328 238.627 31.6985 237.476C31.6985 237.392 31.6985 237.476 31.6985 237.581C31.6985 241.536 31.6985 241.547 35.6016 242.813C38.9711 243.859 42.4557 244.518 45.8356 243.315C50.1573 241.724 51.0991 241.159 51.0886 235.488Z" fill="white"/>
<path fill-rule="evenodd" clip-rule="evenodd" d="M57.5554 236.66C57.6667 238.901 57.9571 241.13 58.4239 243.325C58.6827 243.816 59.0518 244.239 59.5022 244.562C59.9525 244.886 60.4718 245.1 61.0191 245.188C64.9238 245.847 68.9367 245.165 72.4041 243.252C72.9855 242.974 73.4671 242.523 73.7835 241.962C74.0999 241.4 74.2357 240.754 74.1725 240.113C74.1862 239.125 74.2631 238.14 74.4028 237.162C72.0218 239.023 69.0495 239.963 66.0314 239.81C64.4802 239.874 62.9318 239.628 61.4765 239.087C60.0212 238.547 58.6882 237.721 57.5554 236.66V236.66Z" fill="#E24D4D"/>
<path fill-rule="evenodd" clip-rule="evenodd" d="M75.1247 230.36C69.5578 233.761 63.9385 234.839 58.0262 231.564C57.1159 234.933 58.0262 236.743 61.2597 237.968C64.4839 239.204 68.055 239.181 71.2634 237.905C73.5237 237.036 75.0096 235.603 74.8631 232.945C74.8823 232.078 74.9698 231.214 75.1247 230.36V230.36Z" fill="white"/>
<path fill-rule="evenodd" clip-rule="evenodd" d="M34.5865 247.616C38.0688 249.373 42.0281 249.949 45.8669 249.259C49.5817 248.505 50.4502 247.427 50.7013 243.733C50.7013 243.116 50.7013 242.488 50.7013 241.567C49.4782 242.729 48.0147 243.608 46.4144 244.141C44.8141 244.675 43.1161 244.85 41.4405 244.654C38.3013 244.299 35.162 243.493 32.0228 242.896C31.5519 245.826 31.7507 246.287 34.5865 247.616Z" fill="#E24D4D"/>
<path fill-rule="evenodd" clip-rule="evenodd" d="M31.5728 225.578C31.081 227.137 32.2006 228.058 33.6656 228.362C38.3745 229.335 43.0834 229.806 47.876 228.581C47.987 228.561 48.0957 228.53 48.2004 228.487C51.1408 227.378 51.664 226.52 51.4129 223.443L31.5728 225.578Z" fill="white"/>
<path fill-rule="evenodd" clip-rule="evenodd" d="M92.851 165.21C86.6667 167.502 85.3796 167.638 80.294 166.476C80.7335 168.873 81.1207 171.185 81.6125 173.467C81.6753 173.739 82.2403 174.021 82.6589 174.105C85.8819 174.806 88.8118 173.655 91.7523 172.588C91.91 172.491 92.0437 172.36 92.1434 172.204C92.2431 172.048 92.3061 171.871 92.3278 171.688C92.5371 169.553 92.7045 167.418 92.851 165.21Z" fill="white"/>
<path fill-rule="evenodd" clip-rule="evenodd" d="M75.8363 219.436C71.8809 220.137 67.9882 220.838 64.0955 221.529C63.5419 221.672 62.9642 221.697 62.4003 221.602C60.8202 221.173 59.3343 221.079 57.9426 222.46C58.1528 223.056 58.538 223.574 59.0477 223.948C59.5573 224.321 60.1678 224.532 60.7993 224.553C65.121 225.086 69.4427 225.191 73.5761 223.506C76.0142 222.544 76.0456 222.376 75.8363 219.436Z" fill="white"/>
<path fill-rule="evenodd" clip-rule="evenodd" d="M24.3003 171.845C15.5627 173.676 12.2037 173.728 8.0285 172.064C8.10175 173.686 8.53078 174.67 10.4248 174.9C14.4117 175.381 18.3776 176.166 22.354 176.784C23.0046 176.814 23.6566 176.778 24.3003 176.679V171.845Z" fill="white"/>
<path fill-rule="evenodd" clip-rule="evenodd" d="M73.7853 243.608C68.7834 246.255 63.7502 247.155 58.4448 245.345C58.2146 247.919 58.2146 247.951 60.6319 248.484C64.7689 249.32 69.0608 248.916 72.9691 247.323C73.1636 247.213 73.3323 247.062 73.4641 246.882C73.5958 246.702 73.6875 246.495 73.733 246.276C73.8114 245.389 73.8289 244.498 73.7853 243.608V243.608Z" fill="white"/>
<path fill-rule="evenodd" clip-rule="evenodd" d="M83.1508 141.373C86.5621 142.419 89.5967 141.08 92.7359 140.4V136.214C89.9629 136.706 87.305 137.135 84.6681 137.658C84.3123 137.731 83.9356 138.286 83.7786 138.705C83.5065 139.51 83.4333 140.368 83.1508 141.373Z" fill="#E24D4D"/>
<path fill-rule="evenodd" clip-rule="evenodd" d="M86.7086 50.0207C87.4097 52.689 88.0375 55.1063 88.6654 57.5235C89.7118 54.0284 90.2036 50.3032 94.1067 48.5034C94.0126 48.3464 93.9079 48.1894 93.8242 48.0325L86.7086 50.0207ZM88.6654 53.3587L88.027 52.8879L90.1199 50.073L90.6954 50.5648C89.9769 51.4926 89.3002 52.4239 88.6654 53.3587Z" fill="#FFF2CA"/>
<path fill-rule="evenodd" clip-rule="evenodd" d="M76.1084 55.5772C79.3523 51.6112 82.5229 49.5079 86.7609 51.7159C84.4797 47.886 81.9369 47.6976 79.436 48.5766C77.3536 49.2045 76.3491 51.6635 76.1084 55.5772Z" fill="black"/>
<path fill-rule="evenodd" clip-rule="evenodd" d="M38.0501 250.232L31.9913 247.427V249.813L38.0501 250.232Z" fill="white"/>
<path fill-rule="evenodd" clip-rule="evenodd" d="M18.5554 53.4006C18.7542 53.5994 18.9425 53.9029 19.1204 53.9134C21.3388 53.9134 22.3225 55.4307 23.1805 57.1677C23.913 58.6746 24.7711 60.1186 25.5873 61.5836L26.2151 61.2906L23.4107 55.4935C28.444 58.9466 30.8717 63.9904 34.4818 68.176C32.6297 69.9026 32.1588 71.1793 32.8808 72.8954C33.3042 73.8203 33.9812 74.6061 34.8332 75.1618C35.6852 75.7174 36.6773 76.0201 37.6943 76.0346C37.0351 75.5742 36.6479 75.344 36.3026 75.0615C35.4478 74.5032 34.6792 73.8228 34.0214 73.0419C32.7762 71.1688 33.7389 69.4527 36.1143 69.2329C36.0544 68.9125 35.9487 68.6023 35.8003 68.3121C33.1424 64.8798 30.5682 61.4162 27.7534 58.0781C25.7182 55.4976 22.8266 53.7307 19.6018 53.0972C19.38 53.0612 19.1539 53.0612 18.9321 53.0972C18.8484 53.0972 18.7751 53.2227 18.5554 53.4006Z" fill="#7D4E24"/>
<path fill-rule="evenodd" clip-rule="evenodd" d="M54.3952 56.2154C56.8438 55.5876 59.1669 54.5725 61.5318 54.5098C63.8967 54.447 66.1569 55.3678 68.5428 55.8806C68.5848 55.7729 68.5848 55.6534 68.5428 55.5457C66.6906 52.3227 61.312 50.188 57.7961 51.2868C56.7465 51.5881 55.834 52.2439 55.2138 53.1426C54.5937 54.0414 54.3044 55.1273 54.3952 56.2154V56.2154ZM55.63 54.5307C56.9589 51.3914 61.4481 50.8368 64.6187 53.3273C61.7306 53.6935 58.6227 54.1121 55.63 54.5307Z" fill="black"/>
<path fill-rule="evenodd" clip-rule="evenodd" d="M83.3391 78.1902C83.5867 78.4654 83.8871 78.6881 84.2224 78.8449C84.5577 79.0018 84.9211 79.0897 85.2911 79.1034C85.661 79.117 86.0299 79.0562 86.3759 78.9245C86.7219 78.7928 87.0378 78.5929 87.305 78.3367C88.5189 76.8926 88.3515 75.1974 87.7341 73.6278C87.1167 72.0582 86.4888 70.7711 84.7309 70.4885C84.3912 70.5028 84.0558 70.5699 83.7368 70.6873L85.0343 71.5036C85.8852 72.0485 86.5444 72.8459 86.9196 73.784C87.2949 74.7222 87.3675 75.7542 87.1272 76.7356C86.7923 77.8658 85.5157 78.6715 84.6472 78.1588C84.1616 77.8253 83.827 77.314 83.7158 76.7356C83.653 76.4531 84.3751 75.6892 84.5111 75.752C85.0158 76.0285 85.4747 76.3815 85.8715 76.7984H86.3633C86.1854 76.2124 86.1435 75.2393 85.8191 75.1451C85.0717 74.8563 84.2435 74.8563 83.4961 75.1451C83.2607 75.3177 83.0666 75.5405 82.928 75.7974C82.7894 76.0543 82.7097 76.3388 82.6946 76.6304C82.6796 76.9219 82.7296 77.2131 82.8411 77.4829C82.9526 77.7527 83.1227 77.9943 83.3391 78.1902V78.1902Z" fill="#DCA0C8"/>
<path fill-rule="evenodd" clip-rule="evenodd" d="M60.14 77.6042C60.1705 78.1845 60.4154 78.7327 60.8272 79.1427C61.2391 79.5526 61.7885 79.7949 62.3689 79.8226C62.9948 79.9423 63.6428 79.8284 64.1905 79.5025C64.7381 79.1766 65.1473 78.6614 65.3407 78.0542C65.4067 77.663 65.3733 77.2615 65.2435 76.8866C65.1136 76.5118 64.8916 76.1756 64.5977 75.909C63.8036 75.6195 62.9328 75.6195 62.1387 75.909C61.9085 75.9718 61.9189 76.9554 61.8038 77.6565C62.3479 77.5728 62.4944 77.5938 62.5468 77.531C62.913 77.1438 63.2479 76.7252 63.5932 76.3171C63.8966 76.6834 64.5245 77.1438 64.4512 77.3635C64.2844 77.9683 63.8909 78.4855 63.3525 78.8076C63.1274 78.9042 62.8835 78.9496 62.6387 78.9405C62.3939 78.9313 62.1541 78.8679 61.9368 78.7547C61.7195 78.6415 61.5301 78.4815 61.3822 78.2861C61.2343 78.0908 61.1317 77.865 61.0818 77.6251C60.7895 76.6109 60.8357 75.5291 61.2133 74.5435C61.5909 73.5578 62.2795 72.7221 63.1746 72.1628L64.1164 71.6187L63.8443 71.0327C63.0569 71.3149 62.3161 71.7134 61.6468 72.2152C60.9883 72.9308 60.5085 73.7922 60.2466 74.7288C59.9847 75.6655 59.9482 76.6508 60.14 77.6042V77.6042Z" fill="#DCA0C8"/>
<path fill-rule="evenodd" clip-rule="evenodd" d="M80.88 73.8476C79.8336 74.1092 78.9023 74.2871 78.0443 74.4755C78.6972 74.8293 79.4371 74.9905 80.178 74.9405C80.9189 74.8905 81.6305 74.6313 82.2299 74.1929C80.5862 71.9151 78.7139 69.8113 76.6421 67.9144C76.4851 68.0505 76.3177 68.197 76.1398 68.3225C77.678 70.07 79.1744 71.849 80.88 73.8476Z" fill="#7D4E24"/>
<path fill-rule="evenodd" clip-rule="evenodd" d="M74.0156 83.2549C74.1097 85.0966 75.2399 86.3942 76.5584 86.2058C77.2788 86.0273 77.9128 85.5993 78.3476 84.9978C78.7825 84.3963 78.9901 83.6601 78.9337 82.92C78.1175 83.7258 77.4164 85.0129 76.5584 85.0757C75.7003 85.1384 74.8736 83.9665 74.0156 83.2549Z" fill="#7D4E24"/>
<path fill-rule="evenodd" clip-rule="evenodd" d="M59.3658 213.325C60.025 207.255 61.5737 201.615 67.0674 197.555C62.4108 197.566 58.8112 205.204 59.3658 213.325Z" fill="#7D4E24"/>
<path fill-rule="evenodd" clip-rule="evenodd" d="M87.9747 52.8879L88.613 53.3587C89.3107 52.4239 90.0083 51.4926 90.7059 50.5648L90.1304 50.073L87.9747 52.8879Z" fill="#7D4E24"/>
<path fill-rule="evenodd" clip-rule="evenodd" d="M55.63 54.5307C58.6228 54.1121 61.7306 53.6936 64.6187 53.3273C61.4586 50.8368 56.959 51.4124 55.63 54.5307Z" fill="black"/>
<path fill-rule="evenodd" clip-rule="evenodd" d="M67.9415 65.0615C67.2067 64.2344 55.8782 63.6314 55.1147 64.262C54.2557 64.9891 58.4359 65.8679 60.526 65.9851C62.2725 66.0574 68.6764 65.8851 67.9415 65.0615Z" fill="black"/>
<path fill-rule="evenodd" clip-rule="evenodd" d="M78.5022 62.9939C78.3189 62.408 84.4871 59.0331 85.4457 59.1258C86.4043 59.2185 84.7678 60.7538 83.6162 61.3688C82.649 61.8928 78.7365 63.5638 78.5022 62.9939Z" fill="black"/>
</svg>
