<svg width="105" height="279" viewBox="0 0 105 279" fill="none" xmlns="http://www.w3.org/2000/svg">
<path fill-rule="evenodd" clip-rule="evenodd" d="M2.99517 141.601C4.79501 142.731 5.17172 143.987 5.2659 145.986C5.57983 152.651 6.20768 159.296 6.70996 165.941C6.88785 168.306 7.06574 170.681 7.28549 173.496L3.02657 171.058C3.08656 171.583 3.22043 172.098 3.4242 172.586C4.86826 174.836 6.28093 177.117 7.90287 179.241C8.15139 179.523 8.33163 179.859 8.42962 180.221C8.52761 180.584 8.54072 180.965 8.46794 181.334C7.5157 189.914 7.57848 198.369 12.8943 205.789C14.8616 208.499 17.1427 211.021 20.6692 211.732C21.9253 211.905 23.1898 212.01 24.4572 212.046C23.7561 215.384 23.055 218.743 22.2702 222.51C24.7711 223.096 27.5651 223.756 30.6415 224.467V248.744L27.5023 248.514C28.329 250.021 29.051 251.214 29.5951 252.48C29.9203 253.179 30.1187 253.93 30.1811 254.698C30.6101 260.506 30.9764 266.303 31.4159 272.1C31.5101 273.324 31.3636 275.082 32.0751 275.637C33.4095 276.483 34.9353 276.979 36.5119 277.081C40.6348 277.657 44.7786 278.023 48.912 278.494C49.6445 278.567 50.3561 278.724 51.0676 278.839H63.8444C64.3885 278.724 64.8908 278.557 65.4768 278.494C69.2292 278.174 72.8832 277.126 76.234 275.407C76.6298 275.16 77.0804 275.015 77.5459 274.984C78.0113 274.952 78.4772 275.037 78.9023 275.229C81.9259 276.362 85.1585 276.827 88.3788 276.594C91.5991 276.361 94.731 275.435 97.56 273.879C101.631 271.713 103.912 268.155 105 263.75V257.921C103.954 256.121 103.211 254.081 101.861 252.574C99.2447 249.675 96.4403 249.435 93.1127 251.528C92.0663 252.155 91.114 252.877 90.1095 253.558C90.1827 253.715 90.256 253.861 90.3188 254.018C90.6696 254.007 91.0192 253.972 91.3652 253.913C94.0022 253.327 96.7752 254.646 97.4658 256.801C97.7237 258.009 97.5322 259.27 96.9273 260.347C96.3225 261.423 95.3457 262.243 94.18 262.651C93.2216 262.997 92.2159 263.195 91.1977 263.237C90.7597 263.245 90.3286 263.126 89.9571 262.894C89.5855 262.662 89.2894 262.326 89.1049 261.929C88.1245 260.472 86.8655 259.224 85.4006 258.256C82.5087 256.405 80.0178 253.993 78.0757 251.161C76.7781 249.288 75.9828 247.771 77.092 245.647C77.1757 245.469 77.092 245.218 77.092 244.715L74.5492 245.688C74.7795 242.497 74.9783 239.525 75.2189 236.553C75.7422 230.578 76.2654 224.624 76.8409 218.66C76.9658 217.989 77.3396 217.391 77.8873 216.985C79.5093 215.75 81.2463 214.62 82.9415 213.469C83.1048 213.388 83.2487 213.272 83.3632 213.13C83.4777 212.988 83.5601 212.823 83.6048 212.646C83.6495 212.469 83.6555 212.285 83.6223 212.105C83.5891 211.926 83.5175 211.756 83.4124 211.607C82.8473 210.372 82.4392 209.074 82.0834 208.112C84.7832 204.826 87.5039 201.896 89.7746 198.642C91.6163 195.984 91.3338 192.656 91.5221 189.527C91.7105 186.398 91.7 183.249 91.9721 180.109C92.1702 179.199 92.5949 178.353 93.2069 177.65C95.0731 175.183 96.3444 172.318 96.9217 169.279L93.3011 171.037C93.4789 168.212 93.7301 165.627 93.7405 163.021C93.8033 156.063 93.7405 149.094 93.7405 142.093C93.7405 141.873 93.6673 141.643 93.6673 141.423C93.6673 139.425 93.0394 137.112 93.8452 135.511C94.5463 134.098 96.8275 133.418 98.3971 132.466L101.222 130.645C100.479 129.295 99.6842 128.113 99.1296 126.826C96.4822 120.411 93.8975 113.976 91.3547 107.519C91.1919 106.862 90.8244 106.274 90.3052 105.839C89.786 105.405 89.1421 105.147 88.4666 105.102C84.8367 104.813 81.2295 104.289 77.6676 103.533C74.0647 102.469 70.5195 101.218 67.0464 99.7864C66.7743 99.6923 66.5023 99.619 66.2407 99.5144C66.3453 99.3051 66.4604 99.0853 66.5546 98.876C67.2976 98.876 68.0301 98.7714 68.773 98.7714C77.2804 98.7714 83.7368 95.4124 87.0749 87.2608C88.1939 84.463 89.0011 81.5503 89.4816 78.5755C90.528 72.454 89.7956 66.322 89.4188 60.169C89.1468 55.8473 89.9839 51.2326 94.3265 48.491C95.0904 48.0097 95.8229 47.4446 96.5659 46.9528C96.5659 46.9528 96.5659 46.8481 96.5659 46.4924C92.9767 45.875 89.7328 47.1725 86.4052 48.4073C86.2645 48.2429 86.1417 48.064 86.0389 47.8736C83.0252 40.0883 78.2012 33.4121 72.7494 27.1127C64.8876 18.1935 55.9774 10.2565 46.2122 3.47411C44.2619 2.21112 42.2465 1.05149 40.1744 0L39.128 0C37.4537 2.89858 35.6539 5.73437 34.1575 8.7062C30.4317 16.237 28.1563 24.4015 27.45 32.7738C26.6798 39.2024 26.8773 45.7102 28.036 52.0802C22.5632 49.0665 17.1114 47.8946 11.1677 50.6257C11.4502 50.971 11.5549 51.2222 11.7223 51.264C17.3416 53.022 20.3239 57.396 22.6783 62.3561C24.227 65.5999 25.5873 68.9171 27.1779 72.1296C29.4382 76.6711 32.546 80.3335 37.7676 81.6311C37.9882 81.716 38.1825 81.8574 38.3312 82.041C38.48 82.2247 38.5779 82.4441 38.6152 82.6775C38.6794 86.025 38.5326 89.3732 38.1757 92.7022C37.527 96.8878 34.754 99.6922 31.0601 101.576C25.6769 104.206 19.9023 105.945 13.9616 106.724C10.2678 107.3 10.3933 107.258 9.95385 111.088C9.05326 119.506 6.21284 127.601 1.65576 134.737C-0.719611 138.41 -0.761468 139.174 2.99517 141.601ZM52.1768 8.86316C45.2181 9.03059 38.9815 10.2863 33.0797 14.4092C34.6079 9.62766 36.8822 5.11776 39.8186 1.04642C44.33 2.97954 48.505 5.6181 52.1873 8.86316H52.1768ZM63.6037 19.0448C45.1763 21.4516 40.0593 23.7537 28.172 35.1283C28.1707 34.5792 28.2021 34.0306 28.2662 33.4854C29.3126 28.8288 30.4532 24.1932 31.3531 19.5052C31.9182 16.5229 33.7389 14.7964 36.2503 13.4046C41.3883 10.5479 47.0075 9.92004 52.7314 9.63751C53.2275 9.69215 53.6876 9.92224 54.029 10.2863C57.0008 12.8605 59.9412 15.5184 62.8921 18.0926C63.1547 18.3902 63.3927 18.7086 63.6037 19.0448ZM74.0679 29.8229C70.2188 29.1329 66.2626 29.337 62.505 30.4194C49.9691 33.9868 38.7141 41.063 30.066 50.8141C29.7521 51.1594 29.4277 51.4838 29.1138 51.8605L28.4964 51.7244C28.2557 47.5388 28.0569 43.4368 27.7534 39.3139C27.7028 38.6082 27.8068 37.8999 28.058 37.2384C28.3092 36.577 28.7016 35.9783 29.2079 35.484C38.5525 25.114 50.3979 20.5307 64.0327 19.9866C64.4051 19.9584 64.7756 20.0621 65.0792 20.2796C68.1138 23.4398 71.0856 26.6418 74.0783 29.8229H74.0679ZM82.5962 42.2439C82.4811 42.3695 82.345 42.4846 82.2195 42.6101C81.4451 42.4741 80.6812 42.3276 79.9069 42.202C79.1254 42.0307 78.3307 41.9257 77.5315 41.8881C66.3976 41.7835 56.2369 44.7134 47.3947 51.6303C44.1194 54.194 40.9697 56.8624 37.7467 59.5203C35.026 57.2914 32.4204 55.1567 29.6474 52.9069C30.202 52.2058 30.6939 51.4628 31.3531 50.8141C38.6044 42.8362 47.6506 36.6989 57.7438 32.9098C61.8039 31.3298 65.9895 30.1473 70.4054 30.5554C72.1006 30.7124 74.3923 30.8798 75.3341 31.9681C77.9339 35.2632 80.3579 38.6932 82.5962 42.2439V42.2439ZM88.6654 56.6635C88.0376 54.2463 87.4097 51.8291 86.7086 49.1607L93.8243 47.1725C93.908 47.3295 94.0126 47.4865 94.1068 47.6434C90.2036 49.4433 89.7118 53.1685 88.6654 56.6635ZM62.4422 96.7413C57.0113 94.9624 51.4548 93.6021 47.1854 89.4164C47.0912 89.3327 46.8819 89.4164 46.2332 89.3013C46.5763 89.7986 46.9503 90.2739 47.3528 90.7244C52.0722 95.1194 57.817 97.3169 64.0432 98.3842C64.5741 98.5518 65.078 98.795 65.5396 99.1063C65.0478 99.4411 64.4932 100.079 64.0118 100.079C59.9809 100.275 55.9421 100.24 51.9152 99.9748C47.962 99.7199 44.182 98.259 41.0848 95.7891C39.7768 94.6694 38.992 93.5184 39.6407 91.6034C39.8693 90.5452 39.9293 89.4575 39.8186 88.3805C39.8186 86.2353 39.8186 84.0902 39.8186 81.945L41.3673 81.7252C41.3673 81.5474 41.3673 81.359 41.3673 81.1602C40.4674 81.0451 39.5675 80.9614 38.678 80.8044C33.561 79.8626 30.3067 76.5559 28.1511 72.0982C26.4559 68.6869 25.0118 65.1291 23.4003 61.634C21.3912 57.3437 18.9844 53.3569 14.4011 51.2849C14.0558 51.128 13.7 50.971 13.3547 50.7931C18.1996 49.2654 22.5946 49.7467 26.4035 52.1849C30.2125 54.623 33.9168 57.8983 37.663 60.7864C38.1548 61.1527 38.6257 61.5294 39.1071 61.8956L39.4838 61.4875L38.4374 60.0121C39.4838 59.1122 40.5302 58.296 41.5243 57.4274C46.4634 53.0011 51.5071 48.7631 57.8693 46.3772C64.4304 43.9077 71.0542 42.066 78.1698 42.7253C82.6171 43.1334 83.831 43.9705 84.8146 47.7271C79.0593 46.0529 76.3072 48.4387 76.2863 54.3091C76.8891 53.7951 77.5292 53.3264 78.2012 52.9069C79.5471 51.9858 80.9892 51.2139 82.502 50.6048C82.9583 50.4647 83.4385 50.4201 83.9127 50.4739C84.3869 50.5276 84.845 50.6784 85.2583 50.917C85.6717 51.1556 86.0314 51.4768 86.3152 51.8606C86.5989 52.2443 86.8005 52.6824 86.9074 53.1476C89.5101 62.171 89.9652 71.6783 88.2364 80.909C86.0494 92.1999 76.82 101.503 62.4422 96.7413ZM77.4897 52.1849C77.6676 50.092 78.4628 48.8154 80.1162 48.4596C81.1472 48.1348 82.2512 48.1214 83.2899 48.4211C84.3285 48.7208 85.2557 49.3202 85.9552 50.1444C82.5753 48.9724 80.0639 50.092 77.4897 52.1849ZM62.5887 135.658C62.2015 128.657 61.333 121.824 57.5031 115.692C56.7644 114.562 56.2596 113.296 56.0188 111.967C55.778 110.639 55.8059 109.276 56.1009 107.959C56.5822 105.866 57.2833 103.773 57.9112 101.544H62.4003C61.9294 102.957 61.4481 104.192 61.1132 105.458C60.1401 109.152 61.333 112.563 62.6619 115.922C67.1775 127.099 68.1207 139.4 65.3617 151.134C63.9176 157.58 62.505 164.036 61.333 170.566C60.9383 173.39 60.6937 176.234 60.6005 179.084C60.2029 179.084 59.8157 179.157 59.4285 179.136C59.0115 179.116 58.5959 179.074 58.1833 179.011C58.1486 178.596 58.1486 178.18 58.1833 177.766C58.8844 171.78 59.4494 165.763 60.3389 159.809C61.4586 151.731 63.0282 143.799 62.5887 135.658ZM87.5562 135.469C86.6873 135.67 85.8003 135.782 84.9088 135.804C84.7204 132.445 84.5321 129.358 84.396 126.271C84.4155 125.88 84.5752 125.508 84.846 125.225C86.154 123.728 87.5039 122.253 88.8119 120.757C88.9917 120.467 89.1391 120.158 89.2514 119.836L88.8747 119.553C87.0225 121.521 85.1495 123.477 83.1508 125.602C84.2274 128.436 84.46 131.522 83.8205 134.486C83.3068 137.397 82.6397 140.278 81.8218 143.119C79.6146 149.67 78.6458 156.576 78.9651 163.482C79.143 166.14 79.729 168.714 80.0743 171.414C80.2648 172.228 80.1665 173.084 79.7962 173.834C79.4259 174.584 78.8067 175.182 78.0443 175.526C72.9901 178.069 67.5801 178.77 61.8248 179.032C61.4481 173.015 62.6201 167.437 64.0432 161.923C66.2089 154.12 67.497 146.1 67.8836 138.012C67.993 131.199 66.7149 124.434 64.1269 118.13C62.9108 115.069 62.1459 111.847 61.8562 108.566C61.6678 106.138 62.6829 103.606 63.1537 101.178C63.9281 101.032 64.5141 100.937 65.121 100.833C65.2257 101.44 65.3408 101.953 65.4454 102.465C65.5882 102.475 65.7316 102.475 65.8744 102.465C66.0628 101.796 66.2407 101.115 66.4186 100.456C69.9192 101.984 73.5037 103.311 77.1548 104.433C80.8382 105.332 84.71 105.479 88.4771 106.065C88.8569 106.165 89.2102 106.347 89.5121 106.598C89.814 106.85 90.0572 107.164 90.2246 107.519C92.9976 114.248 95.6555 121.018 98.3448 127.778C99.2552 130.08 98.9308 131.524 96.5554 132.539C93.6151 133.69 90.6103 134.668 87.5562 135.469V135.469ZM80.0011 163.607C79.5549 160.153 79.6858 156.649 80.3882 153.237C84.6472 152.871 88.6968 152.547 93.0081 152.191C93.0081 155.173 93.0813 158.302 92.9557 161.42C92.9204 161.842 92.8003 162.252 92.6025 162.626C92.4047 163 92.1333 163.33 91.8047 163.597C88.4666 165.92 84.7518 165.763 81.0056 164.779C80.7601 164.673 80.5419 164.513 80.3678 164.31C80.1938 164.107 80.0683 163.866 80.0011 163.607V163.607ZM92.8929 164.361C92.6941 166.579 92.5372 168.714 92.307 170.849C92.2798 171.032 92.2134 171.207 92.1123 171.363C92.0112 171.518 91.8777 171.65 91.721 171.749C88.791 172.795 85.861 173.967 82.638 173.266C82.2509 173.182 81.6753 172.91 81.5916 172.628C81.0998 170.336 80.7022 168.034 80.2731 165.638C85.4215 166.799 86.7086 166.663 92.8511 164.361H92.8929ZM92.8929 140.816V150.935C92.1395 151.092 91.3338 151.333 90.4966 151.438C87.8387 151.752 85.2018 152.076 82.5439 152.233C81.7381 152.296 80.5138 152.233 80.8173 150.789C81.4451 147.744 82.1462 144.72 82.7427 142.03L92.8929 140.816ZM83.1717 140.534C83.4019 139.488 83.5275 138.671 83.7996 137.876C83.9565 137.468 84.3332 136.913 84.689 136.83C87.326 136.306 89.9839 135.877 92.7569 135.386V139.571C89.5967 140.22 86.5726 141.633 83.1508 140.534H83.1717ZM81.8951 206.835C81.7172 206.249 81.6021 205.946 81.5288 205.632C80.5557 201.906 80.7545 201.582 83.9461 199.353C84.7393 198.724 85.2601 197.813 85.4006 196.81C85.8819 192.468 86.0284 188.062 88.2678 184.107C88.4259 183.474 88.4754 182.82 88.4143 182.171C85.5157 186.451 84.8041 190.825 84.8041 195.366C84.8041 197.292 83.9565 197.961 81.9997 197.909C80.0429 197.857 80.7231 196.423 80.744 195.419C80.8208 189.335 80.9115 183.249 81.0161 177.159C81.0161 176.112 81.0161 175.066 81.0161 173.915C86.447 175.097 90.9048 173.297 95.666 171.424C94.7242 173.255 94.0963 175.411 92.6941 176.803C91.7319 177.703 91.1326 178.924 91.0094 180.235C90.6536 184.023 90.4443 187.832 90.1827 191.631C89.7118 197.909 86.4052 202.566 81.8742 206.835H81.8951ZM74.6957 228.339C71.7658 231.572 63.52 232.859 59.8575 230.589C58.9667 230.035 58.3082 229.176 58.0054 228.171C57.8201 226.717 57.7921 225.247 57.9217 223.787C64.0223 225.817 69.8508 225.137 75.7108 222.939C75.6375 224.226 75.6166 225.482 75.4596 226.696C75.3597 227.307 75.0874 227.877 74.6748 228.339H74.6957ZM73.6493 222.699C69.4636 224.352 65.1943 224.258 60.8726 223.745C60.2411 223.724 59.6306 223.513 59.1209 223.14C58.6112 222.767 58.2261 222.248 58.0158 221.652C59.3971 220.261 60.883 220.365 62.4736 220.794C63.041 220.89 63.6221 220.865 64.1792 220.721C68.0614 220.051 71.9437 219.35 75.9096 218.628C76.0456 221.537 76.0142 221.715 73.5761 222.699H73.6493ZM71.3367 237.076C68.1204 238.333 64.5493 238.333 61.333 237.076C58.0472 235.863 57.1473 234.063 58.0996 230.683C64.0223 233.958 69.6101 232.87 75.2085 229.49C75.0504 230.34 74.9594 231.2 74.9364 232.064C75.062 234.753 73.5133 236.187 71.2635 237.076H71.3367ZM57.6287 235.821C58.7686 236.887 60.1105 237.714 61.5752 238.253C63.04 238.792 64.5978 239.033 66.157 238.96C69.1751 239.114 72.1473 238.174 74.5283 236.313C74.3887 237.29 74.3118 238.276 74.2981 239.263C74.3613 239.905 74.2255 240.55 73.9091 241.112C73.5927 241.674 73.1111 242.124 72.5297 242.403C69.0623 244.316 65.0494 244.998 61.1446 244.339C60.5974 244.25 60.0781 244.036 59.6277 243.713C59.1774 243.39 58.8083 242.966 58.5495 242.476C58.041 240.288 57.7085 238.062 57.5554 235.821H57.6287ZM58.5181 244.537C63.8339 246.337 68.8463 245.437 73.8586 242.79C73.9278 243.661 73.9278 244.535 73.8586 245.406C73.813 245.623 73.7224 245.829 73.5927 246.009C73.4629 246.189 73.2969 246.34 73.1052 246.452C69.1927 248.057 64.8928 248.469 60.747 247.635C58.2147 247.133 58.2147 247.101 58.4449 244.537H58.5181ZM80.608 255.996C76.7781 254.123 74.1307 256.812 71.1902 258.089V258.612C71.6142 258.664 72.0429 258.664 72.4669 258.612C74.4341 258.141 76.1398 258.947 76.4537 260.956C76.6687 262.455 76.5216 263.983 76.0247 265.413C75.8731 265.928 75.6098 266.402 75.2537 266.803C74.8976 267.203 74.4575 267.52 73.9647 267.731C73.472 267.942 72.9387 268.042 72.403 268.023C71.8673 268.004 71.3425 267.867 70.8658 267.621C69.2782 266.874 67.7617 265.985 66.3349 264.964C63.9804 263.394 61.6783 261.761 59.3553 260.119C58.9995 259.847 58.5181 259.428 58.4867 259.072C58.2984 257.393 58.2984 255.697 58.4867 254.018C58.8634 251.977 59.0623 250.125 57.4403 248.514C57.2415 248.315 57.2101 247.97 57.0113 247.467C63.6246 250.293 69.788 249.048 76.1293 246.285C75.8713 246.831 75.6714 247.403 75.5329 247.991C75.4498 248.541 75.5375 249.103 75.784 249.602C77.2595 251.737 78.9023 253.851 80.5348 255.996H80.608ZM51.5594 227.146C51.3617 228.532 51.2672 229.931 51.2769 231.332C51.3615 232.043 51.2001 232.763 50.8193 233.37C50.4386 233.977 49.8616 234.436 49.1841 234.67C44.0775 237.233 38.7199 237.171 33.3518 235.988C32.946 235.839 32.5825 235.593 32.2927 235.273C32.0029 234.952 31.7953 234.565 31.688 234.147C31.5597 232.119 31.5353 230.086 31.6147 228.056C38.3222 229.469 44.8833 230.348 51.5594 227.146ZM48.2423 227.659L47.9074 227.742C43.1462 228.956 38.406 228.496 33.6866 227.533C32.2007 227.23 31.081 226.298 31.5938 224.739C38.3013 224.017 44.8833 223.316 51.4757 222.594C51.6955 225.681 51.1723 226.539 48.2423 227.659ZM31.9914 242.037C35.1307 242.633 38.2699 243.439 41.4092 243.794C43.0831 243.993 44.7802 243.821 46.3804 243.291C47.9807 242.761 49.445 241.886 50.67 240.728C50.67 241.649 50.67 242.277 50.67 242.895C50.4188 246.588 49.5503 247.666 45.8355 248.42C41.9967 249.11 38.0375 248.534 34.5551 246.777C31.7507 245.448 31.5519 244.987 31.9914 242.037ZM38.0502 249.361L31.9914 248.943V246.557L38.0502 249.361ZM31.6775 236.71C31.6667 236.673 31.6667 236.633 31.6775 236.595C38.2909 237.799 44.7891 238.332 51.0467 234.607C51.0467 240.289 50.1363 240.885 45.8146 242.403C42.4242 243.617 38.9396 242.957 35.5702 241.9C31.7089 240.676 31.7193 240.676 31.6775 236.742V236.71ZM52.5221 222.887C52.5686 222.69 52.6598 222.506 52.7886 222.35C52.9175 222.194 53.0805 222.07 53.2651 221.987C54.458 221.726 55.6719 221.61 56.7497 221.453C56.938 229.825 57.1159 238.05 57.2833 246.295L55.8079 245.804C55.6509 245.908 55.494 246.023 55.337 246.118L57.1892 249.968C57.4089 250.429 57.8589 250.879 57.8275 251.308C57.6391 253.84 57.3461 256.372 57.0741 259.041C55.2246 258.378 53.6144 257.18 52.4489 255.598C51.6222 254.384 51.1199 253.139 52.4489 251.821C52.9825 251.224 53.4043 250.536 53.6941 249.79C54.1546 248.807 54.0394 248.064 52.6477 248.284C52.3129 248.284 51.9675 248.284 51.3397 248.399C51.7373 239.713 52.114 231.258 52.5221 222.887ZM78.6826 274.162C84.8355 269.149 84.6995 262.243 81.8218 257.23C84.7571 258.321 87.1964 260.441 88.6863 263.195C88.8353 263.42 89.0278 263.612 89.2525 263.762C89.4771 263.911 89.7294 264.013 89.9944 264.064C92.1244 264.407 94.3041 263.9 96.0636 262.651C96.8714 262.1 97.5126 261.338 97.9174 260.448C98.3223 259.558 98.4753 258.574 98.3599 257.602C98.2445 256.631 97.865 255.711 97.2627 254.94C96.6604 254.17 95.8584 253.58 94.9439 253.233C94.4835 253.034 94.0021 252.898 93.4475 252.7C97.2042 250.9 100.406 251.841 102.447 255.274C103.632 257.487 104.147 259.997 103.929 262.498C103.712 264.999 102.771 267.383 101.222 269.358C96.095 275.344 86.0703 277.5 78.6931 274.162H78.6826ZM52.6582 249.749L51.2978 251.894C50.9989 252.389 50.8061 252.942 50.7315 253.516C50.6569 254.09 50.7021 254.673 50.8644 255.229C51.0266 255.784 51.3024 256.3 51.6742 256.744C52.046 257.187 52.5057 257.549 53.0244 257.806C57.565 259.542 61.7471 262.1 65.3617 265.351C66.531 266.439 67.8798 267.317 69.3485 267.946C70.9445 268.616 72.7386 268.637 74.3504 268.006C75.9621 267.375 77.2645 266.141 77.9815 264.566C78.3489 263.883 78.5351 263.118 78.5222 262.343C78.5094 261.568 78.298 260.809 77.9082 260.14C76.9681 258.992 75.9166 257.94 74.769 257C77.3222 255.106 81.3091 256.77 82.3241 260.453C83.0465 262.728 83.0218 265.174 82.2535 267.434C81.4853 269.693 80.0139 271.648 78.0547 273.01C73.7121 276.369 68.5742 277.5 63.3002 277.667C57.7333 277.855 52.114 277.667 46.5576 277.311C42.7591 277.081 38.992 276.359 35.2353 275.752C34.4414 275.709 33.6963 275.356 33.1601 274.769C32.6239 274.181 32.3395 273.407 32.3681 272.613C32.0123 267.684 31.3217 262.766 31.0915 257.837C30.9973 255.221 31.5205 252.605 29.5533 250.45C29.5533 250.387 29.5533 250.23 29.6474 249.675L52.6582 249.749ZM25.1165 213.124C25.1983 212.881 25.3354 212.66 25.5169 212.478C25.6985 212.296 25.9195 212.159 26.1629 212.078C28.2557 211.46 28.601 210.707 27.8371 208.719C27.1779 207.002 26.6128 205.255 25.9013 203.235C26.2015 203.335 26.495 203.454 26.7803 203.591C27.8267 204.229 28.9359 204.721 30.1288 203.874C30.6646 203.482 31.0625 202.931 31.2656 202.299C31.4686 201.668 31.4663 200.988 31.2589 200.358C30.8566 198.994 30.6074 197.59 30.516 196.172C30.6861 191.776 29.4268 187.444 26.9268 183.824C26.1315 182.663 26.0792 180.999 25.5978 179.199C26.2315 179.434 26.8778 179.633 27.5337 179.796C31.1752 180.329 34.8586 181.261 38.4687 181.24C45.4274 181.24 52.3756 180.612 59.3134 180.329C66.45 180.047 73.6389 180.089 79.8546 175.474C79.9914 175.96 80.086 176.457 80.1371 176.96C80.1371 181.93 80.2208 186.89 80.0639 191.85C79.886 197.909 79.6976 203.936 81.6963 209.796C82.5229 212.161 82.0416 213.197 79.9278 214.725C75.1352 218.199 69.652 219.528 63.8758 219.821C60.2656 220.009 59.5331 219.235 59.3343 215.635C59.3343 215.353 59.3343 215.049 59.2611 214.767C59.1355 218.063 57.6496 220.25 54.3534 221.14C45.3751 223.588 36.2294 223.756 27.0209 222.939C26.5993 222.947 26.1813 222.861 25.7975 222.686C25.4137 222.511 25.0739 222.253 24.803 221.93C24.5321 221.607 24.3369 221.227 24.2318 220.819C24.1267 220.41 24.1143 219.984 24.1956 219.57C24.4153 217.383 24.7293 215.238 25.1165 213.114V213.124ZM26.1001 176.426C24.3735 179.157 24.9176 181.784 26.1001 184.337C26.8535 185.928 27.8685 187.393 28.6429 188.983C29.0311 189.849 29.2817 190.771 29.3858 191.714C29.6998 194.424 29.8149 197.156 30.2125 199.855C30.4846 201.718 30.0765 202.691 28.3708 202.995C27.1151 203.256 25.9954 202.273 25.8594 200.651C25.7234 199.029 25.7024 197.564 25.6397 196.036C25.5769 193.88 23.9549 192.897 22.3958 191.85C22.4174 192.369 22.6431 192.858 23.0236 193.211C23.6442 193.677 24.136 194.293 24.4527 195.001C24.7694 195.71 24.9006 196.487 24.8339 197.26C24.645 201.383 25.3965 205.494 27.0314 209.284C27.1295 209.531 27.1692 209.797 27.1475 210.062C27.1257 210.327 27.043 210.584 26.9058 210.811C26.6975 210.984 26.4529 211.108 26.1902 211.173C25.9275 211.238 25.6535 211.243 25.3885 211.188C23.2957 210.696 21.6423 209.598 21.297 207.358C20.9517 205.119 20.8575 202.597 20.6064 200.211C20.4729 199.635 20.28 199.074 20.0309 198.537C19.832 198.6 19.6123 198.673 19.403 198.725C20.6901 202.681 18.5763 207.316 22.2911 210.885C21.6165 210.984 20.9284 210.838 20.3523 210.474C19.7761 210.109 19.3501 209.549 19.1519 208.896C18.231 206.469 17.5718 203.957 16.8497 201.456C16.5777 200.536 16.3789 199.594 16.1486 198.673L15.4162 198.819C16.2114 202.356 17.0137 205.907 17.8229 209.472C17.645 209.346 17.4043 209.221 17.1846 209.053C14.8302 207.222 14.2023 204.564 13.7837 201.812C13.5745 200.379 13.3024 198.945 13.0722 197.511L12.3711 197.627C12.6431 199.719 12.8943 201.812 13.1559 203.905C8.02844 196.308 8.97022 187.916 9.51436 179.837L4.95198 173.81C12.2769 174.752 18.7856 178.017 26.1001 176.416V176.426ZM22.3644 175.955C18.3775 175.338 14.4116 174.553 10.4247 174.061C8.52026 173.831 8.10169 172.847 8.02844 171.236C12.2141 172.889 15.5522 172.847 24.3002 171.016V175.798C23.6615 175.912 23.0129 175.961 22.3644 175.945V175.955ZM6.82506 160.751C12.7164 164.068 18.4194 164.549 24.4049 161.797C24.4049 164.235 24.4049 166.527 24.4049 168.798C24.3757 169.052 24.2888 169.296 24.151 169.512C24.0132 169.728 23.8281 169.909 23.6096 170.043C19.0731 171.827 14.0749 172.067 9.38879 170.723C9.00012 170.6 8.64459 170.39 8.34909 170.109C8.05359 169.828 7.82586 169.483 7.68313 169.101C7.24363 166.454 7.09713 163.733 6.82506 160.751ZM6.13443 150.621C12.0885 153.279 17.959 154.389 24.4049 152.819C24.4049 155.006 24.2898 157.005 24.4049 158.867C24.5088 159.443 24.3965 160.037 24.0895 160.535C23.7824 161.034 23.3023 161.401 22.7411 161.567C20.3472 162.494 17.7709 162.854 15.2144 162.618C12.658 162.382 10.1911 161.557 8.00752 160.207C7.71456 160.044 7.45652 159.826 7.24822 159.564C7.03991 159.302 6.88544 159.001 6.79367 158.679C6.45882 156.094 6.34371 153.489 6.13443 150.621ZM6.89831 149.878C6.70904 149.768 6.54686 149.617 6.42372 149.436C6.30058 149.255 6.2196 149.049 6.18675 148.832C6.1135 147.189 6.18675 145.546 6.18675 143.6C12.0153 146.362 18.1578 147.283 24.3735 147.639V151.877C18.4996 153.363 12.285 152.653 6.89831 149.878V149.878ZM2.25222 136.369C2.98471 134.172 4.05206 132.089 4.99383 129.955C6.23913 127.592 7.31613 125.144 8.2168 122.63C9.54575 117.889 10.4666 113.034 11.5863 108.105C14.7255 107.446 18.3775 106.933 21.8621 105.929C28.601 103.972 35.2981 101.89 39.0547 95.1403C43.9938 99.9329 50.5653 100.1 56.9694 101.513C56.4881 103.156 56.0695 104.652 55.5672 106.191C55.023 107.689 54.8004 109.285 54.914 110.875C55.0276 112.466 55.4748 114.014 56.2265 115.42C58.8997 120.533 60.6697 126.07 61.4586 131.786C62.3585 138.902 61.2388 145.892 60.2238 152.892C59.3343 158.982 58.4239 165.062 57.6496 171.163C57.3147 173.81 57.2938 176.468 57.1368 179.199C54.8347 179.325 52.6268 179.471 50.4084 179.597C45.3542 179.869 40.279 180.287 35.2039 180.361C32.0956 180.373 29.0277 179.656 26.2466 178.268C26.7489 177.159 27.1988 176.175 27.7744 174.877L25.3676 175.432V147.712L28.6429 147.514V131.137C31.1124 129.756 33.132 125.57 32.1588 123.613C31.3322 125.968 30.8613 128.395 28.6533 130.195C28.5592 128.636 28.465 127.401 28.4022 126.167H27.6592C27.6592 126.794 27.6592 127.422 27.6592 128.05C27.8581 131.085 28.2452 134.088 28.2557 137.102C28.2597 139.433 27.9999 141.756 27.4814 144.029C26.9895 146.216 25.5559 146.917 23.3585 146.635C21.8307 146.446 20.282 146.3 18.7647 146.08C13.6366 145.494 8.68475 143.855 4.21948 141.266C2.17897 140.011 1.50926 138.661 2.25222 136.369Z" fill="#7D4E24"/>
<path fill-rule="evenodd" clip-rule="evenodd" d="M4.21955 141.266C8.66738 143.856 13.6008 145.501 18.7124 146.101C20.2297 146.321 21.7784 146.467 23.3062 146.655C25.5037 146.938 26.9373 146.237 27.4291 144.05C27.9477 141.777 28.2074 139.453 28.2035 137.123C28.2035 134.109 27.8058 131.106 27.607 128.071C27.607 127.443 27.607 126.815 27.607 126.188H28.35C28.4127 127.422 28.5069 128.657 28.6011 130.216C30.809 128.416 31.2799 126.031 32.1066 123.634C33.153 125.612 31.123 129.735 28.6743 131.158V147.545L25.3991 147.744V175.484L27.8058 174.93C27.2303 176.196 26.7594 177.211 26.278 178.32C29.0592 179.708 32.1271 180.425 35.2354 180.413C40.3105 180.34 45.3856 179.921 50.4398 179.649C52.6582 179.523 54.8662 179.377 57.1683 179.251C57.3253 176.52 57.3462 173.862 57.681 171.215C58.4554 165.114 59.3658 159.035 60.2552 152.944C61.3017 145.944 62.3481 138.954 61.49 131.838C60.7012 126.122 58.9311 120.586 56.2579 115.472C55.5011 114.069 55.0485 112.521 54.9295 110.931C54.8105 109.341 55.0278 107.743 55.5673 106.243C56.0696 104.746 56.4881 103.208 56.9695 101.565C50.5863 100.153 43.9939 99.9852 39.0548 95.1926C35.3191 101.942 28.5906 104.024 21.8622 105.971C18.3776 107.017 14.7465 107.488 11.5863 108.147C10.4667 113.076 9.54582 117.931 8.21687 122.672C7.3162 125.186 6.2392 127.634 4.9939 129.996C4.05212 132.089 2.98478 134.182 2.25228 136.411C1.51979 138.64 2.17904 140.011 4.21955 141.266Z" fill="#54B57F"/>
<path fill-rule="evenodd" clip-rule="evenodd" d="M13.3967 50.8978C13.742 51.0757 14.0978 51.2327 14.4431 51.3896C19.0264 53.4825 21.4332 57.4484 23.4423 61.7387C25.0747 65.1814 26.4978 68.7392 28.193 72.2029C30.3591 76.6606 33.603 79.9673 38.72 80.9091C39.6094 81.066 40.5094 81.1497 41.4093 81.2649C41.4093 81.4637 41.4093 81.652 41.4093 81.8299L39.8606 82.0497C39.8606 84.1425 39.8606 86.34 39.8606 88.4851C39.9713 89.5621 39.9112 90.6498 39.6827 91.7081C39.0653 93.5707 39.8187 94.7218 41.1267 95.8938C44.2239 98.3637 48.0039 99.8246 51.9572 100.079C55.9841 100.345 60.0229 100.38 64.0538 100.184C64.5665 100.184 65.1002 99.5458 65.5815 99.2109C65.12 98.8996 64.616 98.6565 64.0852 98.4889C57.8066 97.4425 52.1141 95.2241 47.3948 90.8291C46.9922 90.3786 46.6183 89.9033 46.2751 89.406C46.9239 89.4792 47.1332 89.406 47.2274 89.5211C51.4967 93.7068 57.0532 95.0253 62.4841 96.846C76.8201 101.503 86.0495 92.1999 88.2365 80.9091C89.9653 71.6783 89.5102 62.171 86.9075 53.1476C86.8006 52.6825 86.599 52.2444 86.3153 51.8606C86.0315 51.4768 85.6718 51.1556 85.2584 50.9171C84.8451 50.6785 84.387 50.5276 83.9128 50.4739C83.4386 50.4202 82.9584 50.4647 82.5021 50.6048C80.9892 51.2139 79.5472 51.9858 78.2013 52.9069C77.5366 53.3613 76.9069 53.865 76.3178 54.4138C76.3178 48.5434 79.0908 46.1575 84.8461 47.8318C83.8625 44.0752 82.6486 43.238 78.2013 42.8299C71.0857 42.1707 64.4619 44.0124 57.9008 46.4819C51.5386 48.8677 46.4949 53.1057 41.5767 57.553C40.5826 58.4215 39.5571 59.2378 38.4898 60.1377L39.5362 61.6131L39.1595 62.0212C38.6781 61.655 38.2072 61.2783 37.7154 60.912C33.9692 58.0239 30.3905 54.8847 26.456 52.3105C22.5214 49.7363 18.2416 49.37 13.3967 50.8978ZM85.9344 57.3647L84.0508 58.003C84.0927 58.6231 84.0927 59.2454 84.0508 59.8656C83.9981 60.2604 83.8545 60.6376 83.6312 60.9675C83.408 61.2973 83.1113 61.5709 82.7644 61.7667C82.4175 61.9624 82.03 62.075 81.6322 62.0956C81.2344 62.1162 80.8373 62.0441 80.4721 61.8852C79.8756 61.5922 79.185 61.4143 78.5048 61.1632C79.2478 58.5994 83.3497 56.2345 85.9344 57.3647V57.3647ZM83.5171 74.2329C84.2646 73.9442 85.0928 73.9442 85.8402 74.2329C86.1646 74.3271 86.2064 75.2793 86.3843 75.8863H85.8925C85.4958 75.4694 85.0369 75.1164 84.5322 74.8398C84.3961 74.8398 83.6741 75.5409 83.7369 75.8235C83.8481 76.4019 84.1827 76.9132 84.6682 77.2466C85.5367 77.7594 86.761 76.9536 87.1482 75.8235C87.3885 74.842 87.316 73.81 86.9407 72.8719C86.5654 71.9337 85.9062 71.1364 85.0554 70.5914L83.7578 69.7752C84.0768 69.6577 84.4122 69.5906 84.7519 69.5764C86.5099 69.9112 87.2424 71.3029 87.7551 72.7156C88.2679 74.1283 88.5399 75.9804 87.3261 77.4245C87.0589 77.6807 86.7429 77.8806 86.3969 78.0123C86.051 78.144 85.6821 78.2049 85.3121 78.1912C84.9422 78.1775 84.5787 78.0897 84.2434 77.9328C83.9081 77.7759 83.6077 77.5532 83.3602 77.278C83.1437 77.0821 82.9736 76.8405 82.8622 76.5707C82.7507 76.3009 82.7006 76.0097 82.7157 75.7182C82.7307 75.4267 82.8104 75.1421 82.949 74.8852C83.0877 74.6283 83.2817 74.4055 83.5171 74.2329V74.2329ZM78.0444 73.6365C78.9024 73.4481 79.7814 73.2702 80.8802 73.0086C79.1745 71.01 77.6781 69.231 76.1608 67.4626C76.3387 67.337 76.5061 67.1905 76.6631 67.0545C78.7349 68.9514 80.6073 71.0551 82.251 73.333C81.6514 73.7788 80.9371 74.0442 80.1919 74.0979C79.4467 74.1517 78.7017 73.9916 78.0444 73.6365V73.6365ZM74.0157 82.4159C74.926 83.1275 75.826 84.3413 76.5585 84.2367C77.2909 84.132 78.1176 82.8868 78.9338 82.0811C78.9902 82.8212 78.7826 83.5573 78.3477 84.1588C77.9129 84.7604 77.2789 85.1883 76.5585 85.3668C75.1876 85.5447 74.0157 84.2576 74.0157 82.4159ZM68.5429 55.0416C66.1571 54.5289 63.834 53.6185 61.5319 53.6708C59.2298 53.7231 56.8439 54.7172 54.3953 55.3765C54.3045 54.2883 54.5938 53.2024 55.214 52.3037C55.8341 51.405 56.7467 50.7491 57.7962 50.4478C61.3121 49.3491 66.7326 51.4943 68.5324 54.7068C68.5778 54.8131 68.5816 54.9326 68.5429 55.0416V55.0416ZM61.6993 71.3762C62.3686 70.8745 63.1093 70.4759 63.8968 70.1938L64.1689 70.7797L63.2271 71.3239C62.3319 71.8831 61.6434 72.7189 61.2658 73.7045C60.8881 74.6901 60.842 75.772 61.1343 76.7862C61.1842 77.026 61.2868 77.2518 61.4347 77.4472C61.5825 77.6425 61.772 77.8026 61.9893 77.9157C62.2066 78.0289 62.4463 78.0924 62.6912 78.1015C62.936 78.1106 63.1798 78.0653 63.405 77.9686C63.9434 77.6466 64.3369 77.1294 64.5037 76.5246C64.577 76.2839 63.9491 75.8235 63.6457 75.4782C63.3003 75.8863 62.9655 76.3048 62.5992 76.692C62.5469 76.7548 62.4004 76.692 61.8563 76.8176C61.9714 76.1269 61.9609 75.1328 62.1911 75.0701C62.9853 74.7805 63.8561 74.7805 64.6502 75.0701C64.9403 75.3387 65.1584 75.6759 65.2845 76.0506C65.4107 76.4254 65.4408 76.8258 65.3722 77.2152C65.1788 77.8224 64.7696 78.3377 64.222 78.6635C63.6744 78.9894 63.0263 79.1033 62.4004 78.9837C61.82 78.9559 61.2706 78.7136 60.8588 78.3037C60.4469 77.8938 60.202 77.3455 60.1716 76.7653C59.9825 75.8102 60.0223 74.8239 60.2879 73.8871C60.5534 72.9504 61.0371 72.0899 61.6993 71.3762ZM53.4012 61.3724C55.7661 58.5367 66.0733 60.0749 67.6848 63.706C66.3873 63.0153 65.4036 62.5026 64.3991 61.9898C63.3003 64.2606 62.5051 64.8779 60.7994 64.7733C58.6124 64.5745 57.6601 63.5909 57.0323 60.8074C55.9022 60.9957 54.772 61.1632 53.4012 61.3724ZM18.5555 52.5616C18.7543 52.3837 18.8276 52.2581 18.9218 52.2477C19.1435 52.2117 19.3697 52.2117 19.5915 52.2477C22.8208 52.8894 25.713 54.6678 27.7431 57.26C30.5161 60.5981 33.1321 64.0617 35.79 67.494C35.9384 67.7843 36.0441 68.0944 36.1039 68.4148C33.7181 68.6346 32.7554 70.3507 34.0111 72.2238C34.6864 73.0012 35.4727 73.6747 36.3446 74.2225C36.6899 74.505 37.0771 74.7352 37.7364 75.1956C36.7193 75.1811 35.7272 74.8784 34.8752 74.3228C34.0232 73.7671 33.3462 72.9812 32.9228 72.0564C32.2322 70.3402 32.6717 69.0113 34.5448 67.337C30.9346 63.1514 28.5069 58.1076 23.4737 54.6544L26.2781 60.4516L25.6502 60.7446C24.834 59.2796 23.976 57.8356 23.2435 56.3287C22.3854 54.5917 21.4018 53.1057 19.1834 53.0744C18.9636 53.0639 18.7753 52.7604 18.5555 52.5616Z" fill="#FFF2CA"/>
<path fill-rule="evenodd" clip-rule="evenodd" d="M27.0314 222.887C36.2399 223.703 45.3856 223.536 54.3638 221.087C57.6601 220.198 59.146 218.011 59.2715 214.715C59.2715 214.997 59.3239 215.301 59.3448 215.583C59.5436 219.225 60.2761 219.999 63.8862 219.769C69.6625 219.476 75.1457 218.147 79.9383 214.673C82.0311 213.145 82.5334 212.109 81.7067 209.744C79.7081 203.884 79.8964 197.857 80.0743 191.798C80.2313 186.838 80.1476 181.878 80.1476 176.907C80.0964 176.405 80.0019 175.908 79.865 175.422C73.6493 180.036 66.4604 179.994 59.3239 180.277C52.3861 180.559 45.4379 181.156 38.4792 181.187C34.8377 181.187 31.1543 180.277 27.5441 179.743C26.8883 179.58 26.242 179.381 25.6083 179.147C26.0896 180.947 26.1419 182.61 26.9372 183.772C29.424 187.392 30.6721 191.721 30.495 196.109C30.5865 197.528 30.8357 198.932 31.238 200.295C31.4534 200.937 31.4557 201.631 31.2445 202.274C31.0333 202.917 30.6199 203.474 30.066 203.863C28.8731 204.711 27.7953 204.219 26.7175 203.581C26.4322 203.444 26.1387 203.325 25.8385 203.225C26.55 205.244 27.1151 206.992 27.7744 208.708C28.5382 210.696 28.1511 211.45 26.1001 212.067C25.8568 212.149 25.6357 212.286 25.4541 212.468C25.2726 212.649 25.1355 212.87 25.0537 213.113C24.6665 215.206 24.3526 217.383 24.1433 219.528C24.0625 219.946 24.0773 220.378 24.1867 220.789C24.2961 221.201 24.4972 221.583 24.775 221.906C25.0528 222.229 25.4 222.485 25.7908 222.655C26.1815 222.825 26.6057 222.904 27.0314 222.887V222.887ZM67.0464 196.727C61.5527 200.787 60.004 206.427 59.3448 212.496C58.8111 204.365 62.4108 196.727 67.0464 196.727Z" fill="#54B57F"/>
<path fill-rule="evenodd" clip-rule="evenodd" d="M61.8248 179.074C67.5592 178.812 72.9901 178.111 78.0443 175.568C78.8067 175.224 79.4259 174.626 79.7962 173.876C80.1665 173.126 80.2648 172.27 80.0743 171.456C79.729 168.808 79.143 166.224 78.9651 163.524C78.6459 156.618 79.6146 149.712 81.8219 143.16C82.6397 140.32 83.3068 137.438 83.8205 134.528C84.46 131.564 84.2274 128.478 83.1508 125.643C85.1495 123.551 87.0225 121.562 88.8747 119.595L89.2514 119.878C89.1391 120.2 88.9917 120.509 88.8119 120.799C87.5039 122.295 86.154 123.77 84.846 125.267C84.5752 125.55 84.4155 125.922 84.396 126.313C84.5321 129.452 84.7204 132.487 84.9088 135.846C85.8003 135.824 86.6873 135.712 87.5562 135.511C90.6244 134.712 93.6433 133.733 96.5973 132.581C98.9726 131.535 99.297 130.122 98.3867 127.82C95.6974 121.06 93.0395 114.29 90.2664 107.561C90.0991 107.206 89.8559 106.892 89.554 106.64C89.2521 106.389 88.8988 106.207 88.5189 106.107C84.7518 105.489 80.8801 105.374 77.1967 104.474C73.5345 103.402 69.936 102.124 66.4186 100.645C66.2407 101.304 66.0628 101.984 65.8744 102.654C65.7316 102.664 65.5882 102.664 65.4454 102.654C65.3408 102.141 65.2257 101.607 65.121 101.021C64.5141 101.126 63.9281 101.22 63.1538 101.367C62.6829 103.794 61.6678 106.327 61.8562 108.754C62.1529 112.011 62.9177 115.207 64.1269 118.245C66.7149 124.549 67.993 131.314 67.8836 138.127C67.497 146.215 66.2089 154.235 64.0432 162.038C62.6201 167.479 61.4586 173.057 61.8248 179.074Z" fill="#54B57F"/>
<path fill-rule="evenodd" clip-rule="evenodd" d="M29.5638 250.523C31.5311 252.689 31.0078 255.295 31.102 257.911C31.2904 262.839 32.0229 267.757 32.3786 272.686C32.35 273.481 32.6344 274.255 33.1706 274.842C33.7068 275.429 34.4519 275.782 35.2458 275.825C39.0025 276.432 42.7696 277.154 46.5681 277.384C52.1246 277.73 57.7438 277.929 63.3108 277.74C68.5429 277.573 73.7226 276.443 78.0653 273.084C80.0244 271.721 81.4958 269.766 82.2641 267.507C83.0323 265.247 83.057 262.801 82.3346 260.527C81.2882 256.843 77.3328 255.179 74.7795 257.073C75.9271 258.014 76.9787 259.065 77.9188 260.213C78.3085 260.883 78.5199 261.641 78.5328 262.416C78.5456 263.191 78.3594 263.957 77.992 264.639C77.2751 266.214 75.9726 267.448 74.3609 268.08C72.7492 268.711 70.955 268.689 69.3591 268.019C67.8903 267.39 66.5415 266.512 65.3722 265.424C61.7576 262.173 57.5755 259.616 53.0349 257.879C52.5163 257.622 52.0565 257.261 51.6847 256.817C51.3129 256.373 51.0372 255.857 50.8749 255.302C50.7126 254.746 50.6674 254.163 50.742 253.589C50.8166 253.015 51.0094 252.463 51.3084 251.967L52.6687 249.822H29.6475C29.5847 250.303 29.5219 250.46 29.5638 250.523Z" fill="#54B57F"/>
<path fill-rule="evenodd" clip-rule="evenodd" d="M29.6473 52.9069C32.4203 55.1567 35.0259 57.2914 37.7466 59.5202C40.9696 56.8937 44.1193 54.194 47.3946 51.6303C56.2264 44.7134 66.3975 41.7835 77.5314 41.8567C78.3306 41.8943 79.1253 41.9993 79.9068 42.1706C80.6811 42.2962 81.445 42.4427 82.2194 42.5787C82.345 42.4532 82.481 42.3381 82.5961 42.2125C80.3578 38.6618 77.9338 35.2318 75.334 31.9367C74.3922 30.8902 72.1005 30.681 70.4053 30.524C65.9894 30.1159 61.8038 31.2984 57.7437 32.8784C47.6505 36.6675 38.6043 42.8048 31.353 50.7827C30.7356 51.4628 30.2019 52.2058 29.6473 52.9069Z" fill="#54B57F"/>
<path fill-rule="evenodd" clip-rule="evenodd" d="M9.47255 179.827C8.97027 187.916 7.98664 196.308 13.1141 203.895C12.8525 201.802 12.6013 199.709 12.3293 197.616L13.0304 197.501C13.2606 198.935 13.5327 200.368 13.7419 201.802C14.1605 204.554 14.7884 207.212 17.1428 209.043C17.3625 209.21 17.6032 209.336 17.7811 209.462C16.9719 205.925 16.1836 202.377 15.4162 198.819L16.1592 198.621C16.3894 199.541 16.5882 200.483 16.8603 201.404C17.5823 203.905 18.2415 206.416 19.1624 208.844C19.3607 209.497 19.7866 210.056 20.3628 210.421C20.939 210.786 21.627 210.932 22.3016 210.832C18.5555 207.295 20.6483 202.66 19.4031 198.704C19.6123 198.704 19.8321 198.579 20.0309 198.516C20.28 199.053 20.4729 199.614 20.6064 200.19C20.8576 202.576 20.9413 204.962 21.2971 207.337C21.6529 209.713 23.3167 210.675 25.3886 211.167C25.6535 211.223 25.9276 211.217 26.1903 211.152C26.453 211.087 26.6976 210.963 26.9059 210.79C27.0397 210.565 27.1206 210.313 27.1424 210.052C27.1641 209.79 27.1262 209.528 27.0314 209.284C25.3965 205.494 24.6451 201.383 24.834 197.26C24.9029 196.495 24.778 195.725 24.4708 195.021C24.1635 194.317 23.6838 193.701 23.076 193.232C22.6955 192.879 22.4698 192.39 22.4481 191.871C24.0073 192.918 25.5874 193.891 25.692 196.057C25.7548 197.585 25.7653 199.196 25.9118 200.672C26.0583 202.147 27.1675 203.277 28.4232 203.016C30.1288 202.691 30.516 201.718 30.2649 199.876C29.8672 197.177 29.7521 194.445 29.4382 191.735C29.3341 190.792 29.0834 189.87 28.6953 189.004C27.9209 187.413 26.9059 185.948 26.1525 184.358C24.9386 181.805 24.3945 179.126 26.1525 176.447C18.7857 178.017 12.277 174.752 4.95203 173.81L9.47255 179.827Z" fill="#54B57F"/>
<path fill-rule="evenodd" clip-rule="evenodd" d="M27.8057 39.2721C28.1091 43.395 28.3079 47.5388 28.5486 51.6826L29.166 51.8186C29.4799 51.4838 29.8043 51.1594 30.1182 50.7722C38.7576 41.0449 49.9928 33.9842 62.5049 30.4194C66.2625 29.337 70.2187 29.1329 74.0678 29.8229C71.075 26.6837 68.1032 23.4398 65.0895 20.2796C64.7859 20.0621 64.4155 19.9584 64.0431 19.9866C50.4397 20.5307 38.5628 25.0931 29.2707 35.4422C28.7624 35.9355 28.3681 36.5338 28.115 37.1953C27.862 37.8568 27.7564 38.5656 27.8057 39.2721V39.2721Z" fill="#E24D4D"/>
<path fill-rule="evenodd" clip-rule="evenodd" d="M28.172 35.1282C40.0593 23.7536 45.1763 21.4515 63.6037 19.0448C63.3909 18.723 63.1529 18.4186 62.8921 18.1344C59.9413 15.5183 57.0008 12.9023 54.029 10.3281C53.6877 9.96406 53.2275 9.73396 52.7314 9.67932C47.0075 9.96185 41.3883 10.5897 36.2503 13.4464C33.7389 14.8382 31.9182 16.5857 31.3531 19.547C30.4532 24.235 29.2603 28.8706 28.2662 33.5272C28.2038 34.0586 28.1723 34.5932 28.172 35.1282V35.1282Z" fill="#54B57F"/>
<path fill-rule="evenodd" clip-rule="evenodd" d="M78.693 274.161C86.0179 277.552 96.0949 275.396 101.243 269.411C102.801 267.429 103.746 265.035 103.962 262.524C104.178 260.012 103.655 257.492 102.457 255.274C100.364 251.841 97.2251 250.9 93.458 252.699C94.0126 252.898 94.5044 253.034 94.9543 253.233C95.8681 253.581 96.6692 254.172 97.2704 254.943C97.8716 255.714 98.2499 256.635 98.3643 257.606C98.4786 258.577 98.3246 259.56 97.919 260.45C97.5133 261.339 96.8716 262.101 96.0635 262.651C94.3046 263.863 92.143 264.344 90.0362 263.99C89.7712 263.94 89.5189 263.838 89.2943 263.688C89.0696 263.539 88.8771 263.347 88.7281 263.122C87.2382 260.368 84.7989 258.248 81.8636 257.157C84.7099 262.19 84.8459 269.097 78.693 274.161Z" fill="#54B57F"/>
<path fill-rule="evenodd" clip-rule="evenodd" d="M62.4108 101.503H57.9112C57.2938 103.679 56.5823 105.772 56.1009 107.928C55.8068 109.243 55.7793 110.604 56.0201 111.931C56.261 113.257 56.7652 114.522 57.5031 115.65C61.333 121.782 62.2015 128.615 62.5782 135.616C63.0282 143.767 61.5318 151.72 60.2866 159.683C59.3971 165.648 58.8216 171.654 58.131 177.65C58.1015 178.065 58.1015 178.481 58.131 178.896C58.5401 178.959 58.9523 179.001 59.3657 179.021C59.7634 179.021 60.1506 179.021 60.5482 178.969C60.6436 176.116 60.8846 173.269 61.2702 170.441C62.4841 163.963 63.8549 157.496 65.3094 151.061C68.0622 139.326 67.1192 127.027 62.6096 115.849C61.2807 112.49 60.0982 109.079 61.0609 105.385C61.4586 104.192 61.9295 102.968 62.4108 101.503Z" fill="white"/>
<path fill-rule="evenodd" clip-rule="evenodd" d="M57.3566 248.461C58.9577 250.073 58.7588 251.925 58.4031 253.966C58.2147 255.645 58.2147 257.34 58.4031 259.02C58.4031 259.407 58.9158 259.826 59.2716 260.066C61.5946 261.709 63.8968 263.342 66.2512 264.911C67.678 265.932 69.1946 266.822 70.7822 267.569C71.2588 267.814 71.7837 267.951 72.3194 267.97C72.855 267.989 73.3883 267.89 73.8811 267.679C74.3738 267.468 74.814 267.151 75.1701 266.75C75.5261 266.35 75.7894 265.875 75.941 265.361C76.438 263.931 76.5851 262.402 76.3701 260.903C76.0561 258.894 74.3505 258.089 72.3832 258.559C71.9593 258.612 71.5305 258.612 71.1066 258.559V258.036C74.0784 256.76 76.7258 254.07 80.5243 255.943C78.8919 253.851 77.249 251.684 75.6899 249.497C75.4434 248.999 75.3557 248.436 75.4387 247.886C75.5773 247.298 75.7772 246.726 76.0352 246.18C69.7044 249.047 63.5514 250.24 56.9276 247.415C57.1264 247.917 57.1578 248.263 57.3566 248.461Z" fill="#54B57F"/>
<path fill-rule="evenodd" clip-rule="evenodd" d="M84.7833 195.377C84.7833 190.835 85.4949 186.461 88.3934 182.181C88.4606 182.848 88.4111 183.52 88.2469 184.17C86.0076 188.125 85.8611 192.541 85.3798 196.873C85.2393 197.876 84.7185 198.786 83.9252 199.416C80.786 201.634 80.5348 201.959 81.508 205.694C81.5813 206.008 81.6964 206.312 81.8743 206.898C86.4052 202.628 89.7119 197.972 90.1514 191.704C90.413 187.905 90.6223 184.096 90.9781 180.308C91.0938 178.986 91.6937 177.752 92.6628 176.845C94.065 175.453 94.6929 173.297 95.6347 171.466C90.8839 173.339 86.4262 175.139 80.9848 173.957C80.9848 175.129 80.9848 176.175 80.9848 177.2C80.8802 183.291 80.7895 189.377 80.7127 195.46C80.7127 196.507 79.9488 197.888 81.9684 197.951C83.988 198.014 84.7624 197.302 84.7833 195.377Z" fill="#54B57F"/>
<path fill-rule="evenodd" clip-rule="evenodd" d="M24.405 152.777C17.9695 154.357 12.0886 153.237 6.14496 150.58C6.34378 153.447 6.44842 156.052 6.74142 158.637C6.92671 159.282 7.35924 159.827 7.9448 160.154C10.1305 161.527 12.6072 162.368 15.1765 162.612C17.7459 162.855 20.3365 162.494 22.7411 161.557C23.3218 161.414 23.8261 161.055 24.1509 160.554C24.4758 160.052 24.5966 159.445 24.4887 158.857C24.2898 156.963 24.405 155.006 24.405 152.777Z" fill="white"/>
<path fill-rule="evenodd" clip-rule="evenodd" d="M80.001 163.607C80.0639 163.862 80.1829 164.1 80.3495 164.303C80.5161 164.505 80.726 164.668 80.9637 164.779C84.7099 165.763 88.4247 165.92 91.7628 163.597C92.0991 163.334 92.3784 163.006 92.5835 162.632C92.7886 162.257 92.9152 161.845 92.9557 161.42C93.0813 158.281 93.008 155.142 93.008 152.191C88.6968 152.547 84.6367 152.871 80.3882 153.237C79.6857 156.649 79.5549 160.153 80.001 163.607V163.607Z" fill="#E24D4D"/>
<path fill-rule="evenodd" clip-rule="evenodd" d="M31.688 234.105C31.7954 234.523 32.0029 234.91 32.2927 235.231C32.5826 235.552 32.946 235.797 33.3518 235.946C38.7409 237.129 44.0776 237.192 49.1841 234.628C49.8616 234.394 50.4387 233.935 50.8194 233.328C51.2001 232.721 51.3616 232.002 51.277 231.29C51.2673 229.89 51.3617 228.49 51.5595 227.104C44.8833 230.306 38.3223 229.427 31.6148 227.973C31.5339 230.017 31.5583 232.063 31.688 234.105V234.105Z" fill="#E24D4D"/>
<path fill-rule="evenodd" clip-rule="evenodd" d="M6.82507 160.751C7.09714 163.733 7.24364 166.454 7.65174 169.122C7.79448 169.504 8.02221 169.849 8.31771 170.13C8.61321 170.411 8.96874 170.621 9.35741 170.744C14.0435 172.087 19.0418 171.848 23.5782 170.064C23.7967 169.93 23.9819 169.749 24.1197 169.533C24.2575 169.317 24.3443 169.073 24.3735 168.819C24.4468 166.548 24.3735 164.256 24.3735 161.818C18.4194 164.549 12.7164 164.068 6.82507 160.751Z" fill="#E24D4D"/>
<path fill-rule="evenodd" clip-rule="evenodd" d="M92.8511 150.925V140.806L82.7008 142.02C82.1044 144.72 81.4033 147.754 80.765 150.789C80.4615 152.243 81.7067 152.285 82.4915 152.233C85.1599 152.065 87.8073 151.741 90.4548 151.427C91.2619 151.302 92.0618 151.135 92.8511 150.925V150.925Z" fill="white"/>
<path fill-rule="evenodd" clip-rule="evenodd" d="M57.9845 228.171C58.2873 229.176 58.9458 230.035 59.8367 230.589C63.4991 232.859 71.7449 231.572 74.6749 228.339C75.0761 227.873 75.3373 227.304 75.4283 226.696C75.5853 225.482 75.6062 224.226 75.6794 222.939C69.83 225.137 64.0014 225.817 57.8903 223.787C57.7642 225.248 57.7958 226.718 57.9845 228.171V228.171Z" fill="#E24D4D"/>
<path fill-rule="evenodd" clip-rule="evenodd" d="M6.18673 148.842C6.21958 149.059 6.30056 149.265 6.4237 149.446C6.54684 149.628 6.70902 149.779 6.8983 149.889C12.2747 152.659 18.4767 153.373 24.3421 151.898V147.65C18.1264 147.294 11.9839 146.373 6.15534 143.61C6.15534 145.557 6.11348 147.2 6.18673 148.842Z" fill="#E24D4D"/>
<path fill-rule="evenodd" clip-rule="evenodd" d="M33.0901 14.4091C38.9919 10.2863 45.2286 9.03056 52.1873 8.86313C48.505 5.61807 44.33 2.97951 39.8186 1.04639C36.8859 5.11841 34.6151 9.62828 33.0901 14.4091V14.4091Z" fill="#E24D4D"/>
<path fill-rule="evenodd" clip-rule="evenodd" d="M51.0886 234.649C44.8101 238.353 38.3328 237.788 31.6985 236.637C31.6985 236.553 31.6985 236.637 31.6985 236.742C31.6985 240.697 31.6985 240.708 35.6016 241.974C38.9711 243.02 42.4557 243.679 45.8356 242.476C50.1573 240.885 51.0991 240.32 51.0886 234.649Z" fill="white"/>
<path fill-rule="evenodd" clip-rule="evenodd" d="M57.5554 235.821C57.6667 238.062 57.9571 240.291 58.4239 242.486C58.6827 242.977 59.0518 243.4 59.5022 243.723C59.9525 244.047 60.4718 244.261 61.0191 244.349C64.9238 245.008 68.9367 244.326 72.4041 242.413C72.9855 242.135 73.4671 241.684 73.7835 241.123C74.0999 240.561 74.2357 239.916 74.1725 239.274C74.1862 238.286 74.2631 237.301 74.4028 236.323C72.0218 238.184 69.0495 239.124 66.0314 238.971C64.4802 239.035 62.9318 238.789 61.4765 238.248C60.0212 237.708 58.6882 236.882 57.5554 235.821V235.821Z" fill="#E24D4D"/>
<path fill-rule="evenodd" clip-rule="evenodd" d="M75.1247 229.521C69.5578 232.922 63.9385 234 58.0262 230.725C57.1159 234.094 58.0262 235.904 61.2597 237.129C64.4839 238.365 68.055 238.342 71.2634 237.066C73.5237 236.197 75.0096 234.764 74.8631 232.106C74.8823 231.239 74.9698 230.375 75.1247 229.521V229.521Z" fill="white"/>
<path fill-rule="evenodd" clip-rule="evenodd" d="M34.5865 246.777C38.0688 248.534 42.0281 249.11 45.8669 248.42C49.5817 247.666 50.4502 246.588 50.7013 242.894C50.7013 242.277 50.7013 241.649 50.7013 240.728C49.4782 241.89 48.0147 242.769 46.4144 243.302C44.8141 243.836 43.1161 244.011 41.4405 243.815C38.3013 243.46 35.162 242.654 32.0228 242.057C31.5519 244.987 31.7507 245.448 34.5865 246.777Z" fill="#E24D4D"/>
<path fill-rule="evenodd" clip-rule="evenodd" d="M31.5728 224.739C31.081 226.298 32.2006 227.219 33.6656 227.523C38.3745 228.496 43.0834 228.967 47.876 227.742C47.987 227.722 48.0957 227.691 48.2004 227.648C51.1408 226.539 51.664 225.681 51.4129 222.604L31.5728 224.739Z" fill="white"/>
<path fill-rule="evenodd" clip-rule="evenodd" d="M92.851 164.371C86.6667 166.663 85.3796 166.799 80.294 165.637C80.7335 168.034 81.1207 170.346 81.6125 172.628C81.6753 172.9 82.2403 173.182 82.6589 173.266C85.8819 173.967 88.8118 172.816 91.7523 171.749C91.91 171.652 92.0437 171.521 92.1434 171.365C92.2431 171.209 92.3061 171.032 92.3278 170.849C92.5371 168.714 92.7045 166.579 92.851 164.371Z" fill="white"/>
<path fill-rule="evenodd" clip-rule="evenodd" d="M75.8363 218.597C71.8809 219.298 67.9882 219.999 64.0955 220.69C63.5419 220.833 62.9642 220.858 62.4003 220.763C60.8202 220.334 59.3343 220.24 57.9426 221.621C58.1528 222.217 58.538 222.735 59.0477 223.109C59.5573 223.482 60.1678 223.693 60.7993 223.714C65.121 224.247 69.4427 224.352 73.5761 222.667C76.0142 221.705 76.0456 221.537 75.8363 218.597Z" fill="white"/>
<path fill-rule="evenodd" clip-rule="evenodd" d="M24.3003 171.006C15.5627 172.837 12.2037 172.889 8.0285 171.225C8.10175 172.847 8.53078 173.831 10.4248 174.061C14.4117 174.543 18.3776 175.327 22.354 175.945C23.0046 175.975 23.6566 175.94 24.3003 175.84V171.006Z" fill="white"/>
<path fill-rule="evenodd" clip-rule="evenodd" d="M73.7853 242.769C68.7834 245.416 63.7502 246.316 58.4448 244.506C58.2146 247.08 58.2146 247.112 60.6319 247.645C64.7689 248.482 69.0608 248.077 72.9691 246.484C73.1636 246.374 73.3323 246.224 73.4641 246.043C73.5958 245.863 73.6875 245.656 73.733 245.437C73.8114 244.55 73.8289 243.659 73.7853 242.769V242.769Z" fill="white"/>
<path fill-rule="evenodd" clip-rule="evenodd" d="M83.1508 140.534C86.5621 141.58 89.5967 140.241 92.7359 139.561V135.375C89.9629 135.867 87.305 136.296 84.6681 136.819C84.3123 136.892 83.9356 137.447 83.7786 137.866C83.5065 138.671 83.4333 139.529 83.1508 140.534Z" fill="#E24D4D"/>
<path fill-rule="evenodd" clip-rule="evenodd" d="M86.7086 49.1817C87.4097 51.85 88.0375 54.2673 88.6654 56.6845C89.7118 53.1895 90.2036 49.4642 94.1067 47.6644C94.0126 47.5074 93.9079 47.3504 93.8242 47.1935L86.7086 49.1817ZM88.6654 52.5197L88.027 52.0489L90.1199 49.234L90.6954 49.7258C89.9769 50.6536 89.3002 51.5849 88.6654 52.5197Z" fill="#FFF2CA"/>
<path fill-rule="evenodd" clip-rule="evenodd" d="M76.1084 54.7382C79.3523 50.7722 82.5229 48.6689 86.7609 50.8769C84.4797 47.047 81.9369 46.8586 79.436 47.7376C77.3536 48.3655 76.3491 50.8246 76.1084 54.7382Z" fill="black"/>
<path fill-rule="evenodd" clip-rule="evenodd" d="M38.0501 249.393L31.9913 246.589V248.974L38.0501 249.393Z" fill="white"/>
<path fill-rule="evenodd" clip-rule="evenodd" d="M18.5554 52.5616C18.7542 52.7604 18.9425 53.0639 19.1204 53.0744C21.3388 53.0744 22.3225 54.5917 23.1805 56.3287C23.913 57.8356 24.7711 59.2796 25.5873 60.7446L26.2151 60.4516L23.4107 54.6545C28.444 58.1076 30.8717 63.1514 34.4818 67.337C32.6297 69.0636 32.1588 70.3403 32.8808 72.0564C33.3042 72.9813 33.9812 73.7671 34.8332 74.3228C35.6852 74.8784 36.6773 75.1811 37.6943 75.1956C37.0351 74.7352 36.6479 74.505 36.3026 74.2225C35.4478 73.6642 34.6792 72.9838 34.0214 72.2029C32.7762 70.3298 33.7389 68.6137 36.1143 68.3939C36.0544 68.0735 35.9487 67.7633 35.8003 67.4731C33.1424 64.0408 30.5682 60.5772 27.7534 57.2391C25.7182 54.6586 22.8266 52.8918 19.6018 52.2582C19.38 52.2222 19.1539 52.2222 18.9321 52.2582C18.8484 52.2582 18.7751 52.3837 18.5554 52.5616Z" fill="#7D4E24"/>
<path fill-rule="evenodd" clip-rule="evenodd" d="M54.3952 55.3764C56.8438 54.7486 59.1669 53.7335 61.5318 53.6708C63.8967 53.608 66.1569 54.5288 68.5428 55.0416C68.5848 54.9339 68.5848 54.8144 68.5428 54.7067C66.6906 51.4837 61.312 49.3491 57.7961 50.4478C56.7465 50.7491 55.834 51.4049 55.2138 52.3037C54.5937 53.2024 54.3044 54.2883 54.3952 55.3764V55.3764ZM55.63 53.6917C56.9589 50.5524 61.4481 49.9978 64.6187 52.4883C61.7306 52.8546 58.6227 53.2731 55.63 53.6917Z" fill="black"/>
<path fill-rule="evenodd" clip-rule="evenodd" d="M83.3391 77.3512C83.5867 77.6264 83.8871 77.8491 84.2224 78.006C84.5577 78.1628 84.9211 78.2507 85.2911 78.2644C85.661 78.278 86.0299 78.2172 86.3759 78.0855C86.7219 77.9538 87.0378 77.7539 87.305 77.4977C88.5189 76.0536 88.3515 74.3584 87.7341 72.7888C87.1167 71.2192 86.4888 69.9321 84.7309 69.6495C84.3912 69.6638 84.0558 69.7309 83.7368 69.8484L85.0343 70.6646C85.8852 71.2095 86.5444 72.0069 86.9196 72.945C87.2949 73.8832 87.3675 74.9152 87.1272 75.8967C86.7923 77.0268 85.5157 77.8325 84.6472 77.3198C84.1616 76.9863 83.827 76.475 83.7158 75.8967C83.653 75.6141 84.3751 74.8502 84.5111 74.913C85.0158 75.1895 85.4747 75.5425 85.8715 75.9594H86.3633C86.1854 75.3734 86.1435 74.4003 85.8191 74.3061C85.0717 74.0173 84.2435 74.0173 83.4961 74.3061C83.2607 74.4787 83.0666 74.7015 82.928 74.9584C82.7894 75.2153 82.7097 75.4998 82.6946 75.7914C82.6796 76.0829 82.7296 76.3741 82.8411 76.6439C82.9526 76.9137 83.1227 77.1553 83.3391 77.3512V77.3512Z" fill="#DCA0C8"/>
<path fill-rule="evenodd" clip-rule="evenodd" d="M60.14 76.7652C60.1705 77.3455 60.4154 77.8938 60.8272 78.3037C61.2391 78.7136 61.7885 78.9559 62.3689 78.9836C62.9948 79.1033 63.6428 78.9894 64.1905 78.6635C64.7381 78.3376 65.1473 77.8224 65.3407 77.2152C65.4067 76.824 65.3733 76.4225 65.2435 76.0476C65.1136 75.6728 64.8916 75.3366 64.5977 75.07C63.8036 74.7805 62.9328 74.7805 62.1387 75.07C61.9085 75.1328 61.9189 76.1165 61.8038 76.8176C62.3479 76.7338 62.4944 76.7548 62.5468 76.692C62.913 76.3048 63.2479 75.8862 63.5932 75.4781C63.8966 75.8444 64.5245 76.3048 64.4512 76.5246C64.2844 77.1293 63.8909 77.6465 63.3525 77.9686C63.1274 78.0652 62.8835 78.1106 62.6387 78.1015C62.3939 78.0923 62.1541 78.0289 61.9368 77.9157C61.7195 77.8026 61.5301 77.6425 61.3822 77.4472C61.2343 77.2518 61.1317 77.026 61.0818 76.7862C60.7895 75.7719 60.8357 74.6901 61.2133 73.7045C61.5909 72.7188 62.2795 71.8831 63.1746 71.3239L64.1164 70.7797L63.8443 70.1937C63.0569 70.4759 62.3161 70.8745 61.6468 71.3762C60.9883 72.0919 60.5085 72.9532 60.2466 73.8898C59.9847 74.8265 59.9482 75.8118 60.14 76.7652V76.7652Z" fill="#DCA0C8"/>
<path fill-rule="evenodd" clip-rule="evenodd" d="M80.88 73.0086C79.8336 73.2702 78.9023 73.4481 78.0443 73.6365C78.6972 73.9903 79.4371 74.1515 80.178 74.1015C80.9189 74.0515 81.6305 73.7923 82.2299 73.3539C80.5862 71.0761 78.7139 68.9723 76.6421 67.0754C76.4851 67.2115 76.3177 67.358 76.1398 67.4835C77.678 69.2311 79.1744 71.01 80.88 73.0086Z" fill="#7D4E24"/>
<path fill-rule="evenodd" clip-rule="evenodd" d="M74.0156 82.4159C74.1097 84.2576 75.2399 85.5552 76.5584 85.3668C77.2788 85.1883 77.9128 84.7604 78.3476 84.1588C78.7825 83.5573 78.9901 82.8212 78.9337 82.0811C78.1175 82.8868 77.4164 84.1739 76.5584 84.2367C75.7003 84.2995 74.8736 83.1275 74.0156 82.4159Z" fill="#7D4E24"/>
<path fill-rule="evenodd" clip-rule="evenodd" d="M59.3658 212.486C60.025 206.416 61.5737 200.776 67.0674 196.716C62.4108 196.727 58.8112 204.365 59.3658 212.486Z" fill="#7D4E24"/>
<path fill-rule="evenodd" clip-rule="evenodd" d="M87.9747 52.0489L88.613 52.5198C89.3107 51.585 90.0083 50.6537 90.7059 49.7258L90.1304 49.234L87.9747 52.0489Z" fill="#7D4E24"/>
<path fill-rule="evenodd" clip-rule="evenodd" d="M55.63 53.6917C58.6228 53.2731 61.7306 52.8546 64.6187 52.4883C61.4586 49.9979 56.959 50.5734 55.63 53.6917Z" fill="black"/>
<path fill-rule="evenodd" clip-rule="evenodd" d="M67.5905 63.6746C66.7848 61.1632 54.3638 59.332 53.5267 61.2469C52.5849 63.4549 57.1682 66.1232 59.4599 66.479C61.3748 66.6988 68.3963 66.1755 67.5905 63.6746Z" fill="white"/>
<path fill-rule="evenodd" clip-rule="evenodd" d="M78.2641 61.634C78.2641 60.0225 85.0135 56.4019 85.882 57.3855C86.7505 58.3691 84.7728 60.9329 83.5171 61.5712C82.4602 62.1258 78.3164 63.2455 78.2641 61.634Z" fill="white"/>
<path fill-rule="evenodd" clip-rule="evenodd" d="M53.4012 61.3725C54.772 61.1632 55.9021 60.9958 57.0323 60.8074C57.6706 63.5909 58.6123 64.5745 60.7994 64.7733C62.4527 64.9198 63.3003 64.2606 64.399 61.9899C65.4455 62.5026 66.3872 63.0363 67.6848 63.706C66.0733 60.0749 55.7661 58.5367 53.4012 61.3725ZM59.3658 60.6923C60.6005 60.8597 61.8144 61.1213 63.1015 61.3411C63.1852 62.8584 62.6724 63.6432 61.4377 63.7792C60.8172 63.9262 60.165 63.8531 59.5924 63.5726C59.0199 63.292 58.5625 62.8214 58.2984 62.241C57.9008 61.2783 58.0891 60.5353 59.3658 60.6923Z" fill="black"/>
<path fill-rule="evenodd" clip-rule="evenodd" d="M78.4943 61.1631C79.1744 61.4142 79.8651 61.5921 80.4615 61.8851C80.8268 62.0441 81.2239 62.1161 81.6216 62.0955C82.0194 62.075 82.407 61.9624 82.7539 61.7666C83.1008 61.5709 83.3975 61.2973 83.6207 60.9674C83.8439 60.6375 83.9876 60.2603 84.0403 59.8655C84.0822 59.2454 84.0822 58.6231 84.0403 58.0029L85.9238 57.3646C83.3496 56.2345 79.2477 58.5994 78.4943 61.1631ZM79.8651 60.2213C81.1522 59.3005 81.9579 58.7459 82.8892 58.0657C83.4648 59.6144 83.2031 60.6713 81.9056 61.0794C81.4452 61.2154 80.7755 60.6294 79.8651 60.2213V60.2213Z" fill="black"/>
<path fill-rule="evenodd" clip-rule="evenodd" d="M79.865 60.2213C80.7754 60.6294 81.4451 61.2677 81.9578 61.0794C83.2554 60.6713 83.517 59.6144 82.9415 58.0657C81.916 58.7458 81.1521 59.3004 79.865 60.2213Z" fill="black"/>
<path fill-rule="evenodd" clip-rule="evenodd" d="M58.3193 62.2724C58.5798 62.8566 59.0357 63.3318 59.6086 63.6163C60.1815 63.9009 60.8357 63.977 61.4586 63.8315C62.6933 63.6955 63.2061 62.9107 63.1224 61.3934C61.8353 61.1736 60.6214 60.912 59.3867 60.7446C58.1519 60.5772 57.9008 61.2783 58.3193 62.2724Z" fill="black"/>
<path fill-rule="evenodd" clip-rule="evenodd" d="M61.2702 62.1676C61.2702 62.3746 61.3316 62.5769 61.4466 62.749C61.5615 62.9211 61.725 63.0552 61.9162 63.1344C62.1074 63.2136 62.3178 63.2343 62.5208 63.1939C62.7238 63.1536 62.9102 63.0539 63.0566 62.9076C63.2029 62.7612 63.3026 62.5748 63.3429 62.3718C63.3833 62.1688 63.3626 61.9584 63.2834 61.7672C63.2042 61.576 63.0701 61.4126 62.898 61.2976C62.7259 61.1826 62.5236 61.1212 62.3166 61.1212C62.0391 61.1212 61.7729 61.2315 61.5767 61.4277C61.3804 61.6239 61.2702 61.8901 61.2702 62.1676Z" fill="white"/>
<path fill-rule="evenodd" clip-rule="evenodd" d="M81.508 59.1853C81.508 59.3923 81.5694 59.5946 81.6843 59.7667C81.7993 59.9388 81.9628 60.0729 82.154 60.1521C82.3452 60.2313 82.5556 60.252 82.7586 60.2116C82.9615 60.1713 83.148 60.0716 83.2943 59.9253C83.4407 59.7789 83.5403 59.5925 83.5807 59.3895C83.6211 59.1865 83.6004 58.9761 83.5212 58.7849C83.442 58.5937 83.3078 58.4303 83.1358 58.3153C82.9637 58.2003 82.7614 58.1389 82.5544 58.1389C82.2769 58.1389 82.0107 58.2492 81.8145 58.4454C81.6182 58.6416 81.508 58.9078 81.508 59.1853Z" fill="white"/>
</svg>
