<svg width="62" height="90" viewBox="0 0 62 90" fill="none" xmlns="http://www.w3.org/2000/svg">
<ellipse cx="31" cy="30.5" rx="4" ry="3.5" fill="#F21C1C"/>
<path d="M50.0454 65.0147L49.9449 65.0176L49.847 65.0403C49.7399 65.0652 49.6409 65.0816 49.5097 65.1033C49.3838 65.1241 49.2284 65.1498 49.0078 65.1927C48.6349 65.2651 48.1749 65.3731 47.7268 65.5621C42.5998 67.6982 39.1885 71.5136 37.6437 76.8136C36.8194 79.6318 37.2482 82.4567 38.9946 84.9483L38.9947 84.9485C39.9645 86.3315 41.1809 87.3605 42.6163 87.8639C44.0637 88.3714 45.6403 88.3112 47.2512 87.6743L47.2538 87.6732C53.5131 85.178 57.2237 80.3236 58.5043 73.8689C58.9604 71.5755 57.981 69.3119 56.3969 67.6874C54.8074 66.0574 52.4974 64.9458 50.0454 65.0147Z" fill="#A96327" stroke="black" stroke-width="2"/>
<mask id="path-3-outside-1_153_3590" maskUnits="userSpaceOnUse" x="3.96338" y="0" width="58" height="45" fill="black">
<rect fill="white" x="3.96338" width="58" height="45"/>
<path d="M56.2434 18.4744C58.0934 20.5244 58.0234 22.8144 57.2134 25.2044C56.9634 25.9644 56.6434 26.7044 56.2734 27.4144C47.7434 43.9744 30.3834 45.8744 17.8634 38.8344C13.6134 36.4434 10.8134 32.8634 9.6134 28.1244C9.1034 26.1134 8.86343 24.0444 8.45343 22.0144C8.19343 20.6644 8.85015 19.55 7.50015 18L6.96338 16.1634C10.6434 15.3234 11.9634 13.3034 14.3034 10.3534C14.7934 9.73337 15.3534 9.09335 16.0234 8.71335C20.8634 5.91335 25.8134 3.47339 31.4034 2.37339C34.8834 1.68339 38.0734 1.86238 41.1134 3.65238C44.3134 5.53238 47.5534 6.36241 51.1334 4.68241C52.3134 4.13241 53.6734 4.20338 54.8434 4.90238C56.4134 5.84238 63.5001 10.5 57.2134 16.5C53.3434 13.29 50.3534 5.80237 47.2734 9.27237C48.4634 12.9424 50.3734 15.8524 54.7234 16.1634C55.2234 16.9444 55.6334 17.7844 56.2434 18.4744ZM41.3334 24.3144C42.7134 24.2744 43.9434 22.8144 43.7634 21.4344C43.6034 20.1644 42.4134 19.1144 41.2034 19.1644C39.8034 19.2244 38.6034 20.6434 38.7634 22.0444C38.9134 23.2744 40.1234 24.3444 41.3334 24.3144ZM38.8934 38.3844C39.4234 38.0844 40.0934 37.8444 39.5134 37.0334C35.0034 37.5544 35.0034 37.5544 32.0234 35.1034C29.4734 37.8334 29.4734 37.8334 25.0234 38.8034C25.1234 39.0834 25.1334 39.5324 25.3234 39.6234C28.0234 40.8524 30.1134 38.8524 32.4234 38.1524C34.5934 39.0344 36.7234 39.5944 38.8934 38.3844ZM33.9434 34.1244C37.8834 32.3534 37.6134 29.7944 34.8034 27.8534C32.8034 26.4734 31.1234 25.6534 28.8034 26.4944C26.2734 27.4144 25.2934 29.7834 26.4734 32.1934C27.4534 34.1834 29.2134 34.6434 31.6434 34.7334C32.1334 34.6044 33.0934 34.5044 33.9434 34.1244ZM20.6434 24.3744C22.1334 24.3744 23.3234 23.0144 23.1434 21.5334C22.9834 20.2634 21.7734 19.3234 20.4334 19.4334C19.0534 19.5434 18.1034 20.6134 18.1634 21.9834C18.2234 23.2944 19.3334 24.3644 20.6434 24.3744Z"/>
</mask>
<path d="M56.2434 18.4744C58.0934 20.5244 58.0234 22.8144 57.2134 25.2044C56.9634 25.9644 56.6434 26.7044 56.2734 27.4144C47.7434 43.9744 30.3834 45.8744 17.8634 38.8344C13.6134 36.4434 10.8134 32.8634 9.6134 28.1244C9.1034 26.1134 8.86343 24.0444 8.45343 22.0144C8.19343 20.6644 8.85015 19.55 7.50015 18L6.96338 16.1634C10.6434 15.3234 11.9634 13.3034 14.3034 10.3534C14.7934 9.73337 15.3534 9.09335 16.0234 8.71335C20.8634 5.91335 25.8134 3.47339 31.4034 2.37339C34.8834 1.68339 38.0734 1.86238 41.1134 3.65238C44.3134 5.53238 47.5534 6.36241 51.1334 4.68241C52.3134 4.13241 53.6734 4.20338 54.8434 4.90238C56.4134 5.84238 63.5001 10.5 57.2134 16.5C53.3434 13.29 50.3534 5.80237 47.2734 9.27237C48.4634 12.9424 50.3734 15.8524 54.7234 16.1634C55.2234 16.9444 55.6334 17.7844 56.2434 18.4744ZM41.3334 24.3144C42.7134 24.2744 43.9434 22.8144 43.7634 21.4344C43.6034 20.1644 42.4134 19.1144 41.2034 19.1644C39.8034 19.2244 38.6034 20.6434 38.7634 22.0444C38.9134 23.2744 40.1234 24.3444 41.3334 24.3144ZM38.8934 38.3844C39.4234 38.0844 40.0934 37.8444 39.5134 37.0334C35.0034 37.5544 35.0034 37.5544 32.0234 35.1034C29.4734 37.8334 29.4734 37.8334 25.0234 38.8034C25.1234 39.0834 25.1334 39.5324 25.3234 39.6234C28.0234 40.8524 30.1134 38.8524 32.4234 38.1524C34.5934 39.0344 36.7234 39.5944 38.8934 38.3844ZM33.9434 34.1244C37.8834 32.3534 37.6134 29.7944 34.8034 27.8534C32.8034 26.4734 31.1234 25.6534 28.8034 26.4944C26.2734 27.4144 25.2934 29.7834 26.4734 32.1934C27.4534 34.1834 29.2134 34.6434 31.6434 34.7334C32.1334 34.6044 33.0934 34.5044 33.9434 34.1244ZM20.6434 24.3744C22.1334 24.3744 23.3234 23.0144 23.1434 21.5334C22.9834 20.2634 21.7734 19.3234 20.4334 19.4334C19.0534 19.5434 18.1034 20.6134 18.1634 21.9834C18.2234 23.2944 19.3334 24.3644 20.6434 24.3744Z" fill="#A96327"/>
<path d="M56.2434 18.4744L54.745 19.7991L54.7518 19.8067L54.7586 19.8143L56.2434 18.4744ZM57.2134 25.2044L55.3192 24.5624L55.3164 24.5709L55.3136 24.5794L57.2134 25.2044ZM56.2734 27.4144L54.4998 26.4901L54.4954 26.4986L56.2734 27.4144ZM17.8634 38.8344L16.8828 40.5775L16.8831 40.5777L17.8634 38.8344ZM9.6134 28.1244L11.5522 27.6334L11.552 27.6327L9.6134 28.1244ZM8.45343 22.0144L6.48952 22.3926L6.49123 22.4015L6.49302 22.4103L8.45343 22.0144ZM7.50015 18L5.58046 18.561L5.70362 18.9825L5.99199 19.3136L7.50015 18ZM6.96338 16.1634L6.5183 14.2135L4.44797 14.6861L5.04369 16.7244L6.96338 16.1634ZM14.3034 10.3534L15.8703 11.5963L15.8725 11.5935L14.3034 10.3534ZM16.0234 8.71335L17.0101 10.453L17.0175 10.4488L17.0249 10.4445L16.0234 8.71335ZM31.4034 2.37339L31.7896 4.33576L31.7924 4.3352L31.4034 2.37339ZM41.1134 3.65238L40.0986 5.37581L40.1003 5.3768L41.1134 3.65238ZM51.1334 4.68241L50.2885 2.86964L50.2838 2.87186L51.1334 4.68241ZM54.8434 4.90238L55.8708 3.18643L55.8692 3.18545L54.8434 4.90238ZM57.2134 16.5L55.9365 18.0394L57.3066 19.1757L58.5942 17.9468L57.2134 16.5ZM47.2734 9.27237L45.7776 7.94472L45.0179 8.80062L45.3709 9.88926L47.2734 9.27237ZM54.7234 16.1634L56.4078 15.085L55.8668 14.24L54.866 14.1685L54.7234 16.1634ZM41.3334 24.3144L41.383 26.3138L41.3913 26.3135L41.3334 24.3144ZM43.7634 21.4344L41.7791 21.6844L41.7802 21.693L43.7634 21.4344ZM41.2034 19.1644L41.1209 17.1661L41.1178 17.1662L41.2034 19.1644ZM38.7634 22.0444L36.7763 22.2713L36.7772 22.2789L36.7781 22.2865L38.7634 22.0444ZM38.8934 38.3844L39.8674 40.1312L39.8786 40.1249L38.8934 38.3844ZM39.5134 37.0334L41.1402 35.8699L40.4547 34.9113L39.2839 35.0466L39.5134 37.0334ZM32.0234 35.1034L33.2939 33.5587L31.8436 32.3659L30.5618 33.7382L32.0234 35.1034ZM25.0234 38.8034L24.5975 36.8493L22.3748 37.3337L23.1399 39.4761L25.0234 38.8034ZM25.3234 39.6234L24.4595 41.4272L24.4771 41.4356L24.4949 41.4437L25.3234 39.6234ZM32.4234 38.1524L33.1765 36.2996L32.5208 36.0331L31.8434 36.2383L32.4234 38.1524ZM33.9434 34.1244L34.7597 35.9502L34.7634 35.9486L33.9434 34.1244ZM34.8034 27.8534L35.9401 26.2078L35.9393 26.2072L34.8034 27.8534ZM28.8034 26.4944L28.1218 24.6141L28.1199 24.6148L28.8034 26.4944ZM26.4734 32.1934L24.6772 33.0729L24.6792 33.077L26.4734 32.1934ZM31.6434 34.7334L31.5694 36.732L31.8658 36.743L32.1526 36.6675L31.6434 34.7334ZM20.6434 24.3744L20.6281 26.3743L20.6358 26.3744H20.6434V24.3744ZM23.1434 21.5334L25.1288 21.2921L25.1277 21.2834L23.1434 21.5334ZM20.4334 19.4334L20.5923 21.4271L20.597 21.4267L20.4334 19.4334ZM18.1634 21.9834L16.1653 22.0709L16.1655 22.0748L18.1634 21.9834ZM54.7586 19.8143C55.4027 20.5281 55.6664 21.215 55.7358 21.9105C55.8097 22.6508 55.6732 23.518 55.3192 24.5624L59.1076 25.8463C59.5636 24.5008 59.8672 23.0279 59.716 21.5133C59.5604 19.9538 58.9341 18.4707 57.7282 17.1345L54.7586 19.8143ZM55.3136 24.5794C55.1012 25.2251 54.8255 25.8652 54.4998 26.4901L58.047 28.3387C58.4614 27.5436 58.8257 26.7036 59.1133 25.8293L55.3136 24.5794ZM54.4954 26.4986C50.4897 34.2753 44.4884 38.5033 38.1 40.0291C31.6647 41.5661 24.7078 40.3885 18.8437 37.0911L16.8831 40.5777C23.539 44.3203 31.5221 45.7127 39.0293 43.9197C46.5834 42.1155 53.5271 37.1136 58.0514 28.3302L54.4954 26.4986ZM18.844 37.0913C15.0586 34.9616 12.6142 31.8273 11.5522 27.6334L7.6746 28.6153C9.01263 33.8994 12.1682 37.9251 16.8828 40.5775L18.844 37.0913ZM11.552 27.6327C11.3173 26.7073 11.1405 25.7515 10.9672 24.7391C10.7978 23.7492 10.6267 22.6722 10.4138 21.6184L6.49302 22.4103C6.69019 23.3866 6.84404 24.3591 7.02459 25.4139C7.20128 26.4462 7.39947 27.5305 7.67477 28.616L11.552 27.6327ZM10.4173 21.6361C10.391 21.4992 10.3811 21.3368 10.3845 21.0601C10.3872 20.8387 10.4061 20.3805 10.3822 19.9667C10.3228 18.9394 10.0094 17.8358 9.00832 16.6864L5.99199 19.3136C6.34094 19.7142 6.37414 19.9428 6.38888 20.1976C6.40202 20.4249 6.38989 20.5954 6.38479 21.011C6.38036 21.3714 6.3859 21.8546 6.48952 22.3926L10.4173 21.6361ZM9.41985 17.439L8.88307 15.6023L5.04369 16.7244L5.58046 18.561L9.41985 17.439ZM7.40845 18.1132C11.8889 17.0905 13.6241 14.428 15.8703 11.5963L12.7365 9.11047C10.3027 12.1787 9.39785 13.5562 6.5183 14.2135L7.40845 18.1132ZM15.8725 11.5935C16.3563 10.9814 16.7098 10.6233 17.0101 10.453L15.0367 6.97368C13.997 7.5634 13.2305 8.48537 12.7343 9.11326L15.8725 11.5935ZM17.0249 10.4445C21.8033 7.68018 26.5255 5.37161 31.7896 4.33575L31.0173 0.411021C25.1013 1.57516 19.9235 4.14652 15.0219 6.98217L17.0249 10.4445ZM31.7924 4.3352C34.9582 3.7075 37.6083 3.90945 40.0986 5.37581L42.1282 1.92895C38.5385 -0.18469 34.8086 -0.340721 31.0144 0.411579L31.7924 4.3352ZM40.1003 5.3768C43.6059 7.43632 47.5746 8.56176 51.9831 6.49296L50.2838 2.87186C47.5323 4.16306 45.0209 3.62844 42.1265 1.92796L40.1003 5.3768ZM51.9784 6.49517C52.5408 6.23303 53.2008 6.25077 53.8177 6.6193L55.8692 3.18545C54.146 2.15599 52.0861 2.03179 50.2885 2.86965L51.9784 6.49517ZM53.816 6.61833C54.5664 7.06758 56.3382 8.24912 57.2459 9.8094C57.6689 10.5365 57.8496 11.2527 57.7384 11.9908C57.6263 12.7349 57.1767 13.7703 55.8325 15.0532L58.5942 17.9468C60.3934 16.2297 61.4156 14.4329 61.6937 12.5868C61.9728 10.7348 61.4625 9.10282 60.7034 7.79798C59.247 5.29445 56.6905 3.67718 55.8708 3.18643L53.816 6.61833ZM58.4902 14.9606C57.6934 14.2997 56.8888 13.3703 56.0271 12.2849C55.2205 11.269 54.2999 10.0288 53.4496 9.06105C52.6316 8.13017 51.547 7.04391 50.2277 6.5936C49.4971 6.3442 48.672 6.28045 47.8248 6.54754C47.0032 6.80654 46.3292 7.32334 45.7776 7.94472L48.7692 10.6C48.9876 10.3539 49.0808 10.3456 49.0274 10.3625C48.9483 10.3874 48.8924 10.3644 48.9356 10.3792C49.1641 10.4572 49.6464 10.7928 50.4447 11.7013C51.2107 12.573 51.9556 13.5897 52.8944 14.7721C53.778 15.885 54.7984 17.0953 55.9365 18.0394L58.4902 14.9606ZM45.3709 9.88926C46.0047 11.8438 46.8955 13.818 48.367 15.3588C49.8943 16.958 51.9306 17.9688 54.5808 18.1583L54.866 14.1685C53.1662 14.0469 52.0726 13.4473 51.2598 12.5962C50.3913 11.6868 49.7321 10.3709 49.1759 8.65549L45.3709 9.88926ZM53.039 17.2417C53.289 17.6322 53.4285 17.8945 53.7366 18.3976C53.9997 18.8271 54.3257 19.3247 54.745 19.7991L57.7418 17.1497C57.5512 16.9341 57.3671 16.6667 57.1477 16.3084C56.9734 16.0238 56.6578 15.4755 56.4078 15.085L53.039 17.2417ZM41.3913 26.3135C42.7667 26.2737 43.9202 25.5462 44.6623 24.6662C45.4051 23.7854 45.9234 22.5306 45.7466 21.1757L41.7802 21.693C41.7835 21.7181 41.7767 21.8833 41.6045 22.0875C41.4316 22.2925 41.2802 22.3151 41.2755 22.3152L41.3913 26.3135ZM45.7477 21.1844C45.4681 18.9651 43.4501 17.0699 41.1209 17.1661L41.286 21.1627C41.2878 21.1626 41.3995 21.1674 41.5514 21.3019C41.7002 21.4335 41.7668 21.5863 41.7791 21.6844L45.7477 21.1844ZM41.1178 17.1662C39.766 17.2242 38.622 17.9234 37.8721 18.8092C37.1218 19.6953 36.6237 20.9349 36.7763 22.2713L40.7505 21.8175C40.7431 21.7529 40.7651 21.5825 40.9248 21.3939C41.0848 21.2049 41.2409 21.1646 41.2891 21.1626L41.1178 17.1662ZM36.7781 22.2865C36.9217 23.4638 37.5498 24.4642 38.3266 25.1506C39.1016 25.8354 40.1804 26.3436 41.383 26.3138L41.2838 22.315C41.2844 22.315 41.2527 22.3155 41.1905 22.2905C41.1276 22.2651 41.0511 22.2202 40.9752 22.1531C40.807 22.0046 40.7552 21.8551 40.7487 21.8023L36.7781 22.2865ZM39.8786 40.1249C39.9243 40.099 39.9662 40.0768 40.05 40.0312C40.1217 39.9924 40.2228 39.9371 40.3283 39.8734C40.5155 39.7605 40.8706 39.5332 41.1732 39.1601C41.5236 38.7279 41.784 38.1216 41.7303 37.3966C41.6824 36.7509 41.4 36.2331 41.1402 35.8699L37.8866 38.1968C37.9169 38.2391 37.7682 38.0554 37.7412 37.6922C37.7269 37.4986 37.7507 37.2909 37.8205 37.0881C37.8884 36.8905 37.9844 36.7417 38.0662 36.6409C38.2074 36.4666 38.3319 36.4063 38.2626 36.4481C38.2398 36.4618 38.2062 36.4808 38.142 36.5157C38.09 36.5439 37.995 36.5947 37.9082 36.6439L39.8786 40.1249ZM39.2839 35.0466C38.131 35.1798 37.3592 35.268 36.7569 35.2989C36.1709 35.329 35.883 35.2949 35.6937 35.2461C35.2844 35.1407 34.9189 34.8953 33.2939 33.5587L30.753 36.648C32.1079 37.7624 33.2324 38.7426 34.6956 39.1196C35.4426 39.3121 36.1866 39.3335 36.9621 39.2936C37.7214 39.2546 38.6408 39.1475 39.7429 39.0201L39.2839 35.0466ZM30.5618 33.7382C29.2072 35.1884 28.8143 35.574 28.3013 35.8452C27.7281 36.1482 26.9493 36.3366 24.5975 36.8493L25.4494 40.7575C27.5475 40.3001 28.9937 40.0036 30.1705 39.3816C31.4075 38.7277 32.2896 37.7484 33.485 36.4686L30.5618 33.7382ZM23.1399 39.4761C23.1185 39.416 23.1157 39.3891 23.1312 39.4606C23.1359 39.4827 23.1697 39.648 23.1968 39.7589C23.2259 39.8779 23.289 40.1217 23.4166 40.3807C23.537 40.6248 23.8333 41.1273 24.4595 41.4272L26.1873 37.8196C26.7185 38.074 26.9424 38.4862 27.0043 38.6118C27.0735 38.7522 27.0922 38.8493 27.0825 38.8096C27.0803 38.8003 27.0763 38.7831 27.0688 38.7473C27.0638 38.7241 27.0502 38.6586 27.0403 38.6131C27.0199 38.5188 26.9783 38.3307 26.9069 38.1307L23.1399 39.4761ZM24.4949 41.4437C26.5083 42.3602 28.2997 42.0211 29.7263 41.4823C30.3977 41.2287 31.0564 40.9037 31.5755 40.6578C32.136 40.3922 32.5817 40.1942 33.0034 40.0664L31.8434 36.2383C31.1102 36.4605 30.4283 36.775 29.8628 37.043C29.2561 37.3305 28.7904 37.5599 28.313 37.7403C27.4421 38.0692 26.8385 38.1156 26.152 37.8031L24.4949 41.4437ZM31.6703 40.0052C33.9175 40.9186 36.8366 41.8212 39.8674 40.1312L37.9194 36.6376C36.6103 37.3676 35.2693 37.1502 33.1765 36.2996L31.6703 40.0052ZM34.7634 35.9486C36.9531 34.9643 38.7511 33.4182 38.9002 31.1859C39.0454 29.0134 37.5404 27.3132 35.9401 26.2078L33.6667 29.499C34.8764 30.3345 34.9114 30.8843 34.9091 30.9193C34.9085 30.929 34.9051 31.0571 34.6733 31.3054C34.4247 31.5716 33.9523 31.9276 33.1235 32.3002L34.7634 35.9486ZM35.9393 26.2072C34.9078 25.4955 33.7625 24.7838 32.4693 24.4169C31.0981 24.0279 29.6688 24.0533 28.1218 24.6141L29.485 28.3746C30.258 28.0944 30.8287 28.1093 31.3775 28.265C32.0044 28.4429 32.699 28.8312 33.6676 29.4995L35.9393 26.2072ZM28.1199 24.6148C26.4067 25.2378 25.0551 26.4215 24.3968 28.026C23.7371 29.634 23.8715 31.4274 24.6772 33.0729L28.2697 31.3139C27.8953 30.5494 27.9297 29.9532 28.0975 29.5442C28.2667 29.1317 28.6702 28.6709 29.4869 28.3739L28.1199 24.6148ZM24.6792 33.077C25.3791 34.4982 26.4186 35.4479 27.7201 36.0113C28.9362 36.5377 30.2872 36.6845 31.5694 36.732L31.7174 32.7347C30.5696 32.6922 29.8256 32.564 29.3092 32.3405C28.8782 32.1539 28.5478 31.8786 28.2677 31.3098L24.6792 33.077ZM32.1526 36.6675C32.3713 36.6099 32.4738 36.6099 33.0835 36.4773C33.5448 36.377 34.1512 36.2222 34.7597 35.9502L33.1272 32.2985C32.8856 32.4065 32.587 32.4918 32.2334 32.5687C32.0571 32.607 31.8924 32.6382 31.7085 32.6739C31.5464 32.7054 31.3305 32.7476 31.1342 32.7993L32.1526 36.6675ZM20.6434 26.3744C23.3505 26.3744 25.4516 23.9478 25.1288 21.2921L21.158 21.7747C21.1739 21.9058 21.1327 22.0577 21.017 22.1894C20.902 22.3203 20.7641 22.3744 20.6434 22.3744V26.3744ZM25.1277 21.2834C24.8238 18.8707 22.5945 17.2493 20.2698 17.4401L20.597 21.4267C20.7512 21.414 20.8964 21.4619 21.0053 21.5463C21.1137 21.6304 21.1512 21.7206 21.1591 21.7834L25.1277 21.2834ZM20.2745 17.4397C17.8332 17.6343 16.0577 19.6132 16.1653 22.0709L20.1615 21.8959C20.1533 21.708 20.2109 21.6122 20.2528 21.5651C20.2952 21.5175 20.3899 21.4432 20.5923 21.4271L20.2745 17.4397ZM16.1655 22.0748C16.274 24.445 18.2523 26.3562 20.6281 26.3743L20.6587 22.3744C20.5512 22.3736 20.4286 22.3289 20.3228 22.2269C20.2169 22.1249 20.1664 22.0025 20.1613 21.8919L16.1655 22.0748Z" fill="black" mask="url(#path-3-outside-1_153_3590)"/>
<path d="M51.5827 14.5858L51.581 14.5847C51.0259 14.2267 50.5085 13.5811 50.0692 12.9302C49.6077 12.2466 49.1494 11.4294 48.7362 10.6047C47.9239 8.98323 47.2158 7.1898 47.019 6.19392L46.7288 4.72596L48.1961 5.01942C50.6853 5.51725 51.9921 5.8642 52.7695 6.20315C53.5039 6.52336 53.8336 6.8862 54.0693 7.14568C54.1184 7.19966 54.1634 7.24917 54.2071 7.29289C54.3025 7.38825 54.4008 7.48522 54.5003 7.58342C54.8853 7.96305 55.2888 8.36108 55.6123 8.75565C56.0335 9.2693 56.4179 9.8883 56.5237 10.6578C56.6372 11.4811 56.4312 12.372 56.0586 13.1014C55.6908 13.8215 55.0724 14.5516 54.2059 14.8574L51.5827 14.5858ZM51.5827 14.5858C51.985 14.8442 52.4658 14.963 52.8849 15.0011M51.5827 14.5858L52.8849 15.0011M52.8849 15.0011C53.3083 15.0396 53.7837 15.0064 54.2057 14.8574L52.8849 15.0011ZM53.873 13.9144C53.363 14.0944 52.573 14.0333 52.123 13.7443C50.8775 12.941 49.0708 9.27108 48.3129 7.08373C48.15 7.05026 47.9804 7.01589 47.8039 6.98058L48 6L48.981 5.80608C49.0042 5.92356 49.0397 6.06406 49.0862 6.22376C52.5374 6.95885 52.8455 7.29407 53.3087 7.79805C53.3677 7.86224 53.4292 7.92916 53.5 8C53.6083 8.10826 53.7153 8.21388 53.8202 8.31744C54.6845 9.17055 55.4082 9.88481 55.5331 10.7944C55.6931 11.9544 54.953 13.5334 53.873 13.9144Z" fill="#A96327" stroke="black" stroke-width="2"/>
<path d="M44.0368 61.0342C44.0569 61.0343 44.0772 61.0343 44.0975 61.0341L44.0368 61.0342ZM44.0368 61.0342L44.0335 60.3141L44.0352 61.0342L44.0368 61.0342ZM51.1091 61.2323C50.7422 60.7852 50.2705 60.5276 49.7457 60.4167C51.8927 59.7042 53.8845 58.5602 55.6709 56.9588C58.5216 54.4037 59.4989 50.5688 58.8514 47.1113C58.2019 43.6435 55.895 40.4441 52.0659 39.2309C51.3199 38.9942 50.5594 38.78 49.8269 38.5736C49.5222 38.4878 49.2224 38.4034 48.9304 38.3192L48.4867 38.1913L48.1016 38.4462C44.1127 41.0861 39.7477 42.5089 34.7292 43.3447L33.0882 43.618L34.0994 44.9389C34.4269 45.3668 34.711 45.7281 34.9682 46.0553C35.3507 46.5416 35.6738 46.9526 35.9919 47.3944L35.9945 47.398C36.7978 48.5033 36.8491 49.7168 36.2708 50.9297L36.2705 50.9303C35.3865 52.7876 33.9521 54.0471 31.9527 54.4836C30.1699 54.8632 28.7314 54.6483 27.6567 53.3839C26.4749 51.9829 26.4946 50.3535 27.173 48.4926L27.1739 48.4901C27.2488 48.283 27.3919 48.0564 27.6203 47.7675C27.7213 47.6398 27.8276 47.5137 27.9455 47.3738C27.9596 47.357 27.9739 47.34 27.9884 47.3228C28.1189 47.1679 28.2625 46.9962 28.3989 46.8172L28.4002 46.8155C28.7189 46.3953 29.0504 45.9966 29.4872 45.4712C29.6305 45.2989 29.7852 45.1129 29.9544 44.908L31.0655 43.5631L29.3434 43.284C24.7481 42.5393 20.7872 41.2527 17.131 39.1637C16.5739 38.8432 15.9324 38.6105 15.3968 38.4163C15.2165 38.351 15.0482 38.2899 14.8992 38.2314L13.5335 37.6947V39.1621V39.1653V39.1686V39.1718V39.175V39.1782V39.1814V39.1847V39.1879V39.1911V39.1943V39.1976V39.2008V39.204V39.2072V39.2105V39.2137V39.2169V39.2202V39.2234V39.2266V39.2298V39.2331V39.2363V39.2395V39.2427V39.246V39.2492V39.2524V39.2557V39.2589V39.2621V39.2654V39.2686V39.2718V39.275V39.2783V39.2815V39.2847V39.288V39.2912V39.2944V39.2977V39.3009V39.3041V39.3074V39.3106V39.3138V39.3171V39.3203V39.3235V39.3268V39.33V39.3332V39.3365V39.3397V39.3429V39.3462V39.3494V39.3526V39.3559V39.3591V39.3624V39.3656V39.3688V39.3721V39.3753V39.3785V39.3818V39.385V39.3883V39.3915V39.3947V39.398V39.4012V39.4045V39.4077V39.4109V39.4142V39.4174V39.4207V39.4239V39.4271V39.4304V39.4336V39.4369V39.4401V39.4433V39.4466V39.4498V39.4531V39.4563V39.4596V39.4628V39.466V39.4693V39.4725V39.4758V39.479V39.4823V39.4855V39.4888V39.492V39.4953V39.4985V39.5017V39.505V39.5082V39.5115V39.5147V39.518V39.5212V39.5245V39.5277V39.531V39.5342V39.5375V39.5407V39.544V39.5472V39.5505V39.5537V39.557V39.5602V39.5635V39.5667V39.57V39.5732V39.5765V39.5797V39.583V39.5862V39.5895V39.5927V39.596V39.5993V39.6025V39.6058V39.609V39.6123V39.6155V39.6188V39.622V39.6253V39.6285V39.6318V39.6351V39.6383V39.6416V39.6448V39.6481V39.6513V39.6546V39.6579V39.6611V39.6644V39.6676V39.6709V39.6741V39.6774V39.6807V39.6839V39.6872V39.6904V39.6937V39.697V39.7002V39.7035V39.7067V39.71V39.7133V39.7165V39.7198V39.7231V39.7263V39.7296V39.7328V39.7361V39.7394V39.7426V39.7459V39.7492V39.7524V39.7557V39.759V39.7622V39.7655V39.7687V39.772V39.7753V39.7785V39.7818V39.7851V39.7883V39.7916V39.7949V39.7981V39.8014V39.8047V39.8079V39.8112V39.8145V39.8178V39.821V39.8243V39.8276V39.8308V39.8341V39.8374V39.8406V39.8439V39.8472V39.8505V39.8537V39.857V39.8603V39.8635V39.8668V39.8701V39.8734V39.8766V39.8799V39.8832V39.8864V39.8897V39.893V39.8963V39.8995V39.9028V39.9061V39.9094V39.9126V39.9159V39.9192V39.9225V39.9258V39.929V39.9323V39.9356V39.9389V39.9421V39.9454V39.9487V39.952V39.9552V39.9585V39.9618V39.9651V39.9684V39.9716V39.9749V39.9782V39.9815V39.9848V39.988V39.9913V39.9946V39.9979V40.0012V40.0045V40.0077V40.011V40.0143V40.0176V40.0209V40.0241V40.0274V40.0307V40.034V40.0373V40.0406V40.0438V40.0471V40.0504V40.0537V40.057V40.0603V40.0636V40.0668V40.0701V40.0734V40.0767V40.08V40.0833V40.0866V40.0899V40.0931V40.0964V40.0997V40.103V40.1063V40.1096V40.1129V40.1162V40.1195V40.1227V40.126V40.1293V40.1326V40.1359V40.1392V40.1425V40.1458V40.1491V40.1524V40.1557V40.159V40.1622V40.1655V40.1688V40.1721V40.1754V40.1787V40.182V40.1853V40.1886V40.1919V40.1952V40.1985V40.201C13.2759 40.3177 13.0191 40.4324 12.7638 40.5464C11.7967 40.9781 10.8514 41.4002 9.97022 41.8866L9.97021 41.8866L9.96434 41.8899C8.72688 42.5838 7.36887 43.3486 6.20095 44.3544L6.19971 44.3554C4.54793 45.7825 3.50153 47.3629 3.26927 49.1554C3.03718 50.9464 3.64411 52.7481 4.87533 54.5636C7.0593 57.7939 10.0107 60.1344 13.6321 61.5118C13.5396 61.5085 13.4475 61.5055 13.3545 61.5025C13.0285 61.4919 12.6927 61.4809 12.2961 61.4561L10.3037 61.3311L11.3967 63.0016C11.5696 63.2659 11.6875 63.4786 11.8039 63.6884C11.8522 63.7755 11.9002 63.8621 11.9518 63.9517L11.9578 63.9621C12.0892 64.1905 12.3441 64.6338 12.8155 64.8631C13.3144 65.1062 13.8281 65.2792 14.2891 65.4279C14.3643 65.4521 14.4377 65.4756 14.5096 65.4986C14.8979 65.6228 15.2423 65.733 15.5757 65.869L15.5801 65.8708C22.7649 68.7626 26.4925 75.6245 25.051 83.2278L25.0503 83.2312C24.9902 83.5544 24.9908 83.866 24.999 84.1103C25.0033 84.2369 25.0084 84.3326 25.0128 84.4158C25.0187 84.5263 25.0235 84.6147 25.0235 84.7241V85.4485L25.7117 85.6743C28.8286 86.6969 30.8399 87.2822 32.585 87.1461C34.408 87.0039 35.8231 86.0908 37.7746 84.6607L38.2694 84.2981L38.1703 83.6926C37.7599 81.1849 37.5848 79.6134 37.6725 78.31C37.7572 77.0503 38.0916 75.9929 38.8102 74.5366L38.8104 74.5363C40.8387 70.4223 43.8228 67.3568 48.1326 65.7512L48.1356 65.75C48.8143 65.4947 49.4974 65.2287 50.1742 64.9651C50.5093 64.8346 50.8429 64.7047 51.1737 64.577L51.8222 64.3265L51.8134 63.6314C51.8024 62.7683 51.6453 61.8858 51.1091 61.2323Z" fill="#A96327" stroke="black" stroke-width="2"/>
<path d="M36.9429 49.1234L36.9468 48.9182L36.8696 48.728C36.8541 48.69 36.833 48.6275 36.7949 48.5078C36.7913 48.4966 36.7876 48.485 36.7838 48.4731C36.7513 48.371 36.7104 48.2427 36.6632 48.1094C36.5591 47.8152 36.4026 47.432 36.1487 47.0758C34.6835 44.9994 32.1205 44.4142 29.8656 45.4803L29.8656 45.4803L29.8635 45.4814C27.316 46.6934 25.5515 49.4694 26.6376 52.1031C27.0393 53.0924 27.9447 54.1473 28.9875 54.6084C30.7266 55.3816 32.7226 54.8641 34.2007 53.8418C35.69 52.8118 36.9052 51.1028 36.9429 49.1234Z" fill="#F5CE2C" stroke="black" stroke-width="2"/>
<path d="M19.2528 86.8743L19.2541 86.8744C21.0035 86.9427 22.5538 86.4512 23.7325 85.4379C24.9081 84.4273 25.6315 82.969 25.8638 81.2502C26.0014 80.2648 26.0553 79.1354 25.821 78.0547C24.6888 72.7006 21.875 68.4119 16.7294 65.9443C15.9153 65.5455 14.948 65.2846 14.3485 65.1229C14.1662 65.0737 14.0178 65.0337 13.9182 65.0018L13.7639 64.9523L13.6018 64.9542C10.7996 64.9858 8.57423 65.7346 7.23784 67.3489C5.89035 68.9766 5.6613 71.2212 6.26016 73.745L6.26062 73.7469C7.08195 77.1778 8.54692 80.3309 10.9296 83.0616L10.9304 83.0625C13.17 85.6231 16.0559 86.7451 19.2528 86.8743Z" fill="#A96327" stroke="black" stroke-width="2"/>
<path d="M16.7071 6.70735L17.1441 6.27033L16.9487 5.68402C16.3744 3.96125 14.954 3.25138 13.883 2.71617C13.7279 2.63865 13.5802 2.5648 13.4433 2.49207C12.2968 1.88129 10.7437 1.33448 9.29718 1.45935L9.29718 1.45934L9.29419 1.45961C6.82158 1.68053 4.70433 3.39541 3.42081 5.46529C2.1379 7.5342 1.54171 10.1925 2.40544 12.502C2.63342 13.1214 3.10706 13.5595 3.47231 13.8665C3.6427 14.0097 3.79235 14.1277 3.93265 14.2384C4.1553 14.4141 4.3544 14.5712 4.57544 14.7806L5.8555 15.9933L6.23922 14.2723C6.80636 11.7286 8.75673 10.275 10.9906 9.24418C11.9068 8.82138 12.8209 8.49168 13.6725 8.18451C13.8588 8.11733 14.0421 8.05123 14.2217 7.98546C14.7099 7.80676 15.1828 7.62608 15.5883 7.43552C15.9791 7.25186 16.3943 7.02014 16.7071 6.70735Z" fill="#A96327" stroke="black" stroke-width="2"/>
<path d="M9.21533 7.71262L9.21533 7.71262L9.21334 7.7138C8.25691 8.28057 7.51287 9.03735 7.07673 10.0534C6.64659 11.0555 6.55642 12.2155 6.73199 13.5268L6.92816 14.992L8.21512 14.2647C8.26118 14.2387 8.30671 14.213 8.35173 14.1875C9.91146 13.3063 10.8517 12.7751 11.5602 12.1165C12.29 11.4381 12.7574 10.6412 13.4892 9.39346C13.5111 9.3561 13.5333 9.31833 13.5557 9.28015L13.9192 8.66057L13.4481 8.11828C12.8024 7.37505 12.0165 7.04729 11.1951 7.06727C10.4362 7.08572 9.74812 7.39856 9.21533 7.71262Z" fill="#A96327" stroke="black" stroke-width="2"/>
<circle cx="21" cy="22" r="1" fill="black"/>
<circle cx="41" cy="22" r="1" fill="black"/>
</svg>
