<svg width="1920" height="929" viewBox="0 0 1920 929" fill="none" xmlns="http://www.w3.org/2000/svg">
<g clip-path="url(#clip0_205_10735)">
<path d="M958.032 77C958.032 77 1073.69 135.957 1182.35 77C1209.21 86.7888 1240.68 93.3777 1261.5 98M1555.5 94C1506 105.5 1455.5 115 1406.24 80.8027C1376 91.5 1350.98 93.4238 1342 96" stroke="#D8D8D8" stroke-miterlimit="10"/>
<path d="M979.584 85.9375C979.584 85.9375 968.297 83.1445 971.576 100.943C971.576 100.943 963.704 114.527 979.584 133.263C993.592 117.805 985.628 100.007 985.628 100.007C985.628 100.007 985.16 85.7776 979.584 85.9375Z" fill="#EE2724"/>
<path d="M979.584 85.9375C979.584 85.9375 968.297 83.1445 971.576 100.943C971.576 100.943 963.704 114.527 979.584 133.263C993.592 117.805 985.628 100.007 985.628 100.007C985.628 100.007 985.16 85.7776 979.584 85.9375Z" stroke="black" stroke-miterlimit="10"/>
<path d="M971.577 100.944H985.628C985.628 100.944 985.436 84.6504 979.584 85.9376C973.733 87.2265 969.704 85.9566 971.577 100.944Z" fill="black"/>
<path d="M971.577 100.944H985.628C985.628 100.944 985.436 84.6504 979.584 85.9376C973.733 87.2265 969.704 85.9566 971.577 100.944Z" stroke="black" stroke-miterlimit="10"/>
<path d="M1037 101.105C1037 101.105 1025.72 98.3112 1028.99 116.11C1028.99 116.11 1021.12 129.692 1037 148.429C1051.01 132.973 1043.05 115.173 1043.05 115.173C1043.05 115.173 1042.58 100.944 1037 101.105Z" fill="#EBE846"/>
<path d="M1037 101.105C1037 101.105 1025.72 98.3112 1028.99 116.11C1028.99 116.11 1021.12 129.692 1037 148.429C1051.01 132.973 1043.05 115.173 1043.05 115.173C1043.05 115.173 1042.58 100.944 1037 101.105Z" stroke="black" stroke-miterlimit="10"/>
<path d="M1028.99 116.11H1043.05C1043.05 116.11 1042.85 99.8154 1037 101.105C1031.15 102.391 1027.12 101.122 1028.99 116.11Z" fill="black"/>
<path d="M1028.99 116.11H1043.05C1043.05 116.11 1042.85 99.8154 1037 101.105C1031.15 102.391 1027.12 101.122 1028.99 116.11Z" stroke="black" stroke-miterlimit="10"/>
<path d="M1091.73 101.105C1091.73 101.105 1080.44 98.3112 1083.72 116.11C1083.72 116.11 1075.85 129.692 1091.73 148.429C1105.73 132.973 1097.77 115.173 1097.77 115.173C1097.77 115.173 1097.3 100.944 1091.73 101.105Z" fill="#1F3A6F"/>
<path d="M1091.73 101.105C1091.73 101.105 1080.44 98.3112 1083.72 116.11C1083.72 116.11 1075.85 129.692 1091.73 148.429C1105.73 132.973 1097.77 115.173 1097.77 115.173C1097.77 115.173 1097.3 100.944 1091.73 101.105Z" stroke="black" stroke-miterlimit="10"/>
<path d="M1083.72 116.11H1097.77C1097.77 116.11 1097.58 99.8154 1091.73 101.105C1085.88 102.391 1081.85 101.122 1083.72 116.11Z" fill="black"/>
<path d="M1083.72 116.11H1097.77C1097.77 116.11 1097.58 99.8154 1091.73 101.105C1085.88 102.391 1081.85 101.122 1083.72 116.11Z" stroke="black" stroke-miterlimit="10"/>
<path d="M1147.27 92.5281C1147.27 92.5281 1135.98 89.7351 1139.26 107.534C1139.26 107.534 1131.39 121.119 1147.27 139.852C1161.27 124.397 1153.31 106.597 1153.31 106.597C1153.31 106.597 1152.84 92.3673 1147.27 92.5281Z" fill="#85C550"/>
<path d="M1147.27 92.5281C1147.27 92.5281 1135.98 89.7351 1139.26 107.534C1139.26 107.534 1131.39 121.119 1147.27 139.852C1161.27 124.397 1153.31 106.597 1153.31 106.597C1153.31 106.597 1152.84 92.3673 1147.27 92.5281Z" stroke="black" stroke-miterlimit="10"/>
<path d="M1139.26 107.534H1153.31C1153.31 107.534 1153.12 91.24 1147.27 92.528C1141.41 93.8161 1137.39 92.5463 1139.26 107.534Z" fill="black"/>
<path d="M1139.26 107.534H1153.31C1153.31 107.534 1153.12 91.24 1147.27 92.528C1141.41 93.8161 1137.39 92.5463 1139.26 107.534Z" stroke="black" stroke-miterlimit="10"/>
<path d="M1204.44 85.9375C1204.44 85.9375 1193.15 83.1445 1196.43 100.943C1196.43 100.943 1188.56 114.527 1204.44 133.263C1218.44 117.805 1210.48 100.007 1210.48 100.007C1210.48 100.007 1210.01 85.7776 1204.44 85.9375Z" fill="#D44799"/>
<path d="M1204.44 85.9375C1204.44 85.9375 1193.15 83.1445 1196.43 100.943C1196.43 100.943 1188.56 114.527 1204.44 133.263C1218.44 117.805 1210.48 100.007 1210.48 100.007C1210.48 100.007 1210.01 85.7776 1204.44 85.9375Z" stroke="black" stroke-miterlimit="10"/>
<path d="M1196.43 100.944H1210.48C1210.48 100.944 1210.29 84.6504 1204.44 85.9376C1198.59 87.2265 1194.55 85.9566 1196.43 100.944Z" fill="black"/>
<path d="M1196.43 100.944H1210.48C1210.48 100.944 1210.29 84.6504 1204.44 85.9376C1198.59 87.2265 1194.55 85.9566 1196.43 100.944Z" stroke="black" stroke-miterlimit="10"/>
<path d="M1430.47 85.9375C1430.47 85.9375 1419.19 83.1445 1422.47 100.943C1422.47 100.943 1414.59 114.527 1430.47 133.263C1444.48 117.805 1436.52 100.007 1436.52 100.007C1436.52 100.007 1436.05 85.7776 1430.47 85.9375Z" fill="#85C550"/>
<path d="M1430.47 85.9375C1430.47 85.9375 1419.19 83.1445 1422.47 100.943C1422.47 100.943 1414.59 114.527 1430.47 133.263C1444.48 117.805 1436.52 100.007 1436.52 100.007C1436.52 100.007 1436.05 85.7776 1430.47 85.9375Z" stroke="black" stroke-miterlimit="10"/>
<path d="M1422.46 100.944H1436.52C1436.52 100.944 1436.32 84.6504 1430.47 85.9376C1424.62 87.2265 1420.59 85.9566 1422.46 100.944Z" fill="black"/>
<path d="M1422.46 100.944H1436.52C1436.52 100.944 1436.32 84.6504 1430.47 85.9376C1424.62 87.2265 1420.59 85.9566 1422.46 100.944Z" stroke="black" stroke-miterlimit="10"/>
<path d="M1486.05 101.105C1486.05 101.105 1474.77 98.3112 1478.05 116.11C1478.05 116.11 1470.17 129.692 1486.05 148.429C1500.06 132.973 1492.1 115.173 1492.1 115.173C1492.1 115.173 1491.63 100.944 1486.05 101.105Z" fill="#D44799"/>
<path d="M1486.05 101.105C1486.05 101.105 1474.77 98.3112 1478.05 116.11C1478.05 116.11 1470.17 129.692 1486.05 148.429C1500.06 132.973 1492.1 115.173 1492.1 115.173C1492.1 115.173 1491.63 100.944 1486.05 101.105Z" stroke="black" stroke-miterlimit="10"/>
<path d="M1478.05 116.11H1492.1C1492.1 116.11 1491.91 99.8154 1486.05 101.105C1480.21 102.391 1476.17 101.122 1478.05 116.11Z" fill="black"/>
<path d="M1478.05 116.11H1492.1C1492.1 116.11 1491.91 99.8154 1486.05 101.105C1480.21 102.391 1476.17 101.122 1478.05 116.11Z" stroke="black" stroke-miterlimit="10"/>
<path d="M1538.96 98.1594C1538.96 98.1594 1527.67 95.3663 1530.95 113.165C1530.95 113.165 1523.08 126.748 1538.96 145.484C1552.97 130.028 1545 112.227 1545 112.227C1545 112.227 1544.53 97.9994 1538.96 98.1594Z" fill="#EE2724"/>
<path d="M1380.96 88.1594C1380.96 88.1594 1369.67 85.3663 1372.95 103.165C1372.95 103.165 1365.08 116.748 1380.96 135.484C1394.97 120.028 1387 102.227 1387 102.227C1387 102.227 1386.53 87.9994 1380.96 88.1594Z" fill="#EE2724"/>
<path d="M1538.96 98.1594C1538.96 98.1594 1527.67 95.3663 1530.95 113.165C1530.95 113.165 1523.08 126.748 1538.96 145.484C1552.97 130.028 1545 112.227 1545 112.227C1545 112.227 1544.53 97.9994 1538.96 98.1594Z" stroke="black" stroke-miterlimit="10"/>
<path d="M1380.96 88.1594C1380.96 88.1594 1369.67 85.3663 1372.95 103.165C1372.95 103.165 1365.08 116.748 1380.96 135.484C1394.97 120.028 1387 102.227 1387 102.227C1387 102.227 1386.53 87.9994 1380.96 88.1594Z" stroke="black" stroke-miterlimit="10"/>
<path d="M1530.95 113.165H1545C1545 113.165 1544.81 96.8704 1538.96 98.1593C1533.11 99.4473 1529.08 98.1783 1530.95 113.165Z" fill="black"/>
<path d="M1372.95 103.165H1387C1387 103.165 1386.81 86.8704 1380.96 88.1593C1375.11 89.4473 1371.08 88.1783 1372.95 103.165Z" fill="black"/>
<path d="M1531.65 113.083H1545.7C1545.7 113.083 1545.51 96.7882 1539.66 98.0771C1533.81 99.3652 1529.77 98.0962 1531.65 113.083Z" stroke="black" stroke-miterlimit="10"/>
<path d="M284 77C284 77 399.654 135.957 508.317 77C588.881 106.359 620.984 117.337 732.207 80.8027C839.935 118.276 894.269 104.107 957.968 77" stroke="#D8D8D8" stroke-miterlimit="10"/>
<path d="M305.552 85.9375C305.552 85.9375 294.265 83.1445 297.544 100.943C297.544 100.943 289.672 114.527 305.552 133.263C319.559 117.805 311.595 100.007 311.595 100.007C311.595 100.007 311.128 85.7776 305.552 85.9375Z" fill="#EE2724"/>
<path d="M305.552 85.9375C305.552 85.9375 294.265 83.1445 297.544 100.943C297.544 100.943 289.672 114.527 305.552 133.263C319.559 117.805 311.595 100.007 311.595 100.007C311.595 100.007 311.128 85.7776 305.552 85.9375Z" stroke="black" stroke-miterlimit="10"/>
<path d="M297.545 100.944H311.595C311.595 100.944 311.404 84.6504 305.552 85.9376C299.701 87.2265 295.671 85.9566 297.545 100.944Z" fill="black"/>
<path d="M297.545 100.944H311.595C311.595 100.944 311.404 84.6504 305.552 85.9376C299.701 87.2265 295.671 85.9566 297.545 100.944Z" stroke="black" stroke-miterlimit="10"/>
<path d="M362.971 101.105C362.971 101.105 351.684 98.3112 354.963 116.11C354.963 116.11 347.091 129.692 362.971 148.429C376.978 132.973 369.016 115.173 369.016 115.173C369.016 115.173 368.546 100.944 362.971 101.105Z" fill="#EBE846"/>
<path d="M362.971 101.105C362.971 101.105 351.684 98.3112 354.963 116.11C354.963 116.11 347.091 129.692 362.971 148.429C376.978 132.973 369.016 115.173 369.016 115.173C369.016 115.173 368.546 100.944 362.971 101.105Z" stroke="black" stroke-miterlimit="10"/>
<path d="M354.962 116.11H369.015C369.015 116.11 368.822 99.8154 362.97 101.105C357.122 102.391 353.09 101.122 354.962 116.11Z" fill="black"/>
<path d="M354.962 116.11H369.015C369.015 116.11 368.822 99.8154 362.97 101.105C357.122 102.391 353.09 101.122 354.962 116.11Z" stroke="black" stroke-miterlimit="10"/>
<path d="M417.695 101.105C417.695 101.105 406.408 98.3112 409.687 116.11C409.687 116.11 401.816 129.692 417.695 148.429C431.701 132.973 423.738 115.173 423.738 115.173C423.738 115.173 423.27 100.944 417.695 101.105Z" fill="#1F3A6F"/>
<path d="M417.695 101.105C417.695 101.105 406.408 98.3112 409.687 116.11C409.687 116.11 401.816 129.692 417.695 148.429C431.701 132.973 423.738 115.173 423.738 115.173C423.738 115.173 423.27 100.944 417.695 101.105Z" stroke="black" stroke-miterlimit="10"/>
<path d="M409.688 116.11H423.738C423.738 116.11 423.546 99.8154 417.695 101.105C411.846 102.391 407.814 101.122 409.688 116.11Z" fill="black"/>
<path d="M409.688 116.11H423.738C423.738 116.11 423.546 99.8154 417.695 101.105C411.846 102.391 407.814 101.122 409.688 116.11Z" stroke="black" stroke-miterlimit="10"/>
<path d="M473.234 92.5281C473.234 92.5281 461.947 89.7351 465.225 107.534C465.225 107.534 457.354 121.119 473.234 139.852C487.242 124.397 479.277 106.597 479.277 106.597C479.277 106.597 478.809 92.3673 473.234 92.5281Z" fill="#85C550"/>
<path d="M473.234 92.5281C473.234 92.5281 461.947 89.7351 465.225 107.534C465.225 107.534 457.354 121.119 473.234 139.852C487.242 124.397 479.277 106.597 479.277 106.597C479.277 106.597 478.809 92.3673 473.234 92.5281Z" stroke="black" stroke-miterlimit="10"/>
<path d="M465.226 107.534H479.277C479.277 107.534 479.085 91.24 473.235 92.528C467.382 93.8161 463.354 92.5463 465.226 107.534Z" fill="black"/>
<path d="M465.226 107.534H479.277C479.277 107.534 479.085 91.24 473.235 92.528C467.382 93.8161 463.354 92.5463 465.226 107.534Z" stroke="black" stroke-miterlimit="10"/>
<path d="M530.404 85.9375C530.404 85.9375 519.117 83.1445 522.395 100.943C522.395 100.943 514.524 114.527 530.404 133.263C544.409 117.805 536.447 100.007 536.447 100.007C536.447 100.007 535.979 85.7776 530.404 85.9375Z" fill="#D44799"/>
<path d="M530.404 85.9375C530.404 85.9375 519.117 83.1445 522.395 100.943C522.395 100.943 514.524 114.527 530.404 133.263C544.409 117.805 536.447 100.007 536.447 100.007C536.447 100.007 535.979 85.7776 530.404 85.9375Z" stroke="black" stroke-miterlimit="10"/>
<path d="M522.395 100.944H536.447C536.447 100.944 536.253 84.6504 530.404 85.9376C524.553 87.2265 520.522 85.9566 522.395 100.944Z" fill="black"/>
<path d="M522.395 100.944H536.447C536.447 100.944 536.253 84.6504 530.404 85.9376C524.553 87.2265 520.522 85.9566 522.395 100.944Z" stroke="black" stroke-miterlimit="10"/>
<path d="M588.073 101.105C588.073 101.105 576.785 98.3112 580.063 116.11C580.063 116.11 572.194 129.692 588.073 148.429C602.078 132.973 594.115 115.173 594.115 115.173C594.115 115.173 593.647 100.944 588.073 101.105Z" fill="#EE2724"/>
<path d="M588.073 101.105C588.073 101.105 576.785 98.3112 580.063 116.11C580.063 116.11 572.194 129.692 588.073 148.429C602.078 132.973 594.115 115.173 594.115 115.173C594.115 115.173 593.647 100.944 588.073 101.105Z" stroke="black" stroke-miterlimit="10"/>
<path d="M580.063 116.11H594.115C594.115 116.11 593.921 99.8154 588.073 101.105C582.221 102.391 578.189 101.122 580.063 116.11Z" fill="black"/>
<path d="M580.063 116.11H594.115C594.115 116.11 593.921 99.8154 588.073 101.105C582.221 102.391 578.189 101.122 580.063 116.11Z" stroke="black" stroke-miterlimit="10"/>
<path d="M644.529 101.105C644.529 101.105 633.242 98.3112 636.522 116.11C636.522 116.11 628.648 129.692 644.529 148.429C658.536 132.973 650.571 115.173 650.571 115.173C650.571 115.173 650.104 100.944 644.529 101.105Z" fill="#EBE846"/>
<path d="M644.529 101.105C644.529 101.105 633.242 98.3112 636.522 116.11C636.522 116.11 628.648 129.692 644.529 148.429C658.536 132.973 650.571 115.173 650.571 115.173C650.571 115.173 650.104 100.944 644.529 101.105Z" stroke="black" stroke-miterlimit="10"/>
<path d="M636.522 116.11H650.571C650.571 116.11 650.38 99.8154 644.529 101.105C638.68 102.391 634.648 101.122 636.522 116.11Z" fill="black"/>
<path d="M636.522 116.11H650.571C650.571 116.11 650.38 99.8154 644.529 101.105C638.68 102.391 634.648 101.122 636.522 116.11Z" stroke="black" stroke-miterlimit="10"/>
<path d="M698.015 92.5281C698.015 92.5281 686.728 89.7351 690.006 107.534C690.006 107.534 682.136 121.119 698.015 139.852C712.02 124.397 704.057 106.597 704.057 106.597C704.057 106.597 703.59 92.3673 698.015 92.5281Z" fill="#1F3A6F"/>
<path d="M698.015 92.5281C698.015 92.5281 686.728 89.7351 690.006 107.534C690.006 107.534 682.136 121.119 698.015 139.852C712.02 124.397 704.057 106.597 704.057 106.597C704.057 106.597 703.59 92.3673 698.015 92.5281Z" stroke="black" stroke-miterlimit="10"/>
<path d="M690.006 107.534H704.058C704.058 107.534 703.863 91.24 698.015 92.528C692.163 93.8161 688.131 92.5463 690.006 107.534Z" fill="black"/>
<path d="M690.006 107.534H704.058C704.058 107.534 703.863 91.24 698.015 92.528C692.163 93.8161 688.131 92.5463 690.006 107.534Z" stroke="black" stroke-miterlimit="10"/>
<path d="M756.441 85.9375C756.441 85.9375 745.154 83.1445 748.433 100.943C748.433 100.943 740.559 114.527 756.441 133.263C770.447 117.805 762.485 100.007 762.485 100.007C762.485 100.007 762.015 85.7776 756.441 85.9375Z" fill="#85C550"/>
<path d="M756.441 85.9375C756.441 85.9375 745.154 83.1445 748.433 100.943C748.433 100.943 740.559 114.527 756.441 133.263C770.447 117.805 762.485 100.007 762.485 100.007C762.485 100.007 762.015 85.7776 756.441 85.9375Z" stroke="black" stroke-miterlimit="10"/>
<path d="M748.433 100.944H762.484C762.484 100.944 762.29 84.6504 756.44 85.9376C750.59 87.2265 746.559 85.9566 748.433 100.944Z" fill="black"/>
<path d="M748.433 100.944H762.484C762.484 100.944 762.29 84.6504 756.44 85.9376C750.59 87.2265 746.559 85.9566 748.433 100.944Z" stroke="black" stroke-miterlimit="10"/>
<path d="M812.021 101.105C812.021 101.105 800.734 98.3112 804.014 116.11C804.014 116.11 796.139 129.692 812.021 148.429C826.028 132.973 818.063 115.173 818.063 115.173C818.063 115.173 817.597 100.944 812.021 101.105Z" fill="#D44799"/>
<path d="M812.021 101.105C812.021 101.105 800.734 98.3112 804.014 116.11C804.014 116.11 796.139 129.692 812.021 148.429C826.028 132.973 818.063 115.173 818.063 115.173C818.063 115.173 817.597 100.944 812.021 101.105Z" stroke="black" stroke-miterlimit="10"/>
<path d="M804.015 116.11H818.064C818.064 116.11 817.873 99.8154 812.022 101.105C806.173 102.391 802.14 101.122 804.015 116.11Z" fill="black"/>
<path d="M804.015 116.11H818.064C818.064 116.11 817.873 99.8154 812.022 101.105C806.173 102.391 802.14 101.122 804.015 116.11Z" stroke="black" stroke-miterlimit="10"/>
<path d="M865.623 104.077C865.623 104.077 854.338 101.284 857.616 119.083C857.616 119.083 849.742 132.665 865.623 151.401C879.63 135.946 871.667 118.145 871.667 118.145C871.667 118.145 871.199 103.917 865.623 104.077Z" fill="#EE2724"/>
<path d="M865.623 104.077C865.623 104.077 854.338 101.284 857.616 119.083C857.616 119.083 849.742 132.665 865.623 151.401C879.63 135.946 871.667 118.145 871.667 118.145C871.667 118.145 871.199 103.917 865.623 104.077Z" stroke="black" stroke-miterlimit="10"/>
<path d="M857.616 119.083H871.668C871.668 119.083 871.475 102.788 865.624 104.077C859.773 105.365 855.742 104.096 857.616 119.083Z" fill="black"/>
<path d="M857.616 119.083H871.668C871.668 119.083 871.475 102.788 865.624 104.077C859.773 105.365 855.742 104.096 857.616 119.083Z" stroke="black" stroke-miterlimit="10"/>
<path d="M924.712 92.5281C924.712 92.5281 913.427 89.7351 916.705 107.534C916.705 107.534 908.834 121.119 924.712 139.852C938.719 124.397 930.756 106.597 930.756 106.597C930.756 106.597 930.287 92.3673 924.712 92.5281Z" fill="#EBE846"/>
<path d="M924.712 92.5281C924.712 92.5281 913.427 89.7351 916.705 107.534C916.705 107.534 908.834 121.119 924.712 139.852C938.719 124.397 930.756 106.597 930.756 106.597C930.756 106.597 930.287 92.3673 924.712 92.5281Z" stroke="black" stroke-miterlimit="10"/>
<path d="M916.704 107.534H930.756C930.756 107.534 930.563 91.24 924.712 92.528C918.862 93.8161 914.83 92.5463 916.704 107.534Z" fill="black"/>
<path d="M916.704 107.534H930.756C930.756 107.534 930.563 91.24 924.712 92.528C918.862 93.8161 914.83 92.5463 916.704 107.534Z" stroke="black" stroke-miterlimit="10"/>
<g filter="url(#filter0_f_205_10735)">
<ellipse cx="1380.36" cy="118.903" rx="15" ry="22" transform="rotate(3.61911 1380.36 118.903)" fill="#EE2724"/>
</g>
<g filter="url(#filter1_f_205_10735)">
<ellipse cx="1538.74" cy="129.406" rx="15" ry="22" transform="rotate(-0.0161045 1538.74 129.406)" fill="#EE2724"/>
</g>
<path d="M2270.14 286.468C2201.19 292.651 2145.14 289.405 2054.18 220.59C1937.11 221.112 1909.94 200.785 1842.33 148.052C1763.68 162.705 1697.45 129.48 1660.5 104.204" stroke="#D8D8D8" stroke-miterlimit="10"/>
<path d="M1696.62 126.244C1696.62 126.244 1686.74 120.111 1684.38 138.055C1684.38 138.055 1672.71 148.555 1682.05 171.27C1700.14 160.877 1698.04 141.49 1698.04 141.49C1698.04 141.49 1701.97 127.807 1696.62 126.244Z" fill="#EBE846"/>
<path d="M1696.62 126.244C1696.62 126.244 1686.74 120.111 1684.38 138.055C1684.38 138.055 1672.71 148.555 1682.05 171.27C1700.14 160.877 1698.04 141.49 1698.04 141.49C1698.04 141.49 1701.97 127.807 1696.62 126.244Z" stroke="black" stroke-miterlimit="10"/>
<path d="M1684.38 138.055L1697.75 142.382C1697.75 142.382 1702.58 126.818 1696.62 126.244C1690.66 125.668 1687.21 123.219 1684.38 138.055Z" fill="black"/>
<path d="M1684.38 138.055L1697.75 142.382C1697.75 142.382 1702.58 126.818 1696.62 126.244C1690.66 125.668 1687.21 123.219 1684.38 138.055Z" stroke="black" stroke-miterlimit="10"/>
<path d="M1748.69 143.09C1748.69 143.09 1738.81 136.957 1736.45 154.901C1736.45 154.901 1724.78 165.401 1734.12 188.116C1752.2 177.722 1750.1 158.335 1750.1 158.335C1750.1 158.335 1754.04 144.653 1748.69 143.09Z" fill="#1F3A6F"/>
<path d="M1748.69 143.09C1748.69 143.09 1738.81 136.957 1736.45 154.901C1736.45 154.901 1724.78 165.401 1734.12 188.116C1752.2 177.722 1750.1 158.335 1750.1 158.335C1750.1 158.335 1754.04 144.653 1748.69 143.09Z" stroke="black" stroke-miterlimit="10"/>
<path d="M1736.45 154.902L1749.82 159.227C1749.82 159.227 1754.65 143.664 1748.69 143.09C1742.72 142.513 1739.28 140.065 1736.45 154.902Z" fill="black"/>
<path d="M1736.45 154.902L1749.82 159.227C1749.82 159.227 1754.65 143.664 1748.69 143.09C1742.72 142.513 1739.28 140.065 1736.45 154.902Z" stroke="black" stroke-miterlimit="10"/>
<path d="M1804.17 152.026C1804.17 152.026 1794.29 145.894 1791.93 163.838C1791.93 163.838 1780.26 174.34 1789.6 197.052C1807.69 186.659 1805.59 167.272 1805.59 167.272C1805.59 167.272 1809.52 153.589 1804.17 152.026Z" fill="#85C550"/>
<path d="M1804.17 152.026C1804.17 152.026 1794.29 145.894 1791.93 163.838C1791.93 163.838 1780.26 174.34 1789.6 197.052C1807.69 186.659 1805.59 167.272 1805.59 167.272C1805.59 167.272 1809.52 153.589 1804.17 152.026Z" stroke="black" stroke-miterlimit="10"/>
<path d="M1791.93 163.838L1805.3 168.164C1805.3 168.164 1810.13 152.602 1804.17 152.026C1798.2 151.45 1794.76 149.002 1791.93 163.838Z" fill="black"/>
<path d="M1791.93 163.838L1805.3 168.164C1805.3 168.164 1810.13 152.602 1804.17 152.026C1798.2 151.45 1794.76 149.002 1791.93 163.838Z" stroke="black" stroke-miterlimit="10"/>
<path d="M1860.59 163.354C1860.59 163.354 1850.71 157.222 1848.35 175.166C1848.35 175.166 1836.68 185.667 1846.02 208.382C1864.11 197.986 1862.01 178.601 1862.01 178.601C1862.01 178.601 1865.94 164.918 1860.59 163.354Z" fill="#D44799"/>
<path d="M1860.59 163.354C1860.59 163.354 1850.71 157.222 1848.35 175.166C1848.35 175.166 1836.68 185.667 1846.02 208.382C1864.11 197.986 1862.01 178.601 1862.01 178.601C1862.01 178.601 1865.94 164.918 1860.59 163.354Z" stroke="black" stroke-miterlimit="10"/>
<path d="M1848.35 175.167L1861.72 179.492C1861.72 179.492 1866.55 163.93 1860.59 163.354C1854.63 162.779 1851.18 160.33 1848.35 175.167Z" fill="black"/>
<path d="M1848.35 175.167L1861.72 179.492C1861.72 179.492 1866.55 163.93 1860.59 163.354C1854.63 162.779 1851.18 160.33 1848.35 175.167Z" stroke="black" stroke-miterlimit="10"/>
<path d="M1910.79 195.538C1910.79 195.538 1900.91 189.405 1898.55 207.349C1898.55 207.349 1886.88 217.849 1896.22 240.564C1914.3 230.169 1912.21 210.783 1912.21 210.783C1912.21 210.783 1916.14 197.101 1910.79 195.538Z" fill="#EE2724"/>
<path d="M1910.79 195.538C1910.79 195.538 1900.91 189.405 1898.55 207.349C1898.55 207.349 1886.88 217.849 1896.22 240.564C1914.3 230.169 1912.21 210.783 1912.21 210.783C1912.21 210.783 1916.14 197.101 1910.79 195.538Z" stroke="black" stroke-miterlimit="10"/>
<path d="M1898.55 207.349L1911.92 211.674C1911.92 211.674 1916.75 196.111 1910.79 195.538C1904.83 194.96 1901.38 192.512 1898.55 207.349Z" fill="black"/>
<path d="M1898.55 207.349L1911.92 211.674C1911.92 211.674 1916.75 196.111 1910.79 195.538C1904.83 194.96 1901.38 192.512 1898.55 207.349Z" stroke="black" stroke-miterlimit="10"/>
<path d="M-352.954 300.89C-352.954 300.89 -224.229 317.674 -141.611 225.707C-55.8672 226.366 -21.9418 225.949 70.6033 154.25C184.659 153.449 231.102 121.889 282.032 75" stroke="#D8D8D8" stroke-miterlimit="10"/>
<path d="M-5.19866 202.765C-5.19866 202.765 -16.7694 203.915 -7.71295 219.585C-7.71295 219.585 -10.5794 235.021 10.6627 247.351C18.6796 228.094 5.2094 213.994 5.2094 213.994C5.2094 213.994 -0.000178831 200.745 -5.19866 202.765Z" fill="#EBE846"/>
<path d="M-5.19866 202.765C-5.19866 202.765 -16.7694 203.915 -7.71295 219.585C-7.71295 219.585 -10.5794 235.021 10.6627 247.351C18.6796 228.094 5.2094 213.994 5.2094 213.994C5.2094 213.994 -0.000178831 200.745 -5.19866 202.765Z" stroke="black" stroke-miterlimit="10"/>
<path d="M-7.71354 219.585L5.52288 214.876C5.52288 214.876 -0.118531 199.588 -5.19925 202.765C-10.2787 205.937 -14.5026 206.092 -7.71354 219.585Z" fill="black"/>
<path d="M-7.71354 219.585L5.52288 214.876C5.52288 214.876 -0.118531 199.588 -5.19925 202.765C-10.2787 205.937 -14.5026 206.092 -7.71354 219.585Z" stroke="black" stroke-miterlimit="10"/>
<path d="M42.3185 176.757C42.3185 176.757 30.7482 177.909 39.8021 193.579C39.8021 193.579 36.9405 209.016 58.1799 221.344C66.1947 202.088 52.7269 187.987 52.7269 187.987C52.7269 187.987 47.517 174.737 42.3185 176.757Z" fill="#1F3A6F"/>
<path d="M42.3185 176.757C42.3185 176.757 30.7482 177.909 39.8021 193.579C39.8021 193.579 36.9405 209.016 58.1799 221.344C66.1947 202.088 52.7269 187.987 52.7269 187.987C52.7269 187.987 47.517 174.737 42.3185 176.757Z" stroke="black" stroke-miterlimit="10"/>
<path d="M39.8027 193.579L53.0415 188.87C53.0415 188.87 47.3971 173.583 42.3191 176.757C37.237 179.932 33.0128 180.087 39.8027 193.579Z" fill="black"/>
<path d="M39.8027 193.579L53.0415 188.87C53.0415 188.87 47.3971 173.583 42.3191 176.757C37.237 179.932 33.0128 180.087 39.8027 193.579Z" stroke="black" stroke-miterlimit="10"/>
<path d="M95.1555 150.965C95.1555 150.965 83.5852 152.117 92.6407 167.787C92.6407 167.787 89.7748 183.225 111.017 195.554C119.032 176.296 105.566 162.196 105.566 162.196C105.566 162.196 100.353 148.947 95.1555 150.965Z" fill="#85C550"/>
<path d="M95.1555 150.965C95.1555 150.965 83.5852 152.117 92.6407 167.787C92.6407 167.787 89.7748 183.225 111.017 195.554C119.032 176.296 105.566 162.196 105.566 162.196C105.566 162.196 100.353 148.947 95.1555 150.965Z" stroke="black" stroke-miterlimit="10"/>
<path d="M92.6415 167.788L105.88 163.079C105.88 163.079 100.236 147.792 95.1559 150.966C90.0766 154.14 85.8524 154.295 92.6415 167.788Z" fill="black"/>
<path d="M92.6415 167.788L105.88 163.079C105.88 163.079 100.236 147.792 95.1559 150.966C90.0766 154.14 85.8524 154.295 92.6415 167.788Z" stroke="black" stroke-miterlimit="10"/>
<path d="M152.605 146.627C152.605 146.627 141.034 147.778 150.09 163.448C150.09 163.448 147.223 178.884 168.466 191.214C176.483 171.957 163.013 157.856 163.013 157.856C163.013 157.856 157.804 144.607 152.605 146.627Z" fill="#D44799"/>
<path d="M152.605 146.627C152.605 146.627 141.034 147.778 150.09 163.448C150.09 163.448 147.223 178.884 168.466 191.214C176.483 171.957 163.013 157.856 163.013 157.856C163.013 157.856 157.804 144.607 152.605 146.627Z" stroke="black" stroke-miterlimit="10"/>
<path d="M150.091 163.448L163.328 158.739C163.328 158.739 157.687 143.451 152.606 146.627C147.527 149.799 143.302 149.955 150.091 163.448Z" fill="black"/>
<path d="M150.091 163.448L163.328 158.739C163.328 158.739 157.687 143.451 152.606 146.627C147.527 149.799 143.302 149.955 150.091 163.448Z" stroke="black" stroke-miterlimit="10"/>
<path d="M204.102 131.462C204.102 131.462 192.534 132.613 201.588 148.284C201.588 148.284 198.722 163.719 219.964 176.049C227.98 156.793 214.512 142.69 214.512 142.69C214.512 142.69 209.302 129.442 204.102 131.462Z" fill="#EE2724"/>
<path d="M204.102 131.462C204.102 131.462 192.534 132.613 201.588 148.284C201.588 148.284 198.722 163.719 219.964 176.049C227.98 156.793 214.512 142.69 214.512 142.69C214.512 142.69 209.302 129.442 204.102 131.462Z" stroke="black" stroke-miterlimit="10"/>
<path d="M201.589 148.283L214.827 143.574C214.827 143.574 209.184 128.286 204.103 131.462C199.023 134.636 194.8 134.791 201.589 148.283Z" fill="black"/>
<path d="M201.589 148.283L214.827 143.574C214.827 143.574 209.184 128.286 204.103 131.462C199.023 134.636 194.8 134.791 201.589 148.283Z" stroke="black" stroke-miterlimit="10"/>
<path d="M255.903 100.776C255.903 100.776 244.335 101.927 253.389 117.598C253.389 117.598 250.526 133.035 271.765 145.363C279.781 126.107 266.313 112.006 266.313 112.006C266.313 112.006 261.102 98.7562 255.903 100.776Z" fill="#EBE846"/>
<path d="M255.903 100.776C255.903 100.776 244.335 101.927 253.389 117.598C253.389 117.598 250.526 133.035 271.765 145.363C279.781 126.107 266.313 112.006 266.313 112.006C266.313 112.006 261.102 98.7562 255.903 100.776Z" stroke="black" stroke-miterlimit="10"/>
<path d="M253.388 117.598L266.627 112.888C266.627 112.888 260.984 97.6015 255.903 100.776C250.823 103.95 246.599 104.105 253.388 117.598Z" fill="black"/>
<path d="M253.388 117.598L266.627 112.888C266.627 112.888 260.984 97.6015 255.903 100.776C250.823 103.95 246.599 104.105 253.388 117.598Z" stroke="black" stroke-miterlimit="10"/>
<g filter="url(#filter2_f_205_10735)">
<ellipse cx="305.095" cy="117" rx="15" ry="22" fill="#EE2724"/>
</g>
<g filter="url(#filter3_f_205_10735)">
<ellipse cx="362.095" cy="132" rx="15" ry="22" fill="#EBE846"/>
</g>
<g filter="url(#filter4_f_205_10735)">
<ellipse cx="644.095" cy="131" rx="15" ry="22" fill="#EBE846"/>
</g>
<g filter="url(#filter5_f_205_10735)">
<ellipse cx="924.095" cy="122" rx="15" ry="22" fill="#EBE846"/>
</g>
<g filter="url(#filter6_f_205_10735)">
<ellipse cx="1036.09" cy="133" rx="15" ry="22" fill="#EBE846"/>
</g>
<g filter="url(#filter7_f_205_10735)">
<ellipse cx="1685.44" cy="156.216" rx="15" ry="22" transform="rotate(15.5532 1685.44 156.216)" fill="#EBE846"/>
</g>
<g filter="url(#filter8_f_205_10735)">
<ellipse cx="417.095" cy="133" rx="15" ry="22" fill="#1F3A6F"/>
</g>
<g filter="url(#filter9_f_205_10735)">
<ellipse cx="697.095" cy="124" rx="15" ry="22" fill="#1F3A6F"/>
</g>
<g filter="url(#filter10_f_205_10735)">
<ellipse cx="1738.7" cy="172.343" rx="15" ry="22" transform="rotate(16.4219 1738.7 172.343)" fill="#1F3A6F"/>
</g>
<g filter="url(#filter11_f_205_10735)">
<ellipse cx="1091.09" cy="133" rx="15" ry="22" fill="#1F3A6F"/>
</g>
<g filter="url(#filter12_f_205_10735)">
<ellipse cx="472.095" cy="123" rx="15" ry="22" fill="#85C550"/>
</g>
<g filter="url(#filter13_f_205_10735)">
<ellipse cx="754.095" cy="117" rx="15" ry="22" fill="#85C550"/>
</g>
<g filter="url(#filter14_f_205_10735)">
<ellipse cx="1146.09" cy="123" rx="15" ry="22" fill="#85C550"/>
</g>
<g filter="url(#filter15_f_205_10735)">
<ellipse cx="1430.09" cy="117" rx="15" ry="22" fill="#85C550"/>
</g>
<g filter="url(#filter16_f_205_10735)">
<ellipse cx="1794.25" cy="182.118" rx="15" ry="22" transform="rotate(14.9027 1794.25 182.118)" fill="#85C550"/>
</g>
<g filter="url(#filter17_f_205_10735)">
<ellipse cx="530.095" cy="117" rx="15" ry="22" fill="#D44799"/>
</g>
<g filter="url(#filter18_f_205_10735)">
<ellipse cx="811.095" cy="132" rx="15" ry="22" fill="#D44799"/>
</g>
<g filter="url(#filter19_f_205_10735)">
<ellipse cx="1204.09" cy="117" rx="15" ry="22" fill="#D44799"/>
</g>
<g filter="url(#filter20_f_205_10735)">
<ellipse cx="1485.09" cy="130" rx="15" ry="22" fill="#D44799"/>
</g>
<g filter="url(#filter21_f_205_10735)">
<ellipse cx="1849.92" cy="193.447" rx="15" ry="22" transform="rotate(17.1647 1849.92 193.447)" fill="#D44799"/>
</g>
<g filter="url(#filter22_f_205_10735)">
<ellipse cx="587.095" cy="132" rx="15" ry="22" fill="#EE2724"/>
</g>
<g filter="url(#filter23_f_205_10735)">
<ellipse cx="864.095" cy="135" rx="15" ry="22" fill="#EE2724"/>
</g>
<g filter="url(#filter24_f_205_10735)">
<ellipse cx="1900.83" cy="224.406" rx="15" ry="22" transform="rotate(16.8709 1900.83 224.406)" fill="#EE2724"/>
</g>
<g filter="url(#filter25_f_205_10735)">
<ellipse cx="979.095" cy="117" rx="15" ry="22" fill="#EE2724"/>
</g>
<g filter="url(#filter26_f_205_10735)">
<ellipse rx="15" ry="22" transform="matrix(-0.956961 0.290217 0.290217 0.956961 213.834 162.406)" fill="#EE2724"/>
</g>
<g filter="url(#filter27_f_205_10735)">
<ellipse rx="15" ry="22" transform="matrix(-0.95546 0.29512 0.29512 0.95546 162.919 176.447)" fill="#D44799"/>
</g>
<g filter="url(#filter28_f_205_10735)">
<ellipse rx="15" ry="22" transform="matrix(-0.91939 0.393347 0.393347 0.91939 4.44481 232.217)" fill="#EBE846"/>
</g>
<g filter="url(#filter29_f_205_10735)">
<ellipse rx="15" ry="22" transform="matrix(-0.91939 0.393347 0.393347 0.91939 266.539 131.127)" fill="#EBE846"/>
</g>
<g filter="url(#filter30_f_205_10735)">
<ellipse rx="15" ry="22" transform="matrix(-0.909715 0.415234 0.415234 0.909715 105.247 180.118)" fill="#85C550"/>
</g>
<g filter="url(#filter31_f_205_10735)">
<ellipse rx="15" ry="22" transform="matrix(-0.907729 0.419556 0.419556 0.907729 52.9405 207.263)" fill="#1F3A6F"/>
</g>
</g>
<defs>
<filter id="filter0_f_205_10735" x="1355.32" y="86.9261" width="50.0713" height="63.9538" filterUnits="userSpaceOnUse" color-interpolation-filters="sRGB">
<feFlood flood-opacity="0" result="BackgroundImageFix"/>
<feBlend mode="normal" in="SourceGraphic" in2="BackgroundImageFix" result="shape"/>
<feGaussianBlur stdDeviation="5" result="effect1_foregroundBlur_205_10735"/>
</filter>
<filter id="filter1_f_205_10735" x="1513.74" y="97.4064" width="50" height="64" filterUnits="userSpaceOnUse" color-interpolation-filters="sRGB">
<feFlood flood-opacity="0" result="BackgroundImageFix"/>
<feBlend mode="normal" in="SourceGraphic" in2="BackgroundImageFix" result="shape"/>
<feGaussianBlur stdDeviation="5" result="effect1_foregroundBlur_205_10735"/>
</filter>
<filter id="filter2_f_205_10735" x="280.095" y="85" width="50" height="64" filterUnits="userSpaceOnUse" color-interpolation-filters="sRGB">
<feFlood flood-opacity="0" result="BackgroundImageFix"/>
<feBlend mode="normal" in="SourceGraphic" in2="BackgroundImageFix" result="shape"/>
<feGaussianBlur stdDeviation="5" result="effect1_foregroundBlur_205_10735"/>
</filter>
<filter id="filter3_f_205_10735" x="337.095" y="100" width="50" height="64" filterUnits="userSpaceOnUse" color-interpolation-filters="sRGB">
<feFlood flood-opacity="0" result="BackgroundImageFix"/>
<feBlend mode="normal" in="SourceGraphic" in2="BackgroundImageFix" result="shape"/>
<feGaussianBlur stdDeviation="5" result="effect1_foregroundBlur_205_10735"/>
</filter>
<filter id="filter4_f_205_10735" x="619.095" y="99" width="50" height="64" filterUnits="userSpaceOnUse" color-interpolation-filters="sRGB">
<feFlood flood-opacity="0" result="BackgroundImageFix"/>
<feBlend mode="normal" in="SourceGraphic" in2="BackgroundImageFix" result="shape"/>
<feGaussianBlur stdDeviation="5" result="effect1_foregroundBlur_205_10735"/>
</filter>
<filter id="filter5_f_205_10735" x="899.095" y="90" width="50" height="64" filterUnits="userSpaceOnUse" color-interpolation-filters="sRGB">
<feFlood flood-opacity="0" result="BackgroundImageFix"/>
<feBlend mode="normal" in="SourceGraphic" in2="BackgroundImageFix" result="shape"/>
<feGaussianBlur stdDeviation="5" result="effect1_foregroundBlur_205_10735"/>
</filter>
<filter id="filter6_f_205_10735" x="1011.09" y="101" width="50" height="64" filterUnits="userSpaceOnUse" color-interpolation-filters="sRGB">
<feFlood flood-opacity="0" result="BackgroundImageFix"/>
<feBlend mode="normal" in="SourceGraphic" in2="BackgroundImageFix" result="shape"/>
<feGaussianBlur stdDeviation="5" result="effect1_foregroundBlur_205_10735"/>
</filter>
<filter id="filter7_f_205_10735" x="1659.83" y="124.64" width="51.2246" height="63.1531" filterUnits="userSpaceOnUse" color-interpolation-filters="sRGB">
<feFlood flood-opacity="0" result="BackgroundImageFix"/>
<feBlend mode="normal" in="SourceGraphic" in2="BackgroundImageFix" result="shape"/>
<feGaussianBlur stdDeviation="5" result="effect1_foregroundBlur_205_10735"/>
</filter>
<filter id="filter8_f_205_10735" x="392.095" y="101" width="50" height="64" filterUnits="userSpaceOnUse" color-interpolation-filters="sRGB">
<feFlood flood-opacity="0" result="BackgroundImageFix"/>
<feBlend mode="normal" in="SourceGraphic" in2="BackgroundImageFix" result="shape"/>
<feGaussianBlur stdDeviation="5" result="effect1_foregroundBlur_205_10735"/>
</filter>
<filter id="filter9_f_205_10735" x="672.095" y="92" width="50" height="64" filterUnits="userSpaceOnUse" color-interpolation-filters="sRGB">
<feFlood flood-opacity="0" result="BackgroundImageFix"/>
<feBlend mode="normal" in="SourceGraphic" in2="BackgroundImageFix" result="shape"/>
<feGaussianBlur stdDeviation="5" result="effect1_foregroundBlur_205_10735"/>
</filter>
<filter id="filter10_f_205_10735" x="1713.02" y="140.815" width="51.3584" height="63.0571" filterUnits="userSpaceOnUse" color-interpolation-filters="sRGB">
<feFlood flood-opacity="0" result="BackgroundImageFix"/>
<feBlend mode="normal" in="SourceGraphic" in2="BackgroundImageFix" result="shape"/>
<feGaussianBlur stdDeviation="5" result="effect1_foregroundBlur_205_10735"/>
</filter>
<filter id="filter11_f_205_10735" x="1066.09" y="101" width="50" height="64" filterUnits="userSpaceOnUse" color-interpolation-filters="sRGB">
<feFlood flood-opacity="0" result="BackgroundImageFix"/>
<feBlend mode="normal" in="SourceGraphic" in2="BackgroundImageFix" result="shape"/>
<feGaussianBlur stdDeviation="5" result="effect1_foregroundBlur_205_10735"/>
</filter>
<filter id="filter12_f_205_10735" x="447.095" y="91" width="50" height="64" filterUnits="userSpaceOnUse" color-interpolation-filters="sRGB">
<feFlood flood-opacity="0" result="BackgroundImageFix"/>
<feBlend mode="normal" in="SourceGraphic" in2="BackgroundImageFix" result="shape"/>
<feGaussianBlur stdDeviation="5" result="effect1_foregroundBlur_205_10735"/>
</filter>
<filter id="filter13_f_205_10735" x="729.095" y="85" width="50" height="64" filterUnits="userSpaceOnUse" color-interpolation-filters="sRGB">
<feFlood flood-opacity="0" result="BackgroundImageFix"/>
<feBlend mode="normal" in="SourceGraphic" in2="BackgroundImageFix" result="shape"/>
<feGaussianBlur stdDeviation="5" result="effect1_foregroundBlur_205_10735"/>
</filter>
<filter id="filter14_f_205_10735" x="1121.09" y="91" width="50" height="64" filterUnits="userSpaceOnUse" color-interpolation-filters="sRGB">
<feFlood flood-opacity="0" result="BackgroundImageFix"/>
<feBlend mode="normal" in="SourceGraphic" in2="BackgroundImageFix" result="shape"/>
<feGaussianBlur stdDeviation="5" result="effect1_foregroundBlur_205_10735"/>
</filter>
<filter id="filter15_f_205_10735" x="1405.09" y="85" width="50" height="64" filterUnits="userSpaceOnUse" color-interpolation-filters="sRGB">
<feFlood flood-opacity="0" result="BackgroundImageFix"/>
<feBlend mode="normal" in="SourceGraphic" in2="BackgroundImageFix" result="shape"/>
<feGaussianBlur stdDeviation="5" result="effect1_foregroundBlur_205_10735"/>
</filter>
<filter id="filter16_f_205_10735" x="1768.68" y="150.507" width="51.1299" height="63.2218" filterUnits="userSpaceOnUse" color-interpolation-filters="sRGB">
<feFlood flood-opacity="0" result="BackgroundImageFix"/>
<feBlend mode="normal" in="SourceGraphic" in2="BackgroundImageFix" result="shape"/>
<feGaussianBlur stdDeviation="5" result="effect1_foregroundBlur_205_10735"/>
</filter>
<filter id="filter17_f_205_10735" x="505.095" y="85" width="50" height="64" filterUnits="userSpaceOnUse" color-interpolation-filters="sRGB">
<feFlood flood-opacity="0" result="BackgroundImageFix"/>
<feBlend mode="normal" in="SourceGraphic" in2="BackgroundImageFix" result="shape"/>
<feGaussianBlur stdDeviation="5" result="effect1_foregroundBlur_205_10735"/>
</filter>
<filter id="filter18_f_205_10735" x="786.095" y="100" width="50" height="64" filterUnits="userSpaceOnUse" color-interpolation-filters="sRGB">
<feFlood flood-opacity="0" result="BackgroundImageFix"/>
<feBlend mode="normal" in="SourceGraphic" in2="BackgroundImageFix" result="shape"/>
<feGaussianBlur stdDeviation="5" result="effect1_foregroundBlur_205_10735"/>
</filter>
<filter id="filter19_f_205_10735" x="1179.09" y="85" width="50" height="64" filterUnits="userSpaceOnUse" color-interpolation-filters="sRGB">
<feFlood flood-opacity="0" result="BackgroundImageFix"/>
<feBlend mode="normal" in="SourceGraphic" in2="BackgroundImageFix" result="shape"/>
<feGaussianBlur stdDeviation="5" result="effect1_foregroundBlur_205_10735"/>
</filter>
<filter id="filter20_f_205_10735" x="1460.09" y="98" width="50" height="64" filterUnits="userSpaceOnUse" color-interpolation-filters="sRGB">
<feFlood flood-opacity="0" result="BackgroundImageFix"/>
<feBlend mode="normal" in="SourceGraphic" in2="BackgroundImageFix" result="shape"/>
<feGaussianBlur stdDeviation="5" result="effect1_foregroundBlur_205_10735"/>
</filter>
<filter id="filter21_f_205_10735" x="1824.18" y="161.961" width="51.4756" height="62.9712" filterUnits="userSpaceOnUse" color-interpolation-filters="sRGB">
<feFlood flood-opacity="0" result="BackgroundImageFix"/>
<feBlend mode="normal" in="SourceGraphic" in2="BackgroundImageFix" result="shape"/>
<feGaussianBlur stdDeviation="5" result="effect1_foregroundBlur_205_10735"/>
</filter>
<filter id="filter22_f_205_10735" x="562.095" y="100" width="50" height="64" filterUnits="userSpaceOnUse" color-interpolation-filters="sRGB">
<feFlood flood-opacity="0" result="BackgroundImageFix"/>
<feBlend mode="normal" in="SourceGraphic" in2="BackgroundImageFix" result="shape"/>
<feGaussianBlur stdDeviation="5" result="effect1_foregroundBlur_205_10735"/>
</filter>
<filter id="filter23_f_205_10735" x="839.095" y="103" width="50" height="64" filterUnits="userSpaceOnUse" color-interpolation-filters="sRGB">
<feFlood flood-opacity="0" result="BackgroundImageFix"/>
<feBlend mode="normal" in="SourceGraphic" in2="BackgroundImageFix" result="shape"/>
<feGaussianBlur stdDeviation="5" result="effect1_foregroundBlur_205_10735"/>
</filter>
<filter id="filter24_f_205_10735" x="1875.12" y="192.904" width="51.4277" height="63.0056" filterUnits="userSpaceOnUse" color-interpolation-filters="sRGB">
<feFlood flood-opacity="0" result="BackgroundImageFix"/>
<feBlend mode="normal" in="SourceGraphic" in2="BackgroundImageFix" result="shape"/>
<feGaussianBlur stdDeviation="5" result="effect1_foregroundBlur_205_10735"/>
</filter>
<filter id="filter25_f_205_10735" x="954.095" y="85" width="50" height="64" filterUnits="userSpaceOnUse" color-interpolation-filters="sRGB">
<feFlood flood-opacity="0" result="BackgroundImageFix"/>
<feBlend mode="normal" in="SourceGraphic" in2="BackgroundImageFix" result="shape"/>
<feGaussianBlur stdDeviation="5" result="effect1_foregroundBlur_205_10735"/>
</filter>
<filter id="filter26_f_205_10735" x="188.12" y="130.904" width="51.4277" height="63.0056" filterUnits="userSpaceOnUse" color-interpolation-filters="sRGB">
<feFlood flood-opacity="0" result="BackgroundImageFix"/>
<feBlend mode="normal" in="SourceGraphic" in2="BackgroundImageFix" result="shape"/>
<feGaussianBlur stdDeviation="5" result="effect1_foregroundBlur_205_10735"/>
</filter>
<filter id="filter27_f_205_10735" x="137.181" y="144.961" width="51.4756" height="62.9712" filterUnits="userSpaceOnUse" color-interpolation-filters="sRGB">
<feFlood flood-opacity="0" result="BackgroundImageFix"/>
<feBlend mode="normal" in="SourceGraphic" in2="BackgroundImageFix" result="shape"/>
<feGaussianBlur stdDeviation="5" result="effect1_foregroundBlur_205_10735"/>
</filter>
<filter id="filter28_f_205_10735" x="-21.8389" y="201.142" width="52.5664" height="62.1501" filterUnits="userSpaceOnUse" color-interpolation-filters="sRGB">
<feFlood flood-opacity="0" result="BackgroundImageFix"/>
<feBlend mode="normal" in="SourceGraphic" in2="BackgroundImageFix" result="shape"/>
<feGaussianBlur stdDeviation="5" result="effect1_foregroundBlur_205_10735"/>
</filter>
<filter id="filter29_f_205_10735" x="240.255" y="100.052" width="52.5664" height="62.1501" filterUnits="userSpaceOnUse" color-interpolation-filters="sRGB">
<feFlood flood-opacity="0" result="BackgroundImageFix"/>
<feBlend mode="normal" in="SourceGraphic" in2="BackgroundImageFix" result="shape"/>
<feGaussianBlur stdDeviation="5" result="effect1_foregroundBlur_205_10735"/>
</filter>
<filter id="filter30_f_205_10735" x="78.8242" y="149.152" width="52.8457" height="61.9322" filterUnits="userSpaceOnUse" color-interpolation-filters="sRGB">
<feFlood flood-opacity="0" result="BackgroundImageFix"/>
<feBlend mode="normal" in="SourceGraphic" in2="BackgroundImageFix" result="shape"/>
<feGaussianBlur stdDeviation="5" result="effect1_foregroundBlur_205_10735"/>
</filter>
<filter id="filter31_f_205_10735" x="26.4893" y="176.32" width="52.9023" height="61.8876" filterUnits="userSpaceOnUse" color-interpolation-filters="sRGB">
<feFlood flood-opacity="0" result="BackgroundImageFix"/>
<feBlend mode="normal" in="SourceGraphic" in2="BackgroundImageFix" result="shape"/>
<feGaussianBlur stdDeviation="5" result="effect1_foregroundBlur_205_10735"/>
</filter>
<clipPath id="clip0_205_10735">
<rect width="1920" height="929" fill="white"/>
</clipPath>
</defs>
</svg>
