<svg width="1920" height="929" viewBox="0 0 1920 929" fill="none" xmlns="http://www.w3.org/2000/svg">
<g clip-path="url(#clip0_86_4041)">
<path d="M965.032 83C965.032 83 1080.69 141.957 1189.35 83C1216.21 92.7888 1247.68 99.3777 1268.5 104M1639 83C1575.3 110.107 1520.97 124.276 1413.24 86.8027C1403.03 90.1578 1389.48 94.4238 1380.5 97" stroke="#D8D8D8" stroke-miterlimit="10"/>
<path d="M986.584 91.9377C986.584 91.9377 975.297 89.1447 978.576 106.944C978.576 106.944 970.704 120.528 986.584 139.264C1000.59 123.806 992.628 106.007 992.628 106.007C992.628 106.007 992.16 91.7778 986.584 91.9377Z" fill="#EE2724"/>
<path d="M986.584 91.9377C986.584 91.9377 975.297 89.1447 978.576 106.944C978.576 106.944 970.704 120.528 986.584 139.264C1000.59 123.806 992.628 106.007 992.628 106.007C992.628 106.007 992.16 91.7778 986.584 91.9377Z" stroke="black" stroke-miterlimit="10"/>
<path d="M978.577 106.944H992.628C992.628 106.944 992.436 90.6505 986.584 91.9377C980.733 93.2266 976.704 91.9567 978.577 106.944Z" fill="black"/>
<path d="M978.577 106.944H992.628C992.628 106.944 992.436 90.6505 986.584 91.9377C980.733 93.2266 976.704 91.9567 978.577 106.944Z" stroke="black" stroke-miterlimit="10"/>
<path d="M1044 107.105C1044 107.105 1032.72 104.311 1035.99 122.11C1035.99 122.11 1028.12 135.693 1044 154.429C1058.01 138.973 1050.05 121.173 1050.05 121.173C1050.05 121.173 1049.58 106.945 1044 107.105Z" fill="#EBE846"/>
<path d="M1044 107.105C1044 107.105 1032.72 104.311 1035.99 122.11C1035.99 122.11 1028.12 135.693 1044 154.429C1058.01 138.973 1050.05 121.173 1050.05 121.173C1050.05 121.173 1049.58 106.945 1044 107.105Z" stroke="black" stroke-miterlimit="10"/>
<path d="M1035.99 122.11H1050.05C1050.05 122.11 1049.85 105.816 1044 107.105C1038.15 108.392 1034.12 107.123 1035.99 122.11Z" fill="black"/>
<path d="M1035.99 122.11H1050.05C1050.05 122.11 1049.85 105.816 1044 107.105C1038.15 108.392 1034.12 107.123 1035.99 122.11Z" stroke="black" stroke-miterlimit="10"/>
<path d="M1098.73 107.105C1098.73 107.105 1087.44 104.311 1090.72 122.11C1090.72 122.11 1082.85 135.693 1098.73 154.429C1112.73 138.973 1104.77 121.173 1104.77 121.173C1104.77 121.173 1104.3 106.945 1098.73 107.105Z" fill="#1F3A6F"/>
<path d="M1098.73 107.105C1098.73 107.105 1087.44 104.311 1090.72 122.11C1090.72 122.11 1082.85 135.693 1098.73 154.429C1112.73 138.973 1104.77 121.173 1104.77 121.173C1104.77 121.173 1104.3 106.945 1098.73 107.105Z" stroke="black" stroke-miterlimit="10"/>
<path d="M1090.72 122.11H1104.77C1104.77 122.11 1104.58 105.816 1098.73 107.105C1092.88 108.392 1088.85 107.123 1090.72 122.11Z" fill="black"/>
<path d="M1090.72 122.11H1104.77C1104.77 122.11 1104.58 105.816 1098.73 107.105C1092.88 108.392 1088.85 107.123 1090.72 122.11Z" stroke="black" stroke-miterlimit="10"/>
<path d="M1154.27 98.528C1154.27 98.528 1142.98 95.735 1146.26 113.534C1146.26 113.534 1138.39 127.119 1154.27 145.852C1168.27 130.397 1160.31 112.597 1160.31 112.597C1160.31 112.597 1159.84 98.3672 1154.27 98.528Z" fill="#85C550"/>
<path d="M1154.27 98.528C1154.27 98.528 1142.98 95.735 1146.26 113.534C1146.26 113.534 1138.39 127.119 1154.27 145.852C1168.27 130.397 1160.31 112.597 1160.31 112.597C1160.31 112.597 1159.84 98.3672 1154.27 98.528Z" stroke="black" stroke-miterlimit="10"/>
<path d="M1146.26 113.534H1160.31C1160.31 113.534 1160.12 97.2401 1154.27 98.5281C1148.41 99.8161 1144.39 98.5463 1146.26 113.534Z" fill="black"/>
<path d="M1146.26 113.534H1160.31C1160.31 113.534 1160.12 97.2401 1154.27 98.5281C1148.41 99.8161 1144.39 98.5463 1146.26 113.534Z" stroke="black" stroke-miterlimit="10"/>
<path d="M1211.44 91.9377C1211.44 91.9377 1200.15 89.1447 1203.43 106.944C1203.43 106.944 1195.56 120.528 1211.44 139.264C1225.44 123.806 1217.48 106.007 1217.48 106.007C1217.48 106.007 1217.01 91.7778 1211.44 91.9377Z" fill="#D44799"/>
<path d="M1211.44 91.9377C1211.44 91.9377 1200.15 89.1447 1203.43 106.944C1203.43 106.944 1195.56 120.528 1211.44 139.264C1225.44 123.806 1217.48 106.007 1217.48 106.007C1217.48 106.007 1217.01 91.7778 1211.44 91.9377Z" stroke="black" stroke-miterlimit="10"/>
<path d="M1203.43 106.944H1217.48C1217.48 106.944 1217.29 90.6505 1211.44 91.9377C1205.59 93.2266 1201.55 91.9567 1203.43 106.944Z" fill="black"/>
<path d="M1203.43 106.944H1217.48C1217.48 106.944 1217.29 90.6505 1211.44 91.9377C1205.59 93.2266 1201.55 91.9567 1203.43 106.944Z" stroke="black" stroke-miterlimit="10"/>
<path d="M1437.47 91.9377C1437.47 91.9377 1426.19 89.1447 1429.47 106.944C1429.47 106.944 1421.59 120.528 1437.47 139.264C1451.48 123.806 1443.52 106.007 1443.52 106.007C1443.52 106.007 1443.05 91.7778 1437.47 91.9377Z" fill="#85C550"/>
<path d="M1437.47 91.9377C1437.47 91.9377 1426.19 89.1447 1429.47 106.944C1429.47 106.944 1421.59 120.528 1437.47 139.264C1451.48 123.806 1443.52 106.007 1443.52 106.007C1443.52 106.007 1443.05 91.7778 1437.47 91.9377Z" stroke="black" stroke-miterlimit="10"/>
<path d="M1429.46 106.944H1443.52C1443.52 106.944 1443.32 90.6505 1437.47 91.9377C1431.62 93.2266 1427.59 91.9567 1429.46 106.944Z" fill="black"/>
<path d="M1429.46 106.944H1443.52C1443.52 106.944 1443.32 90.6505 1437.47 91.9377C1431.62 93.2266 1427.59 91.9567 1429.46 106.944Z" stroke="black" stroke-miterlimit="10"/>
<path d="M1493.05 107.105C1493.05 107.105 1481.77 104.311 1485.05 122.11C1485.05 122.11 1477.17 135.693 1493.05 154.429C1507.06 138.973 1499.1 121.173 1499.1 121.173C1499.1 121.173 1498.63 106.945 1493.05 107.105Z" fill="#D44799"/>
<path d="M1493.05 107.105C1493.05 107.105 1481.77 104.311 1485.05 122.11C1485.05 122.11 1477.17 135.693 1493.05 154.429C1507.06 138.973 1499.1 121.173 1499.1 121.173C1499.1 121.173 1498.63 106.945 1493.05 107.105Z" stroke="black" stroke-miterlimit="10"/>
<path d="M1485.05 122.11H1499.1C1499.1 122.11 1498.91 105.816 1493.05 107.105C1487.21 108.392 1483.17 107.123 1485.05 122.11Z" fill="black"/>
<path d="M1485.05 122.11H1499.1C1499.1 122.11 1498.91 105.816 1493.05 107.105C1487.21 108.392 1483.17 107.123 1485.05 122.11Z" stroke="black" stroke-miterlimit="10"/>
<path d="M1546.66 110.077C1546.66 110.077 1535.37 107.284 1538.65 125.083C1538.65 125.083 1530.77 138.665 1546.66 157.402C1560.66 141.946 1552.7 124.145 1552.7 124.145C1552.7 124.145 1552.23 109.917 1546.66 110.077Z" fill="#EE2724"/>
<path d="M1546.66 110.077C1546.66 110.077 1535.37 107.284 1538.65 125.083C1538.65 125.083 1530.77 138.665 1546.66 157.402C1560.66 141.946 1552.7 124.145 1552.7 124.145C1552.7 124.145 1552.23 109.917 1546.66 110.077Z" stroke="black" stroke-miterlimit="10"/>
<path d="M1538.65 125.083H1552.7C1552.7 125.083 1552.51 108.788 1546.66 110.077C1540.81 111.365 1536.77 110.096 1538.65 125.083Z" fill="black"/>
<path d="M1538.65 125.083H1552.7C1552.7 125.083 1552.51 108.788 1546.66 110.077C1540.81 111.365 1536.77 110.096 1538.65 125.083Z" stroke="black" stroke-miterlimit="10"/>
<path d="M1605.74 98.528C1605.74 98.528 1594.46 95.735 1597.74 113.534C1597.74 113.534 1589.87 127.119 1605.74 145.852C1619.75 130.397 1611.79 112.597 1611.79 112.597C1611.79 112.597 1611.32 98.3672 1605.74 98.528Z" fill="#EBE846"/>
<path d="M1605.74 98.528C1605.74 98.528 1594.46 95.735 1597.74 113.534C1597.74 113.534 1589.87 127.119 1605.74 145.852C1619.75 130.397 1611.79 112.597 1611.79 112.597C1611.79 112.597 1611.32 98.3672 1605.74 98.528Z" stroke="black" stroke-miterlimit="10"/>
<path d="M1597.74 113.534H1611.79C1611.79 113.534 1611.6 97.2401 1605.74 98.5281C1599.89 99.8161 1595.86 98.5463 1597.74 113.534Z" fill="black"/>
<path d="M1597.74 113.534H1611.79C1611.79 113.534 1611.6 97.2401 1605.74 98.5281C1599.89 99.8161 1595.86 98.5463 1597.74 113.534Z" stroke="black" stroke-miterlimit="10"/>
<path d="M291 83C291 83 406.654 141.957 515.317 83C595.881 112.359 627.984 123.337 739.207 86.8027C846.935 124.276 901.269 110.107 964.968 83" stroke="#D8D8D8" stroke-miterlimit="10"/>
<path d="M312.552 91.9377C312.552 91.9377 301.265 89.1447 304.544 106.944C304.544 106.944 296.672 120.528 312.552 139.264C326.559 123.806 318.595 106.007 318.595 106.007C318.595 106.007 318.128 91.7778 312.552 91.9377Z" fill="#EE2724"/>
<path d="M312.552 91.9377C312.552 91.9377 301.265 89.1447 304.544 106.944C304.544 106.944 296.672 120.528 312.552 139.264C326.559 123.806 318.595 106.007 318.595 106.007C318.595 106.007 318.128 91.7778 312.552 91.9377Z" stroke="black" stroke-miterlimit="10"/>
<path d="M304.545 106.944H318.595C318.595 106.944 318.404 90.6505 312.552 91.9377C306.701 93.2266 302.671 91.9567 304.545 106.944Z" fill="black"/>
<path d="M304.545 106.944H318.595C318.595 106.944 318.404 90.6505 312.552 91.9377C306.701 93.2266 302.671 91.9567 304.545 106.944Z" stroke="black" stroke-miterlimit="10"/>
<path d="M369.971 107.105C369.971 107.105 358.684 104.311 361.963 122.11C361.963 122.11 354.091 135.693 369.971 154.429C383.978 138.973 376.016 121.173 376.016 121.173C376.016 121.173 375.546 106.945 369.971 107.105Z" fill="#EBE846"/>
<path d="M369.971 107.105C369.971 107.105 358.684 104.311 361.963 122.11C361.963 122.11 354.091 135.693 369.971 154.429C383.978 138.973 376.016 121.173 376.016 121.173C376.016 121.173 375.546 106.945 369.971 107.105Z" stroke="black" stroke-miterlimit="10"/>
<path d="M361.962 122.11H376.015C376.015 122.11 375.822 105.816 369.97 107.105C364.122 108.392 360.09 107.123 361.962 122.11Z" fill="black"/>
<path d="M361.962 122.11H376.015C376.015 122.11 375.822 105.816 369.97 107.105C364.122 108.392 360.09 107.123 361.962 122.11Z" stroke="black" stroke-miterlimit="10"/>
<path d="M424.695 107.105C424.695 107.105 413.408 104.311 416.687 122.11C416.687 122.11 408.816 135.693 424.695 154.429C438.701 138.973 430.738 121.173 430.738 121.173C430.738 121.173 430.27 106.945 424.695 107.105Z" fill="#1F3A6F"/>
<path d="M424.695 107.105C424.695 107.105 413.408 104.311 416.687 122.11C416.687 122.11 408.816 135.693 424.695 154.429C438.701 138.973 430.738 121.173 430.738 121.173C430.738 121.173 430.27 106.945 424.695 107.105Z" stroke="black" stroke-miterlimit="10"/>
<path d="M416.688 122.11H430.738C430.738 122.11 430.546 105.816 424.695 107.105C418.846 108.392 414.814 107.123 416.688 122.11Z" fill="black"/>
<path d="M416.688 122.11H430.738C430.738 122.11 430.546 105.816 424.695 107.105C418.846 108.392 414.814 107.123 416.688 122.11Z" stroke="black" stroke-miterlimit="10"/>
<path d="M480.234 98.528C480.234 98.528 468.947 95.735 472.225 113.534C472.225 113.534 464.354 127.119 480.234 145.852C494.242 130.397 486.277 112.597 486.277 112.597C486.277 112.597 485.809 98.3672 480.234 98.528Z" fill="#85C550"/>
<path d="M480.234 98.528C480.234 98.528 468.947 95.735 472.225 113.534C472.225 113.534 464.354 127.119 480.234 145.852C494.242 130.397 486.277 112.597 486.277 112.597C486.277 112.597 485.809 98.3672 480.234 98.528Z" stroke="black" stroke-miterlimit="10"/>
<path d="M472.226 113.534H486.277C486.277 113.534 486.085 97.2401 480.235 98.5281C474.382 99.8161 470.354 98.5463 472.226 113.534Z" fill="black"/>
<path d="M472.226 113.534H486.277C486.277 113.534 486.085 97.2401 480.235 98.5281C474.382 99.8161 470.354 98.5463 472.226 113.534Z" stroke="black" stroke-miterlimit="10"/>
<path d="M537.404 91.9377C537.404 91.9377 526.117 89.1447 529.395 106.944C529.395 106.944 521.524 120.528 537.404 139.264C551.409 123.806 543.447 106.007 543.447 106.007C543.447 106.007 542.979 91.7778 537.404 91.9377Z" fill="#D44799"/>
<path d="M537.404 91.9377C537.404 91.9377 526.117 89.1447 529.395 106.944C529.395 106.944 521.524 120.528 537.404 139.264C551.409 123.806 543.447 106.007 543.447 106.007C543.447 106.007 542.979 91.7778 537.404 91.9377Z" stroke="black" stroke-miterlimit="10"/>
<path d="M529.395 106.944H543.447C543.447 106.944 543.253 90.6505 537.404 91.9377C531.553 93.2266 527.522 91.9567 529.395 106.944Z" fill="black"/>
<path d="M529.395 106.944H543.447C543.447 106.944 543.253 90.6505 537.404 91.9377C531.553 93.2266 527.522 91.9567 529.395 106.944Z" stroke="black" stroke-miterlimit="10"/>
<path d="M595.073 107.105C595.073 107.105 583.785 104.311 587.063 122.11C587.063 122.11 579.194 135.693 595.073 154.429C609.078 138.973 601.115 121.173 601.115 121.173C601.115 121.173 600.647 106.945 595.073 107.105Z" fill="#EE2724"/>
<path d="M595.073 107.105C595.073 107.105 583.785 104.311 587.063 122.11C587.063 122.11 579.194 135.693 595.073 154.429C609.078 138.973 601.115 121.173 601.115 121.173C601.115 121.173 600.647 106.945 595.073 107.105Z" stroke="black" stroke-miterlimit="10"/>
<path d="M587.063 122.11H601.115C601.115 122.11 600.921 105.816 595.073 107.105C589.221 108.392 585.189 107.123 587.063 122.11Z" fill="black"/>
<path d="M587.063 122.11H601.115C601.115 122.11 600.921 105.816 595.073 107.105C589.221 108.392 585.189 107.123 587.063 122.11Z" stroke="black" stroke-miterlimit="10"/>
<path d="M651.529 107.105C651.529 107.105 640.242 104.311 643.522 122.11C643.522 122.11 635.648 135.693 651.529 154.429C665.536 138.973 657.571 121.173 657.571 121.173C657.571 121.173 657.104 106.945 651.529 107.105Z" fill="#EBE846"/>
<path d="M651.529 107.105C651.529 107.105 640.242 104.311 643.522 122.11C643.522 122.11 635.648 135.693 651.529 154.429C665.536 138.973 657.571 121.173 657.571 121.173C657.571 121.173 657.104 106.945 651.529 107.105Z" stroke="black" stroke-miterlimit="10"/>
<path d="M643.522 122.11H657.571C657.571 122.11 657.38 105.816 651.529 107.105C645.68 108.392 641.648 107.123 643.522 122.11Z" fill="black"/>
<path d="M643.522 122.11H657.571C657.571 122.11 657.38 105.816 651.529 107.105C645.68 108.392 641.648 107.123 643.522 122.11Z" stroke="black" stroke-miterlimit="10"/>
<path d="M705.015 98.528C705.015 98.528 693.728 95.735 697.006 113.534C697.006 113.534 689.136 127.119 705.015 145.852C719.02 130.397 711.057 112.597 711.057 112.597C711.057 112.597 710.59 98.3672 705.015 98.528Z" fill="#1F3A6F"/>
<path d="M705.015 98.528C705.015 98.528 693.728 95.735 697.006 113.534C697.006 113.534 689.136 127.119 705.015 145.852C719.02 130.397 711.057 112.597 711.057 112.597C711.057 112.597 710.59 98.3672 705.015 98.528Z" stroke="black" stroke-miterlimit="10"/>
<path d="M697.006 113.534H711.058C711.058 113.534 710.863 97.2401 705.015 98.5281C699.163 99.8161 695.131 98.5463 697.006 113.534Z" fill="black"/>
<path d="M697.006 113.534H711.058C711.058 113.534 710.863 97.2401 705.015 98.5281C699.163 99.8161 695.131 98.5463 697.006 113.534Z" stroke="black" stroke-miterlimit="10"/>
<path d="M763.441 91.9377C763.441 91.9377 752.154 89.1447 755.433 106.944C755.433 106.944 747.559 120.528 763.441 139.264C777.447 123.806 769.485 106.007 769.485 106.007C769.485 106.007 769.015 91.7778 763.441 91.9377Z" fill="#85C550"/>
<path d="M763.441 91.9377C763.441 91.9377 752.154 89.1447 755.433 106.944C755.433 106.944 747.559 120.528 763.441 139.264C777.447 123.806 769.485 106.007 769.485 106.007C769.485 106.007 769.015 91.7778 763.441 91.9377Z" stroke="black" stroke-miterlimit="10"/>
<path d="M755.433 106.944H769.484C769.484 106.944 769.29 90.6505 763.44 91.9377C757.59 93.2266 753.559 91.9567 755.433 106.944Z" fill="black"/>
<path d="M755.433 106.944H769.484C769.484 106.944 769.29 90.6505 763.44 91.9377C757.59 93.2266 753.559 91.9567 755.433 106.944Z" stroke="black" stroke-miterlimit="10"/>
<path d="M819.021 107.105C819.021 107.105 807.734 104.311 811.014 122.11C811.014 122.11 803.139 135.693 819.021 154.429C833.028 138.973 825.063 121.173 825.063 121.173C825.063 121.173 824.597 106.945 819.021 107.105Z" fill="#D44799"/>
<path d="M819.021 107.105C819.021 107.105 807.734 104.311 811.014 122.11C811.014 122.11 803.139 135.693 819.021 154.429C833.028 138.973 825.063 121.173 825.063 121.173C825.063 121.173 824.597 106.945 819.021 107.105Z" stroke="black" stroke-miterlimit="10"/>
<path d="M811.015 122.11H825.064C825.064 122.11 824.873 105.816 819.022 107.105C813.173 108.392 809.14 107.123 811.015 122.11Z" fill="black"/>
<path d="M811.015 122.11H825.064C825.064 122.11 824.873 105.816 819.022 107.105C813.173 108.392 809.14 107.123 811.015 122.11Z" stroke="black" stroke-miterlimit="10"/>
<path d="M872.623 110.077C872.623 110.077 861.338 107.284 864.616 125.083C864.616 125.083 856.742 138.665 872.623 157.402C886.63 141.946 878.667 124.145 878.667 124.145C878.667 124.145 878.199 109.917 872.623 110.077Z" fill="#EE2724"/>
<path d="M872.623 110.077C872.623 110.077 861.338 107.284 864.616 125.083C864.616 125.083 856.742 138.665 872.623 157.402C886.63 141.946 878.667 124.145 878.667 124.145C878.667 124.145 878.199 109.917 872.623 110.077Z" stroke="black" stroke-miterlimit="10"/>
<path d="M864.616 125.083H878.668C878.668 125.083 878.475 108.788 872.624 110.077C866.773 111.365 862.742 110.096 864.616 125.083Z" fill="black"/>
<path d="M864.616 125.083H878.668C878.668 125.083 878.475 108.788 872.624 110.077C866.773 111.365 862.742 110.096 864.616 125.083Z" stroke="black" stroke-miterlimit="10"/>
<path d="M931.712 98.528C931.712 98.528 920.427 95.735 923.705 113.534C923.705 113.534 915.834 127.119 931.712 145.852C945.719 130.397 937.756 112.597 937.756 112.597C937.756 112.597 937.287 98.3672 931.712 98.528Z" fill="#EBE846"/>
<path d="M931.712 98.528C931.712 98.528 920.427 95.735 923.705 113.534C923.705 113.534 915.834 127.119 931.712 145.852C945.719 130.397 937.756 112.597 937.756 112.597C937.756 112.597 937.287 98.3672 931.712 98.528Z" stroke="black" stroke-miterlimit="10"/>
<path d="M923.704 113.534H937.756C937.756 113.534 937.563 97.2401 931.712 98.5281C925.862 99.8161 921.83 98.5463 923.704 113.534Z" fill="black"/>
<path d="M923.704 113.534H937.756C937.756 113.534 937.563 97.2401 931.712 98.5281C925.862 99.8161 921.83 98.5463 923.704 113.534Z" stroke="black" stroke-miterlimit="10"/>
<path d="M1635.9 85C1635.9 85 1727.79 176.696 1849.33 154.052C1916.94 206.785 1944.11 227.112 2061.18 226.59C2152.14 295.405 2208.19 298.651 2277.14 292.468" stroke="#D8D8D8" stroke-miterlimit="10"/>
<path d="M1653.66 100.138C1653.66 100.138 1643.78 94.0059 1641.42 111.95C1641.42 111.95 1629.75 122.451 1639.09 145.166C1657.18 134.77 1655.08 115.385 1655.08 115.385C1655.08 115.385 1659.01 101.702 1653.66 100.138Z" fill="#EE2724"/>
<path d="M1653.66 100.138C1653.66 100.138 1643.78 94.0059 1641.42 111.95C1641.42 111.95 1629.75 122.451 1639.09 145.166C1657.18 134.77 1655.08 115.385 1655.08 115.385C1655.08 115.385 1659.01 101.702 1653.66 100.138Z" stroke="black" stroke-miterlimit="10"/>
<path d="M1641.42 111.951L1654.79 116.276C1654.79 116.276 1659.62 100.715 1653.66 100.138C1647.69 99.5631 1644.25 97.1145 1641.42 111.951Z" fill="black"/>
<path d="M1641.42 111.951L1654.79 116.276C1654.79 116.276 1659.62 100.715 1653.66 100.138C1647.69 99.5631 1644.25 97.1145 1641.42 111.951Z" stroke="black" stroke-miterlimit="10"/>
<path d="M1703.62 132.244C1703.62 132.244 1693.74 126.112 1691.38 144.056C1691.38 144.056 1679.71 154.555 1689.05 177.271C1707.14 166.877 1705.04 147.49 1705.04 147.49C1705.04 147.49 1708.97 133.807 1703.62 132.244Z" fill="#EBE846"/>
<path d="M1703.62 132.244C1703.62 132.244 1693.74 126.112 1691.38 144.056C1691.38 144.056 1679.71 154.555 1689.05 177.271C1707.14 166.877 1705.04 147.49 1705.04 147.49C1705.04 147.49 1708.97 133.807 1703.62 132.244Z" stroke="black" stroke-miterlimit="10"/>
<path d="M1691.38 144.056L1704.75 148.382C1704.75 148.382 1709.58 132.818 1703.62 132.244C1697.66 131.668 1694.21 129.219 1691.38 144.056Z" fill="black"/>
<path d="M1691.38 144.056L1704.75 148.382C1704.75 148.382 1709.58 132.818 1703.62 132.244C1697.66 131.668 1694.21 129.219 1691.38 144.056Z" stroke="black" stroke-miterlimit="10"/>
<path d="M1755.69 149.09C1755.69 149.09 1745.81 142.957 1743.45 160.901C1743.45 160.901 1731.78 171.401 1741.12 194.116C1759.2 183.722 1757.1 164.335 1757.1 164.335C1757.1 164.335 1761.04 150.653 1755.69 149.09Z" fill="#1F3A6F"/>
<path d="M1755.69 149.09C1755.69 149.09 1745.81 142.957 1743.45 160.901C1743.45 160.901 1731.78 171.401 1741.12 194.116C1759.2 183.722 1757.1 164.335 1757.1 164.335C1757.1 164.335 1761.04 150.653 1755.69 149.09Z" stroke="black" stroke-miterlimit="10"/>
<path d="M1743.45 160.902L1756.82 165.227C1756.82 165.227 1761.65 149.664 1755.69 149.09C1749.72 148.514 1746.28 146.065 1743.45 160.902Z" fill="black"/>
<path d="M1743.45 160.902L1756.82 165.227C1756.82 165.227 1761.65 149.664 1755.69 149.09C1749.72 148.514 1746.28 146.065 1743.45 160.902Z" stroke="black" stroke-miterlimit="10"/>
<path d="M1811.17 158.026C1811.17 158.026 1801.29 151.894 1798.93 169.838C1798.93 169.838 1787.26 180.34 1796.6 203.052C1814.69 192.659 1812.59 173.272 1812.59 173.272C1812.59 173.272 1816.52 159.589 1811.17 158.026Z" fill="#85C550"/>
<path d="M1811.17 158.026C1811.17 158.026 1801.29 151.894 1798.93 169.838C1798.93 169.838 1787.26 180.34 1796.6 203.052C1814.69 192.659 1812.59 173.272 1812.59 173.272C1812.59 173.272 1816.52 159.589 1811.17 158.026Z" stroke="black" stroke-miterlimit="10"/>
<path d="M1798.93 169.838L1812.3 174.164C1812.3 174.164 1817.13 158.602 1811.17 158.026C1805.2 157.45 1801.76 155.002 1798.93 169.838Z" fill="black"/>
<path d="M1798.93 169.838L1812.3 174.164C1812.3 174.164 1817.13 158.602 1811.17 158.026C1805.2 157.45 1801.76 155.002 1798.93 169.838Z" stroke="black" stroke-miterlimit="10"/>
<path d="M1867.59 169.354C1867.59 169.354 1857.71 163.222 1855.35 181.166C1855.35 181.166 1843.68 191.667 1853.02 214.382C1871.11 203.986 1869.01 184.601 1869.01 184.601C1869.01 184.601 1872.94 170.918 1867.59 169.354Z" fill="#D44799"/>
<path d="M1867.59 169.354C1867.59 169.354 1857.71 163.222 1855.35 181.166C1855.35 181.166 1843.68 191.667 1853.02 214.382C1871.11 203.986 1869.01 184.601 1869.01 184.601C1869.01 184.601 1872.94 170.918 1867.59 169.354Z" stroke="black" stroke-miterlimit="10"/>
<path d="M1855.35 181.167L1868.72 185.492C1868.72 185.492 1873.55 169.93 1867.59 169.354C1861.63 168.779 1858.18 166.33 1855.35 181.167Z" fill="black"/>
<path d="M1855.35 181.167L1868.72 185.492C1868.72 185.492 1873.55 169.93 1867.59 169.354C1861.63 168.779 1858.18 166.33 1855.35 181.167Z" stroke="black" stroke-miterlimit="10"/>
<path d="M1917.79 201.538C1917.79 201.538 1907.91 195.405 1905.55 213.349C1905.55 213.349 1893.88 223.849 1903.22 246.564C1921.31 236.169 1919.21 216.783 1919.21 216.783C1919.21 216.783 1923.14 203.101 1917.79 201.538Z" fill="#EE2724"/>
<path d="M1917.79 201.538C1917.79 201.538 1907.91 195.405 1905.55 213.349C1905.55 213.349 1893.88 223.849 1903.22 246.564C1921.31 236.169 1919.21 216.783 1919.21 216.783C1919.21 216.783 1923.14 203.101 1917.79 201.538Z" stroke="black" stroke-miterlimit="10"/>
<path d="M1905.55 213.349L1918.92 217.674C1918.92 217.674 1923.75 202.111 1917.79 201.538C1911.83 200.96 1908.38 198.512 1905.55 213.349Z" fill="black"/>
<path d="M1905.55 213.349L1918.92 217.674C1918.92 217.674 1923.75 202.111 1917.79 201.538C1911.83 200.96 1908.38 198.512 1905.55 213.349Z" stroke="black" stroke-miterlimit="10"/>
<path d="M-345.954 306.89C-345.954 306.89 -217.229 323.674 -134.611 231.707C-48.8672 232.366 -14.9418 231.949 77.6033 160.25C191.659 159.449 238.102 127.889 289.032 81" stroke="#D8D8D8" stroke-miterlimit="10"/>
<path d="M1.80134 208.765C1.80134 208.765 -9.76936 209.915 -0.712951 225.585C-0.712951 225.585 -3.57944 241.021 17.6627 253.352C25.6796 234.094 12.2094 219.994 12.2094 219.994C12.2094 219.994 6.99982 206.745 1.80134 208.765Z" fill="#EBE846"/>
<path d="M1.80134 208.765C1.80134 208.765 -9.76936 209.915 -0.712951 225.585C-0.712951 225.585 -3.57944 241.021 17.6627 253.352C25.6796 234.094 12.2094 219.994 12.2094 219.994C12.2094 219.994 6.99982 206.745 1.80134 208.765Z" stroke="black" stroke-miterlimit="10"/>
<path d="M-0.713537 225.585L12.5229 220.877C12.5229 220.877 6.88147 205.588 1.80075 208.765C-3.27868 211.937 -7.50263 212.093 -0.713537 225.585Z" fill="black"/>
<path d="M-0.713537 225.585L12.5229 220.877C12.5229 220.877 6.88147 205.588 1.80075 208.765C-3.27868 211.937 -7.50263 212.093 -0.713537 225.585Z" stroke="black" stroke-miterlimit="10"/>
<path d="M49.3185 182.757C49.3185 182.757 37.7482 183.909 46.8021 199.579C46.8021 199.579 43.9405 215.016 65.1799 227.344C73.1947 208.088 59.7269 193.987 59.7269 193.987C59.7269 193.987 54.517 180.737 49.3185 182.757Z" fill="#1F3A6F"/>
<path d="M49.3185 182.757C49.3185 182.757 37.7482 183.909 46.8021 199.579C46.8021 199.579 43.9405 215.016 65.1799 227.344C73.1947 208.088 59.7269 193.987 59.7269 193.987C59.7269 193.987 54.517 180.737 49.3185 182.757Z" stroke="black" stroke-miterlimit="10"/>
<path d="M46.8027 199.58L60.0415 194.87C60.0415 194.87 54.3971 179.584 49.3191 182.757C44.237 185.932 40.0128 186.087 46.8027 199.58Z" fill="black"/>
<path d="M46.8027 199.58L60.0415 194.87C60.0415 194.87 54.3971 179.584 49.3191 182.757C44.237 185.932 40.0128 186.087 46.8027 199.58Z" stroke="black" stroke-miterlimit="10"/>
<path d="M102.156 156.965C102.156 156.965 90.5852 158.117 99.6407 173.787C99.6407 173.787 96.7748 189.225 118.017 201.554C126.032 182.296 112.566 168.196 112.566 168.196C112.566 168.196 107.353 154.947 102.156 156.965Z" fill="#85C550"/>
<path d="M102.156 156.965C102.156 156.965 90.5852 158.117 99.6407 173.787C99.6407 173.787 96.7748 189.225 118.017 201.554C126.032 182.296 112.566 168.196 112.566 168.196C112.566 168.196 107.353 154.947 102.156 156.965Z" stroke="black" stroke-miterlimit="10"/>
<path d="M99.6415 173.788L112.88 169.078C112.88 169.078 107.236 153.792 102.156 156.965C97.0766 160.14 92.8524 160.295 99.6415 173.788Z" fill="black"/>
<path d="M99.6415 173.788L112.88 169.078C112.88 169.078 107.236 153.792 102.156 156.965C97.0766 160.14 92.8524 160.295 99.6415 173.788Z" stroke="black" stroke-miterlimit="10"/>
<path d="M159.605 152.627C159.605 152.627 148.034 153.778 157.09 169.448C157.09 169.448 154.223 184.884 175.466 197.214C183.483 177.957 170.013 163.856 170.013 163.856C170.013 163.856 164.804 150.607 159.605 152.627Z" fill="#D44799"/>
<path d="M159.605 152.627C159.605 152.627 148.034 153.778 157.09 169.448C157.09 169.448 154.223 184.884 175.466 197.214C183.483 177.957 170.013 163.856 170.013 163.856C170.013 163.856 164.804 150.607 159.605 152.627Z" stroke="black" stroke-miterlimit="10"/>
<path d="M157.091 169.448L170.328 164.739C170.328 164.739 164.687 149.451 159.606 152.627C154.527 155.799 150.302 155.955 157.091 169.448Z" fill="black"/>
<path d="M157.091 169.448L170.328 164.739C170.328 164.739 164.687 149.451 159.606 152.627C154.527 155.799 150.302 155.955 157.091 169.448Z" stroke="black" stroke-miterlimit="10"/>
<path d="M211.102 137.462C211.102 137.462 199.534 138.613 208.588 154.284C208.588 154.284 205.722 169.719 226.964 182.049C234.98 162.793 221.512 148.691 221.512 148.691C221.512 148.691 216.302 135.443 211.102 137.462Z" fill="#EE2724"/>
<path d="M211.102 137.462C211.102 137.462 199.534 138.613 208.588 154.284C208.588 154.284 205.722 169.719 226.964 182.049C234.98 162.793 221.512 148.691 221.512 148.691C221.512 148.691 216.302 135.443 211.102 137.462Z" stroke="black" stroke-miterlimit="10"/>
<path d="M208.589 154.283L221.827 149.574C221.827 149.574 216.184 134.286 211.103 137.462C206.023 140.636 201.8 140.791 208.589 154.283Z" fill="black"/>
<path d="M208.589 154.283L221.827 149.574C221.827 149.574 216.184 134.286 211.103 137.462C206.023 140.636 201.8 140.791 208.589 154.283Z" stroke="black" stroke-miterlimit="10"/>
<path d="M262.903 106.776C262.903 106.776 251.335 107.927 260.389 123.598C260.389 123.598 257.526 139.035 278.765 151.363C286.781 132.107 273.313 118.006 273.313 118.006C273.313 118.006 268.102 104.756 262.903 106.776Z" fill="#EBE846"/>
<path d="M262.903 106.776C262.903 106.776 251.335 107.927 260.389 123.598C260.389 123.598 257.526 139.035 278.765 151.363C286.781 132.107 273.313 118.006 273.313 118.006C273.313 118.006 268.102 104.756 262.903 106.776Z" stroke="black" stroke-miterlimit="10"/>
<path d="M260.388 123.598L273.627 118.889C273.627 118.889 267.984 103.602 262.903 106.776C257.823 109.951 253.599 110.106 260.388 123.598Z" fill="black"/>
<path d="M260.388 123.598L273.627 118.889C273.627 118.889 267.984 103.602 262.903 106.776C257.823 109.951 253.599 110.106 260.388 123.598Z" stroke="black" stroke-miterlimit="10"/>
<g filter="url(#filter0_f_86_4041)">
<ellipse cx="312.095" cy="125" rx="15" ry="22" fill="#EE2724"/>
</g>
<g filter="url(#filter1_f_86_4041)">
<ellipse cx="369.095" cy="140" rx="15" ry="22" fill="#EBE846"/>
</g>
<g filter="url(#filter2_f_86_4041)">
<ellipse cx="651.095" cy="139" rx="15" ry="22" fill="#EBE846"/>
</g>
<g filter="url(#filter3_f_86_4041)">
<ellipse cx="931.095" cy="130" rx="15" ry="22" fill="#EBE846"/>
</g>
<g filter="url(#filter4_f_86_4041)">
<ellipse cx="1043.09" cy="141" rx="15" ry="22" fill="#EBE846"/>
</g>
<g filter="url(#filter5_f_86_4041)">
<ellipse cx="1692.44" cy="164.216" rx="15" ry="22" transform="rotate(15.5532 1692.44 164.216)" fill="#EBE846"/>
</g>
<g filter="url(#filter6_f_86_4041)">
<ellipse cx="1604.2" cy="133.071" rx="15" ry="22" transform="rotate(-0.269831 1604.2 133.071)" fill="#EBE846"/>
</g>
<g filter="url(#filter7_f_86_4041)">
<ellipse cx="424.095" cy="141" rx="15" ry="22" fill="#1F3A6F"/>
</g>
<g filter="url(#filter8_f_86_4041)">
<ellipse cx="704.095" cy="132" rx="15" ry="22" fill="#1F3A6F"/>
</g>
<g filter="url(#filter9_f_86_4041)">
<ellipse cx="1745.7" cy="180.343" rx="15" ry="22" transform="rotate(16.4219 1745.7 180.343)" fill="#1F3A6F"/>
</g>
<g filter="url(#filter10_f_86_4041)">
<ellipse cx="1098.09" cy="141" rx="15" ry="22" fill="#1F3A6F"/>
</g>
<g filter="url(#filter11_f_86_4041)">
<ellipse cx="479.095" cy="131" rx="15" ry="22" fill="#85C550"/>
</g>
<g filter="url(#filter12_f_86_4041)">
<ellipse cx="761.095" cy="125" rx="15" ry="22" fill="#85C550"/>
</g>
<g filter="url(#filter13_f_86_4041)">
<ellipse cx="1153.09" cy="131" rx="15" ry="22" fill="#85C550"/>
</g>
<g filter="url(#filter14_f_86_4041)">
<ellipse cx="1437.09" cy="125" rx="15" ry="22" fill="#85C550"/>
</g>
<g filter="url(#filter15_f_86_4041)">
<ellipse cx="1801.25" cy="190.118" rx="15" ry="22" transform="rotate(14.9027 1801.25 190.118)" fill="#85C550"/>
</g>
<g filter="url(#filter16_f_86_4041)">
<ellipse cx="537.095" cy="125" rx="15" ry="22" fill="#D44799"/>
</g>
<g filter="url(#filter17_f_86_4041)">
<ellipse cx="818.095" cy="140" rx="15" ry="22" fill="#D44799"/>
</g>
<g filter="url(#filter18_f_86_4041)">
<ellipse cx="1211.09" cy="125" rx="15" ry="22" fill="#D44799"/>
</g>
<g filter="url(#filter19_f_86_4041)">
<ellipse cx="1492.09" cy="138" rx="15" ry="22" fill="#D44799"/>
</g>
<g filter="url(#filter20_f_86_4041)">
<ellipse cx="1856.92" cy="201.447" rx="15" ry="22" transform="rotate(17.1647 1856.92 201.447)" fill="#D44799"/>
</g>
<g filter="url(#filter21_f_86_4041)">
<ellipse cx="594.095" cy="140" rx="15" ry="22" fill="#EE2724"/>
</g>
<g filter="url(#filter22_f_86_4041)">
<ellipse cx="871.095" cy="143" rx="15" ry="22" fill="#EE2724"/>
</g>
<g filter="url(#filter23_f_86_4041)">
<ellipse cx="1545.09" cy="143" rx="15" ry="22" fill="#EE2724"/>
</g>
<g filter="url(#filter24_f_86_4041)">
<ellipse cx="1642.83" cy="132.406" rx="15" ry="22" transform="rotate(16.8709 1642.83 132.406)" fill="#EE2724"/>
</g>
<g filter="url(#filter25_f_86_4041)">
<ellipse cx="1905.83" cy="233.406" rx="15" ry="22" transform="rotate(16.8709 1905.83 233.406)" fill="#EE2724"/>
</g>
<g filter="url(#filter26_f_86_4041)">
<ellipse cx="986.095" cy="125" rx="15" ry="22" fill="#EE2724"/>
</g>
<g filter="url(#filter27_f_86_4041)">
<ellipse rx="15" ry="22" transform="matrix(-0.956961 0.290217 0.290217 0.956961 220.834 170.406)" fill="#EE2724"/>
</g>
<g filter="url(#filter28_f_86_4041)">
<ellipse rx="15" ry="22" transform="matrix(-0.95546 0.29512 0.29512 0.95546 169.919 184.447)" fill="#D44799"/>
</g>
<g filter="url(#filter29_f_86_4041)">
<ellipse rx="15" ry="22" transform="matrix(-0.91939 0.393347 0.393347 0.91939 11.4448 240.217)" fill="#EBE846"/>
</g>
<g filter="url(#filter30_f_86_4041)">
<ellipse rx="15" ry="22" transform="matrix(-0.91939 0.393347 0.393347 0.91939 273.539 139.127)" fill="#EBE846"/>
</g>
<g filter="url(#filter31_f_86_4041)">
<ellipse rx="15" ry="22" transform="matrix(-0.909715 0.415234 0.415234 0.909715 112.247 188.118)" fill="#85C550"/>
</g>
<g filter="url(#filter32_f_86_4041)">
<ellipse rx="15" ry="22" transform="matrix(-0.907729 0.419556 0.419556 0.907729 59.9405 215.263)" fill="#1F3A6F"/>
</g>
</g>
<defs>
<filter id="filter0_f_86_4041" x="287.095" y="93" width="50" height="64" filterUnits="userSpaceOnUse" color-interpolation-filters="sRGB">
<feFlood flood-opacity="0" result="BackgroundImageFix"/>
<feBlend mode="normal" in="SourceGraphic" in2="BackgroundImageFix" result="shape"/>
<feGaussianBlur stdDeviation="5" result="effect1_foregroundBlur_86_4041"/>
</filter>
<filter id="filter1_f_86_4041" x="344.095" y="108" width="50" height="64" filterUnits="userSpaceOnUse" color-interpolation-filters="sRGB">
<feFlood flood-opacity="0" result="BackgroundImageFix"/>
<feBlend mode="normal" in="SourceGraphic" in2="BackgroundImageFix" result="shape"/>
<feGaussianBlur stdDeviation="5" result="effect1_foregroundBlur_86_4041"/>
</filter>
<filter id="filter2_f_86_4041" x="626.095" y="107" width="50" height="64" filterUnits="userSpaceOnUse" color-interpolation-filters="sRGB">
<feFlood flood-opacity="0" result="BackgroundImageFix"/>
<feBlend mode="normal" in="SourceGraphic" in2="BackgroundImageFix" result="shape"/>
<feGaussianBlur stdDeviation="5" result="effect1_foregroundBlur_86_4041"/>
</filter>
<filter id="filter3_f_86_4041" x="906.095" y="98" width="50" height="64" filterUnits="userSpaceOnUse" color-interpolation-filters="sRGB">
<feFlood flood-opacity="0" result="BackgroundImageFix"/>
<feBlend mode="normal" in="SourceGraphic" in2="BackgroundImageFix" result="shape"/>
<feGaussianBlur stdDeviation="5" result="effect1_foregroundBlur_86_4041"/>
</filter>
<filter id="filter4_f_86_4041" x="1018.09" y="109" width="50" height="64" filterUnits="userSpaceOnUse" color-interpolation-filters="sRGB">
<feFlood flood-opacity="0" result="BackgroundImageFix"/>
<feBlend mode="normal" in="SourceGraphic" in2="BackgroundImageFix" result="shape"/>
<feGaussianBlur stdDeviation="5" result="effect1_foregroundBlur_86_4041"/>
</filter>
<filter id="filter5_f_86_4041" x="1666.83" y="132.64" width="51.2246" height="63.1533" filterUnits="userSpaceOnUse" color-interpolation-filters="sRGB">
<feFlood flood-opacity="0" result="BackgroundImageFix"/>
<feBlend mode="normal" in="SourceGraphic" in2="BackgroundImageFix" result="shape"/>
<feGaussianBlur stdDeviation="5" result="effect1_foregroundBlur_86_4041"/>
</filter>
<filter id="filter6_f_86_4041" x="1579.2" y="101.071" width="50" height="64" filterUnits="userSpaceOnUse" color-interpolation-filters="sRGB">
<feFlood flood-opacity="0" result="BackgroundImageFix"/>
<feBlend mode="normal" in="SourceGraphic" in2="BackgroundImageFix" result="shape"/>
<feGaussianBlur stdDeviation="5" result="effect1_foregroundBlur_86_4041"/>
</filter>
<filter id="filter7_f_86_4041" x="399.095" y="109" width="50" height="64" filterUnits="userSpaceOnUse" color-interpolation-filters="sRGB">
<feFlood flood-opacity="0" result="BackgroundImageFix"/>
<feBlend mode="normal" in="SourceGraphic" in2="BackgroundImageFix" result="shape"/>
<feGaussianBlur stdDeviation="5" result="effect1_foregroundBlur_86_4041"/>
</filter>
<filter id="filter8_f_86_4041" x="679.095" y="100" width="50" height="64" filterUnits="userSpaceOnUse" color-interpolation-filters="sRGB">
<feFlood flood-opacity="0" result="BackgroundImageFix"/>
<feBlend mode="normal" in="SourceGraphic" in2="BackgroundImageFix" result="shape"/>
<feGaussianBlur stdDeviation="5" result="effect1_foregroundBlur_86_4041"/>
</filter>
<filter id="filter9_f_86_4041" x="1720.02" y="148.814" width="51.3584" height="63.0571" filterUnits="userSpaceOnUse" color-interpolation-filters="sRGB">
<feFlood flood-opacity="0" result="BackgroundImageFix"/>
<feBlend mode="normal" in="SourceGraphic" in2="BackgroundImageFix" result="shape"/>
<feGaussianBlur stdDeviation="5" result="effect1_foregroundBlur_86_4041"/>
</filter>
<filter id="filter10_f_86_4041" x="1073.09" y="109" width="50" height="64" filterUnits="userSpaceOnUse" color-interpolation-filters="sRGB">
<feFlood flood-opacity="0" result="BackgroundImageFix"/>
<feBlend mode="normal" in="SourceGraphic" in2="BackgroundImageFix" result="shape"/>
<feGaussianBlur stdDeviation="5" result="effect1_foregroundBlur_86_4041"/>
</filter>
<filter id="filter11_f_86_4041" x="454.095" y="99" width="50" height="64" filterUnits="userSpaceOnUse" color-interpolation-filters="sRGB">
<feFlood flood-opacity="0" result="BackgroundImageFix"/>
<feBlend mode="normal" in="SourceGraphic" in2="BackgroundImageFix" result="shape"/>
<feGaussianBlur stdDeviation="5" result="effect1_foregroundBlur_86_4041"/>
</filter>
<filter id="filter12_f_86_4041" x="736.095" y="93" width="50" height="64" filterUnits="userSpaceOnUse" color-interpolation-filters="sRGB">
<feFlood flood-opacity="0" result="BackgroundImageFix"/>
<feBlend mode="normal" in="SourceGraphic" in2="BackgroundImageFix" result="shape"/>
<feGaussianBlur stdDeviation="5" result="effect1_foregroundBlur_86_4041"/>
</filter>
<filter id="filter13_f_86_4041" x="1128.09" y="99" width="50" height="64" filterUnits="userSpaceOnUse" color-interpolation-filters="sRGB">
<feFlood flood-opacity="0" result="BackgroundImageFix"/>
<feBlend mode="normal" in="SourceGraphic" in2="BackgroundImageFix" result="shape"/>
<feGaussianBlur stdDeviation="5" result="effect1_foregroundBlur_86_4041"/>
</filter>
<filter id="filter14_f_86_4041" x="1412.09" y="93" width="50" height="64" filterUnits="userSpaceOnUse" color-interpolation-filters="sRGB">
<feFlood flood-opacity="0" result="BackgroundImageFix"/>
<feBlend mode="normal" in="SourceGraphic" in2="BackgroundImageFix" result="shape"/>
<feGaussianBlur stdDeviation="5" result="effect1_foregroundBlur_86_4041"/>
</filter>
<filter id="filter15_f_86_4041" x="1775.68" y="158.507" width="51.1299" height="63.2217" filterUnits="userSpaceOnUse" color-interpolation-filters="sRGB">
<feFlood flood-opacity="0" result="BackgroundImageFix"/>
<feBlend mode="normal" in="SourceGraphic" in2="BackgroundImageFix" result="shape"/>
<feGaussianBlur stdDeviation="5" result="effect1_foregroundBlur_86_4041"/>
</filter>
<filter id="filter16_f_86_4041" x="512.095" y="93" width="50" height="64" filterUnits="userSpaceOnUse" color-interpolation-filters="sRGB">
<feFlood flood-opacity="0" result="BackgroundImageFix"/>
<feBlend mode="normal" in="SourceGraphic" in2="BackgroundImageFix" result="shape"/>
<feGaussianBlur stdDeviation="5" result="effect1_foregroundBlur_86_4041"/>
</filter>
<filter id="filter17_f_86_4041" x="793.095" y="108" width="50" height="64" filterUnits="userSpaceOnUse" color-interpolation-filters="sRGB">
<feFlood flood-opacity="0" result="BackgroundImageFix"/>
<feBlend mode="normal" in="SourceGraphic" in2="BackgroundImageFix" result="shape"/>
<feGaussianBlur stdDeviation="5" result="effect1_foregroundBlur_86_4041"/>
</filter>
<filter id="filter18_f_86_4041" x="1186.09" y="93" width="50" height="64" filterUnits="userSpaceOnUse" color-interpolation-filters="sRGB">
<feFlood flood-opacity="0" result="BackgroundImageFix"/>
<feBlend mode="normal" in="SourceGraphic" in2="BackgroundImageFix" result="shape"/>
<feGaussianBlur stdDeviation="5" result="effect1_foregroundBlur_86_4041"/>
</filter>
<filter id="filter19_f_86_4041" x="1467.09" y="106" width="50" height="64" filterUnits="userSpaceOnUse" color-interpolation-filters="sRGB">
<feFlood flood-opacity="0" result="BackgroundImageFix"/>
<feBlend mode="normal" in="SourceGraphic" in2="BackgroundImageFix" result="shape"/>
<feGaussianBlur stdDeviation="5" result="effect1_foregroundBlur_86_4041"/>
</filter>
<filter id="filter20_f_86_4041" x="1831.18" y="169.961" width="51.4756" height="62.9712" filterUnits="userSpaceOnUse" color-interpolation-filters="sRGB">
<feFlood flood-opacity="0" result="BackgroundImageFix"/>
<feBlend mode="normal" in="SourceGraphic" in2="BackgroundImageFix" result="shape"/>
<feGaussianBlur stdDeviation="5" result="effect1_foregroundBlur_86_4041"/>
</filter>
<filter id="filter21_f_86_4041" x="569.095" y="108" width="50" height="64" filterUnits="userSpaceOnUse" color-interpolation-filters="sRGB">
<feFlood flood-opacity="0" result="BackgroundImageFix"/>
<feBlend mode="normal" in="SourceGraphic" in2="BackgroundImageFix" result="shape"/>
<feGaussianBlur stdDeviation="5" result="effect1_foregroundBlur_86_4041"/>
</filter>
<filter id="filter22_f_86_4041" x="846.095" y="111" width="50" height="64" filterUnits="userSpaceOnUse" color-interpolation-filters="sRGB">
<feFlood flood-opacity="0" result="BackgroundImageFix"/>
<feBlend mode="normal" in="SourceGraphic" in2="BackgroundImageFix" result="shape"/>
<feGaussianBlur stdDeviation="5" result="effect1_foregroundBlur_86_4041"/>
</filter>
<filter id="filter23_f_86_4041" x="1520.09" y="111" width="50" height="64" filterUnits="userSpaceOnUse" color-interpolation-filters="sRGB">
<feFlood flood-opacity="0" result="BackgroundImageFix"/>
<feBlend mode="normal" in="SourceGraphic" in2="BackgroundImageFix" result="shape"/>
<feGaussianBlur stdDeviation="5" result="effect1_foregroundBlur_86_4041"/>
</filter>
<filter id="filter24_f_86_4041" x="1617.12" y="100.904" width="51.4277" height="63.0054" filterUnits="userSpaceOnUse" color-interpolation-filters="sRGB">
<feFlood flood-opacity="0" result="BackgroundImageFix"/>
<feBlend mode="normal" in="SourceGraphic" in2="BackgroundImageFix" result="shape"/>
<feGaussianBlur stdDeviation="5" result="effect1_foregroundBlur_86_4041"/>
</filter>
<filter id="filter25_f_86_4041" x="1880.12" y="201.904" width="51.4277" height="63.0054" filterUnits="userSpaceOnUse" color-interpolation-filters="sRGB">
<feFlood flood-opacity="0" result="BackgroundImageFix"/>
<feBlend mode="normal" in="SourceGraphic" in2="BackgroundImageFix" result="shape"/>
<feGaussianBlur stdDeviation="5" result="effect1_foregroundBlur_86_4041"/>
</filter>
<filter id="filter26_f_86_4041" x="961.095" y="93" width="50" height="64" filterUnits="userSpaceOnUse" color-interpolation-filters="sRGB">
<feFlood flood-opacity="0" result="BackgroundImageFix"/>
<feBlend mode="normal" in="SourceGraphic" in2="BackgroundImageFix" result="shape"/>
<feGaussianBlur stdDeviation="5" result="effect1_foregroundBlur_86_4041"/>
</filter>
<filter id="filter27_f_86_4041" x="195.12" y="138.904" width="51.4277" height="63.0054" filterUnits="userSpaceOnUse" color-interpolation-filters="sRGB">
<feFlood flood-opacity="0" result="BackgroundImageFix"/>
<feBlend mode="normal" in="SourceGraphic" in2="BackgroundImageFix" result="shape"/>
<feGaussianBlur stdDeviation="5" result="effect1_foregroundBlur_86_4041"/>
</filter>
<filter id="filter28_f_86_4041" x="144.181" y="152.961" width="51.4756" height="62.9712" filterUnits="userSpaceOnUse" color-interpolation-filters="sRGB">
<feFlood flood-opacity="0" result="BackgroundImageFix"/>
<feBlend mode="normal" in="SourceGraphic" in2="BackgroundImageFix" result="shape"/>
<feGaussianBlur stdDeviation="5" result="effect1_foregroundBlur_86_4041"/>
</filter>
<filter id="filter29_f_86_4041" x="-14.8389" y="209.142" width="52.5664" height="62.1499" filterUnits="userSpaceOnUse" color-interpolation-filters="sRGB">
<feFlood flood-opacity="0" result="BackgroundImageFix"/>
<feBlend mode="normal" in="SourceGraphic" in2="BackgroundImageFix" result="shape"/>
<feGaussianBlur stdDeviation="5" result="effect1_foregroundBlur_86_4041"/>
</filter>
<filter id="filter30_f_86_4041" x="247.255" y="108.052" width="52.5664" height="62.1499" filterUnits="userSpaceOnUse" color-interpolation-filters="sRGB">
<feFlood flood-opacity="0" result="BackgroundImageFix"/>
<feBlend mode="normal" in="SourceGraphic" in2="BackgroundImageFix" result="shape"/>
<feGaussianBlur stdDeviation="5" result="effect1_foregroundBlur_86_4041"/>
</filter>
<filter id="filter31_f_86_4041" x="85.8242" y="157.151" width="52.8457" height="61.9326" filterUnits="userSpaceOnUse" color-interpolation-filters="sRGB">
<feFlood flood-opacity="0" result="BackgroundImageFix"/>
<feBlend mode="normal" in="SourceGraphic" in2="BackgroundImageFix" result="shape"/>
<feGaussianBlur stdDeviation="5" result="effect1_foregroundBlur_86_4041"/>
</filter>
<filter id="filter32_f_86_4041" x="33.4893" y="184.319" width="52.9023" height="61.8877" filterUnits="userSpaceOnUse" color-interpolation-filters="sRGB">
<feFlood flood-opacity="0" result="BackgroundImageFix"/>
<feBlend mode="normal" in="SourceGraphic" in2="BackgroundImageFix" result="shape"/>
<feGaussianBlur stdDeviation="5" result="effect1_foregroundBlur_86_4041"/>
</filter>
<clipPath id="clip0_86_4041">
<rect width="1920" height="929" fill="white"/>
</clipPath>
</defs>
</svg>
