<svg width="1920" height="929" viewBox="0 0 1920 929" fill="none" xmlns="http://www.w3.org/2000/svg">
<g clip-path="url(#clip0_205_5615)">
<path d="M957.032 74C957.032 74 1072.69 132.957 1181.35 74C1208.21 83.7888 1239.68 90.3777 1260.5 95M1554.5 91C1505 102.5 1454.5 112 1405.24 77.8027C1375 88.5 1349.98 90.4238 1341 93" stroke="#D8D8D8" stroke-miterlimit="10"/>
<path d="M978.584 82.9375C978.584 82.9375 967.297 80.1445 970.576 97.9435C970.576 97.9435 962.704 111.527 978.584 130.263C992.592 114.805 984.628 97.0073 984.628 97.0073C984.628 97.0073 984.16 82.7776 978.584 82.9375Z" fill="#EE2724"/>
<path d="M978.584 82.9375C978.584 82.9375 967.297 80.1445 970.576 97.9435C970.576 97.9435 962.704 111.527 978.584 130.263C992.592 114.805 984.628 97.0073 984.628 97.0073C984.628 97.0073 984.16 82.7776 978.584 82.9375Z" stroke="black" stroke-miterlimit="10"/>
<path d="M970.577 97.9444H984.628C984.628 97.9444 984.436 81.6504 978.584 82.9376C972.733 84.2265 968.704 82.9566 970.577 97.9444Z" fill="black"/>
<path d="M970.577 97.9444H984.628C984.628 97.9444 984.436 81.6504 978.584 82.9376C972.733 84.2265 968.704 82.9566 970.577 97.9444Z" stroke="black" stroke-miterlimit="10"/>
<path d="M1036 98.1052C1036 98.1052 1024.72 95.3112 1027.99 113.11C1027.99 113.11 1020.12 126.692 1036 145.429C1050.01 129.973 1042.05 112.173 1042.05 112.173C1042.05 112.173 1041.58 97.9444 1036 98.1052Z" fill="#EBE846"/>
<path d="M1036 98.1052C1036 98.1052 1024.72 95.3112 1027.99 113.11C1027.99 113.11 1020.12 126.692 1036 145.429C1050.01 129.973 1042.05 112.173 1042.05 112.173C1042.05 112.173 1041.58 97.9444 1036 98.1052Z" stroke="black" stroke-miterlimit="10"/>
<path d="M1027.99 113.11H1042.05C1042.05 113.11 1041.85 96.8154 1036 98.1052C1030.15 99.3915 1026.12 98.1224 1027.99 113.11Z" fill="black"/>
<path d="M1027.99 113.11H1042.05C1042.05 113.11 1041.85 96.8154 1036 98.1052C1030.15 99.3915 1026.12 98.1224 1027.99 113.11Z" stroke="black" stroke-miterlimit="10"/>
<path d="M1090.73 98.1052C1090.73 98.1052 1079.44 95.3112 1082.72 113.11C1082.72 113.11 1074.85 126.692 1090.73 145.429C1104.73 129.973 1096.77 112.173 1096.77 112.173C1096.77 112.173 1096.3 97.9444 1090.73 98.1052Z" fill="#1F3A6F"/>
<path d="M1090.73 98.1052C1090.73 98.1052 1079.44 95.3112 1082.72 113.11C1082.72 113.11 1074.85 126.692 1090.73 145.429C1104.73 129.973 1096.77 112.173 1096.77 112.173C1096.77 112.173 1096.3 97.9444 1090.73 98.1052Z" stroke="black" stroke-miterlimit="10"/>
<path d="M1082.72 113.11H1096.77C1096.77 113.11 1096.58 96.8154 1090.73 98.1052C1084.88 99.3915 1080.85 98.1224 1082.72 113.11Z" fill="black"/>
<path d="M1082.72 113.11H1096.77C1096.77 113.11 1096.58 96.8154 1090.73 98.1052C1084.88 99.3915 1080.85 98.1224 1082.72 113.11Z" stroke="black" stroke-miterlimit="10"/>
<path d="M1146.27 89.5281C1146.27 89.5281 1134.98 86.7351 1138.26 104.534C1138.26 104.534 1130.39 118.119 1146.27 136.852C1160.27 121.397 1152.31 103.597 1152.31 103.597C1152.31 103.597 1151.84 89.3673 1146.27 89.5281Z" fill="#85C550"/>
<path d="M1146.27 89.5281C1146.27 89.5281 1134.98 86.7351 1138.26 104.534C1138.26 104.534 1130.39 118.119 1146.27 136.852C1160.27 121.397 1152.31 103.597 1152.31 103.597C1152.31 103.597 1151.84 89.3673 1146.27 89.5281Z" stroke="black" stroke-miterlimit="10"/>
<path d="M1138.26 104.534H1152.31C1152.31 104.534 1152.12 88.24 1146.27 89.528C1140.41 90.8161 1136.39 89.5463 1138.26 104.534Z" fill="black"/>
<path d="M1138.26 104.534H1152.31C1152.31 104.534 1152.12 88.24 1146.27 89.528C1140.41 90.8161 1136.39 89.5463 1138.26 104.534Z" stroke="black" stroke-miterlimit="10"/>
<path d="M1203.44 82.9375C1203.44 82.9375 1192.15 80.1445 1195.43 97.9435C1195.43 97.9435 1187.56 111.527 1203.44 130.263C1217.44 114.805 1209.48 97.0073 1209.48 97.0073C1209.48 97.0073 1209.01 82.7776 1203.44 82.9375Z" fill="#D44799"/>
<path d="M1203.44 82.9375C1203.44 82.9375 1192.15 80.1445 1195.43 97.9435C1195.43 97.9435 1187.56 111.527 1203.44 130.263C1217.44 114.805 1209.48 97.0073 1209.48 97.0073C1209.48 97.0073 1209.01 82.7776 1203.44 82.9375Z" stroke="black" stroke-miterlimit="10"/>
<path d="M1195.43 97.9444H1209.48C1209.48 97.9444 1209.29 81.6504 1203.44 82.9376C1197.59 84.2265 1193.55 82.9566 1195.43 97.9444Z" fill="black"/>
<path d="M1195.43 97.9444H1209.48C1209.48 97.9444 1209.29 81.6504 1203.44 82.9376C1197.59 84.2265 1193.55 82.9566 1195.43 97.9444Z" stroke="black" stroke-miterlimit="10"/>
<path d="M1429.47 82.9375C1429.47 82.9375 1418.19 80.1445 1421.47 97.9435C1421.47 97.9435 1413.59 111.527 1429.47 130.263C1443.48 114.805 1435.52 97.0073 1435.52 97.0073C1435.52 97.0073 1435.05 82.7776 1429.47 82.9375Z" fill="#85C550"/>
<path d="M1429.47 82.9375C1429.47 82.9375 1418.19 80.1445 1421.47 97.9435C1421.47 97.9435 1413.59 111.527 1429.47 130.263C1443.48 114.805 1435.52 97.0073 1435.52 97.0073C1435.52 97.0073 1435.05 82.7776 1429.47 82.9375Z" stroke="black" stroke-miterlimit="10"/>
<path d="M1421.46 97.9444H1435.52C1435.52 97.9444 1435.32 81.6504 1429.47 82.9376C1423.62 84.2265 1419.59 82.9566 1421.46 97.9444Z" fill="black"/>
<path d="M1421.46 97.9444H1435.52C1435.52 97.9444 1435.32 81.6504 1429.47 82.9376C1423.62 84.2265 1419.59 82.9566 1421.46 97.9444Z" stroke="black" stroke-miterlimit="10"/>
<path d="M1485.05 98.1052C1485.05 98.1052 1473.77 95.3112 1477.05 113.11C1477.05 113.11 1469.17 126.692 1485.05 145.429C1499.06 129.973 1491.1 112.173 1491.1 112.173C1491.1 112.173 1490.63 97.9444 1485.05 98.1052Z" fill="#D44799"/>
<path d="M1485.05 98.1052C1485.05 98.1052 1473.77 95.3112 1477.05 113.11C1477.05 113.11 1469.17 126.692 1485.05 145.429C1499.06 129.973 1491.1 112.173 1491.1 112.173C1491.1 112.173 1490.63 97.9444 1485.05 98.1052Z" stroke="black" stroke-miterlimit="10"/>
<path d="M1477.05 113.11H1491.1C1491.1 113.11 1490.91 96.8154 1485.05 98.1052C1479.21 99.3915 1475.17 98.1224 1477.05 113.11Z" fill="black"/>
<path d="M1477.05 113.11H1491.1C1491.1 113.11 1490.91 96.8154 1485.05 98.1052C1479.21 99.3915 1475.17 98.1224 1477.05 113.11Z" stroke="black" stroke-miterlimit="10"/>
<path d="M1537.96 95.1594C1537.96 95.1594 1526.67 92.3663 1529.95 110.165C1529.95 110.165 1522.08 123.748 1537.96 142.484C1551.97 127.028 1544 109.227 1544 109.227C1544 109.227 1543.53 94.9994 1537.96 95.1594Z" fill="#EE2724"/>
<path d="M1379.96 85.1594C1379.96 85.1594 1368.67 82.3663 1371.95 100.165C1371.95 100.165 1364.08 113.748 1379.96 132.484C1393.97 117.028 1386 99.2273 1386 99.2273C1386 99.2273 1385.53 84.9994 1379.96 85.1594Z" fill="#EE2724"/>
<path d="M1537.96 95.1594C1537.96 95.1594 1526.67 92.3663 1529.95 110.165C1529.95 110.165 1522.08 123.748 1537.96 142.484C1551.97 127.028 1544 109.227 1544 109.227C1544 109.227 1543.53 94.9994 1537.96 95.1594Z" stroke="black" stroke-miterlimit="10"/>
<path d="M1379.96 85.1594C1379.96 85.1594 1368.67 82.3663 1371.95 100.165C1371.95 100.165 1364.08 113.748 1379.96 132.484C1393.97 117.028 1386 99.2273 1386 99.2273C1386 99.2273 1385.53 84.9994 1379.96 85.1594Z" stroke="black" stroke-miterlimit="10"/>
<path d="M1529.95 110.165H1544C1544 110.165 1543.81 93.8704 1537.96 95.1593C1532.11 96.4473 1528.08 95.1783 1529.95 110.165Z" fill="black"/>
<path d="M1371.95 100.165H1386C1386 100.165 1385.81 83.8704 1379.96 85.1593C1374.11 86.4473 1370.08 85.1783 1371.95 100.165Z" fill="black"/>
<path d="M1530.65 110.083H1544.7C1544.7 110.083 1544.51 93.7882 1538.66 95.0771C1532.81 96.3652 1528.77 95.0962 1530.65 110.083Z" stroke="black" stroke-miterlimit="10"/>
<path d="M283 74C283 74 398.654 132.957 507.317 74C587.881 103.359 619.984 114.337 731.207 77.8027C838.935 115.276 893.269 101.107 956.968 74" stroke="#D8D8D8" stroke-miterlimit="10"/>
<path d="M304.552 82.9375C304.552 82.9375 293.265 80.1445 296.544 97.9435C296.544 97.9435 288.672 111.527 304.552 130.263C318.559 114.805 310.595 97.0073 310.595 97.0073C310.595 97.0073 310.128 82.7776 304.552 82.9375Z" fill="#EE2724"/>
<path d="M304.552 82.9375C304.552 82.9375 293.265 80.1445 296.544 97.9435C296.544 97.9435 288.672 111.527 304.552 130.263C318.559 114.805 310.595 97.0073 310.595 97.0073C310.595 97.0073 310.128 82.7776 304.552 82.9375Z" stroke="black" stroke-miterlimit="10"/>
<path d="M296.545 97.9444H310.595C310.595 97.9444 310.404 81.6504 304.552 82.9376C298.701 84.2265 294.671 82.9566 296.545 97.9444Z" fill="black"/>
<path d="M296.545 97.9444H310.595C310.595 97.9444 310.404 81.6504 304.552 82.9376C298.701 84.2265 294.671 82.9566 296.545 97.9444Z" stroke="black" stroke-miterlimit="10"/>
<path d="M361.971 98.1052C361.971 98.1052 350.684 95.3112 353.963 113.11C353.963 113.11 346.091 126.692 361.971 145.429C375.978 129.973 368.016 112.173 368.016 112.173C368.016 112.173 367.546 97.9444 361.971 98.1052Z" fill="#EBE846"/>
<path d="M361.971 98.1052C361.971 98.1052 350.684 95.3112 353.963 113.11C353.963 113.11 346.091 126.692 361.971 145.429C375.978 129.973 368.016 112.173 368.016 112.173C368.016 112.173 367.546 97.9444 361.971 98.1052Z" stroke="black" stroke-miterlimit="10"/>
<path d="M353.962 113.11H368.015C368.015 113.11 367.822 96.8154 361.97 98.1052C356.122 99.3915 352.09 98.1224 353.962 113.11Z" fill="black"/>
<path d="M353.962 113.11H368.015C368.015 113.11 367.822 96.8154 361.97 98.1052C356.122 99.3915 352.09 98.1224 353.962 113.11Z" stroke="black" stroke-miterlimit="10"/>
<path d="M416.695 98.1052C416.695 98.1052 405.408 95.3112 408.687 113.11C408.687 113.11 400.816 126.692 416.695 145.429C430.701 129.973 422.738 112.173 422.738 112.173C422.738 112.173 422.27 97.9444 416.695 98.1052Z" fill="#1F3A6F"/>
<path d="M416.695 98.1052C416.695 98.1052 405.408 95.3112 408.687 113.11C408.687 113.11 400.816 126.692 416.695 145.429C430.701 129.973 422.738 112.173 422.738 112.173C422.738 112.173 422.27 97.9444 416.695 98.1052Z" stroke="black" stroke-miterlimit="10"/>
<path d="M408.688 113.11H422.738C422.738 113.11 422.546 96.8154 416.695 98.1052C410.846 99.3915 406.814 98.1224 408.688 113.11Z" fill="black"/>
<path d="M408.688 113.11H422.738C422.738 113.11 422.546 96.8154 416.695 98.1052C410.846 99.3915 406.814 98.1224 408.688 113.11Z" stroke="black" stroke-miterlimit="10"/>
<path d="M472.234 89.5281C472.234 89.5281 460.947 86.7351 464.225 104.534C464.225 104.534 456.354 118.119 472.234 136.852C486.242 121.397 478.277 103.597 478.277 103.597C478.277 103.597 477.809 89.3673 472.234 89.5281Z" fill="#85C550"/>
<path d="M472.234 89.5281C472.234 89.5281 460.947 86.7351 464.225 104.534C464.225 104.534 456.354 118.119 472.234 136.852C486.242 121.397 478.277 103.597 478.277 103.597C478.277 103.597 477.809 89.3673 472.234 89.5281Z" stroke="black" stroke-miterlimit="10"/>
<path d="M464.226 104.534H478.277C478.277 104.534 478.085 88.24 472.235 89.528C466.382 90.8161 462.354 89.5463 464.226 104.534Z" fill="black"/>
<path d="M464.226 104.534H478.277C478.277 104.534 478.085 88.24 472.235 89.528C466.382 90.8161 462.354 89.5463 464.226 104.534Z" stroke="black" stroke-miterlimit="10"/>
<path d="M529.404 82.9375C529.404 82.9375 518.117 80.1445 521.395 97.9435C521.395 97.9435 513.524 111.527 529.404 130.263C543.409 114.805 535.447 97.0073 535.447 97.0073C535.447 97.0073 534.979 82.7776 529.404 82.9375Z" fill="#D44799"/>
<path d="M529.404 82.9375C529.404 82.9375 518.117 80.1445 521.395 97.9435C521.395 97.9435 513.524 111.527 529.404 130.263C543.409 114.805 535.447 97.0073 535.447 97.0073C535.447 97.0073 534.979 82.7776 529.404 82.9375Z" stroke="black" stroke-miterlimit="10"/>
<path d="M521.395 97.9444H535.447C535.447 97.9444 535.253 81.6504 529.404 82.9376C523.553 84.2265 519.522 82.9566 521.395 97.9444Z" fill="black"/>
<path d="M521.395 97.9444H535.447C535.447 97.9444 535.253 81.6504 529.404 82.9376C523.553 84.2265 519.522 82.9566 521.395 97.9444Z" stroke="black" stroke-miterlimit="10"/>
<path d="M587.073 98.1052C587.073 98.1052 575.785 95.3112 579.063 113.11C579.063 113.11 571.194 126.692 587.073 145.429C601.078 129.973 593.115 112.173 593.115 112.173C593.115 112.173 592.647 97.9444 587.073 98.1052Z" fill="#EE2724"/>
<path d="M587.073 98.1052C587.073 98.1052 575.785 95.3112 579.063 113.11C579.063 113.11 571.194 126.692 587.073 145.429C601.078 129.973 593.115 112.173 593.115 112.173C593.115 112.173 592.647 97.9444 587.073 98.1052Z" stroke="black" stroke-miterlimit="10"/>
<path d="M579.063 113.11H593.115C593.115 113.11 592.921 96.8154 587.073 98.1052C581.221 99.3915 577.189 98.1224 579.063 113.11Z" fill="black"/>
<path d="M579.063 113.11H593.115C593.115 113.11 592.921 96.8154 587.073 98.1052C581.221 99.3915 577.189 98.1224 579.063 113.11Z" stroke="black" stroke-miterlimit="10"/>
<path d="M643.529 98.1052C643.529 98.1052 632.242 95.3112 635.522 113.11C635.522 113.11 627.648 126.692 643.529 145.429C657.536 129.973 649.571 112.173 649.571 112.173C649.571 112.173 649.104 97.9444 643.529 98.1052Z" fill="#EBE846"/>
<path d="M643.529 98.1052C643.529 98.1052 632.242 95.3112 635.522 113.11C635.522 113.11 627.648 126.692 643.529 145.429C657.536 129.973 649.571 112.173 649.571 112.173C649.571 112.173 649.104 97.9444 643.529 98.1052Z" stroke="black" stroke-miterlimit="10"/>
<path d="M635.522 113.11H649.571C649.571 113.11 649.38 96.8154 643.529 98.1052C637.68 99.3915 633.648 98.1224 635.522 113.11Z" fill="black"/>
<path d="M635.522 113.11H649.571C649.571 113.11 649.38 96.8154 643.529 98.1052C637.68 99.3915 633.648 98.1224 635.522 113.11Z" stroke="black" stroke-miterlimit="10"/>
<path d="M697.015 89.5281C697.015 89.5281 685.728 86.7351 689.006 104.534C689.006 104.534 681.136 118.119 697.015 136.852C711.02 121.397 703.057 103.597 703.057 103.597C703.057 103.597 702.59 89.3673 697.015 89.5281Z" fill="#1F3A6F"/>
<path d="M697.015 89.5281C697.015 89.5281 685.728 86.7351 689.006 104.534C689.006 104.534 681.136 118.119 697.015 136.852C711.02 121.397 703.057 103.597 703.057 103.597C703.057 103.597 702.59 89.3673 697.015 89.5281Z" stroke="black" stroke-miterlimit="10"/>
<path d="M689.006 104.534H703.058C703.058 104.534 702.863 88.24 697.015 89.528C691.163 90.8161 687.131 89.5463 689.006 104.534Z" fill="black"/>
<path d="M689.006 104.534H703.058C703.058 104.534 702.863 88.24 697.015 89.528C691.163 90.8161 687.131 89.5463 689.006 104.534Z" stroke="black" stroke-miterlimit="10"/>
<path d="M755.441 82.9375C755.441 82.9375 744.154 80.1445 747.433 97.9435C747.433 97.9435 739.559 111.527 755.441 130.263C769.447 114.805 761.485 97.0073 761.485 97.0073C761.485 97.0073 761.015 82.7776 755.441 82.9375Z" fill="#85C550"/>
<path d="M755.441 82.9375C755.441 82.9375 744.154 80.1445 747.433 97.9435C747.433 97.9435 739.559 111.527 755.441 130.263C769.447 114.805 761.485 97.0073 761.485 97.0073C761.485 97.0073 761.015 82.7776 755.441 82.9375Z" stroke="black" stroke-miterlimit="10"/>
<path d="M747.433 97.9444H761.484C761.484 97.9444 761.29 81.6504 755.44 82.9376C749.59 84.2265 745.559 82.9566 747.433 97.9444Z" fill="black"/>
<path d="M747.433 97.9444H761.484C761.484 97.9444 761.29 81.6504 755.44 82.9376C749.59 84.2265 745.559 82.9566 747.433 97.9444Z" stroke="black" stroke-miterlimit="10"/>
<path d="M811.021 98.1052C811.021 98.1052 799.734 95.3112 803.014 113.11C803.014 113.11 795.139 126.692 811.021 145.429C825.028 129.973 817.063 112.173 817.063 112.173C817.063 112.173 816.597 97.9444 811.021 98.1052Z" fill="#D44799"/>
<path d="M811.021 98.1052C811.021 98.1052 799.734 95.3112 803.014 113.11C803.014 113.11 795.139 126.692 811.021 145.429C825.028 129.973 817.063 112.173 817.063 112.173C817.063 112.173 816.597 97.9444 811.021 98.1052Z" stroke="black" stroke-miterlimit="10"/>
<path d="M803.015 113.11H817.064C817.064 113.11 816.873 96.8154 811.022 98.1052C805.173 99.3915 801.14 98.1224 803.015 113.11Z" fill="black"/>
<path d="M803.015 113.11H817.064C817.064 113.11 816.873 96.8154 811.022 98.1052C805.173 99.3915 801.14 98.1224 803.015 113.11Z" stroke="black" stroke-miterlimit="10"/>
<path d="M864.623 101.077C864.623 101.077 853.338 98.2841 856.616 116.083C856.616 116.083 848.742 129.665 864.623 148.401C878.63 132.946 870.667 115.145 870.667 115.145C870.667 115.145 870.199 100.917 864.623 101.077Z" fill="#EE2724"/>
<path d="M864.623 101.077C864.623 101.077 853.338 98.2841 856.616 116.083C856.616 116.083 848.742 129.665 864.623 148.401C878.63 132.946 870.667 115.145 870.667 115.145C870.667 115.145 870.199 100.917 864.623 101.077Z" stroke="black" stroke-miterlimit="10"/>
<path d="M856.616 116.083H870.668C870.668 116.083 870.475 99.7882 864.624 101.077C858.773 102.365 854.742 101.096 856.616 116.083Z" fill="black"/>
<path d="M856.616 116.083H870.668C870.668 116.083 870.475 99.7882 864.624 101.077C858.773 102.365 854.742 101.096 856.616 116.083Z" stroke="black" stroke-miterlimit="10"/>
<path d="M923.712 89.5281C923.712 89.5281 912.427 86.7351 915.705 104.534C915.705 104.534 907.834 118.119 923.712 136.852C937.719 121.397 929.756 103.597 929.756 103.597C929.756 103.597 929.287 89.3673 923.712 89.5281Z" fill="#EBE846"/>
<path d="M923.712 89.5281C923.712 89.5281 912.427 86.7351 915.705 104.534C915.705 104.534 907.834 118.119 923.712 136.852C937.719 121.397 929.756 103.597 929.756 103.597C929.756 103.597 929.287 89.3673 923.712 89.5281Z" stroke="black" stroke-miterlimit="10"/>
<path d="M915.704 104.534H929.756C929.756 104.534 929.563 88.24 923.712 89.528C917.862 90.8161 913.83 89.5463 915.704 104.534Z" fill="black"/>
<path d="M915.704 104.534H929.756C929.756 104.534 929.563 88.24 923.712 89.528C917.862 90.8161 913.83 89.5463 915.704 104.534Z" stroke="black" stroke-miterlimit="10"/>
<path d="M2269.14 283.468C2200.19 289.651 2144.14 286.405 2053.18 217.59C1936.11 218.112 1908.94 197.785 1841.33 145.052C1762.68 159.705 1696.45 126.48 1659.5 101.204" stroke="#D8D8D8" stroke-miterlimit="10"/>
<path d="M1695.62 123.244C1695.62 123.244 1685.74 117.111 1683.38 135.055C1683.38 135.055 1671.71 145.555 1681.05 168.27C1699.14 157.877 1697.04 138.49 1697.04 138.49C1697.04 138.49 1700.97 124.807 1695.62 123.244Z" fill="#EBE846"/>
<path d="M1695.62 123.244C1695.62 123.244 1685.74 117.111 1683.38 135.055C1683.38 135.055 1671.71 145.555 1681.05 168.27C1699.14 157.877 1697.04 138.49 1697.04 138.49C1697.04 138.49 1700.97 124.807 1695.62 123.244Z" stroke="black" stroke-miterlimit="10"/>
<path d="M1683.38 135.055L1696.75 139.382C1696.75 139.382 1701.58 123.818 1695.62 123.244C1689.66 122.668 1686.21 120.219 1683.38 135.055Z" fill="black"/>
<path d="M1683.38 135.055L1696.75 139.382C1696.75 139.382 1701.58 123.818 1695.62 123.244C1689.66 122.668 1686.21 120.219 1683.38 135.055Z" stroke="black" stroke-miterlimit="10"/>
<path d="M1747.69 140.09C1747.69 140.09 1737.81 133.957 1735.45 151.901C1735.45 151.901 1723.78 162.401 1733.12 185.116C1751.2 174.722 1749.1 155.335 1749.1 155.335C1749.1 155.335 1753.04 141.653 1747.69 140.09Z" fill="#1F3A6F"/>
<path d="M1747.69 140.09C1747.69 140.09 1737.81 133.957 1735.45 151.901C1735.45 151.901 1723.78 162.401 1733.12 185.116C1751.2 174.722 1749.1 155.335 1749.1 155.335C1749.1 155.335 1753.04 141.653 1747.69 140.09Z" stroke="black" stroke-miterlimit="10"/>
<path d="M1735.45 151.902L1748.82 156.227C1748.82 156.227 1753.65 140.664 1747.69 140.09C1741.72 139.513 1738.28 137.065 1735.45 151.902Z" fill="black"/>
<path d="M1735.45 151.902L1748.82 156.227C1748.82 156.227 1753.65 140.664 1747.69 140.09C1741.72 139.513 1738.28 137.065 1735.45 151.902Z" stroke="black" stroke-miterlimit="10"/>
<path d="M1803.17 149.026C1803.17 149.026 1793.29 142.894 1790.93 160.838C1790.93 160.838 1779.26 171.34 1788.6 194.052C1806.69 183.659 1804.59 164.272 1804.59 164.272C1804.59 164.272 1808.52 150.589 1803.17 149.026Z" fill="#85C550"/>
<path d="M1803.17 149.026C1803.17 149.026 1793.29 142.894 1790.93 160.838C1790.93 160.838 1779.26 171.34 1788.6 194.052C1806.69 183.659 1804.59 164.272 1804.59 164.272C1804.59 164.272 1808.52 150.589 1803.17 149.026Z" stroke="black" stroke-miterlimit="10"/>
<path d="M1790.93 160.838L1804.3 165.164C1804.3 165.164 1809.13 149.602 1803.17 149.026C1797.2 148.45 1793.76 146.002 1790.93 160.838Z" fill="black"/>
<path d="M1790.93 160.838L1804.3 165.164C1804.3 165.164 1809.13 149.602 1803.17 149.026C1797.2 148.45 1793.76 146.002 1790.93 160.838Z" stroke="black" stroke-miterlimit="10"/>
<path d="M1859.59 160.354C1859.59 160.354 1849.71 154.222 1847.35 172.166C1847.35 172.166 1835.68 182.667 1845.02 205.382C1863.11 194.986 1861.01 175.601 1861.01 175.601C1861.01 175.601 1864.94 161.918 1859.59 160.354Z" fill="#D44799"/>
<path d="M1859.59 160.354C1859.59 160.354 1849.71 154.222 1847.35 172.166C1847.35 172.166 1835.68 182.667 1845.02 205.382C1863.11 194.986 1861.01 175.601 1861.01 175.601C1861.01 175.601 1864.94 161.918 1859.59 160.354Z" stroke="black" stroke-miterlimit="10"/>
<path d="M1847.35 172.167L1860.72 176.492C1860.72 176.492 1865.55 160.93 1859.59 160.354C1853.63 159.779 1850.18 157.33 1847.35 172.167Z" fill="black"/>
<path d="M1847.35 172.167L1860.72 176.492C1860.72 176.492 1865.55 160.93 1859.59 160.354C1853.63 159.779 1850.18 157.33 1847.35 172.167Z" stroke="black" stroke-miterlimit="10"/>
<path d="M1909.79 192.538C1909.79 192.538 1899.91 186.405 1897.55 204.349C1897.55 204.349 1885.88 214.849 1895.22 237.564C1913.3 227.169 1911.21 207.783 1911.21 207.783C1911.21 207.783 1915.14 194.101 1909.79 192.538Z" fill="#EE2724"/>
<path d="M1909.79 192.538C1909.79 192.538 1899.91 186.405 1897.55 204.349C1897.55 204.349 1885.88 214.849 1895.22 237.564C1913.3 227.169 1911.21 207.783 1911.21 207.783C1911.21 207.783 1915.14 194.101 1909.79 192.538Z" stroke="black" stroke-miterlimit="10"/>
<path d="M1897.55 204.349L1910.92 208.674C1910.92 208.674 1915.75 193.111 1909.79 192.538C1903.83 191.96 1900.38 189.512 1897.55 204.349Z" fill="black"/>
<path d="M1897.55 204.349L1910.92 208.674C1910.92 208.674 1915.75 193.111 1909.79 192.538C1903.83 191.96 1900.38 189.512 1897.55 204.349Z" stroke="black" stroke-miterlimit="10"/>
<path d="M-353.954 297.89C-353.954 297.89 -225.229 314.674 -142.611 222.707C-56.8672 223.366 -22.9418 222.949 69.6033 151.25C183.659 150.449 230.102 118.889 281.032 72" stroke="#D8D8D8" stroke-miterlimit="10"/>
<path d="M-6.19866 199.765C-6.19866 199.765 -17.7694 200.915 -8.71295 216.585C-8.71295 216.585 -11.5794 232.021 9.66272 244.351C17.6796 225.094 4.2094 210.994 4.2094 210.994C4.2094 210.994 -1.00018 197.745 -6.19866 199.765Z" fill="#EBE846"/>
<path d="M-6.19866 199.765C-6.19866 199.765 -17.7694 200.915 -8.71295 216.585C-8.71295 216.585 -11.5794 232.021 9.66272 244.351C17.6796 225.094 4.2094 210.994 4.2094 210.994C4.2094 210.994 -1.00018 197.745 -6.19866 199.765Z" stroke="black" stroke-miterlimit="10"/>
<path d="M-8.71354 216.585L4.52288 211.876C4.52288 211.876 -1.11853 196.588 -6.19925 199.765C-11.2787 202.937 -15.5026 203.092 -8.71354 216.585Z" fill="black"/>
<path d="M-8.71354 216.585L4.52288 211.876C4.52288 211.876 -1.11853 196.588 -6.19925 199.765C-11.2787 202.937 -15.5026 203.092 -8.71354 216.585Z" stroke="black" stroke-miterlimit="10"/>
<path d="M41.3185 173.757C41.3185 173.757 29.7482 174.909 38.8021 190.579C38.8021 190.579 35.9405 206.016 57.1799 218.344C65.1947 199.088 51.7269 184.987 51.7269 184.987C51.7269 184.987 46.517 171.737 41.3185 173.757Z" fill="#1F3A6F"/>
<path d="M41.3185 173.757C41.3185 173.757 29.7482 174.909 38.8021 190.579C38.8021 190.579 35.9405 206.016 57.1799 218.344C65.1947 199.088 51.7269 184.987 51.7269 184.987C51.7269 184.987 46.517 171.737 41.3185 173.757Z" stroke="black" stroke-miterlimit="10"/>
<path d="M38.8027 190.579L52.0415 185.87C52.0415 185.87 46.3971 170.583 41.3191 173.757C36.237 176.932 32.0128 177.087 38.8027 190.579Z" fill="black"/>
<path d="M38.8027 190.579L52.0415 185.87C52.0415 185.87 46.3971 170.583 41.3191 173.757C36.237 176.932 32.0128 177.087 38.8027 190.579Z" stroke="black" stroke-miterlimit="10"/>
<path d="M94.1555 147.965C94.1555 147.965 82.5852 149.117 91.6407 164.787C91.6407 164.787 88.7748 180.225 110.017 192.554C118.032 173.296 104.566 159.196 104.566 159.196C104.566 159.196 99.3535 145.947 94.1555 147.965Z" fill="#85C550"/>
<path d="M94.1555 147.965C94.1555 147.965 82.5852 149.117 91.6407 164.787C91.6407 164.787 88.7748 180.225 110.017 192.554C118.032 173.296 104.566 159.196 104.566 159.196C104.566 159.196 99.3535 145.947 94.1555 147.965Z" stroke="black" stroke-miterlimit="10"/>
<path d="M91.6415 164.788L104.88 160.079C104.88 160.079 99.2359 144.792 94.1559 147.966C89.0766 151.14 84.8524 151.295 91.6415 164.788Z" fill="black"/>
<path d="M91.6415 164.788L104.88 160.079C104.88 160.079 99.2359 144.792 94.1559 147.966C89.0766 151.14 84.8524 151.295 91.6415 164.788Z" stroke="black" stroke-miterlimit="10"/>
<path d="M151.605 143.627C151.605 143.627 140.034 144.778 149.09 160.448C149.09 160.448 146.223 175.884 167.466 188.214C175.483 168.957 162.013 154.856 162.013 154.856C162.013 154.856 156.804 141.607 151.605 143.627Z" fill="#D44799"/>
<path d="M151.605 143.627C151.605 143.627 140.034 144.778 149.09 160.448C149.09 160.448 146.223 175.884 167.466 188.214C175.483 168.957 162.013 154.856 162.013 154.856C162.013 154.856 156.804 141.607 151.605 143.627Z" stroke="black" stroke-miterlimit="10"/>
<path d="M149.091 160.448L162.328 155.739C162.328 155.739 156.687 140.451 151.606 143.627C146.527 146.799 142.302 146.955 149.091 160.448Z" fill="black"/>
<path d="M149.091 160.448L162.328 155.739C162.328 155.739 156.687 140.451 151.606 143.627C146.527 146.799 142.302 146.955 149.091 160.448Z" stroke="black" stroke-miterlimit="10"/>
<path d="M203.102 128.462C203.102 128.462 191.534 129.613 200.588 145.284C200.588 145.284 197.722 160.719 218.964 173.049C226.98 153.793 213.512 139.69 213.512 139.69C213.512 139.69 208.302 126.442 203.102 128.462Z" fill="#EE2724"/>
<path d="M203.102 128.462C203.102 128.462 191.534 129.613 200.588 145.284C200.588 145.284 197.722 160.719 218.964 173.049C226.98 153.793 213.512 139.69 213.512 139.69C213.512 139.69 208.302 126.442 203.102 128.462Z" stroke="black" stroke-miterlimit="10"/>
<path d="M200.589 145.283L213.827 140.574C213.827 140.574 208.184 125.286 203.103 128.462C198.023 131.636 193.8 131.791 200.589 145.283Z" fill="black"/>
<path d="M200.589 145.283L213.827 140.574C213.827 140.574 208.184 125.286 203.103 128.462C198.023 131.636 193.8 131.791 200.589 145.283Z" stroke="black" stroke-miterlimit="10"/>
<path d="M254.903 97.7762C254.903 97.7762 243.335 98.9272 252.389 114.598C252.389 114.598 249.526 130.035 270.765 142.363C278.781 123.107 265.313 109.006 265.313 109.006C265.313 109.006 260.102 95.7562 254.903 97.7762Z" fill="#EBE846"/>
<path d="M254.903 97.7762C254.903 97.7762 243.335 98.9272 252.389 114.598C252.389 114.598 249.526 130.035 270.765 142.363C278.781 123.107 265.313 109.006 265.313 109.006C265.313 109.006 260.102 95.7562 254.903 97.7762Z" stroke="black" stroke-miterlimit="10"/>
<path d="M252.388 114.598L265.627 109.888C265.627 109.888 259.984 94.6015 254.903 97.7762C249.823 100.95 245.599 101.105 252.388 114.598Z" fill="black"/>
<path d="M252.388 114.598L265.627 109.888C265.627 109.888 259.984 94.6015 254.903 97.7762C249.823 100.95 245.599 101.105 252.388 114.598Z" stroke="black" stroke-miterlimit="10"/>
</g>
<defs>
<clipPath id="clip0_205_5615">
<rect width="1920" height="929" fill="white"/>
</clipPath>
</defs>
</svg>
