<svg width="203" height="138" viewBox="0 0 203 138" fill="none" xmlns="http://www.w3.org/2000/svg">
<path d="M13.6911 90.5208C13.6911 90.5208 2.30165 92.8725 12.9404 107.514C12.9404 107.514 11.6993 123.166 34.1123 133.214C40.081 113.224 25.2151 100.605 25.2151 100.605C25.2151 100.605 18.653 87.9701 13.6911 90.5208Z" fill="#EE2724"/>
<path d="M13.6911 90.5208C13.6911 90.5208 2.30165 92.8725 12.9404 107.514C12.9404 107.514 11.6993 123.166 34.1123 133.214C40.081 113.224 25.2151 100.605 25.2151 100.605C25.2151 100.605 18.653 87.9701 13.6911 90.5208Z" stroke="black" stroke-miterlimit="10"/>
<path d="M12.9415 107.514L25.6193 101.45C25.6193 101.45 18.4153 86.8341 13.691 90.5207C8.96745 94.2088 4.78398 94.8022 12.9415 107.514Z" fill="black"/>
<path d="M12.9415 107.514L25.6193 101.45C25.6193 101.45 18.4153 86.8341 13.691 90.5207C8.96745 94.2088 4.78398 94.8022 12.9415 107.514Z" stroke="black" stroke-miterlimit="10"/>
<path d="M55.6909 58.5214C55.6909 58.5214 44.3011 60.8723 54.9398 75.5139C54.9398 75.5139 53.698 91.1639 76.1114 101.213C82.0808 81.2243 67.2157 68.6033 67.2157 68.6033C67.2157 68.6033 60.6516 55.9703 55.6909 58.5214Z" fill="#EBE846"/>
<path d="M55.6909 58.5214C55.6909 58.5214 44.3011 60.8723 54.9398 75.5139C54.9398 75.5139 53.698 91.1639 76.1114 101.213C82.0808 81.2243 67.2157 68.6033 67.2157 68.6033C67.2157 68.6033 60.6516 55.9703 55.6909 58.5214Z" stroke="black" stroke-miterlimit="10"/>
<path d="M54.9401 75.5142L67.6203 69.449C67.6203 69.449 60.4143 54.8328 55.6911 58.5218C50.9688 62.2064 46.7834 62.8016 54.9401 75.5142Z" fill="black"/>
<path d="M54.9401 75.5142L67.6203 69.449C67.6203 69.449 60.4143 54.8328 55.6911 58.5218C50.9688 62.2064 46.7834 62.8016 54.9401 75.5142Z" stroke="black" stroke-miterlimit="10"/>
<path d="M108.69 33.5208C108.69 33.5208 97.3004 35.8717 107.94 50.5128C107.94 50.5128 106.698 66.1629 129.111 76.2125C135.079 56.224 120.213 43.6034 120.213 43.6034C120.213 43.6034 113.652 30.9693 108.69 33.5208Z" fill="#1F3A6F"/>
<path d="M108.69 33.5208C108.69 33.5208 97.3004 35.8717 107.94 50.5128C107.94 50.5128 106.698 66.1629 129.111 76.2125C135.079 56.224 120.213 43.6034 120.213 43.6034C120.213 43.6034 113.652 30.9693 108.69 33.5208Z" stroke="black" stroke-miterlimit="10"/>
<path d="M107.94 50.5129L120.618 44.4492C120.618 44.4492 113.413 29.8323 108.69 33.5212C103.968 37.2059 99.7822 37.8011 107.94 50.5129Z" fill="black"/>
<path d="M107.94 50.5129L120.618 44.4492C120.618 44.4492 113.413 29.8323 108.69 33.5212C103.968 37.2059 99.7822 37.8011 107.94 50.5129Z" stroke="black" stroke-miterlimit="10"/>
<path d="M175.552 13.5674C175.552 13.5674 164.105 11.5156 168.536 29.0632C168.536 29.0632 161.564 43.1319 178.634 60.7911C191.608 44.4561 182.5 27.2128 182.5 27.2128C182.5 27.2128 181.106 13.0438 175.552 13.5674Z" fill="#85C550"/>
<path d="M175.552 13.5674C175.552 13.5674 164.105 11.5156 168.536 29.0632C168.536 29.0632 161.564 43.1319 178.634 60.7911C191.608 44.4561 182.5 27.2128 182.5 27.2128C182.5 27.2128 181.106 13.0438 175.552 13.5674Z" stroke="black" stroke-miterlimit="10"/>
<path d="M168.536 29.0627L182.561 28.1475C182.561 28.1475 181.308 11.9005 175.553 13.5669C169.796 15.2334 165.692 14.2287 168.536 29.0627Z" fill="black"/>
<path d="M168.536 29.0627L182.561 28.1475C182.561 28.1475 181.308 11.9005 175.553 13.5669C169.796 15.2334 165.692 14.2287 168.536 29.0627Z" stroke="black" stroke-miterlimit="10"/>
</svg>
