<svg width="34" height="66" viewBox="0 0 34 66" fill="none" xmlns="http://www.w3.org/2000/svg">
<path d="M27.5977 57.0836C31.1434 58.7906 31.6555 59.6158 31.9102 64.3317C30.9654 63.8611 29.8486 63.6751 29.4954 63.0556C28.4541 61.2647 26.4675 59.6558 27.5977 57.0836Z" fill="#AA2828"/>
<path d="M27.0598 48.4398C27.3998 51.5008 27.1097 54.5008 26.5097 57.4608C25.9497 60.2798 24.5198 62.4307 21.2798 62.7797C20.0498 61.2107 20.7598 59.5597 20.5598 58.0507C20.2498 55.7507 19.6997 53.6308 17.2597 52.6608C16.9897 52.5508 16.6597 52.6098 16.2297 52.5908C14.1597 55.2798 15.5998 58.3607 15.5298 61.2507C14.0798 62.2707 12.7098 61.8907 11.3998 61.2797C10.1698 60.7107 9.65975 59.6398 9.13975 58.3898C8.44975 56.7298 7.98976 55.0798 8.02976 53.3198C8.10976 50.1308 8.25975 46.9398 8.41975 43.7598C8.67975 38.5098 9.02975 33.2598 9.22975 28.0098C9.40975 23.3698 10.0997 18.8398 11.6697 14.2098C15.2797 13.9298 18.9498 15.1597 22.4998 13.1987C22.8998 14.2197 23.3398 14.9097 23.4398 15.6487C24.1998 21.0187 24.9798 26.3787 25.5598 31.7587C26.1598 37.3097 26.4598 42.8898 27.0598 48.4398ZM21.6198 45.6097C21.3898 45.1397 21.0598 44.0497 20.3698 43.2997C19.9498 42.8397 18.6697 42.5288 18.2597 42.8198C16.4997 44.0698 14.3498 44.9108 13.2398 46.9398C12.4998 48.2908 13.0698 49.7997 14.4998 50.4897C17.8598 52.1097 21.4198 49.9697 21.6198 45.6097ZM20.2897 23.8597C20.3897 22.3397 19.2998 20.8708 17.9698 20.6398C15.7598 20.2698 13.5498 21.8498 13.1098 24.1298C12.7598 25.8898 13.5897 27.5097 15.0697 27.9297C16.9697 28.4697 19.1098 27.2497 19.9298 25.1497C20.0998 24.7097 20.1897 24.2397 20.2897 23.8597ZM18.8897 39.1398C20.4797 38.1798 21.2998 36.7297 21.3998 35.0297C21.2898 33.2907 19.6198 31.9207 18.1098 32.2507C15.9998 32.7107 14.4097 33.9207 13.4497 35.8807C12.8697 37.0697 13.2898 38.5208 14.4298 39.1708C15.9098 40.0198 17.4297 40.0198 18.8897 39.1398Z" fill="#E12626"/>
<path d="M19.8697 2.56968C20.8497 5.21068 21.1997 8.76 22.1997 12C20.7597 12.71 20.2197 12.5896 19.2197 12.7796C17.0497 13.1706 14.3428 13.7106 11.9828 12.7796C12.5628 9.09064 14.5097 5.26965 16.2897 2.13065C17.2397 0.459654 19.1697 0.66968 19.8697 2.56968Z" fill="#AA2828"/>
<path d="M17.1097 54.3896C20.1597 57.0696 18.9697 59.9896 18.6597 63.3896C16.1997 60.4296 16.5397 57.6396 17.1097 54.3896Z" fill="#AA2828"/>
<path d="M7.12061 56.6538C8.11 57.4111 8.11818 58.3536 7.70745 58.943C6.30346 61.0004 4.58395 62.7736 2 63.514C3.08557 60.6509 4.50145 58.153 7.12061 56.6538Z" fill="#AA2828"/>
<path d="M27.3482 56.4085L27.8146 56.6331C29.5831 57.4845 30.7292 58.1713 31.4173 59.3228C32.0933 60.4541 32.2831 61.9645 32.4094 64.3048L32.4557 65.162L31.6873 64.7793C31.3984 64.6354 31.117 64.5296 30.8226 64.4189C30.6507 64.3542 30.4744 64.2879 30.2897 64.2115C29.854 64.0311 29.3326 63.7775 29.0624 63.3055C28.8457 62.9331 28.5853 62.5681 28.3062 62.177C28.2688 62.1246 28.2312 62.0718 28.1932 62.0185C27.8783 61.5757 27.5483 61.1001 27.2873 60.5906C26.9698 59.9709 26.7523 59.2955 26.7606 58.5452C26.448 59.6174 25.9756 60.5912 25.273 61.3792C24.3499 62.4145 23.064 63.0904 21.3333 63.2768L21.0574 63.3066L20.8863 63.0882C20.1767 62.1831 20.0349 61.2522 20.0335 60.3935C20.033 60.087 20.051 59.775 20.0677 59.4834C20.0737 59.3797 20.0795 59.2785 20.0843 59.1811C20.1032 58.7965 20.1079 58.4478 20.0642 58.1175C19.7558 55.829 19.234 53.9837 17.075 53.1254L17.0711 53.1238C17.0278 53.1062 16.9571 53.0929 16.8007 53.0916C16.7615 53.0913 16.7098 53.092 16.6505 53.0928C16.5985 53.0936 16.5407 53.0944 16.4803 53.0946C15.6794 54.2467 15.5448 55.4819 15.6288 56.8139C15.6645 57.3816 15.7385 57.9505 15.815 58.5379C15.8346 58.6886 15.8543 58.8406 15.8737 58.9941C15.9669 59.7344 16.0481 60.5004 16.0296 61.2628L16.0235 61.5147L15.8174 61.6597C14.9976 62.2364 14.1794 62.4268 13.3804 62.3758C12.5992 62.326 11.8616 62.0468 11.1891 61.7332C9.76541 61.0742 9.19504 59.8245 8.6781 58.5818L8.67805 58.5817C8.60333 58.4019 8.53108 58.2219 8.46164 58.0414C8.48114 58.4824 8.34925 58.8956 8.11919 59.2267C6.6858 61.3267 4.88217 63.2082 2.13773 63.9946L1.17884 64.2694L1.53248 63.3367C2.63154 60.438 4.10103 57.8061 6.87223 56.2199L7.16064 56.0548L7.42452 56.2568C7.69467 56.4636 7.91072 56.6895 8.07434 56.9274C7.71494 55.7607 7.50133 54.5651 7.52989 53.3084L7.52992 53.3072C7.61009 50.1115 7.76035 46.9152 7.92037 43.7348L27.3482 56.4085ZM27.3482 56.4085L27.14 56.8824C27.135 56.8938 27.1301 56.9051 27.1252 56.9164M27.3482 56.4085L27.1252 56.9164M27.1252 56.9164C27.6458 54.1296 27.8793 51.2889 27.5567 48.3848C27.2577 45.6181 27.0332 42.8427 26.8081 40.0593L26.8078 40.0548C26.583 37.2748 26.3576 34.4869 26.0569 31.7051C25.5313 26.8301 24.8419 21.9719 24.153 17.1176C24.0803 16.6051 24.0076 16.0926 23.935 15.5801C23.875 15.1386 23.716 14.7287 23.54 14.3283C23.4814 14.1949 23.4215 14.0638 23.3608 13.9308C23.2315 13.6476 23.0984 13.3561 22.9653 13.0163L22.7573 12.4853L22.258 12.7611C20.593 13.6808 18.8893 13.8615 17.1148 13.8347C16.6241 13.8273 16.1358 13.8044 15.6427 13.7776C16.8506 13.7177 18.0181 13.5058 19.0369 13.3209C19.1286 13.3042 19.2192 13.2878 19.3084 13.2717L19.3084 13.2717L19.3131 13.2709C19.5369 13.2283 19.7469 13.2024 19.959 13.1762C20.6068 13.0961 21.2748 13.0135 22.4208 12.4485L22.8032 12.2599L22.6775 11.8525C22.2186 10.366 21.8983 8.81062 21.5838 7.28391C21.5615 7.17549 21.5392 7.06721 21.5169 6.95911C21.1832 5.34274 20.844 3.75809 20.3387 2.39628C19.9399 1.31428 19.1501 0.62263 18.232 0.514475C17.3055 0.405335 16.4089 0.909389 15.8551 1.88354L15.8548 1.88402C14.0739 5.0245 12.0843 8.91493 11.4889 12.702L11.4267 13.0977L11.7993 13.2448C12.3136 13.4476 12.8421 13.5848 13.3758 13.6713C12.7981 13.659 12.2152 13.666 11.6311 13.7113L11.3022 13.7368L11.1962 14.0492C9.60795 18.7331 8.91161 23.312 8.73012 27.9904L8.73011 27.9907C8.60523 31.2687 8.42214 34.5407 8.23875 37.818C8.12854 39.7875 8.01823 41.7589 7.92038 43.7346L27.1252 56.9164ZM20.0018 43.6383L20.0005 43.6369C19.8919 43.5179 19.5852 43.3555 19.1974 43.265C19.0161 43.2228 18.8479 43.2039 18.7158 43.2072C18.5912 43.2102 18.5454 43.2317 18.5449 43.2307C18.5448 43.2305 18.5458 43.2298 18.5477 43.2285M20.0018 43.6383L18.5477 43.2285M20.0018 43.6383C20.2959 43.9579 20.5251 44.3644 20.7138 44.7705C20.8074 44.9718 20.888 45.1663 20.9621 45.3462L20.9765 45.3814C21.0228 45.4941 21.069 45.6065 21.1138 45.7071C20.9918 47.6903 20.1276 49.1136 18.9701 49.8744C17.7918 50.6489 16.2496 50.7783 14.7169 50.0394C13.512 49.4579 13.0927 48.249 13.6783 47.18L13.6784 47.1797M20.0018 43.6383L13.6784 47.1797M18.5477 43.2285C18.0926 43.5516 17.6151 43.8464 17.1506 44.1316M18.5477 43.2285L17.1506 44.1316M13.6784 47.1797C14.1803 46.2624 14.9242 45.5982 15.7905 44.9988M13.6784 47.1797L15.7905 44.9988M15.7905 44.9988C16.2055 44.7117 16.6398 44.4451 17.0871 44.1706M15.7905 44.9988L17.0871 44.1706M17.0871 44.1706L17.1506 44.1316M17.0871 44.1706L17.1506 44.1316M13.6002 24.2273L13.6007 24.2245C13.9919 22.1976 15.9575 20.8106 17.8859 21.1327C18.9186 21.3131 19.8543 22.5002 19.7934 23.7818C19.7664 23.8866 19.7414 23.9902 19.7166 24.093C19.6452 24.3897 19.5754 24.6793 19.4637 24.9687C18.7175 26.8786 16.8094 27.9044 15.2064 27.4488L15.2062 27.4487C14.0386 27.1174 13.2874 25.7997 13.6002 24.2273ZM18.2163 32.7393L18.2165 32.7392C18.7888 32.6141 19.4303 32.8056 19.959 33.2479C20.478 33.6821 20.8451 34.3248 20.8987 35.0316C20.8002 36.5562 20.0682 37.8442 18.6313 38.7117C17.3306 39.4956 16.0048 39.4979 14.6786 38.7371L14.6774 38.7364C13.7762 38.2225 13.4298 37.0622 13.8991 36.1001C14.79 34.2816 16.2512 33.1676 18.2163 32.7393ZM17.4397 54.014L16.771 53.4264L16.6172 54.3033C16.3328 55.9251 16.0919 57.4983 16.2511 59.0494C16.4124 60.6211 16.9812 62.1523 18.2752 63.7092L19.0479 64.639L19.1576 63.435C19.2134 62.8231 19.2976 62.2322 19.3818 61.6415C19.4126 61.4256 19.4433 61.2098 19.4727 60.993C19.5808 60.1946 19.6683 59.393 19.6445 58.6046C19.5958 56.9926 19.0806 55.4559 17.4397 54.014Z" stroke="black"/>
</svg>
