<svg width="204" height="150" viewBox="0 0 204 150" fill="none" xmlns="http://www.w3.org/2000/svg">
<path d="M14.6911 90.5208C14.6911 90.5208 3.30165 92.8725 13.9404 107.514C13.9404 107.514 12.6993 123.166 35.1123 133.214C41.081 113.224 26.2151 100.605 26.2151 100.605C26.2151 100.605 19.653 87.9701 14.6911 90.5208Z" fill="#EE2724"/>
<path d="M14.6911 90.5208C14.6911 90.5208 3.30165 92.8725 13.9404 107.514C13.9404 107.514 12.6993 123.166 35.1123 133.214C41.081 113.224 26.2151 100.605 26.2151 100.605C26.2151 100.605 19.653 87.9701 14.6911 90.5208Z" stroke="black" stroke-miterlimit="10"/>
<path d="M13.9415 107.514L26.6193 101.45C26.6193 101.45 19.4153 86.8341 14.691 90.5207C9.96745 94.2088 5.78398 94.8022 13.9415 107.514Z" fill="black"/>
<path d="M13.9415 107.514L26.6193 101.45C26.6193 101.45 19.4153 86.8341 14.691 90.5207C9.96745 94.2088 5.78398 94.8022 13.9415 107.514Z" stroke="black" stroke-miterlimit="10"/>
<path d="M56.6909 58.5214C56.6909 58.5214 45.3011 60.8723 55.9398 75.5139C55.9398 75.5139 54.698 91.1639 77.1114 101.213C83.0808 81.2243 68.2157 68.6033 68.2157 68.6033C68.2157 68.6033 61.6516 55.9703 56.6909 58.5214Z" fill="#EBE846"/>
<path d="M56.6909 58.5214C56.6909 58.5214 45.3011 60.8723 55.9398 75.5139C55.9398 75.5139 54.698 91.1639 77.1114 101.213C83.0808 81.2243 68.2157 68.6033 68.2157 68.6033C68.2157 68.6033 61.6516 55.9703 56.6909 58.5214Z" stroke="black" stroke-miterlimit="10"/>
<path d="M55.9401 75.5142L68.6203 69.449C68.6203 69.449 61.4143 54.8328 56.6911 58.5218C51.9688 62.2064 47.7834 62.8016 55.9401 75.5142Z" fill="black"/>
<path d="M55.9401 75.5142L68.6203 69.449C68.6203 69.449 61.4143 54.8328 56.6911 58.5218C51.9688 62.2064 47.7834 62.8016 55.9401 75.5142Z" stroke="black" stroke-miterlimit="10"/>
<path d="M109.69 33.5208C109.69 33.5208 98.3004 35.8717 108.94 50.5128C108.94 50.5128 107.698 66.1629 130.111 76.2125C136.079 56.224 121.213 43.6034 121.213 43.6034C121.213 43.6034 114.652 30.9693 109.69 33.5208Z" fill="#1F3A6F"/>
<path d="M109.69 33.5208C109.69 33.5208 98.3004 35.8717 108.94 50.5128C108.94 50.5128 107.698 66.1629 130.111 76.2125C136.079 56.224 121.213 43.6034 121.213 43.6034C121.213 43.6034 114.652 30.9693 109.69 33.5208Z" stroke="black" stroke-miterlimit="10"/>
<path d="M108.94 50.5129L121.618 44.4492C121.618 44.4492 114.413 29.8323 109.69 33.5212C104.968 37.2059 100.782 37.8011 108.94 50.5129Z" fill="black"/>
<path d="M108.94 50.5129L121.618 44.4492C121.618 44.4492 114.413 29.8323 109.69 33.5212C104.968 37.2059 100.782 37.8011 108.94 50.5129Z" stroke="black" stroke-miterlimit="10"/>
<path d="M176.552 13.5674C176.552 13.5674 165.105 11.5156 169.536 29.0632C169.536 29.0632 162.564 43.1319 179.634 60.7911C192.608 44.4561 183.5 27.2128 183.5 27.2128C183.5 27.2128 182.106 13.0438 176.552 13.5674Z" fill="#85C550"/>
<path d="M176.552 13.5674C176.552 13.5674 165.105 11.5156 169.536 29.0632C169.536 29.0632 162.564 43.1319 179.634 60.7911C192.608 44.4561 183.5 27.2128 183.5 27.2128C183.5 27.2128 182.106 13.0438 176.552 13.5674Z" stroke="black" stroke-miterlimit="10"/>
<path d="M169.536 29.0627L183.561 28.1475C183.561 28.1475 182.308 11.9005 176.553 13.5669C170.796 15.2334 166.692 14.2287 169.536 29.0627Z" fill="black"/>
<path d="M169.536 29.0627L183.561 28.1475C183.561 28.1475 182.308 11.9005 176.553 13.5669C170.796 15.2334 166.692 14.2287 169.536 29.0627Z" stroke="black" stroke-miterlimit="10"/>
<g filter="url(#filter0_f_165_3518)">
<ellipse cx="27.4491" cy="118.437" rx="15" ry="22" transform="rotate(-27.4337 27.4491 118.437)" fill="#EE2724"/>
</g>
<g filter="url(#filter1_f_165_3518)">
<ellipse cx="69.4595" cy="87.4395" rx="15" ry="22" transform="rotate(-27.4811 69.4595 87.4395)" fill="#EBE846"/>
</g>
<g filter="url(#filter2_f_165_3518)">
<ellipse cx="121.684" cy="62.2102" rx="15" ry="22" transform="rotate(-24.1324 121.684 62.2102)" fill="#1F3A6F"/>
</g>
<g filter="url(#filter3_f_165_3518)">
<ellipse cx="178.462" cy="45.9693" rx="15" ry="22" transform="rotate(-3.90023 178.462 45.9693)" fill="#85C550"/>
</g>
<defs>
<filter id="filter0_f_165_3518" x="0.715576" y="87.7183" width="53.4668" height="61.437" filterUnits="userSpaceOnUse" color-interpolation-filters="sRGB">
<feFlood flood-opacity="0" result="BackgroundImageFix"/>
<feBlend mode="normal" in="SourceGraphic" in2="BackgroundImageFix" result="shape"/>
<feGaussianBlur stdDeviation="5" result="effect1_foregroundBlur_165_3518"/>
</filter>
<filter id="filter1_f_165_3518" x="42.7209" y="56.7251" width="53.4771" height="61.4287" filterUnits="userSpaceOnUse" color-interpolation-filters="sRGB">
<feFlood flood-opacity="0" result="BackgroundImageFix"/>
<feBlend mode="normal" in="SourceGraphic" in2="BackgroundImageFix" result="shape"/>
<feGaussianBlur stdDeviation="5" result="effect1_foregroundBlur_165_3518"/>
</filter>
<filter id="filter2_f_165_3518" x="95.3022" y="31.2114" width="52.7629" height="61.9976" filterUnits="userSpaceOnUse" color-interpolation-filters="sRGB">
<feFlood flood-opacity="0" result="BackgroundImageFix"/>
<feBlend mode="normal" in="SourceGraphic" in2="BackgroundImageFix" result="shape"/>
<feGaussianBlur stdDeviation="5" result="effect1_foregroundBlur_165_3518"/>
</filter>
<filter id="filter3_f_165_3518" x="153.421" y="13.9961" width="50.082" height="63.9463" filterUnits="userSpaceOnUse" color-interpolation-filters="sRGB">
<feFlood flood-opacity="0" result="BackgroundImageFix"/>
<feBlend mode="normal" in="SourceGraphic" in2="BackgroundImageFix" result="shape"/>
<feGaussianBlur stdDeviation="5" result="effect1_foregroundBlur_165_3518"/>
</filter>
</defs>
</svg>
