<svg width="405" height="123" viewBox="0 0 405 123" fill="none" xmlns="http://www.w3.org/2000/svg">
<path d="M177.441 8.9816C244.37 30.9169 205.328 48.2437 177.441 54.1652C155.418 60.6016 108.401 69.6125 96.5163 54.1652C88.1156 43.2461 82.6344 54.1652 79.5069 65.2651C67.7786 80.7125 56.9848 54.1652 48.8216 73.4744C43.1494 86.8915 19.3021 143.661 20.084 114.311C20.8659 84.9605 -20.7657 54.1652 13.637 20.181C41.1592 -7.00641 80.3575 11.9424 96.5163 24.8152C95.6041 10.3976 110.512 -12.9537 177.441 8.9816Z" fill="white"/>
<path fill-rule="evenodd" clip-rule="evenodd" d="M208.839 23.9073C201.417 28.9614 189.419 32.7745 178.983 34.9904C156.96 41.4268 109.943 50.4378 98.0587 34.9904C89.658 24.0713 84.1768 34.9904 81.0493 46.0904C75.3387 53.6118 69.8497 51.1772 64.778 48.9277C59.4335 46.5572 54.5525 44.3922 50.364 54.2996C50.2942 54.4647 50.2217 54.6364 50.1465 54.8143C44.1087 69.1006 20.8541 124.125 21.6264 95.1358C21.9 84.866 16.9807 74.4193 11.9429 63.721C7.86131 55.0532 3.70191 46.2201 2.16345 37.1822C-3.69748 53.0623 3.46385 68.2703 10.4005 83.0012C15.4383 93.6995 20.3576 104.146 20.084 114.416C19.3117 143.405 42.5663 88.3809 48.6041 74.0945C48.6793 73.9166 48.7518 73.7449 48.8216 73.5798C53.0101 63.6724 57.8911 65.8374 63.2355 68.2079C68.3073 70.4574 73.7963 72.892 79.5069 65.3706C82.6344 54.2706 88.1156 43.3515 96.5163 54.2706C108.401 69.718 155.418 60.707 177.441 54.2706C198.675 49.7618 226.376 38.6406 208.839 23.9073Z" fill="#DAEEF4"/>
<circle cx="67.0951" cy="84.8328" r="4.62725" fill="white"/>
<circle cx="121.465" cy="73.6504" r="2.69923" fill="white"/>
<circle cx="154.242" cy="71.7224" r="1.54242" fill="white"/>
<circle cx="140.36" cy="86.3754" r="1.54242" fill="white"/>
<circle cx="179.692" cy="64.7814" r="1.54242" fill="white"/>
<circle cx="169.666" cy="83.2905" r="1.54242" fill="white"/>
<circle cx="90.617" cy="75.9641" r="2.69923" fill="white"/>
<circle cx="72.108" cy="110.668" r="2.69923" fill="white"/>
<circle cx="50.5141" cy="100.643" r="2.69923" fill="white"/>
<circle cx="107.584" cy="85.2185" r="2.69923" fill="white"/>
<circle cx="285.733" cy="58.9973" r="2.69923" fill="white"/>
<circle cx="309.255" cy="64.7814" r="1.54242" fill="white"/>
<circle cx="323.907" cy="91.0026" r="1.54242" fill="white"/>
<circle cx="300.771" cy="80.977" r="1.54242" fill="white"/>
<circle cx="389.46" cy="54.7558" r="1.54242" fill="white"/>
<circle cx="375.578" cy="83.2905" r="1.54242" fill="white"/>
<circle cx="363.239" cy="104.884" r="1.54242" fill="white"/>
<circle cx="395.63" cy="74.8073" r="1.54242" fill="white"/>
<path d="M312.339 45.5012C330.077 46.658 332.005 76.3495 340.874 98.329C360.54 98.329 347.429 74.0359 361.697 67.4806C375.964 60.9253 368.252 45.5012 379.434 45.5012C390.617 45.5012 422.236 28.149 390.231 11.568C358.226 -5.01298 340.874 36.6323 330.848 28.149C320.823 19.6657 298.072 11.568 283.805 28.149C269.537 44.73 294.602 44.3444 312.339 45.5012Z" fill="#FFFEFE"/>
<path fill-rule="evenodd" clip-rule="evenodd" d="M334.229 68.8927C329.327 51.8971 324.772 36.1032 311.93 35.2656C310.292 35.1589 308.592 35.0652 306.867 34.9701C297.512 34.4548 287.4 33.8977 282.381 30.979C273.263 43.8734 291.566 44.8817 307.638 45.767C309.364 45.8621 311.064 45.9558 312.701 46.0626C325.543 46.9001 330.098 62.694 335 79.6896C336.869 86.1693 338.788 92.8236 341.236 98.8903C352.005 98.8903 352.945 91.6054 353.935 83.9376C354.753 77.6032 355.604 71.0075 362.059 68.042C369.393 64.672 370.919 58.9581 372.189 54.2009C373.39 49.7044 374.363 46.0626 379.796 46.0626C388.842 46.0626 411.259 34.709 402.558 21.5938C398.539 29.5733 385.43 35.2656 379.025 35.2656C373.591 35.2656 372.619 38.9075 371.418 43.404C370.148 48.1612 368.622 53.8751 361.287 57.2451C354.833 60.2106 353.982 66.8063 353.164 73.1407C352.174 80.8085 351.234 88.0934 340.465 88.0934C338.017 82.0267 336.098 75.3724 334.229 68.8927Z" fill="#DAEEF4"/>
</svg>
