<svg width="306" height="190" viewBox="0 0 306 190" fill="none" xmlns="http://www.w3.org/2000/svg">
<rect x="138" y="1" width="168" height="176" fill="white"/>
<path d="M1 175.5V189.5L21.5 175.5H1Z" fill="#FFECBA"/>
<rect x="1" y="1" width="138" height="176" fill="#FFECBA"/>
<g filter="url(#filter0_d_16_1059)">
<path d="M52.8158 69.2807C33.9845 41.1365 60.0692 28.0226 70.043 28.0289C83.9195 28.0377 106.085 41.1819 87.2182 69.3023C87.7949 71.6187 90.9437 75.3452 98.925 71.7202C108.902 67.189 123.925 82.796 110.91 91.012C97.7525 97.3845 93.8487 98.9418 100.777 115.253C101.449 118.325 104.008 125.152 108.863 127.878C114.932 131.285 118.686 138.093 102.925 147.016C87.1637 155.94 75.8974 142.462 75.6099 139.909C75.3224 137.357 75.3309 123.886 69.9836 122.323C64.6344 123.88 64.6259 137.35 64.3352 139.902C64.0445 142.454 52.7613 155.918 37.0112 146.975C21.2611 138.032 25.0237 131.228 31.0968 127.829C35.9553 125.109 38.5229 118.286 39.1994 115.214C46.148 98.9118 42.2462 97.3496 29.0963 90.9605C16.0922 82.7282 31.135 67.1401 41.1059 71.6838C49.0827 75.3188 52.2362 71.5963 52.8158 69.2807Z" fill="#FCD46E"/>
<path d="M66.0508 28.5937C57.4172 34.835 45.6344 48.4413 57.5877 66.306C57.0081 68.6217 54.9834 70.2685 52.8158 69.2808C52.7142 69.2345 51.3127 66.8211 51.2101 66.779C37.4253 43.5221 55.0528 31.1906 66.0508 28.5937Z" fill="#F3C243"/>
<path d="M106.453 144.884C94.3895 147.306 86.2641 137.3 86.0205 135.137C85.9812 134.788 85.9474 134.236 85.9048 133.537C85.6353 129.125 75.6117 124.099 70.9952 122.749C72.4393 124.835 74.1674 126.863 74.9411 132.326C75.2666 134.624 75.4015 136.833 75.4943 138.352C75.537 139.05 75.5707 139.603 75.61 139.952C75.8975 142.504 87.1638 155.982 102.925 147.059C104.232 146.319 105.404 145.594 106.453 144.884Z" fill="#F3C243"/>
<path d="M60.4225 145.075C56.6301 145.576 52.2345 144.935 47.4218 142.203C31.6717 133.26 35.4342 126.456 41.5074 123.057C46.3659 120.337 48.9335 113.514 49.61 110.442C56.4433 94.41 52.7832 92.6333 40.1537 86.5024C39.9406 86.399 39.725 86.2943 39.5069 86.1883C32.5758 81.8005 33.6123 75.3231 37.6018 70.9181C28.1101 70.5908 17.5527 83.695 29.0964 91.0028C29.3146 91.1088 29.5302 91.2135 29.7432 91.3169C42.3727 97.4478 46.0328 99.2246 39.1995 115.256C38.523 118.328 35.9554 125.152 31.0969 127.871C25.0237 131.27 21.2612 138.074 37.0113 147.017C47.3611 152.894 55.7821 149.095 60.4225 145.075Z" fill="#F3C243"/>
<path d="M75.0361 132.961C76.6262 132.82 78.9834 126.619 84.2828 131.473C90.9069 137.542 93.121 129.963 93.1212 129.66C93.1214 129.356 95.9662 122.536 101.96 127.997C106.754 132.367 106.983 129.294 108.286 127.452" stroke="white" stroke-width="6.52926"/>
<path d="M65.4978 129.552C63.4895 129.085 59.6313 124.405 55.884 130.494C51.2 138.105 46.9611 131.407 46.8765 131.115C46.7919 130.824 42.3718 126.985 37.9112 131.882C36.6977 133.656 33.407 131.517 30.8073 127.97" stroke="white" stroke-width="6.52926"/>
<ellipse cx="61.0673" cy="49.5761" rx="4.04734" ry="3.97028" transform="rotate(0.0360554 61.0673 49.5761)" fill="white"/>
<ellipse cx="78.7021" cy="49.5872" rx="4.04734" ry="3.97028" transform="rotate(0.0360554 78.7021 49.5872)" fill="white"/>
<path fill-rule="evenodd" clip-rule="evenodd" d="M57.0198 49.7151C57.0206 48.5295 57.5511 47.4655 58.3916 46.7386C58.2529 47.1389 58.1776 47.5679 58.1773 48.0142C58.1759 50.207 59.9869 51.9857 62.2221 51.9871C63.2487 51.9877 64.1863 51.6134 64.9002 50.9959C64.3576 52.5624 62.845 53.6891 61.0647 53.688C58.8294 53.6866 57.0185 51.9079 57.0198 49.7151Z" fill="#F1F1F1"/>
<path fill-rule="evenodd" clip-rule="evenodd" d="M74.6546 49.7263C74.6553 48.5406 75.1858 47.4767 76.0264 46.7497C75.8877 47.15 75.8123 47.5791 75.8121 48.0254C75.8107 50.2181 77.6216 51.9968 79.8569 51.9982C80.8835 51.9988 81.8211 51.6245 82.535 51.007C81.9923 52.5736 80.4798 53.7002 78.6994 53.6991C76.4642 53.6977 74.6532 51.919 74.6546 49.7263Z" fill="#F1F1F1"/>
<ellipse cx="70.5871" cy="82.1952" rx="4.04734" ry="3.97028" transform="rotate(0.0360554 70.5871 82.1952)" fill="#F75A5A"/>
<ellipse cx="70.2909" cy="93.2553" rx="4.04734" ry="3.97028" transform="rotate(0.0360554 70.2909 93.2553)" fill="#7FF075"/>
<ellipse cx="70.5724" cy="105.45" rx="4.04734" ry="3.97028" transform="rotate(0.0360554 70.5724 105.45)" fill="#F75A5A"/>
<path fill-rule="evenodd" clip-rule="evenodd" d="M66.5396 82.3343C66.5403 81.1486 67.0708 80.0847 67.9113 79.3577C67.7726 79.7581 67.6973 80.1871 67.697 80.6335C67.6956 82.8262 69.5066 84.6049 71.7418 84.6063C72.7685 84.6069 73.7061 84.2326 74.42 83.6151C73.8773 85.1816 72.3647 86.3082 70.5844 86.3071C68.3492 86.3057 66.5382 84.527 66.5396 82.3343Z" fill="#E34141"/>
<path fill-rule="evenodd" clip-rule="evenodd" d="M66.2438 93.3942C66.2445 92.2086 66.775 91.1446 67.6155 90.4177C67.4768 90.818 67.4015 91.2471 67.4012 91.6934C67.3998 93.8861 69.2107 95.6648 71.446 95.6662C72.4726 95.6669 73.4102 95.2925 74.1241 94.675C73.5815 96.2415 72.0689 97.3682 70.2886 97.3671C68.0533 97.3656 66.2424 95.5869 66.2438 93.3942Z" fill="#6EE264"/>
<path fill-rule="evenodd" clip-rule="evenodd" d="M66.525 105.589C66.5257 104.403 67.0562 103.339 67.8967 102.612C67.758 103.013 67.6827 103.442 67.6824 103.888C67.681 106.081 69.4919 107.86 71.7272 107.861C72.7538 107.862 73.6914 107.487 74.4053 106.87C73.8627 108.436 72.3501 109.563 70.5698 109.562C68.3345 109.56 66.5236 107.782 66.525 105.589Z" fill="#E34141"/>
<path d="M62.0017 63C64.4991 65.1025 71.0414 68.048 77.2317 63.0096" stroke="white" stroke-width="4" stroke-linecap="round"/>
</g>
<defs>
<filter id="filter0_d_16_1059" x="20.042" y="28.0289" width="99.9326" height="130.045" filterUnits="userSpaceOnUse" color-interpolation-filters="sRGB">
<feFlood flood-opacity="0" result="BackgroundImageFix"/>
<feColorMatrix in="SourceAlpha" type="matrix" values="0 0 0 0 0 0 0 0 0 0 0 0 0 0 0 0 0 0 127 0" result="hardAlpha"/>
<feOffset dy="4"/>
<feGaussianBlur stdDeviation="2"/>
<feComposite in2="hardAlpha" operator="out"/>
<feColorMatrix type="matrix" values="0 0 0 0 0 0 0 0 0 0 0 0 0 0 0 0 0 0 0.25 0"/>
<feBlend mode="normal" in2="BackgroundImageFix" result="effect1_dropShadow_16_1059"/>
<feBlend mode="normal" in="SourceGraphic" in2="effect1_dropShadow_16_1059" result="shape"/>
</filter>
</defs>
</svg>
