<svg width="306" height="190" viewBox="0 0 306 190" fill="none" xmlns="http://www.w3.org/2000/svg">
<rect x="129" y="0.494995" width="176" height="176" fill="white"/>
<path d="M0.110596 175.081V189.081L20.6106 175.081H0.110596Z" fill="#FFECBA"/>
<rect width="128.784" height="176" transform="matrix(1 -4.50318e-05 -4.20245e-05 1 0.11084 0.581787)" fill="#FFECBA"/>
<g filter="url(#filter0_d_114_3063)">
<path d="M51.0994 44.2834C58.3233 44.4802 62.1876 39.8064 65.1097 38.7214C65.4926 38.5112 65.9091 38.4592 66.3061 38.5005C66.7043 38.5163 67.0895 38.636 67.4694 38.8867C69.6535 40.328 69.5309 44.7482 70.273 48.5849C70.4696 49.6016 70.727 50.5773 71.104 51.4457C71.471 52.2909 71.9513 53.0345 72.5993 53.6154C73.2354 54.1857 74.089 54.7027 75.0734 55.1855C79.009 57.116 85.0342 58.5016 87.5978 60.5726C88.2508 61.1002 88.6792 61.6723 88.7912 62.3092C89.4529 66.0714 77.7519 74.8458 75.3539 75.4858C76.5093 84.2539 78.0755 92.7411 75.0273 92.8696C66.1752 90.4915 58.419 84.68 45.2842 93.7265C44.2642 94.5114 43.2247 95.3259 42.1682 96.1595C41.4396 96.7345 40.7767 96.3573 40.1761 95.3798C37.5748 92.2269 34.4465 82.4047 33.4036 80.0034C32.0706 76.9341 23.1386 75.5504 20.5802 73.6644C18.5335 72.1557 18.2983 68.9646 18.4366 67.5577C17.4374 66.1562 19.3304 64.5942 22.2377 62.5503C22.2508 62.5408 22.2639 62.5315 22.2772 62.5225C25.1786 60.4848 29.0755 57.9688 32.1191 54.6581C31.8739 51.099 31.7308 43.9967 32.8228 40.9412C33.0733 40.2403 33.6225 39.6595 34.3665 39.637C34.6262 39.6291 34.9394 39.6394 35.3121 39.6725C37.6723 39.8824 42.4198 41.0114 51.0994 44.2834Z" fill="#753525"/>
<path d="M44.4185 53.259L48.8111 59.4506C48.1079 60.6658 37.8435 58.7815 35.9672 56.8847C34.091 54.9879 32.077 57.0667 32.1305 57.9087C32.1839 58.7507 33.4629 58.4094 33.7934 59.0062C34.1239 59.603 34.1882 61.1271 33.4316 61.5003C32.8262 61.7989 28.5112 62.5281 26.4293 62.8554C25.5105 62.4071 23.3858 61.7184 22.2377 62.5501C19.3304 64.594 17.4374 66.1561 18.4366 67.5575C20.3161 67.9692 24.5653 68.3193 26.526 66.426C28.9769 64.0593 33.7092 63.8238 34.6792 64.2499C35.6492 64.676 35.0746 68.9395 35.2879 69.7388C35.5012 70.5381 37.1642 71.6356 43.2272 64.1947C44.5172 62.6116 49.5898 62.1541 49.7396 64.8542L47.1191 71.7187C46.1671 72.4295 43.5512 74.0068 40.7034 74.6298C37.1437 75.4087 38.3453 77.6568 40.4269 77.4437C42.5085 77.2306 45.6922 77.9222 44.6591 81.1092C43.8325 83.6589 43.8819 85.2555 44.0099 85.7351C42.3796 87.5403 40.0633 91.4808 43.8409 92.8016C48.5629 94.4527 46.1951 86.8644 45.9818 86.0651C45.7684 85.2658 45.3093 81.6207 52.2268 82.5145C55.5203 82.663 55.1567 77.4512 50.1355 72.1124C50.437 70.034 51.9099 66.0559 55.3889 66.7714C58.868 67.4869 60.5129 70.9981 60.9006 72.6643L59.761 76.736C58.2833 78.0438 56.0017 81.1302 58.6965 83.0141C61.3914 84.8979 62.5259 80.679 62.7563 78.3342C63.4241 77.4138 65.1988 76.4492 66.9561 79.9533C67.8176 81.6414 69.1204 83.1432 69.6641 83.6832C69.0072 85.2856 69.3433 88.7694 75.9432 89.885C76.4934 87.4547 76.4298 82.5967 71.7742 82.6062C69.4458 79.5286 68.9062 78.0628 68.9274 77.7146C70.2736 76.5561 72.4459 73.83 70.3651 72.1933C68.2842 70.5566 64.5807 70.1979 62.9891 70.2231C61.6919 68.5713 58.5862 65.9181 57.9678 64.8843C57.0297 63.936 56.9438 61.0476 63.7759 61.6216C70.6081 62.1957 69.2114 60.1709 70.4806 64.2848C71.7498 68.3986 70.8441 69.4966 75.3209 70.8706C78.5393 68.8128 76.3217 65.6371 75.5434 64.6461C74.5981 63.2429 74.0461 60.8328 79.4012 62.4176C86.0951 64.3986 86.3614 63.4713 87.832 62.565C87.9461 62.2491 88.0589 61.4084 87.5978 60.5725C85.0342 58.5015 79.0091 57.1159 75.0734 55.1854C73.8019 54.6991 70.7534 54.5273 68.7312 57.7303C65.374 58.6263 62.4748 58.03 59.5972 58.7981C58.6947 58.411 57.5376 56.9845 60.1292 54.3747C62.7207 51.765 66.6801 52.398 68.3358 53.0407C69.1344 53.188 70.8061 53.0753 71.104 51.4456C70.727 50.5771 70.4696 49.6014 70.273 48.5848C69.1686 48.1375 67.2902 47.8396 66.0005 47.4988C64.7107 47.158 61.8969 46.8815 65.7331 43.2888C67.0972 42.411 69.3541 40.3016 67.4694 38.8866C66.3217 38.2224 63.9541 37.9068 63.6651 41.957C62.8131 44.9245 62.4081 45.375 62.3122 45.2294C61.4668 45.9117 59.0234 46.8949 56.0131 45.3693C53.7534 44.6024 52.7339 45.2741 52.9757 46.18C53.9565 47.2883 56.5095 48.8332 57.1225 49.5258C58.3485 50.9112 59.3725 54.7479 55.7064 56.4114C54.9249 56.9055 52.9356 57.836 51.2302 57.6062C50.0338 55.6902 47.8389 53.2415 46.8911 52.2566C48.1768 50.6576 49.7465 47.5556 48.7975 45.9251C48.7332 44.401 46.3353 45.041 42.1787 46.1504L35.3121 39.6723C34.9394 39.6392 34.6262 39.629 34.3665 39.6368C33.6226 39.6594 33.0733 40.2401 32.8228 40.941L38.0222 47.2598C36.2425 48.0773 32.8407 50.047 33.472 51.3855C34.1033 52.7241 41.0327 53.1922 44.4185 53.259Z" fill="#F6F6F6"/>
<path d="M75.9433 89.8849C77.2968 89.1812 75.4831 81.1025 75.354 75.4856C76.5094 84.2537 78.0756 92.7409 75.0273 92.8695C66.1753 90.4913 58.4191 84.6798 45.2843 93.7263C44.2643 94.5112 43.2248 95.3257 42.1683 96.1594C41.4397 96.7343 40.7768 96.3571 40.1762 95.3796C37.5749 92.2267 34.4466 82.4045 33.4037 80.0032C32.0707 76.9339 23.1387 75.5502 20.5803 73.6642C18.5336 72.1555 18.2984 68.9644 18.4366 67.5575C28.3454 70.804 34.1488 75.523 35.8119 77.4766C36.4723 78.932 37.8617 91.6128 40.1762 95.3796C40.7797 96.1111 41.3549 96.4836 41.869 96.3212C43.0477 95.345 44.1848 94.4836 45.2843 93.7263C51.23 89.1512 56.5126 85.581 60.6156 85.0707C65.4223 84.4728 73.3855 90.5676 75.9433 89.8849Z" fill="#B0462F"/>
<circle cx="52.8039" cy="62.3651" r="1.98555" transform="rotate(-14.9438 52.8039 62.3651)" fill="#78939C"/>
<path d="M53.2124 62.6127C52.283 62.7238 52.1717 63.6326 52.2322 64.0731C53.1595 64.3394 55.0244 62.9854 54.7366 62.5484C54.4487 62.1115 54.3742 62.4739 53.2124 62.6127Z" fill="#D0E4EE"/>
<path d="M53.7171 60.736C54.0287 60.9293 52.3131 62.3778 51.4163 63.078C50.8545 62.1912 51.1149 61.9489 51.2893 61.384C51.4636 60.8191 53.3275 60.4944 53.7171 60.736Z" fill="#EBFEFF"/>
<circle cx="48.0532" cy="76.6482" r="1.98555" transform="rotate(-14.9438 48.0532 76.6482)" fill="#78939C"/>
<path d="M48.4619 76.8959C47.5326 77.007 47.4212 77.9158 47.4817 78.3563C48.409 78.6226 50.2739 77.2686 49.9861 76.8316C49.6982 76.3947 49.6237 76.7571 48.4619 76.8959Z" fill="#D0E4EE"/>
<path d="M48.9663 75.0192C49.278 75.2125 47.5623 76.661 46.6656 77.3612C46.1038 76.4744 46.3642 76.2321 46.5385 75.6672C46.7128 75.1023 48.5767 74.7776 48.9663 75.0192Z" fill="#EBFEFF"/>
<circle cx="65.1062" cy="73.8095" r="1.98555" transform="rotate(-14.9438 65.1062 73.8095)" fill="#78939C"/>
<path d="M65.5149 74.0573C64.5855 74.1683 64.4742 75.0772 64.5347 75.5177C65.462 75.784 67.3269 74.4299 67.0391 73.993C66.7512 73.5561 66.6767 73.9185 65.5149 74.0573Z" fill="#D0E4EE"/>
<path d="M66.0193 72.1802C66.331 72.3735 64.6153 73.8221 63.7185 74.5222C63.1568 73.6354 63.4172 73.3931 63.5915 72.8282C63.7658 72.2633 65.6297 71.9386 66.0193 72.1802Z" fill="#EBFEFF"/>
<circle cx="73.6931" cy="58.5021" r="1.98555" transform="rotate(-14.9438 73.6931 58.5021)" fill="#78939C"/>
<path d="M74.1021 58.7499C73.1727 58.861 73.0613 59.7698 73.1218 60.2103C74.0492 60.4766 75.9141 59.1226 75.6262 58.6856C75.3383 58.2487 75.2638 58.6111 74.1021 58.7499Z" fill="#D0E4EE"/>
<path d="M74.6065 56.8731C74.9181 57.0664 73.2025 58.5149 72.3057 59.215C71.7439 58.3282 72.0043 58.0859 72.1787 57.5211C72.353 56.9562 74.2169 56.6315 74.6065 56.8731Z" fill="#EBFEFF"/>
<circle cx="61.5835" cy="49.0616" r="1.98555" transform="rotate(-14.9438 61.5835 49.0616)" fill="#78939C"/>
<path d="M61.992 49.3092C61.0626 49.4203 60.9512 50.3291 61.0117 50.7696C61.9391 51.0359 63.804 49.6819 63.5161 49.245C63.2282 48.808 63.1537 49.1704 61.992 49.3092Z" fill="#D0E4EE"/>
<path d="M62.4964 47.4324C62.808 47.6257 61.0924 49.0742 60.1956 49.7744C59.6338 48.8876 59.8942 48.6453 60.0686 48.0804C60.2429 47.5155 62.1068 47.1908 62.4964 47.4324Z" fill="#EBFEFF"/>
<circle cx="42.4836" cy="49.3641" r="1.98555" transform="rotate(-14.9438 42.4836 49.3641)" fill="#78939C"/>
<path d="M42.8924 49.6117C41.963 49.7228 41.8516 50.6316 41.9121 51.0721C42.8394 51.3384 44.7044 49.9844 44.4165 49.5474C44.1286 49.1105 44.0541 49.4729 42.8924 49.6117Z" fill="#D0E4EE"/>
<path d="M43.397 47.735C43.7087 47.9283 41.993 49.3769 41.0962 50.077C40.5344 49.1902 40.7949 48.9479 40.9692 48.383C41.1435 47.8181 43.0074 47.4934 43.397 47.735Z" fill="#EBFEFF"/>
<circle cx="37.7117" cy="62.2831" r="1.98555" transform="rotate(-14.9438 37.7117 62.2831)" fill="#78939C"/>
<path d="M38.1201 62.5308C37.1908 62.6418 37.0794 63.5507 37.1399 63.9912C38.0672 64.2575 39.9321 62.9034 39.6443 62.4665C39.3564 62.0296 39.2819 62.392 38.1201 62.5308Z" fill="#D0E4EE"/>
<path d="M38.5508 60.3858C38.9009 60.6149 37.0083 62.2757 36.0183 63.0776C35.3797 62.0385 35.6667 61.7603 35.8532 61.1057C36.0397 60.4512 38.1131 60.0994 38.5508 60.3858Z" fill="#EBFEFF"/>
</g>
<g filter="url(#filter1_d_114_3063)">
<path d="M83.4161 104.696C88.6663 104.839 91.4747 101.443 93.5984 100.654C93.8766 100.501 94.1794 100.463 94.4678 100.493C94.7572 100.505 95.0372 100.592 95.3133 100.774C96.9006 101.822 96.8115 105.034 97.3509 107.823C97.4938 108.561 97.6808 109.27 97.9549 109.902C98.2215 110.516 98.5706 111.056 99.0416 111.479C99.5038 111.893 100.124 112.269 100.84 112.62C103.7 114.023 108.079 115.03 109.942 116.535C110.417 116.918 110.728 117.334 110.809 117.797C111.29 120.531 102.786 126.908 101.044 127.373C101.883 133.746 103.021 139.914 100.806 140.007C94.3727 138.279 88.7358 134.055 79.1899 140.63C78.4486 141.2 77.6931 141.792 76.9253 142.398C76.3957 142.816 75.9139 142.542 75.4774 141.831C73.5869 139.54 71.3133 132.402 70.5554 130.656C69.5867 128.426 63.0952 127.42 61.2358 126.049C59.7483 124.953 59.5774 122.634 59.6779 121.611C58.9517 120.593 60.3275 119.457 62.4404 117.972C62.4499 117.965 62.4595 117.958 62.4692 117.952C64.5778 116.471 67.4099 114.642 69.6219 112.236C69.4437 109.65 69.3397 104.488 70.1333 102.267C70.3154 101.758 70.7146 101.336 71.2552 101.319C71.444 101.314 71.6716 101.321 71.9425 101.345C73.6578 101.498 77.1081 102.318 83.4161 104.696Z" fill="#753525"/>
<path d="M78.5607 111.22L81.753 115.719C81.242 116.603 73.7822 115.233 72.4185 113.855C71.0549 112.476 69.5912 113.987 69.6301 114.599C69.669 115.211 70.5984 114.963 70.8387 115.396C71.0789 115.83 71.1256 116.938 70.5757 117.209C70.1358 117.426 66.9997 117.956 65.4867 118.194C64.8189 117.868 63.2748 117.368 62.4404 117.972C60.3274 119.458 58.9517 120.593 59.6778 121.611C61.0438 121.911 64.132 122.165 65.557 120.789C67.3382 119.069 70.7774 118.898 71.4824 119.207C72.1874 119.517 71.7698 122.616 71.9248 123.197C72.0799 123.778 73.2884 124.575 77.6948 119.167C78.6323 118.017 82.3189 117.684 82.4278 119.647L80.5233 124.636C79.8315 125.152 77.9303 126.298 75.8606 126.751C73.2735 127.317 74.1468 128.951 75.6597 128.796C77.1725 128.641 79.4863 129.144 78.7355 131.46C78.1348 133.313 78.1707 134.474 78.2637 134.822C77.0788 136.134 75.3954 138.998 78.1409 139.958C81.5727 141.158 79.8518 135.643 79.6968 135.062C79.5417 134.481 79.2081 131.832 84.2354 132.482C86.629 132.589 86.3648 128.802 82.7156 124.922C82.9347 123.411 84.0051 120.52 86.5336 121.04C89.062 121.56 90.2575 124.112 90.5393 125.323L89.7111 128.282C88.6371 129.232 86.9789 131.476 88.9374 132.845C90.896 134.214 91.7205 131.148 91.888 129.443C92.3733 128.775 93.6631 128.074 94.9402 130.62C95.5664 131.847 96.5132 132.938 96.9083 133.331C96.4309 134.495 96.6752 137.027 101.472 137.838C101.872 136.072 101.825 132.541 98.4419 132.548C96.7496 130.311 96.3575 129.246 96.3729 128.993C97.3513 128.151 98.9301 126.17 97.4177 124.98C95.9054 123.791 93.2139 123.53 92.0571 123.549C91.1144 122.348 88.8573 120.42 88.4078 119.669C87.726 118.979 87.6636 116.88 92.629 117.297C97.5943 117.715 96.5793 116.243 97.5017 119.233C98.4242 122.223 97.7659 123.021 101.019 124.019C103.359 122.524 101.747 120.216 101.181 119.495C100.494 118.476 100.093 116.724 103.985 117.876C108.85 119.316 109.043 118.642 110.112 117.983C110.195 117.753 110.277 117.142 109.942 116.535C108.079 115.03 103.7 114.023 100.84 112.62C99.9155 112.266 97.7 112.141 96.2303 114.469C93.7904 115.12 91.6834 114.687 89.592 115.245C88.9361 114.964 88.0952 113.927 89.9787 112.03C91.8621 110.134 94.7396 110.594 95.943 111.061C96.5234 111.168 97.7383 111.086 97.9548 109.902C97.6808 109.27 97.4938 108.561 97.3508 107.823C96.5482 107.497 95.183 107.281 94.2457 107.033C93.3084 106.786 91.2633 106.585 94.0514 103.974C95.0427 103.336 96.683 101.803 95.3133 100.774C94.4792 100.292 92.7585 100.062 92.5484 103.006C91.9292 105.162 91.6349 105.49 91.5652 105.384C90.9507 105.88 89.175 106.594 86.9872 105.486C85.3449 104.928 84.604 105.416 84.7797 106.075C85.4925 106.88 87.348 108.003 87.7935 108.506C88.6845 109.513 89.4287 112.302 86.7643 113.511C86.1963 113.87 84.7506 114.546 83.5111 114.379C82.6416 112.987 81.0465 111.207 80.3576 110.491C81.2921 109.329 82.4328 107.075 81.7432 105.89C81.6965 104.782 79.9537 105.247 76.9329 106.053L71.9424 101.345C71.6716 101.321 71.444 101.314 71.2552 101.319C70.7145 101.336 70.3153 101.758 70.1333 102.267L73.912 106.86C72.6186 107.454 70.1463 108.885 70.6051 109.858C71.0639 110.831 76.1 111.171 78.5607 111.22Z" fill="#F6F6F6"/>
<path d="M101.472 137.838C102.455 137.327 101.137 131.455 101.043 127.373C101.883 133.745 103.021 139.914 100.806 140.007C94.3726 138.279 88.7357 134.055 79.1897 140.63C78.4484 141.2 77.6929 141.792 76.9252 142.398C76.3956 142.816 75.9138 142.542 75.4773 141.831C73.5868 139.54 71.3132 132.402 70.5553 130.656C69.5865 128.426 63.095 127.42 61.2357 126.049C59.7482 124.953 59.5773 122.634 59.6777 121.611C66.8791 123.971 71.0968 127.4 72.3055 128.82C72.7854 129.878 73.7952 139.094 75.4773 141.831C75.9159 142.363 76.3339 142.634 76.7076 142.516C77.5642 141.806 78.3907 141.18 79.1897 140.63C83.5109 137.305 87.3501 134.71 90.332 134.339C93.8254 133.905 99.6127 138.334 101.472 137.838Z" fill="#B0462F"/>
<circle cx="84.6545" cy="117.837" r="1.44303" transform="rotate(-14.9438 84.6545 117.837)" fill="#78939C"/>
<path d="M84.9521 118.018C84.2767 118.098 84.1957 118.759 84.2397 119.079C84.9136 119.272 86.269 118.288 86.0598 117.971C85.8506 117.653 85.7964 117.917 84.9521 118.018Z" fill="#D0E4EE"/>
<path d="M85.3187 116.654C85.5452 116.794 84.2983 117.847 83.6466 118.356C83.2383 117.711 83.4276 117.535 83.5543 117.125C83.681 116.714 85.0356 116.478 85.3187 116.654Z" fill="#EBFEFF"/>
<circle cx="81.2024" cy="128.218" r="1.44303" transform="rotate(-14.9438 81.2024 128.218)" fill="#78939C"/>
<path d="M81.4995 128.398C80.824 128.479 80.7431 129.139 80.787 129.459C81.461 129.653 82.8164 128.669 82.6071 128.351C82.3979 128.034 82.3438 128.297 81.4995 128.398Z" fill="#D0E4EE"/>
<path d="M81.8661 127.034C82.0926 127.175 80.8457 128.227 80.1939 128.736C79.7857 128.092 79.9749 127.916 80.1016 127.505C80.2283 127.095 81.5829 126.859 81.8661 127.034Z" fill="#EBFEFF"/>
<circle cx="93.5957" cy="126.155" r="1.44303" transform="rotate(-14.9438 93.5957 126.155)" fill="#78939C"/>
<path d="M93.8925 126.335C93.2171 126.416 93.1361 127.076 93.1801 127.397C93.8541 127.59 95.2094 126.606 95.0002 126.289C94.791 125.971 94.7368 126.234 93.8925 126.335Z" fill="#D0E4EE"/>
<path d="M94.2596 124.971C94.4861 125.111 93.2393 126.164 92.5875 126.673C92.1792 126.029 92.3685 125.852 92.4952 125.442C92.6219 125.031 93.9765 124.795 94.2596 124.971Z" fill="#EBFEFF"/>
<circle cx="99.8367" cy="115.03" r="1.44303" transform="rotate(-14.9438 99.8367 115.03)" fill="#78939C"/>
<path d="M100.134 115.21C99.4583 115.291 99.3774 115.952 99.4213 116.272C100.095 116.465 101.451 115.481 101.241 115.164C101.032 114.846 100.978 115.109 100.134 115.21Z" fill="#D0E4EE"/>
<path d="M100.5 113.846C100.727 113.987 99.48 115.039 98.8282 115.548C98.4199 114.904 98.6092 114.728 98.7359 114.317C98.8626 113.907 100.217 113.671 100.5 113.846Z" fill="#EBFEFF"/>
<circle cx="91.0356" cy="108.169" r="1.44303" transform="rotate(-14.9438 91.0356 108.169)" fill="#78939C"/>
<path d="M91.3325 108.349C90.657 108.43 90.5761 109.09 90.6201 109.411C91.294 109.604 92.6494 108.62 92.4402 108.302C92.2309 107.985 92.1768 108.248 91.3325 108.349Z" fill="#D0E4EE"/>
<path d="M91.6991 106.985C91.9256 107.125 90.6787 108.178 90.027 108.687C89.6187 108.042 89.8079 107.866 89.9346 107.456C90.0613 107.045 91.4159 106.809 91.6991 106.985Z" fill="#EBFEFF"/>
<circle cx="77.1545" cy="108.389" r="1.44303" transform="rotate(-14.9438 77.1545 108.389)" fill="#78939C"/>
<path d="M77.4514 108.569C76.7759 108.65 76.695 109.31 76.739 109.63C77.4129 109.824 78.7683 108.84 78.5591 108.522C78.3498 108.205 78.2957 108.468 77.4514 108.569Z" fill="#D0E4EE"/>
<path d="M77.8182 107.205C78.0447 107.345 76.7978 108.398 76.1461 108.907C75.7378 108.262 75.9271 108.086 76.0538 107.676C76.1805 107.265 77.5351 107.029 77.8182 107.205Z" fill="#EBFEFF"/>
<circle cx="73.6863" cy="117.778" r="1.44303" transform="rotate(-14.9438 73.6863 117.778)" fill="#78939C"/>
<path d="M73.9831 117.958C73.3077 118.039 73.2267 118.699 73.2707 119.019C73.9446 119.213 75.3 118.229 75.0908 117.911C74.8816 117.594 74.8274 117.857 73.9831 117.958Z" fill="#D0E4EE"/>
<path d="M74.2961 116.399C74.5506 116.566 73.1751 117.773 72.4556 118.355C71.9915 117.6 72.2001 117.398 72.3356 116.922C72.4712 116.447 73.978 116.191 74.2961 116.399Z" fill="#EBFEFF"/>
</g>
<defs>
<filter id="filter0_d_114_3063" x="14.167" y="38.4873" width="78.6511" height="65.9432" filterUnits="userSpaceOnUse" color-interpolation-filters="sRGB">
<feFlood flood-opacity="0" result="BackgroundImageFix"/>
<feColorMatrix in="SourceAlpha" type="matrix" values="0 0 0 0 0 0 0 0 0 0 0 0 0 0 0 0 0 0 127 0" result="hardAlpha"/>
<feOffset dy="4"/>
<feGaussianBlur stdDeviation="2"/>
<feComposite in2="hardAlpha" operator="out"/>
<feColorMatrix type="matrix" values="0 0 0 0 0 0 0 0 0 0 0 0 0 0 0 0 0 0 0.25 0"/>
<feBlend mode="normal" in2="BackgroundImageFix" result="effect1_dropShadow_114_3063"/>
<feBlend mode="normal" in="SourceGraphic" in2="effect1_dropShadow_114_3063" result="shape"/>
</filter>
<filter id="filter1_d_114_3063" x="55.4819" y="100.484" width="59.3469" height="50.1111" filterUnits="userSpaceOnUse" color-interpolation-filters="sRGB">
<feFlood flood-opacity="0" result="BackgroundImageFix"/>
<feColorMatrix in="SourceAlpha" type="matrix" values="0 0 0 0 0 0 0 0 0 0 0 0 0 0 0 0 0 0 127 0" result="hardAlpha"/>
<feOffset dy="4"/>
<feGaussianBlur stdDeviation="2"/>
<feComposite in2="hardAlpha" operator="out"/>
<feColorMatrix type="matrix" values="0 0 0 0 0 0 0 0 0 0 0 0 0 0 0 0 0 0 0.25 0"/>
<feBlend mode="normal" in2="BackgroundImageFix" result="effect1_dropShadow_114_3063"/>
<feBlend mode="normal" in="SourceGraphic" in2="effect1_dropShadow_114_3063" result="shape"/>
</filter>
</defs>
</svg>
