<svg width="229" height="111" viewBox="0 0 229 111" fill="none" xmlns="http://www.w3.org/2000/svg">
<path d="M189.713 94.0886C258.781 72.7999 217.334 61.0036 187.977 57.7666C164.725 53.7953 115.267 49.1196 103.447 62.1865C95.0916 71.4229 88.9465 62.9446 85.2531 54.1924C72.4088 42.4152 62.1542 64.3455 52.8854 49.2692C46.4448 38.7933 19.3536 -5.53959 21.2982 18.0115C23.2427 41.5626 -19.0602 68.5921 18.1812 94.0322C47.9743 114.384 88.1907 97.0109 104.575 85.7802C104.176 97.42 120.645 115.377 189.713 94.0886Z" fill="white"/>
<path fill-rule="evenodd" clip-rule="evenodd" d="M221.937 80.3918C213.991 76.7378 201.312 74.3305 190.326 73.1207C167.075 69.1539 117.617 64.4843 105.796 77.5405C97.4403 86.7694 91.2957 78.2987 87.6026 69.5542C81.3489 63.825 75.7087 66.0802 70.4975 68.164C65.0059 70.3599 59.9906 72.3653 55.2351 64.6366C55.1559 64.5078 55.0735 64.3739 54.9881 64.235C48.1327 53.0901 21.7296 10.1659 23.6493 33.4071C24.3293 41.6407 19.592 50.3 14.7405 59.1679C10.8099 66.3527 6.80434 73.6744 5.54435 81.0176C-1.1874 68.583 5.70906 55.977 12.3892 43.7665C17.2406 34.8986 21.978 26.2393 21.2979 18.0057C19.3782 -5.2355 45.7814 37.6887 52.6367 48.8336C52.7221 48.9725 52.8045 49.1064 52.8837 49.2352C57.6392 56.9639 62.6545 54.9585 68.1461 52.7626C73.3574 50.6788 78.9975 48.4236 85.2512 54.1528C88.9443 62.8973 95.089 71.368 103.445 62.1391C115.266 49.0829 164.723 53.7525 187.975 57.7193C210.328 60.1809 239.69 67.6004 221.937 80.3918Z" fill="#DAEEF4"/>
<circle cx="103.342" cy="23.0822" r="1.54242" fill="white"/>
<circle cx="143.445" cy="19.9975" r="1.54242" fill="white"/>
<circle cx="76.3496" cy="11.5141" r="1.54242" fill="white"/>
<circle cx="47.4293" cy="15.7559" r="2.69923" fill="white"/>
</svg>
