<svg width="306" height="189" viewBox="0 0 306 189" fill="none" xmlns="http://www.w3.org/2000/svg">
<rect x="129" width="176" height="176" fill="white"/>
<path d="M0.110596 174.586V188.586L20.6106 174.586H0.110596Z" fill="#FFECBA"/>
<rect width="128.784" height="176" transform="matrix(1 -4.50318e-05 -4.20245e-05 1 0.11084 0.086792)" fill="#FFECBA"/>
<g filter="url(#filter0_d_114_3519)">
<path d="M61.8534 76.6652C37.4379 76.3834 29.2211 86.3296 28.1647 91.338C28.5951 95.953 35.2311 104.901 58.3319 103.775C87.208 102.366 95.4248 101.087 96.9507 88.5208C95.7769 81.5952 92.3728 77.0173 61.8534 76.6652Z" fill="#D59056"/>
<path d="M76.9864 89.1359C73.8088 89.6631 73.7611 85.1315 74.1344 82.7998C77.2784 78.284 78.112 79.3619 79.068 79.0082C79.8003 77.5913 80.8289 78.1377 81.2517 78.588C81.8233 78.2263 83.0912 77.6124 83.5897 78.0508C85.1404 77.9163 86.6738 78.5304 86.9605 78.9922C87.2472 79.454 87.1308 81.9031 87.0323 82.6639C86.9339 83.4247 85.1672 83.9124 84.9511 84.2655C84.7351 84.6186 84.4229 87.6549 82.6346 87.8936C80.8463 88.1323 80.9584 88.4769 76.9864 89.1359Z" fill="#762B09"/>
<path d="M83.8248 93.859C76.7459 96.2472 73.7848 90.1103 73.2523 87.015C73.2411 91.451 75.4313 93.8744 76.2138 94.6777C78.3478 96.8685 83.2317 97.3687 85.6833 97.0241C95.9131 91.7016 91.0177 81.8307 90.3444 82.2851C90.3293 89.4141 86.8086 92.6498 83.8248 93.859Z" fill="#490E02"/>
<path d="M76.2628 87.8066C74.745 87.7578 74.2454 85.1004 74.081 83.7868C72.5073 85.186 73.5005 88.8229 74.2982 90.4574C75.0069 91.6486 77.0519 94.1119 79.5621 94.4353C82.6998 94.8395 84.9869 93.2882 86.0384 93.197C87.0899 93.1057 87.1689 92.2721 87.1431 91.9737C87.6494 91.7043 89.5246 90.6396 89.7733 90.0168C90.0219 89.3939 89.8109 87.8338 89.9417 87.597C90.0725 87.3601 91.1656 84.2588 90.3213 82.3778C89.6459 80.8731 87.1444 79.196 85.9781 78.5456C86.4672 79.5303 87.21 81.5805 86.2694 81.9026C85.3287 82.2247 84.7076 83.0904 84.5146 83.4829C84.2175 84.7113 83.2578 87.1396 81.795 87.026C79.9665 86.884 78.1599 87.8675 76.2628 87.8066Z" fill="#6C1A01"/>
<path d="M79.6297 79.4359C79.3958 79.312 78.9721 79.7709 78.7896 80.0158C78.7857 79.9845 78.7329 79.8511 78.5523 79.5682C78.3266 79.2145 78.0136 79.6343 77.834 79.6564C77.6544 79.6785 77.9584 79.9272 77.7583 80.5239C77.5581 81.1206 78.6356 80.9882 78.9626 81.4248C79.2897 81.8614 79.7822 81.4195 79.8605 81.3146C79.9387 81.2096 79.8695 80.646 80.026 80.4361C80.1825 80.2261 79.9222 79.5906 79.6297 79.4359Z" fill="#84300A"/>
<path d="M83.0124 78.6069C82.6491 78.6055 82.319 78.8503 82.0725 79.1385C82.0634 79.1137 81.7162 79.3553 81.4154 79.1955C81.0395 78.9957 80.6169 79.4898 80.3508 79.5879C80.0846 79.686 80.5662 79.7622 80.3316 80.3562C80.0971 80.9502 81.213 80.667 81.7495 80.8922C82.286 81.1175 83.6981 80.4416 83.8037 80.3181C83.9093 80.1945 84.0102 79.5084 84.2215 79.2613C84.4328 79.0143 83.4665 78.6087 83.0124 78.6069Z" fill="#84300A"/>
<path d="M76.9069 80.7583C76.5436 80.7569 76.3678 81.1718 76.1213 81.46C76.1122 81.4352 76.2095 82.1927 75.9088 82.0328C75.5328 81.8331 75.0812 82.535 74.8629 82.7572C74.6641 82.9595 75.4219 83.1646 75.1873 83.7586C74.9528 84.3525 75.7924 83.6272 76.3289 83.8524C76.8654 84.0776 78.2774 83.4017 78.3831 83.2782C78.4887 83.1547 78.5776 82.6712 78.5398 82.2349C78.5019 81.7986 77.3611 80.7601 76.9069 80.7583Z" fill="#84300A"/>
<path d="M55.9497 87.7271C59.1273 88.2542 59.1751 83.7226 58.8018 81.391C55.6577 76.8751 54.8242 77.9531 53.8681 77.5994C53.1359 76.1824 52.1072 76.7288 51.6844 77.1792C51.1128 76.8174 49.8449 76.2036 49.3464 76.642C47.7958 76.5075 46.2624 77.1216 45.9757 77.5834C45.6889 78.0452 45.8054 80.4942 45.9038 81.2551C46.0023 82.0159 47.769 82.5036 47.985 82.8567C48.2011 83.2098 48.5133 86.246 50.3016 86.4848C52.0898 86.7235 51.9777 87.0681 55.9497 87.7271Z" fill="#762B09"/>
<path d="M49.1114 92.45C56.1903 94.8381 59.1514 88.7012 59.6839 85.6059C59.695 90.0419 57.5049 92.4654 56.7224 93.2687C54.5884 95.4594 49.7044 95.9597 47.2529 95.615C37.0231 90.2925 41.9185 80.4217 42.5918 80.8761C42.6069 88.0051 46.1276 91.2408 49.1114 92.45Z" fill="#490E02"/>
<path d="M56.6734 86.3978C58.1911 86.349 58.6907 83.6915 58.8551 82.3779C60.4288 83.7772 59.4356 87.4141 58.638 89.0485C57.9293 90.2398 55.8842 92.703 53.374 93.0264C50.2363 93.4307 47.9493 91.8794 46.8978 91.7881C45.8462 91.6969 45.7672 90.8633 45.7931 90.5649C45.2867 90.2955 43.4116 89.2308 43.1629 88.608C42.9142 87.9851 43.1253 86.425 42.9945 86.1882C42.8637 85.9513 41.7706 82.85 42.6148 80.969C43.2902 79.4643 45.7917 77.7872 46.958 77.1367C46.469 78.1215 45.7261 80.1716 46.6668 80.4938C47.6075 80.8159 48.2286 81.6815 48.4216 82.0741C48.7186 83.3025 49.6784 85.7308 51.1412 85.6172C52.9697 85.4751 54.7762 86.4587 56.6734 86.3978Z" fill="#6C1A01"/>
<path d="M53.3063 78.027C53.5402 77.9032 53.9639 78.3621 54.1465 78.607C54.1503 78.5757 54.2032 78.4423 54.3837 78.1594C54.6095 77.8057 54.9224 78.2255 55.102 78.2476C55.2816 78.2696 54.9776 78.5184 55.1778 79.1151C55.3779 79.7117 54.3005 79.5794 53.9734 80.016C53.6464 80.4526 53.1538 80.0107 53.0756 79.9057C52.9973 79.8008 53.0665 79.2372 52.91 79.0272C52.7535 78.8173 53.0139 78.1818 53.3063 78.027Z" fill="#84300A"/>
<path d="M49.9237 77.1984C50.287 77.1969 50.617 77.4417 50.8635 77.7299C50.8726 77.7051 51.2199 77.9468 51.5206 77.7869C51.8966 77.5871 52.3191 78.0812 52.5853 78.1793C52.8514 78.2774 52.3698 78.3537 52.6044 78.9477C52.8389 79.5416 51.723 79.2585 51.1865 79.4837C50.65 79.7089 49.238 79.033 49.1323 78.9095C49.0267 78.786 48.9258 78.0998 48.7145 77.8528C48.5033 77.6057 49.4695 77.2002 49.9237 77.1984Z" fill="#84300A"/>
<path d="M56.0292 79.3492C56.3925 79.3478 56.5683 79.7628 56.8148 80.051C56.824 80.0261 56.7266 80.7836 57.0274 80.6238C57.4033 80.424 57.855 81.1259 58.0733 81.3481C58.2721 81.5504 57.5143 81.7555 57.7488 82.3495C57.9834 82.9435 57.1437 82.2181 56.6073 82.4434C56.0708 82.6686 54.6587 81.9927 54.5531 81.8692C54.4475 81.7456 54.3585 81.2621 54.3964 80.8258C54.4342 80.3896 55.5751 79.351 56.0292 79.3492Z" fill="#84300A"/>
<path d="M49.5192 80.215C46.3416 80.7422 46.2938 76.2106 46.6671 73.8789C49.8111 69.3631 50.6447 70.441 51.6007 70.0873C52.333 68.6704 53.3616 69.2168 53.7844 69.6671C54.3561 69.3054 55.6239 68.6915 56.1224 69.1299C57.6731 68.9954 59.2065 69.6095 59.4932 70.0713C59.78 70.5331 59.6635 72.9822 59.5651 73.743C59.4666 74.5038 57.6999 74.9915 57.4839 75.3446C57.2678 75.6977 56.9556 78.734 55.1673 78.9727C53.379 79.2114 53.4911 79.556 49.5192 80.215Z" fill="#762B09"/>
<path d="M56.3574 84.9377C49.2785 87.3258 46.3174 81.1889 45.7849 78.0936C45.7737 82.5296 47.9639 84.9531 48.7464 85.7563C50.8803 87.9471 55.7643 88.4474 58.2159 88.1027C68.4456 82.7802 63.5503 72.9094 62.8769 73.3638C62.8618 80.4927 59.3411 83.7284 56.3574 84.9377Z" fill="#490E02"/>
<path d="M48.7952 78.8854C47.2775 78.8367 46.7779 76.1792 46.6135 74.8656C45.0398 76.2649 46.033 79.9017 46.8306 81.5362C47.5394 82.7274 49.5844 85.1907 52.0946 85.5141C55.2323 85.9184 57.5193 84.367 58.5709 84.2758C59.6224 84.1846 59.7014 83.3509 59.6755 83.0525C60.1819 82.7831 62.0571 81.7185 62.3057 81.0956C62.5544 80.4728 62.3434 78.9127 62.4742 78.6758C62.605 78.439 63.6981 75.3377 62.8538 73.4567C62.1784 71.9519 59.6769 70.2749 58.5106 69.6244C58.9996 70.6092 59.7425 72.6593 58.8018 72.9814C57.8611 73.3036 57.24 74.1692 57.0471 74.5618C56.75 75.7901 55.7903 78.2184 54.3274 78.1048C52.4989 77.9628 50.6924 78.9463 48.7952 78.8854Z" fill="#6C1A01"/>
<path d="M52.1623 70.5147C51.9284 70.3909 51.5047 70.8497 51.3222 71.0947C51.3183 71.0633 51.2655 70.93 51.0849 70.647C50.8592 70.2934 50.5462 70.7132 50.3666 70.7353C50.187 70.7573 50.491 71.006 50.2909 71.6027C50.0907 72.1994 51.1682 72.0671 51.4952 72.5037C51.8223 72.9403 52.3148 72.4984 52.3931 72.3934C52.4713 72.2884 52.4021 71.7248 52.5586 71.5149C52.7151 71.305 52.4548 70.6695 52.1623 70.5147Z" fill="#84300A"/>
<path d="M55.545 69.6858C55.1817 69.6843 54.8516 69.9291 54.6051 70.2173C54.596 70.1925 54.2488 70.4342 53.948 70.2744C53.5721 70.0746 53.1495 70.5686 52.8834 70.6667C52.6172 70.7648 53.0988 70.8411 52.8642 71.4351C52.6297 72.0291 53.7456 71.7459 54.2821 71.9711C54.8186 72.1963 56.2306 71.5204 56.3363 71.3969C56.4419 71.2734 56.5428 70.5872 56.7541 70.3402C56.9654 70.0931 55.9991 69.6876 55.545 69.6858Z" fill="#84300A"/>
<path d="M49.4394 71.8369C49.0761 71.8355 48.9003 72.2504 48.6538 72.5386C48.6447 72.5138 48.742 73.2713 48.4412 73.1115C48.0653 72.9117 47.6136 73.6136 47.3953 73.8358C47.1965 74.0381 47.9543 74.2432 47.7198 74.8372C47.4852 75.4311 48.3249 74.7058 48.8614 74.931C49.3978 75.1562 50.8099 74.4804 50.9155 74.3568C51.0212 74.2333 51.1101 73.7498 51.0722 73.3135C51.0344 72.8772 49.8936 71.8387 49.4394 71.8369Z" fill="#84300A"/>
<path d="M82.6222 76.9928C85.8378 76.806 84.8849 72.3755 84.0065 70.1836C79.9438 66.4725 79.3685 67.7078 78.358 67.5737C77.3313 66.3531 76.4485 67.113 76.1354 67.6454C75.4981 67.4187 74.126 67.0996 73.7365 67.6372C72.1944 67.848 70.8342 68.7853 70.6564 69.2989C70.4786 69.8126 71.1323 72.1756 71.3962 72.896C71.66 73.6164 73.4908 73.7023 73.7794 73.9991C74.068 74.2958 75.0422 77.1885 76.8391 77.0269C78.6361 76.8653 78.6027 77.2262 82.6222 76.9928Z" fill="#762B09"/>
<path d="M76.9942 83.1076C84.4255 83.8755 85.96 77.2366 85.7967 74.1001C86.786 78.4244 85.1844 81.2713 84.5983 82.2273C83.0001 84.8348 78.3468 86.4 75.8796 86.6046C64.7278 83.6696 67.3253 72.9621 68.0823 73.2568C69.6695 80.2069 73.8172 82.5863 76.9942 83.1076Z" fill="#490E02"/>
<path d="M83.035 75.5364C84.5046 75.1541 84.4057 72.4519 84.2763 71.1344C86.1199 72.1521 85.9534 75.9184 85.5359 77.6886C85.1074 79.0068 83.656 81.8605 81.279 82.7296C78.3077 83.816 75.7349 82.8073 74.6891 82.9503C73.6433 83.0932 73.3824 82.2976 73.3418 82.0008C72.7885 81.8497 70.7247 81.2249 70.3448 80.6722C69.9648 80.1196 69.8265 78.5513 69.6467 78.3492C69.4669 78.147 67.7167 75.3632 68.1252 73.3424C68.4521 71.7257 70.5221 69.5381 71.5162 68.6464C71.2564 69.7149 70.984 71.8783 71.9726 71.985C72.9612 72.0917 73.7579 72.7991 74.0327 73.1394C74.5934 74.272 76.0651 76.4288 77.4669 75.9953C79.219 75.4535 81.198 76.0143 83.035 75.5364Z" fill="#6C1A01"/>
<path d="M77.9046 68.1146C78.1055 67.9422 78.6199 68.2963 78.852 68.4949C78.8488 68.4635 78.871 68.3218 78.9847 68.006C79.1268 67.6112 79.5247 67.9517 79.7047 67.9336C79.8847 67.9155 79.6431 68.2251 79.9699 68.763C80.2968 69.3008 79.2167 69.4094 78.994 69.9074C78.7713 70.4054 78.1934 70.083 78.0939 69.9979C77.9944 69.9128 77.9376 69.3478 77.7387 69.1775C77.5397 69.0073 77.6535 68.3301 77.9046 68.1146Z" fill="#84300A"/>
<path d="M74.4224 68.0525C74.7764 67.9709 75.1523 68.1369 75.4563 68.3637C75.4597 68.3374 75.8517 68.4965 76.1098 68.2743C76.4324 67.9965 76.9535 68.3852 77.2348 68.4222C77.516 68.4592 77.0631 68.6398 77.4229 69.1674C77.7827 69.695 76.6318 69.665 76.1582 70.003C75.6846 70.341 74.1583 69.9932 74.028 69.896C73.8977 69.7988 73.6479 69.1518 73.3874 68.9575C73.1268 68.7631 73.9798 68.1544 74.4224 68.0525Z" fill="#84300A"/>
<path d="M80.8521 68.8037C81.2061 68.7222 81.4691 69.0882 81.7731 69.3149C81.7765 69.2887 81.8487 70.049 82.1068 69.8267C82.4294 69.5489 83.0248 70.1339 83.2867 70.3025C83.5252 70.456 82.8313 70.8232 83.1911 71.3508C83.5509 71.8784 82.5719 71.3561 82.0984 71.6942C81.6248 72.0322 80.0984 71.6844 79.9681 71.5872C79.8378 71.49 79.6445 71.038 79.5852 70.6041C79.5258 70.1703 80.4095 68.9057 80.8521 68.8037Z" fill="#84300A"/>
<path d="M60.7362 66.363C57.9448 65.432 59.8411 61.7518 61.1382 60.0281C65.6055 57.7235 65.8184 58.95 66.7415 59.0725C67.9379 58.2408 68.5354 59.1213 68.6846 59.6655C69.3007 59.6175 70.5867 59.663 70.8021 60.2299C72.1119 60.7834 73.088 61.9341 73.1225 62.4295C73.1569 62.9248 72.0172 64.853 71.6128 65.4255C71.2084 65.9979 69.5734 65.6374 69.2481 65.8303C68.9229 66.0232 67.3744 68.3421 65.8282 67.7713C64.282 67.2006 64.2254 67.5268 60.7362 66.363Z" fill="#762B09"/>
<path d="M64.2423 73.0969C57.5056 72.0031 57.7344 65.7825 58.626 63.0554C56.7229 66.6332 57.457 69.5255 57.7459 70.5084C58.534 73.1888 62.2648 75.6782 64.3919 76.4466C74.9261 76.5159 75.1871 66.4538 74.4493 66.5333C71.3932 72.2843 67.1683 73.3943 64.2423 73.0969Z" fill="#490E02"/>
<path d="M60.7193 64.9803C59.5144 64.2929 60.2455 61.9334 60.6736 60.8023C58.8052 61.2604 58.0545 64.6217 58.0008 66.2823C58.0646 67.5469 58.6645 70.4095 60.5536 71.7424C62.9151 73.4086 65.4245 73.1323 66.3127 73.5076C67.2009 73.8829 67.6206 73.2433 67.7271 72.9913C68.2511 72.9899 70.2201 72.9308 70.6869 72.5339C71.1537 72.137 71.6494 70.787 71.8561 70.6515C72.0629 70.5161 74.2698 68.4782 74.3911 66.5986C74.4882 65.0949 73.184 62.6724 72.5198 61.6491C72.4942 62.6533 72.2189 64.6262 71.3216 64.4847C70.4244 64.3432 69.5531 64.7771 69.2297 65.0117C68.4653 65.8769 66.6534 67.4283 65.5205 66.712C64.1044 65.8165 62.2255 65.8395 60.7193 64.9803Z" fill="#6C1A01"/>
<path d="M67.0128 59.6577C66.8767 59.4578 66.3386 59.6475 66.0866 59.7673C66.0969 59.7404 66.1112 59.6101 66.0861 59.3045C66.0548 58.9225 65.6228 59.1279 65.4684 59.0691C65.3139 59.0102 65.4532 59.3409 65.0368 59.7373C64.6204 60.1338 65.5471 60.4869 65.6248 60.9792C65.7025 61.4714 66.289 61.3248 66.397 61.2735C66.505 61.2221 66.6897 60.7374 66.9058 60.6347C67.1218 60.5319 67.1829 59.9076 67.0128 59.6577Z" fill="#84300A"/>
<path d="M70.0984 60.4326C69.8056 60.2763 69.4346 60.3331 69.1125 60.4606C69.1157 60.4367 68.7321 60.4836 68.5574 60.2261C68.3391 59.9042 67.7869 60.1228 67.53 60.0884C67.2732 60.054 67.6296 60.3212 67.1865 60.7008C66.7435 61.0803 67.7657 61.3281 68.1028 61.7391C68.4399 62.15 69.8689 62.2071 70.0069 62.1524C70.145 62.0977 70.5194 61.5867 70.7955 61.4774C71.0716 61.3681 70.4644 60.628 70.0984 60.4326Z" fill="#84300A"/>
<path d="M64.2489 59.5629C63.9561 59.4066 63.637 59.6666 63.3148 59.7942C63.3181 59.7702 63.0732 60.4235 62.8986 60.166C62.6803 59.8441 62.0158 60.2182 61.7446 60.3044C61.4977 60.3829 62.0221 60.8721 61.5791 61.2517C61.1361 61.6312 62.1239 61.404 62.461 61.8149C62.7981 62.2259 64.2271 62.2829 64.3651 62.2283C64.5032 62.1736 64.7814 61.8211 64.9372 61.4526C65.0929 61.0841 64.6149 59.7582 64.2489 59.5629Z" fill="#84300A"/>
<path d="M69.4635 85.8487C69.1326 85.6351 68.4457 86.2607 68.1436 86.6002C68.1419 86.5533 68.0808 86.3489 67.8495 85.9063C67.5604 85.353 67.0425 85.9351 66.7735 85.9447C66.5045 85.9543 66.9231 86.362 66.5497 87.2207C66.1764 88.0793 67.7903 88.0217 68.2189 88.7109C68.6475 89.4001 69.4344 88.8084 69.5639 88.6629C69.6934 88.5174 69.6632 87.6731 69.9222 87.3821C70.1811 87.0911 69.877 86.1157 69.4635 85.8487Z" fill="#84300A"/>
<path d="M74.5835 85.0553C74.0452 85.0064 73.5246 85.3268 73.1222 85.7223C73.1118 85.6843 72.5661 85.9979 72.1409 85.7223C71.6093 85.3778 70.9195 86.0558 70.5124 86.167C70.1053 86.2782 70.8093 86.4531 70.3853 87.3033C69.9613 88.1536 71.6517 87.8773 72.4179 88.2801C73.1841 88.6829 75.3639 87.8627 75.5363 87.6932C75.7088 87.5237 75.9466 86.5197 76.2915 86.1807C76.6364 85.8417 75.2564 85.1164 74.5835 85.0553Z" fill="#84300A"/>
<path d="M65.2576 87.4584C64.7193 87.4095 64.4053 88.0019 64.003 88.3974C63.9926 88.3594 64.0395 89.4947 63.6142 89.2191C63.0827 88.8746 62.323 89.8569 61.9709 90.1582C61.6502 90.4325 62.747 90.8339 62.323 91.6841C61.899 92.5343 63.2368 91.5672 64.003 91.97C64.7691 92.3728 66.949 91.5526 67.1214 91.3831C67.2939 91.2136 67.4878 90.5084 67.4878 89.8569C67.4878 89.2054 65.9305 87.5194 65.2576 87.4584Z" fill="#84300A"/>
<path d="M59.0816 83.3661C55.2515 82.0886 57.8535 77.0388 59.6332 74.6736C65.763 71.5113 66.0552 73.1942 67.3219 73.3624C68.9635 72.2212 69.7833 73.4293 69.988 74.1761C70.8334 74.1101 72.5981 74.1727 72.8936 74.9505C74.6909 75.71 76.0303 77.2889 76.0775 77.9686C76.1247 78.6484 74.5608 81.2941 74.006 82.0796C73.4511 82.8651 71.2076 82.3704 70.7613 82.6351C70.3151 82.8998 68.1902 86.0816 66.0686 85.2985C63.947 84.5153 63.8694 84.9629 59.0816 83.3661Z" fill="#762B09"/>
<path d="M63.8927 92.6066C54.6489 91.1058 54.9629 82.5702 56.1862 78.8281C53.575 83.7374 54.5822 87.7062 54.9787 89.0548C56.06 92.7328 61.1792 96.1485 64.0979 97.2029C78.5525 97.298 78.9107 83.4913 77.8983 83.6004C73.7049 91.4917 67.9076 93.0147 63.8927 92.6066Z" fill="#490E02"/>
<path d="M59.0584 81.469C57.405 80.5258 58.4083 77.2882 58.9957 75.7362C56.432 76.3648 55.4019 80.9769 55.3282 83.2555C55.4157 84.9908 56.2388 88.9187 58.8311 90.7477C62.0714 93.034 65.5147 92.6548 66.7334 93.1698C67.9521 93.6847 68.5281 92.8072 68.6742 92.4614C69.3932 92.4595 72.0949 92.3783 72.7354 91.8337C73.3759 91.2892 74.0561 89.4367 74.3398 89.2508C74.6235 89.065 77.6518 86.2686 77.8182 83.6896C77.9514 81.6263 76.1618 78.3023 75.2504 76.8982C75.2154 78.276 74.8375 80.9831 73.6064 80.789C72.3752 80.5948 71.1798 81.1902 70.7359 81.5122C69.6871 82.6994 67.2008 84.8281 65.6463 83.8451C63.7032 82.6165 61.1251 82.648 59.0584 81.469Z" fill="#6C1A01"/>
<path d="M67.694 74.1656C67.5073 73.8913 66.769 74.1516 66.4232 74.316C66.4373 74.2791 66.4569 74.1003 66.4225 73.681C66.3796 73.1568 65.7868 73.4387 65.5748 73.3579C65.3629 73.2771 65.5541 73.7309 64.9827 74.2748C64.4113 74.8188 65.6828 75.3034 65.7895 75.9788C65.8961 76.6543 66.7009 76.4532 66.8491 76.3827C66.9973 76.3122 67.2508 75.6471 67.5472 75.5061C67.8436 75.3652 67.9274 74.5084 67.694 74.1656Z" fill="#84300A"/>
<path d="M71.9279 75.2288C71.5262 75.0143 71.017 75.0922 70.575 75.2672C70.5794 75.2343 70.0531 75.2987 69.8134 74.9454C69.5138 74.5037 68.7561 74.8037 68.4037 74.7565C68.0513 74.7093 68.5403 75.0759 67.9324 75.5967C67.3244 76.1175 68.727 76.4575 69.1896 77.0214C69.6521 77.5853 71.6129 77.6636 71.8023 77.5886C71.9918 77.5136 72.5056 76.8123 72.8845 76.6623C73.2633 76.5124 72.4302 75.4968 71.9279 75.2288Z" fill="#84300A"/>
<path d="M63.9018 74.0356C63.5001 73.8211 63.0621 74.178 62.6201 74.3529C62.6245 74.3201 62.2886 75.2165 62.0489 74.8632C61.7494 74.4215 60.8377 74.9347 60.4655 75.0531C60.1267 75.1608 60.8463 75.8321 60.2384 76.3529C59.6305 76.8737 60.9859 76.5618 61.4485 77.1257C61.911 77.6896 63.8718 77.7679 64.0613 77.6929C64.2507 77.6179 64.6325 77.1342 64.8462 76.6285C65.0598 76.1229 64.404 74.3036 63.9018 74.0356Z" fill="#84300A"/>
<path d="M89.3859 95.5741C93.2161 94.2966 90.6141 89.2468 88.8343 86.8816C82.7045 83.7193 82.4123 85.4022 81.1456 85.5704C79.504 84.4292 78.6842 85.6373 78.4795 86.3841C77.6341 86.3181 75.8695 86.3807 75.5739 87.1586C73.7767 87.918 72.4372 89.4969 72.39 90.1767C72.3428 90.8564 73.9067 93.5021 74.4615 94.2876C75.0164 95.0731 77.2599 94.5784 77.7062 94.8431C78.1525 95.1078 80.2773 98.2897 82.3989 97.5065C84.5205 96.7233 84.5982 97.1709 89.3859 95.5741Z" fill="#762B09"/>
<path d="M84.5748 104.815C93.8186 103.314 93.5046 94.7781 92.2813 91.036C94.8925 95.9453 93.8853 99.9141 93.4888 101.263C92.4075 104.941 87.2883 108.356 84.3696 109.411C69.915 109.506 69.5568 95.6992 70.5692 95.8083C74.7626 103.7 80.5599 105.223 84.5748 104.815Z" fill="#490E02"/>
<path d="M89.409 93.6769C91.0624 92.7337 90.0591 89.4961 89.4717 87.944C92.0354 88.5727 93.0655 93.1848 93.1392 95.4634C93.0517 97.1987 92.2286 101.127 89.6363 102.956C86.396 105.242 82.9528 104.863 81.734 105.378C80.5153 105.893 79.9393 105.015 79.7932 104.669C79.0742 104.667 76.3725 104.586 75.732 104.042C75.0915 103.497 74.4113 101.645 74.1276 101.459C73.8439 101.273 70.8156 98.4765 70.6492 95.8975C70.516 93.8342 72.3056 90.5102 73.217 89.1061C73.252 90.4839 73.6299 93.191 74.861 92.9969C76.0922 92.8027 77.2877 93.3981 77.7315 93.72C78.7803 94.9073 81.2666 97.036 82.8211 96.053C84.7642 94.8244 87.3423 94.8559 89.409 93.6769Z" fill="#6C1A01"/>
<path d="M80.7735 86.3735C80.9602 86.0992 81.6985 86.3595 82.0443 86.5239C82.0302 86.487 82.0107 86.3082 82.045 85.8889C82.0879 85.3647 82.6808 85.6466 82.8927 85.5658C83.1046 85.485 82.9135 85.9387 83.4848 86.4827C84.0562 87.0267 82.7847 87.5113 82.6781 88.1867C82.5714 88.8622 81.7667 88.661 81.6185 88.5906C81.4703 88.5201 81.2168 87.855 80.9203 87.714C80.6239 87.5731 80.5401 86.7163 80.7735 86.3735Z" fill="#84300A"/>
<path d="M76.5396 87.4367C76.9413 87.2222 77.4505 87.3001 77.8925 87.4751C77.8881 87.4422 78.4145 87.5066 78.6541 87.1533C78.9537 86.7116 79.7114 87.0116 80.0638 86.9644C80.4162 86.9171 79.9272 87.2838 80.5352 87.8046C81.1431 88.3254 79.7405 88.6654 79.278 89.2293C78.8154 89.7932 76.8546 89.8715 76.6652 89.7965C76.4758 89.7215 75.9619 89.0202 75.5831 88.8702C75.2042 88.7202 76.0374 87.7047 76.5396 87.4367Z" fill="#84300A"/>
<path d="M84.5657 86.2432C84.9675 86.0288 85.4054 86.3856 85.8474 86.5606C85.843 86.5277 86.1789 87.4241 86.4186 87.0708C86.7181 86.6292 87.6299 87.1424 88.002 87.2607C88.3408 87.3685 87.6212 88.0397 88.2291 88.5605C88.837 89.0813 87.4816 88.7695 87.019 89.3334C86.5565 89.8972 84.5957 89.9755 84.4063 89.9005C84.2168 89.8255 83.835 89.3418 83.6214 88.8362C83.4077 88.3305 84.0635 86.5113 84.5657 86.2432Z" fill="#84300A"/>
<path d="M34.1641 90.1565C30.8838 87.6112 35.1299 83.5994 37.663 81.9116C44.688 80.9338 44.3977 82.6661 45.5692 83.2611C47.5509 82.7137 47.9343 84.1653 47.8783 84.9596C48.7209 85.1838 50.4115 85.8462 50.4331 86.7016C51.9177 88.0511 52.6788 90.0397 52.4928 90.7152C52.3069 91.3907 49.8876 93.4243 49.0815 93.9971C48.2754 94.5699 46.2675 93.3251 45.7443 93.4297C45.2211 93.5343 42.0748 95.8967 40.2836 94.4135C38.4923 92.9304 38.2644 93.3381 34.1641 90.1565Z" fill="#762B09"/>
<path d="M35.681 100.761C27.225 96.1533 30.4399 87.9796 32.9026 84.7664C28.6955 88.6387 28.3194 92.8325 28.2442 94.276C28.0392 98.2129 31.8409 103.272 34.313 105.29C48.3036 110.311 53.3587 97.0385 52.3393 96.7992C45.5804 103.025 39.437 102.526 35.681 100.761Z" fill="#490E02"/>
<path d="M34.7887 88.3079C33.5063 86.8292 35.5835 84.0303 36.6826 82.7249C33.981 82.4606 31.4091 86.5838 30.5607 88.7693C30.054 90.4826 29.5132 94.5738 31.4044 97.2321C33.7685 100.555 37.2382 101.361 38.245 102.276C39.2518 103.191 40.1097 102.536 40.3694 102.251C41.0676 102.494 43.7164 103.336 44.5234 103.027C45.3304 102.717 46.6219 101.151 46.9605 101.068C47.2991 100.984 51.1905 99.3039 52.2313 96.8586C53.064 94.9023 52.4612 91.0674 52.0558 89.3944C51.552 90.7192 50.2624 93.2166 49.1342 92.6085C48.006 92.0004 46.6432 92.1704 46.1028 92.3314C44.6805 93.1255 41.5427 94.343 40.3698 92.8594C38.9036 91.0049 36.3917 90.1564 34.7887 88.3079Z" fill="#6C1A01"/>
<path d="M45.6564 84.1669C45.5688 83.8371 44.7638 83.8379 44.3722 83.8795C44.3985 83.8485 44.4785 83.6817 44.5881 83.2632C44.7252 82.74 44.054 82.8114 43.8759 82.6607C43.6979 82.5101 43.7286 83.0155 42.9888 83.3484C42.249 83.6813 43.3173 84.585 43.1905 85.2766C43.0636 85.9682 43.9129 86.0475 44.0807 86.0297C44.2486 86.0118 44.7213 85.453 45.0569 85.4173C45.3925 85.3816 45.766 84.5791 45.6564 84.1669Z" fill="#84300A"/>
<path d="M49.4016 86.6421C49.085 86.2971 48.5644 86.1991 48.076 86.2181C48.0914 86.1877 47.5588 86.0707 47.4468 85.6462C47.3068 85.1156 46.4694 85.1483 46.1436 84.9823C45.8178 84.8163 46.1672 85.3388 45.3999 85.6368C44.6325 85.9347 45.8773 86.7428 46.1338 87.4476C46.3902 88.1523 48.2658 88.8969 48.4751 88.8887C48.6845 88.8805 49.4221 88.3754 49.8408 88.359C50.2595 88.3427 49.7974 87.0734 49.4016 86.6421Z" fill="#84300A"/>
<path d="M42.0218 82.7476C41.7051 82.4026 41.1586 82.5995 40.6701 82.6185C40.6856 82.5881 40.0541 83.3433 39.9421 82.9188C39.802 82.3882 38.7425 82.5752 38.3412 82.5631C37.9757 82.5521 38.445 83.4487 37.6776 83.7467C36.9103 84.0447 38.3316 84.2043 38.5881 84.909C38.8446 85.6138 40.7201 86.3583 40.9295 86.3501C41.1388 86.342 41.6742 86.0029 42.0539 85.5852C42.4335 85.1675 42.4176 83.1789 42.0218 82.7476Z" fill="#84300A"/>
<path d="M58.8409 99.7183C62.9223 98.956 60.9825 93.4459 59.5024 90.7862C53.7034 86.7022 53.1689 88.3754 51.8549 88.3684C50.3433 86.9749 49.3382 88.0902 49.0246 88.8221C48.1727 88.6359 46.3664 88.4513 45.9558 89.202C44.0182 89.7227 42.4316 91.1426 42.2878 91.8283C42.1441 92.514 43.3648 95.4292 43.8194 96.3074C44.2741 97.1856 46.629 96.9975 47.0464 97.3299C47.4637 97.6624 49.1804 101.203 51.4517 100.703C53.7231 100.204 53.7392 100.671 58.8409 99.7183Z" fill="#762B09"/>
<path d="M52.6398 108.454C62.2671 108.226 63.1485 99.487 62.4291 95.503C64.3981 100.871 62.8135 104.772 62.2198 106.09C60.6007 109.685 54.9054 112.444 51.7839 113.107C37.0464 111.169 38.6247 97.0549 39.6406 97.3085C42.8016 105.937 48.4926 108.304 52.6398 108.454Z" fill="#490E02"/>
<path d="M59.1316 97.789C60.9485 97.0609 60.3822 93.6217 60.0022 91.9581C62.5253 92.9592 62.9255 97.8024 62.6798 100.134C62.3465 101.889 60.9553 105.774 58.0573 107.273C54.4348 109.146 50.9807 108.275 49.6668 108.628C48.3529 108.981 47.8897 108.006 47.7895 107.633C47.0574 107.53 44.3167 107.067 43.7409 106.422C43.1651 105.777 42.733 103.794 42.4701 103.565C42.2073 103.336 39.5161 100.061 39.7095 97.4108C39.8643 95.2903 42.155 92.1562 43.281 90.8541C43.1228 92.2626 43.1267 95.0733 44.4081 95.0488C45.6896 95.0243 46.8235 95.7991 47.2303 96.1895C48.1316 97.5464 50.3646 100.065 52.0864 99.2823C54.2387 98.3042 56.8604 98.6991 59.1316 97.789Z" fill="#6C1A01"/>
<path d="M51.363 89.1339C51.5918 88.8808 52.3072 89.2498 52.6363 89.466C52.6272 89.4264 52.6324 89.2415 52.7264 88.8192C52.8439 88.2913 53.4081 88.6619 53.6353 88.6094C53.8626 88.557 53.604 88.9922 54.1095 89.6268C54.615 90.2613 53.2515 90.576 53.0479 91.249C52.8442 91.922 52.0527 91.6039 51.9117 91.5112C51.7706 91.4186 51.606 90.7054 51.3239 90.5201C51.0418 90.3348 51.077 89.4503 51.363 89.1339Z" fill="#84300A"/>
<path d="M46.9004 89.6211C47.3398 89.4592 47.8475 89.6102 48.2732 89.8506C48.2733 89.8165 48.8004 89.9562 49.0943 89.63C49.4616 89.2223 50.1912 89.6345 50.5568 89.636C50.9225 89.6374 50.3727 89.9421 50.9187 90.5582C51.4647 91.1743 49.9881 91.3232 49.4376 91.8325C48.887 92.3418 46.8786 92.1456 46.6962 92.0426C46.5138 91.9395 46.0891 91.1528 45.7243 90.9467C45.3595 90.7406 46.3511 89.8234 46.9004 89.6211Z" fill="#84300A"/>
<path d="M55.244 89.5353C55.6835 89.3734 56.0793 89.7985 56.505 90.039C56.5051 90.0049 56.7211 90.9653 57.015 90.6391C57.3823 90.2314 58.2388 90.8824 58.6012 91.0554C58.9312 91.2128 58.1036 91.7953 58.6496 92.4114C59.1956 93.0274 57.8587 92.519 57.3082 93.0283C56.7577 93.5376 54.7493 93.3414 54.5669 93.2383C54.3845 93.1353 54.0636 92.5888 53.9171 92.0437C53.7707 91.4985 54.6947 89.7377 55.244 89.5353Z" fill="#84300A"/>
<path d="M64.8304 105.101C62.2802 106.918 60.3038 102.98 59.6344 100.784C60.4523 95.4982 61.6405 96.0837 62.3245 95.3667C62.359 93.8165 63.4907 93.8546 64.0522 94.0674C64.397 93.5074 65.2423 92.43 65.8648 92.6C67.1617 91.8205 68.7631 91.7022 69.2107 91.9831C69.6582 92.264 70.6021 94.4526 70.841 95.1592C71.0798 95.8657 69.745 97.0458 69.7071 97.4465C69.6692 97.8471 70.6928 100.632 69.2329 101.604C67.773 102.576 68.018 102.829 64.8304 105.101Z" fill="#762B09"/>
<path d="M72.8191 106.306C67.6562 111.414 62.45 107.318 60.6634 104.842C62.5476 108.721 65.495 109.903 66.5214 110.27C69.3204 111.273 73.7995 109.625 75.7935 108.277C82.4554 99.2609 73.9658 92.7301 73.5717 93.4144C76.6021 99.647 74.9087 103.976 72.8191 106.306Z" fill="#490E02"/>
<path d="M63.6307 104.249C62.2843 104.854 60.7134 102.747 60.009 101.669C59.232 103.563 61.6521 106.316 63.0466 107.403C64.1741 108.14 67.0119 109.419 69.3422 108.629C72.2552 107.643 73.5903 105.312 74.4697 104.783C75.3491 104.254 75.0622 103.493 74.9122 103.243C75.2394 102.792 76.4226 101.061 76.3739 100.411C76.3251 99.7609 75.4748 98.4884 75.4879 98.2257C75.501 97.963 75.1316 94.7878 73.5912 93.5054C72.3589 92.4796 69.4582 92.0828 68.1619 92.0127C69.0094 92.664 70.5335 94.1374 69.8495 94.8203C69.1654 95.5032 68.9925 96.5244 68.9916 96.9497C69.2566 98.1493 69.4551 100.68 68.129 101.205C66.4715 101.862 65.3136 103.492 63.6307 104.249Z" fill="#6C1A01"/>
<path d="M62.9976 95.5004C62.7404 95.4921 62.5663 96.0738 62.5114 96.3656C62.4947 96.3399 62.3916 96.246 62.1131 96.076C61.7649 95.8634 61.6708 96.3637 61.5234 96.4597C61.376 96.5556 61.7477 96.643 61.8276 97.2496C61.9076 97.8562 62.7921 97.2806 63.2641 97.5223C63.7361 97.764 63.9776 97.1678 64.0012 97.0427C64.0247 96.9176 63.7236 96.4549 63.7707 96.2048C63.8177 95.9546 63.3191 95.5107 62.9976 95.5004Z" fill="#84300A"/>
<path d="M65.5979 93.3323C65.28 93.4861 65.0963 93.8409 65.0041 94.1978C64.9855 94.18 64.7854 94.5393 64.4545 94.5281C64.0408 94.5142 63.8828 95.1261 63.6922 95.3254C63.5016 95.5247 63.9548 95.3857 64.0035 96.0046C64.0522 96.6235 64.906 95.8997 65.4707 95.8674C66.0354 95.835 66.98 94.6419 67.0196 94.4889C67.0591 94.3359 66.8543 93.6936 66.9333 93.3876C67.0124 93.0817 65.9953 93.14 65.5979 93.3323Z" fill="#84300A"/>
<path d="M61.1841 97.8177C60.8661 97.9716 60.8898 98.409 60.7975 98.766C60.7789 98.7482 61.1873 99.3682 60.8564 99.357C60.4428 99.343 60.348 100.149 60.2522 100.436C60.165 100.698 60.9144 100.553 60.9631 101.172C61.0118 101.791 61.4355 100.799 62.0002 100.767C62.5649 100.734 63.5096 99.5413 63.5491 99.3883C63.5886 99.2353 63.4598 98.7751 63.2405 98.4102C63.0212 98.0453 61.5815 97.6254 61.1841 97.8177Z" fill="#84300A"/>
<path d="M62.7169 104.292C35.4823 107.166 28.4389 96.4883 28.3215 90.7901C27.5389 93.9696 28.3215 107.926 29.5734 110.238C33.1729 116.888 44.1692 121.016 64.8299 120.52C85.4907 120.025 94.8819 111.601 95.8211 110.238C96.7602 108.876 98.7558 92.2766 96.8776 87.6932C95.7037 95.869 96.7601 100.7 62.7169 104.292Z" fill="#BB7D45"/>
</g>
<defs>
<filter id="filter0_d_114_3519" x="24.0082" y="58.6375" width="77.647" height="69.9227" filterUnits="userSpaceOnUse" color-interpolation-filters="sRGB">
<feFlood flood-opacity="0" result="BackgroundImageFix"/>
<feColorMatrix in="SourceAlpha" type="matrix" values="0 0 0 0 0 0 0 0 0 0 0 0 0 0 0 0 0 0 127 0" result="hardAlpha"/>
<feOffset dy="4"/>
<feGaussianBlur stdDeviation="2"/>
<feComposite in2="hardAlpha" operator="out"/>
<feColorMatrix type="matrix" values="0 0 0 0 0 0 0 0 0 0 0 0 0 0 0 0 0 0 0.25 0"/>
<feBlend mode="normal" in2="BackgroundImageFix" result="effect1_dropShadow_114_3519"/>
<feBlend mode="normal" in="SourceGraphic" in2="effect1_dropShadow_114_3519" result="shape"/>
</filter>
</defs>
</svg>
