<svg width="467" height="493" viewBox="0 0 467 493" fill="none" xmlns="http://www.w3.org/2000/svg">
<g filter="url(#filter0_d_94_57)">
<path d="M126.145 410.707C143.871 394.559 201.741 397.979 238.119 396.179C281.554 394.029 305.101 390.192 346.189 404.626C387.276 419.06 396.456 367.553 381.469 341.101C366.483 314.649 366.779 204.173 376.046 138.249C372.826 60.576 326.138 82.297 313.703 84.5079C301.267 86.7187 226.028 100.292 212.462 99.1721C198.896 98.0523 156.691 103.201 100.643 88.7193C44.5953 74.2371 41.9469 114.773 50.0868 123.214C58.2268 131.656 79.1506 223.529 78.2052 261.718C77.2598 299.907 75.0628 367.72 72.7397 382.456C70.2871 398.014 103.989 430.892 126.145 410.707Z" fill="#FBDA86"/>
</g>
<g filter="url(#filter1_d_94_57)">
<path d="M138.57 387.444C153.81 373.56 203.569 376.501 234.847 374.953C272.194 373.104 292.439 369.805 327.768 382.216C363.096 394.627 370.988 350.34 358.103 327.596C345.217 304.852 345.471 209.862 353.439 153.18C350.671 86.3945 310.528 105.071 299.836 106.972C289.143 108.873 224.451 120.543 212.787 119.58C201.122 118.617 164.834 123.045 116.643 110.593C68.4514 98.1407 66.1743 132.994 73.1732 140.252C80.1721 147.51 98.1628 226.505 97.3499 259.341C96.5371 292.176 94.648 350.483 92.6506 363.154C90.5418 376.53 119.519 404.8 138.57 387.444Z" fill="#7D472D"/>
</g>
<defs>
<filter id="filter0_d_94_57" x="43.5106" y="80.0598" width="347.874" height="343.334" filterUnits="userSpaceOnUse" color-interpolation-filters="sRGB">
<feFlood flood-opacity="0" result="BackgroundImageFix"/>
<feColorMatrix in="SourceAlpha" type="matrix" values="0 0 0 0 0 0 0 0 0 0 0 0 0 0 0 0 0 0 127 0" result="hardAlpha"/>
<feOffset dy="3.15971"/>
<feGaussianBlur stdDeviation="1.57986"/>
<feComposite in2="hardAlpha" operator="out"/>
<feColorMatrix type="matrix" values="0 0 0 0 0 0 0 0 0 0 0 0 0 0 0 0 0 0 0.25 0"/>
<feBlend mode="normal" in2="BackgroundImageFix" result="effect1_dropShadow_94_57"/>
<feBlend mode="normal" in="SourceGraphic" in2="effect1_dropShadow_94_57" result="shape"/>
</filter>
<filter id="filter1_d_94_57" x="67.0758" y="103.147" width="299.995" height="296.092" filterUnits="userSpaceOnUse" color-interpolation-filters="sRGB">
<feFlood flood-opacity="0" result="BackgroundImageFix"/>
<feColorMatrix in="SourceAlpha" type="matrix" values="0 0 0 0 0 0 0 0 0 0 0 0 0 0 0 0 0 0 127 0" result="hardAlpha"/>
<feOffset dy="3.15971"/>
<feGaussianBlur stdDeviation="1.57986"/>
<feComposite in2="hardAlpha" operator="out"/>
<feColorMatrix type="matrix" values="0 0 0 0 0 0 0 0 0 0 0 0 0 0 0 0 0 0 0.25 0"/>
<feBlend mode="normal" in2="BackgroundImageFix" result="effect1_dropShadow_94_57"/>
<feBlend mode="normal" in="SourceGraphic" in2="effect1_dropShadow_94_57" result="shape"/>
</filter>
</defs>
</svg>
