<svg width="394" height="430" viewBox="0 0 394 430" fill="none" xmlns="http://www.w3.org/2000/svg">
<path d="M223.538 37.1076L247.902 74.563L291.053 62.9657L262.96 97.7117L287.324 135.167L245.597 119.186L217.504 153.932L219.809 109.309L178.082 93.3278L221.233 81.7305L223.538 37.1076Z" fill="#FCE625"/>
<path d="M247.902 74.563L223.538 37.1076L245.597 119.186L287.324 135.167L262.96 97.7117L291.053 62.9657L247.902 74.563Z" fill="#D3C224"/>
<path d="M369.805 89.3886L368.319 107.899L385.464 115.032L367.401 119.339L365.915 137.849L356.237 122.001L338.174 126.308L350.256 112.206L340.577 96.3578L357.723 103.491L369.805 89.3886Z" fill="#FCE625"/>
<path d="M368.319 107.899L369.805 89.3886L356.237 122.001L365.915 137.849L367.401 119.339L385.464 115.032L368.319 107.899Z" fill="#D3C224"/>
<path d="M33.1592 209.136L32.0207 223.322L45.1608 228.789L31.3171 232.09L30.1786 246.276L22.7612 234.13L8.91754 237.431L18.177 226.623L10.7597 214.477L23.8997 219.944L33.1592 209.136Z" fill="#FCE625"/>
<path d="M32.0207 223.322L33.1592 209.136L22.7612 234.13L30.1786 246.276L31.3171 232.09L45.1608 228.789L32.0207 223.322Z" fill="#D3C224"/>
<path d="M146.594 396.635L145.741 407.26L155.582 411.354L145.214 413.827L144.361 424.452L138.806 415.355L128.438 417.827L135.373 409.732L129.817 400.636L139.659 404.73L146.594 396.635Z" fill="#FCE625"/>
<path d="M145.741 407.26L146.594 396.635L138.806 415.355L144.361 424.451L145.214 413.827L155.582 411.354L145.741 407.26Z" fill="#D3C224"/>
<path d="M249.565 347.947L248.665 359.159L259.05 363.479L248.109 366.088L247.209 377.3L241.347 367.701L230.405 370.31L237.723 361.768L231.861 352.168L242.246 356.489L249.565 347.947Z" fill="#FCE625"/>
<path d="M248.665 359.159L249.565 347.947L241.346 367.701L247.209 377.3L248.109 366.088L259.05 363.479L248.665 359.159Z" fill="#D3C224"/>
<path d="M146.134 7.52406L144.995 21.7103L158.135 27.1768L144.292 30.4778L143.153 44.664L135.736 32.5179L121.892 35.8189L131.152 25.0113L123.734 12.8652L136.874 18.3317L146.134 7.52406Z" fill="#FCE625"/>
<path d="M144.995 21.7103L146.134 7.52406L135.736 32.5179L143.153 44.664L144.292 30.4778L158.135 27.1768L144.995 21.7103Z" fill="#D3C224"/>
<path d="M121.134 133.524L119.995 147.71L133.135 153.177L119.292 156.478L118.153 170.664L110.736 158.518L96.8922 161.819L106.152 151.011L98.7343 138.865L111.874 144.332L121.134 133.524Z" fill="#FCE625"/>
<path d="M119.995 147.71L121.134 133.524L110.736 158.518L118.153 170.664L119.292 156.478L133.135 153.177L119.995 147.71Z" fill="#D3C224"/>
</svg>
