<svg width="302" height="307" viewBox="0 0 302 307" fill="none" xmlns="http://www.w3.org/2000/svg">
<path d="M148.337 108.343L144.357 172.987L204.607 196.749L141.897 212.939L137.917 277.583L103.14 222.946L40.4299 239.136L81.6468 189.178L46.8702 134.54L107.12 158.302L148.337 108.343Z" fill="#FCE625"/>
<path d="M144.357 172.987L148.337 108.343L103.14 222.946L137.917 277.583L141.897 212.939L204.607 196.749L144.357 172.987Z" fill="#D3C224"/>
<path d="M75.2822 9.53733L87.3451 26.4918L107.197 20.2585L94.8004 36.9702L106.863 53.9246L87.1387 47.2986L74.7417 64.0103L74.9482 43.2035L55.2235 36.5775L75.0758 30.3442L75.2822 9.53733Z" fill="#FCE625"/>
<path d="M87.3451 26.4918L75.2822 9.53733L87.1387 47.2986L106.863 53.9246L94.8004 36.9702L107.197 20.2585L87.3451 26.4918Z" fill="#D3C224"/>
<path d="M231.022 68.9087L238.286 79.1176L250.24 75.3643L242.775 85.427L250.039 95.6359L238.162 91.6461L230.697 101.709L230.821 89.1803L218.944 85.1905L230.898 81.4372L231.022 68.9087Z" fill="#FCE625"/>
<path d="M238.286 79.1176L231.023 68.9087L238.162 91.6461L250.039 95.6359L242.775 85.427L250.24 75.3643L238.286 79.1176Z" fill="#D3C224"/>
<path d="M266.949 231.581L276.197 244.58L291.418 239.801L281.913 252.613L291.162 265.612L276.039 260.532L266.535 273.344L266.693 257.392L251.57 252.312L266.791 247.533L266.949 231.581Z" fill="#FCE625"/>
<path d="M276.197 244.58L266.949 231.581L276.039 260.532L291.162 265.612L281.913 252.613L291.418 239.801L276.197 244.58Z" fill="#D3C224"/>
</svg>
