<svg id="Calque_1" data-name="Calque 1" xmlns="http://www.w3.org/2000/svg" viewBox="0 0 944 890.09"><defs><style>.cls-1{fill:#fbda86;}.cls-2{fill:#7d472d;}</style></defs><path class="cls-1" d="M95.78,918c27.54-33,113.81-23.18,168.29-25.27C329.12,890.26,818,885.9,878.43,918S956,842.68,935.27,786.58,929.89,304.8,948,167.12C948.21,4.25,877,47.6,858.3,51.66S272.85,78.09,252.65,75.12,169,81,86.21,48.07-3.2,99.94,8.42,118,45.37,329.49,41.49,409.45,22.22,825.62,17.8,856.38C13.13,888.86,61.37,959.29,95.78,918Z" transform="translate(-4 -40.55)"/><path class="cls-2" d="M117.7,866.67c23.67-28.38,97.84-19.92,144.69-21.72,55.93-2.15,541.72-9,593.71,18.63s66.66-64.78,48.87-113-5.38-438.28,10.19-556.66c.18-140-61-102.76-77.12-99.27s-568.86,25.82-586.23,23.26-71.89,5-143.1-23.26-76.87,44.6-66.88,60.13S73.59,336.6,70.26,405.35,54.45,787.22,50.64,813.67C46.62,841.59,88.1,902.15,117.7,866.67Z" transform="translate(-4 -40.55)"/></svg>