<svg width="1920" height="58" viewBox="0 0 1920 58" fill="none" xmlns="http://www.w3.org/2000/svg">
<rect width="1920" height="58" fill="#D77760"/>
<path d="M49 0H58V58H49V0Z" fill="#B73E20"/>
<path d="M233 0H243V58H233V0Z" fill="#B73E20"/>
<path d="M429 0H439V58H429V0Z" fill="#B73E20"/>
<path d="M595 0H605V58H595V0Z" fill="#B73E20"/>
<path d="M767 0H777V58H767V0Z" fill="#B73E20"/>
<path d="M949 0H960V58H949V0Z" fill="#B73E20"/>
<path d="M1145 0H1156V58H1145V0Z" fill="#B73E20"/>
<path d="M1317 0H1328V58H1317V0Z" fill="#B73E20"/>
<path d="M1482 0H1493V58H1482V0Z" fill="#B73E20"/>
<path d="M1677 0H1688V58H1677V0Z" fill="#B73E20"/>
<path d="M1877 0H1888V58H1877V0Z" fill="#B73E20"/>
</svg>
