<svg width="1920" height="33" viewBox="0 0 1920 33" fill="none" xmlns="http://www.w3.org/2000/svg">
<rect width="1920" height="33" fill="#D77760"/>
<path d="M21 0H30V33H21V0Z" fill="#B73E20"/>
<path d="M210 0H220V33H210V0Z" fill="#B73E20"/>
<path d="M411 0H421V33H411V0Z" fill="#B73E20"/>
<path d="M580 0H590V33H580V0Z" fill="#B73E20"/>
<path d="M756 0H766V33H756V0Z" fill="#B73E20"/>
<path d="M943 0H954V33H943V0Z" fill="#B73E20"/>
<path d="M1145 0H1156V33H1145V0Z" fill="#B73E20"/>
<path d="M1320 0H1331V33H1320V0Z" fill="#B73E20"/>
<path d="M1489 0H1500V33H1489V0Z" fill="#B73E20"/>
<path d="M1692 0H1703V33H1692V0Z" fill="#B73E20"/>
<path d="M1894 0H1905V33H1894V0Z" fill="#B73E20"/>
</svg>
