<svg width="1920" height="33" viewBox="0 0 1920 33" fill="none" xmlns="http://www.w3.org/2000/svg">
<rect width="1920" height="33" fill="#D77760"/>
<path d="M181 0H191V33H181V0Z" fill="#B73E20"/>
<path d="M391 0H401V33H391V0Z" fill="#B73E20"/>
<path d="M568 0H578V33H568V0Z" fill="#B73E20"/>
<path d="M748 0H758V33H748V0Z" fill="#B73E20"/>
<path d="M941 0H952V33H941V0Z" fill="#B73E20"/>
<path d="M1152 0H1163V33H1152V0Z" fill="#B73E20"/>
<path d="M1331 0H1342V33H1331V0Z" fill="#B73E20"/>
<path d="M1507 0H1518V33H1507V0Z" fill="#B73E20"/>
<path d="M1718 0H1729V33H1718V0Z" fill="#B73E20"/>
<path d="M1889 0H1900V33H1889V0Z" fill="#B73E20"/>
</svg>
