<svg width="70" height="61" viewBox="0 0 70 61" fill="none" xmlns="http://www.w3.org/2000/svg">
<path d="M6.58237 33.9958C9.33096 34.5102 16.6402 37.2132 19.2214 40.3484C22.3036 44.0919 27.3594 46.8002 28.6672 51.4341C29.975 56.068 35.6105 53.4715 37.2019 50.3754C38.7934 47.2794 55.2602 39.3884 62.3089 35.8431C69.6791 30.401 64.4712 27.6651 63.433 26.6992C62.3949 25.7333 47.3085 19.6329 46.5208 18.3449C45.733 17.0569 38.312 18.0529 36.0196 12.0774C33.7272 6.10182 29.5947 8.55462 29.3089 9.84304C29.023 11.1315 25.5647 14.6694 21.7739 17.1188C17.9832 19.5682 7.40114 26.5731 5.8089 27.343C4.12788 28.1559 3.14664 33.3528 6.58237 33.9958Z" fill="#FBDA86"/>
<path d="M9.9653 32.7265C12.3012 33.1631 19.1076 35.8918 21.301 38.5548C23.9199 41.7345 28.495 44.4067 29.6058 48.343C30.7166 52.2793 35.5066 50.0728 36.8595 47.4424C38.2125 44.8121 51.3177 37.8558 57.3089 34.843C63.5735 30.2188 59.1478 27.8955 58.2656 27.0751C57.3834 26.2547 45.1748 20.9529 44.5055 19.8589C43.8362 18.7648 37.2563 19.9189 35.3089 14.843C33.3615 9.76707 29.849 11.8513 29.6058 12.9459C29.3627 14.0404 26.6957 16.7395 23.4736 18.8209C20.2516 20.9022 10.6622 26.4208 9.3089 27.0751C7.8801 27.7659 7.04541 32.1808 9.9653 32.7265Z" fill="#7D472D"/>
<path d="M24.2815 35.998L24.3261 36.0548L25.9299 38.1012L30.0955 34.8364L34.1052 39.9525L35.5468 30.564L37.9108 36.9698L39.1981 27.7023L41.0176 31.5067L42.6835 21.6213L32.6864 20.8768L35.9458 23.5526L26.6392 22.5881L32.2945 26.4144L22.8336 25.5708L26.8432 30.6868L22.6776 33.9516L24.2815 35.998Z" fill="#FFFDFD"/>
</svg>
