<svg width="1297" height="503" viewBox="0 0 1297 503" fill="none" xmlns="http://www.w3.org/2000/svg">
<path d="M11.3475 133.006C10.8966 225.888 12.7001 337.256 21.2669 428.334C43.3602 427.884 89.8012 429.236 111.895 426.531C114.149 406.241 115.051 376.032 115.051 357.095C101.073 357.546 87.9977 356.644 73.1185 354.84C69.9624 330.944 69.9624 310.203 70.4132 286.306C84.3906 283.601 111.444 285.404 110.542 284.953C114.149 263.762 118.207 247.53 118.658 225.888C99.2698 224.535 83.4889 223.633 69.0606 224.986C65.4535 211.008 63.65 195.678 65.9044 180.799C82.5871 180.348 99.7207 180.348 116.403 181.701C120.01 169.076 115.953 148.786 118.658 133.006C89.8012 134.358 43.8111 133.006 11.3475 133.006ZM364.668 348.979C350.239 348.528 335.811 351.233 326.794 351.684C325.892 280.445 329.95 199.285 331.753 128.948C311.914 127.144 291.174 129.398 273.589 128.948C269.982 224.535 275.844 331.845 276.745 425.178C310.562 426.531 346.182 424.276 363.766 426.982C366.02 402.183 364.668 376.934 364.668 348.979ZM409.411 133.006C408.96 225.888 410.764 337.256 419.33 428.334C441.424 427.884 487.865 429.236 509.958 426.531C512.212 406.241 513.114 376.032 513.114 357.095C499.137 357.546 486.061 356.644 471.182 354.84C468.026 330.944 468.026 310.203 468.477 286.306C482.454 283.601 509.507 285.404 508.605 284.953C512.212 263.762 516.27 247.53 516.721 225.888C497.333 224.535 481.552 223.633 467.124 224.986C463.517 211.008 461.713 195.678 463.968 180.799C480.651 180.348 497.784 180.348 514.467 181.701C518.074 169.076 514.016 148.786 516.721 133.006C487.865 134.358 441.875 133.006 409.411 133.006ZM661.673 423.826C669.338 395.871 670.24 324.631 670.691 302.538C671.142 290.364 667.084 284.502 658.517 284.502C650.401 282.699 637.326 284.052 626.054 284.052C627.406 298.931 630.111 323.729 630.111 341.765L614.781 344.47C603.509 299.382 604.411 223.633 606.215 198.835L620.192 195.227C627.406 212.812 626.955 238.512 627.406 253.391C633.268 258.802 658.066 260.606 670.24 255.646C672.945 209.656 671.142 175.389 665.731 133.456C642.736 129.398 594.492 125.791 570.595 133.006C557.97 204.696 561.577 269.623 565.635 346.724C567.439 379.639 570.595 402.634 575.104 424.276C603.509 424.276 632.366 426.982 661.673 423.826ZM815.569 348.979C801.141 348.528 786.713 351.233 777.695 351.684C776.793 280.445 780.851 199.285 782.655 128.948C762.816 127.144 742.075 129.398 724.491 128.948C720.884 224.535 726.745 331.845 727.647 425.178C761.463 426.531 797.083 424.276 814.667 426.982C816.922 402.183 815.569 376.934 815.569 348.979ZM860.312 133.006C859.861 225.888 861.665 337.256 870.232 428.334C892.325 427.884 938.766 429.236 960.859 426.531C963.114 406.241 964.016 376.032 964.016 357.095C950.038 357.546 936.963 356.644 922.083 354.84C918.927 330.944 918.927 310.203 919.378 286.306C933.355 283.601 960.409 285.404 959.507 284.953C963.114 263.762 967.172 247.53 967.623 225.888C948.235 224.535 932.454 223.633 918.025 224.986C914.418 211.008 912.615 195.678 914.869 180.799C931.552 180.348 948.686 180.348 965.368 181.701C968.975 169.076 964.917 148.786 967.623 133.006C938.766 134.358 892.776 133.006 860.312 133.006ZM1128.36 175.839C1127.9 166.371 1129.71 151.492 1122.95 143.827C1103.11 121.283 1025.1 134.809 1020.14 136.162C1015.18 238.963 1017.44 330.493 1021.95 430.138C1033.22 427.884 1053.06 426.08 1066.58 422.924C1064.78 386.853 1065.23 350.332 1063.88 318.77L1072 316.966C1081.91 341.765 1073.8 396.322 1076.5 426.08C1089.13 425.629 1111.22 424.276 1123.4 424.727C1128.36 388.206 1125.65 345.823 1125.65 307.047C1125.65 295.775 1108.97 293.069 1101.3 286.306C1108.07 280.445 1119.79 282.248 1122.04 270.976C1128.81 236.258 1129.71 209.205 1128.36 175.839ZM1080.56 183.054C1083.27 200.187 1084.62 247.53 1077.86 269.172L1063.88 265.565C1064.33 239.414 1064.33 212.812 1061.62 186.661L1080.56 183.054ZM1278.43 423.826C1286.1 395.871 1287 324.631 1287.45 302.538C1287.9 290.364 1283.84 284.502 1275.28 284.502C1267.16 282.699 1254.09 284.052 1242.81 284.052C1244.17 298.931 1246.87 323.729 1246.87 341.765L1231.54 344.47C1220.27 299.382 1221.17 223.633 1222.97 198.835L1236.95 195.227C1244.17 212.812 1243.72 238.512 1244.17 253.391C1250.03 258.802 1274.83 260.606 1287 255.646C1289.71 209.656 1287.9 175.389 1282.49 133.456C1259.5 129.398 1211.25 125.791 1187.35 133.006C1174.73 204.696 1178.34 269.623 1182.39 346.724C1184.2 379.639 1187.35 402.634 1191.86 424.276C1220.27 424.276 1249.13 426.982 1278.43 423.826Z" fill="#3678C2"/>
<path d="M165.317 364.76C163.514 372.425 162.161 408.946 169.375 424.276C186.509 424.727 211.307 423.826 219.423 423.375C222.579 404.438 218.071 384.599 218.972 366.112C202.741 361.153 183.803 363.858 165.317 364.76Z" fill="#F98B14"/>
<path d="M11.3475 133.006V132.006H10.3523L10.3475 133.001L11.3475 133.006ZM21.2669 428.334L20.2713 428.428L20.3583 429.353L21.2873 429.334L21.2669 428.334ZM111.895 426.531L112.016 427.523L112.801 427.427L112.888 426.641L111.895 426.531ZM115.051 357.095H116.051V356.062L115.019 356.095L115.051 357.095ZM73.1185 354.84L72.1272 354.971L72.2287 355.74L72.9982 355.833L73.1185 354.84ZM70.4132 286.306L70.2232 285.324L69.4287 285.478L69.4134 286.287L70.4132 286.306ZM110.542 284.953L109.556 284.786L109.432 285.516L110.095 285.848L110.542 284.953ZM118.658 225.888L119.658 225.908L119.677 224.956L118.727 224.89L118.658 225.888ZM69.0606 224.986L68.0923 225.236L68.3053 226.061L69.1539 225.981L69.0606 224.986ZM65.9044 180.799L65.8774 179.8L65.041 179.822L64.9157 180.649L65.9044 180.799ZM116.403 181.701L116.323 182.698L117.14 182.764L117.365 181.976L116.403 181.701ZM118.658 133.006L119.643 133.174L119.854 131.948L118.611 132.007L118.658 133.006ZM10.3475 133.001C9.89655 225.891 11.6998 337.299 20.2713 428.428L22.2625 428.241C13.7004 337.212 11.8966 225.884 12.3475 133.01L10.3475 133.001ZM21.2873 429.334C32.3254 429.109 49.4202 429.335 66.584 429.278C83.7086 429.222 100.901 428.884 112.016 427.523L111.773 425.538C100.795 426.883 83.7201 427.222 66.5774 427.278C49.4741 427.334 32.3018 427.109 21.2465 427.335L21.2873 429.334ZM112.888 426.641C115.149 406.298 116.051 376.047 116.051 357.095H114.051C114.051 376.017 113.149 406.184 110.901 426.42L112.888 426.641ZM115.019 356.095C101.108 356.544 88.0864 355.647 73.2389 353.848L72.9982 355.833C87.9091 357.64 101.039 358.547 115.083 358.094L115.019 356.095ZM74.1099 354.709C70.9641 330.891 70.9624 310.212 71.4131 286.325L69.4134 286.287C68.9624 310.193 68.9607 330.996 72.1272 354.971L74.1099 354.709ZM70.6033 287.288C77.4824 285.956 87.6476 285.728 96.0506 285.784C100.239 285.812 103.964 285.911 106.594 285.974C107.904 286.006 108.954 286.029 109.649 286.03C109.988 286.03 110.276 286.026 110.474 286.01C110.526 286.006 110.726 285.993 110.912 285.92C110.965 285.899 111.098 285.843 111.23 285.723C111.377 285.591 111.601 285.299 111.559 284.873C111.522 284.505 111.304 284.289 111.223 284.217C111.126 284.13 111.034 284.081 110.989 284.059L110.095 285.848C110.064 285.833 109.982 285.79 109.893 285.71C109.819 285.645 109.605 285.435 109.569 285.072C109.527 284.653 109.749 284.366 109.889 284.24C110.016 284.125 110.139 284.075 110.18 284.059C110.315 284.006 110.412 284.008 110.313 284.016C110.207 284.025 109.993 284.03 109.651 284.03C108.984 284.029 107.959 284.007 106.642 283.975C104.016 283.911 100.273 283.813 96.064 283.784C87.6715 283.728 77.3215 283.95 70.2232 285.324L70.6033 287.288ZM111.528 285.121C115.122 264.006 119.205 247.649 119.658 225.908L117.658 225.867C117.209 247.411 113.176 263.518 109.556 284.786L111.528 285.121ZM118.727 224.89C99.3505 223.538 83.4896 222.629 68.9673 223.99L69.1539 225.981C83.4882 224.638 99.1891 225.532 118.588 226.885L118.727 224.89ZM70.0289 224.736C66.4437 210.843 64.6649 195.655 66.8931 180.949L64.9157 180.649C62.6351 195.702 64.4633 211.173 68.0923 225.236L70.0289 224.736ZM65.9314 181.799C82.5986 181.348 99.6916 181.349 116.323 182.698L116.484 180.704C99.7498 179.347 82.5756 179.348 65.8774 179.8L65.9314 181.799ZM117.365 181.976C119.219 175.487 119.093 167.093 118.868 158.511C118.642 149.851 118.311 140.946 119.643 133.174L117.672 132.837C116.299 140.846 116.645 149.977 116.869 158.563C117.096 167.227 117.195 175.29 115.442 181.426L117.365 181.976ZM118.611 132.007C89.7834 133.358 43.8681 132.006 11.3475 132.006V134.006C43.7541 134.006 89.8191 135.358 118.705 134.004L118.611 132.007ZM165.317 364.76L165.269 363.761L164.516 363.798L164.344 364.531L165.317 364.76ZM169.375 424.276L168.47 424.702L168.733 425.26L169.349 425.276L169.375 424.276ZM219.423 423.375L219.479 424.373L220.278 424.329L220.41 423.539L219.423 423.375ZM218.972 366.112L219.971 366.161L220.009 365.384L219.265 365.156L218.972 366.112ZM164.344 364.531C163.411 368.496 162.626 379.652 162.965 391.672C163.303 403.676 164.766 416.83 168.47 424.702L170.28 423.851C166.771 416.393 165.302 403.621 164.964 391.616C164.626 379.626 165.42 368.688 166.291 364.989L164.344 364.531ZM169.349 425.276C186.521 425.728 211.35 424.825 219.479 424.373L219.368 422.376C211.265 422.826 186.497 423.727 169.401 423.277L169.349 425.276ZM220.41 423.539C222.008 413.949 221.662 404.156 221.041 394.51C220.418 384.829 219.524 375.331 219.971 366.161L217.974 366.064C217.519 375.38 218.428 385.045 219.045 394.639C219.665 404.269 219.995 413.864 218.437 423.21L220.41 423.539ZM219.265 365.156C211.003 362.632 202.089 362.068 192.972 362.238C183.89 362.407 174.435 363.314 165.269 363.761L165.366 365.759C174.686 365.304 183.943 364.407 193.009 364.238C202.039 364.07 210.71 364.634 218.68 367.069L219.265 365.156ZM364.668 348.979H365.668V348.01L364.699 347.979L364.668 348.979ZM326.794 351.684L325.794 351.697L325.807 352.735L326.843 352.683L326.794 351.684ZM331.753 128.948L332.753 128.973L332.777 128.037L331.844 127.952L331.753 128.948ZM273.589 128.948L273.615 127.948L272.627 127.923L272.59 128.91L273.589 128.948ZM276.745 425.178L275.745 425.188L275.755 426.139L276.705 426.177L276.745 425.178ZM363.766 426.982L363.614 427.97L364.666 428.132L364.762 427.072L363.766 426.982ZM364.699 347.979C357.417 347.752 350.151 348.321 343.599 348.999C337.011 349.68 331.218 350.462 326.744 350.685L326.843 352.683C331.387 352.456 337.317 351.659 343.805 350.988C350.328 350.313 357.49 349.755 364.637 349.978L364.699 347.979ZM327.793 351.672C326.892 280.457 330.948 199.348 332.753 128.973L330.754 128.922C328.951 199.223 324.892 280.432 325.794 351.697L327.793 351.672ZM331.844 127.952C321.862 127.044 311.667 127.159 301.797 127.441C291.906 127.723 282.371 128.172 273.615 127.948L273.564 129.947C282.392 130.174 292.019 129.721 301.854 129.44C311.711 129.158 321.806 129.047 331.663 129.943L331.844 127.952ZM272.59 128.91C268.982 224.524 274.844 331.925 275.745 425.188L277.745 425.169C276.843 331.766 270.982 224.546 274.589 128.985L272.59 128.91ZM276.705 426.177C293.641 426.855 311.03 426.629 326.346 426.573C341.701 426.516 354.915 426.632 363.614 427.97L363.918 425.993C355.032 424.626 341.645 424.516 326.339 424.573C310.995 424.629 293.666 424.854 276.785 424.179L276.705 426.177ZM364.762 427.072C367.022 402.214 365.668 376.861 365.668 348.979H363.668C363.668 377.006 365.019 402.153 362.77 426.891L364.762 427.072ZM409.411 133.006V132.006H408.416L408.411 133.001L409.411 133.006ZM419.33 428.334L418.335 428.428L418.422 429.353L419.351 429.334L419.33 428.334ZM509.958 426.531L510.08 427.523L510.865 427.427L510.952 426.641L509.958 426.531ZM513.114 357.095H514.114V356.062L513.082 356.095L513.114 357.095ZM471.182 354.84L470.191 354.971L470.292 355.74L471.062 355.833L471.182 354.84ZM468.477 286.306L468.287 285.324L467.492 285.478L467.477 286.287L468.477 286.306ZM508.605 284.953L507.62 284.786L507.495 285.516L508.158 285.848L508.605 284.953ZM516.721 225.888L517.721 225.908L517.741 224.956L516.791 224.89L516.721 225.888ZM467.124 224.986L466.156 225.236L466.369 226.061L467.217 225.981L467.124 224.986ZM463.968 180.799L463.941 179.8L463.105 179.822L462.979 180.649L463.968 180.799ZM514.467 181.701L514.386 182.698L515.203 182.764L515.428 181.976L514.467 181.701ZM516.721 133.006L517.707 133.174L517.917 131.948L516.674 132.007L516.721 133.006ZM408.411 133.001C407.96 225.891 409.763 337.299 418.335 428.428L420.326 428.241C411.764 337.212 409.96 225.884 410.411 133.01L408.411 133.001ZM419.351 429.334C430.389 429.109 447.484 429.335 464.647 429.278C481.772 429.222 498.965 428.884 510.08 427.523L509.836 425.538C498.858 426.883 481.784 427.222 464.641 427.278C447.538 427.334 430.365 427.109 419.31 427.335L419.351 429.334ZM510.952 426.641C513.212 406.298 514.114 376.047 514.114 357.095H512.114C512.114 376.017 511.213 406.184 508.964 426.42L510.952 426.641ZM513.082 356.095C499.172 356.544 486.15 355.647 471.302 353.848L471.062 355.833C485.973 357.64 499.102 358.547 513.146 358.094L513.082 356.095ZM472.173 354.709C469.028 330.891 469.026 310.212 469.477 286.325L467.477 286.287C467.026 310.193 467.024 330.996 470.191 354.971L472.173 354.709ZM468.667 287.288C475.546 285.956 485.711 285.728 494.114 285.784C498.302 285.812 502.027 285.911 504.657 285.974C505.967 286.006 507.017 286.029 507.712 286.03C508.051 286.03 508.34 286.026 508.537 286.01C508.59 286.006 508.79 285.993 508.975 285.92C509.028 285.899 509.161 285.843 509.294 285.723C509.44 285.591 509.665 285.299 509.622 284.873C509.586 284.505 509.367 284.289 509.286 284.217C509.19 284.13 509.097 284.081 509.053 284.059L508.158 285.848C508.128 285.833 508.046 285.79 507.957 285.71C507.883 285.645 507.669 285.435 507.632 285.072C507.59 284.653 507.813 284.366 507.953 284.24C508.079 284.125 508.203 284.075 508.243 284.059C508.378 284.006 508.476 284.008 508.377 284.016C508.27 284.025 508.056 284.03 507.715 284.03C507.048 284.029 506.023 284.007 504.705 283.975C502.08 283.911 498.337 283.813 494.127 283.784C485.735 283.728 475.385 283.95 468.287 285.324L468.667 287.288ZM509.591 285.121C513.185 264.006 517.268 247.649 517.721 225.908L515.722 225.867C515.273 247.411 511.24 263.518 507.62 284.786L509.591 285.121ZM516.791 224.89C497.414 223.538 481.553 222.629 467.031 223.99L467.217 225.981C481.552 224.638 497.253 225.532 516.652 226.885L516.791 224.89ZM468.092 224.736C464.507 210.843 462.728 195.655 464.957 180.949L462.979 180.649C460.699 195.702 462.527 211.173 466.156 225.236L468.092 224.736ZM463.995 181.799C480.662 181.348 497.755 181.349 514.386 182.698L514.548 180.704C497.813 179.347 480.639 179.348 463.941 179.8L463.995 181.799ZM515.428 181.976C517.282 175.487 517.156 167.093 516.932 158.511C516.705 149.851 516.375 140.946 517.707 133.174L515.736 132.837C514.363 140.846 514.708 149.977 514.933 158.563C515.159 167.227 515.259 175.29 513.505 181.426L515.428 181.976ZM516.674 132.007C487.847 133.358 441.932 132.006 409.411 132.006V134.006C441.818 134.006 487.883 135.358 516.768 134.004L516.674 132.007ZM661.673 423.826L661.78 424.82L662.458 424.747L662.638 424.09L661.673 423.826ZM670.691 302.538L669.692 302.501L669.691 302.509L669.691 302.517L670.691 302.538ZM658.517 284.502L658.3 285.479L658.407 285.502H658.517V284.502ZM626.054 284.052V283.052H624.958L625.058 284.142L626.054 284.052ZM630.111 341.765L630.285 342.75L631.111 342.604V341.765H630.111ZM614.781 344.47L613.811 344.713L614.037 345.617L614.955 345.455L614.781 344.47ZM606.215 198.835L605.965 197.866L605.269 198.046L605.217 198.762L606.215 198.835ZM620.192 195.227L621.117 194.848L620.786 194.041L619.942 194.259L620.192 195.227ZM627.406 253.391L626.407 253.422L626.419 253.841L626.728 254.126L627.406 253.391ZM670.24 255.646L670.617 256.572L671.201 256.334L671.238 255.705L670.24 255.646ZM665.731 133.456L666.723 133.328L666.629 132.599L665.905 132.472L665.731 133.456ZM570.595 133.006L570.306 132.048L569.717 132.226L569.61 132.832L570.595 133.006ZM565.635 346.724L564.636 346.777L564.637 346.779L565.635 346.724ZM575.104 424.276L574.125 424.48L574.291 425.276H575.104V424.276ZM662.638 424.09C666.504 409.991 668.647 385.084 669.886 361.035C671.127 336.95 671.466 313.598 671.691 302.558L669.691 302.517C669.466 313.571 669.128 336.886 667.889 360.932C666.648 385.015 664.508 409.705 660.709 423.561L662.638 424.09ZM671.69 302.575C671.919 296.406 671.019 291.64 668.813 288.393C666.558 285.074 663.055 283.502 658.517 283.502V285.502C662.546 285.502 665.355 286.862 667.158 289.517C669.011 292.244 669.914 296.496 669.692 302.501L671.69 302.575ZM658.734 283.526C654.547 282.596 649.141 282.488 643.449 282.601C637.694 282.715 631.689 283.052 626.054 283.052V285.052C631.69 285.052 637.859 284.712 643.489 284.601C649.182 284.488 654.372 284.606 658.3 285.479L658.734 283.526ZM625.058 284.142C626.414 299.059 629.111 323.789 629.111 341.765H631.111C631.111 323.67 628.399 298.802 627.049 283.961L625.058 284.142ZM629.938 340.78L614.608 343.485L614.955 345.455L630.285 342.75L629.938 340.78ZM615.752 344.227C610.142 321.788 607.552 291.664 606.594 264.009C605.637 236.365 606.313 211.265 607.212 198.907L605.217 198.762C604.312 211.203 603.636 236.376 604.595 264.078C605.554 291.769 608.149 322.063 613.811 344.713L615.752 344.227ZM606.465 199.803L620.442 196.196L619.942 194.259L605.965 197.866L606.465 199.803ZM619.267 195.607C622.815 204.255 624.496 214.954 625.339 225.404C626.181 235.854 626.18 245.943 626.407 253.422L628.406 253.361C628.181 245.961 628.18 235.76 627.332 225.244C626.484 214.728 624.783 203.784 621.117 194.848L619.267 195.607ZM626.728 254.126C628.385 255.656 631.239 256.832 634.613 257.693C638.027 258.564 642.122 259.149 646.396 259.406C654.913 259.917 664.329 259.134 670.617 256.572L669.863 254.72C663.977 257.118 654.907 257.913 646.516 257.409C642.336 257.159 638.371 256.588 635.107 255.755C631.802 254.911 629.358 253.833 628.084 252.657L626.728 254.126ZM671.238 255.705C673.948 209.645 672.141 175.315 666.723 133.328L664.74 133.584C670.143 175.462 671.943 209.667 669.242 255.587L671.238 255.705ZM665.905 132.472C654.355 130.433 636.496 128.513 618.53 128.004C600.592 127.497 582.419 128.391 570.306 132.048L570.884 133.963C582.668 130.405 600.565 129.497 618.473 130.004C636.352 130.51 654.113 132.422 665.558 134.441L665.905 132.472ZM569.61 132.832C556.962 204.653 560.579 269.694 564.636 346.777L566.634 346.672C562.575 269.553 558.978 204.739 571.58 133.179L569.61 132.832ZM564.637 346.779C566.442 379.737 569.604 402.782 574.125 424.48L576.083 424.073C571.585 402.486 568.435 379.541 566.634 346.67L564.637 346.779ZM575.104 425.276C603.381 425.276 632.407 427.983 661.78 424.82L661.566 422.831C632.325 425.98 603.638 423.276 575.104 423.276V425.276ZM815.569 348.979H816.569V348.01L815.6 347.979L815.569 348.979ZM777.695 351.684L776.695 351.697L776.708 352.735L777.745 352.683L777.695 351.684ZM782.655 128.948L783.654 128.973L783.678 128.037L782.745 127.952L782.655 128.948ZM724.491 128.948L724.516 127.948L723.529 127.923L723.491 128.91L724.491 128.948ZM727.647 425.178L726.647 425.188L726.656 426.139L727.607 426.177L727.647 425.178ZM814.667 426.982L814.515 427.97L815.567 428.132L815.663 427.072L814.667 426.982ZM815.6 347.979C808.319 347.752 801.052 348.321 794.5 348.999C787.912 349.68 782.119 350.462 777.645 350.685L777.745 352.683C782.288 352.456 788.218 351.659 794.706 350.988C801.23 350.313 808.391 349.755 815.538 349.978L815.6 347.979ZM778.695 351.672C777.793 280.457 781.85 199.348 783.654 128.973L781.655 128.922C779.852 199.223 775.793 280.432 776.695 351.697L778.695 351.672ZM782.745 127.952C772.763 127.044 762.568 127.159 752.699 127.441C742.808 127.723 733.273 128.172 724.516 127.948L724.465 129.947C733.293 130.174 742.92 129.721 752.756 129.44C762.612 129.158 772.707 129.047 782.564 129.943L782.745 127.952ZM723.491 128.91C719.883 224.524 725.746 331.925 726.647 425.188L728.647 425.169C727.744 331.766 721.884 224.546 725.49 128.985L723.491 128.91ZM727.607 426.177C744.543 426.855 761.931 426.629 777.248 426.573C792.602 426.516 805.817 426.632 814.515 427.97L814.819 425.993C805.934 424.626 792.546 424.516 777.24 424.573C761.897 424.629 744.567 424.854 727.687 424.179L727.607 426.177ZM815.663 427.072C817.923 402.214 816.569 376.861 816.569 348.979H814.569C814.569 377.006 815.92 402.153 813.671 426.891L815.663 427.072ZM860.312 133.006V132.006H859.317L859.312 133.001L860.312 133.006ZM870.232 428.334L869.236 428.428L869.323 429.353L870.252 429.334L870.232 428.334ZM960.859 426.531L960.981 427.523L961.766 427.427L961.853 426.641L960.859 426.531ZM964.016 357.095H965.016V356.062L963.983 356.095L964.016 357.095ZM922.083 354.84L921.092 354.971L921.194 355.74L921.963 355.833L922.083 354.84ZM919.378 286.306L919.188 285.324L918.394 285.478L918.378 286.287L919.378 286.306ZM959.507 284.953L958.521 284.786L958.397 285.516L959.06 285.848L959.507 284.953ZM967.623 225.888L968.622 225.908L968.642 224.956L967.692 224.89L967.623 225.888ZM918.025 224.986L917.057 225.236L917.27 226.061L918.119 225.981L918.025 224.986ZM914.869 180.799L914.842 179.8L914.006 179.822L913.881 180.649L914.869 180.799ZM965.368 181.701L965.287 182.698L966.105 182.764L966.33 181.976L965.368 181.701ZM967.623 133.006L968.608 133.174L968.818 131.948L967.576 132.007L967.623 133.006ZM859.312 133.001C858.861 225.891 860.665 337.299 869.236 428.428L871.227 428.241C862.665 337.212 860.861 225.884 861.312 133.01L859.312 133.001ZM870.252 429.334C881.29 429.109 898.385 429.335 915.549 429.278C932.673 429.222 949.866 428.884 960.981 427.523L960.738 425.538C949.76 426.883 932.685 427.222 915.542 427.278C898.439 427.334 881.267 427.109 870.211 427.335L870.252 429.334ZM961.853 426.641C964.114 406.298 965.016 376.047 965.016 357.095H963.016C963.016 376.017 962.114 406.184 959.866 426.42L961.853 426.641ZM963.983 356.095C950.073 356.544 937.051 355.647 922.204 353.848L921.963 355.833C936.874 357.64 950.003 358.547 964.048 358.094L963.983 356.095ZM923.075 354.709C919.929 330.891 919.927 310.212 920.378 286.325L918.378 286.287C917.927 310.193 917.926 330.996 921.092 354.971L923.075 354.709ZM919.568 287.288C926.447 285.956 936.612 285.728 945.015 285.784C949.204 285.812 952.928 285.911 955.559 285.974C956.869 286.006 957.919 286.029 958.613 286.03C958.953 286.03 959.241 286.026 959.438 286.01C959.491 286.006 959.691 285.993 959.877 285.92C959.93 285.899 960.062 285.843 960.195 285.723C960.341 285.591 960.566 285.299 960.524 284.873C960.487 284.505 960.269 284.289 960.188 284.217C960.091 284.13 959.999 284.081 959.954 284.059L959.06 285.848C959.029 285.833 958.947 285.79 958.858 285.71C958.784 285.645 958.57 285.435 958.534 285.072C958.492 284.653 958.714 284.366 958.854 284.24C958.981 284.125 959.104 284.075 959.145 284.059C959.28 284.006 959.377 284.008 959.278 284.016C959.171 284.025 958.957 284.03 958.616 284.03C957.949 284.029 956.924 284.007 955.607 283.975C952.981 283.911 949.238 283.813 945.029 283.784C936.636 283.728 926.286 283.95 919.188 285.324L919.568 287.288ZM960.493 285.121C964.087 264.006 968.17 247.649 968.622 225.908L966.623 225.867C966.174 247.411 962.141 263.518 958.521 284.786L960.493 285.121ZM967.692 224.89C948.315 223.538 932.454 222.629 917.932 223.99L918.119 225.981C932.453 224.638 948.154 225.532 967.553 226.885L967.692 224.89ZM918.994 224.736C915.409 210.843 913.63 195.655 915.858 180.949L913.881 180.649C911.6 195.702 913.428 211.173 917.057 225.236L918.994 224.736ZM914.896 181.799C931.563 181.348 948.656 181.349 965.287 182.698L965.449 180.704C948.715 179.347 931.54 179.348 914.842 179.8L914.896 181.799ZM966.33 181.976C968.184 175.487 968.058 167.093 967.833 158.511C967.607 149.851 967.276 140.946 968.608 133.174L966.637 132.837C965.264 140.846 965.609 149.977 965.834 158.563C966.06 167.227 966.16 175.29 964.407 181.426L966.33 181.976ZM967.576 132.007C938.748 133.358 892.833 132.006 860.312 132.006V134.006C892.719 134.006 938.784 135.358 967.669 134.004L967.576 132.007ZM1128.36 175.839L1129.35 175.799L1129.35 175.792L1128.36 175.839ZM1122.95 143.827L1122.19 144.487L1122.2 144.488L1122.95 143.827ZM1020.14 136.162L1019.88 135.197L1019.18 135.388L1019.14 136.114L1020.14 136.162ZM1021.95 430.138L1020.95 430.183L1021 431.347L1022.14 431.119L1021.95 430.138ZM1066.58 422.924L1066.81 423.898L1067.63 423.708L1067.58 422.874L1066.58 422.924ZM1063.88 318.77L1063.66 317.793L1062.84 317.975L1062.88 318.812L1063.88 318.77ZM1072 316.966L1072.92 316.595L1072.61 315.806L1071.78 315.99L1072 316.966ZM1076.5 426.08L1075.51 426.171L1075.59 427.113L1076.54 427.079L1076.5 426.08ZM1123.4 424.727L1123.36 425.727L1124.26 425.76L1124.39 424.862L1123.4 424.727ZM1101.3 286.306L1100.65 285.55L1099.78 286.299L1100.64 287.056L1101.3 286.306ZM1122.04 270.976L1123.02 271.172L1123.02 271.167L1122.04 270.976ZM1080.56 183.054L1081.55 182.898L1081.39 181.878L1080.37 182.071L1080.56 183.054ZM1077.86 269.172L1077.61 270.141L1078.53 270.378L1078.81 269.471L1077.86 269.172ZM1063.88 265.565L1062.88 265.548L1062.87 266.337L1063.63 266.534L1063.88 265.565ZM1061.62 186.661L1061.44 185.678L1060.54 185.85L1060.63 186.764L1061.62 186.661ZM1129.35 175.792C1129.24 173.456 1129.27 170.785 1129.27 167.921C1129.27 165.072 1129.24 162.052 1129.01 159.08C1128.56 153.176 1127.3 147.255 1123.69 143.165L1122.2 144.488C1125.35 148.063 1126.57 153.414 1127.02 159.233C1127.24 162.123 1127.27 165.077 1127.27 167.921C1127.27 170.749 1127.24 173.489 1127.36 175.887L1129.35 175.792ZM1123.7 143.166C1118.51 137.271 1109.63 133.837 1099.39 131.945C1089.11 130.045 1077.27 129.666 1065.93 130.033C1043.28 130.768 1022.46 134.494 1019.88 135.197L1020.41 137.126C1022.79 136.476 1043.45 132.763 1066 132.032C1077.26 131.667 1088.95 132.049 1099.03 133.911C1109.15 135.781 1117.46 139.11 1122.19 144.487L1123.7 143.166ZM1019.14 136.114C1014.18 238.96 1016.44 330.525 1020.95 430.183L1022.95 430.093C1018.44 330.46 1016.18 238.966 1021.14 136.21L1019.14 136.114ZM1022.14 431.119C1027.74 429.999 1035.48 428.99 1043.56 427.859C1051.61 426.733 1060 425.487 1066.81 423.898L1066.36 421.95C1059.64 423.516 1051.35 424.751 1043.28 425.879C1035.24 427.003 1027.42 428.023 1021.75 429.157L1022.14 431.119ZM1067.58 422.874C1066.68 404.857 1066.34 386.725 1066.06 369.14C1065.78 351.561 1065.56 334.524 1064.88 318.727L1062.88 318.812C1063.56 334.577 1063.78 351.581 1064.06 369.172C1064.34 386.756 1064.68 404.92 1065.59 422.974L1067.58 422.874ZM1064.1 319.746L1072.21 317.942L1071.78 315.99L1063.66 317.793L1064.1 319.746ZM1071.07 317.337C1073.49 323.396 1074.83 331.336 1075.51 340.367C1076.18 349.385 1076.18 359.421 1075.96 369.641C1075.51 390.021 1074.15 411.216 1075.51 426.171L1077.5 425.989C1076.15 411.185 1077.5 390.223 1077.95 369.685C1078.18 359.446 1078.18 349.334 1077.5 340.218C1076.82 331.115 1075.46 322.935 1072.92 316.595L1071.07 317.337ZM1076.54 427.079C1089.22 426.626 1111.23 425.278 1123.36 425.727L1123.43 423.728C1111.21 423.275 1089.04 424.632 1076.47 425.081L1076.54 427.079ZM1124.39 424.862C1129.36 388.251 1126.65 345.725 1126.65 307.047H1124.65C1124.65 345.92 1127.35 388.16 1122.41 424.593L1124.39 424.862ZM1126.65 307.047C1126.65 300.811 1122 297.06 1116.85 294.117C1114.26 292.642 1111.39 291.282 1108.8 289.929C1106.17 288.553 1103.78 287.162 1101.96 285.556L1100.64 287.056C1102.65 288.832 1105.23 290.315 1107.88 291.701C1110.57 293.11 1113.31 294.398 1115.85 295.854C1120.96 298.772 1124.65 302.011 1124.65 307.047H1126.65ZM1101.96 287.062C1103.52 285.704 1105.4 284.767 1107.45 283.952C1108.47 283.544 1109.52 283.174 1110.58 282.793C1111.64 282.415 1112.71 282.027 1113.75 281.593C1115.83 280.727 1117.85 279.652 1119.51 278.013C1121.18 276.357 1122.42 274.174 1123.02 271.172L1121.06 270.78C1120.54 273.414 1119.47 275.232 1118.1 276.592C1116.71 277.968 1114.96 278.922 1112.98 279.747C1111.99 280.159 1110.96 280.531 1109.91 280.91C1108.86 281.287 1107.77 281.67 1106.71 282.094C1104.58 282.941 1102.46 283.977 1100.65 285.55L1101.96 287.062ZM1123.02 271.167C1129.81 236.352 1130.71 209.218 1129.35 175.799L1127.36 175.88C1128.71 209.192 1127.81 236.164 1121.06 270.785L1123.02 271.167ZM1079.57 183.21C1080.91 191.701 1081.93 207.759 1081.76 224.412C1081.59 241.087 1080.24 258.205 1076.9 268.874L1078.81 269.471C1082.24 258.498 1083.59 241.123 1083.76 224.432C1083.93 207.72 1082.91 191.54 1081.55 182.898L1079.57 183.21ZM1078.11 268.204L1064.13 264.597L1063.63 266.534L1077.61 270.141L1078.11 268.204ZM1064.88 265.583C1065.33 239.425 1065.33 212.772 1062.62 186.558L1060.63 186.764C1063.33 212.851 1063.33 239.403 1062.88 265.548L1064.88 265.583ZM1061.81 187.643L1080.75 184.036L1080.37 182.071L1061.44 185.678L1061.81 187.643ZM1278.43 423.826L1278.54 424.82L1279.22 424.747L1279.4 424.09L1278.43 423.826ZM1287.45 302.538L1286.45 302.501L1286.45 302.509L1286.45 302.517L1287.45 302.538ZM1275.28 284.502L1275.06 285.479L1275.17 285.502H1275.28V284.502ZM1242.81 284.052V283.052H1241.72L1241.82 284.142L1242.81 284.052ZM1246.87 341.765L1247.05 342.75L1247.87 342.604V341.765H1246.87ZM1231.54 344.47L1230.57 344.713L1230.8 345.617L1231.71 345.455L1231.54 344.47ZM1222.97 198.835L1222.72 197.866L1222.03 198.046L1221.98 198.762L1222.97 198.835ZM1236.95 195.227L1237.88 194.848L1237.55 194.041L1236.7 194.259L1236.95 195.227ZM1244.17 253.391L1243.17 253.422L1243.18 253.841L1243.49 254.126L1244.17 253.391ZM1287 255.646L1287.38 256.572L1287.96 256.334L1288 255.705L1287 255.646ZM1282.49 133.456L1283.48 133.328L1283.39 132.599L1282.66 132.472L1282.49 133.456ZM1187.35 133.006L1187.07 132.048L1186.48 132.226L1186.37 132.832L1187.35 133.006ZM1182.39 346.724L1181.4 346.777L1181.4 346.779L1182.39 346.724ZM1191.86 424.276L1190.88 424.48L1191.05 425.276H1191.86V424.276ZM1279.4 424.09C1283.26 409.991 1285.41 385.084 1286.65 361.035C1287.89 336.95 1288.23 313.598 1288.45 302.558L1286.45 302.517C1286.23 313.571 1285.89 336.886 1284.65 360.932C1283.41 385.015 1281.27 409.705 1277.47 423.561L1279.4 424.09ZM1288.45 302.575C1288.68 296.406 1287.78 291.64 1285.57 288.393C1283.32 285.074 1279.81 283.502 1275.28 283.502V285.502C1279.31 285.502 1282.11 286.862 1283.92 289.517C1285.77 292.244 1286.67 296.496 1286.45 302.501L1288.45 302.575ZM1275.49 283.526C1271.31 282.596 1265.9 282.488 1260.21 282.601C1254.45 282.715 1248.45 283.052 1242.81 283.052V285.052C1248.45 285.052 1254.62 284.712 1260.25 284.601C1265.94 284.488 1271.13 284.606 1275.06 285.479L1275.49 283.526ZM1241.82 284.142C1243.17 299.059 1245.87 323.789 1245.87 341.765H1247.87C1247.87 323.67 1245.16 298.802 1243.81 283.961L1241.82 284.142ZM1246.7 340.78L1231.37 343.485L1231.71 345.455L1247.05 342.75L1246.7 340.78ZM1232.51 344.227C1226.9 321.788 1224.31 291.664 1223.35 264.009C1222.4 236.365 1223.07 211.265 1223.97 198.907L1221.98 198.762C1221.07 211.203 1220.4 236.376 1221.36 264.078C1222.31 291.769 1224.91 322.063 1230.57 344.713L1232.51 344.227ZM1223.22 199.803L1237.2 196.196L1236.7 194.259L1222.72 197.866L1223.22 199.803ZM1236.03 195.607C1239.57 204.255 1241.26 214.954 1242.1 225.404C1242.94 235.854 1242.94 245.943 1243.17 253.422L1245.17 253.361C1244.94 245.961 1244.94 235.76 1244.09 225.244C1243.24 214.728 1241.54 203.784 1237.88 194.848L1236.03 195.607ZM1243.49 254.126C1245.14 255.656 1248 256.832 1251.37 257.693C1254.79 258.564 1258.88 259.149 1263.16 259.406C1271.67 259.917 1281.09 259.134 1287.38 256.572L1286.62 254.72C1280.74 257.118 1271.67 257.913 1263.28 257.409C1259.1 257.159 1255.13 256.588 1251.87 255.755C1248.56 254.911 1246.12 253.833 1244.84 252.657L1243.49 254.126ZM1288 255.705C1290.71 209.645 1288.9 175.315 1283.48 133.328L1281.5 133.584C1286.9 175.462 1288.7 209.667 1286 255.587L1288 255.705ZM1282.66 132.472C1271.11 130.433 1253.26 128.513 1235.29 128.004C1217.35 127.497 1199.18 128.391 1187.07 132.048L1187.64 133.963C1199.43 130.405 1217.32 129.497 1235.23 130.004C1253.11 130.51 1270.87 132.422 1282.32 134.441L1282.66 132.472ZM1186.37 132.832C1173.72 204.653 1177.34 269.694 1181.4 346.777L1183.39 346.672C1179.33 269.553 1175.74 204.739 1188.34 133.179L1186.37 132.832ZM1181.4 346.779C1183.2 379.737 1186.36 402.782 1190.88 424.48L1192.84 424.073C1188.35 402.486 1185.19 379.541 1183.39 346.67L1181.4 346.779ZM1191.86 425.276C1220.14 425.276 1249.17 427.983 1278.54 424.82L1278.33 422.831C1249.09 425.98 1220.4 423.276 1191.86 423.276V425.276Z" fill="black"/>
<path d="M124.393 113.061C124.377 113.126 124.312 113.251 124.096 113.421C123.883 113.588 123.566 113.766 123.131 113.948C122.263 114.312 121.011 114.66 119.409 114.985C116.213 115.636 111.716 116.181 106.335 116.618C95.5785 117.491 81.3491 117.928 67.0564 117.928C52.7639 117.928 38.4212 117.491 27.4382 116.618C21.9446 116.181 17.305 115.635 13.9366 114.984C12.2504 114.658 10.9009 114.309 9.92801 113.941C9.44139 113.757 9.06418 113.574 8.79092 113.395C8.51174 113.213 8.37913 113.061 8.32611 112.955C7.94171 112.186 7.67481 110.659 7.59626 108.425C7.51865 106.218 7.62609 103.395 7.93782 100.095C8.56116 93.4962 9.99821 85.019 12.3813 75.7901C17.1501 57.3221 25.6904 35.9088 39.0196 20.5165C51.3379 6.29146 64.3879 0.734672 76.9746 0.50731C89.5824 0.279567 101.798 5.39803 112.424 12.6642C123.048 19.9284 132.044 29.314 138.199 37.5525C141.277 41.6718 143.636 45.4934 145.132 48.6084C145.88 50.1666 146.407 51.5365 146.702 52.6709C147.001 53.8203 147.045 54.6672 146.896 55.2132C146.57 56.4109 145.915 57.0418 145.018 57.3189C144.075 57.6103 142.804 57.5291 141.249 57.122C138.147 56.3094 134.206 54.2811 130.178 52.0514C129.208 51.5141 128.232 50.9652 127.265 50.4207C124.246 48.7219 121.301 47.0647 118.803 45.9281C117.155 45.1785 115.657 44.6334 114.431 44.4612C113.218 44.2909 112.099 44.4675 111.466 45.3965C111.16 45.845 111.002 46.4836 110.928 47.2155C110.852 47.9613 110.859 48.8686 110.931 49.9053C111.075 51.9797 111.486 54.6301 112.075 57.6566C113.253 63.7123 115.158 71.3354 117.123 78.9901C117.506 80.4818 117.891 81.9746 118.273 83.4575C119.856 89.5917 121.395 95.556 122.547 100.564C123.262 103.673 123.826 106.403 124.158 108.57C124.324 109.653 124.431 110.587 124.471 111.353C124.512 112.128 124.481 112.695 124.393 113.061Z" fill="url(#paint0_linear_187_3718)" stroke="black"/>
<path d="M35.1826 128.176C23.83 130.29 17.9069 128.176 11.8067 132.824C8.47744 135.361 0.277008 123.52 17.2361 121.409C29.2108 119.918 46.5352 126.062 35.1826 128.176Z" fill="#F1F1F1"/>
<path d="M157.34 53.1626C161.886 56.0872 163.208 62.126 160.298 66.6494C157.388 71.1729 151.345 72.4738 146.799 69.5493C142.252 66.6247 140.931 60.5859 143.841 56.0624C146.75 51.539 152.794 50.238 157.34 53.1626Z" fill="white" stroke="black"/>
<ellipse cx="154.969" cy="61.5405" rx="4.5" ry="7" fill="#F1F1F1"/>
<path d="M4.23819 113.526C4.31309 113.448 4.48787 113.334 4.82127 113.205C5.14352 113.08 5.57016 112.959 6.10246 112.843C7.1663 112.611 8.60459 112.411 10.3736 112.24C13.9087 111.9 18.7129 111.686 24.373 111.569C35.6903 111.335 50.3902 111.491 65.1177 111.803C84.9651 112.224 104.882 112.93 116.591 113.345C122.243 113.546 125.983 113.678 126.879 113.678C127.384 113.678 127.867 113.92 128.33 114.441C128.799 114.969 129.219 115.756 129.571 116.758C130.274 118.76 130.66 121.498 130.691 124.371C130.722 127.241 130.397 130.208 129.702 132.659C128.999 135.14 127.951 136.974 126.627 137.746C126.497 137.822 126.258 137.916 125.882 138.018C125.515 138.118 125.048 138.218 124.482 138.318C123.352 138.517 121.858 138.708 120.046 138.891C116.425 139.256 111.566 139.581 105.878 139.858C94.5037 140.413 79.8391 140.772 65.1878 140.866C50.5361 140.959 35.9048 140.788 24.5963 140.28C18.9407 140.027 14.125 139.689 10.5564 139.261C8.77092 139.047 7.30895 138.811 6.21463 138.554C5.66726 138.426 5.22177 138.294 4.87834 138.162C4.52609 138.026 4.31872 137.903 4.21501 137.808C2.93217 136.642 1.97939 134.862 1.35902 132.726C0.740162 130.596 0.462926 128.147 0.503962 125.687C0.544988 123.227 0.90388 120.773 1.54543 118.635C2.18906 116.489 3.10614 114.697 4.23819 113.526Z" fill="white" stroke="black"/>
<path d="M265 132C262.136 125 269.5 118 273.5 118C323 111 332.823 116.424 336.5 118C340 119.5 343.5 134.5 336.5 144.5C329.5 154.5 324 141 320.5 137C317 133 311 155.5 308 141C305 126.5 290.5 131 286.5 135.5C282.5 140 282 162 276.5 155.5C271 149 269.5 143 265 132Z" fill="white" stroke="white"/>
<path d="M714.635 134.416C711.816 127.446 719.065 120.477 723.003 120.477C771.732 113.507 781.402 118.908 785.022 120.477C788.467 121.97 791.913 136.905 785.022 146.861C778.131 156.818 772.716 143.377 769.271 139.394C765.825 135.411 759.919 157.813 756.966 143.377C754.012 128.94 739.738 133.42 735.8 137.9C731.863 142.381 731.371 164.285 725.956 157.813C720.542 151.342 719.065 145.368 714.635 134.416Z" fill="white" stroke="white"/>
<path d="M401.5 134.999C401.5 126.658 405.331 119 411.789 119C491.705 112.057 507.564 117.437 513.5 119C519.15 120.487 524.688 137.152 517 143.9C505.699 153.818 479.123 142.388 473.473 138.421C467.822 134.453 458.617 158.281 453.773 143.9C448.93 129.518 438.61 133.957 432.152 138.421C425.695 142.884 415.88 164.946 407 158.499C398.121 152.052 401.5 143.9 401.5 134.999Z" fill="white" stroke="white"/>
<path d="M852.631 137.462C852.632 129.121 856.463 121.463 862.92 121.463C942.836 114.52 958.696 119.901 964.631 121.463C970.282 122.951 975.819 139.616 968.131 146.363C956.83 156.281 930.255 144.851 924.604 140.884C918.953 136.917 909.748 160.745 904.905 146.363C900.061 131.981 889.742 136.421 883.284 140.884C876.826 145.347 867.011 167.409 858.131 160.962C849.252 154.515 852.631 146.363 852.631 137.462Z" fill="white" stroke="white"/>
<path d="M675.421 134.403C675.421 126.087 671.906 118.453 665.982 118.453C592.668 111.531 578.119 116.895 572.674 118.453C567.49 119.936 556.674 166.277 572.674 143.277C581.717 130.277 604.724 133.264 609.394 137.815C615 143.277 623.023 157.615 627.466 143.277C631.909 128.939 641.377 133.365 647.301 137.815C653.225 142.264 662.229 164.26 670.375 157.832C678.521 151.405 675.421 143.277 675.421 134.403Z" fill="white" stroke="white"/>
<path d="M1292.16 137.403C1292.16 129.087 1288.64 121.453 1282.72 121.453C1209.4 114.531 1194.85 119.895 1189.41 121.453C1184.22 122.936 1173.41 169.277 1189.41 146.277C1198.45 133.277 1221.46 136.264 1226.13 140.815C1231.73 146.277 1239.76 160.615 1244.2 146.277C1248.64 131.939 1258.11 136.365 1264.04 140.815C1269.96 145.264 1278.96 167.26 1287.11 160.832C1295.26 154.405 1292.16 146.277 1292.16 137.403Z" fill="white" stroke="white"/>
<path d="M1012.62 138.403C1012.62 130.087 1016.4 122.453 1022.76 122.453C1101.5 115.531 1117.12 120.895 1122.97 122.453C1128.54 123.936 1140.15 170.277 1122.97 147.277C1113.26 134.277 1088.55 137.264 1083.53 141.815C1077.51 147.277 1068.9 161.615 1064.12 147.277C1059.35 132.939 1049.18 137.365 1042.82 141.815C1036.46 146.264 1026.79 168.26 1018.04 161.832C1009.29 155.405 1012.62 147.277 1012.62 138.403Z" fill="white" stroke="white"/>
<defs>
<linearGradient id="paint0_linear_187_3718" x1="12.8789" y1="66.1782" x2="194.879" y2="68.1782" gradientUnits="userSpaceOnUse">
<stop stop-color="#E14141"/>
<stop offset="0.911782" stop-color="#CB2525"/>
</linearGradient>
</defs>
</svg>
