<svg width="1297" height="503" viewBox="0 0 1297 503" fill="none" xmlns="http://www.w3.org/2000/svg">
<path d="M11.3475 133.006C10.8966 225.888 12.7001 337.256 21.2669 428.334C43.3602 427.884 89.8012 429.236 111.895 426.531C114.149 406.241 115.051 376.032 115.051 357.095C101.073 357.546 87.9977 356.644 73.1185 354.84C69.9624 330.944 69.9624 310.203 70.4132 286.306C84.3906 283.601 111.444 285.404 110.542 284.953C114.149 263.762 118.207 247.53 118.658 225.888C99.2698 224.535 83.4889 223.633 69.0606 224.986C65.4535 211.008 63.65 195.678 65.9044 180.799C82.5871 180.348 99.7207 180.348 116.403 181.701C120.01 169.076 115.953 148.786 118.658 133.006C89.8012 134.358 43.8111 133.006 11.3475 133.006ZM364.668 348.979C350.239 348.528 335.811 351.233 326.794 351.684C325.892 280.445 329.95 199.285 331.753 128.948C311.914 127.144 291.174 129.398 273.589 128.948C269.982 224.535 275.844 331.845 276.745 425.178C310.562 426.531 346.182 424.276 363.766 426.982C366.02 402.183 364.668 376.934 364.668 348.979ZM409.411 133.006C408.96 225.888 410.764 337.256 419.33 428.334C441.424 427.884 487.865 429.236 509.958 426.531C512.212 406.241 513.114 376.032 513.114 357.095C499.137 357.546 486.061 356.644 471.182 354.84C468.026 330.944 468.026 310.203 468.477 286.306C482.454 283.601 509.507 285.404 508.605 284.953C512.212 263.762 516.27 247.53 516.721 225.888C497.333 224.535 481.552 223.633 467.124 224.986C463.517 211.008 461.713 195.678 463.968 180.799C480.651 180.348 497.784 180.348 514.467 181.701C518.074 169.076 514.016 148.786 516.721 133.006C487.865 134.358 441.875 133.006 409.411 133.006ZM661.673 423.826C669.338 395.871 670.24 324.631 670.691 302.538C671.142 290.364 667.084 284.502 658.517 284.502C650.401 282.699 637.326 284.052 626.054 284.052C627.406 298.931 630.111 323.729 630.111 341.765L614.781 344.47C603.509 299.382 604.411 223.633 606.215 198.835L620.192 195.227C627.406 212.812 626.955 238.512 627.406 253.391C633.268 258.802 658.066 260.606 670.24 255.646C672.945 209.656 671.142 175.389 665.731 133.456C642.736 129.398 594.492 125.791 570.595 133.006C557.97 204.696 561.577 269.623 565.635 346.724C567.439 379.639 570.595 402.634 575.104 424.276C603.509 424.276 632.366 426.982 661.673 423.826ZM815.569 348.979C801.141 348.528 786.713 351.233 777.695 351.684C776.793 280.445 780.851 199.285 782.655 128.948C762.816 127.144 742.075 129.398 724.491 128.948C720.884 224.535 726.745 331.845 727.647 425.178C761.463 426.531 797.083 424.276 814.667 426.982C816.922 402.183 815.569 376.934 815.569 348.979ZM860.312 133.006C859.861 225.888 861.665 337.256 870.232 428.334C892.325 427.884 938.766 429.236 960.859 426.531C963.114 406.241 964.016 376.032 964.016 357.095C950.038 357.546 936.963 356.644 922.083 354.84C918.927 330.944 918.927 310.203 919.378 286.306C933.355 283.601 960.409 285.404 959.507 284.953C963.114 263.762 967.172 247.53 967.623 225.888C948.235 224.535 932.454 223.633 918.025 224.986C914.418 211.008 912.615 195.678 914.869 180.799C931.552 180.348 948.686 180.348 965.368 181.701C968.975 169.076 964.917 148.786 967.623 133.006C938.766 134.358 892.776 133.006 860.312 133.006ZM1128.36 175.839C1127.9 166.371 1129.71 151.492 1122.95 143.827C1103.11 121.283 1025.1 134.809 1020.14 136.162C1015.18 238.963 1017.44 330.493 1021.95 430.138C1033.22 427.884 1053.06 426.08 1066.58 422.924C1064.78 386.853 1065.23 350.332 1063.88 318.77L1072 316.966C1081.91 341.765 1073.8 396.322 1076.5 426.08C1089.13 425.629 1111.22 424.276 1123.4 424.727C1128.36 388.206 1125.65 345.823 1125.65 307.047C1125.65 295.775 1108.97 293.069 1101.3 286.306C1108.07 280.445 1119.79 282.248 1122.04 270.976C1128.81 236.258 1129.71 209.205 1128.36 175.839ZM1080.56 183.054C1083.27 200.187 1084.62 247.53 1077.86 269.172L1063.88 265.565C1064.33 239.414 1064.33 212.812 1061.62 186.661L1080.56 183.054ZM1278.43 423.826C1286.1 395.871 1287 324.631 1287.45 302.538C1287.9 290.364 1283.84 284.502 1275.28 284.502C1267.16 282.699 1254.09 284.052 1242.81 284.052C1244.17 298.931 1246.87 323.729 1246.87 341.765L1231.54 344.47C1220.27 299.382 1221.17 223.633 1222.97 198.835L1236.95 195.227C1244.17 212.812 1243.72 238.512 1244.17 253.391C1250.03 258.802 1274.83 260.606 1287 255.646C1289.71 209.656 1287.9 175.389 1282.49 133.456C1259.5 129.398 1211.25 125.791 1187.35 133.006C1174.73 204.696 1178.34 269.623 1182.39 346.724C1184.2 379.639 1187.35 402.634 1191.86 424.276C1220.27 424.276 1249.13 426.982 1278.43 423.826Z" fill="#3678C2"/>
<path d="M165.317 364.76C163.514 372.425 162.161 408.946 169.375 424.276C186.509 424.727 211.307 423.826 219.423 423.375C222.579 404.438 218.071 384.599 218.972 366.112C202.741 361.153 183.803 363.858 165.317 364.76Z" fill="#F98B14"/>
<path d="M11.3475 133.006V129.006H7.36684L7.34751 132.986L11.3475 133.006ZM21.2669 428.334L17.2845 428.709L17.6325 432.409L21.3485 432.334L21.2669 428.334ZM111.895 426.531L112.381 430.501L115.521 430.117L115.87 426.973L111.895 426.531ZM115.051 357.095H119.051V352.964L114.922 353.097L115.051 357.095ZM73.1185 354.84L69.153 355.364L69.559 358.438L72.6372 358.811L73.1185 354.84ZM70.4132 286.306L69.6532 282.379L66.475 282.994L66.414 286.231L70.4132 286.306ZM110.542 284.953L106.599 284.282L106.101 287.205L108.753 288.531L110.542 284.953ZM118.658 225.888L122.657 225.971L122.736 222.162L118.936 221.897L118.658 225.888ZM69.0606 224.986L65.1875 225.985L66.0394 229.287L69.434 228.968L69.0606 224.986ZM65.9044 180.799L65.7963 176.801L62.4509 176.891L61.9495 180.2L65.9044 180.799ZM116.403 181.701L116.08 185.688L119.349 185.953L120.249 182.8L116.403 181.701ZM118.658 133.006L122.6 133.681L123.441 128.777L118.471 129.01L118.658 133.006ZM7.34751 132.986C6.89646 225.903 8.69879 337.43 17.2845 428.709L25.2493 427.96C16.7014 337.082 14.8967 225.872 15.3474 133.025L7.34751 132.986ZM21.3485 432.334C32.3608 432.109 49.3395 432.335 66.5939 432.278C83.6914 432.222 101.06 431.887 112.381 430.501L111.408 422.561C100.635 423.88 83.7373 424.222 66.5676 424.278C49.5548 424.334 32.2664 424.109 21.1853 424.335L21.3485 432.334ZM115.87 426.973C118.148 406.469 119.051 376.091 119.051 357.095H111.051C111.051 375.973 110.15 406.013 107.919 426.089L115.87 426.973ZM114.922 353.097C101.212 353.539 88.3523 352.658 73.5999 350.869L72.6372 358.811C87.6432 360.63 100.934 361.552 115.18 361.093L114.922 353.097ZM77.0841 354.317C73.9692 330.732 73.9624 310.241 74.4125 286.381L66.414 286.231C65.9624 310.165 65.9555 331.155 69.153 355.364L77.0841 354.317ZM71.1733 290.233C77.7238 288.965 87.6118 288.728 96.0304 288.784C100.188 288.812 103.884 288.91 106.521 288.973C107.821 289.005 108.909 289.029 109.645 289.03C109.981 289.03 110.381 289.027 110.714 289C110.807 288.993 110.946 288.98 111.106 288.955C111.205 288.939 111.576 288.882 112.009 288.712C112.203 288.636 112.72 288.421 113.242 287.949C113.818 287.428 114.713 286.267 114.544 284.575C114.398 283.111 113.531 282.254 113.217 281.976C112.842 281.641 112.488 281.454 112.331 281.376L108.753 288.531C108.61 288.46 108.267 288.279 107.899 287.951C107.593 287.679 106.729 286.828 106.584 285.371C106.415 283.684 107.308 282.529 107.878 282.014C108.393 281.548 108.901 281.338 109.082 281.267C109.49 281.106 109.823 281.058 109.871 281.051C109.98 281.034 110.056 281.027 110.073 281.026C110.102 281.024 110 281.03 109.655 281.03C109.03 281.029 108.043 281.008 106.714 280.976C104.096 280.912 100.325 280.813 96.0841 280.784C87.7073 280.728 77.0801 280.941 69.6532 282.379L71.1733 290.233ZM114.485 285.625C118.04 264.737 122.198 248.005 122.657 225.971L114.659 225.804C114.216 247.055 110.257 262.786 106.599 284.282L114.485 285.625ZM118.936 221.897C99.5928 220.548 83.4917 219.615 68.6872 221.003L69.434 228.968C83.486 227.651 98.9469 228.522 118.379 229.878L118.936 221.897ZM72.9337 223.986C69.4143 210.349 67.7097 195.586 69.8593 181.398L61.9495 180.2C59.5903 195.771 61.4927 211.668 65.1875 225.985L72.9337 223.986ZM66.0125 184.798C82.6331 184.349 99.6042 184.352 116.08 185.688L116.727 177.714C99.8372 176.345 82.5411 176.348 65.7963 176.801L66.0125 184.798ZM120.249 182.8C122.254 175.783 122.089 166.894 121.867 158.432C121.638 149.662 121.329 141.097 122.6 133.681L114.715 132.33C113.281 140.695 113.649 150.166 113.87 158.641C114.1 167.426 114.159 174.995 112.557 180.602L120.249 182.8ZM118.471 129.01C89.7299 130.357 44.039 129.006 11.3475 129.006V137.006C43.5832 137.006 89.8726 138.359 118.845 137.001L118.471 129.01ZM165.317 364.76L165.122 360.765L162.114 360.911L161.424 363.844L165.317 364.76ZM169.375 424.276L165.756 425.98L166.806 428.21L169.27 428.275L169.375 424.276ZM219.423 423.375L219.645 427.369L222.842 427.191L223.369 424.032L219.423 423.375ZM218.972 366.112L222.968 366.307L223.119 363.197L220.141 362.287L218.972 366.112ZM161.424 363.844C160.397 368.208 159.626 379.69 159.966 391.756C160.304 403.76 161.758 417.485 165.756 425.98L172.994 422.573C169.778 415.738 168.301 403.537 167.963 391.531C167.627 379.588 168.434 368.976 169.211 365.676L161.424 363.844ZM169.27 428.275C186.557 428.73 211.477 427.822 219.645 427.369L219.201 419.381C211.138 419.829 186.46 420.725 169.48 420.278L169.27 428.275ZM223.369 424.032C225.028 414.076 224.657 403.987 224.035 394.318C223.404 384.504 222.531 375.257 222.968 366.307L214.977 365.918C214.512 375.455 215.443 385.37 216.052 394.831C216.669 404.438 216.975 413.736 215.478 422.717L223.369 424.032ZM220.141 362.287C211.441 359.628 202.165 359.066 192.916 359.239C183.81 359.408 174.059 360.329 165.122 360.765L165.512 368.755C175.061 368.289 184.022 367.406 193.065 367.237C201.964 367.072 210.272 367.637 217.804 369.938L220.141 362.287ZM364.668 348.979H368.668V345.102L364.793 344.981L364.668 348.979ZM326.794 351.684L322.794 351.735L322.846 355.887L326.993 355.679L326.794 351.684ZM331.753 128.948L335.752 129.05L335.848 125.303L332.115 124.964L331.753 128.948ZM273.589 128.948L273.692 124.949L269.741 124.848L269.592 128.797L273.589 128.948ZM276.745 425.178L272.746 425.217L272.782 429.023L276.586 429.175L276.745 425.178ZM363.766 426.982L363.158 430.935L367.364 431.582L367.75 427.344L363.766 426.982ZM364.793 344.981C357.308 344.747 349.884 345.332 343.29 346.015C336.551 346.712 330.964 347.471 326.594 347.689L326.993 355.679C331.641 355.447 337.777 354.628 344.113 353.972C350.595 353.302 357.599 352.76 364.543 352.977L364.793 344.981ZM330.793 351.634C329.893 280.494 333.945 199.535 335.752 129.05L327.755 128.845C325.955 199.036 321.891 280.395 322.794 351.735L330.793 351.634ZM332.115 124.964C321.945 124.039 311.6 124.159 301.712 124.442C291.737 124.727 282.341 125.171 273.692 124.949L273.487 132.946C282.422 133.175 292.188 132.717 301.94 132.439C311.778 132.158 321.723 132.052 331.391 132.931L332.115 124.964ZM269.592 128.797C265.981 224.492 271.847 332.164 272.746 425.217L280.745 425.14C279.841 331.527 273.983 224.578 277.586 129.098L269.592 128.797ZM276.586 429.175C293.605 429.856 311.082 429.629 326.357 429.573C341.784 429.516 354.74 429.64 363.158 430.935L364.374 423.028C355.207 421.618 341.561 421.517 326.328 421.573C310.943 421.629 293.702 421.853 276.905 421.181L276.586 429.175ZM367.75 427.344C370.026 402.305 368.668 376.644 368.668 348.979H360.668C360.668 377.223 362.015 402.061 359.782 426.62L367.75 427.344ZM409.411 133.006V129.006H405.43L405.411 132.986L409.411 133.006ZM419.33 428.334L415.348 428.709L415.696 432.409L419.412 432.334L419.33 428.334ZM509.958 426.531L510.444 430.501L513.584 430.117L513.934 426.973L509.958 426.531ZM513.114 357.095H517.114V352.964L512.985 353.097L513.114 357.095ZM471.182 354.84L467.216 355.364L467.622 358.438L470.701 358.811L471.182 354.84ZM468.477 286.306L467.717 282.379L464.539 282.994L464.477 286.231L468.477 286.306ZM508.605 284.953L504.662 284.282L504.165 287.205L506.816 288.531L508.605 284.953ZM516.721 225.888L520.72 225.971L520.8 222.162L517 221.897L516.721 225.888ZM467.124 224.986L463.251 225.985L464.103 229.287L467.497 228.968L467.124 224.986ZM463.968 180.799L463.86 176.801L460.514 176.891L460.013 180.2L463.968 180.799ZM514.467 181.701L514.144 185.688L517.412 185.953L518.313 182.8L514.467 181.701ZM516.721 133.006L520.664 133.681L521.505 128.777L516.534 129.01L516.721 133.006ZM405.411 132.986C404.96 225.903 406.762 337.43 415.348 428.709L423.313 427.96C414.765 337.082 412.96 225.872 413.411 133.025L405.411 132.986ZM419.412 432.334C430.424 432.109 447.403 432.335 464.657 432.278C481.755 432.222 499.124 431.887 510.444 430.501L509.472 422.561C498.699 423.88 481.801 424.222 464.631 424.278C447.618 424.334 430.33 424.109 419.249 424.335L419.412 432.334ZM513.934 426.973C516.212 406.469 517.114 376.091 517.114 357.095H509.114C509.114 375.973 508.213 406.013 505.983 426.089L513.934 426.973ZM512.985 353.097C499.276 353.539 486.416 352.658 471.663 350.869L470.701 358.811C485.707 360.63 498.998 361.552 513.243 361.093L512.985 353.097ZM475.148 354.317C472.033 330.732 472.026 310.241 472.476 286.381L464.477 286.231C464.026 310.165 464.019 331.155 467.216 355.364L475.148 354.317ZM469.237 290.233C475.787 288.965 485.675 288.728 494.094 288.784C498.251 288.812 501.948 288.91 504.585 288.973C505.884 289.005 506.972 289.029 507.708 289.03C508.044 289.03 508.444 289.027 508.777 289C508.87 288.993 509.01 288.98 509.169 288.955C509.269 288.939 509.64 288.882 510.073 288.712C510.267 288.636 510.784 288.421 511.305 287.949C511.881 287.428 512.777 286.267 512.607 284.575C512.461 283.111 511.594 282.254 511.281 281.976C510.905 281.641 510.551 281.454 510.394 281.376L506.816 288.531C506.674 288.46 506.33 288.279 505.962 287.951C505.656 287.679 504.793 286.828 504.647 285.371C504.479 283.684 505.371 282.529 505.941 282.014C506.457 281.548 506.964 281.338 507.146 281.267C507.553 281.106 507.887 281.058 507.935 281.051C508.044 281.034 508.119 281.027 508.136 281.026C508.166 281.024 508.063 281.03 507.718 281.03C507.093 281.029 506.106 281.008 504.778 280.976C502.159 280.912 498.388 280.813 494.148 280.784C485.771 280.728 475.144 280.941 467.717 282.379L469.237 290.233ZM512.549 285.625C516.104 264.737 520.261 248.005 520.72 225.971L512.722 225.804C512.279 247.055 508.321 262.786 504.662 284.282L512.549 285.625ZM517 221.897C497.656 220.548 481.555 219.615 466.751 221.003L467.497 228.968C481.549 227.651 497.01 228.522 516.443 229.878L517 221.897ZM470.997 223.986C467.478 210.349 465.773 195.586 467.923 181.398L460.013 180.2C457.654 195.771 459.556 211.668 463.251 225.985L470.997 223.986ZM464.076 184.798C480.697 184.349 497.668 184.352 514.144 185.688L514.79 177.714C497.901 176.345 480.605 176.348 463.86 176.801L464.076 184.798ZM518.313 182.8C520.318 175.783 520.152 166.894 519.931 158.432C519.702 149.662 519.393 141.097 520.664 133.681L512.779 132.33C511.345 140.695 511.712 150.166 511.934 158.641C512.163 167.426 512.223 174.995 510.621 180.602L518.313 182.8ZM516.534 129.01C487.793 130.357 442.102 129.006 409.411 129.006V137.006C441.647 137.006 487.936 138.359 516.909 137.001L516.534 129.01ZM661.673 423.826L662.102 427.803L664.81 427.511L665.531 424.883L661.673 423.826ZM670.691 302.538L666.694 302.39L666.693 302.423L666.692 302.456L670.691 302.538ZM658.517 284.502L657.649 288.407L658.078 288.502H658.517V284.502ZM626.054 284.052V280.052H621.673L622.07 284.414L626.054 284.052ZM630.111 341.765L630.807 345.704L634.111 345.121V341.765H630.111ZM614.781 344.47L610.901 345.44L611.805 349.057L615.477 348.409L614.781 344.47ZM606.215 198.835L605.215 194.961L602.434 195.679L602.225 198.544L606.215 198.835ZM620.192 195.227L623.893 193.709L622.569 190.483L619.193 191.354L620.192 195.227ZM627.406 253.391L623.408 253.513L623.459 255.191L624.693 256.331L627.406 253.391ZM670.24 255.646L671.749 259.35L674.085 258.399L674.233 255.881L670.24 255.646ZM665.731 133.456L669.698 132.945L669.322 130.028L666.426 129.517L665.731 133.456ZM570.595 133.006L569.439 129.176L567.082 129.888L566.655 132.312L570.595 133.006ZM565.635 346.724L561.641 346.935L561.641 346.943L565.635 346.724ZM575.104 424.276L571.188 425.092L571.851 428.276H575.104V424.276ZM665.531 424.883C669.497 410.42 671.646 385.189 672.882 361.189C674.126 337.047 674.465 313.639 674.69 302.619L666.692 302.456C666.466 313.53 666.129 336.789 664.893 360.778C663.649 384.91 661.515 409.276 657.816 422.768L665.531 424.883ZM674.688 302.686C674.926 296.272 674.031 290.736 671.295 286.707C668.363 282.392 663.818 280.502 658.517 280.502V288.502C661.783 288.502 663.55 289.544 664.677 291.202C665.999 293.148 666.907 296.63 666.694 302.39L674.688 302.686ZM659.385 280.598C654.81 279.581 649.079 279.489 643.39 279.601C637.447 279.719 631.688 280.052 626.054 280.052V288.052C631.691 288.052 638.106 287.708 643.548 287.6C649.244 287.487 654.108 287.62 657.649 288.407L659.385 280.598ZM622.07 284.414C623.436 299.444 626.111 323.967 626.111 341.765H634.111C634.111 323.492 631.376 298.417 630.037 283.689L622.07 284.414ZM629.416 337.826L614.086 340.531L615.477 348.409L630.807 345.704L629.416 337.826ZM618.662 343.5C613.131 321.375 610.548 291.507 609.592 263.905C608.638 236.349 609.314 211.358 610.204 199.125L602.225 198.544C601.311 211.11 600.635 236.392 601.597 264.182C602.558 291.926 605.16 322.476 610.901 345.44L618.662 343.5ZM607.214 202.708L621.192 199.101L619.193 191.354L605.215 194.961L607.214 202.708ZM616.491 196.746C619.862 204.961 621.513 215.292 622.348 225.646C623.183 235.996 623.178 245.914 623.408 253.513L631.404 253.27C631.184 245.989 631.178 235.618 630.322 225.002C629.467 214.39 627.736 203.078 623.893 193.709L616.491 196.746ZM624.693 256.331C626.924 258.39 630.395 259.712 633.87 260.6C637.51 261.529 641.8 262.135 646.216 262.4C654.922 262.923 664.858 262.158 671.749 259.35L668.731 251.942C663.448 254.094 654.898 254.907 646.696 254.415C642.658 254.173 638.888 253.624 635.849 252.848C632.646 252.03 630.819 251.099 630.119 250.452L624.693 256.331ZM674.233 255.881C676.955 209.613 675.137 175.094 669.698 132.945L661.764 133.968C667.147 175.683 668.936 209.699 666.247 255.411L674.233 255.881ZM666.426 129.517C654.717 127.451 636.711 125.518 618.614 125.006C600.633 124.497 582.045 125.37 569.439 129.176L571.751 136.835C583.041 133.426 600.524 132.497 618.388 133.002C636.137 133.505 653.751 135.404 665.036 137.396L666.426 129.517ZM566.655 132.312C553.939 204.524 557.586 269.905 561.641 346.935L569.63 346.514C565.568 269.342 562.001 204.868 574.534 133.699L566.655 132.312ZM561.641 346.943C563.454 380.03 566.632 403.227 571.188 425.092L579.02 423.461C574.557 402.041 571.423 379.248 569.629 346.506L561.641 346.943ZM575.104 428.276C602.996 428.276 632.528 430.987 662.102 427.803L661.245 419.849C632.203 422.976 604.023 420.276 575.104 420.276V428.276ZM815.569 348.979H819.569V345.102L815.694 344.981L815.569 348.979ZM777.695 351.684L773.695 351.735L773.748 355.887L777.895 355.679L777.695 351.684ZM782.655 128.948L786.653 129.05L786.749 125.303L783.017 124.964L782.655 128.948ZM724.491 128.948L724.593 124.949L720.643 124.848L720.493 128.797L724.491 128.948ZM727.647 425.178L723.647 425.217L723.684 429.023L727.487 429.175L727.647 425.178ZM814.667 426.982L814.059 430.935L818.266 431.582L818.651 427.344L814.667 426.982ZM815.694 344.981C808.21 344.747 800.785 345.332 794.191 346.015C787.452 346.712 781.865 347.471 777.495 347.689L777.895 355.679C782.542 355.447 788.678 354.628 795.015 353.972C801.497 353.302 808.5 352.76 815.444 352.977L815.694 344.981ZM781.695 351.634C780.794 280.494 784.846 199.535 786.653 129.05L778.656 128.845C776.856 199.036 772.792 280.395 773.695 351.735L781.695 351.634ZM783.017 124.964C772.846 124.039 762.502 124.159 752.613 124.442C742.639 124.727 733.242 125.171 724.593 124.949L724.388 132.946C733.324 133.175 743.089 132.717 752.841 132.439C762.679 132.158 772.624 132.052 782.292 132.931L783.017 124.964ZM720.493 128.797C716.882 224.492 722.748 332.164 723.647 425.217L731.647 425.14C730.742 331.527 724.885 224.578 728.488 129.098L720.493 128.797ZM727.487 429.175C744.507 429.856 761.984 429.629 777.259 429.573C792.686 429.516 805.641 429.64 814.059 430.935L815.276 423.028C806.109 421.618 792.462 421.517 777.229 421.573C761.844 421.629 744.603 421.853 727.807 421.181L727.487 429.175ZM818.651 427.344C820.927 402.305 819.569 376.644 819.569 348.979H811.569C811.569 377.223 812.916 402.061 810.684 426.62L818.651 427.344ZM860.312 133.006V129.006H856.332L856.312 132.986L860.312 133.006ZM870.232 428.334L866.249 428.709L866.597 432.409L870.313 432.334L870.232 428.334ZM960.859 426.531L961.346 430.501L964.486 430.117L964.835 426.973L960.859 426.531ZM964.016 357.095H968.016V352.964L963.887 353.097L964.016 357.095ZM922.083 354.84L918.118 355.364L918.524 358.438L921.602 358.811L922.083 354.84ZM919.378 286.306L918.618 282.379L915.44 282.994L915.379 286.231L919.378 286.306ZM959.507 284.953L955.563 284.282L955.066 287.205L957.718 288.531L959.507 284.953ZM967.623 225.888L971.622 225.971L971.701 222.162L967.901 221.897L967.623 225.888ZM918.025 224.986L914.152 225.985L915.004 229.287L918.399 228.968L918.025 224.986ZM914.869 180.799L914.761 176.801L911.416 176.891L910.914 180.2L914.869 180.799ZM965.368 181.701L965.045 185.688L968.313 185.953L969.214 182.8L965.368 181.701ZM967.623 133.006L971.565 133.681L972.406 128.777L967.435 129.01L967.623 133.006ZM856.312 132.986C855.861 225.903 857.664 337.43 866.249 428.709L874.214 427.96C865.666 337.082 863.862 225.872 864.312 133.025L856.312 132.986ZM870.313 432.334C881.326 432.109 898.304 432.335 915.559 432.278C932.656 432.222 950.025 431.887 961.346 430.501L960.373 422.561C949.6 423.88 932.702 424.222 915.532 424.278C898.52 424.334 881.231 424.109 870.15 424.335L870.313 432.334ZM964.835 426.973C967.113 406.469 968.016 376.091 968.016 357.095H960.016C960.016 375.973 959.115 406.013 956.884 426.089L964.835 426.973ZM963.887 353.097C950.177 353.539 937.317 352.658 922.565 350.869L921.602 358.811C936.608 360.63 949.899 361.552 964.145 361.093L963.887 353.097ZM926.049 354.317C922.934 330.732 922.927 310.241 923.377 286.381L915.379 286.231C914.927 310.165 914.92 331.155 918.118 355.364L926.049 354.317ZM920.138 290.233C926.689 288.965 936.577 288.728 944.995 288.784C949.152 288.812 952.849 288.91 955.486 288.973C956.786 289.005 957.873 289.029 958.609 289.03C958.946 289.03 959.345 289.027 959.679 289C959.772 288.993 959.911 288.98 960.071 288.955C960.17 288.939 960.541 288.882 960.974 288.712C961.168 288.636 961.685 288.421 962.207 287.949C962.783 287.428 963.678 286.267 963.509 284.575C963.363 283.111 962.495 282.254 962.182 281.976C961.806 281.641 961.453 281.454 961.296 281.376L957.718 288.531C957.575 288.46 957.232 288.279 956.863 287.951C956.557 287.679 955.694 286.828 955.549 285.371C955.38 283.684 956.273 282.529 956.843 282.014C957.358 281.548 957.866 281.338 958.047 281.267C958.455 281.106 958.788 281.058 958.836 281.051C958.945 281.034 959.021 281.027 959.038 281.026C959.067 281.024 958.964 281.03 958.62 281.03C957.994 281.029 957.008 281.008 955.679 280.976C953.061 280.912 949.29 280.813 945.049 280.784C936.672 280.728 926.045 280.941 918.618 282.379L920.138 290.233ZM963.45 285.625C967.005 264.737 971.163 248.005 971.622 225.971L963.624 225.804C963.181 247.055 959.222 262.786 955.563 284.282L963.45 285.625ZM967.901 221.897C948.558 220.548 932.457 219.615 917.652 221.003L918.399 228.968C932.451 227.651 947.912 228.522 967.344 229.878L967.901 221.897ZM921.899 223.986C918.379 210.349 916.674 195.586 918.824 181.398L910.914 180.2C908.555 195.771 910.458 211.668 914.152 225.985L921.899 223.986ZM914.977 184.798C931.598 184.349 948.569 184.352 965.045 185.688L965.692 177.714C948.802 176.345 931.506 176.348 914.761 176.801L914.977 184.798ZM969.214 182.8C971.219 175.783 971.053 166.894 970.832 158.432C970.603 149.662 970.294 141.097 971.565 133.681L963.68 132.33C962.246 140.695 962.613 150.166 962.835 158.641C963.065 167.426 963.124 174.995 961.522 180.602L969.214 182.8ZM967.435 129.01C938.695 130.357 893.004 129.006 860.312 129.006V137.006C892.548 137.006 938.837 138.359 967.81 137.001L967.435 129.01ZM1128.36 175.839L1132.35 175.677L1132.35 175.663L1132.35 175.649L1128.36 175.839ZM1122.95 143.827L1119.94 146.469L1119.95 146.473L1122.95 143.827ZM1020.14 136.162L1019.09 132.303L1016.29 133.067L1016.15 135.969L1020.14 136.162ZM1021.95 430.138L1017.95 430.319L1018.16 434.974L1022.73 434.06L1021.95 430.138ZM1066.58 422.924L1067.49 426.819L1070.75 426.06L1070.58 422.724L1066.58 422.924ZM1063.88 318.77L1063.01 314.865L1059.74 315.592L1059.88 318.941L1063.88 318.77ZM1072 316.966L1075.71 315.481L1074.45 312.324L1071.13 313.061L1072 316.966ZM1076.5 426.08L1072.52 426.442L1072.86 430.213L1076.65 430.077L1076.5 426.08ZM1123.4 424.727L1123.25 428.725L1126.87 428.859L1127.36 425.266L1123.4 424.727ZM1101.3 286.306L1098.68 283.283L1095.23 286.279L1098.66 289.305L1101.3 286.306ZM1122.04 270.976L1125.97 271.76L1125.97 271.751L1125.97 271.741L1122.04 270.976ZM1080.56 183.054L1084.51 182.43L1083.87 178.352L1079.81 179.124L1080.56 183.054ZM1077.86 269.172L1076.86 273.046L1080.54 273.996L1081.67 270.366L1077.86 269.172ZM1063.88 265.565L1059.88 265.496L1059.83 268.65L1062.88 269.438L1063.88 265.565ZM1061.62 186.661L1060.88 182.731L1057.27 183.419L1057.65 187.072L1061.62 186.661ZM1132.35 175.649C1132.24 173.406 1132.27 170.841 1132.27 167.921C1132.27 165.064 1132.24 161.945 1132.01 158.85C1131.54 152.82 1130.24 146.044 1125.94 141.18L1119.95 146.473C1122.42 149.274 1123.59 153.771 1124.03 159.464C1124.24 162.23 1124.27 165.086 1124.27 167.921C1124.27 170.694 1124.24 173.539 1124.36 176.03L1132.35 175.649ZM1125.95 141.184C1120.08 134.513 1110.37 130.921 1099.94 128.995C1089.36 127.04 1077.28 126.664 1065.84 127.035C1043.02 127.775 1021.95 131.522 1019.09 132.303L1021.2 140.021C1023.29 139.449 1043.71 135.757 1066.09 135.031C1077.25 134.669 1088.7 135.054 1098.48 136.861C1108.42 138.697 1115.89 141.868 1119.94 146.469L1125.95 141.184ZM1016.15 135.969C1011.18 238.951 1013.44 330.621 1017.95 430.319L1025.94 429.957C1021.44 330.364 1019.19 238.976 1024.14 136.354L1016.15 135.969ZM1022.73 434.06C1028.22 432.963 1035.82 431.97 1043.97 430.83C1052.02 429.706 1060.53 428.444 1067.49 426.819L1065.68 419.028C1059.11 420.56 1050.94 421.778 1042.87 422.908C1034.9 424.022 1026.95 425.059 1021.16 426.216L1022.73 434.06ZM1070.58 422.724C1069.68 404.764 1069.34 386.677 1069.06 369.092C1068.78 351.532 1068.55 334.446 1067.88 318.598L1059.88 318.941C1060.56 334.655 1060.78 351.611 1061.06 369.22C1061.35 386.804 1061.68 405.013 1062.59 423.124L1070.58 422.724ZM1064.75 322.674L1072.86 320.871L1071.13 313.061L1063.01 314.865L1064.75 322.674ZM1068.28 318.452C1070.54 324.087 1071.85 331.668 1072.52 340.59C1073.18 349.462 1073.18 359.383 1072.96 369.575C1072.51 389.72 1071.14 411.263 1072.52 426.442L1080.49 425.718C1079.16 411.138 1080.5 390.524 1080.95 369.751C1081.18 359.484 1081.18 349.257 1080.49 339.995C1079.81 330.783 1078.41 322.245 1075.71 315.481L1068.28 318.452ZM1076.65 430.077C1089.5 429.618 1111.27 428.281 1123.25 428.725L1123.54 420.73C1111.18 420.272 1088.75 421.64 1076.36 422.083L1076.65 430.077ZM1127.36 425.266C1132.37 388.387 1129.65 345.432 1129.65 307.047H1121.65C1121.65 346.214 1124.34 388.024 1119.43 424.189L1127.36 425.266ZM1129.65 307.047C1129.65 299.011 1123.55 294.491 1118.34 291.513C1115.7 290.007 1112.62 288.539 1110.19 287.27C1107.59 285.909 1105.48 284.657 1103.95 283.307L1098.66 289.305C1100.96 291.337 1103.81 292.959 1106.49 294.36C1109.34 295.852 1111.87 297.034 1114.37 298.458C1119.41 301.341 1121.65 303.811 1121.65 307.047H1129.65ZM1103.92 289.329C1105.12 288.294 1106.64 287.506 1108.56 286.739C1109.52 286.355 1110.51 286.005 1111.59 285.617C1112.65 285.24 1113.78 284.829 1114.9 284.362C1117.13 283.433 1119.56 282.178 1121.62 280.144C1123.74 278.045 1125.25 275.315 1125.97 271.76L1118.12 270.191C1117.7 272.273 1116.91 273.544 1115.99 274.461C1115 275.442 1113.65 276.216 1111.83 276.978C1110.92 277.357 1109.95 277.706 1108.89 278.086C1107.86 278.456 1106.72 278.86 1105.6 279.307C1103.35 280.203 1100.87 281.387 1098.68 283.283L1103.92 289.329ZM1125.97 271.741C1132.81 236.635 1133.71 209.256 1132.35 175.677L1124.36 176.001C1125.7 209.154 1124.8 235.881 1118.12 270.211L1125.97 271.741ZM1076.61 183.677C1077.92 191.942 1078.93 207.819 1078.76 224.382C1078.59 241.032 1077.23 257.764 1074.04 267.979L1081.67 270.366C1085.25 258.938 1086.59 241.178 1086.76 224.463C1086.93 207.66 1085.91 191.299 1084.51 182.43L1076.61 183.677ZM1078.86 265.299L1064.88 261.692L1062.88 269.438L1076.86 273.046L1078.86 265.299ZM1067.88 265.634C1068.33 239.458 1068.34 212.654 1065.6 186.249L1057.65 187.072C1060.33 212.97 1060.33 239.37 1059.88 265.496L1067.88 265.634ZM1062.37 190.59L1081.31 186.983L1079.81 179.124L1060.88 182.731L1062.37 190.59ZM1278.43 423.826L1278.86 427.803L1281.57 427.511L1282.29 424.883L1278.43 423.826ZM1287.45 302.538L1283.45 302.39L1283.45 302.423L1283.45 302.456L1287.45 302.538ZM1275.28 284.502L1274.41 288.407L1274.84 288.502H1275.28V284.502ZM1242.81 284.052V280.052H1238.43L1238.83 284.414L1242.81 284.052ZM1246.87 341.765L1247.57 345.704L1250.87 345.121V341.765H1246.87ZM1231.54 344.47L1227.66 345.44L1228.56 349.057L1232.24 348.409L1231.54 344.47ZM1222.97 198.835L1221.97 194.961L1219.19 195.679L1218.98 198.544L1222.97 198.835ZM1236.95 195.227L1240.65 193.709L1239.33 190.483L1235.95 191.354L1236.95 195.227ZM1244.17 253.391L1240.17 253.513L1240.22 255.191L1241.45 256.331L1244.17 253.391ZM1287 255.646L1288.51 259.35L1290.84 258.399L1290.99 255.881L1287 255.646ZM1282.49 133.456L1286.46 132.945L1286.08 130.028L1283.19 129.517L1282.49 133.456ZM1187.35 133.006L1186.2 129.176L1183.84 129.888L1183.42 132.312L1187.35 133.006ZM1182.39 346.724L1178.4 346.935L1178.4 346.943L1182.39 346.724ZM1191.86 424.276L1187.95 425.092L1188.61 428.276H1191.86V424.276ZM1282.29 424.883C1286.26 410.42 1288.41 385.189 1289.64 361.189C1290.89 337.047 1291.23 313.639 1291.45 302.619L1283.45 302.456C1283.23 313.53 1282.89 336.789 1281.65 360.778C1280.41 384.91 1278.27 409.276 1274.58 422.768L1282.29 424.883ZM1291.45 302.686C1291.69 296.272 1290.79 290.736 1288.05 286.707C1285.12 282.392 1280.58 280.502 1275.28 280.502V288.502C1278.54 288.502 1280.31 289.544 1281.44 291.202C1282.76 293.148 1283.67 296.63 1283.45 302.39L1291.45 302.686ZM1276.14 280.598C1271.57 279.581 1265.84 279.489 1260.15 279.601C1254.21 279.719 1248.45 280.052 1242.81 280.052V288.052C1248.45 288.052 1254.87 287.708 1260.31 287.6C1266 287.487 1270.87 287.62 1274.41 288.407L1276.14 280.598ZM1238.83 284.414C1240.2 299.444 1242.87 323.967 1242.87 341.765H1250.87C1250.87 323.492 1248.14 298.417 1246.8 283.689L1238.83 284.414ZM1246.18 337.826L1230.85 340.531L1232.24 348.409L1247.57 345.704L1246.18 337.826ZM1235.42 343.5C1229.89 321.375 1227.31 291.507 1226.35 263.905C1225.4 236.349 1226.07 211.358 1226.96 199.125L1218.98 198.544C1218.07 211.11 1217.39 236.392 1218.36 264.182C1219.32 291.926 1221.92 322.476 1227.66 345.44L1235.42 343.5ZM1223.97 202.708L1237.95 199.101L1235.95 191.354L1221.97 194.961L1223.97 202.708ZM1233.25 196.746C1236.62 204.961 1238.27 215.292 1239.11 225.646C1239.94 235.996 1239.94 245.914 1240.17 253.513L1248.16 253.27C1247.94 245.989 1247.94 235.618 1247.08 225.002C1246.23 214.39 1244.5 203.078 1240.65 193.709L1233.25 196.746ZM1241.45 256.331C1243.68 258.39 1247.15 259.712 1250.63 260.6C1254.27 261.529 1258.56 262.135 1262.98 262.4C1271.68 262.923 1281.62 262.158 1288.51 259.35L1285.49 251.942C1280.21 254.094 1271.66 254.907 1263.46 254.415C1259.42 254.173 1255.65 253.624 1252.61 252.848C1249.41 252.03 1247.58 251.099 1246.88 250.452L1241.45 256.331ZM1290.99 255.881C1293.71 209.613 1291.9 175.094 1286.46 132.945L1278.52 133.968C1283.91 175.683 1285.7 209.699 1283.01 255.411L1290.99 255.881ZM1283.19 129.517C1271.48 127.451 1253.47 125.518 1235.37 125.006C1217.39 124.497 1198.81 125.37 1186.2 129.176L1188.51 136.835C1199.8 133.426 1217.28 132.497 1235.15 133.002C1252.9 133.505 1270.51 135.404 1281.8 137.396L1283.19 129.517ZM1183.42 132.312C1170.7 204.524 1174.35 269.905 1178.4 346.935L1186.39 346.514C1182.33 269.342 1178.76 204.868 1191.29 133.699L1183.42 132.312ZM1178.4 346.943C1180.21 380.03 1183.39 403.227 1187.95 425.092L1195.78 423.461C1191.32 402.041 1188.18 379.248 1186.39 346.506L1178.4 346.943ZM1191.86 428.276C1219.76 428.276 1249.29 430.987 1278.86 427.803L1278 419.849C1248.96 422.976 1220.78 420.276 1191.86 420.276V428.276Z" fill="black"/>
<path d="M124.393 113.061C124.377 113.126 124.312 113.251 124.096 113.421C123.883 113.588 123.566 113.766 123.131 113.948C122.263 114.312 121.011 114.66 119.409 114.985C116.213 115.636 111.716 116.181 106.335 116.618C95.5785 117.491 81.3491 117.928 67.0564 117.928C52.7639 117.928 38.4212 117.491 27.4382 116.618C21.9446 116.181 17.305 115.635 13.9366 114.984C12.2504 114.658 10.9009 114.309 9.92801 113.941C9.44139 113.757 9.06418 113.574 8.79092 113.395C8.51174 113.213 8.37913 113.061 8.32611 112.955C7.94171 112.186 7.67481 110.659 7.59626 108.425C7.51865 106.218 7.62609 103.395 7.93782 100.095C8.56116 93.4962 9.99821 85.019 12.3813 75.7901C17.1501 57.3221 25.6904 35.9088 39.0196 20.5165C51.3379 6.29146 64.3879 0.734672 76.9746 0.50731C89.5824 0.279567 101.798 5.39803 112.424 12.6642C123.048 19.9284 132.044 29.314 138.199 37.5525C141.277 41.6718 143.636 45.4934 145.132 48.6084C145.88 50.1666 146.407 51.5365 146.702 52.6709C147.001 53.8203 147.045 54.6672 146.896 55.2132C146.57 56.4109 145.915 57.0418 145.018 57.3189C144.075 57.6103 142.804 57.5291 141.249 57.122C138.147 56.3094 134.206 54.2811 130.178 52.0514C129.208 51.5141 128.232 50.9652 127.265 50.4207C124.246 48.7219 121.301 47.0647 118.803 45.9281C117.155 45.1785 115.657 44.6334 114.431 44.4612C113.218 44.2909 112.099 44.4675 111.466 45.3965C111.16 45.845 111.002 46.4836 110.928 47.2155C110.852 47.9613 110.859 48.8686 110.931 49.9053C111.075 51.9797 111.486 54.6301 112.075 57.6566C113.253 63.7123 115.158 71.3354 117.123 78.9901C117.506 80.4818 117.891 81.9746 118.273 83.4575C119.856 89.5917 121.395 95.556 122.547 100.564C123.262 103.673 123.826 106.403 124.158 108.57C124.324 109.653 124.431 110.587 124.471 111.353C124.512 112.128 124.481 112.695 124.393 113.061Z" fill="url(#paint0_linear_187_3718)" stroke="black"/>
<path d="M35.1826 128.176C23.83 130.29 17.9069 128.176 11.8067 132.824C8.47744 135.361 0.277008 123.52 17.2361 121.409C29.2108 119.918 46.5352 126.062 35.1826 128.176Z" fill="#F1F1F1"/>
<path d="M157.34 53.1626C161.886 56.0872 163.208 62.126 160.298 66.6494C157.388 71.1729 151.345 72.4738 146.799 69.5493C142.252 66.6247 140.931 60.5859 143.841 56.0624C146.75 51.539 152.794 50.238 157.34 53.1626Z" fill="white" stroke="black"/>
<ellipse cx="154.969" cy="61.5405" rx="4.5" ry="7" fill="#F1F1F1"/>
<path d="M4.23819 113.526C4.31309 113.448 4.48787 113.334 4.82127 113.205C5.14352 113.08 5.57016 112.959 6.10246 112.843C7.1663 112.611 8.60459 112.411 10.3736 112.24C13.9087 111.9 18.7129 111.686 24.373 111.569C35.6903 111.335 50.3902 111.491 65.1177 111.803C84.9651 112.224 104.882 112.93 116.591 113.345C122.243 113.546 125.983 113.678 126.879 113.678C127.384 113.678 127.867 113.92 128.33 114.441C128.799 114.969 129.219 115.756 129.571 116.758C130.274 118.76 130.66 121.498 130.691 124.371C130.722 127.241 130.397 130.208 129.702 132.659C128.999 135.14 127.951 136.974 126.627 137.746C126.497 137.822 126.258 137.916 125.882 138.018C125.515 138.118 125.048 138.218 124.482 138.318C123.352 138.517 121.858 138.708 120.046 138.891C116.425 139.256 111.566 139.581 105.878 139.858C94.5037 140.413 79.8391 140.772 65.1878 140.866C50.5361 140.959 35.9048 140.788 24.5963 140.28C18.9407 140.027 14.125 139.689 10.5564 139.261C8.77092 139.047 7.30895 138.811 6.21463 138.554C5.66726 138.426 5.22177 138.294 4.87834 138.162C4.52609 138.026 4.31872 137.903 4.21501 137.808C2.93217 136.642 1.97939 134.862 1.35902 132.726C0.740162 130.596 0.462926 128.147 0.503962 125.687C0.544988 123.227 0.90388 120.773 1.54543 118.635C2.18906 116.489 3.10614 114.697 4.23819 113.526Z" fill="white" stroke="black"/>
<path d="M265 132C262.136 125 269.5 118 273.5 118C323 111 332.823 116.424 336.5 118C340 119.5 343.5 134.5 336.5 144.5C329.5 154.5 324 141 320.5 137C317 133 311 155.5 308 141C305 126.5 290.5 131 286.5 135.5C282.5 140 282 162 276.5 155.5C271 149 269.5 143 265 132Z" fill="white" stroke="white"/>
<path d="M714.635 134.416C711.816 127.446 719.065 120.477 723.003 120.477C771.732 113.507 781.402 118.908 785.022 120.477C788.467 121.97 791.913 136.905 785.022 146.861C778.131 156.818 772.716 143.377 769.271 139.394C765.825 135.411 759.919 157.813 756.966 143.377C754.012 128.94 739.738 133.42 735.8 137.9C731.863 142.381 731.371 164.285 725.956 157.813C720.542 151.342 719.065 145.368 714.635 134.416Z" fill="white" stroke="white"/>
<path d="M401.5 134.999C401.5 126.658 405.331 119 411.789 119C491.705 112.057 507.564 117.437 513.5 119C519.15 120.487 524.688 137.152 517 143.9C505.699 153.818 479.123 142.388 473.473 138.421C467.822 134.453 458.617 158.281 453.773 143.9C448.93 129.518 438.61 133.957 432.152 138.421C425.695 142.884 415.88 164.946 407 158.499C398.121 152.052 401.5 143.9 401.5 134.999Z" fill="white" stroke="white"/>
<path d="M852.631 137.462C852.632 129.121 856.463 121.463 862.92 121.463C942.836 114.52 958.696 119.901 964.631 121.463C970.282 122.951 975.819 139.616 968.131 146.363C956.83 156.281 930.255 144.851 924.604 140.884C918.953 136.917 909.748 160.745 904.905 146.363C900.061 131.981 889.742 136.421 883.284 140.884C876.826 145.347 867.011 167.409 858.131 160.962C849.252 154.515 852.631 146.363 852.631 137.462Z" fill="white" stroke="white"/>
<path d="M675.421 134.403C675.421 126.087 671.906 118.453 665.982 118.453C592.668 111.531 578.119 116.895 572.674 118.453C567.49 119.936 556.674 166.277 572.674 143.277C581.717 130.277 604.724 133.264 609.394 137.815C615 143.277 623.023 157.615 627.466 143.277C631.909 128.939 641.377 133.365 647.301 137.815C653.225 142.264 662.229 164.26 670.375 157.832C678.521 151.405 675.421 143.277 675.421 134.403Z" fill="white" stroke="white"/>
<path d="M1292.16 137.403C1292.16 129.087 1288.64 121.453 1282.72 121.453C1209.4 114.531 1194.85 119.895 1189.41 121.453C1184.22 122.936 1173.41 169.277 1189.41 146.277C1198.45 133.277 1221.46 136.264 1226.13 140.815C1231.73 146.277 1239.76 160.615 1244.2 146.277C1248.64 131.939 1258.11 136.365 1264.04 140.815C1269.96 145.264 1278.96 167.26 1287.11 160.832C1295.26 154.405 1292.16 146.277 1292.16 137.403Z" fill="white" stroke="white"/>
<path d="M1012.62 138.403C1012.62 130.087 1016.4 122.453 1022.76 122.453C1101.5 115.531 1117.12 120.895 1122.97 122.453C1128.54 123.936 1140.15 170.277 1122.97 147.277C1113.26 134.277 1088.55 137.264 1083.53 141.815C1077.51 147.277 1068.9 161.615 1064.12 147.277C1059.35 132.939 1049.18 137.365 1042.82 141.815C1036.46 146.264 1026.79 168.26 1018.04 161.832C1009.29 155.405 1012.62 147.277 1012.62 138.403Z" fill="white" stroke="white"/>
<defs>
<linearGradient id="paint0_linear_187_3718" x1="12.8789" y1="66.1782" x2="194.879" y2="68.1782" gradientUnits="userSpaceOnUse">
<stop stop-color="#E14141"/>
<stop offset="0.911782" stop-color="#CB2525"/>
</linearGradient>
</defs>
</svg>
