<svg width="50" height="43" viewBox="0 0 50 43" fill="none" xmlns="http://www.w3.org/2000/svg">
<path d="M25.8781 13.7639C9.61631 13.5763 4.14358 20.2009 3.43994 23.5366C3.72661 26.6105 8.14649 32.5706 23.5327 31.82C42.7654 30.8818 48.2381 30.0296 49.2545 21.6603C48.4727 17.0476 46.2054 13.9985 25.8781 13.7639Z" fill="#D59056"/>
<path d="M35.9575 22.07C33.8411 22.4211 33.8092 19.4029 34.0579 17.8499C36.1519 14.8421 36.7071 15.5601 37.3439 15.3245C37.8316 14.3808 38.5167 14.7447 38.7983 15.0446C39.1791 14.8037 40.0235 14.3949 40.3556 14.6868C41.3884 14.5972 42.4097 15.0063 42.6006 15.3139C42.7916 15.6214 42.7141 17.2526 42.6485 17.7594C42.5829 18.2661 41.4062 18.5909 41.2623 18.8261C41.1184 19.0613 40.9105 21.0836 39.7194 21.2426C38.5283 21.4016 38.603 21.6311 35.9575 22.07Z" fill="#762B09"/>
<path d="M40.5122 25.2158C35.7973 26.8064 33.8251 22.7189 33.4704 20.6574C33.463 23.6119 34.9217 25.2261 35.4429 25.7611C36.8642 27.2202 40.1171 27.5534 41.75 27.3238C48.5635 23.7788 45.303 17.2044 44.8545 17.5071C44.8444 22.2553 42.4995 24.4104 40.5122 25.2158Z" fill="#490E02"/>
<path d="M35.4753 21.1846C34.4645 21.1522 34.1317 19.3821 34.0222 18.5072C32.974 19.4392 33.6356 21.8615 34.1668 22.9501C34.6389 23.7435 36.001 25.3842 37.6729 25.5996C39.7627 25.8689 41.286 24.8356 41.9863 24.7748C42.6867 24.7141 42.7393 24.1588 42.7221 23.9601C43.0594 23.7806 44.3083 23.0716 44.4739 22.6567C44.6396 22.2418 44.499 21.2027 44.5861 21.045C44.6732 20.8873 45.4013 18.8216 44.839 17.5688C44.3891 16.5666 42.723 15.4496 41.9462 15.0164C42.2719 15.6723 42.7667 17.0377 42.1402 17.2523C41.5136 17.4668 41.0999 18.0434 40.9714 18.3049C40.7736 19.123 40.1343 20.7404 39.16 20.6647C37.9422 20.5701 36.7389 21.2252 35.4753 21.1846Z" fill="#6C1A01"/>
<path d="M37.7182 15.6093C37.5624 15.5269 37.2802 15.8325 37.1586 15.9956C37.156 15.9748 37.1209 15.8859 37.0006 15.6975C36.8502 15.4619 36.6418 15.7415 36.5222 15.7562C36.4026 15.7709 36.605 15.9366 36.4717 16.334C36.3384 16.7314 37.056 16.6433 37.2739 16.9341C37.4917 17.2249 37.8198 16.9306 37.8719 16.8606C37.924 16.7907 37.8779 16.4153 37.9821 16.2755C38.0864 16.1357 37.913 15.7124 37.7182 15.6093Z" fill="#84300A"/>
<path d="M39.9709 15.0572C39.729 15.0563 39.5091 15.2193 39.345 15.4113C39.3389 15.3948 39.1076 15.5557 38.9073 15.4493C38.6569 15.3162 38.3755 15.6453 38.1982 15.7106C38.0209 15.7759 38.3417 15.8267 38.1855 16.2224C38.0292 16.618 38.7725 16.4294 39.1298 16.5794C39.4871 16.7294 40.4276 16.2792 40.498 16.1969C40.5683 16.1147 40.6356 15.6576 40.7763 15.4931C40.917 15.3286 40.2734 15.0584 39.9709 15.0572Z" fill="#84300A"/>
<path d="M35.9045 16.4901C35.6626 16.4892 35.5455 16.7655 35.3813 16.9575C35.3752 16.941 35.44 17.4455 35.2397 17.339C34.9893 17.206 34.6885 17.6734 34.5431 17.8214C34.4107 17.9562 34.9154 18.0928 34.7592 18.4884C34.603 18.884 35.1622 18.4009 35.5195 18.5509C35.8768 18.7009 36.8173 18.2508 36.8877 18.1685C36.9581 18.0862 37.0173 17.7642 36.9921 17.4736C36.9669 17.183 36.207 16.4913 35.9045 16.4901Z" fill="#84300A"/>
<path d="M21.9458 21.1317C24.0623 21.4828 24.0941 18.4645 23.8454 16.9115C21.7514 13.9038 21.1962 14.6217 20.5594 14.3862C20.0717 13.4424 19.3866 13.8063 19.105 14.1063C18.7243 13.8654 17.8798 13.4565 17.5478 13.7485C16.515 13.6589 15.4937 14.068 15.3027 14.3755C15.1117 14.6831 15.1892 16.3143 15.2548 16.821C15.3204 17.3278 16.4971 17.6526 16.641 17.8877C16.7849 18.1229 16.9928 20.1452 18.1839 20.3042C19.375 20.4632 19.3003 20.6928 21.9458 21.1317Z" fill="#762B09"/>
<path d="M17.3912 24.2773C22.106 25.8679 24.0783 21.7805 24.4329 19.7189C24.4404 22.6734 22.9816 24.2876 22.4605 24.8226C21.0391 26.2817 17.7862 26.6149 16.1533 26.3854C9.33985 22.8404 12.6004 16.2659 13.0488 16.5686C13.0589 21.3168 15.4039 23.4719 17.3912 24.2773Z" fill="#490E02"/>
<path d="M22.4277 20.2462C23.4386 20.2138 23.7714 18.4438 23.8809 17.5689C24.929 18.5008 24.2675 20.9232 23.7362 22.0118C23.2642 22.8052 21.9021 24.4459 20.2302 24.6612C18.1403 24.9305 16.6171 23.8972 15.9167 23.8365C15.2164 23.7757 15.1637 23.2205 15.181 23.0217C14.8437 22.8423 13.5948 22.1332 13.4291 21.7183C13.2635 21.3035 13.4041 20.2644 13.317 20.1067C13.2298 19.9489 12.5018 17.8833 13.0641 16.6305C13.5139 15.6282 15.1801 14.5112 15.9569 14.078C15.6312 14.7339 15.1364 16.0994 15.7629 16.3139C16.3894 16.5285 16.8031 17.105 16.9317 17.3665C17.1295 18.1846 17.7687 19.802 18.743 19.7263C19.9609 19.6318 21.1641 20.2868 22.4277 20.2462Z" fill="#6C1A01"/>
<path d="M20.1851 14.671C20.3409 14.5885 20.6231 14.8941 20.7447 15.0573C20.7473 15.0364 20.7825 14.9476 20.9027 14.7591C21.0531 14.5236 21.2616 14.8032 21.3812 14.8179C21.5008 14.8326 21.2983 14.9982 21.4316 15.3957C21.5649 15.7931 20.8473 15.7049 20.6295 15.9957C20.4116 16.2865 20.0836 15.9922 20.0314 15.9223C19.9793 15.8524 20.0254 15.477 19.9212 15.3372C19.817 15.1974 19.9903 14.7741 20.1851 14.671Z" fill="#84300A"/>
<path d="M17.9324 14.119C18.1744 14.1181 18.3942 14.2811 18.5583 14.4731C18.5644 14.4565 18.7957 14.6175 18.996 14.511C19.2464 14.378 19.5278 14.707 19.7051 14.7724C19.8824 14.8377 19.5616 14.8885 19.7179 15.2841C19.8741 15.6797 19.1308 15.4911 18.7735 15.6411C18.4162 15.7911 17.4757 15.341 17.4053 15.2587C17.335 15.1764 17.2678 14.7194 17.127 14.5549C16.9863 14.3903 17.6299 14.1202 17.9324 14.119Z" fill="#84300A"/>
<path d="M21.9988 15.5516C22.2408 15.5507 22.3579 15.8271 22.522 16.019C22.5281 16.0025 22.4633 16.507 22.6636 16.4005C22.914 16.2675 23.2148 16.735 23.3602 16.883C23.4927 17.0177 22.9879 17.1543 23.1441 17.5499C23.3004 17.9456 22.7411 17.4625 22.3838 17.6125C22.0265 17.7625 21.086 17.3123 21.0156 17.23C20.9453 17.1478 20.886 16.8257 20.9113 16.5351C20.9365 16.2445 21.6963 15.5528 21.9988 15.5516Z" fill="#84300A"/>
<path d="M17.6628 16.1282C15.5464 16.4794 15.5146 13.4611 15.7632 11.9081C17.8573 8.90037 18.4125 9.61833 19.0492 9.38275C19.5369 8.439 20.2221 8.80293 20.5037 9.10286C20.8844 8.86194 21.7288 8.45308 22.0609 8.74507C23.0937 8.65547 24.115 9.06454 24.306 9.3721C24.497 9.67966 24.4194 11.3109 24.3538 11.8176C24.2883 12.3244 23.1115 12.6491 22.9676 12.8843C22.8237 13.1195 22.6158 15.1418 21.4247 15.3008C20.2336 15.4598 20.3083 15.6893 17.6628 16.1282Z" fill="#762B09"/>
<path d="M22.2175 19.2738C17.5026 20.8644 15.5304 16.7769 15.1757 14.7153C15.1683 17.6699 16.627 19.284 17.1482 19.8191C18.5695 21.2782 21.8225 21.6114 23.4553 21.3818C30.2688 17.8368 27.0083 11.2624 26.5598 11.5651C26.5497 16.3133 24.2048 18.4684 22.2175 19.2738Z" fill="#490E02"/>
<path d="M17.1809 15.2427C16.17 15.2103 15.8373 13.4403 15.7278 12.5653C14.6796 13.4973 15.3411 15.9196 15.8724 17.0083C16.3445 17.8017 17.7065 19.4423 19.3784 19.6577C21.4683 19.927 22.9915 18.8937 23.6919 18.8329C24.3923 18.7722 24.4449 18.2169 24.4277 18.0182C24.7649 17.8388 26.0139 17.1297 26.1795 16.7148C26.3451 16.2999 26.2046 15.2609 26.2917 15.1031C26.3788 14.9454 27.1069 12.8798 26.5445 11.6269C26.0947 10.6247 24.4286 9.50769 23.6518 9.07446C23.9775 9.73038 24.4723 11.0958 23.8457 11.3104C23.2192 11.5249 22.8055 12.1015 22.677 12.363C22.4792 13.1811 21.8399 14.7985 20.8656 14.7228C19.6477 14.6282 18.4445 15.2833 17.1809 15.2427Z" fill="#6C1A01"/>
<path d="M19.4235 9.66745C19.2677 9.58497 18.9855 9.8906 18.8639 10.0537C18.8614 10.0329 18.8262 9.94404 18.7059 9.75559C18.5556 9.52002 18.3471 9.79965 18.2275 9.81434C18.1079 9.82903 18.3103 9.99469 18.177 10.3921C18.0437 10.7895 18.7614 10.7014 18.9792 10.9922C19.197 11.283 19.5251 10.9887 19.5772 10.9187C19.6293 10.8488 19.5832 10.4734 19.6875 10.3336C19.7917 10.1938 19.6183 9.77055 19.4235 9.66745Z" fill="#84300A"/>
<path d="M21.6763 9.11535C21.4343 9.11439 21.2145 9.27743 21.0503 9.4694C21.0442 9.45286 20.8129 9.61382 20.6126 9.50737C20.3622 9.3743 20.0808 9.70337 19.9035 9.76871C19.7262 9.83405 20.047 9.88485 19.8908 10.2805C19.7346 10.6761 20.4778 10.4875 20.8351 10.6375C21.1925 10.7875 22.133 10.3373 22.2033 10.255C22.2737 10.1728 22.3409 9.71575 22.4816 9.55121C22.6223 9.38667 21.9787 9.11655 21.6763 9.11535Z" fill="#84300A"/>
<path d="M17.6099 10.5481C17.3679 10.5471 17.2508 10.8235 17.0866 11.0155C17.0805 10.9989 17.1453 11.5035 16.945 11.397C16.6946 11.2639 16.3938 11.7314 16.2484 11.8794C16.116 12.0142 16.6207 12.1508 16.4645 12.5464C16.3083 12.942 16.8675 12.4589 17.2248 12.6089C17.5822 12.7589 18.5227 12.3088 18.593 12.2265C18.6634 12.1442 18.7226 11.8222 18.6974 11.5316C18.6722 11.241 17.9123 10.5493 17.6099 10.5481Z" fill="#84300A"/>
<path d="M39.711 13.9821C41.8527 13.8578 41.218 10.9068 40.6329 9.44692C37.927 6.97516 37.5439 7.79789 36.8708 7.70857C36.187 6.89564 35.599 7.40173 35.3905 7.75639C34.966 7.60537 34.0521 7.39285 33.7927 7.75089C32.7656 7.8913 31.8596 8.51557 31.7412 8.85768C31.6228 9.19979 32.0582 10.7737 32.2339 11.2535C32.4097 11.7333 33.629 11.7905 33.8213 11.9882C34.0135 12.1858 34.6624 14.1125 35.8592 14.0048C37.056 13.8972 37.0338 14.1376 39.711 13.9821Z" fill="#762B09"/>
<path d="M35.9625 18.0549C40.9121 18.5663 41.9342 14.1445 41.8254 12.0555C42.4843 14.9357 41.4176 16.8318 41.0272 17.4686C39.9628 19.2053 36.8634 20.2478 35.2202 20.3841C27.7926 18.4292 29.5226 11.2975 30.0268 11.4938C31.084 16.1229 33.8465 17.7077 35.9625 18.0549Z" fill="#490E02"/>
<path d="M39.986 13.0122C40.9648 12.7575 40.8989 10.9577 40.8128 10.0802C42.0407 10.758 41.9298 13.2666 41.6517 14.4456C41.3663 15.3236 40.3996 17.2243 38.8164 17.8031C36.8374 18.5267 35.1238 17.8549 34.4273 17.9501C33.7307 18.0453 33.5569 17.5154 33.5299 17.3177C33.1614 17.2171 31.7868 16.8009 31.5337 16.4328C31.2807 16.0647 31.1886 15.0202 31.0688 14.8856C30.949 14.7509 29.7833 12.8968 30.0554 11.5508C30.2731 10.474 31.6518 9.01702 32.314 8.42313C32.1409 9.13473 31.9595 10.5757 32.6179 10.6468C33.2764 10.7178 33.807 11.1889 33.9901 11.4156C34.3635 12.17 35.3438 13.6065 36.2774 13.3178C37.4444 12.9569 38.7625 13.3304 39.986 13.0122Z" fill="#6C1A01"/>
<path d="M36.5687 8.06887C36.7025 7.95405 37.0452 8.18991 37.1998 8.32219C37.1977 8.30129 37.2124 8.20689 37.2881 7.99655C37.3828 7.73362 37.6478 7.96038 37.7677 7.94833C37.8876 7.93628 37.7267 8.14251 37.9444 8.50074C38.162 8.85898 37.4427 8.9313 37.2943 9.26297C37.146 9.59465 36.7611 9.37994 36.6948 9.32324C36.6286 9.26655 36.5908 8.89024 36.4583 8.77686C36.3257 8.66347 36.4015 8.21239 36.5687 8.06887Z" fill="#84300A"/>
<path d="M34.2495 8.02747C34.4853 7.97316 34.7357 8.0837 34.9381 8.23472C34.9404 8.21725 35.2015 8.32324 35.3734 8.17522C35.5883 7.9902 35.9354 8.24909 36.1227 8.27372C36.31 8.29834 36.0083 8.41864 36.248 8.77005C36.4876 9.12147 35.721 9.10145 35.4056 9.32658C35.0902 9.5517 34.0736 9.32007 33.9868 9.25534C33.9 9.19062 33.7337 8.75968 33.5601 8.63023C33.3866 8.50078 33.9547 8.09536 34.2495 8.02747Z" fill="#84300A"/>
<path d="M38.5319 8.52786C38.7677 8.47355 38.9429 8.71729 39.1453 8.86831C39.1476 8.85084 39.1957 9.35723 39.3676 9.20921C39.5825 9.02418 39.979 9.41381 40.1535 9.52609C40.3124 9.62833 39.8502 9.8729 40.0898 10.2243C40.3295 10.5757 39.6774 10.2279 39.362 10.453C39.0466 10.6781 38.0299 10.4465 37.9432 10.3818C37.8564 10.317 37.7276 10.016 37.6881 9.727C37.6486 9.43802 38.2371 8.59575 38.5319 8.52786Z" fill="#84300A"/>
<path d="M25.134 6.9022C23.2748 6.28211 24.5379 3.83094 25.4018 2.68287C28.3772 1.14789 28.519 1.96477 29.1339 2.0464C29.9307 1.49245 30.3286 2.0789 30.428 2.44136C30.8383 2.40935 31.6949 2.43971 31.8384 2.81729C32.7107 3.18591 33.3609 3.95235 33.3838 4.28228C33.4068 4.61222 32.6476 5.89648 32.3783 6.27774C32.109 6.65901 31.02 6.41889 30.8034 6.54738C30.5867 6.67587 29.5553 8.22034 28.5255 7.84019C27.4957 7.46005 27.458 7.67731 25.134 6.9022Z" fill="#762B09"/>
<path d="M27.4692 11.3873C22.9823 10.6588 23.1347 6.51559 23.7285 4.69919C22.461 7.08216 22.9499 9.00861 23.1423 9.66322C23.6672 11.4485 26.1521 13.1065 27.5688 13.6183C34.5851 13.6645 34.7589 6.96271 34.2675 7.01565C32.232 10.8461 29.4181 11.5854 27.4692 11.3873Z" fill="#490E02"/>
<path d="M25.1227 5.98125C24.3202 5.52343 24.8072 3.95187 25.0923 3.19852C23.8478 3.50365 23.3478 5.7424 23.3121 6.84843C23.3546 7.69075 23.7541 9.59734 25.0124 10.4852C26.5852 11.5949 28.2566 11.4108 28.8481 11.6608C29.4397 11.9108 29.7193 11.4848 29.7902 11.3169C30.1392 11.316 31.4507 11.2766 31.7616 11.0123C32.0724 10.748 32.4026 9.84876 32.5403 9.75856C32.678 9.66837 34.148 8.311 34.2288 7.05912C34.2934 6.05761 33.4247 4.44412 32.9823 3.76256C32.9653 4.43136 32.7819 5.7454 32.1843 5.65116C31.5867 5.55691 31.0064 5.84591 30.791 6.00219C30.2819 6.57847 29.075 7.61174 28.3205 7.13463C27.3773 6.53824 26.1259 6.55353 25.1227 5.98125Z" fill="#6C1A01"/>
<path d="M29.3144 2.43617C29.2238 2.30303 28.8654 2.42938 28.6976 2.50919C28.7044 2.49126 28.7139 2.40449 28.6972 2.20094C28.6764 1.9465 28.3887 2.08333 28.2858 2.04413C28.1829 2.00492 28.2757 2.22515 27.9984 2.4892C27.721 2.75325 28.3382 2.98848 28.39 3.31633C28.4417 3.64418 28.8323 3.54656 28.9043 3.51235C28.9762 3.47814 29.0993 3.15529 29.2432 3.08687C29.387 3.01846 29.4277 2.60259 29.3144 2.43617Z" fill="#84300A"/>
<path d="M31.3697 2.95235C31.1746 2.84825 30.9275 2.88607 30.7129 2.97101C30.7151 2.95505 30.4596 2.9863 30.3433 2.81479C30.1978 2.60041 29.8301 2.74602 29.659 2.72309C29.4879 2.70017 29.7253 2.87815 29.4302 3.13095C29.1351 3.38375 29.8159 3.54879 30.0404 3.8225C30.265 4.09621 31.2167 4.13421 31.3087 4.09781C31.4006 4.06141 31.6501 3.72101 31.834 3.6482C32.0178 3.5754 31.6134 3.08246 31.3697 2.95235Z" fill="#84300A"/>
<path d="M27.4736 2.37307C27.2786 2.26897 27.0661 2.44218 26.8515 2.52712C26.8536 2.51116 26.6906 2.9463 26.5743 2.77479C26.4288 2.56041 25.9863 2.80952 25.8057 2.86696C25.6412 2.91927 25.9905 3.24509 25.6954 3.4979C25.4003 3.7507 26.0583 3.59932 26.2828 3.87303C26.5073 4.14674 27.4591 4.18474 27.551 4.14834C27.643 4.11194 27.8283 3.87713 27.932 3.63169C28.0357 3.38626 27.7174 2.50318 27.4736 2.37307Z" fill="#84300A"/>
<path d="M30.9465 19.8805C30.7261 19.7383 30.2686 20.155 30.0674 20.3811C30.0663 20.3499 30.0256 20.2137 29.8715 19.9189C29.679 19.5504 29.334 19.9381 29.1549 19.9445C28.9757 19.9509 29.2545 20.2224 29.0058 20.7943C28.7571 21.3662 29.8321 21.3279 30.1176 21.7869C30.403 22.2459 30.9271 21.8518 31.0134 21.7549C31.0996 21.658 31.0795 21.0957 31.252 20.9019C31.4245 20.708 31.2219 20.0584 30.9465 19.8805Z" fill="#84300A"/>
<path d="M34.3569 19.3521C33.9984 19.3196 33.6516 19.5329 33.3836 19.7964C33.3767 19.7711 33.0132 19.9799 32.73 19.7964C32.376 19.5669 31.9165 20.0185 31.6454 20.0925C31.3742 20.1666 31.8431 20.2831 31.5607 20.8494C31.2783 21.4157 32.4042 21.2317 32.9145 21.5C33.4248 21.7683 34.8767 21.222 34.9915 21.1091C35.1064 20.9962 35.2648 20.3274 35.4945 20.1017C35.7242 19.8759 34.8051 19.3928 34.3569 19.3521Z" fill="#84300A"/>
<path d="M28.1453 20.9527C27.7868 20.9201 27.5777 21.3147 27.3097 21.5781C27.3028 21.5528 27.334 22.3089 27.0508 22.1254C26.6968 21.896 26.1908 22.5502 25.9562 22.7508C25.7427 22.9336 26.4732 23.2009 26.1908 23.7672C25.9084 24.3335 26.7994 23.6894 27.3097 23.9576C27.82 24.2259 29.2719 23.6796 29.3867 23.5667C29.5016 23.4538 29.6308 22.9841 29.6308 22.5502C29.6308 22.1163 28.5935 20.9933 28.1453 20.9527Z" fill="#84300A"/>
<path d="M24.0318 18.227C21.4807 17.3762 23.2137 14.0128 24.3991 12.4375C28.4819 10.3312 28.6765 11.4521 29.5201 11.5641C30.6135 10.804 31.1595 11.6087 31.2959 12.1061C31.859 12.0622 33.0343 12.1038 33.2312 12.6219C34.4282 13.1277 35.3203 14.1794 35.3518 14.6321C35.3832 15.0848 34.3416 16.847 33.972 17.3702C33.6025 17.8933 32.1082 17.5639 31.811 17.7402C31.5137 17.9165 30.0985 20.0357 28.6854 19.5141C27.2723 18.9925 27.2206 19.2906 24.0318 18.227Z" fill="#762B09"/>
<path d="M27.2361 24.3816C21.0794 23.382 21.2885 17.6969 22.1033 15.2045C20.3641 18.4743 21.0349 21.1177 21.299 22.0159C22.0192 24.4656 25.4288 26.7407 27.3728 27.4429C37.0003 27.5063 37.2388 18.3104 36.5645 18.3831C33.7715 23.639 29.9103 24.6534 27.2361 24.3816Z" fill="#490E02"/>
<path d="M24.0165 16.9635C22.9153 16.3353 23.5836 14.1789 23.9748 13.1452C22.2672 13.5639 21.5811 16.6358 21.5321 18.1534C21.5904 19.3092 22.1386 21.9254 23.8651 23.1436C26.0233 24.6663 28.3167 24.4137 29.1284 24.7567C29.9401 25.0997 30.3238 24.5153 30.4211 24.2849C30.9 24.2837 32.6995 24.2296 33.126 23.8669C33.5526 23.5042 34.0057 22.2703 34.1946 22.1466C34.3836 22.0228 36.4006 20.1603 36.5114 18.4425C36.6001 17.0683 35.4082 14.8543 34.8011 13.9191C34.7778 14.8368 34.5262 16.6399 33.7061 16.5106C32.8861 16.3813 32.0899 16.7778 31.7943 16.9923C31.0957 17.783 29.4398 19.2008 28.4044 18.5461C27.1102 17.7278 25.393 17.7488 24.0165 16.9635Z" fill="#6C1A01"/>
<path d="M29.768 12.0991C29.6436 11.9164 29.1519 12.0898 28.9215 12.1993C28.9309 12.1747 28.944 12.0557 28.9211 11.7764C28.8925 11.4272 28.4977 11.615 28.3565 11.5612C28.2154 11.5074 28.3427 11.8096 27.9621 12.1719C27.5815 12.5342 28.4284 12.857 28.4994 13.3068C28.5705 13.7567 29.1065 13.6227 29.2052 13.5758C29.3039 13.5289 29.4727 13.0859 29.6702 12.992C29.8676 12.8981 29.9234 12.3275 29.768 12.0991Z" fill="#84300A"/>
<path d="M32.5881 12.8072C32.3205 12.6644 31.9814 12.7163 31.687 12.8328C31.6899 12.8109 31.3393 12.8538 31.1797 12.6185C30.9802 12.3243 30.4755 12.5241 30.2408 12.4927C30.0061 12.4612 30.3318 12.7054 29.9269 13.0523C29.5219 13.3992 30.4561 13.6256 30.7642 14.0012C31.0723 14.3768 32.3783 14.4289 32.5044 14.379C32.6306 14.329 32.9728 13.8619 33.2252 13.7621C33.4775 13.6622 32.9226 12.9858 32.5881 12.8072Z" fill="#84300A"/>
<path d="M27.2424 12.0125C26.9748 11.8697 26.6831 12.1073 26.3887 12.2239C26.3917 12.202 26.1679 12.7991 26.0083 12.5637C25.8088 12.2696 25.2015 12.6114 24.9537 12.6902C24.728 12.762 25.2073 13.2091 24.8024 13.5559C24.3975 13.9028 25.3003 13.6951 25.6084 14.0707C25.9165 14.4462 27.2224 14.4984 27.3486 14.4484C27.4748 14.3985 27.7291 14.0763 27.8714 13.7395C28.0137 13.4027 27.5769 12.191 27.2424 12.0125Z" fill="#84300A"/>
<path d="M44.2158 26.3581C46.7669 25.5073 45.0338 22.1439 43.8484 20.5686C39.7657 18.4623 39.5711 19.5832 38.7274 19.6952C37.634 18.9351 37.088 19.7398 36.9517 20.2372C36.3886 20.1933 35.2133 20.2349 35.0164 20.753C33.8194 21.2588 32.9273 22.3105 32.8958 22.7632C32.8643 23.2159 33.906 24.9781 34.2755 25.5013C34.6451 26.0244 36.1393 25.695 36.4366 25.8713C36.7338 26.0476 38.1491 28.1668 39.5622 27.6452C40.9753 27.1236 41.027 27.4217 44.2158 26.3581Z" fill="#762B09"/>
<path d="M41.0117 32.5126C47.1684 31.513 46.9593 25.8279 46.1445 23.3355C47.8837 26.6053 47.2129 29.2487 46.9488 30.1469C46.2286 32.5966 42.819 34.8717 40.875 35.5739C31.2475 35.6372 31.009 26.4414 31.6833 26.514C34.4763 31.77 38.3375 32.7844 41.0117 32.5126Z" fill="#490E02"/>
<path d="M44.2313 25.0945C45.3325 24.4663 44.6642 22.3099 44.273 21.2762C45.9806 21.6949 46.6667 24.7668 46.7157 26.2844C46.6574 27.4402 46.1092 30.0563 44.3827 31.2746C42.2245 32.7973 39.9311 32.5447 39.1194 32.8877C38.3077 33.2307 37.924 32.6463 37.8267 32.4159C37.3478 32.4146 35.5483 32.3606 35.1218 31.9979C34.6952 31.6352 34.2421 30.4013 34.0532 30.2776C33.8642 30.1538 31.8472 28.2913 31.7364 26.5735C31.6477 25.1993 32.8396 22.9853 33.4467 22.0501C33.47 22.9678 33.7217 24.7709 34.5417 24.6416C35.3617 24.5123 36.1579 24.9088 36.4535 25.1232C37.1521 25.914 38.808 27.3318 39.8434 26.6771C41.1376 25.8588 42.8548 25.8798 44.2313 25.0945Z" fill="#6C1A01"/>
<path d="M38.4798 20.2301C38.6042 20.0474 39.0959 20.2208 39.3263 20.3303C39.3169 20.3057 39.3038 20.1866 39.3267 19.9073C39.3553 19.5582 39.7502 19.746 39.8913 19.6922C40.0324 19.6384 39.9051 19.9406 40.2857 20.3029C40.6663 20.6652 39.8194 20.988 39.7484 21.4378C39.6773 21.8877 39.1413 21.7537 39.0426 21.7068C38.9439 21.6599 38.7751 21.2168 38.5776 21.123C38.3802 21.0291 38.3244 20.4585 38.4798 20.2301Z" fill="#84300A"/>
<path d="M35.6597 20.9382C35.9273 20.7954 36.2664 20.8473 36.5608 20.9638C36.5579 20.9419 36.9085 20.9848 37.0681 20.7495C37.2676 20.4553 37.7723 20.6551 38.007 20.6236C38.2417 20.5922 37.916 20.8364 38.321 21.1833C38.7259 21.5302 37.7917 21.7566 37.4836 22.1322C37.1755 22.5078 35.8695 22.5599 35.7434 22.51C35.6172 22.46 35.275 21.9929 35.0226 21.893C34.7703 21.7931 35.3252 21.1167 35.6597 20.9382Z" fill="#84300A"/>
<path d="M41.0054 20.1434C41.273 20.0005 41.5647 20.2382 41.8591 20.3547C41.8561 20.3328 42.0799 20.9299 42.2395 20.6946C42.439 20.4004 43.0463 20.7422 43.2941 20.8211C43.5198 20.8928 43.0405 21.3399 43.4454 21.6868C43.8503 22.0337 42.9475 21.826 42.6394 22.2015C42.3313 22.5771 41.0254 22.6293 40.8992 22.5793C40.773 22.5294 40.5187 22.2072 40.3764 21.8704C40.2341 21.5336 40.6709 20.3219 41.0054 20.1434Z" fill="#84300A"/>
<path d="M7.43568 22.7497C5.25089 21.0545 8.07897 18.3824 9.76611 17.2583C14.4451 16.607 14.2517 17.7608 15.032 18.1571C16.3519 17.7925 16.6073 18.7593 16.5699 19.2883C17.1312 19.4377 18.2572 19.8789 18.2716 20.4486C19.2604 21.3475 19.7673 22.6719 19.6434 23.1218C19.5196 23.5718 17.9082 24.9262 17.3713 25.3077C16.8344 25.6893 15.4971 24.8601 15.1486 24.9298C14.8001 24.9995 12.7046 26.573 11.5115 25.5851C10.3185 24.5972 10.1667 24.8688 7.43568 22.7497Z" fill="#762B09"/>
<path d="M8.44588 29.8129C2.81378 26.7439 4.95508 21.2999 6.59534 19.1597C3.79317 21.7389 3.5427 24.5321 3.49264 25.4935C3.35609 28.1157 5.8882 31.4853 7.53472 32.8294C16.8531 36.1735 20.22 27.3335 19.541 27.1741C15.0393 31.3208 10.9475 30.9884 8.44588 29.8129Z" fill="#490E02"/>
<path d="M7.85149 21.5185C6.99736 20.5336 8.38091 18.6694 9.11293 17.7999C7.31359 17.6239 5.60058 20.3702 5.03552 21.8258C4.69798 22.9669 4.33781 25.6919 5.59745 27.4624C7.172 29.6756 9.48303 30.2125 10.1536 30.822C10.8241 31.4315 11.3956 30.9953 11.5685 30.805C12.0335 30.9671 13.7977 31.5282 14.3353 31.3217C14.8728 31.1153 15.733 30.0728 15.9585 30.0171C16.184 29.9615 18.7758 28.8423 19.4691 27.2136C20.0237 25.9107 19.6222 23.3564 19.3522 22.2421C19.0166 23.1245 18.1577 24.7879 17.4063 24.3829C16.6548 23.9778 15.7472 24.091 15.3873 24.1983C14.4399 24.7272 12.35 25.5381 11.5688 24.55C10.5922 23.3148 8.91916 22.7496 7.85149 21.5185Z" fill="#6C1A01"/>
<path d="M15.0901 18.7604C15.0318 18.5408 14.4956 18.5413 14.2348 18.569C14.2523 18.5483 14.3055 18.4373 14.3786 18.1585C14.4699 17.81 14.0228 17.8576 13.9042 17.7572C13.7856 17.6569 13.8061 17.9935 13.3133 18.2153C12.8206 18.437 13.5322 19.0389 13.4477 19.4995C13.3632 19.9602 13.9289 20.013 14.0406 20.0011C14.1524 19.9892 14.4672 19.617 14.6908 19.5933C14.9143 19.5695 15.1631 19.0349 15.0901 18.7604Z" fill="#84300A"/>
<path d="M17.5844 20.409C17.3735 20.1792 17.0268 20.1139 16.7015 20.1266C16.7118 20.1064 16.3571 20.0285 16.2824 19.7457C16.1892 19.3923 15.6315 19.4141 15.4145 19.3035C15.1975 19.193 15.4302 19.5409 14.9191 19.7394C14.408 19.9379 15.2371 20.4761 15.4079 20.9455C15.5787 21.4149 16.8279 21.9108 16.9674 21.9053C17.1068 21.8999 17.5981 21.5635 17.8769 21.5526C18.1558 21.5417 17.848 20.6963 17.5844 20.409Z" fill="#84300A"/>
<path d="M12.6694 17.8151C12.4585 17.5853 12.0945 17.7165 11.7691 17.7292C11.7794 17.7089 11.3588 18.2119 11.2842 17.9291C11.1909 17.5757 10.4853 17.7003 10.2179 17.6922C9.97452 17.6849 10.2871 18.2821 9.77599 18.4806C9.2649 18.679 10.2116 18.7853 10.3824 19.2547C10.5532 19.7241 11.8024 20.22 11.9419 20.2146C12.0813 20.2091 12.4379 19.9833 12.6907 19.7051C12.9436 19.4269 12.933 18.1024 12.6694 17.8151Z" fill="#84300A"/>
<path d="M23.8717 29.1183C26.5901 28.6106 25.2981 24.9407 24.3123 23.1691C20.4499 20.449 20.0939 21.5634 19.2187 21.5588C18.212 20.6307 17.5425 21.3735 17.3336 21.8609C16.7662 21.7369 15.5631 21.614 15.2897 22.114C13.9992 22.4608 12.9424 23.4065 12.8466 23.8632C12.7509 24.32 13.5639 26.2616 13.8667 26.8465C14.1696 27.4315 15.7381 27.3061 16.016 27.5276C16.294 27.749 17.4374 30.1069 18.9502 29.7744C20.463 29.442 20.4738 29.7529 23.8717 29.1183Z" fill="#762B09"/>
<path d="M19.7413 34.9365C26.1535 34.7847 26.7406 28.9642 26.2614 26.3107C27.5728 29.8863 26.5175 32.4845 26.122 33.3623C25.0436 35.7563 21.2503 37.5939 19.1712 38.0356C9.35545 36.7452 10.4066 27.3444 11.0833 27.5133C13.1887 33.2603 16.9791 34.837 19.7413 34.9365Z" fill="#490E02"/>
<path d="M24.0651 27.8333C25.2752 27.3484 24.898 25.0577 24.645 23.9497C26.3255 24.6165 26.592 27.8422 26.4284 29.3951C26.2064 30.5642 25.2797 33.1519 23.3496 34.1499C20.9368 35.3973 18.6363 34.8172 17.7611 35.0524C16.886 35.2875 16.5775 34.6382 16.5108 34.3898C16.0231 34.3211 14.1977 34.0128 13.8142 33.5833C13.4307 33.1538 13.1429 31.8332 12.9678 31.6805C12.7928 31.5279 11.0003 29.3468 11.1291 27.5814C11.2322 26.1691 12.7579 24.0816 13.5079 23.2144C13.4025 24.1525 13.4051 26.0246 14.2586 26.0082C15.1121 25.9919 15.8674 26.5079 16.1383 26.768C16.7386 27.6718 18.2259 29.3491 19.3727 28.8279C20.8062 28.1764 22.5524 28.4395 24.0651 27.8333Z" fill="#6C1A01"/>
<path d="M18.8908 22.0686C19.0432 21.9 19.5197 22.1458 19.739 22.2898C19.7329 22.2634 19.7363 22.1403 19.7989 21.859C19.8772 21.5074 20.253 21.7542 20.4043 21.7193C20.5557 21.6844 20.3835 21.9743 20.7201 22.3969C21.0568 22.8195 20.1487 23.0291 20.013 23.4774C19.8774 23.9256 19.3502 23.7137 19.2563 23.652C19.1624 23.5903 19.0527 23.1153 18.8648 22.9919C18.6769 22.8685 18.7004 22.2794 18.8908 22.0686Z" fill="#84300A"/>
<path d="M15.9186 22.3931C16.2113 22.2853 16.5494 22.3859 16.8329 22.546C16.833 22.5233 17.1841 22.6163 17.3798 22.3991C17.6245 22.1275 18.1104 22.402 18.3539 22.403C18.5975 22.404 18.2313 22.6069 18.595 23.0173C18.9586 23.4276 17.9751 23.5268 17.6085 23.866C17.2418 24.2052 15.9041 24.0746 15.7826 24.0059C15.6611 23.9373 15.3782 23.4133 15.1353 23.2761C14.8923 23.1388 15.5528 22.5279 15.9186 22.3931Z" fill="#84300A"/>
<path d="M21.4761 22.336C21.7688 22.2281 22.0324 22.5113 22.3159 22.6714C22.316 22.6487 22.4599 23.2884 22.6556 23.0711C22.9003 22.7996 23.4707 23.2332 23.7121 23.3484C23.9319 23.4533 23.3807 23.8412 23.7443 24.2516C24.108 24.6619 23.2176 24.3233 22.8509 24.6625C22.4842 25.0017 21.1466 24.871 21.0251 24.8024C20.9036 24.7337 20.6899 24.3697 20.5923 24.0067C20.4948 23.6436 21.1102 22.4708 21.4761 22.336Z" fill="#84300A"/>
<path d="M27.8609 32.7031C26.1624 33.9133 24.846 31.2909 24.4001 29.8284C24.9449 26.3075 25.7363 26.6975 26.1918 26.2199C26.2149 25.1875 26.9686 25.2128 27.3426 25.3545C27.5722 24.9816 28.1352 24.264 28.5499 24.3772C29.4136 23.858 30.4802 23.7793 30.7783 23.9663C31.0764 24.1534 31.7051 25.6112 31.8642 26.0817C32.0233 26.5523 31.1343 27.3383 31.109 27.6052C31.0837 27.872 31.7655 29.727 30.7931 30.3744C29.8208 31.0218 29.984 31.1903 27.8609 32.7031Z" fill="#762B09"/>
<path d="M33.1817 33.5061C29.743 36.9082 26.2755 34.1804 25.0855 32.5313C26.3405 35.1149 28.3036 35.9018 28.9872 36.1466C30.8515 36.8141 33.8347 35.7163 35.1628 34.8187C39.6 28.8137 33.9455 24.4639 33.683 24.9197C35.7014 29.0709 34.5735 31.9543 33.1817 33.5061Z" fill="#490E02"/>
<path d="M27.0618 32.1358C26.1651 32.5391 25.1188 31.1353 24.6497 30.4179C24.1321 31.6794 25.744 33.5125 26.6728 34.2365C27.4238 34.7279 29.3139 35.5792 30.866 35.0536C32.8062 34.3965 33.6954 32.8437 34.2811 32.4917C34.8669 32.1396 34.6758 31.6322 34.5759 31.466C34.7938 31.1653 35.5819 30.0127 35.5494 29.5797C35.5169 29.1467 34.9505 28.2992 34.9593 28.1242C34.968 27.9493 34.722 25.8344 33.696 24.9803C32.8752 24.297 30.9432 24.0328 30.0798 23.9861C30.6443 24.4199 31.6594 25.4012 31.2038 25.856C30.7482 26.3109 30.6331 26.9911 30.6325 27.2743C30.809 28.0733 30.9412 29.7588 30.058 30.1086C28.9539 30.546 28.1827 31.6318 27.0618 32.1358Z" fill="#6C1A01"/>
<path d="M26.6402 26.309C26.4689 26.3035 26.3529 26.6909 26.3164 26.8853C26.3052 26.8682 26.2366 26.8056 26.0511 26.6924C25.8192 26.5508 25.7565 26.8841 25.6583 26.948C25.5601 27.0118 25.8077 27.0701 25.8609 27.4741C25.9142 27.8781 26.5033 27.4948 26.8177 27.6557C27.1321 27.8167 27.293 27.4196 27.3086 27.3363C27.3243 27.253 27.1238 26.9448 27.1551 26.7782C27.1865 26.6116 26.8543 26.3159 26.6402 26.309Z" fill="#84300A"/>
<path d="M28.3721 24.865C28.1604 24.9674 28.038 25.2037 27.9766 25.4414C27.9642 25.4296 27.831 25.6689 27.6106 25.6615C27.3351 25.6521 27.2298 26.0597 27.1028 26.1924C26.9759 26.3252 27.2777 26.2326 27.3102 26.6448C27.3427 27.057 27.9113 26.575 28.2874 26.5534C28.6635 26.5319 29.2927 25.7372 29.319 25.6353C29.3453 25.5334 29.2089 25.1056 29.2616 24.9018C29.3142 24.698 28.6368 24.7369 28.3721 24.865Z" fill="#84300A"/>
<path d="M25.4323 27.8524C25.2205 27.9549 25.2362 28.2463 25.1748 28.484C25.1624 28.4722 25.4344 28.8851 25.214 28.8777C24.9385 28.8684 24.8754 29.4051 24.8116 29.5964C24.7535 29.7707 25.2526 29.6745 25.2851 30.0867C25.3176 30.4989 25.5997 29.8382 25.9758 29.8167C26.3519 29.7951 26.9812 29.0004 27.0075 28.8985C27.0338 28.7966 26.948 28.4901 26.802 28.2471C26.6559 28.0041 25.6969 27.7244 25.4323 27.8524Z" fill="#84300A"/>
<path d="M26.4533 32.165C8.31381 34.0791 3.62258 26.9671 3.5444 23.1718C3.02315 25.2894 3.5444 34.5849 4.37818 36.1252C6.77565 40.5544 14.0997 43.3033 27.8606 42.9733C41.6216 42.6432 47.8766 37.0328 48.5021 36.1252C49.1276 35.2177 50.4568 24.1619 49.2058 21.1091C48.4239 26.5545 49.1276 29.7723 26.4533 32.165Z" fill="#BB7D45"/>
</svg>
